<?xml version="1.0" encoding="utf-8"?>
<!-- Generator: Adobe Illustrator 23.0.1, SVG Export Plug-In . SVG Version: 6.00 Build 0)  -->
<svg version="1.1"
	 id="svg6345" xmlns:cc="http://creativecommons.org/ns#" xmlns:dc="http://purl.org/dc/elements/1.1/" xmlns:rdf="http://www.w3.org/1999/02/22-rdf-syntax-ns#" xmlns:svg="http://www.w3.org/2000/svg"
	 xmlns="http://www.w3.org/2000/svg" xmlns:xlink="http://www.w3.org/1999/xlink" x="0px" y="0px" viewBox="0 0 380 380"
	 style="enable-background:new 0 0 380 380;" xml:space="preserve">
<style type="text/css">
	.st0{fill:#FFFFFF;}
	.st1{fill:#C1121C;}
</style>
<g id="g6353" transform="matrix(1.25,0,0,-1.25,0,600)">
	<g id="g6355">
		<circle class="st0" cx="152" cy="328" r="159.9"/>
		<path id="path6375" class="st1" d="M152,480c-84,0-152-68-152-152c0-83.9,68.1-152,152-152c83.9,0,152,68.1,152,152
			C304,412,235.9,480,152,480z M152,440c61.9,0,112-50.1,112-112c0-61.9-50.1-112-112-112c-61.9,0-112,50.1-112,112
			C40,389.9,90.1,440,152,440z"/>
		<path id="path6377" d="M65.9,295.3h18.9c2.6-10.6,13.3-17.2,23.9-14.6c8.9,2.2,15.2,10.1,15.2,19.3v2.3c0,11-8.9,19.8-19.8,19.8
			H96v16.3h8.2c10.3,0,18.7,8.4,18.7,18.7c0,10.3-8.4,18.7-18.7,18.7c-9,0-16.7-6.4-18.3-15.2H67c1.9,20.5,20.1,35.6,40.7,33.7
			c19.2-1.8,33.8-17.9,33.8-37.2c0-10.6-5.2-20.6-13.9-26.7c9.4-6.3,15-16.8,15-28.1V300c0-21.3-17.2-38.5-38.5-38.5
			C84.7,261.5,68.3,276,65.9,295.3"/>
		<path id="path6379" d="M180,298.8c0-10.3,8.4-18.7,18.7-18.7c10.3,0,18.7,8.3,18.7,18.7v58.3c0,10.3-8.4,18.7-18.7,18.7
			c-10.3,0-18.7-8.4-18.7-18.7V298.8z M161.3,298.8v58.3c0,20.6,16.7,37.3,37.3,37.3c20.6,0,37.3-16.7,37.3-37.3v-58.3
			c0-20.6-16.7-37.3-37.3-37.3C178,261.5,161.3,278.2,161.3,298.8"/>
	</g>
</g>
</svg>
