<?xml version="1.0" encoding="utf-8"?>
<!-- Generator: Adobe Illustrator 23.0.1, SVG Export Plug-In . SVG Version: 6.00 Build 0)  -->
<svg version="1.1"
	 id="svg9482" xmlns:cc="http://creativecommons.org/ns#" xmlns:dc="http://purl.org/dc/elements/1.1/" xmlns:rdf="http://www.w3.org/1999/02/22-rdf-syntax-ns#" xmlns:svg="http://www.w3.org/2000/svg"
	 xmlns="http://www.w3.org/2000/svg" xmlns:xlink="http://www.w3.org/1999/xlink" x="0px" y="0px" viewBox="0 0 1294.4 833.4"
	 style="enable-background:new 0 0 1294.4 833.4;" xml:space="preserve">
<style type="text/css">
	.st0{fill-rule:evenodd;clip-rule:evenodd;}
	.st1{fill-rule:evenodd;clip-rule:evenodd;fill:#FFFFFF;}
	.st2{fill:#656565;}
	.st3{fill-rule:evenodd;clip-rule:evenodd;fill:#C1121C;}
</style>
<g>
	<path id="path9494" class="st0" d="M1036.8,307.1l-90-155.9L664.7,314.1L382.8,151.3l-90,155.9L484.7,418L294.2,528l90,155.9
		l280.5-162L945.4,684l90-155.9L844.7,418L1036.8,307.1L1036.8,307.1L1036.8,307.1z"/>
	<path id="path9496" class="st1" d="M1041.4,302.6L953,149.4L664.7,315.8L371.4,146.5l-88.3,153.3L487.8,418L284.3,535.5l88.4,153.2
		l292-168.7l290.5,167.8l88.5-153.1L841.6,418C908.2,379.5,974.9,341,1041.4,302.6L1041.4,302.6z"/>
	<path id="path9526" class="st2" d="M1.4,615.5L0,616.4l2.5,4.3l1.4-0.8C3,618.3,2.1,616.8,1.4,615.5L1.4,615.5z M4.7,621.2L3.3,622
		l2.5,4.3l1.4-0.8L4.7,621.2z M8,626.9l-1.4,0.8L9,632l1.4-0.8C10.4,631.2,8,626.9,8,626.9z M11.3,632.6l-1.4,0.8l2.5,4.3l1.4-0.8
		C13.7,636.9,11.3,632.6,11.3,632.6z M14.5,638.3l-1.4,0.8l2.5,4.3l1.4-0.8C16.2,641.1,15.4,639.7,14.5,638.3L14.5,638.3z M17.8,644
		l-1.4,0.8l2.5,4.3l1.4-0.8C19.5,646.8,18.6,645.4,17.8,644L17.8,644z M21.1,649.6l-1.4,0.8l2.5,4.3l1.4-0.8
		C22.7,652.4,21.8,650.9,21.1,649.6z M24.4,655.3l-1.4,0.8l2.5,4.3l1.4-0.8L24.4,655.3L24.4,655.3z M27.7,661l-1.4,0.8l2.5,4.3
		l1.4-0.8C29.3,663.9,28.5,662.4,27.7,661z M31,666.7l-1.4,0.8l2.5,4.3l1.4-0.8C32.6,669.5,31.8,668.1,31,666.7L31,666.7z
		 M34.2,672.4l-1.4,0.8l2.5,4.3l1.4-0.8C35.8,675.2,35,673.6,34.2,672.4L34.2,672.4z"/>
	<path id="path9530" class="st2" d="M1209.5,1.4l-0.8-1.4l-4.3,2.5l0.8,1.4C1206.7,3,1208.2,2.2,1209.5,1.4L1209.5,1.4z"/>
	<path id="path9532" class="st2" d="M1036,307.5l-1.4,0.8l2.5,4.3l1.4-0.8C1037.6,310.3,1036.8,308.8,1036,307.5z M1039.3,313.2
		l-1.4,0.8l2.5,4.3l1.4-0.8L1039.3,313.2z M1042.6,318.9l-1.4,0.8l2.5,4.3l1.4-0.8L1042.6,318.9z"/>
	<path id="path9538" class="st3" d="M35.3,677.5l90,155.9l259.8-150l-90-155.9C295.1,527.5,35.3,677.5,35.3,677.5z"/>
	<path id="path9540" class="st3" d="M295,308.4l90-155.9L125.2,2.6l-90,155.9L295,308.4z"/>
	<path id="path9542" class="st3" d="M944.6,152.5l90,155.9l259.8-150l-90-155.9L944.6,152.5L944.6,152.5z"/>
	<path id="path9544" class="st3" d="M1204.3,833.4l90-155.9l-259.8-150l-90,155.9C1034.9,735.6,1127,788.8,1204.3,833.4z"/>
</g>
</svg>
