<?xml version="1.0" encoding="utf-8"?>
<!-- Generator: Adobe Illustrator 23.0.1, SVG Export Plug-In . SVG Version: 6.00 Build 0)  -->
<svg version="1.1"
	 id="svg5885" xmlns:cc="http://creativecommons.org/ns#" xmlns:dc="http://purl.org/dc/elements/1.1/" xmlns:rdf="http://www.w3.org/1999/02/22-rdf-syntax-ns#" xmlns:svg="http://www.w3.org/2000/svg"
	 xmlns="http://www.w3.org/2000/svg" xmlns:xlink="http://www.w3.org/1999/xlink" x="0px" y="0px" viewBox="0 0 830.9 1259.2"
	 style="enable-background:new 0 0 830.9 1259.2;" xml:space="preserve">
<style type="text/css">
	.st0{fill-rule:evenodd;clip-rule:evenodd;}
	.st1{fill-rule:evenodd;clip-rule:evenodd;fill:#FFFFFF;}
	.st2{fill-rule:evenodd;clip-rule:evenodd;fill:#C1121C;}
</style>
<g>
	<path id="path5899" class="st0" d="M304.5,257.6l-155.9,90l162.9,282.1L148.7,911.6l155.9,90l110.8-191.9l110,190.5l155.9-90
		l-162-280.5L681.4,349l-155.9-90L415.4,449.7L304.5,257.6z"/>
	<path id="path5901" class="st1" d="M300.2,252.9l-153.4,88.6l166.4,288.2L143.9,922.9l153.4,88.6l118.2-204.8l117.4,203.4
		l153.4-88.6l-168.6-292l167.6-290.4L532,250.7L415.5,452.5L300.2,252.9L300.2,252.9z"/>
	<path id="path5903" class="st2" d="M674.9,1259.1l155.9-90l-150-259.8l-155.7,90.3L674.9,1259.1z"/>
	<path id="path5905" class="st2" d="M305.9,999.4l-155.9-90L0,1169.2l155.9,90L305.9,999.4z"/>
	<path id="path5907" class="st2" d="M149.9,349.8l155.9-90L155.8,0L0.1,90.3L149.9,349.8z"/>
	<path id="path5909" class="st2" d="M830.9,90.1L675,0.1L525,259.9l155.9,90C733.1,259.5,786.2,167.5,830.9,90.1z"/>
</g>
</svg>
