<?xml version="1.0" encoding="utf-8"?>
<!-- Generator: Adobe Illustrator 23.0.1, SVG Export Plug-In . SVG Version: 6.00 Build 0)  -->
<svg version="1.1" id="Layer_1" xmlns="http://www.w3.org/2000/svg" xmlns:xlink="http://www.w3.org/1999/xlink" x="0px" y="0px"
	 viewBox="0 0 1366 150" style="enable-background:new 0 0 1366 150;" xml:space="preserve">
<style type="text/css">
	.st0{fill:url(#SVGID_1_);}
	.st1{fill:#4A4A00;}
	.st2{fill:#710000;}
	.st3{fill:#FFFF00;}
	.st4{fill:#FF0000;}
	.st5{fill:#333333;}
	.st6{fill:#4D4D4D;}
	.st7{fill:none;stroke:#808080;stroke-width:0.4487;stroke-linecap:round;stroke-miterlimit:10;}
	.st8{fill:#1A1A1A;stroke:#999999;stroke-width:0.4487;stroke-miterlimit:10;}
	.st9{fill:#333333;stroke:#808080;stroke-width:0.1122;stroke-miterlimit:10;}
	.st10{fill:#808080;stroke:#000000;stroke-width:0.1122;stroke-linecap:round;stroke-miterlimit:10;}
	.st11{fill:#736357;}
	.st12{fill:#534741;stroke:#B3B3B3;stroke-width:0.1122;stroke-miterlimit:10;}
	.st13{fill:#4D4D4D;stroke:#999999;stroke-width:0.1122;stroke-miterlimit:10;}
	.st14{fill:#1A1A1A;stroke:#000000;stroke-width:0.4487;stroke-miterlimit:10;}
	.st15{fill:#808080;stroke:#000000;stroke-width:0.4487;stroke-linecap:round;stroke-miterlimit:10;}
	.st16{fill:#666666;}
	.st17{fill:none;stroke:#4D4D4D;stroke-width:0.4487;stroke-linecap:round;stroke-miterlimit:10;}
	.st18{opacity:0.43;}
	.st19{fill:url(#SVGID_2_);}
	.st20{fill:url(#SVGID_3_);}
	.st21{fill:url(#SVGID_4_);}
	.st22{fill:none;}
	.st23{fill:#8CC63F;}
	.st24{fill:#FCEE21;}
	.st25{fill:#FBB03B;}
	.st26{fill:url(#SVGID_5_);}
	.st27{fill:url(#SVGID_6_);}
	.st28{fill:url(#SVGID_7_);}
</style>
<g id="bg_1_">
	<g id="bg">
		
			<linearGradient id="SVGID_1_" gradientUnits="userSpaceOnUse" x1="683" y1="763.6922" x2="683" y2="615.8391" gradientTransform="matrix(1 0 0 1 0 -616)">
			<stop  offset="0" style="stop-color:#FFFFFF;stop-opacity:0"/>
			<stop  offset="0.105" style="stop-color:#F5FBFF;stop-opacity:0.105"/>
			<stop  offset="0.2804" style="stop-color:#DCEFFD;stop-opacity:0.2804"/>
			<stop  offset="0.5046" style="stop-color:#B2DCFB;stop-opacity:0.5046"/>
			<stop  offset="0.7659" style="stop-color:#78C3F8;stop-opacity:0.7659"/>
			<stop  offset="1" style="stop-color:#3FA9F5"/>
		</linearGradient>
		<rect y="-1" class="st0" width="1366" height="150"/>
	</g>
</g>
<g>
	<g>
		<g>
			<path class="st1" d="M188.4,93.2c0,0.1,0.1,0.5,0.2,0.6c0.1,0.2,0.3,0.4,0.5,0.6c0.1,0.1,0.7,0.4,0.7,0.5h0.1
				c0,0.2,0,0.4,0.1,0.6c0.1,0.3,0.3,0.4,0.4,0.6c0.2,0.3,0.4,0.7,0.5,1.1c0.2,0.3,0.4,0.7,0.7,1c0.4,0.4,0.6,0.8,0.9,1.2
				c0.1,0.1,0,0.5,0.2,0.5c0.2-0.1,0.4-0.1,0.7-0.2c0.2-0.1,0.4-0.1,0.5-0.1s0.2,0.1,0.3,0.2c0.2,0.1,0.3,0,0.5,0.1s0.1,0.2,0.2,0.3
				c0.1,0.3,0.4,0.5,0.6,0.7c0.4,0.5,0.8,0.9,1.2,1.3c0.2,0.2,0.2,0.5,0.5,0.7c0.2,0.1,0.8,0.1,1,0.2c0.1,0.4,0.5,0.6,0.7,1
				c0.2,0.3,0.2,0.7,0.5,0.9c0.3,0.3,0.6,0.7,1.1,0.5c0.2-0.1,0.3-0.2,0.5-0.1c0.1,0,0.2,0.2,0.4,0.2c0,1,1.6,0.5,1.6,1.5h0.1
				c0,0.1,0.4,0.4,0.4,0.5c0.1,0.2,0.3,0.3,0.3,0.5c0.1,0.4-0.4,0.9-0.2,1.3c0.1,0.2,0.3,0.3,0.3,0.6c0,0.2-0.2,0.5-0.3,0.7
				c-0.1,0.5-0.7,0.8-0.7,1.4c-0.3,0.1-0.4-0.2-0.7-0.3c-0.3-0.1-0.6-0.1-0.9-0.3c-0.2-0.1-0.4-0.3-0.6-0.3c-0.1,0-0.6,0.2-0.7,0.3
				c-0.1,0.1,0,0.3,0,0.4c0,0.2,0,0.3,0,0.5c0,0.3-0.1,0.5-0.2,0.8c-0.2,0.3-0.1,0.4,0,0.7c0,0.2,0,0.5-0.2,0.7
				c-0.1,0.2-0.2,0.4-0.4,0.6s-0.3,0.5-0.6,0.6c-0.1,0.4-0.6,0.3-0.8,0.3c-0.3,0.1-0.7,0.1-1,0.2s-0.6,0.3-0.9,0.4
				c-0.2,0.1-0.3,0.3-0.5,0.5c-0.4,0.4-1.2,0.1-1.6,0.6c-0.2,0.2-0.3,0.5-0.4,0.7c-0.1,0.3-0.2,0.8-0.5,0.9
				c-0.1,0.2,0.2,0.4,0.3,0.5s0.1,0.1,0.2,0.3c0,0.1,0,0.2,0.1,0.3c0.2,0.1,0.4,0.1,0.6,0.3c0.1,0.2,0,0.2,0.3,0.3
				c0.1,0,0.3,0.1,0.4,0.1c0,0.1,0,0.1,0,0.2c0.1,0,0.1,0,0.2,0c0,0.3,0.3,0.3,0.4,0.5c0.1,0.3-0.1,0.4,0.2,0.6
				c0.3,0.3,0.6,0.6,0.3,1.1c-0.1,0.2-0.3,0.4-0.5,0.6s-0.2,0.3-0.1,0.6c0.1,0.2,0.2,0.5,0.5,0.5s0.5-0.3,0.8-0.2
				c0,0.1,0.1,0.1,0.2,0.2c0,0,0.1,0,0.1,0.1s0,0.1,0,0.2c0.1,0.1,0.2,0.2,0.3,0.3c0.1,0.1,0.1,0.2,0.3,0.2c0,0.3,0,0.7-0.2,1
				c-0.2,0.4-0.5,0.3-0.7,0.6c-0.3,0.3,0.1,0.6,0.2,0.9c0,0.3-0.3,0.6-0.6,0.6c-0.1,0-0.2-0.1-0.3-0.2c-0.2-0.1-0.4,0-0.6-0.1
				c-0.5-0.1-0.3-0.6-0.6-0.8c-0.3-0.3-0.8,0-1-0.2c-0.2-0.3,0.1-0.8,0.3-1c-0.3,0-0.6-0.1-0.7-0.4c-0.1-0.2,0-0.3-0.2-0.5
				c-0.3-0.3-0.5-0.2-0.8,0c-0.5,0.3-1.1,0.8-1.7,0.4c-0.2-0.2-0.5-0.4-0.7-0.5c-0.3-0.2-0.3-0.3-0.7-0.2c-0.2,0-0.3,0.2-0.5,0.2
				c-0.1,0-0.2,0-0.4,0s-1,0-1.1,0.2s0.2,0.5,0.2,0.7c0,0.4-0.3,0.3-0.5,0.5c-0.5-0.2-0.9-0.1-1.4-0.1c-0.4,0-1.1,0-1.3-0.2
				c-0.1,0.2-0.1,0.3-0.3,0.5s-0.3,0.2-0.6,0.2s-0.4,0.1-0.7,0.2s-0.6-0.1-0.9-0.1c-0.2,0-0.3,0.2-0.5,0.2s-0.4-0.1-0.5,0.1
				c-0.1,0.2-0.1,0.4-0.3,0.6c-0.1,0.1-0.3,0.2-0.3,0.4c-0.5,0.1-0.9-0.3-1.3,0.1c-0.2,0.2-0.1,0.3-0.2,0.5
				c-0.1,0.2-0.2,0.2-0.2,0.4c-0.2,0-0.3,0-0.5,0.1c-0.1,0-0.3,0.1-0.4,0.2c-0.4,0.1-0.7,0.1-1.1,0.1c-0.4,0-0.7,0.1-1,0.3
				s-0.6,0.3-1,0.3c-0.1-0.3-0.1-0.7-0.3-1c-0.3-0.3-0.9-0.3-1.3-0.4c0.3-0.5,0.2-1.1-0.5-0.8c-0.3,0.1-0.4,0.1-0.7,0.1
				c-0.2,0-0.4,0-0.6-0.2c-0.2-0.2-0.2-0.2-0.5-0.2c-0.2,0-0.3-0.1-0.5-0.2c-0.3-0.1-1.1-0.2-1.3,0.1c-0.2,0.1-0.4,0.4-0.5,0.6
				c-0.2,0.2-0.1,0.3,0.1,0.5c0.3,0.3,0.5,0.7,0.3,1.1c-0.3,0.4-0.6,0.7-1,1s-0.7,0.7-1,1c-0.2,0.2-1,0.6-1.2,0.2
				c-0.1-0.1,0-0.5,0-0.6c0.1-0.2,0.4-0.2,0.5-0.2c-0.1-0.2-0.1-0.4-0.2-0.5c-0.1,0-0.3,0-0.4,0c-0.4,0.1-0.6,0.5-1,0.1
				c-0.2-0.2-0.2-0.5-0.2-0.7c0-0.3,0.4-0.5,0.2-0.8c-0.1-0.3-0.4-0.3-0.6-0.3c-0.2,0-0.4-0.1-0.6-0.2c-0.1-0.1,0-0.3-0.1-0.4
				c-0.2-0.3-0.5-0.2-0.8-0.2c-0.4,0-0.3-0.1-0.6-0.3c-0.2-0.1-0.6-0.2-0.8-0.2c-0.2,0.1-0.6,0.2-0.8,0.3s-0.4,0.2-0.5,0.3
				c-0.1,0.2-0.5,0.1-0.8,0c-0.1,0-0.1-0.2-0.1-0.3c-0.2,0-0.2-0.2-0.3-0.2c-0.1-0.1-0.3,0-0.4-0.2c-0.1-0.1-0.1-0.2-0.2-0.4
				c-0.1-0.1-0.3-0.1-0.4-0.1c-0.2-0.1-0.4-0.3-0.6-0.4c-0.2-0.1-0.4-0.2-0.6-0.3c-0.2-0.1-0.5-0.3-0.7-0.3c-0.3-0.1-0.5,0-0.8-0.1
				s-0.6-0.1-0.9-0.1c-0.3,0-0.5,0.1-0.8,0.1s-0.6,0.3-0.9,0.2c-0.3,0-0.3-0.4-0.5-0.4c0-0.1-0.1-0.3-0.1-0.4
				c-0.1-0.2-0.3-0.3-0.4-0.5c-0.2,0.1-0.4,0.6-0.7,0.5c-0.2-0.1-0.3-0.5-0.4-0.6c-0.2-0.2-0.5-0.3-0.7-0.4
				c-0.3-0.1-0.5-0.2-0.8-0.2c-0.6-0.1-1.1,0.5-1.4,0.9c-0.2,0.3-0.3,0.6,0,0.8c0.3,0.2,0.6,0.2,0.9,0.3c0,0.2-0.2,0.4-0.3,0.5
				c-0.2,0.2-0.3,0.3-0.3,0.6c-0.1,0-0.3,0-0.4,0c-0.1,0-0.3,0-0.3,0c-0.1,0-0.2-0.1-0.3-0.1s-0.2,0.1-0.3,0c-0.1,0-0.4-0.1-0.5-0.2
				c-0.1-0.1-0.2-0.2-0.3-0.3c-0.2-0.1-0.2-0.2-0.4-0.2c-0.6,0-0.8,0.5-1.1,0.9c-0.2,0.3-0.4,0.2-0.7,0.2c-0.2,0-0.4,0.1-0.6,0.1
				c-0.2,0-0.3,0-0.5,0.1c0-0.1-0.1-0.3-0.1-0.4c-0.1-0.1-0.2-0.1-0.3-0.2c-0.2-0.1-0.1-0.2-0.3-0.2c-0.1,0-0.3,0-0.4,0.1
				c-0.2,0.1-0.4,0.2-0.5,0.4c-0.2,0.2-0.5,0.4-0.6,0.6c-0.1-0.1-0.3-0.2-0.4-0.3c-0.2-0.1-0.4-0.1-0.5-0.2
				c-0.2-0.2-0.3-0.5-0.3-0.7c0-0.3,0-0.2-0.2-0.4c-0.2-0.1-0.1-0.1-0.2-0.3c-0.1-0.3-0.3-0.5-0.4-0.8c0-0.1,0-0.3,0.1-0.4
				c0-0.2,0-0.2,0-0.4c-0.1-0.4,0.3-0.4,0.4-0.7c0.1-0.3-0.2-0.6-0.3-0.9c0-0.3,0.1-0.6,0.4-0.7c-0.1-0.3-0.2-0.4,0-0.7
				c0.1-0.2,0.1-0.1,0.2-0.3c0.1-0.1,0.2-0.2,0.3-0.4c0.3-0.6-0.7-0.8-0.3-1.3c-0.2-0.3-0.2-1.1,0.1-1.4c0.3-0.4,0.5-0.8,0.9-1.2
				c0.3-0.4,0.1-0.9,0.4-1.3c0.1-0.1,0.4-0.2,0.5-0.4c0.1-0.2-0.1-0.4,0-0.5c0.1-0.4,0.3-0.7,0.3-1.2c0-0.3,0-0.3,0.1-0.5
				s0.2-0.4,0.2-0.6c0.1-0.2,0.1-0.3,0.1-0.5s-0.1-0.4-0.1-0.5c0-0.2,0-0.5,0.1-0.6s0.2-0.2,0.3-0.3c0.1-0.2,0.2-0.3,0.4-0.4
				s0.3-0.2,0.5-0.3c0.5-0.3,0.6-0.4,0.6-1c0.3,0,0.4-0.6,0.6-0.7c0.2-0.2,0.5-0.2,0.7-0.4c0.2-0.2,0.2-0.5,0.3-0.7s0.3-0.8,0.5-0.9
				c0.3-0.1,0.7-0.3,0.7-0.6c0.1-0.4-0.6-0.3-1-0.4c-0.1,0-0.2,0-0.3,0s-0.2-0.2-0.3-0.3c-0.2-0.2-0.5-0.3-0.7-0.5
				c-0.2-0.1-0.2-0.1-0.4-0.1c-0.1,0-0.2-0.1-0.3-0.1s-0.2,0-0.4-0.1s-0.3-0.2-0.5-0.2s-0.3,0-0.4,0c-0.3,0-0.6-0.1-0.9,0.1
				c-0.3,0.1-0.6,0.3-0.9,0.1c-0.3-0.2-0.6-0.3-0.9-0.6c-0.1-0.1-0.1,0-0.1-0.2c-0.1-0.1,0-0.3-0.1-0.4c0-0.2-0.1-0.3-0.2-0.4
				c-0.1-0.1-0.2-0.3-0.4-0.4c-0.1,0-0.3,0-0.4,0c-0.2,0-0.3-0.2-0.5-0.2c-0.2,0.1-0.2,0.2-0.2,0.4c-0.1,0-0.3,0.1-0.4,0.2
				c-0.1,0.1-0.2,0.1-0.4,0.1c-0.1,0-0.3,0-0.4,0c-0.1,0-0.1-0.1-0.2-0.1c-0.2-0.1-0.7-0.3-0.9-0.1c-0.1,0.1-0.1,0.2-0.2,0.3
				c-0.1,0.1-0.3,0.1-0.5,0.1c0-0.2,0.1-0.5,0-0.7c0-0.1-0.1-0.1-0.1-0.2s0-0.2,0-0.4c0-0.3-0.2-0.3-0.4-0.5
				c-0.1-0.1-0.1-0.2-0.2-0.2c-0.2-0.1-0.4,0.1-0.6,0.1c-0.2,0-0.3,0-0.5,0s-0.4,0.1-0.6,0.2c-0.2,0.1-0.2,0.4-0.3,0.5
				c-0.1,0.2-0.3,0-0.4-0.1c-0.2-0.1-0.3-0.2-0.4-0.4c-0.1-0.2-0.1-0.3-0.3-0.4c-0.1-0.1-0.3-0.2-0.4-0.3c-0.1-0.2-0.1-0.4-0.1-0.6
				c-0.1-0.3-0.1-0.3-0.3-0.4c-0.1-0.1-0.2-0.3-0.3-0.4c-0.3-0.3,0-0.8-0.1-1.1c-0.1-0.8-1.3-1.1-1.9-1.1c0-0.3,0-0.6-0.1-0.8
				c0-0.1-0.1-0.3-0.1-0.4c0-0.2,0.1-0.2,0.2-0.3c0.2-0.2,0.4-0.4,0.5-0.6c0-0.1,0-0.3,0.1-0.4c0-0.1,0.2-0.2,0.2-0.3
				c0.1-0.2,0.3-0.4,0.5-0.5c0.1-0.1,0.2-0.1,0.3-0.2s0.1-0.3,0.2-0.5c0-0.1,0-0.1,0-0.2L188.4,93.2z"/>
			<path class="st2" d="M127.9,93.2h60.5c0-0.1,0-0.1,0-0.2c0,0,0.2-0.2,0.3-0.2c0.1-0.1,0.1-0.2,0.2-0.4c0.1-0.1,0.2-0.1,0.2-0.3
				c0-0.1,0-0.3,0-0.4c0-0.2,0.3-0.6,0.3-0.8c0-0.1-0.2-0.2-0.2-0.3c-0.1-0.1-0.1-0.3-0.2-0.4c-0.1-0.1-0.1-0.2-0.2-0.3
				c-0.1-0.1-0.3-0.1-0.3-0.3c-0.2,0.1-0.2-0.1-0.3-0.1c-0.1-0.1-0.3-0.2-0.5-0.2c-0.3-0.1-0.5-0.2-0.7-0.4
				c-0.2-0.2-0.4-0.4-0.7-0.5c-0.4-0.2-0.4-0.3-0.4-0.7c0-0.3-0.2-0.4-0.4-0.7c-0.2-0.2-0.2-0.4-0.3-0.6c-0.1-0.1-0.2-0.2-0.2-0.3
				c0-0.1,0.1-0.2,0.1-0.3c0-0.3-0.1-0.6-0.1-0.9c0.2,0,0.1-0.2,0.4-0.1c0.1,0,0.3,0.3,0.4,0.4c0.2,0.2,0.4,0.4,0.7,0.6
				c0.2,0.1,0.6,0.6,0.9,0.4c0.4-0.2,0.3-0.8,0.4-1.1c0-0.1,0.1-0.2,0.2-0.3c0.1-0.2,0.2-0.3,0.5-0.4c0.3-0.2,0.6-0.5,0.8-0.7
				c0.3-0.2,0.5-0.5,0.9-0.5c0.2,0,0.5,0.2,0.7,0.1c0.1,0,0.4-0.3,0.5-0.4c0.4-0.4,0.6-0.7,1.2-0.6c0.4,0,0.6,0.3,1.1,0.3v-0.1
				c0.5-0.1,0.7-0.9,1-1.2c0.4-0.3,1,0,1.4-0.4c0.2-0.3,0.3-0.6,0.5-0.9c0.1-0.3,0.4-0.4,0.7-0.5s0.5-0.1,0.8-0.2
				c0.2-0.1,0.7-0.2,0.8-0.4c0.1,0.1,0.2,0.1,0.3,0.2c0.2,0.1,0.2,0.1,0.3-0.1c0.1-0.1,0.2-0.2,0.3-0.3c0.1-0.1,0.1-0.2,0.2-0.3
				c0.2-0.3,0.4-0.4,0.7-0.4c0.3-0.1,0.8-0.5,1.1-0.2c0.2-0.1,0.5-0.2,0.8-0.3c0.3-0.1,0.5-0.4,0.8-0.6s0.6-0.6,1.1-0.7
				s0.8,0,1.2-0.4c0.2-0.2,0.6-0.7,1-0.7c0.1-0.2,0.1-0.4,0-0.6c-0.1-0.3-0.2-0.4,0-0.7c0.1-0.3,0.1-0.4,0.1-0.7
				c0-0.3,0-0.4,0.2-0.6c0.3-0.2,0.6-0.3,0.9-0.3c0.3,0,0.6-0.1,0.9,0c0.2,0.1,0.4,0.3,0.5,0.5c0.2,0.2,0.3,0.3,0.3,0.6
				c0,0.3,0,0.5,0.2,0.7c0.3,0.3,0.3,0.4,0.3,0.7c0.4,0.1,0.7,0.1,1,0.2c0.4,0.1,0.6,0.1,0.9,0.3v-0.1h0.1c0-0.3,0.2-0.4,0.4-0.6
				s0.3-0.4,0.4-0.6c0.4-0.3,1-0.2,0.8-0.9c0-0.2-0.1-0.4-0.1-0.5c-0.1-0.2-0.3-0.3-0.3-0.5s0.3-0.4,0.3-0.6s-0.1-0.5-0.2-0.7
				c0-0.4,0.3-0.9,0.3-1.3c0.1-0.4-0.2-0.7-0.2-1.1c0-0.2,0-0.4,0-0.5c0-0.2-0.1-0.4-0.2-0.6c-0.1-0.2-0.1-0.4-0.2-0.6
				c-0.1-0.2-0.2-0.3-0.3-0.5s0-0.5-0.2-0.6s-0.4-0.1-0.5-0.2c-0.2-0.2-0.3-0.3-0.6-0.4c-0.2-0.1-0.4-0.2-0.6-0.3
				c0-0.4-0.3-0.5-0.5-0.8c-0.2-0.4,0.5-0.7,0.4-0.9c0.2-0.2-0.2-0.8-0.3-1.1c-0.2,0-0.4-0.4-0.7-0.5c-0.1-0.3-0.2-0.7-0.4-1
				c-0.1-0.2-0.2-0.2-0.3-0.4c-0.1-0.1-0.3-0.3-0.2-0.5c0.1,0,0.2,0,0.2,0c0.2-0.3,0.1-0.7,0.3-1c0.2-0.2,0.3-0.5,0.4-0.7
				c0.1-0.3,0.3-0.5,0.3-0.8s0.1-0.5,0.2-0.8c0.1-0.6-0.6-0.9-0.6-1.5s0.2-1.2-0.2-1.7c-0.3-0.4-0.4-0.1-0.7-0.1s-0.4-0.3-0.6-0.4
				c-0.3-0.2-0.2-1.1-0.1-1.5c0-0.1,0-0.2,0.1-0.4h-75.5c0.3,0.1,0.5,0.3,0.8,0.4c0.5,0.2,0.7,0.1,1.1-0.1c0.4-0.2,0.8,0.2,1,0.5
				c0.1,0.2,0.3,0.3,0.2,0.5c0,0.2-0.2,0.3-0.3,0.5c-0.3,0.5-0.1,0.9,0,1.4s-0.3,0.6-0.6,0.8c-0.3,0.3-0.6,0.6-0.9,0.9
				c-0.4,0.3-0.8,0.6-1.2,0.8c-0.3,0.1-0.9,0.2-1,0.5c-0.1,0.4,0.3,0.6,0.6,0.8c0.6,0.3,0.6,1.7-0.2,1.7c-0.4,0-0.7,0-1,0.2
				c-0.4,0.2-0.8,0.3-1.2,0.4c-0.6,0.2-1.4,0.3-2.1,0.2c-0.3,0-0.5-0.1-0.7-0.3c-0.1-0.1-0.4-0.3-0.5-0.3c-0.2,0-0.2,0.3-0.5,0.3
				c-0.3,0.1-0.7,0-1,0c-0.4,0.1-0.6,0.3-0.6,0.7c0.2,0,0.1,0.1,0.2,0.2c0,0.1,0.1,0.1,0.1,0.2c0,0.1-0.1,0.2-0.1,0.2
				c-0.1,0.2-0.4,0.3-0.1,0.5c0.2,0.1,0.3,0.1,0.4,0.2c0.2,0.2,0.1,0.2,0,0.3c0,0.1-0.1,0.3,0,0.3c0,0.1,0.3,0.2,0.4,0.2
				c0.1,0.1,0.2,0.1,0.2,0.2c0,0.1,0,0.3,0,0.5c0,0.3,0.1,0.5,0.2,0.8c0.1,0.1,0.1,0.3,0.1,0.4c0.1,0.2,0.3,0.3,0.5,0.4
				c0.1,0.1,0.2,0.2,0.2,0.3c0,0.1-0.1,0.3-0.1,0.4c0,0.2,0,0.4,0,0.5c0,0.2,0.1,0.3,0.1,0.5s0,0.4,0,0.7c0,0.2,0,0.2,0,0.4
				c-0.2,0-0.2,0.1-0.4,0.2c-0.1,0.1-0.1,0.1-0.2,0.2c-0.1,0.2-0.3,0.5-0.4,0.7s-0.3,0.4-0.4,0.5c0,0.1-0.1,0.1-0.1,0.2s0,0.2,0,0.3
				c0.1,0.2,0.3,0.3,0.4,0.5s0.1,0.4,0.1,0.6c-0.1,0-0.1,0-0.2,0s-0.1,0-0.1,0v0.1c-0.1,0.1-0.2,0.1-0.3,0.2
				c-0.2,0.1-0.2,0.5-0.5,0.5c0,0.1-0.1,0.1-0.1,0.2s0,0.2-0.1,0.3c-0.2,0.2-0.4-0.1-0.6-0.1c-0.4,0-0.3,0.6-0.5,0.9
				c0.2,0,0.2,0.2,0.4,0.3c0.1,0,0.1,0,0.2,0.1c0.1,0,0.1,0.1,0.3,0.1c0,0.1,0.2,0.2,0.3,0.4c0.1,0.1,0.1,0.2,0.2,0.3
				c0.1,0.1,0.3,0.2,0.4,0.3c0.3,0.1,0.3,0.2,0.2,0.5c-0.1,0.2,0,0.3-0.2,0.5c-0.1,0.1-0.1,0.1-0.2,0.1s-0.3,0-0.4,0
				c-0.2,0.1-0.1,0.3-0.1,0.4c0,0.2,0,0.3-0.1,0.5c0,0.2,0.1,0.4,0.2,0.6c0.1,0.1,0,0.1,0.1,0.2s0.2,0.1,0.3,0.2
				c0.2,0.1,0.4,0.2,0.5,0.3c-0.1,0.1,0.2,0.6,0.3,0.8c0.1,0,0.1,0.1,0.2,0.1c0.1,0.1,0.2,0.1,0.2,0.1l0.1,0.1c0.1,0,0.2,0,0.3,0
				l0.1,0.4c0,0,0,0-0.1,0.1c0.1,0.2-0.1,0.4-0.3,0.5c-0.1,0.1-0.2,0.1-0.3,0.2c-0.1,0-0.1,0.1-0.2,0.2c0,0.2,0,0.4,0.1,0.5
				c0.1,0.2,0.3,0.4,0.3,0.6c0.1,0,0.2-0.1,0.3-0.1c0.1,0,0.4,0,0.6,0c0.3,0.1,0.2,0.4,0.2,0.6s0,0.3,0,0.5c0,0.1-0.1,0.2,0,0.3
				c0.2,0.3,0.5,0.4,0.4,0.9c-0.8,0.2-1.3,0.9-1.8,1.4c-0.1,0.1-0.3,0.3-0.4,0.5s-0.1,0.5-0.1,0.7c0,0.6-0.7,0.7-0.8,1.3
				c-0.1,0.2,0,0.4,0.1,0.6s0.1,0.4,0.1,0.6c0,0.5,0.2,0.6,0.4,1c0.1,0.1,0.1,0.3,0.2,0.4c0.1,0.2,0.2,0.3,0.3,0.4
				c0.3,0.3,0.5,0.6,0.7,0.9c0.3,0.3,0.4,0.5,0.9,0.5c0.5-0.1,0.7-0.1,1,0.3c0,0,0,0,0.1,0c0,0.1,0.1,0.2,0.1,0.3c0,0.1,0,0.2,0,0.3
				C127.9,92.7,127.9,93,127.9,93.2z"/>
		</g>
		<g>
			<path class="st3" d="M186.5,91.1c0,0.1,0.1,0.5,0.2,0.6c0.1,0.2,0.3,0.4,0.5,0.6c0.1,0.1,0.7,0.4,0.7,0.5h0.1
				c0,0.2,0,0.4,0.1,0.6c0.1,0.3,0.3,0.4,0.4,0.6c0.2,0.3,0.4,0.7,0.5,1.1c0.2,0.3,0.4,0.7,0.7,1c0.4,0.4,0.6,0.8,0.9,1.2
				c0.1,0.1,0,0.5,0.2,0.5c0.2-0.1,0.4-0.1,0.7-0.2c0.2-0.1,0.4-0.1,0.5-0.1s0.2,0.1,0.3,0.2c0.2,0.1,0.3,0,0.5,0.1s0.1,0.2,0.2,0.3
				c0.1,0.3,0.4,0.5,0.6,0.7c0.4,0.5,0.8,0.9,1.2,1.3c0.2,0.2,0.2,0.5,0.5,0.7c0.2,0.1,0.8,0.1,1,0.2c0.1,0.4,0.5,0.6,0.7,1
				c0.2,0.3,0.2,0.7,0.5,0.9c0.3,0.3,0.6,0.7,1.1,0.5c0.2-0.1,0.3-0.2,0.5-0.1c0.1,0,0.2,0.2,0.4,0.2c0,1,1.6,0.5,1.6,1.5h0.1
				c0,0.1,0.4,0.4,0.4,0.5c0.1,0.2,0.3,0.3,0.3,0.5c0.1,0.4-0.4,0.9-0.2,1.3c0.1,0.2,0.3,0.3,0.3,0.6c0,0.2-0.2,0.5-0.3,0.7
				c-0.1,0.5-0.7,0.8-0.7,1.4c-0.3,0.1-0.4-0.2-0.7-0.3c-0.3-0.1-0.6-0.1-0.9-0.3c-0.2-0.1-0.4-0.3-0.6-0.3c-0.1,0-0.6,0.2-0.7,0.3
				c-0.1,0.1,0,0.3,0,0.4c0,0.2,0,0.3,0,0.5c0,0.3-0.1,0.5-0.2,0.8c-0.2,0.3-0.1,0.4,0,0.7c0,0.2,0,0.5-0.2,0.7
				c-0.1,0.2-0.2,0.4-0.4,0.6s-0.3,0.5-0.6,0.6c-0.1,0.4-0.6,0.3-0.8,0.3c-0.3,0.1-0.7,0.1-1,0.2s-0.6,0.3-0.9,0.4
				c-0.2,0.1-0.3,0.3-0.5,0.5c-0.4,0.4-1.2,0.1-1.6,0.6c-0.2,0.2-0.3,0.5-0.4,0.7c-0.1,0.3-0.2,0.8-0.5,0.9
				c-0.1,0.2,0.2,0.4,0.3,0.5s0.1,0.1,0.2,0.3c0,0.1,0,0.2,0.1,0.3c0.2,0.1,0.4,0.1,0.6,0.3c0.1,0.2,0,0.2,0.3,0.3
				c0.1,0,0.3,0.1,0.4,0.1c0,0.1,0,0.1,0,0.2c0.1,0,0.1,0,0.2,0c0,0.3,0.3,0.3,0.4,0.5c0.1,0.3-0.1,0.4,0.2,0.6
				c0.3,0.3,0.6,0.6,0.3,1.1c-0.1,0.2-0.3,0.4-0.5,0.6s-0.2,0.3-0.1,0.6c0.1,0.2,0.2,0.5,0.5,0.5s0.5-0.3,0.8-0.2
				c0,0.1,0.1,0.1,0.2,0.2c0,0,0.1,0,0.1,0.1s0,0.1,0,0.2c0.1,0.1,0.2,0.2,0.3,0.3c0.1,0.1,0.1,0.2,0.3,0.2c0,0.3,0,0.7-0.2,1
				c-0.2,0.4-0.5,0.3-0.7,0.6c-0.3,0.3,0.1,0.6,0.2,0.9c0,0.3-0.3,0.6-0.6,0.6c-0.1,0-0.2-0.1-0.3-0.2c-0.2-0.1-0.4,0-0.6-0.1
				c-0.5-0.1-0.3-0.6-0.6-0.8c-0.3-0.3-0.8,0-1-0.2c-0.2-0.3,0.1-0.8,0.3-1c-0.3,0-0.6-0.1-0.7-0.4c-0.1-0.2,0-0.3-0.2-0.5
				c-0.3-0.3-0.5-0.2-0.8,0c-0.5,0.3-1.1,0.8-1.7,0.4c-0.2-0.2-0.5-0.4-0.7-0.5c-0.3-0.2-0.3-0.3-0.7-0.2c-0.2,0-0.3,0.2-0.5,0.2
				c-0.1,0-0.2,0-0.4,0s-1,0-1.1,0.2s0.2,0.5,0.2,0.7c0,0.4-0.3,0.3-0.5,0.5c-0.5-0.2-0.9-0.1-1.4-0.1c-0.4,0-1.1,0-1.3-0.2
				c-0.1,0.2-0.1,0.3-0.3,0.5s-0.3,0.2-0.6,0.2s-0.4,0.1-0.7,0.2s-0.6-0.1-0.9-0.1c-0.2,0-0.3,0.2-0.5,0.2s-0.4-0.1-0.5,0.1
				s-0.1,0.4-0.3,0.6c-0.1,0.1-0.3,0.2-0.3,0.4c-0.5,0.1-0.9-0.3-1.3,0.1c-0.2,0.2-0.1,0.3-0.2,0.5c-0.1,0.2-0.2,0.2-0.2,0.4
				c-0.2,0-0.3,0-0.5,0.1c-0.1,0-0.3,0.1-0.4,0.2c-0.4,0.1-0.7,0.1-1.1,0.1c-0.4,0-0.7,0.1-1,0.3s-0.6,0.3-1,0.3
				c-0.1-0.3-0.1-0.7-0.3-1c-0.3-0.3-0.9-0.3-1.3-0.4c0.3-0.5,0.2-1.1-0.5-0.8c-0.3,0.1-0.4,0.1-0.7,0.1c-0.2,0-0.4,0-0.6-0.2
				c-0.2-0.2-0.2-0.2-0.5-0.2c-0.2,0-0.3-0.1-0.5-0.2c-0.3-0.1-1.1-0.2-1.3,0.1c-0.2,0.1-0.4,0.4-0.5,0.6c-0.2,0.2-0.1,0.3,0.1,0.5
				c0.3,0.3,0.5,0.7,0.3,1.1c-0.3,0.4-0.6,0.7-1,1s-0.7,0.7-1,1c-0.2,0.2-1,0.6-1.2,0.2c-0.1-0.1,0-0.5,0-0.6
				c0.1-0.2,0.4-0.2,0.5-0.2c-0.1-0.2-0.1-0.4-0.2-0.5c-0.1,0-0.3,0-0.4,0c-0.4,0.1-0.6,0.5-1,0.1c-0.2-0.2-0.2-0.5-0.2-0.7
				c0-0.3,0.4-0.5,0.2-0.8c-0.1-0.3-0.4-0.3-0.6-0.3c-0.2,0-0.4-0.1-0.6-0.2c-0.1-0.1,0-0.3-0.1-0.4c-0.2-0.3-0.5-0.2-0.8-0.2
				c-0.4,0-0.3-0.1-0.6-0.3c-0.2-0.1-0.6-0.2-0.8-0.2c-0.2,0.1-0.6,0.2-0.8,0.3c-0.2,0.1-0.4,0.2-0.5,0.3c-0.1,0.2-0.5,0.1-0.8,0
				c-0.1,0-0.1-0.2-0.1-0.3c-0.2,0-0.2-0.2-0.3-0.2c-0.1-0.1-0.3,0-0.4-0.2c-0.1-0.1-0.1-0.2-0.2-0.4c-0.1-0.1-0.3-0.1-0.4-0.1
				c-0.2-0.1-0.4-0.3-0.6-0.4c-0.2-0.1-0.4-0.2-0.6-0.3c-0.2-0.1-0.5-0.3-0.7-0.3c-0.3-0.1-0.5,0-0.8-0.1s-0.6-0.1-0.9-0.1
				c-0.3,0-0.5,0.1-0.8,0.1s-0.6,0.3-0.9,0.2c-0.3,0-0.3-0.4-0.5-0.4c0-0.1-0.1-0.3-0.1-0.4c-0.1-0.2-0.3-0.3-0.4-0.5
				c-0.2,0.1-0.4,0.6-0.7,0.5c-0.2-0.1-0.3-0.5-0.4-0.6c-0.2-0.2-0.5-0.3-0.7-0.4c-0.3-0.1-0.5-0.2-0.8-0.2
				c-0.6-0.1-1.1,0.5-1.4,0.9c-0.2,0.3-0.3,0.6,0,0.8c0.3,0.2,0.6,0.2,0.9,0.3c0,0.2-0.2,0.4-0.3,0.5c-0.2,0.2-0.3,0.3-0.3,0.6
				c-0.1,0-0.3,0-0.4,0c-0.1,0-0.3,0-0.3,0c-0.1,0-0.2-0.1-0.3-0.1s-0.2,0.1-0.3,0c-0.1,0-0.4-0.1-0.5-0.2s-0.2-0.2-0.3-0.3
				c-0.2-0.1-0.2-0.2-0.4-0.2c-0.6,0-0.8,0.5-1.1,0.9c-0.2,0.3-0.4,0.2-0.7,0.2c-0.2,0-0.4,0.1-0.6,0.1c-0.2,0-0.3,0-0.5,0.1
				c0-0.1-0.1-0.3-0.1-0.4c-0.1-0.1-0.2-0.1-0.3-0.2c-0.2-0.1-0.1-0.2-0.3-0.2c-0.1,0-0.3,0-0.4,0.1c-0.2,0.1-0.4,0.2-0.5,0.4
				c-0.2,0.2-0.5,0.4-0.6,0.6c-0.1-0.1-0.3-0.2-0.4-0.3c-0.2-0.1-0.4-0.1-0.5-0.2c-0.2-0.2-0.3-0.5-0.3-0.7c0-0.3,0-0.2-0.2-0.4
				c-0.2-0.1-0.1-0.1-0.2-0.3c-0.1-0.3-0.3-0.5-0.4-0.8c0-0.1,0-0.3,0.1-0.4c0-0.2,0-0.2,0-0.4c-0.1-0.4,0.3-0.4,0.4-0.7
				c0.1-0.3-0.2-0.6-0.3-0.9c0-0.3,0.1-0.6,0.4-0.7c-0.1-0.3-0.2-0.4,0-0.7c0.1-0.2,0.1-0.1,0.2-0.3c0.1-0.1,0.2-0.2,0.3-0.4
				c0.3-0.6-0.7-0.8-0.3-1.3c-0.2-0.3-0.2-1.1,0.1-1.4c0.3-0.4,0.5-0.8,0.9-1.2c0.3-0.4,0.1-0.9,0.4-1.3c0.1-0.1,0.4-0.2,0.5-0.4
				c0.1-0.2-0.1-0.4,0-0.5c0.1-0.4,0.3-0.7,0.3-1.2c0-0.3,0-0.3,0.1-0.5s0.2-0.4,0.2-0.6c0.1-0.2,0.1-0.3,0.1-0.5s-0.1-0.4-0.1-0.5
				c0-0.2,0-0.5,0.1-0.6s0.2-0.2,0.3-0.3c0.1-0.2,0.2-0.3,0.4-0.4s0.3-0.2,0.5-0.3c0.5-0.3,0.6-0.4,0.6-1c0.3,0,0.4-0.6,0.6-0.7
				c0.2-0.2,0.5-0.2,0.7-0.4c0.2-0.2,0.2-0.5,0.3-0.7s0.3-0.8,0.5-0.9c0.3-0.1,0.7-0.3,0.7-0.6c0.1-0.4-0.6-0.3-1-0.4
				c-0.1,0-0.2,0-0.3,0s-0.2-0.2-0.3-0.3c-0.2-0.2-0.5-0.3-0.7-0.5c-0.2-0.1-0.2-0.1-0.4-0.1c-0.1,0-0.2-0.1-0.3-0.1s-0.2,0-0.4-0.1
				s-0.3-0.2-0.5-0.2s-0.3,0-0.4,0c-0.3,0-0.6-0.1-0.9,0.1c-0.3,0.1-0.6,0.3-0.9,0.1c-0.3-0.2-0.6-0.3-0.9-0.6
				c-0.1-0.1-0.1,0-0.1-0.2c-0.1-0.1,0-0.3-0.1-0.4c0-0.2-0.1-0.3-0.2-0.4c-0.1-0.1-0.2-0.3-0.4-0.4c-0.1,0-0.3,0-0.4,0
				c-0.2,0-0.3-0.2-0.5-0.2c-0.2,0.1-0.2,0.2-0.2,0.4c-0.1,0-0.3,0.1-0.4,0.2c-0.1,0.1-0.2,0.1-0.4,0.1c-0.1,0-0.3,0-0.4,0
				c-0.1,0-0.1-0.1-0.2-0.1c-0.2-0.1-0.7-0.3-0.9-0.1c-0.1,0.1-0.1,0.2-0.2,0.3c-0.1,0.1-0.3,0.1-0.5,0.1c0-0.2,0.1-0.5,0-0.7
				c0-0.1-0.1-0.1-0.1-0.2s0-0.2,0-0.4c0-0.3-0.2-0.3-0.4-0.5c-0.1-0.1-0.1-0.2-0.2-0.2c-0.2-0.1-0.4,0.1-0.6,0.1
				c-0.2,0-0.3,0-0.5,0s-0.4,0.1-0.6,0.2c-0.2,0.1-0.2,0.4-0.3,0.5c-0.1,0.2-0.3,0-0.4-0.1c-0.2-0.1-0.3-0.2-0.4-0.4
				c-0.1-0.2-0.1-0.3-0.3-0.4c-0.1-0.1-0.3-0.2-0.4-0.3c-0.1-0.2-0.1-0.4-0.1-0.6c-0.1-0.3-0.1-0.3-0.3-0.4
				c-0.1-0.1-0.2-0.3-0.3-0.4c-0.3-0.3,0-0.8-0.1-1.1c-0.1-0.8-1.3-1.1-1.9-1.1c0-0.3,0-0.6-0.1-0.8c0-0.1-0.1-0.3-0.1-0.4
				c0-0.2,0.1-0.2,0.2-0.3c0.2-0.2,0.4-0.4,0.5-0.6c0-0.1,0-0.3,0.1-0.4c0-0.1,0.2-0.2,0.2-0.3c0.1-0.2,0.3-0.4,0.5-0.5
				c0.1-0.1,0.2-0.1,0.3-0.2c0.1-0.1,0.1-0.3,0.2-0.5c0-0.1,0-0.1,0-0.2L186.5,91.1z"/>
			<path class="st4" d="M126,91.1h60.5c0-0.1,0-0.1,0-0.2c0,0,0.2-0.2,0.3-0.2c0.1-0.1,0.1-0.2,0.2-0.4c0.1-0.1,0.2-0.1,0.2-0.3
				c0-0.1,0-0.3,0-0.4c0-0.2,0.3-0.6,0.3-0.8c0-0.1-0.2-0.2-0.2-0.3c-0.1-0.1-0.1-0.3-0.2-0.4c-0.1-0.1-0.1-0.2-0.2-0.3
				c-0.1-0.1-0.3-0.1-0.3-0.3c-0.2,0.1-0.2-0.1-0.3-0.1c-0.1-0.1-0.3-0.2-0.5-0.2c-0.3-0.1-0.5-0.2-0.7-0.4
				c-0.2-0.2-0.4-0.4-0.7-0.5c-0.4-0.2-0.4-0.3-0.4-0.7c0-0.3-0.2-0.4-0.4-0.7c-0.2-0.2-0.2-0.4-0.3-0.6c-0.1-0.1-0.2-0.2-0.2-0.3
				c0-0.1,0.1-0.2,0.1-0.3c0-0.3-0.1-0.6-0.1-0.9c0.2,0,0.1-0.2,0.4-0.1c0.1,0,0.3,0.3,0.4,0.4c0.2,0.2,0.4,0.4,0.7,0.6
				c0.2,0.1,0.6,0.6,0.9,0.4c0.4-0.2,0.3-0.8,0.4-1.1c0-0.1,0.1-0.2,0.2-0.3c0.1-0.2,0.2-0.3,0.5-0.4c0.3-0.2,0.6-0.5,0.8-0.7
				c0.3-0.2,0.5-0.5,0.9-0.5c0.2,0,0.5,0.2,0.7,0.1c0.1,0,0.4-0.3,0.5-0.4c0.4-0.4,0.6-0.7,1.2-0.6c0.4,0,0.6,0.3,1.1,0.3v-0.1
				c0.5-0.1,0.7-0.9,1-1.2c0.4-0.3,1,0,1.4-0.4c0.2-0.3,0.3-0.6,0.5-0.9c0.1-0.3,0.4-0.4,0.7-0.5s0.5-0.1,0.8-0.2
				c0.2-0.1,0.7-0.2,0.8-0.4c0.1,0.1,0.2,0.1,0.3,0.2c0.2,0.1,0.2,0.1,0.3-0.1c0.1-0.1,0.2-0.2,0.3-0.3c0.1-0.1,0.1-0.2,0.2-0.3
				c0.2-0.3,0.4-0.4,0.7-0.4c0.3-0.1,0.8-0.5,1.1-0.2c0.2-0.1,0.5-0.2,0.8-0.3c0.3-0.1,0.5-0.4,0.8-0.6s0.6-0.6,1.1-0.7
				s0.8,0,1.2-0.4c0.2-0.2,0.6-0.7,1-0.7c0.1-0.2,0.1-0.4,0-0.6c-0.1-0.3-0.2-0.4,0-0.7c0.1-0.3,0.1-0.4,0.1-0.7
				c0-0.3,0-0.4,0.2-0.6c0.3-0.2,0.6-0.3,0.9-0.3c0.3,0,0.6-0.1,0.9,0c0.2,0.1,0.4,0.3,0.5,0.5c0.2,0.2,0.3,0.3,0.3,0.6
				c0,0.3,0,0.5,0.2,0.7c0.3,0.3,0.3,0.4,0.3,0.7c0.4,0.1,0.7,0.1,1,0.2c0.4,0.1,0.6,0.1,0.9,0.3V73h0.1c0-0.3,0.2-0.4,0.4-0.6
				s0.3-0.4,0.4-0.6c0.4-0.3,1-0.2,0.8-0.9c0-0.2-0.1-0.4-0.1-0.5c-0.1-0.2-0.3-0.3-0.3-0.5s0.3-0.4,0.3-0.6s-0.1-0.5-0.2-0.7
				c0-0.4,0.3-0.9,0.3-1.3c0.1-0.4-0.2-0.7-0.2-1.1c0-0.2,0-0.4,0-0.5c0-0.2-0.1-0.4-0.2-0.6c-0.1-0.2-0.1-0.4-0.2-0.6
				c-0.1-0.2-0.2-0.3-0.3-0.5c-0.1-0.2,0-0.5-0.2-0.6s-0.4-0.1-0.5-0.2c-0.2-0.2-0.3-0.3-0.6-0.4c-0.2-0.1-0.4-0.2-0.6-0.3
				c0-0.4-0.3-0.5-0.5-0.8c-0.2-0.4,0.5-0.7,0.4-0.9c0.2-0.2-0.2-0.8-0.3-1.1c-0.2,0-0.4-0.4-0.7-0.5c-0.1-0.3-0.2-0.7-0.4-1
				c-0.1-0.2-0.2-0.2-0.3-0.4c-0.1-0.1-0.3-0.3-0.2-0.5c0.1,0,0.2,0,0.2,0c0.2-0.3,0.1-0.7,0.3-1c0.2-0.2,0.3-0.5,0.4-0.7
				c0.1-0.3,0.3-0.5,0.3-0.8s0.1-0.5,0.2-0.8c0.1-0.6-0.6-0.9-0.6-1.5s0.2-1.2-0.2-1.7c-0.3-0.4-0.4-0.1-0.7-0.1s-0.4-0.3-0.6-0.4
				c-0.3-0.2-0.2-1.1-0.1-1.5c0-0.1,0-0.2,0.1-0.4h-75.5c0.3,0.1,0.5,0.3,0.8,0.4c0.5,0.2,0.7,0.1,1.1-0.1c0.4-0.2,0.8,0.2,1,0.5
				c0.1,0.2,0.3,0.3,0.2,0.5c0,0.2-0.2,0.3-0.3,0.5c-0.3,0.5-0.1,0.9,0,1.4s-0.3,0.6-0.6,0.8c-0.3,0.3-0.6,0.6-0.9,0.9
				c-0.4,0.3-0.8,0.6-1.2,0.8c-0.3,0.1-0.9,0.2-1,0.5c-0.1,0.4,0.3,0.6,0.6,0.8c0.6,0.3,0.6,1.7-0.2,1.7c-0.4,0-0.7,0-1,0.2
				c-0.4,0.2-0.8,0.3-1.2,0.4c-0.6,0.2-1.4,0.3-2.1,0.2c-0.3,0-0.5-0.1-0.7-0.3c-0.1-0.1-0.4-0.3-0.5-0.3c-0.2,0-0.2,0.3-0.5,0.3
				c-0.3,0.1-0.7,0-1,0c-0.4,0.1-0.6,0.3-0.6,0.7c0.2,0,0.1,0.1,0.2,0.2c0,0.1,0.1,0.1,0.1,0.2c0,0.1-0.1,0.2-0.1,0.2
				c-0.1,0.2-0.4,0.3-0.1,0.5c0.2,0.1,0.3,0.1,0.4,0.2c0.2,0.2,0.1,0.2,0,0.3c0,0.1-0.1,0.3,0,0.3c0,0.1,0.3,0.2,0.4,0.2
				c0.1,0.1,0.2,0.1,0.2,0.2c0,0.1,0,0.3,0,0.5c0,0.3,0.1,0.5,0.2,0.8c0.1,0.1,0.1,0.3,0.1,0.4c0.1,0.2,0.3,0.3,0.5,0.4
				c0.1,0.1,0.2,0.2,0.2,0.3s-0.1,0.3-0.1,0.4c0,0.2,0,0.4,0,0.5c0,0.2,0.1,0.3,0.1,0.5s0,0.4,0,0.7c0,0.2,0,0.2,0,0.4
				c-0.2,0-0.2,0.1-0.4,0.2c-0.1,0.1-0.1,0.1-0.2,0.2c-0.1,0.2-0.3,0.5-0.4,0.7s-0.3,0.4-0.4,0.5c0,0.1-0.1,0.1-0.1,0.2s0,0.2,0,0.3
				c0.1,0.2,0.3,0.3,0.4,0.5s0.1,0.4,0.1,0.6c-0.1,0-0.1,0-0.2,0s-0.1,0-0.1,0v0.1c-0.1,0.1-0.2,0.1-0.3,0.2
				c-0.2,0.1-0.2,0.5-0.5,0.5c0,0.1-0.1,0.1-0.1,0.2s0,0.2-0.1,0.3c-0.2,0.2-0.4-0.1-0.6-0.1c-0.4,0-0.3,0.6-0.5,0.9
				c0.2,0,0.2,0.2,0.4,0.3c0.1,0,0.1,0,0.2,0.1c0.1,0,0.1,0.1,0.3,0.1c0,0.1,0.2,0.2,0.3,0.4c0.1,0.1,0.1,0.2,0.2,0.3
				c0.1,0.1,0.3,0.2,0.4,0.3c0.3,0.1,0.3,0.2,0.2,0.5c-0.1,0.2,0,0.3-0.2,0.5c-0.1,0.1-0.1,0.1-0.2,0.1s-0.3,0-0.4,0
				c-0.2,0.1-0.1,0.3-0.1,0.4c0,0.2,0,0.3-0.1,0.5c0,0.2,0.1,0.4,0.2,0.6c0.1,0.1,0,0.1,0.1,0.2s0.2,0.1,0.3,0.2
				c0.2,0.1,0.4,0.2,0.5,0.3c-0.1,0.1,0.2,0.6,0.3,0.8c0.1,0,0.1,0.1,0.2,0.1c0.1,0.1,0.2,0.1,0.2,0.1l0.1,0.1c0.1,0,0.2,0,0.3,0
				l0.1,0.4c0,0,0,0-0.1,0.1c0.1,0.2-0.1,0.4-0.3,0.5c-0.1,0.1-0.2,0.1-0.3,0.2c-0.1,0-0.1,0.1-0.2,0.2c0,0.2,0,0.4,0.1,0.5
				c0.1,0.2,0.3,0.4,0.3,0.6c0.1,0,0.2-0.1,0.3-0.1c0.1,0,0.4,0,0.6,0c0.3,0.1,0.2,0.4,0.2,0.6s0,0.3,0,0.5c0,0.1-0.1,0.2,0,0.3
				c0.2,0.3,0.5,0.4,0.4,0.9c-0.8,0.2-1.3,0.9-1.8,1.4c-0.1,0.1-0.3,0.3-0.4,0.5s-0.1,0.5-0.1,0.7c0,0.6-0.7,0.7-0.8,1.3
				c-0.1,0.2,0,0.4,0.1,0.6s0.1,0.4,0.1,0.6c0,0.5,0.2,0.6,0.4,1c0.1,0.1,0.1,0.3,0.2,0.4c0.1,0.2,0.2,0.3,0.3,0.4
				c0.3,0.3,0.5,0.6,0.7,0.9c0.3,0.3,0.4,0.5,0.9,0.5c0.5-0.1,0.7-0.1,1,0.3c0,0,0,0,0.1,0c0,0.1,0.1,0.2,0.1,0.3c0,0.1,0,0.2,0,0.3
				C126,90.7,126,90.9,126,91.1z"/>
			<g>
				<path d="M130.4,48.2l75.5,0.1c0-0.1,0.1-0.2,0.1-0.3c0.1-0.2,0.2-0.3,0.3-0.5c0.3-0.4,0.1-0.8,0-1.2c-0.1-0.2,0-0.4,0-0.6
					c0-0.3,0-0.2-0.2-0.4c-0.2-0.1-0.3-0.2-0.5-0.3s-0.4-0.3-0.6-0.4c0-0.3-0.4,0-0.5-0.3c-0.2-0.1-0.3-0.1-0.5-0.2
					c-0.1-0.1-0.2-0.1-0.3-0.1c-0.1-0.1,0-0.1,0-0.2c-0.2-0.2-0.6-0.5-0.7-0.8c-0.2,0-0.4-0.3-0.4-0.5c-0.2,0-0.6-0.1-0.8-0.2
					c-0.1,0-0.2-0.1-0.3-0.2c-0.2,0-0.3,0-0.4-0.1c0.1-0.5,0.2-1,0.2-1.5c0-0.2-0.1-0.5,0-0.7c0-0.3,0.3-0.4,0.6-0.6
					c0.4-0.2,0.8-0.5,1-0.9c0.1-0.2,0.1-0.4,0.2-0.7c0.1-0.2,0.2-0.3,0.2-0.6c0-0.2-0.1-0.5-0.1-0.7c0-0.3,0.1-0.4,0.3-0.6
					c0.2-0.3,0.3-0.9,0.2-1.3c-0.1-0.3-0.3-0.5-0.4-0.7c-0.1-0.2-0.1-0.4-0.2-0.6c-0.2-0.5-0.3-1-0.4-1.4c-0.2-0.6-0.5-1.1-0.7-1.7
					c-0.1-0.6-0.3-1.1-0.3-1.7c-0.2,0-0.4-0.1-0.6-0.1c0-0.1,0-0.2,0-0.2c0-0.1,0.1-0.1,0.1-0.1c0-0.2-0.1-0.2-0.1-0.4
					c-0.1,0-0.3,0.2-0.4,0.2c-0.2,0.1-0.4,0-0.6,0c-0.3,0-0.6-0.1-0.8-0.2c-0.1-0.1-0.2-0.2-0.3-0.3c-0.1-0.1-0.3-0.1-0.4-0.2
					c-0.2-0.1-0.5-0.4-0.8-0.3v-0.1c-0.1,0-0.2-0.1-0.2-0.2c-0.4,0-0.5-0.5-0.3-0.8c0.1-0.1,0.2-0.2,0.3-0.3c0.1-0.2,0-0.4,0.2-0.5
					c-0.1,0-0.2-0.2-0.3-0.2c0-0.3-0.3-0.4-0.5-0.7c-0.1-0.1-0.2-0.3-0.3-0.5c-0.1-0.1-0.3-0.2-0.4-0.3c0.2-0.1,0.3-0.6,0.4-0.8
					c0.1-0.4-0.1-0.7-0.5-0.8c0-0.3-0.6-0.1-0.8-0.1c-0.3,0-0.7-0.1-1,0.1c-0.1,0-0.3,0.1-0.3,0.2c-0.1,0.1-0.1,0.2-0.1,0.4
					c0,0.1,0.1,0.3-0.1,0.4c-0.2,0.1-0.3-0.2-0.2-0.3h-0.1c0-0.3-0.1-0.7-0.4-0.7c0-0.1,0-0.2,0-0.2c-0.1,0-0.2,0-0.3,0
					s-0.1-0.1-0.2-0.2c-0.2-0.1-0.2,0.1-0.4,0.1c-0.1-0.2,0.1-0.3,0-0.5s-0.2-0.2-0.4-0.3c-0.3-0.1-0.4-0.7-0.9-0.4
					c-0.1-0.1-0.2-0.3-0.4-0.4c-0.1,0-0.2-0.1-0.2-0.1c-0.1-0.2,0-0.1,0-0.3c0-0.2,0-0.4-0.1-0.6s-0.1-0.2,0-0.5
					c-0.2-0.3-0.4,0-0.6-0.2c-0.2-0.2-0.1-0.5-0.1-0.7c-0.1,0-0.2-0.1-0.3,0c-0.1,0-0.1,0.1-0.2,0.2c-0.1,0.1-0.3,0.2-0.4,0.3
					c-0.4,0.2-0.3,0.6-0.8,0.8c-0.2-0.1-0.2-0.5-0.5-0.4v0.1c-0.1,0-0.2,0-0.3,0c0-0.1,0-0.1,0-0.2c-0.1,0-0.2-0.1-0.4-0.1
					c0,0.4-0.3,0.4-0.6,0.4c-0.2,0-0.2,0-0.4,0.1s-0.1,0.1-0.4,0c-0.1,0.1-0.1,0.3-0.2,0.5c-0.1,0.1-0.2,0.1-0.3,0.2
					s-0.2,0.3-0.2,0.4c-0.1,0.2-0.1,0.2-0.1,0.4c-0.3,0-0.4,0.3-0.1,0.4c-0.1,0.1-0.2,0.1-0.3,0.2c-0.1-0.2-0.2-0.7-0.4-0.7
					s-0.2,0.1-0.4,0.2s-0.2,0.1-0.4,0.2c-0.5,0.3-1,0.9-1.1,1.4c-0.2,0-0.3,0-0.5,0s-0.3,0.1-0.3,0.1c-0.1,0.1-0.2,0.2-0.3,0.1
					s-0.3-0.1-0.4-0.1c-0.2,0-0.3,0-0.5,0c-0.1,0-0.3,0.1-0.4,0.2c-0.2,0.1-0.4,0.1-0.6,0.1c-0.3,0-0.7-0.1-0.9,0.1
					c-0.2,0.1-0.4,0.3-0.6,0.5c-0.2,0.1-0.2,0.1-0.1,0.3c0,0.2,0.1,0.3,0.1,0.5c0,0.3-0.1,0.6-0.4,0.7c-0.2,0.1-0.5,0.2-0.7,0.3
					c-0.3,0.2-0.1,0.5-0.2,0.8c-0.1,0.1-0.3,0.1-0.3,0.3c0,0.1,0.1,0.2,0.1,0.3c0,0.3-0.5,0.4-0.6,0c-0.2,0-0.4-0.2-0.6-0.3
					c-0.2-0.1-0.2-0.1-0.3,0.1c-0.1,0.1-0.1,0.2-0.3,0.2s-0.5-0.1-0.5-0.3c0-0.3,0.3-0.3,0.2-0.6c-0.1,0-0.2,0.1-0.2,0
					c-0.1,0-0.2,0-0.3-0.1c-0.2-0.1-0.3-0.1-0.5-0.1s-0.3,0-0.5,0s-0.4,0-0.6,0.1c-0.1,0-0.1,0.2-0.1,0.2c-0.1,0-0.2,0-0.2,0
					c-0.1,0-0.3,0.1-0.4,0.1c-0.3,0.2-0.1,0.5-0.1,0.8c0.2,0,0.5,0,0.7,0.1c-0.1,0.2-0.6,0.5-0.8,0.4s-0.1-0.4-0.5-0.3
					c-0.1,0-0.3,0.2-0.5,0.3c-0.2,0.1-0.3,0.1-0.6,0.1c-0.1-0.3,0.1-0.2,0.3-0.3c0.1,0,0.1-0.1,0.2-0.1l0.2-0.1
					c0.2-0.1,0.1-0.3,0.2-0.4c0.1-0.1,0.3-0.3,0.1-0.4c-0.1-0.1-0.3,0-0.4,0c-0.1,0-0.1,0-0.2-0.2c-0.1-0.1-0.1-0.3-0.2-0.4
					c-0.1-0.2-0.5-0.8,0-0.8c0-0.2,0.2-0.5,0.3-0.7c0.1,0.1,0.2,0.1,0.3,0.2c0.1-0.1,0.2-0.2,0.3-0.1c0.5-0.3,0.9-0.7,1.3-1.1
					c0.1-0.1,0.1-0.2,0.2-0.3c0.1-0.2,0.2-0.1,0.3-0.2c0.3-0.1,0.3-0.4,0.2-0.7c0-0.1-0.1-0.2-0.2-0.4c0-0.1,0-0.3,0-0.4
					c0-0.3-0.2-0.5-0.1-0.8c0-0.1,0.1-0.3,0.2-0.3c0.1-0.2,0.3-0.1,0.4-0.2c0.2-0.1,0.2-0.6,0.3-0.8c0.2,0,0.4,0,0.5,0
					c0,0,0.1,0.1,0.2,0.1c0.1,0,0.1,0,0.2,0c0.1,0,0.1,0.1,0.2,0.2c0.2-0.3,0.2-0.4,0.1-0.7c-0.1-0.2-0.2-0.5-0.4-0.7
					c0-0.1-0.2-0.1-0.2-0.1s-0.1-0.1-0.1-0.2c-0.1-0.1-0.2-0.1-0.3-0.2c-0.2-0.2-0.1-0.2-0.4-0.2c-0.1,0-0.3,0.2-0.4,0
					c-0.5,0.3-1.1,0.4-1.1,1.1c0.2,0,0.5-0.1,0.7,0s0.1,0.3,0.3,0.4c0.1,0.1,0.2,0,0.3,0.1s0,0.3,0,0.3s-0.1,0.1-0.2,0.2
					c-0.1,0.1,0,0.2-0.1,0.3c-0.4,0.4-0.6-0.1-1-0.2c-0.3-0.1-0.8,0.2-0.9,0.5c-0.3,0-0.5,0.2-0.7,0.4c-0.3,0.2-0.4,0.3-0.7,0.2
					c-0.3-0.1-0.4-0.1-0.6-0.3c-0.1-0.1-0.3-0.3-0.5-0.4c-0.3-0.3-0.3-0.3-0.6-0.3c-0.2,0-0.5-0.1-0.8-0.2c-0.2-0.1-0.2-0.1-0.3-0.2
					s-0.2-0.1-0.3-0.2c-0.2-0.1-0.3,0.1-0.5,0.1c-0.1,0-0.3,0-0.4,0c-0.3,0.1-0.3,0.3-0.5,0.5s-0.4,0.2-0.4,0.5
					c-0.2,0-0.6,0-0.7-0.2c-0.1-0.3,0.3-0.5,0.4-0.6c0.2-0.3-0.1-1.1-0.4-1.1c-0.6,0-1,0.3-1.6,0.4c-0.1,0-0.2,0-0.3,0.1
					c-0.1,0-0.2,0.1-0.3,0.1c-0.3,0-0.5-0.3-0.5-0.6c0.5,0.2,1-0.4,1.3-0.8c0.4-0.5,0.9-1,0.6-1.7c-0.1-0.2-0.2-0.5-0.5-0.4
					s-0.3,0.3-0.4,0.6c-0.1,0.5-0.7,0.8-1.2,1.1c0,0.2-0.1,0.3-0.3,0.4c-0.1,0.1-0.1,0.2-0.2,0.4c-0.2,0.4-0.3,0.3-0.6,0.2
					c-0.4-0.1-0.5,0.1-0.9,0.2c-0.2,0.1-0.5,0.1-0.6-0.1s0-0.2,0.1-0.4c0.1,0,0.2,0,0.4,0c-0.1-0.3,0.4-0.3,0.6-0.2
					c0.2,0,0.3,0.1,0.6,0c0.3-0.2,0.1-0.3,0.3-0.6c0.2-0.3,0.5-0.2,0.7-0.2c0-0.2,0.3-0.3,0.4-0.4c0.1-0.1,0.1-0.2,0.2-0.3
					c0.1-0.1,0.2,0,0.3-0.2c0-0.1,0-0.2,0.1-0.3s0.2-0.1,0.3-0.2c0.2-0.1,0.5-0.2,0.6-0.3c0.2-0.2,0-0.3-0.2-0.4
					c-0.1-0.1-0.4-0.5-0.5-0.6c-0.1-0.2,0-0.5-0.3-0.6s-0.2,0.3-0.2,0.5c-0.2,0-0.4,0.2-0.6,0.1c-0.1,0-0.4-0.4-0.4-0.5
					c-0.2,0-0.3-0.3-0.5-0.4c-0.1-0.1-0.3-0.2-0.4-0.2c-0.3-0.1-1,0.2-1-0.4c0-0.1-0.1-0.2-0.1-0.3c-0.1,0-0.1,0-0.2,0
					c-0.1,0-0.1,0-0.2,0c-0.1,0-0.2,0.1-0.3,0.1c-0.1,0.1-0.2,0.1-0.3,0.2c-0.1,0-0.1,0-0.2,0.1c0,0,0,0.1-0.1,0.1c0,0,0,0-0.1,0
					c-0.1,0.1-0.1,0.1-0.2,0.2l-0.1,0.1c0,0-0.1,0-0.1,0.1c-0.1,0-0.2,0-0.3,0h-0.1h-0.1c-0.1-0.1-0.2-0.1-0.2-0.1
					c-0.1,0-0.1-0.1-0.2-0.1c-0.1-0.1-0.2-0.2-0.3-0.3c0,0-0.1,0-0.1-0.1c0,0,0,0,0-0.1l0,0c0,0,0,0,0-0.1s-0.1,0-0.2-0.1
					c0,0,0-0.1-0.1-0.1s-0.2,0-0.2-0.1c0,0,0-0.1-0.1-0.1s-0.1,0-0.2,0c-0.1,0-0.2,0-0.3,0s-0.2,0.1-0.2,0c0,0,0,0-0.1,0h-0.1
					c0,0,0,0-0.1,0c0,0,0,0-0.1,0h-0.1c-0.1,0-0.1-0.1-0.1-0.1s-0.1,0-0.1-0.1h-0.1c0,0,0,0-0.1,0s-0.1,0-0.2,0h-0.1c0,0,0,0-0.1,0
					c0,0,0,0-0.1,0c0,0,0,0-0.1,0h-0.1c0,0,0,0-0.1,0h-0.1h-0.1c-0.1,0-0.1,0-0.2,0c-0.1,0-0.1,0-0.2,0c-0.1,0-0.2,0-0.3-0.1
					c-0.1,0-0.1,0-0.2,0h-0.1c-0.1,0-0.1,0-0.1,0s-0.1,0-0.1,0.1c-0.1,0-0.2,0.1-0.3,0c0,0-0.1,0-0.1-0.1c-0.1,0-0.1-0.1-0.2-0.1
					c-0.1,0-0.2,0-0.4,0c-0.1,0.2-0.3,0.2-0.4,0.3c-0.1,0.2-0.2,0.3-0.1,0.5c0,0.2,0.2,0.3,0.3,0.4c0.1,0.2,0.1,0.3,0.2,0.5
					c0.1,0.2,0.3,0.2,0.3,0.4s-0.1,0.4,0,0.6c0.1,0.1,0.3,0.2,0.3,0.4c0.1,0.2,0,0.3,0,0.6s0.3,0.3,0.5,0.3c0.1,0,0.3,0,0.3,0.1
					s0,0.2,0,0.3s0,0.1,0,0.3c-0.1,0.1-0.2,0.2-0.2,0.3c0.2,0,0.5,0,0.6,0.2c0.1,0.1,0,0.3,0,0.5c0,0.2,0.1,0.3,0,0.5
					s-0.3,0.3-0.4,0.4c-0.2,0.2-0.3,0.6,0,0.7s0.6,0,0.8-0.2c0.1-0.1,0.2-0.2,0.3-0.4c0.1-0.2,0.1-0.3,0.2-0.4
					c0.2,0.1,0.2,0.2,0.2,0.4c0,0.2,0.2,0.4,0.1,0.6c0,0.3-0.5,0.5-0.8,0.7c-0.2,0.2-0.5,0.4-0.8,0.4c-0.2,0-0.3-0.1-0.5-0.1
					s-0.4,0-0.6,0.1c-0.3,0-0.7,0.1-1,0.2c0,0.2,0.4,0.1,0.6,0.2c0.2,0.1,0.2,0.3,0,0.4c-0.1,0-0.3,0.1-0.4,0
					c-0.1,0-0.1-0.1-0.2-0.1c-0.3-0.1-0.4,0.2-0.3,0.4c0,0.2,0.2,0.3,0.3,0.5s0.1,0.4,0.4,0.5c0.3,0.1,0.4-0.1,0.5-0.3
					c0.2-0.3,0.3-0.1,0.5,0c0.3,0.2,0.4,0.1,0.6-0.1c0.3-0.2,0.4,0.1,0.6,0.2c0.1-0.1,0.1-0.3,0.3-0.4s0.3,0.1,0.3,0.3
					c0,0.3-0.3,0.5-0.6,0.6c-0.1,0-0.4,0-0.5,0.1c-0.2,0.2,0.1,0.3,0,0.5c0,0.2-0.2,0.3-0.3,0.4c-0.1,0.2,0,0.4,0.1,0.5
					s0.1,0.2,0.2,0.2c0,0.1,0,0.2,0.1,0.3c0.1,0.2,0.2,0.3,0.4,0.2c0.2,0,0.3-0.2,0.5,0c0.1,0.1,0.1,0.3,0.1,0.5
					c0,0.3,0.3,0.6,0.2,0.9c-0.2,0.5-0.5-0.2-0.8-0.2c-0.1,0-0.4,0.1-0.5,0.2c0,0.1,0.1,0.4,0.1,0.5c0.1,0.1,0.1,0.1,0.2,0.2
					c0.1,0.1,0.1,0.1,0.1,0.2c0.1,0.2,0.1,0.3,0.2,0.5c0.1,0,0.1,0.2,0.3,0.2c0.1,0.5,0.5,0.6,0.9,0.7c0.4,0,0.9-0.3,1.3-0.2
					c0.1,0,0.2,0,0.3,0.1c0.1,0,0.1,0.1,0.2,0.2c0.2,0.1,0.4,0,0.6,0.1c0.2,0.1,0.3,0.3,0.4,0.4c0.1,0.1,0.4,0.2,0.4,0.4
					c0,0,0,0,0.1,0c0,0.2,0,0.4,0,0.6c0,0.1,0.1,0.2,0.1,0.3c0,0.1,0,0.1,0,0.2c0.1,0.2,0.2,0.3,0.4,0.5c0.1,0.1,0.1,0.2,0.1,0.2
					c0.1,0.1,0.2,0.1,0.3,0.2s0.2,0.3,0.2,0.4s0,0.1,0,0.2c0,0,0.1,0,0.1,0.1l0.1,0.2c0,0.1,0,0.2,0.1,0.3v0.1l0.1,0.1
					c0.1,0.2,0.1,0.3,0.3,0.4c0,0.1,0,0-0.1,0c0,0,0,0,0-0.1h-0.1c-0.3-0.4-0.5-0.8-0.7-1.3c-0.2-0.4-0.6-0.7-0.9-1.1
					c-0.3-0.4-0.5-0.8-0.8-1.2c-0.3-0.5-0.8-0.7-1.4-0.7c-0.6,0-1.3,0.1-1.9,0.2c-0.6,0.2-1.2,0.3-1.8,0c-0.5-0.2-1.2-0.8-1.7-0.4
					s-0.5,1.2-0.7,1.7c-0.2,0.6-0.5,1.2-0.3,1.9c0.1,0.4,0.3,0.7,0.4,1c0.1,0.4,0.1,0.7,0.1,1.1c0-0.2-0.2-0.4-0.3-0.5
					c-0.2-0.1-0.3,0-0.5-0.2c-0.3-0.2-0.6-0.3-0.9-0.6c-0.1-0.2-0.3-0.3-0.5-0.4s-0.3,0-0.5,0.2s-0.2,0.2-0.2,0.5c0,0.2,0,0.4,0,0.6
					h0.1c0.1,0.1,0.2,0,0.3,0.1c0.1,0,0.3,0.1,0.3,0.2c-0.2,0.2,0,0.7-0.1,1c-0.1,0.2-0.2,0.3-0.2,0.4c0,0.2-0.1,0.3-0.1,0.5
					c-0.1,0-0.1,0.1-0.2,0.1c-0.1,0-0.3-0.1-0.3-0.1c-0.2-0.1-0.3-0.2-0.4-0.4c-0.1-0.2-0.6-0.8-0.7-0.3c-0.2-0.1-0.2-0.3-0.3-0.5
					c0-0.2-0.2-0.4-0.2-0.5c0-0.2,0.3-0.1,0.4-0.2c0.1,0,0.1-0.1,0.2-0.1c0.1-0.1,0.1-0.1,0.3-0.2c0.1-0.1,0.1-0.3,0.1-0.4
					c0-0.1,0-0.1,0-0.2c0-0.1,0-0.2-0.1-0.2c0,0,0-0.2-0.1-0.3c0-0.1-0.2-0.1-0.2-0.2c-0.1-0.1-0.2-0.2-0.2-0.4c0,0,0,0-0.1,0
					c0,0,0,0,0-0.1c-0.5,0-0.5-0.2-0.5-0.7c0-0.4-0.3-0.4-0.6-0.5c-0.4-0.1-0.7-0.2-1.2-0.1c-0.4,0.2-0.8,0.1-1.2,0.2
					c-0.4,0-0.8,0.3-1.2,0.3s-0.7,0-1.1-0.1c-0.4-0.1-0.8-0.1-1.1,0c-0.4,0.1-0.8,0.1-1.2,0.3c-0.2,0.2-0.4,0.4-0.6,0.5
					c-0.1,0.1-0.4,0.3-0.5,0.4c-0.2,0.4,0.3,0.7,0.5,0.8c-0.1,0.1-0.3,0.1-0.4,0.3c-0.1,0.1-0.1,0.3-0.1,0.4
					c-0.2,0.1-0.2-0.1-0.3-0.2c-0.1-0.1-0.3-0.1-0.4-0.2c-0.3,0.8-0.4,1.7-0.4,2.5c0,0.3,0.1,0.3,0.4,0.2c0.1,0,0.3-0.1,0.4-0.1
					c0.1,0,0.3,0,0.4,0.1c0.2,0.1,0.5,0.2,0.7,0.2s0.2,0,0.3,0.2c0,0.1,0,0.2,0,0.3s-0.1,0.2-0.1,0.3s0,0.3,0,0.4
					c0,0.2,0,0.2-0.1,0.3s-0.2,0.1-0.3,0.2c-0.3,0.2,0.4,0.6,0.3,0.9c-0.1,0.2-0.3,0.4-0.3,0.6c-0.1,0.2,0.2,0.4,0.2,0.6
					c0.1,0.3-0.1,0.5-0.1,0.7s0.1,0.4,0.1,0.6c0.1,1-0.7,1.8-1,2.8c-0.2,0.6-0.1,1.3-0.2,1.9c-0.1,0.3-0.1,0.6-0.2,0.9
					c-0.1,0.3-0.2,0.4-0.4,0.5s-0.4,0.2-0.7,0.1c-0.2-0.1-0.5-0.1-0.7-0.1c-0.4,0-1.1-0.4-1.5-0.1c-0.4,0.2-0.2,0.5,0,0.8
					s0,0.4-0.2,0.6c-0.2,0.1-0.4,0.3-0.3,0.5c0,0.3,0.1,0.5,0.2,0.8c0.2,0,0.3,0.1,0.5,0.1"/>
				<path d="M147.4,12.6c0.2,0,0.4,0.1,0.7,0c0.1,0,0.1-0.1,0.2-0.1c0.1,0,0.2,0,0.3,0s0.4,0.1,0.4,0.3c0,0.1-0.1,0.2-0.1,0.3
					s0,0.2-0.1,0.3c0,0.1,0,0.1-0.1,0.2c0,0.1-0.1,0.1-0.2,0.1c-0.2,0-0.3-0.1-0.5,0c-0.1,0-0.3,0-0.4-0.1c-0.1,0-0.1-0.1-0.2-0.1
					c-0.1,0-0.1,0-0.2-0.1c-0.1-0.1-0.1-0.3-0.1-0.4c0-0.1,0-0.1,0-0.2c0-0.1,0-0.2,0.1-0.2C147.3,12.6,147.4,12.6,147.4,12.6z"/>
				<path d="M196.8,21.1c0,0.1,0.1,0.2,0.2,0.2c0,0.1,0.1,0.2,0.1,0.3c0.1,0.1,0.2,0.2,0.4,0.3c0.1,0,0.1,0,0.2,0.1
					c0.1,0,0.1,0.1,0.1,0.1c0.1,0,0.2,0,0.2,0.1c0.1,0,0.1,0.1,0,0.2c0,0.1-0.1,0.1-0.2,0.1c-0.1,0-0.2,0-0.2,0
					c-0.1,0-0.2,0-0.3,0.1s-0.2,0.2-0.3,0.2c-0.1,0.1-0.2,0.2-0.3,0.2s-0.1-0.1,0-0.2l0.1-0.1v-0.1c0-0.1,0.1-0.2,0.1-0.4
					c0-0.1,0-0.2,0-0.3c0-0.1-0.1-0.2-0.2-0.3c-0.1-0.1-0.3-0.2-0.4-0.4c-0.1-0.1-0.1-0.2,0-0.3c0.1-0.1,0.1-0.1,0.2-0.1
					c0.1,0,0.2,0.1,0.3,0.1C196.8,21,196.8,21.1,196.8,21.1z"/>
				<path d="M199.6,23.2c0,0.1,0.1,0.1,0.1,0.1c0.1,0,0.1,0.1,0.2,0.2c0.1,0.1,0.2,0.1,0.2,0.1c0.1,0.1,0.2,0.1,0.2,0.2
					c0.1,0.1,0.1,0.1,0.2,0.2c0.1,0,0.2,0.1,0.2,0.2s-0.1,0.1-0.1,0.2s-0.1,0.2-0.1,0.2c0,0.1,0,0.2,0,0.2c0.1,0,0.2,0.1,0.2,0.2
					c0,0.2-0.4,0.2-0.5,0.2c-0.2,0-0.5,0-0.7,0c-0.1,0-0.2,0-0.3,0s-0.2,0-0.3,0s-0.2,0.1-0.2,0.2s-0.1,0.2-0.2,0.2
					c-0.1,0-0.2,0-0.2-0.1s0-0.2,0-0.2c-0.1,0-0.1,0-0.2,0c0,0-0.1,0-0.1,0.1l-0.1,0.1c0,0,0,0,0,0.1l-0.1,0.1c-0.1,0-0.1,0-0.2,0
					c-0.1,0-0.1,0-0.2-0.1c-0.1,0-0.1-0.1-0.2-0.2l0.1-0.1c0,0,0,0,0.1,0v-0.1c0.1,0,0.2,0,0.3,0h0.1h0.1c0.1,0,0.1,0,0.1-0.1
					c0,0,0,0,0-0.1c0,0,0-0.1-0.1-0.1c0,0,0.1,0,0.1-0.1c0,0,0,0,0-0.1c0,0,0,0,0-0.1s0-0.1,0-0.2s0-0.1,0-0.2v-0.1c0,0,0,0,0-0.1
					s0.2,0,0.2-0.1c0,0,0,0,0-0.1c0,0,0,0,0-0.1v-0.1l0.1-0.1h0.1h0.1c0,0,0,0,0.1,0.1c0,0,0.1,0,0.1,0.1l0.1,0.1l0.1,0.1l0.1-0.1
					l0.1-0.1c0,0,0.1-0.1,0.1-0.2v-0.1c0-0.1,0-0.1-0.1-0.2c0-0.2,0-0.3,0-0.5c0-0.1,0-0.2,0.1-0.2C199.5,23,199.6,23.1,199.6,23.2z
					"/>
				<path d="M184.4,18.2C184.4,18.2,184.5,18.2,184.4,18.2c0.1,0,0.2,0,0.2,0.1h0.1h0.1h0.1c0.1,0,0.1-0.1,0.1-0.1
					c0.1-0.1,0.2-0.1,0.3-0.2s0.2-0.2,0.3-0.3c0.1,0,0.2,0,0.3,0s0.1-0.2,0.1-0.2c0.1,0,0.2,0,0.2,0s0.1,0,0.1-0.1v-0.1
					c0-0.1,0.1,0,0.2,0c0,0,0,0,0.1,0h0.1c0,0,0.1,0,0.1,0.1c0,0,0,0.1,0.1,0.1s0.2,0,0.3,0.1c0.1,0,0.2,0.1,0.3,0
					c0.1,0,0.2-0.1,0.3-0.1s0.1-0.1,0.2-0.1c0.1,0,0.1,0,0.2,0h0.1v-0.1c0-0.1,0.1-0.2,0.1-0.2l0,0c0-0.1-0.1-0.1-0.2-0.2
					c-0.1,0-0.2,0-0.3,0s-0.2,0-0.3,0s-0.1,0.1-0.2,0.1c-0.1,0-0.2,0-0.3,0c-0.2,0-0.4,0-0.6,0c-0.2,0-0.4,0-0.6,0
					c-0.4,0-0.8,0.1-1.1-0.2c-0.1-0.1-0.3-0.3-0.4-0.1c0,0.1,0,0.2-0.1,0.2c0,0.1-0.1,0.1-0.1,0.2c0,0.2,0,0.3-0.1,0.5
					c-0.1,0.1-0.3,0.2-0.3,0.4C184.2,18.2,184.3,18.2,184.4,18.2z"/>
				<path d="M192.5,12c-0.1,0-0.2,0-0.3,0s-0.2,0-0.3,0s-0.2,0.1-0.3,0.1s-0.2,0-0.3,0.1c-0.1,0-0.2,0-0.2,0.2
					c0,0.1,0.1,0.1,0.2,0.2c0.1,0.1,0,0.2,0.1,0.3c0,0.1,0.1,0.2,0,0.3c0,0.1-0.1,0.2-0.2,0.3c-0.1,0.1-0.2,0.2-0.2,0.3s0.2,0,0.3,0
					s0.2,0,0.2-0.1c0.1-0.1,0.1-0.2,0.2-0.2c0.1-0.1,0.2-0.1,0.3-0.2c0.1,0,0.1-0.1,0.2-0.2c0-0.1,0-0.2,0-0.2c0-0.1-0.1-0.1,0-0.2
					c0-0.1,0.2-0.1,0.2-0.2c0.1,0,0.1-0.1,0.2-0.1l0.1-0.1C192.6,12.3,192.6,12,192.5,12z"/>
				<path d="M193.9,14.5c-0.1,0-0.2,0-0.2,0c-0.1,0-0.1,0.1-0.2,0.1l-0.1,0.1h-0.1c0,0,0,0.1-0.1,0.1c0,0.2,0.2,0.1,0.2,0.2
					c0,0.1,0,0.2,0,0.2c0,0.1,0,0.2,0.1,0.2c0,0.1,0.1,0.1,0.1,0.2c0,0.1-0.1,0.2-0.1,0.2c-0.1,0.1-0.2,0.4-0.3,0.4
					c-0.2,0-0.3-0.1-0.4-0.2c-0.1-0.1-0.2-0.2-0.2-0.4c0-0.1,0-0.3-0.2-0.3c-0.1,0-0.2,0.3-0.4,0.2c-0.1,0-0.1-0.1-0.1-0.2
					c0-0.1-0.1-0.1-0.1-0.2c0-0.2,0.2-0.2,0.1-0.4c-0.1,0-0.2,0-0.3,0s-0.2,0.1-0.2,0.2c0,0.2,0.3,0.4,0.1,0.5l-0.1,0.1
					c-0.1,0-0.1,0-0.1-0.1s-0.1-0.1-0.1-0.1l-0.1-0.1c-0.1-0.1-0.2-0.1-0.2-0.2c-0.1,0-0.2-0.1-0.3,0c-0.1,0-0.1,0.1-0.1,0.1
					s-0.1,0.1-0.2,0.1l-0.1,0.1c0,0,0,0.1,0,0.2c0.1,0,0.2,0,0.3,0.1c0.1,0,0.2,0,0.2,0.1s0,0.1,0,0.2c0,0.1,0.1,0.1,0.2,0.1
					c0.1,0,0.1,0.1,0.1,0.2s-0.1,0.1-0.2,0.1c-0.2,0-0.2,0.2-0.4,0.2c-0.1,0-0.2,0-0.2,0.2c0,0.1,0,0.2,0.1,0.2
					c0.1,0.1,0.2,0.2,0.4,0.3c0.1,0.1,0.1,0.2,0.2,0.3c0.1,0.1,0.1,0.1,0.1,0.2s-0.1,0.1-0.2,0.1c-0.2,0-0.3-0.1-0.4,0
					c-0.1,0.1-0.2,0.2-0.3,0.3c0.1,0.1,0.2,0.1,0.1,0.3c0,0.1,0.1,0.2,0.2,0.3c0.1,0.1,0.2,0.1,0.2,0.3c0,0.1,0.1,0.2,0.2,0.2
					c0.1,0.1,0.2,0.1,0.3,0.2l0.1,0.1c0,0,0.1,0,0.2,0c0.1,0,0.2,0,0.3-0.1s0.1-0.2,0.2-0.2c0.1,0,0.3,0.1,0.4,0.1
					c0.1,0,0.1-0.1,0.1-0.1c0.1,0,0.1,0,0.2-0.1l0.1-0.1c0,0,0-0.1,0.1-0.1c0-0.1,0-0.1,0-0.2s0.1-0.1,0.1-0.1s0,0,0.1-0.1
					c0,0,0,0,0.1,0s0.1-0.1,0.1-0.2s0.1-0.1,0.1-0.2c0,0,0-0.1,0.1-0.1h0.1c0.1,0,0.1,0,0.2,0c0.1,0,0.1,0,0.2,0l0.1-0.1
					c0.1-0.1,0.1-0.1,0.2-0.1c0.1,0,0.2,0.1,0.2,0.1c0.1,0,0.2-0.1,0.2-0.2s0.1-0.2,0.2-0.2c0,0,0,0,0.1,0.1c0,0,0,0.1,0.1,0.1
					l0.1,0.1c0,0,0,0,0,0.1s0,0.1,0,0.1c0,0.1,0,0.1,0,0.2l0.1,0.1v0.1c0,0,0,0.1-0.1,0.1l-0.1,0.1c0,0.1,0,0.1,0.1,0.1s0.2,0,0.3,0
					s0.1,0,0.2-0.1c0-0.1,0-0.1,0-0.2s0.1-0.1,0.1-0.2c0.1-0.1,0.1-0.1,0.1-0.2s0.1-0.3,0-0.3c-0.2-0.1-0.3-0.3-0.4-0.5
					c-0.1-0.1-0.1-0.1-0.2-0.2c-0.1-0.1-0.1-0.1-0.2-0.1c-0.2,0-0.4,0-0.6-0.1c-0.1-0.1-0.2-0.2-0.3-0.4c0-0.1,0-0.2-0.1-0.3
					c0-0.1,0-0.2,0-0.3s0.1-0.2,0.2-0.2c0.1-0.1,0.2-0.2,0.3-0.3c0.2-0.1,0.3-0.2,0.4-0.4c0.1-0.2,0.1-0.3,0-0.5
					c0-0.2-0.1-0.4-0.3-0.5s-0.4,0-0.6,0C194.1,14.5,194,14.5,193.9,14.5z"/>
			</g>
		</g>
	</g>
</g>
<g id="Layer_3">
	<g>
		<rect x="662.1" y="48.3" class="st5" width="78" height="10.5"/>
		<rect x="753.1" y="71.2" class="st6" width="77.2" height="45.7"/>
		<rect x="575.2" y="71.1" class="st6" width="77.2" height="45.7"/>
		<path class="st5" d="M747.4,49.3h-88.8c6.8-25.9,22.1-38.4,44-40.3c0.1,0,0.7,0,0.9,0C725.3,10.9,740.6,23.4,747.4,49.3z"/>
		<line class="st7" x1="664.8" y1="33.2" x2="741.4" y2="33.6"/>
		<line class="st7" x1="737.5" y1="27.3" x2="668.3" y2="27.3"/>
		<line class="st7" x1="674.9" y1="20.2" x2="731.6" y2="20.6"/>
		<line class="st7" x1="724.2" y1="15.2" x2="681.7" y2="15.2"/>
		<path class="st7" d="M704.8,9.4c6.5,5.8,8.8,17.8,10.3,31.4"/>
		<path class="st7" d="M707.4,9.5c12.2,2.8,20.2,15.6,21.1,30.9"/>
		<path class="st7" d="M700.7,9.4c-6.5,5.8-8.8,17.8-10.3,31.4"/>
		<path class="st7" d="M698.5,9.5c-12.2,2.8-20.6,15.6-21.5,30.9"/>
		<line class="st7" x1="661" y1="41.1" x2="744.6" y2="40.9"/>
		<rect x="652.3" y="65.3" class="st8" width="100.8" height="51.3"/>
		<rect x="652.3" y="59.1" class="st9" width="100.8" height="5.8"/>
		<rect x="729" y="110.4" class="st6" width="24.4" height="6.1"/>
		<rect x="652.1" y="110.3" class="st6" width="24.4" height="6.1"/>
		<g>
			<path class="st10" d="M707.5,116.9h6.3v-7.1l-1.4-1.4h-3.5l-1.4,1.4C707.6,109.7,707.5,117.1,707.5,116.9z"/>
			<rect x="708.9" y="75" class="st10" width="3.2" height="33.4"/>
			<polygon class="st10" points="707.6,69.4 708.9,75 712.2,75 713.5,69.4 			"/>
		</g>
		<g>
			<path class="st10" d="M723.1,116.9h6.3v-7.1l-1.4-1.4h-3.5l-1.4,1.4C723.1,109.7,723.1,117.1,723.1,116.9z"/>
			<rect x="724.5" y="75" class="st10" width="3.2" height="33.4"/>
			<polygon class="st10" points="723.2,69.4 724.5,75 727.7,75 729,69.4 			"/>
		</g>
		<g>
			<path class="st10" d="M738.6,116.9h6.3v-7.1l-1.4-1.4H740l-1.4,1.4C738.7,109.7,738.6,117.1,738.6,116.9z"/>
			<rect x="740.1" y="75" class="st10" width="3.2" height="33.4"/>
			<polygon class="st10" points="738.8,69.4 740.1,75 743.3,75 744.6,69.4 			"/>
		</g>
		<g>
			<path class="st10" d="M660.7,116.9h6.3v-7.1l-1.4-1.4h-3.5l-1.4,1.4C660.8,109.7,660.7,117.1,660.7,116.9z"/>
			<rect x="662.1" y="75" class="st10" width="3.2" height="33.4"/>
			<polygon class="st10" points="660.9,69.4 662.1,75 665.4,75 666.7,69.4 			"/>
		</g>
		<g>
			<path class="st10" d="M676.3,116.9h6.3v-7.1l-1.4-1.4h-3.5l-1.4,1.4C676.4,109.7,676.3,117.1,676.3,116.9z"/>
			<rect x="677.7" y="75" class="st10" width="3.2" height="33.4"/>
			<polygon class="st10" points="676.4,69.4 677.7,75 681,75 682.3,69.4 			"/>
		</g>
		<g>
			<path class="st10" d="M691.9,116.9h6.3v-7.1l-1.4-1.4h-3.5l-1.4,1.4C691.9,109.7,691.9,117.1,691.9,116.9z"/>
			<rect x="693.3" y="75" class="st10" width="3.2" height="33.4"/>
			<polygon class="st10" points="692,69.4 693.3,75 696.5,75 697.8,69.4 			"/>
		</g>
		<g>
			<rect x="738.7" y="49.2" class="st11" width="13" height="9.6"/>
			<polygon class="st12" points="751.7,49.2 738.7,49.2 736,48.1 738.7,47 751.7,47 754.4,48.1 			"/>
			<rect x="738.9" y="44.3" class="st11" width="12.5" height="2.7"/>
			<rect x="740.5" y="41.7" class="st12" width="9.6" height="2.7"/>
			<path class="st11" d="M751.5,40.2v1.4h-12.2v-1.4h1.9c-0.3,0-0.6-0.3-0.6-0.6v-2.1c0-0.3,0.3-0.6,0.6-0.6h8.3
				c0.3,0,0.6,0.3,0.6,0.6v2.1c0,0.3-0.2,0.6-0.6,0.6H751.5z"/>
			<rect x="742.4" y="29" class="st12" width="6" height="8"/>
			<path class="st11" d="M743.1,26.3h4.6c0.9,0.3,1.7,0.7,2.2,1.3V29l-9,0.1v-1.6C741.4,26.8,742.2,26.4,743.1,26.3z"/>
			<rect x="742.5" y="24.6" class="st6" width="5.4" height="1.6"/>
			<path class="st6" d="M747.4,24.6h-4c-0.2-1.8,0.5-2.7,2-2.7C746.8,21.9,747.5,22.7,747.4,24.6z"/>
		</g>
		<g>
			<rect x="653.4" y="49.2" class="st11" width="13" height="9.6"/>
			<polygon class="st12" points="666.4,49.2 653.4,49.2 650.7,48.1 653.4,47 666.4,47 669.1,48.1 			"/>
			<rect x="653.6" y="44.3" class="st11" width="12.5" height="2.7"/>
			<rect x="655.2" y="41.7" class="st12" width="9.6" height="2.7"/>
			<path class="st11" d="M666.2,40.2v1.4H654v-1.4h1.9c-0.3,0-0.6-0.3-0.6-0.6v-2.1c0-0.3,0.3-0.6,0.6-0.6h8.3
				c0.3,0,0.6,0.3,0.6,0.6v2.1c0,0.3-0.2,0.6-0.6,0.6H666.2z"/>
			<rect x="657.1" y="29" class="st12" width="6" height="8"/>
			<path class="st11" d="M657.8,26.3h4.6c0.9,0.3,1.7,0.7,2.2,1.3V29l-9,0.1v-1.6C656.1,26.8,656.9,26.4,657.8,26.3z"/>
			<rect x="657.2" y="24.6" class="st6" width="5.4" height="1.6"/>
			<path class="st6" d="M662.1,24.6h-4c-0.2-1.8,0.5-2.7,2-2.7C661.4,21.9,662.2,22.7,662.1,24.6z"/>
		</g>
		<path class="st5" d="M769.8,56.5v2.3h-5v-2.3h0.2c1.3-2.1,1.9-4.9,2.3-8.2c0.3,3.3,0.8,6.2,2.3,8.2H769.8z"/>
		<path class="st5" d="M785.5,56.5v2.3h-5v-2.3h0.2c1.3-2.1,1.9-4.9,2.3-8.2c0.3,3.3,0.8,6.2,2.3,8.2H785.5z"/>
		<path class="st5" d="M801.1,56.5v2.3h-5v-2.3h0.2c1.3-2.1,1.9-4.9,2.3-8.2c0.3,3.3,0.8,6.2,2.3,8.2H801.1z"/>
		<path class="st5" d="M816.8,56.5v2.3h-5v-2.3h0.2c1.3-2.1,1.9-4.9,2.3-8.2c0.3,3.3,0.8,6.2,2.3,8.2H816.8z"/>
		<path class="st5" d="M594,56.9v2.3h-5v-2.3h0.2c1.3-2.1,1.9-4.9,2.3-8.2c0.3,3.3,0.8,6.2,2.3,8.2H594z"/>
		<path class="st5" d="M609.6,56.9v2.3h-5v-2.3h0.2c1.3-2.1,1.9-4.9,2.3-8.2c0.3,3.3,0.8,6.2,2.3,8.2H609.6z"/>
		<path class="st5" d="M625.3,56.9v2.3h-5v-2.3h0.2c1.3-2.1,1.9-4.9,2.3-8.2c0.3,3.3,0.8,6.2,2.3,8.2H625.3z"/>
		<path class="st5" d="M640.9,56.9v2.3h-5v-2.3h0.2c1.3-2.1,1.9-4.9,2.3-8.2c0.3,3.3,0.8,6.2,2.3,8.2H640.9z"/>
		<g>
			<rect x="738.6" y="116.9" class="st5" width="148.3" height="17"/>
			<g>
				<rect x="848.2" y="122.2" class="st10" width="9.4" height="6.5"/>
				<path class="st10" d="M857.5,122.2h-9.4v-1.4c3.1-1.4,6.2-1.4,9.4,0V122.2z"/>
			</g>
			<path class="st10" d="M824.1,127.9h-5.4v-6.1c1.8-1.5,3.6-1.5,5.4,0V127.9z"/>
			<path class="st10" d="M808.6,127.8h-5.4v-6.1c1.8-1.5,3.6-1.5,5.4,0V127.8z"/>
			<path class="st10" d="M793.1,127.8h-5.4v-6.1c1.8-1.5,3.6-1.5,5.4,0V127.8z"/>
			<path class="st10" d="M777.8,127.8h-5.4v-6.1c1.8-1.5,3.6-1.5,5.4,0V127.8z"/>
			<path class="st10" d="M761.8,127.4h-5.4v-6.1c1.8-1.5,3.6-1.5,5.4,0V127.4z"/>
			<polygon class="st6" points="738.6,133.8 738.6,122.2 860,132.4 860,133.8 			"/>
		</g>
		<g>
			<rect x="518.5" y="116.8" class="st5" width="148.3" height="17"/>
			<g>
				<rect x="547.9" y="122.2" class="st10" width="9.4" height="6.5"/>
				<path class="st10" d="M547.9,122.2h9.4v-1.4c-3.1-1.4-6.2-1.4-9.4,0V122.2z"/>
			</g>
			<path class="st10" d="M581.3,127.9h5.4v-6.1c-1.8-1.5-3.6-1.5-5.4,0V127.9z"/>
			<path class="st10" d="M596.9,127.8h5.4v-6.1c-1.8-1.5-3.6-1.5-5.4,0V127.8z"/>
			<path class="st10" d="M612.3,127.8h5.4v-6.1c-1.8-1.5-3.6-1.5-5.4,0V127.8z"/>
			<path class="st10" d="M627.6,127.8h5.4v-6.1c-1.8-1.5-3.6-1.5-5.4,0V127.8z"/>
			<path class="st10" d="M643.7,127.4h5.4v-6.1c-1.8-1.5-3.6-1.5-5.4,0V127.4z"/>
			<polygon class="st6" points="666.8,133.8 666.8,122.2 545.5,132.4 545.5,133.8 			"/>
		</g>
		<rect x="828.8" y="113.6" class="st13" width="48" height="3.2"/>
		<rect x="876.7" y="113.6" class="st6" width="10.1" height="3.2"/>
		<polygon class="st8" points="876.9,113.6 829.3,113.6 829.3,111.4 830.2,110.6 830.2,48.3 876.1,48.3 876.1,110.9 876.9,111.6 		
			"/>
		<path class="st6" d="M864.2,114.3H842v-35c6.7-10.9,16.7-10.8,22.3,0L864.2,114.3L864.2,114.3z"/>
		<g>
			<rect x="870.9" y="65.2" class="st10" width="5.1" height="45.8"/>
			<polygon class="st10" points="876.8,113.6 870,113.6 870,111.7 870.8,110.9 876.2,110.9 876.8,111.7 			"/>
		</g>
		<g>
			<rect x="830.3" y="65.2" class="st10" width="5.1" height="45.8"/>
			<polygon class="st10" points="836.1,113.6 829.3,113.6 829.3,111.7 830.1,110.9 835.5,110.9 836.1,111.7 			"/>
		</g>
		<g>
			<rect x="838.4" y="65.2" class="st10" width="3.6" height="45.8"/>
			<polygon class="st10" points="842,76.8 838.3,76.8 837.3,70.6 843.3,70.6 			"/>
			<rect x="837.5" y="110.9" class="st10" width="5.3" height="2.7"/>
		</g>
		<g>
			<rect x="864.1" y="65.2" class="st10" width="3.6" height="45.8"/>
			<polygon class="st10" points="867.7,76.8 863.9,76.8 863,70.6 869,70.6 			"/>
			<rect x="863.2" y="110.9" class="st10" width="5.3" height="2.7"/>
		</g>
		<g>
			<path class="st10" d="M810.7,117h6.3v-4.4l-1.4-1.4h-3.5l-1.4,1.4C810.8,112.5,810.7,117.2,810.7,117z"/>
			<rect x="812.2" y="77.8" class="st10" width="3.2" height="33.4"/>
			<polygon class="st10" points="810.9,72.2 812.2,77.8 815.4,77.8 816.7,72.2 			"/>
		</g>
		<g>
			<path class="st10" d="M795.2,117h6.3v-4.4l-1.4-1.4h-3.5l-1.4,1.4C795.3,112.5,795.2,117.2,795.2,117z"/>
			<rect x="796.7" y="77.8" class="st10" width="3.2" height="33.4"/>
			<polygon class="st10" points="795.4,72.2 796.7,77.8 799.9,77.8 801.2,72.2 			"/>
		</g>
		<g>
			<path class="st10" d="M779.7,117h6.3v-4.4l-1.4-1.4h-3.5l-1.4,1.4C779.8,112.5,779.7,117.2,779.7,117z"/>
			<rect x="781.2" y="77.8" class="st10" width="3.2" height="33.4"/>
			<polygon class="st10" points="779.9,72.2 781.2,77.8 784.4,77.8 785.7,72.2 			"/>
		</g>
		<g>
			<path class="st10" d="M764.2,117h6.3v-4.4l-1.4-1.4h-3.5l-1.4,1.4C764.3,112.5,764.2,117.2,764.2,117z"/>
			<rect x="765.7" y="77.8" class="st10" width="3.2" height="33.4"/>
			<polygon class="st10" points="764.4,72.2 765.7,77.8 768.9,77.8 770.2,72.2 			"/>
		</g>
		<g>
			<path class="st10" d="M846.9,113.6h2.2v-2.4l-0.5-0.5h-1.2l-0.5,0.5C846.9,111.1,846.9,113.7,846.9,113.6z"/>
			<rect x="847.4" y="99.1" class="st10" width="1.1" height="11.5"/>
			<polygon class="st10" points="846.9,97.2 847.4,99.1 848.5,99.1 848.9,97.2 			"/>
		</g>
		<g>
			<path class="st10" d="M857.1,113.5h2.2V111l-0.5-0.5h-1.2l-0.5,0.5C857.1,111,857.1,113.6,857.1,113.5z"/>
			<rect x="857.6" y="99" class="st10" width="1.1" height="11.5"/>
			<polygon class="st10" points="857.1,97.1 857.6,99 858.7,99 859.2,97.1 			"/>
		</g>
		<rect x="844.9" y="88" class="st14" width="16.4" height="6.5"/>
		<rect x="844.9" y="94.5" class="st10" width="16.4" height="2.1"/>
		<polygon class="st10" points="853.1,90 844.9,94.5 861.3,94.5 		"/>
		<path class="st5" d="M861.3,88h-16.7v-6.9c4.9-8.3,12.2-8.6,16.7,0V88z"/>
		<line class="st7" x1="849.2" y1="88" x2="849.2" y2="76.1"/>
		<line class="st7" x1="857" y1="88" x2="857" y2="76.1"/>
		<rect x="844.9" y="96.6" class="st10" width="16.4" height="16.9"/>
		<rect x="832.9" y="46.3" class="st6" width="39.9" height="2"/>
		<rect x="832.9" y="27.8" class="st6" width="39.9" height="18.5"/>
		<path class="st5" d="M871,21.7h-36.3v3.7c-1.1,0.4-1.6,1.2-1.8,2.5h39.9c0-1.1-0.7-2.3-1.8-2.3L871,21.7L871,21.7z"/>
		<rect x="753.1" y="65.2" class="st15" width="77.2" height="7"/>
		<rect x="753" y="62.5" class="st6" width="131.8" height="2.4"/>
		<rect x="753" y="58.8" class="st16" width="131.8" height="3.7"/>
		<rect x="838.4" y="31.5" class="st5" width="29.6" height="14.8"/>
		<path class="st10" d="M846.3,42.8h-3.6v-7.6c1.2-0.8,2.4-0.8,3.6,0V42.8z"/>
		<path class="st10" d="M854.9,42.8h-3.6v-7.6c1.2-0.8,2.4-0.8,3.6,0V42.8z"/>
		<path class="st10" d="M863.4,42.8h-3.6v-7.6c1.2-0.8,2.4-0.8,3.6,0V42.8z"/>
		<g>
			<path class="st10" d="M825.4,94.5c-2.6-2.4-5.2-2.4-7.8,0v15.9h7.8V94.5z"/>
			<rect x="817.6" y="98.6" class="st10" width="7.8" height="3.7"/>
			<rect x="817.6" y="106.5" class="st10" width="3.9" height="3.9"/>
			<rect x="821.4" y="106.5" class="st10" width="3.9" height="3.9"/>
		</g>
		<g>
			<path class="st10" d="M810.1,94.5c-2.6-2.4-5.2-2.4-7.8,0v15.9h7.8V94.5z"/>
			<rect x="802.3" y="98.6" class="st10" width="7.8" height="3.7"/>
			<rect x="802.3" y="106.5" class="st10" width="3.9" height="3.9"/>
			<rect x="806.1" y="106.5" class="st10" width="3.9" height="3.9"/>
		</g>
		<g>
			<path class="st10" d="M794.7,94.5c-2.6-2.4-5.2-2.4-7.8,0v15.9h7.8V94.5z"/>
			<rect x="786.9" y="98.6" class="st10" width="7.8" height="3.7"/>
			<rect x="786.9" y="106.5" class="st10" width="3.9" height="3.9"/>
			<rect x="790.7" y="106.5" class="st10" width="3.9" height="3.9"/>
		</g>
		<g>
			<path class="st10" d="M779.2,94.5c-2.6-2.4-5.2-2.4-7.8,0v15.9h7.8V94.5z"/>
			<rect x="771.4" y="98.6" class="st10" width="7.8" height="3.7"/>
			<rect x="771.4" y="106.5" class="st10" width="3.9" height="3.9"/>
			<rect x="775.3" y="106.5" class="st10" width="3.9" height="3.9"/>
		</g>
		<g>
			<rect x="802.9" y="75.5" class="st10" width="6.6" height="11.1"/>
			<rect x="802.9" y="81" class="st10" width="3.3" height="5.6"/>
			<rect x="806.2" y="81" class="st10" width="3.3" height="5.6"/>
			<polygon class="st10" points="806.1,72.9 801.9,75.5 810.5,75.5 			"/>
		</g>
		<g>
			<rect x="787.4" y="75.5" class="st10" width="6.6" height="11.1"/>
			<rect x="787.4" y="81" class="st10" width="3.3" height="5.6"/>
			<rect x="790.7" y="81" class="st10" width="3.3" height="5.6"/>
			<polygon class="st10" points="790.6,72.9 786.3,75.5 795,75.5 			"/>
		</g>
		<g>
			<rect x="771.9" y="75.5" class="st10" width="6.6" height="11.1"/>
			<rect x="771.9" y="81" class="st10" width="3.3" height="5.6"/>
			<rect x="775.2" y="81" class="st10" width="3.3" height="5.6"/>
			<polygon class="st10" points="775.1,72.9 770.8,75.5 779.5,75.5 			"/>
		</g>
		<g>
			<rect x="818.1" y="75.5" class="st10" width="6.6" height="11.1"/>
			<rect x="818.1" y="81" class="st10" width="3.3" height="5.6"/>
			<rect x="821.5" y="81" class="st10" width="3.3" height="5.6"/>
			<polygon class="st10" points="821.4,72.9 817.1,75.5 825.7,75.5 			"/>
		</g>
		<rect x="528.7" y="113.7" class="st13" width="48" height="3.2"/>
		<rect x="518.6" y="113.7" class="st6" width="10.1" height="3.2"/>
		<polygon class="st8" points="528.6,113.6 576.1,113.6 576.1,111.4 575.3,110.6 575.3,48.3 529.4,48.3 529.4,110.9 528.6,111.6 		
			"/>
		<path class="st6" d="M541.2,114.3h22.3v-35c-6.7-10.9-16.7-10.8-22.3,0V114.3z"/>
		<g>
			<rect x="529.4" y="65.1" class="st10" width="5.1" height="45.8"/>
			<polygon class="st10" points="528.7,113.6 535.5,113.6 535.5,111.7 534.7,110.9 529.3,110.9 528.7,111.7 			"/>
		</g>
		<g>
			<rect x="570.1" y="65.1" class="st10" width="5.1" height="45.8"/>
			<polygon class="st10" points="569.3,113.6 576.1,113.6 576.1,111.7 575.3,110.9 569.9,110.9 569.3,111.7 			"/>
		</g>
		<g>
			<rect x="563.4" y="65.1" class="st10" width="3.6" height="45.8"/>
			<polygon class="st10" points="563.5,76.8 567.2,76.8 568.2,70.6 562.1,70.6 			"/>
			<rect x="562.7" y="111" class="st10" width="5.3" height="2.7"/>
		</g>
		<g>
			<rect x="537.8" y="65.1" class="st10" width="3.6" height="45.8"/>
			<polygon class="st10" points="537.8,76.8 541.5,76.8 542.5,70.6 536.4,70.6 			"/>
			<rect x="537" y="111" class="st10" width="5.3" height="2.7"/>
		</g>
		<g>
			<path class="st10" d="M594.7,117h-6.3v-4.4l1.4-1.4h3.5l1.4,1.4C594.6,112.5,594.7,117.2,594.7,117z"/>
			<rect x="590" y="77.8" class="st10" width="3.2" height="33.4"/>
			<polygon class="st10" points="594.6,72.2 593.3,77.8 590,77.8 588.7,72.2 			"/>
		</g>
		<g>
			<path class="st10" d="M610.2,117h-6.3v-4.4l1.4-1.4h3.5l1.4,1.4C610.1,112.5,610.2,117.2,610.2,117z"/>
			<rect x="605.5" y="77.8" class="st10" width="3.2" height="33.4"/>
			<polygon class="st10" points="610.1,72.2 608.8,77.8 605.5,77.8 604.2,72.2 			"/>
		</g>
		<g>
			<path class="st10" d="M625.7,117h-6.3v-4.4l1.4-1.4h3.5l1.4,1.4C625.6,112.5,625.7,117.2,625.7,117z"/>
			<rect x="621" y="77.8" class="st10" width="3.2" height="33.4"/>
			<polygon class="st10" points="625.6,72.2 624.3,77.8 621,77.8 619.7,72.2 			"/>
		</g>
		<g>
			<path class="st10" d="M641.2,117h-6.3v-4.4l1.4-1.4h3.5l1.4,1.4C641.1,112.5,641.2,117.2,641.2,117z"/>
			<rect x="636.5" y="77.8" class="st10" width="3.2" height="33.4"/>
			<polygon class="st10" points="641.1,72.2 639.8,77.8 636.5,77.8 635.2,72.2 			"/>
		</g>
		<g>
			<path class="st10" d="M558.6,113.6h-2.2v-2.4l0.5-0.5h1.2l0.5,0.5C558.6,111.1,558.6,113.7,558.6,113.6z"/>
			<rect x="557" y="99.1" class="st10" width="1.1" height="11.5"/>
			<polygon class="st10" points="558.6,97.2 558.1,99.1 557,99.1 556.5,97.2 			"/>
		</g>
		<g>
			<path class="st10" d="M548.4,113.5h-2.2V111l0.5-0.5h1.2l0.5,0.5C548.3,111,548.4,113.6,548.4,113.5z"/>
			<rect x="546.7" y="99" class="st10" width="1.1" height="11.5"/>
			<polygon class="st10" points="548.3,97.1 547.9,99 546.7,99 546.3,97.1 			"/>
		</g>
		<rect x="544.2" y="88.1" class="st14" width="16.4" height="6.5"/>
		<rect x="544.2" y="94.5" class="st10" width="16.4" height="2.1"/>
		<polygon class="st10" points="552.4,90 560.6,94.5 544.1,94.5 		"/>
		<path class="st5" d="M544.1,88h16.7v-6.9c-4.9-8.3-12.2-8.6-16.7,0V88z"/>
		<line class="st7" x1="556.3" y1="88" x2="556.3" y2="76.1"/>
		<line class="st7" x1="548.5" y1="88" x2="548.5" y2="76.1"/>
		<rect x="544.2" y="96.6" class="st10" width="16.4" height="16.9"/>
		<rect x="532.7" y="46.2" class="st6" width="39.9" height="2"/>
		<rect x="532.7" y="27.8" class="st6" width="39.9" height="18.5"/>
		<path class="st5" d="M534.5,21.7h36.3v3.7c1.1,0.4,1.6,1.2,1.8,2.5h-39.9c0-1.1,0.7-2.3,1.8-2.3L534.5,21.7L534.5,21.7z"/>
		<rect x="575.2" y="65.1" class="st15" width="77.2" height="7"/>
		<rect x="520.6" y="62.4" class="st6" width="131.8" height="2.4"/>
		<rect x="520.6" y="58.7" class="st16" width="131.8" height="3.7"/>
		<rect x="537.5" y="31.5" class="st5" width="29.6" height="14.8"/>
		<path class="st10" d="M559.1,42.8h3.6v-7.6c-1.2-0.8-2.4-0.8-3.6,0V42.8z"/>
		<path class="st10" d="M550.6,42.8h3.6v-7.6c-1.2-0.8-2.4-0.8-3.6,0V42.8z"/>
		<path class="st10" d="M542,42.8h3.6v-7.6c-1.2-0.8-2.4-0.8-3.6,0V42.8z"/>
		<g>
			<path class="st10" d="M580.1,94.5c2.6-2.4,5.2-2.4,7.8,0v15.9h-7.8V94.5z"/>
			<rect x="580.1" y="98.7" class="st10" width="7.8" height="3.7"/>
			<rect x="583.9" y="106.5" class="st10" width="3.9" height="3.9"/>
			<rect x="580.2" y="106.5" class="st10" width="3.9" height="3.9"/>
		</g>
		<g>
			<path class="st10" d="M595.4,94.5c2.6-2.4,5.2-2.4,7.8,0v15.9h-7.8V94.5z"/>
			<rect x="595.4" y="98.7" class="st10" width="7.8" height="3.7"/>
			<rect x="599.3" y="106.5" class="st10" width="3.9" height="3.9"/>
			<rect x="595.5" y="106.5" class="st10" width="3.9" height="3.9"/>
		</g>
		<g>
			<path class="st10" d="M610.8,94.5c2.6-2.4,5.2-2.4,7.8,0v15.9h-7.8V94.5z"/>
			<rect x="610.8" y="98.7" class="st10" width="7.8" height="3.7"/>
			<rect x="614.6" y="106.5" class="st10" width="3.9" height="3.9"/>
			<rect x="610.9" y="106.5" class="st10" width="3.9" height="3.9"/>
		</g>
		<g>
			<path class="st10" d="M626.3,94.5c2.6-2.4,5.2-2.4,7.8,0v15.9h-7.8V94.5z"/>
			<rect x="626.2" y="98.7" class="st10" width="7.8" height="3.7"/>
			<rect x="630.1" y="106.5" class="st10" width="3.9" height="3.9"/>
			<rect x="626.3" y="106.5" class="st10" width="3.9" height="3.9"/>
		</g>
		<g>
			<rect x="596" y="75.5" class="st10" width="6.6" height="11.1"/>
			<rect x="599.3" y="81" class="st10" width="3.3" height="5.6"/>
			<rect x="596" y="81" class="st10" width="3.3" height="5.6"/>
			<polygon class="st10" points="599.4,72.9 603.6,75.5 595,75.5 			"/>
		</g>
		<g>
			<rect x="611.5" y="75.5" class="st10" width="6.6" height="11.1"/>
			<rect x="614.8" y="81" class="st10" width="3.3" height="5.6"/>
			<rect x="611.5" y="81" class="st10" width="3.3" height="5.6"/>
			<polygon class="st10" points="614.9,72.9 619.1,75.5 610.5,75.5 			"/>
		</g>
		<g>
			<rect x="627.1" y="75.5" class="st10" width="6.6" height="11.1"/>
			<rect x="630.3" y="81" class="st10" width="3.3" height="5.6"/>
			<rect x="627" y="81" class="st10" width="3.3" height="5.6"/>
			<polygon class="st10" points="630.4,72.9 634.6,75.5 626,75.5 			"/>
		</g>
		<g>
			<rect x="580.7" y="75.5" class="st10" width="6.6" height="11.1"/>
			<rect x="584.1" y="81" class="st10" width="3.3" height="5.6"/>
			<rect x="580.7" y="81" class="st10" width="3.3" height="5.6"/>
			<polygon class="st10" points="584.1,72.9 588.3,75.5 579.7,75.5 			"/>
		</g>
		<polygon class="st10" points="702.9,44.7 748.1,62.1 746.7,63.7 658.9,63.9 657.1,62.1 		"/>
		<polygon class="st10" points="659.9,69.3 745.7,69.2 745.6,63.7 659.9,64 		"/>
		<polygon class="st10" points="666.7,133.8 738.9,133.8 738.8,116.9 666.7,117.1 		"/>
		<line class="st17" x1="666.8" y1="121.3" x2="738.8" y2="121.3"/>
		<line class="st17" x1="738.8" y1="125.5" x2="666.7" y2="125.5"/>
		<line class="st17" x1="738.7" y1="129.7" x2="666.5" y2="129.7"/>
	</g>
</g>
<g id="Layer_4">
	<g>
		<g class="st18">
			
				<linearGradient id="SVGID_2_" gradientUnits="userSpaceOnUse" x1="0" y1="645" x2="718" y2="645" gradientTransform="matrix(1 0 0 1 0 -616)">
				<stop  offset="0" style="stop-color:#000000"/>
				<stop  offset="0.2023" style="stop-color:#030303;stop-opacity:0.7977"/>
				<stop  offset="0.3369" style="stop-color:#0C0C0C;stop-opacity:0.6631"/>
				<stop  offset="0.4518" style="stop-color:#1B1B1B;stop-opacity:0.5482"/>
				<stop  offset="0.5556" style="stop-color:#303030;stop-opacity:0.4444"/>
				<stop  offset="0.652" style="stop-color:#4C4C4C;stop-opacity:0.348"/>
				<stop  offset="0.7428" style="stop-color:#6E6E6E;stop-opacity:0.2572"/>
				<stop  offset="0.8295" style="stop-color:#969696;stop-opacity:0.1705"/>
				<stop  offset="0.9126" style="stop-color:#C5C5C5;stop-opacity:8.738375e-02"/>
				<stop  offset="0.9904" style="stop-color:#F8F8F8;stop-opacity:9.625316e-03"/>
				<stop  offset="1" style="stop-color:#FFFFFF;stop-opacity:0"/>
			</linearGradient>
			<rect y="9" class="st19" width="718" height="40"/>
		</g>
		<g class="st18">
			
				<linearGradient id="SVGID_3_" gradientUnits="userSpaceOnUse" x1="0" y1="686" x2="718" y2="686" gradientTransform="matrix(1 0 0 1 0 -616)">
				<stop  offset="0" style="stop-color:#FF0000"/>
				<stop  offset="0.2023" style="stop-color:#FF0303;stop-opacity:0.7977"/>
				<stop  offset="0.3369" style="stop-color:#FF0C0C;stop-opacity:0.6631"/>
				<stop  offset="0.4518" style="stop-color:#FF1B1B;stop-opacity:0.5482"/>
				<stop  offset="0.5556" style="stop-color:#FF3030;stop-opacity:0.4444"/>
				<stop  offset="0.652" style="stop-color:#FF4C4C;stop-opacity:0.348"/>
				<stop  offset="0.7428" style="stop-color:#FF6E6E;stop-opacity:0.2572"/>
				<stop  offset="0.8295" style="stop-color:#FF9696;stop-opacity:0.1705"/>
				<stop  offset="0.9126" style="stop-color:#FFC5C5;stop-opacity:8.738375e-02"/>
				<stop  offset="0.9904" style="stop-color:#FFF8F8;stop-opacity:9.625316e-03"/>
				<stop  offset="1" style="stop-color:#FFFFFF;stop-opacity:0"/>
			</linearGradient>
			<rect y="49" class="st20" width="718" height="42"/>
		</g>
		<g class="st18">
			
				<linearGradient id="SVGID_4_" gradientUnits="userSpaceOnUse" x1="0" y1="727" x2="718" y2="727" gradientTransform="matrix(1 0 0 1 0 -616)">
				<stop  offset="0" style="stop-color:#FFFF00"/>
				<stop  offset="0.2023" style="stop-color:#FFFF03;stop-opacity:0.7977"/>
				<stop  offset="0.3369" style="stop-color:#FFFF0C;stop-opacity:0.6631"/>
				<stop  offset="0.4518" style="stop-color:#FFFF1B;stop-opacity:0.5482"/>
				<stop  offset="0.5556" style="stop-color:#FFFF30;stop-opacity:0.4444"/>
				<stop  offset="0.652" style="stop-color:#FFFF4C;stop-opacity:0.348"/>
				<stop  offset="0.7428" style="stop-color:#FFFF6E;stop-opacity:0.2572"/>
				<stop  offset="0.8295" style="stop-color:#FFFF96;stop-opacity:0.1705"/>
				<stop  offset="0.9126" style="stop-color:#FFFFC5;stop-opacity:8.738375e-02"/>
				<stop  offset="0.9904" style="stop-color:#FFFFF8;stop-opacity:9.625316e-03"/>
				<stop  offset="1" style="stop-color:#FFFFFF;stop-opacity:0"/>
			</linearGradient>
			<rect y="91" class="st21" width="718" height="40"/>
		</g>
	</g>
</g>
<g id="Layer_5">
	<g>
		<path id="path3069" class="st22" d="M304.4,5"/>
		<path id="path3067" class="st22" d="M304.4,5"/>
		<path id="path4669" class="st5" d="M449.3,48.7v7.7h-46.6v-0.8h30.7v-0.3h-30.7v-0.8h25.9v-0.3h-25.9v-0.8h21.2V53h-21.2v-0.8
			h16.4v-0.3h-16.4V51h11.6v-0.3h-11.6v-0.8h6.8v-0.3h-6.8v-0.8h46.6V48.7z"/>
		<rect id="rect3011" x="312.3" y="63" class="st5" width="139.6" height="9.5"/>
		<path id="path3085" d="M384.7,8.9c-0.4,0.4-2.5,1.4-2.1,1.5c0.4,0,0.1,0.7-0.8,0.9c0-0.1,0-0.2,0-0.3s0-0.3,0-0.4
			c0-0.2-0.1-0.3-0.2-0.4c0-0.1,0.1-0.2,0-0.2c0-0.1-0.2-0.2-0.3-0.2c-0.1,0.1-0.2,0.2-0.2,0.2c0,0.1,0.2,0.2-0.1,0.3
			c-0.1,0-0.2,0.2-0.2,0.5c0.2-0.2,0.3,0,0.3,0.1c-0.1,0.1,0,0.3,0,0.5c-1.3-0.6-0.4-0.6-0.6-0.8c-0.5-0.5-2-1.1-2.7-1.4
			c0.1,0.8,0.5,1.6,1,2.2c0.5,0.6,1.2,0.7,1.3,1.5c0.9,0.1,1.2,0.6,0.5,1.1c-1,0.5-1,2-0.7,2.6c0.4,0.6,0.7,0.8,1.6,0.9
			c0,0.8,0.1,2.8,0.1,3.6c-0.5,0.4-0.2,0.3-0.9,0.5c-2.4-0.5-1.4,3.3-1.3,4.8c0.4,1.8,0.5,3.6-1.7,4c0.1-1,0.5-2.1-0.3-2.8
			c-0.8-0.1-1.7-0.1-1.4,0.8c-0.3,1.4,0.4,2.9-2,3.2c-2.3,0.2-3.6,0.8-4.1-0.2c-0.5-1.5-0.8-3.5-2.5-4c-0.3,0.2-1.9,0.5-1.5,0.8
			c0.2,0.9,0.3,2,0.1,3.1c-0.1,1.3,2.4,0.6,1,2c-0.7,1.5,0.7,3.1-0.7,4.2c0.4,1-0.5,4.1,1.2,3.4c-0.2-1-1.3-3.7,0.7-3.7
			c1.1,0.5,0.6-1.2,1.3-0.1c0.5,1.3,0.4,2.8,0.4,4.2c-0.8-1.8-2.8,0.3-1.2,1c0,0.4-1.2,0.1-1.7,0.2c-1.9,0-3.5,0-5.4,0v2.7H402v-2.5
			c0,0-4.3-0.4-5.2-0.2c-0.8,0-2.6,0.2-1.1-0.7c0.1-1.4-1.7-0.8-1-2.2c0.4-0.9,1.1-2.3,1.5-2.4c-0.2,0.6,1.6-0.3,1.2,1.1
			c0,1.1-0.7,1.7-0.8,2.6c1.5,0.9,1.1-2.3,1.6-3.2c-0.9-1.5,0.3-3.3-0.7-4.7c-0.3-1.2,1.4-1.8,0.8-3.1c0.3-0.8,0.2-1.7,0.6-2.5
			c-0.9,0.4-1.3-0.8-2.4,0.2c-1.3,1.1-1.6,3-1.9,4.6c-1.5,0.4-3.7,0.5-5.2-0.4c-1.2-0.2-1.6-0.8-1.1-1.9c-0.5-0.9,0.1-2.1-0.3-3
			c-0.8-0.1-2,0-1.6-1.5c0.1-1.2-0.3-5.2-2-3.4c0.2,1.1-0.4,1.3-0.8,1c-0.2-0.1-0.4-0.4-0.5-0.6c0.3-0.1,0-0.6,0.4-0.9
			c0.4-0.6,0.1-1-0.4-1.2c-0.4,0-1.3,0.3-1.5,0.6c0-1.1-0.1-2.3-0.1-3.4c1-0.2,1.7-1.1,1.6-2.2c-0.1-0.7-0.6-1.2-1.3-1.6
			c0-0.3-0.2-1.2,0.7-1c0.6-0.2,0.6-1,1.1-1.4c0.3-0.7,0.4-1.5,0.6-2.2L384.7,8.9L384.7,8.9L384.7,8.9L384.7,8.9z M381.3,15.3
			c-1.1,0.2-0.9-0.5-0.6-0.8C381,14.2,381.4,14.3,381.3,15.3z M381.7,21.9c0.1,1-0.3,1-0.9,1C380.7,22.5,380.8,22.4,381.7,21.9z
			 M382.1,22.2c0.1,0,0.2,0.7,0,0.8C382.1,22.6,382.1,22.4,382.1,22.2z M385.1,28.1c0.7,0.7,0.4,2-0.1,0.5
			C384.9,28.4,385,28.3,385.1,28.1z M379.6,29.6c-0.7,0.4-2.6,3.1-1.7,0.9C378.5,30.2,379.1,29.9,379.6,29.6z M375.6,31.4
			c-0.2,1.7-3.2,0.5-4.4,0.7C372.7,32,374.2,31.8,375.6,31.4z M388.5,31.5c0.6,0.2,2.9,1.2,1,0.7C389,32,388.4,32.1,388.5,31.5z
			 M370.2,32c1.7,0.2,3.6,0.5,5.2,0.2c-0.7,1.1-1.3,2.6-0.8,4c-2.1-0.4-0.5-4-3.2-3.6C371.1,32.6,370.3,32.5,370.2,32z M388.6,32.1
			c1.3,0.3,3.2,0.7,4.1,1.1c-0.6,1.3-1.1,2.7-2.7,3.1c-0.3-1.2,0.6-4-1-3.5C388.9,32.6,388.7,32.3,388.6,32.1z M394.5,32.5
			c-1.1,0.6-2.7,0.3-2.8,0C392.6,32.6,393.5,32.7,394.5,32.5z M391.8,35.6c0.7,1.5-2.6,1.1-0.6,0.4
			C391.4,35.9,391.6,35.7,391.8,35.6z M373.5,35.9c0.8,0.4,1.7,0.9,0.2,0.7C373,36.8,373.5,36.1,373.5,35.9z M391.7,36.8
			c0.6,1.2,0.3,2.6,0.2,3.7c0.1,0.6,1.1,2.3-0.2,2.1C391.7,40.7,391.6,38.7,391.7,36.8L391.7,36.8z M391.4,36.8c0.1,1.9,0,3.9,0,5.8
			c-0.6,0-0.4-0.8-0.7,0c-1.2,0.4-0.6-1.2-0.6-1.6c-0.2-0.8-0.5-2.5,0.4-2.9c-0.1-0.6-1.3-1.6,0.4-1.3
			C391.1,36.8,391.3,36.8,391.4,36.8L391.4,36.8z M373.1,36.9c1.2,0.5,0.2,3,0.5,4.3c0.2,1-0.1,1.8-1.1,1.4
			c-0.2-1.4,0.9-2.4,0.4-3.9C373,38.1,372.8,37.5,373.1,36.9L373.1,36.9z M374.4,36.9c1.4,0.7,0.8,3.4,1.3,4.9
			c0.2,1.5-2.7,1.1-1.9-0.5C374.2,40.1,373.2,37,374.4,36.9z M393.9,37.4c0.8,1.1-0.3,2.7-0.1,4.1c0,1.1-0.5,1.7-0.4,0.3
			C393.7,40.4,393.2,38.8,393.9,37.4z M377,38.5c0.2,1.1,0.3,2.5,0.9,3.5c0.4,1.2-1.9,0.7-0.3,0c0-1.3-1.5-1.3-0.6-2.8
			C376.9,39,376.7,38.7,377,38.5L377,38.5z M378.3,38.6c1.1,0.4,0.9,3.2,0.5,4.1c-1.6-0.3,0.8-2.4-0.4-3.5
			C378.3,39,378.3,38.8,378.3,38.6z M388.9,38.7c0.9,0.7-0.3,3.8-0.3,1.6C388.6,39.9,388.5,38.8,388.9,38.7z M386.7,38.7
			c0.7,1,0,2.2-0.1,2.9c1,0.9-1.2,1.7-0.5,0.1C386.2,40.8,386.2,39.2,386.7,38.7z M379.8,38.7c1.5,0.1,3.5,0,2.8,2.1
			c0.3,1.4-0.3,2.1-1.9,1.8c-0.7-0.6,0.5-2.2-1.1-1.9C379.6,40.1,380,39.4,379.8,38.7z M385.1,38.9c-0.9,1.1,1.1,1,0.4,2.2
			c-0.2,1,0.2,1.5-0.5,1.4c-0.6,0.4-1.8,0-1.5-1C383.6,40.1,382.9,38.6,385.1,38.9z M370.7,39.7c0.5,0.5,0.3,3.6-0.2,2.5
			C370.9,41.4,370.6,40.5,370.7,39.7z"/>
		<rect id="rect3101" x="307.7" y="58.9" class="st5" width="148.7" height="1.8"/>
		<rect id="rect3103" x="309.5" y="61" class="st5" width="145.2" height="1.8"/>
		<rect id="rect3009" x="335.7" y="131.3" class="st5" width="9.8" height="2.7"/>
		<rect id="rect3106" x="336.2" y="72.9" class="st5" width="8.8" height="1.5"/>
		<rect id="rect3108" x="337" y="74.8" class="st5" width="7.2" height="1.4"/>
		<path id="path3936" class="st5" d="M337.4,76.6h6.5l0.5,54.2h-7.5L337.4,76.6z"/>
		<rect id="rect3940" x="336.2" y="72.9" class="st5" width="8.8" height="1.5"/>
		<rect id="rect3942" x="337" y="74.8" class="st5" width="7.2" height="1.4"/>
		<path id="path3886" class="st5" d="M313,76.6h6.5l0.5,54.2h-7.5L313,76.6z"/>
		<rect id="rect3888" x="311.3" y="131.3" class="st5" width="9.8" height="2.7"/>
		<rect id="rect3890" x="311.9" y="72.9" class="st5" width="8.8" height="1.5"/>
		<rect id="rect3892" x="312.7" y="74.8" class="st5" width="7.2" height="1.4"/>
		<rect id="rect3950" x="311.9" y="72.9" class="st5" width="8.8" height="1.5"/>
		<rect id="rect3952" x="312.7" y="74.8" class="st5" width="7.2" height="1.4"/>
		<path id="path3896" class="st5" d="M361.7,76.6h6.5l0.5,54.2h-7.5L361.7,76.6z"/>
		<rect id="rect3898" x="360" y="131.3" class="st5" width="9.8" height="2.7"/>
		<rect id="rect3900" x="360.6" y="72.9" class="st5" width="8.8" height="1.5"/>
		<rect id="rect3902" x="361.3" y="74.8" class="st5" width="7.2" height="1.4"/>
		<rect id="rect3960" x="360.6" y="72.9" class="st5" width="8.8" height="1.5"/>
		<rect id="rect3962" x="361.3" y="74.8" class="st5" width="7.2" height="1.4"/>
		<path id="path3966" class="st5" d="M420.7,76.6h6.5l0.5,54.2h-7.5L420.7,76.6z"/>
		<rect id="rect3968" x="418.9" y="131.3" class="st5" width="9.8" height="2.7"/>
		<rect id="rect3970" x="419.5" y="72.9" class="st5" width="8.8" height="1.5"/>
		<rect id="rect3972" x="420.2" y="74.8" class="st5" width="7.2" height="1.4"/>
		<rect id="rect4000" x="419.5" y="72.9" class="st5" width="8.8" height="1.5"/>
		<rect id="rect4002" x="420.2" y="74.8" class="st5" width="7.2" height="1.4"/>
		<path id="path3976" class="st5" d="M395.9,76.6h6.5l0.5,54.2h-7.5L395.9,76.6z"/>
		<rect id="rect3978" x="394.2" y="131.3" class="st5" width="9.8" height="2.7"/>
		<rect id="rect3980" x="394.8" y="72.9" class="st5" width="8.8" height="1.5"/>
		<rect id="rect3982" x="395.6" y="74.8" class="st5" width="7.2" height="1.4"/>
		<rect id="rect4010" x="394.8" y="72.9" class="st5" width="8.8" height="1.5"/>
		<rect id="rect4012" x="395.6" y="74.8" class="st5" width="7.2" height="1.4"/>
		<path id="path3986" class="st5" d="M444.6,76.6h6.5l0.5,54.2h-7.5L444.6,76.6z"/>
		<rect id="rect3988" x="442.9" y="131.3" class="st5" width="9.8" height="2.7"/>
		<rect id="rect3990" x="443.5" y="72.9" class="st5" width="8.8" height="1.5"/>
		<rect id="rect3992" x="444.2" y="74.8" class="st5" width="7.2" height="1.4"/>
		<rect id="rect4020" x="443.5" y="72.9" class="st5" width="8.8" height="1.5"/>
		<rect id="rect4022" x="444.2" y="74.8" class="st5" width="7.2" height="1.4"/>
		<rect id="rect4117" x="359.7" y="45.6" class="st5" width="44.6" height="2.7"/>
		<rect id="rect4119" x="404.8" y="45.6" class="st5" width="46.9" height="2.7"/>
		<rect id="rect4121" x="312" y="45.6" class="st5" width="47.3" height="2.7"/>
		<rect id="rect4123" x="361.8" y="48.8" width="40.4" height="9.7"/>
		<path id="rect4127" class="st5" d="M314.6,48.7v7.7h46.6v-0.8h-30.7v-0.3h30.7v-0.8h-25.9v-0.3h25.9v-0.8H340V53h21.2v-0.8h-16.4
			v-0.3h16.4V51h-11.6v-0.3h11.6v-0.8h-6.8v-0.3h6.8v-0.8h-46.6V48.7z"/>
		<rect id="rect4129" x="402.7" y="56.8" class="st5" width="49" height="1.8"/>
		<rect id="rect4131" x="312.3" y="56.8" class="st5" width="49" height="1.8"/>
	</g>
</g>
<g id="Layer_6">
	<g>
		<polygon class="st23" points="253.3,62.9 253.2,58.7 250,58.7 249.9,62.9 		"/>
		<polygon class="st23" points="253.2,54.9 253.1,53.2 250.1,53.2 250,54.9 		"/>
		<polygon class="st23" points="254.3,133.3 253.3,63.6 249.9,63.6 248.9,133.3 		"/>
		<path class="st23" d="M250.2,46.1v3.3h3v-3.3c-0.5,0.1-0.9,0.1-1.4,0.1C251.1,46.2,250.6,46.1,250.2,46.1z"/>
		<path class="st24" d="M251.6,21.1h-1l-0.2,8c0.4-0.1,0.8-0.1,1.2-0.1s0.8,0,1.2,0.1l-0.2-8H251.6z"/>
		<path class="st25" d="M259.5,37.6c0-4.4-3.6-7.9-7.9-7.9c-4.4,0-7.9,3.6-7.9,7.9c0,4.4,3.6,7.9,7.9,7.9
			C256,45.5,259.5,41.9,259.5,37.6z"/>
		<path class="st24" d="M255.8,50.1h-8.5c-0.6,0-1.1,0.5-1.1,1.1v0.1c0,0.6,0.5,1.1,1.1,1.1h8.5c0.6,0,1.1-0.5,1.1-1.1v-0.1
			C257,50.6,256.5,50.1,255.8,50.1z"/>
		<path class="st24" d="M255.8,55.6h-8.5c-0.6,0-1.1,0.5-1.1,1.1v0.1c0,0.6,0.5,1.1,1.1,1.1h8.5c0.6,0,1.1-0.5,1.1-1.1v-0.1
			C257,56.1,256.5,55.6,255.8,55.6z"/>
		<path d="M260.2,37.6c0-4.1-2.9-7.5-6.7-8.4l-0.2-8.5c0-0.2-0.2-0.3-0.3-0.3h-0.9v-15c0-0.2-0.2-0.3-0.3-0.3
			c-0.2,0-0.3,0.2-0.3,0.3v15h-0.9c-0.2,0-0.3,0.2-0.3,0.3l-0.2,8.5c-3.8,0.9-6.7,4.3-6.7,8.4c0,4,2.8,7.4,6.5,8.3v3.4h-2.1
			c-1,0-1.8,0.8-1.8,1.8v0.1c0,1,0.8,1.8,1.8,1.8h2v1.7h-2c-1,0-1.8,0.8-1.8,1.8v0.1c0,1,0.8,1.8,1.8,1.8h1.9l-0.1,4.2h-3.3
			c-0.2,0-0.3,0.2-0.3,0.3c0,0.2,0.2,0.3,0.3,0.3h3.3l-1,70c0,0.1,0,0.2,0.1,0.3s0.2,0.1,0.2,0.1h6c0.1,0,0.2,0,0.2-0.1
			c0.1-0.1,0.1-0.2,0.1-0.3l-1-70h3.3c0.2,0,0.3-0.2,0.3-0.3c0-0.2-0.2-0.3-0.3-0.3H254l-0.1-4.2h1.9c1,0,1.8-0.8,1.8-1.8v-0.1
			c0-1-0.8-1.8-1.8-1.8h-2V53h2c1,0,1.8-0.8,1.8-1.8v-0.1c0-1-0.8-1.8-1.8-1.8h-2.1v-3.4C257.5,45,260.2,41.6,260.2,37.6z"/>
		<path class="st16" d="M250.6,21.1h1h1l0.2,8c-0.4-0.1-0.8-0.1-1.2-0.1s-0.8,0-1.2,0.1L250.6,21.1z"/>
		<polygon class="st6" points="254.3,133.3 248.9,133.3 249.9,63.6 253.3,63.6 		"/>
		<polygon class="st5" points="253.3,62.9 249.9,62.9 250,58.7 253.2,58.7 		"/>
		<path class="st6" d="M255.8,55.6c0.6,0,1.1,0.5,1.1,1.1v0.1c0,0.6-0.5,1.1-1.1,1.1h-8.5c-0.6,0-1.1-0.5-1.1-1.1v-0.1
			c0-0.6,0.5-1.1,1.1-1.1H255.8z"/>
		<polygon class="st5" points="253.2,54.9 250,54.9 250.1,53.2 253.1,53.2 		"/>
		<path class="st6" d="M255.8,50.1c0.6,0,1.1,0.5,1.1,1.1v0.1c0,0.6-0.5,1.1-1.1,1.1h-8.5c-0.6,0-1.1-0.5-1.1-1.1v-0.1
			c0-0.6,0.5-1.1,1.1-1.1H255.8z"/>
		<path class="st5" d="M253.1,49.4h-3v-3.3c0.5,0.1,0.9,0.1,1.4,0.1s1,0,1.4-0.1L253.1,49.4z"/>
		<path class="st16" d="M251.6,45.5c-4.4,0-7.9-3.6-7.9-7.9c0-4.4,3.6-7.9,7.9-7.9c4.4,0,7.9,3.6,7.9,7.9S256,45.5,251.6,45.5z"/>
	</g>
</g>
<g id="Layer_7">
	<g>
		<path d="M936.4,69.6c1.7-0.3,3.5-0.6,5.3-0.9s3.7-0.6,5.5-0.8c1.9-0.2,3.7-0.4,5.6-0.5c1.9-0.1,3.7-0.2,5.5-0.2
			c2.5,0,5,0.2,7.4,0.5s4.6,0.9,6.7,1.6c2.1,0.8,4,1.8,5.8,3c1.8,1.3,3.3,2.8,4.5,4.7c1.3,1.9,2.2,4.1,2.9,6.7s1.1,5.5,1.1,8.9
			c0,3-0.3,5.9-0.9,8.7s-1.5,5.4-2.6,7.8s-2.6,4.6-4.2,6.5c-1.7,2-3.6,3.6-5.7,5c-2.1,1.4-4.5,2.5-7.1,3.2c-2.6,0.8-5.3,1.1-8.3,1.1
			c-1.5,0-3.1-0.1-4.7-0.3c-1.6-0.2-3.2-0.5-4.9-1l-4.8,0.6h-0.4c0.1-1,0.2-2.4,0.4-4.1s0.3-3.7,0.4-6c0.1-2.3,0.2-4.8,0.4-7.6
			s0.2-5.8,0.3-9s0.2-6.6,0.2-10.2s0.1-7.3,0.1-11.1c0-0.8,0-1.5-0.1-2.1s-0.2-1.1-0.5-1.5s-0.7-0.7-1.2-0.9
			c-0.5-0.2-1.2-0.3-2.2-0.3c-1.1,0-2.5,0.1-4.1,0.4L936.4,69.6z M951.1,70.4c0,0.8,0,2-0.1,3.6c0,1.6-0.1,3.5-0.1,5.6
			s-0.1,4.5-0.2,7c-0.1,2.5-0.2,5.1-0.2,7.8c-0.1,2.6-0.2,5.3-0.3,7.9s-0.2,5.1-0.3,7.4s-0.2,4.4-0.3,6.3s-0.2,3.4-0.3,4.6
			c1.6,0.4,3.1,0.7,4.5,0.8s2.7,0.2,4,0.2c2.7,0,5.2-0.3,7.3-1c2.2-0.7,4.1-1.6,5.7-2.9c1.6-1.2,3-2.7,4.2-4.4
			c1.1-1.7,2.1-3.5,2.8-5.6c0.7-2,1.3-4.2,1.6-6.4c0.3-2.3,0.5-4.6,0.5-7c0-3.6-0.4-6.9-1.2-9.8c-0.8-3-2.1-5.5-3.9-7.7
			c-1.8-2.1-4.1-3.8-7-5s-6.4-1.8-10.5-1.8c-1,0-2.1,0-3.1,0.1S952.2,70.3,951.1,70.4z"/>
		<path d="M1017.7,116.2c0.1,0,0.2,0.1,0.4,0.2s0.3,0.2,0.4,0.3c0.1,0.1,0.2,0.2,0.3,0.3s0.1,0.2,0.1,0.4c0,0.1,0,0.1-0.1,0.2
			c-0.9,1.3-1.9,2.4-2.9,3.3s-2.1,1.7-3.3,2.3c-1.1,0.6-2.3,1.1-3.5,1.4s-2.3,0.5-3.5,0.5c-2,0-3.7-0.4-5.4-1.2
			c-1.6-0.8-3-1.9-4.2-3.3s-2.1-3-2.7-4.9c-0.7-1.9-1-3.9-1-6c0-1.7,0.2-3.5,0.6-5.2c0.4-1.7,0.9-3.4,1.7-5c0.7-1.6,1.6-3,2.6-4.4
			s2.2-2.5,3.6-3.5c1.3-1,2.8-1.8,4.4-2.4c1.6-0.6,3.3-0.9,5.1-0.9c1.2,0,2.4,0.2,3.4,0.5c1.1,0.3,2,0.8,2.9,1.4
			c0.8,0.6,1.5,1.4,2,2.3s0.7,1.9,0.7,3.1c0,1.7-0.5,3.1-1.6,4.3c-1.1,1.2-2.6,2.3-4.5,3.1c-1.9,0.9-4.1,1.6-6.7,2.1
			c-2.6,0.5-5.4,0.9-8.4,1.2v0.4c0,2.1,0.3,4,0.8,5.7s1.3,3.2,2.2,4.4s2,2.2,3.3,2.9c1.3,0.7,2.6,1,4.1,1s3-0.4,4.5-1.1
			C1014.5,119,1016.1,117.8,1017.7,116.2z M1013.1,96.6c0-0.7-0.1-1.4-0.4-2.1c-0.3-0.7-0.6-1.2-1.1-1.7c-0.4-0.5-1-0.9-1.6-1.1
			c-0.6-0.3-1.3-0.4-2-0.4c-1.1,0-2,0.2-2.9,0.6s-1.6,0.9-2.3,1.5s-1.3,1.4-1.8,2.2c-0.5,0.9-1,1.8-1.3,2.7c-0.4,1-0.7,1.9-0.9,3
			c-0.2,1-0.4,2-0.5,3c2.3-0.2,4.4-0.4,6.2-0.8s3.4-0.9,4.6-1.5c1.3-0.6,2.2-1.4,2.9-2.2C1012.8,98.7,1013.1,97.7,1013.1,96.6z"/>
		<path d="M1033.8,93.2c0,1.1,0,2.3-0.1,3.6c-0.1,1.3-0.2,2.5-0.3,3.8c-0.1,1.3-0.2,2.6-0.3,3.9c-0.1,1.3-0.2,2.5-0.3,3.7
			c-0.1,1.2-0.2,2.2-0.3,3.2c-0.1,1-0.1,1.8-0.1,2.4c0,1.9,0.4,3.4,1.1,4.2c0.7,0.9,1.7,1.3,2.9,1.3c1.4,0,2.8-0.7,4.2-2.2
			c1.4-1.5,2.8-3.7,4.2-6.5c1.3-2.9,2.4-6.1,3.4-9.7s1.5-7.4,1.8-11.6l5.2-0.6h0.4c-0.1,1.5-0.3,3.2-0.4,4.9
			c-0.1,1.7-0.2,3.5-0.3,5.2s-0.2,3.4-0.2,5.1s-0.1,3.2-0.1,4.6c0,2.7,0.2,4.8,0.5,6.5s0.7,3,1.2,4s1,1.6,1.7,2
			c0.6,0.4,1.3,0.5,1.9,0.5c0.4,0,0.7,0,1.1-0.1s0.7-0.2,1-0.4c0.3-0.1,0.6-0.3,0.9-0.5s0.5-0.3,0.7-0.4l0.8,1.1
			c-0.5,0.5-1,0.9-1.6,1.4c-0.6,0.4-1.2,0.8-1.9,1.1c-0.7,0.3-1.4,0.6-2.1,0.7s-1.5,0.3-2.2,0.3c-0.9,0-1.9-0.2-2.7-0.6
			c-0.9-0.4-1.7-1-2.4-1.9s-1.2-2.1-1.6-3.5c-0.4-1.5-0.6-3.3-0.6-5.5c0-0.7,0-1.4,0-2.1s0.1-1.5,0.1-2.3c0.1-0.8,0.2-1.7,0.3-2.6
			c0.1-0.9,0.2-1.9,0.4-3h-0.3c-1.1,4.1-2.3,7.5-3.6,10.3c-1.3,2.8-2.6,5-4,6.7s-2.7,2.9-4.1,3.6s-2.7,1.1-3.9,1.1
			c-0.9,0-1.8-0.2-2.7-0.5c-0.9-0.3-1.6-0.8-2.3-1.6c-0.7-0.7-1.2-1.7-1.6-2.9c-0.4-1.2-0.6-2.7-0.6-4.4c0-1.1,0.1-2.5,0.2-4
			s0.3-3.1,0.4-4.8c0.2-1.7,0.3-3.5,0.4-5.3s0.2-3.6,0.2-5.4c0-0.7,0-1.3-0.1-1.9c0-0.5-0.2-1-0.3-1.3c-0.2-0.3-0.4-0.6-0.7-0.8
			c-0.3-0.2-0.8-0.2-1.3-0.2c-0.6,0-1.3,0.1-2.2,0.2c-0.9,0.2-1.8,0.4-2.8,0.7l-0.4-1.8c1.3-0.5,2.6-0.9,3.7-1.2
			c1.1-0.3,2.2-0.6,3.1-0.9c0.9-0.2,1.7-0.4,2.3-0.5c0.6-0.1,1.1-0.2,1.4-0.2c0.6,0,1.1,0.1,1.4,0.3c0.4,0.2,0.7,0.5,0.9,0.9
			c0.2,0.4,0.4,0.9,0.5,1.5C1033.7,91.8,1033.8,92.5,1033.8,93.2z"/>
		<path d="M1077.9,71c-0.7,3.1-1.3,6.3-1.7,9.6c-0.5,3.3-0.9,6.5-1.2,9.8c0.8,0,1.5,0.1,2.2,0.1s1.4,0,2,0s1.2,0,1.7,0s0.9,0,1.3,0
			c1.5,0,2.7-0.1,3.6-0.3c0.1,0.3,0.1,0.5,0.2,0.8c0,0.2,0.1,0.4,0.1,0.6c0,0.7-0.3,1.2-0.9,1.4c-0.6,0.2-1.5,0.3-2.6,0.3
			s-2.3-0.1-3.6-0.2c-1.3-0.1-2.8-0.3-4.4-0.4c-0.2,1.7-0.3,3.4-0.5,5.1c-0.1,1.7-0.2,3.2-0.3,4.7c-0.1,1.5-0.1,2.8-0.2,4.1
			c0,1.3,0,2.3,0,3.3c0,1.7,0.1,3.3,0.3,4.7c0.2,1.4,0.5,2.5,1,3.5s1.1,1.7,1.9,2.2s1.8,0.8,3,0.8c0.9,0,1.9-0.2,2.9-0.5
			c1.1-0.3,2.3-0.8,3.7-1.5c0.4,0.4,0.7,1,0.8,1.6c-1,0.7-2,1.3-3.1,1.8s-2,1-3,1.4s-2,0.7-2.9,0.9s-1.8,0.3-2.6,0.3
			c-1.1,0-2.1-0.2-3-0.6s-1.7-1.1-2.3-2.1c-0.7-1-1.2-2.4-1.5-4.1c-0.4-1.7-0.5-3.9-0.5-6.5c0-1.5,0-3,0.1-4.6s0.1-3.2,0.2-4.8
			c0.1-1.6,0.2-3.2,0.3-4.8c0.1-1.6,0.3-3.2,0.4-4.8c-1.3,0-2.5,0.1-3.6,0.2s-2,0.2-2.8,0.4c0-0.1-0.1-0.2-0.1-0.3
			c0-0.3,0.2-0.7,0.5-1s0.8-0.6,1.4-0.8c0.6-0.2,1.3-0.4,2.1-0.6c0.8-0.2,1.7-0.3,2.7-0.3c0.4-3.4,0.8-6.6,1.2-9.6
			c0.4-3,0.8-5.7,1.3-8.1c0.1-0.4,0.2-0.8,0.5-1c0.2-0.3,0.5-0.5,0.8-0.7s0.6-0.3,1-0.3c0.3-0.1,0.7-0.1,1-0.1c0.5,0,1,0.1,1.5,0.2
			C1077.1,70.6,1077.5,70.8,1077.9,71z"/>
		<path d="M1093.1,115c0.1,1.2,0.4,2.3,1,3.2c0.5,0.9,1.2,1.6,2,2.2s1.7,1,2.6,1.3c1,0.3,1.9,0.4,2.9,0.4c0.9,0,1.8-0.1,2.6-0.4
			s1.6-0.6,2.2-1c0.6-0.5,1.1-1,1.5-1.7s0.6-1.4,0.6-2.2c0-0.9-0.2-1.6-0.6-2.3c-0.4-0.7-1-1.2-1.6-1.8s-1.5-1-2.4-1.5
			s-1.8-0.9-2.8-1.4c-0.9-0.4-1.7-0.8-2.6-1.2c-0.9-0.4-1.7-0.9-2.5-1.4s-1.6-1-2.3-1.6c-0.7-0.6-1.3-1.2-1.9-1.9
			c-0.5-0.7-0.9-1.5-1.2-2.3c-0.3-0.9-0.5-1.8-0.5-2.8c0-1.1,0.2-2.2,0.6-3.1s0.9-1.8,1.6-2.6c0.7-0.8,1.5-1.4,2.3-2
			c0.9-0.6,1.8-1,2.8-1.4s2-0.7,3.1-0.9c1.1-0.2,2.1-0.3,3.1-0.3c1.3,0,2.5,0.1,3.7,0.4s2.2,0.7,3.1,1.2s1.6,1.2,2.1,2
			s0.8,1.7,0.8,2.6c0,0.4-0.1,0.8-0.2,1.2c-0.1,0.4-0.4,0.9-0.7,1.2c-0.3,0.4-0.7,0.7-1.2,1s-1.1,0.4-1.9,0.4
			c-0.7,0-1.4-0.1-2.1-0.3l-0.1-0.2c0.2-0.5,0.4-1,0.5-1.4s0.1-0.8,0.1-1.2c0-0.7-0.2-1.4-0.6-1.9s-0.8-0.9-1.4-1.3
			c-0.6-0.3-1.2-0.6-1.8-0.7c-0.7-0.1-1.3-0.2-2-0.2c-1.2,0-2.2,0.2-3.1,0.5s-1.7,0.7-2.3,1.2c-0.6,0.5-1.1,1.1-1.4,1.7
			c-0.3,0.7-0.5,1.3-0.5,2c0,0.9,0.2,1.7,0.7,2.4c0.5,0.7,1.1,1.4,1.9,2s1.7,1.2,2.7,1.7s2.1,1,3.2,1.6c1.2,0.6,2.5,1.2,3.7,1.8
			s2.3,1.3,3.3,2.1c1,0.8,1.7,1.7,2.3,2.7c0.6,1,0.9,2.3,0.9,3.6c0,1.7-0.4,3.2-1.1,4.5s-1.7,2.4-3,3.3c-1.2,0.9-2.7,1.6-4.3,2
			c-1.6,0.5-3.3,0.7-5,0.7c-0.9,0-1.8-0.1-2.7-0.2c-0.9-0.1-1.8-0.3-2.7-0.6c-0.9-0.3-1.7-0.6-2.5-1s-1.4-0.8-2-1.3s-1-1-1.4-1.7
			c-0.3-0.6-0.5-1.3-0.5-2c0-0.6,0.1-1.2,0.4-1.6s0.6-0.8,1.1-1.1c0.4-0.3,0.9-0.5,1.5-0.6c0.5-0.1,1.1-0.2,1.7-0.2L1093.1,115z"/>
		<path d="M1138.8,98.7c0.5-0.9,0.7-1.8,0.7-2.7c0-0.6-0.1-1.2-0.3-1.8c-0.2-0.6-0.5-1.1-1-1.5s-1-0.8-1.6-1
			c-0.7-0.3-1.4-0.4-2.3-0.4c-1.3,0-2.4,0.2-3.4,0.7c-1,0.4-1.9,1.1-2.7,1.8c-0.8,0.8-1.4,1.7-2,2.7c-0.5,1-1,2.1-1.3,3.3
			c-0.3,1.2-0.6,2.4-0.8,3.6c-0.2,1.2-0.2,2.4-0.2,3.6c0,2.1,0.3,4,0.8,5.7s1.3,3.2,2.2,4.4s2,2.2,3.2,2.8c1.2,0.7,2.6,1,4,1
			c1.5,0,3-0.4,4.5-1.2c1.5-0.8,3-2,4.4-3.7c0.1,0,0.2,0.1,0.4,0.2c0.2,0.1,0.3,0.2,0.4,0.3c0.1,0.1,0.2,0.2,0.3,0.3
			c0.1,0.1,0.1,0.2,0.1,0.3c0,0.1,0,0.1,0,0.1v0.1c-1.6,2.6-3.5,4.5-5.7,5.7c-2.2,1.3-4.6,1.9-7.3,1.9c-1.4,0-2.8-0.2-4-0.6
			s-2.3-1-3.3-1.7s-1.8-1.5-2.6-2.5c-0.7-1-1.4-2-1.9-3.1s-0.9-2.3-1.1-3.6c-0.3-1.2-0.4-2.5-0.4-3.8c0-1.7,0.2-3.4,0.6-5.1
			s0.9-3.4,1.6-5s1.6-3.1,2.6-4.4c1-1.4,2.2-2.6,3.5-3.6s2.8-1.8,4.3-2.4c1.6-0.6,3.3-0.9,5.1-0.9c1.3,0,2.6,0.2,3.7,0.5
			c1.2,0.3,2.2,0.8,3,1.4s1.5,1.3,2,2.1c0.5,0.8,0.7,1.8,0.7,2.8c0,0.7-0.1,1.3-0.3,1.8c-0.2,0.5-0.5,1-0.9,1.3
			c-0.4,0.4-0.8,0.6-1.3,0.8c-0.5,0.2-1,0.3-1.6,0.3c-0.4,0-0.7,0-1.1-0.1s-0.8-0.2-1.1-0.4L1138.8,98.7z"/>
		<path d="M1156.5,110.8c1.3-4.1,2.6-7.6,4-10.5s2.8-5.2,4.3-7s2.9-3.1,4.4-3.9c1.4-0.8,2.8-1.2,4.2-1.2c0.9,0,1.8,0.2,2.6,0.5
			c0.8,0.3,1.6,0.9,2.3,1.6c0.7,0.7,1.2,1.7,1.6,2.8c0.4,1.2,0.6,2.5,0.6,4.2c0,0.5,0,1.2-0.1,2s-0.1,1.8-0.2,2.8s-0.2,2.1-0.3,3.3
			c-0.1,1.1-0.2,2.3-0.3,3.4c-0.1,1.1-0.2,2.2-0.2,3.1c-0.1,1-0.1,1.8-0.1,2.6c0,1.3,0.1,2.3,0.2,3.1c0.1,0.8,0.3,1.4,0.5,1.9
			s0.6,0.8,1,1s0.9,0.3,1.5,0.3c0.8,0,1.7-0.1,2.6-0.4c0.9-0.2,1.8-0.6,2.8-1l0.5,1.3c-0.6,0.5-1.3,1-2.2,1.4
			c-0.9,0.5-1.8,0.9-2.8,1.3s-2,0.7-2.9,1c-1,0.3-1.8,0.4-2.6,0.4c-0.9,0-1.6-0.2-2.1-0.7s-0.9-1.1-1.1-1.9
			c-0.3-0.8-0.4-1.8-0.5-2.9s-0.1-2.3-0.1-3.5c0-1.5,0.1-3.1,0.2-4.7s0.2-3.2,0.3-4.6c0.1-1.5,0.2-2.8,0.3-4.1
			c0.1-1.2,0.2-2.2,0.2-3c0-1.8-0.4-3.2-1-4.1c-0.7-0.9-1.6-1.4-2.8-1.4c-0.9,0-1.9,0.4-3,1.2c-1.1,0.8-2.1,1.9-3.1,3.3s-2,3-3,4.9
			s-1.8,3.9-2.6,6.2c-0.8,2.2-1.4,4.5-1.9,6.9s-0.8,4.8-1,7.2l-5.2,0.6h-0.4c0.1-1.9,0.2-4,0.3-6.4c0.1-2.3,0.3-4.8,0.4-7.4
			s0.3-5.3,0.4-8.1c0.2-2.8,0.3-5.7,0.5-8.6s0.3-5.9,0.5-8.9s0.3-5.9,0.5-8.8s0.3-5.8,0.5-8.5s0.3-5.4,0.4-8c0-0.4,0.1-0.7,0.3-1
			c0.2-0.3,0.5-0.5,0.8-0.7s0.7-0.3,1.1-0.4c0.4-0.1,0.9-0.1,1.3-0.1c1,0,2,0.3,3.1,0.8c-0.4,3.3-0.7,6.4-1,9.1
			c-0.3,2.8-0.6,5.3-0.8,7.7c-0.2,2.4-0.4,4.6-0.6,6.6c-0.2,2.1-0.4,4-0.5,5.9c-0.2,1.9-0.3,3.7-0.4,5.5s-0.3,3.6-0.4,5.5
			c-0.1,1.8-0.3,3.8-0.4,5.8s-0.3,4.1-0.5,6.4L1156.5,110.8z"/>
		<path d="M1202.5,58.3c-0.3,2.8-0.6,5.6-1,8.5c-0.3,2.9-0.6,5.8-0.9,8.8s-0.5,6-0.8,8.9c-0.2,3-0.5,5.9-0.6,8.9
			c-0.2,2.9-0.3,5.8-0.4,8.6c-0.1,2.8-0.1,5.5-0.1,8.1c0,1.6,0,3,0.1,4.2c0,1.2,0.1,2.1,0.2,2.9s0.2,1.4,0.4,1.9
			c0.2,0.5,0.3,0.9,0.6,1.1c0.2,0.3,0.5,0.4,0.8,0.5s0.7,0.1,1.1,0.1c0.8,0,1.6-0.1,2.5-0.4c0.9-0.2,1.8-0.6,2.7-1l0.5,1.3
			c-0.6,0.5-1.3,1-2.2,1.4c-0.9,0.5-1.8,0.9-2.8,1.3s-1.9,0.7-2.9,1c-0.9,0.3-1.7,0.4-2.4,0.4c-0.9,0-1.6-0.2-2.1-0.7
			c-0.5-0.4-0.9-1.2-1.2-2.2c-0.3-1-0.4-2.3-0.5-3.9s-0.1-3.6-0.1-5.9c0-0.8,0-2.1,0.1-3.6s0.1-3.4,0.2-5.5s0.2-4.4,0.3-6.8
			c0.1-2.5,0.2-5,0.4-7.7c0.1-2.6,0.3-5.3,0.4-8s0.3-5.3,0.4-7.8s0.3-4.9,0.4-7.1c0.1-2.2,0.3-4.2,0.4-5.9c0-0.4,0.1-0.7,0.3-1
			c0.2-0.3,0.5-0.5,0.8-0.7s0.7-0.3,1.1-0.4c0.4-0.1,0.8-0.1,1.3-0.1C1200.4,57.5,1201.4,57.7,1202.5,58.3z"/>
		<path d="M1230.3,98.7c0-1.3-0.2-2.4-0.6-3.3s-1-1.7-1.7-2.3c-0.7-0.6-1.5-1-2.3-1.3c-0.9-0.3-1.7-0.4-2.6-0.4
			c-1.2,0-2.1,0.1-2.9,0.4c-0.8,0.2-1.4,0.6-1.9,1s-0.9,0.9-1.1,1.5s-0.3,1.2-0.3,1.9c0,0.8,0.1,1.6,0.4,2.4s0.7,1.6,1.3,2.3
			l-0.1,0.3c-0.9,0.5-1.9,0.7-2.8,0.7c-0.6,0-1.1-0.1-1.5-0.3c-0.5-0.2-0.9-0.4-1.2-0.7c-0.3-0.3-0.6-0.7-0.8-1.2
			c-0.2-0.5-0.3-1-0.3-1.6c0-1,0.2-1.9,0.7-2.7c0.5-0.8,1.1-1.6,1.8-2.3c0.8-0.7,1.7-1.3,2.7-1.9s2.1-1,3.1-1.4s2.2-0.7,3.2-0.9
			c1.1-0.2,2.1-0.3,3-0.3c1.7,0,3.2,0.2,4.4,0.7c1.2,0.5,2.2,1.1,3,2s1.3,1.9,1.7,3.2c0.3,1.2,0.5,2.6,0.5,4.2c0,1.1,0,2.3-0.1,3.5
			c-0.1,1.3-0.2,2.6-0.3,4c-0.1,1.4-0.2,2.9-0.3,4.4c-0.1,1.5-0.1,3-0.1,4.5c0,2.3,0.4,4.1,1.3,5.3c0.9,1.2,2,1.8,3.4,1.8
			c1.3,0,2.7-0.5,4.2-1.4l0.7,1c-1.1,1.1-2.3,1.9-3.6,2.5c-1.3,0.6-2.6,0.9-4.1,0.9c-1.1,0-2-0.2-2.9-0.5c-0.9-0.4-1.7-0.9-2.3-1.6
			c-0.7-0.7-1.2-1.6-1.5-2.7c-0.4-1.1-0.5-2.3-0.5-3.7c0-0.4,0-0.8,0-1.3c0-0.4,0.1-0.9,0.2-1.3h-0.1c-0.7,1.4-1.5,2.8-2.4,4.1
			c-0.9,1.4-1.9,2.6-3,3.6c-1.1,1.1-2.3,1.9-3.5,2.6s-2.6,1-3.9,1c-1.1,0-2.1-0.2-3.1-0.6s-1.7-0.9-2.4-1.6
			c-0.7-0.7-1.2-1.5-1.5-2.4c-0.4-0.9-0.5-2-0.5-3.1c0-1.4,0.3-2.7,0.8-3.9c0.5-1.2,1.3-2.2,2.2-3.1c0.9-0.9,2.1-1.7,3.4-2.4
			c1.3-0.7,2.7-1.2,4.2-1.7c1.5-0.4,3.1-0.8,4.9-1s3.5-0.3,5.2-0.3c0.1-1,0.2-2,0.3-3C1230.3,100.9,1230.3,99.8,1230.3,98.7z
			 M1215.3,115.5c0,0.6,0.1,1.2,0.2,1.8c0.1,0.6,0.4,1.1,0.7,1.5c0.3,0.4,0.7,0.8,1.1,1c0.5,0.3,1,0.4,1.7,0.4s1.5-0.2,2.3-0.5
			s1.5-0.8,2.3-1.4s1.5-1.3,2.2-2.2c0.7-0.8,1.3-1.8,1.9-2.7c0.6-1,1-2,1.4-3.1s0.6-2.2,0.7-3.4c-1.2,0-2.4,0.1-3.6,0.2
			s-2.3,0.3-3.4,0.6c-1.1,0.3-2.1,0.6-3,1s-1.7,0.9-2.4,1.6c-0.7,0.6-1.2,1.4-1.6,2.2C1215.5,113.4,1215.3,114.3,1215.3,115.5z"/>
		<path d="M1250.2,95.7c0-0.7,0-1.2-0.1-1.7s-0.2-0.8-0.5-1.1c-0.2-0.3-0.5-0.5-0.8-0.6s-0.7-0.2-1.1-0.2c-0.6,0-1.3,0.1-2.1,0.2
			c-0.8,0.2-1.7,0.4-2.8,0.7l-0.4-1.8c1.2-0.4,2.3-0.8,3.3-1.1c1.1-0.3,2-0.6,2.9-0.9c0.9-0.2,1.7-0.4,2.4-0.6
			c0.7-0.1,1.2-0.2,1.6-0.2c0.9,0,1.7,0.3,2.2,0.8c0.5,0.6,0.8,1.5,0.8,2.9c0,0.2,0,0.5,0,1.1s-0.1,1.3-0.1,2.3
			c-0.1,0.9-0.1,2-0.2,3.1c-0.1,1.2-0.2,2.4-0.3,3.8c-0.1,1.3-0.2,2.7-0.4,4.1c-0.1,1.4-0.3,2.8-0.4,4.3h0.1c1.2-4.2,2.6-7.7,4-10.6
			s2.9-5.2,4.3-7s2.9-3.1,4.4-3.9c1.4-0.8,2.8-1.2,4.2-1.2c0.9,0,1.8,0.2,2.6,0.5c0.8,0.3,1.6,0.9,2.3,1.6c0.7,0.7,1.2,1.7,1.6,2.9
			s0.6,2.6,0.6,4.3c0,0.5,0,1.1-0.1,2c-0.1,0.8-0.1,1.7-0.2,2.7s-0.2,2.1-0.3,3.2c-0.1,1.1-0.2,2.2-0.3,3.3
			c-0.1,1.1-0.2,2.1-0.2,3.1c-0.1,1-0.1,1.8-0.1,2.6c0,1.3,0.1,2.3,0.2,3.1c0.1,0.8,0.3,1.4,0.5,1.9s0.6,0.8,1,1s0.9,0.3,1.5,0.3
			c0.8,0,1.7-0.1,2.6-0.4c0.9-0.2,1.8-0.6,2.8-1l0.5,1.3c-0.6,0.5-1.3,1-2.2,1.4c-0.9,0.5-1.8,0.9-2.8,1.3s-2,0.7-2.9,1
			c-1,0.3-1.8,0.4-2.6,0.4c-0.9,0-1.6-0.2-2.1-0.7s-0.9-1.1-1.1-1.9c-0.3-0.8-0.4-1.8-0.5-2.9s-0.1-2.3-0.1-3.5
			c0-1.5,0.1-3.1,0.2-4.7s0.2-3.2,0.4-4.6c0.1-1.5,0.2-2.8,0.4-4c0.1-1.2,0.2-2.2,0.2-2.9c0-1.9-0.4-3.3-1.1-4.2
			c-0.7-0.9-1.7-1.4-2.9-1.4c-0.9,0-1.9,0.4-3,1.2c-1,0.8-2.1,1.9-3.1,3.3s-2,3-3,4.9s-1.8,3.9-2.6,6.2c-0.8,2.2-1.4,4.5-1.9,6.9
			s-0.8,4.8-1,7.2l-5.1,0.6h-0.4c0.1-1.5,0.3-3.2,0.4-5.1c0.1-1.8,0.2-3.7,0.3-5.6s0.2-3.7,0.3-5.6c0.1-1.8,0.1-3.6,0.2-5.2
			s0.1-3,0.1-4.3C1250.2,97.4,1250.2,96.4,1250.2,95.7z"/>
		<path d="M1324,58.3c-0.6,4.1-1.1,8.4-1.7,12.7c-0.5,4.3-1,8.6-1.4,12.9s-0.7,8.5-1,12.7c-0.2,4.2-0.4,8.2-0.4,12
			c0,1.8,0,3.4,0.1,4.7c0,1.3,0.1,2.4,0.2,3.3s0.2,1.6,0.4,2.2c0.2,0.5,0.3,1,0.6,1.2c0.2,0.3,0.5,0.5,0.8,0.6s0.7,0.1,1.1,0.1
			c0.8,0,1.6-0.1,2.5-0.4c0.9-0.2,1.8-0.6,2.7-1l0.5,1.3c-0.6,0.5-1.3,1-2.2,1.4c-0.9,0.5-1.8,0.9-2.8,1.3s-1.9,0.7-2.9,1
			c-0.9,0.3-1.7,0.4-2.4,0.4c-0.5,0-0.9-0.1-1.3-0.2s-0.7-0.3-1-0.6c-0.3-0.3-0.5-0.7-0.7-1.1c-0.2-0.5-0.3-1.1-0.5-1.8
			c-0.1-1-0.3-2.1-0.4-3.4s-0.1-2.7-0.1-4.2c0-1.6,0.1-3.3,0.2-5s0.3-3.4,0.6-5h-0.2c-1.3,3.3-2.6,6.3-4.1,9s-3,4.9-4.6,6.8
			s-3.1,3.3-4.7,4.4c-1.6,1-3.1,1.5-4.5,1.5c-1.5,0-2.7-0.4-3.8-1.1c-1.1-0.7-1.9-1.7-2.6-2.9c-0.7-1.2-1.2-2.6-1.5-4.2
			s-0.5-3.2-0.5-4.8c0-2,0.2-4,0.7-5.9s1.1-3.8,1.9-5.5s1.8-3.4,3-4.8c1.2-1.5,2.4-2.8,3.9-3.8c1.4-1.1,3-1.9,4.7-2.5
			s3.4-0.9,5.3-0.9c1.3,0,2.6,0.2,3.8,0.5c1.3,0.3,2.6,0.9,3.8,1.6c0.1-2.8,0.2-5.6,0.3-8.4c0.1-2.9,0.3-5.6,0.4-8.3
			c0.2-2.7,0.3-5.3,0.5-7.7c0.2-2.4,0.4-4.6,0.6-6.4c0-0.4,0.2-0.7,0.4-1c0.2-0.3,0.5-0.5,0.8-0.7s0.7-0.3,1.1-0.4
			c0.4-0.1,0.8-0.1,1.2-0.1C1321.9,57.5,1322.9,57.7,1324,58.3z M1315.2,92.7c-2.2-1-4.4-1.6-6.5-1.6c-1.6,0-3,0.3-4.4,0.8
			c-1.3,0.5-2.5,1.2-3.6,2.1s-2,1.9-2.8,3.1s-1.5,2.5-2,3.9s-0.9,2.8-1.2,4.3c-0.3,1.5-0.4,3-0.4,4.4c0,0.5,0,1.1,0.1,1.8
			s0.1,1.4,0.3,2.1c0.1,0.7,0.3,1.4,0.5,2.1s0.5,1.3,0.9,1.9c0.3,0.6,0.8,1,1.2,1.3c0.5,0.3,1,0.5,1.7,0.5c1.2,0,2.4-0.4,3.6-1.3
			s2.4-2,3.6-3.5c1.2-1.4,2.3-3.1,3.3-5s2-3.8,2.8-5.8s1.5-3.9,2-5.9C1314.8,96,1315.1,94.2,1315.2,92.7z"/>
	</g>
	<g>
		<path d="M997.4,49.7l-7.7-30.3h4.1l3.6,15.3c0.9,3.8,1.7,7.6,2.3,10.5h0.1c0.5-3,1.4-6.6,2.5-10.5l4-15.3h4.1l3.7,15.4
			c0.9,3.6,1.7,7.2,2.1,10.4h0.1c0.6-3.3,1.5-6.7,2.4-10.5l4-15.3h4l-8.6,30.3h-4.1l-3.8-15.8c-0.9-3.9-1.6-6.8-2-9.9h-0.1
			c-0.5,3-1.2,6-2.3,9.9l-4.3,15.8C1001.5,49.7,997.4,49.7,997.4,49.7z"/>
		<path d="M1034,21.8c0,1.4-0.9,2.4-2.5,2.4c-1.4,0-2.4-1.1-2.4-2.4c0-1.4,1-2.5,2.5-2.5C1033.1,19.4,1034,20.5,1034,21.8z
			 M1029.6,49.7V28h4v21.8L1029.6,49.7L1029.6,49.7z"/>
		<path d="M1040.2,17.8h4v31.9h-4V17.8z"/>
		<path d="M1050.8,17.8h4v31.9h-4V17.8z"/>
		<path d="M1065.3,38L1065.3,38c0.6-0.8,1.4-1.7,2-2.5l6.4-7.5h4.8l-8.4,9l9.6,12.8h-4.8l-7.5-10.4l-2,2.3v8.2h-3.9V17.8h3.9
			L1065.3,38L1065.3,38z"/>
		<path d="M1102.2,38.7c0,8.1-5.6,11.6-10.8,11.6c-5.9,0-10.4-4.3-10.4-11.2c0-7.3,4.8-11.6,10.8-11.6
			C1098,27.5,1102.2,32,1102.2,38.7z M1084.9,38.9c0,4.8,2.7,8.4,6.6,8.4c3.8,0,6.6-3.6,6.6-8.5c0-3.7-1.8-8.4-6.5-8.4
			C1087,30.4,1084.9,34.8,1084.9,38.9z"/>
		<path d="M1107.2,33.9c0-2.3,0-4.1-0.2-5.9h3.5l0.2,3.5h0.1c1.2-2.1,3.2-4,6.8-4c3,0,5.2,1.8,6.2,4.4h0.1c0.7-1.2,1.5-2.2,2.4-2.8
			c1.3-1,2.7-1.5,4.8-1.5c2.9,0,7.2,1.9,7.2,9.4v12.8h-3.9V37.4c0-4.2-1.5-6.7-4.7-6.7c-2.3,0-4,1.7-4.7,3.6c-0.2,0.5-0.3,1.3-0.3,2
			v13.5h-3.9v-13c0-3.5-1.5-6-4.5-6c-2.5,0-4.3,2-4.9,4c-0.2,0.6-0.3,1.3-0.3,1.9v13.1h-3.9L1107.2,33.9L1107.2,33.9z"/>
		<path d="M1144.7,33.9c0-2.3,0-4.1-0.2-5.9h3.5l0.2,3.5h0.1c1.2-2.1,3.2-4,6.8-4c3,0,5.2,1.8,6.2,4.4h0.1c0.7-1.2,1.5-2.2,2.4-2.8
			c1.3-1,2.7-1.5,4.8-1.5c2.9,0,7.2,1.9,7.2,9.4v12.8h-3.9V37.4c0-4.2-1.5-6.7-4.7-6.7c-2.3,0-4,1.7-4.7,3.6c-0.2,0.5-0.3,1.3-0.3,2
			v13.5h-3.9v-13c0-3.5-1.5-6-4.5-6c-2.5,0-4.3,2-4.9,4c-0.2,0.6-0.3,1.3-0.3,1.9v13.1h-3.9L1144.7,33.9L1144.7,33.9z"/>
		<path d="M1184.5,39.6c0.1,5.4,3.5,7.6,7.5,7.6c2.8,0,4.5-0.5,6-1.1l0.7,2.8c-1.4,0.6-3.8,1.4-7.2,1.4c-6.7,0-10.7-4.4-10.7-11
			s3.9-11.7,10.2-11.7c7.1,0,9,6.3,9,10.3c0,0.8-0.1,1.4-0.1,1.8L1184.5,39.6L1184.5,39.6z M1196.1,36.7c0-2.5-1-6.4-5.5-6.4
			c-4,0-5.8,3.7-6.1,6.4H1196.1z"/>
		<path d="M1204.8,33.9c0-2.3,0-4.1-0.2-5.9h3.5l0.2,3.6h0.1c1.1-2.1,3.6-4.1,7.2-4.1c3,0,7.7,1.8,7.7,9.3v13h-4V37.2
			c0-3.5-1.3-6.4-5-6.4c-2.6,0-4.6,1.8-5.3,4c-0.2,0.5-0.3,1.2-0.3,1.8v13.1h-4V33.9H1204.8z"/>
		<path d="M1243.7,21.8c0,1.4-0.9,2.4-2.5,2.4c-1.4,0-2.4-1.1-2.4-2.4c0-1.4,1-2.5,2.5-2.5C1242.8,19.4,1243.7,20.5,1243.7,21.8z
			 M1239.3,49.7V28h4v21.8L1239.3,49.7L1239.3,49.7z"/>
		<path d="M1249.9,33.9c0-2.3,0-4.1-0.2-5.9h3.5l0.2,3.6h0.1c1.1-2.1,3.6-4.1,7.2-4.1c3,0,7.7,1.8,7.7,9.3v13h-4V37.2
			c0-3.5-1.3-6.4-5-6.4c-2.6,0-4.6,1.8-5.3,4c-0.2,0.5-0.3,1.2-0.3,1.8v13.1h-4V33.9H1249.9z"/>
	</g>
	<g>
		<g class="st18">
			
				<linearGradient id="SVGID_5_" gradientUnits="userSpaceOnUse" x1="62" y1="-468.75" x2="904" y2="-468.75" gradientTransform="matrix(-1 0 0 -1 1428 -440)">
				<stop  offset="0" style="stop-color:#000000"/>
				<stop  offset="0.2023" style="stop-color:#030303;stop-opacity:0.7977"/>
				<stop  offset="0.3369" style="stop-color:#0C0C0C;stop-opacity:0.6631"/>
				<stop  offset="0.4518" style="stop-color:#1B1B1B;stop-opacity:0.5482"/>
				<stop  offset="0.5556" style="stop-color:#303030;stop-opacity:0.4444"/>
				<stop  offset="0.652" style="stop-color:#4C4C4C;stop-opacity:0.348"/>
				<stop  offset="0.7428" style="stop-color:#6E6E6E;stop-opacity:0.2572"/>
				<stop  offset="0.8295" style="stop-color:#969696;stop-opacity:0.1705"/>
				<stop  offset="0.9126" style="stop-color:#C5C5C5;stop-opacity:8.738375e-02"/>
				<stop  offset="0.9904" style="stop-color:#F8F8F8;stop-opacity:9.625316e-03"/>
				<stop  offset="1" style="stop-color:#FFFFFF;stop-opacity:0"/>
			</linearGradient>
			<rect x="524" y="8.8" class="st26" width="842" height="40"/>
		</g>
		<g class="st18">
			
				<linearGradient id="SVGID_6_" gradientUnits="userSpaceOnUse" x1="62" y1="-509.75" x2="904" y2="-509.75" gradientTransform="matrix(-1 0 0 -1 1428 -440)">
				<stop  offset="0" style="stop-color:#FF0000"/>
				<stop  offset="0.2023" style="stop-color:#FF0303;stop-opacity:0.7977"/>
				<stop  offset="0.3369" style="stop-color:#FF0C0C;stop-opacity:0.6631"/>
				<stop  offset="0.4518" style="stop-color:#FF1B1B;stop-opacity:0.5482"/>
				<stop  offset="0.5556" style="stop-color:#FF3030;stop-opacity:0.4444"/>
				<stop  offset="0.652" style="stop-color:#FF4C4C;stop-opacity:0.348"/>
				<stop  offset="0.7428" style="stop-color:#FF6E6E;stop-opacity:0.2572"/>
				<stop  offset="0.8295" style="stop-color:#FF9696;stop-opacity:0.1705"/>
				<stop  offset="0.9126" style="stop-color:#FFC5C5;stop-opacity:8.738375e-02"/>
				<stop  offset="0.9904" style="stop-color:#FFF8F8;stop-opacity:9.625316e-03"/>
				<stop  offset="1" style="stop-color:#FFFFFF;stop-opacity:0"/>
			</linearGradient>
			<rect x="524" y="48.8" class="st27" width="842" height="42"/>
		</g>
		<g class="st18">
			
				<linearGradient id="SVGID_7_" gradientUnits="userSpaceOnUse" x1="62" y1="-550.75" x2="904" y2="-550.75" gradientTransform="matrix(-1 0 0 -1 1428 -440)">
				<stop  offset="0" style="stop-color:#FFFF00"/>
				<stop  offset="0.2023" style="stop-color:#FFFF03;stop-opacity:0.7977"/>
				<stop  offset="0.3369" style="stop-color:#FFFF0C;stop-opacity:0.6631"/>
				<stop  offset="0.4518" style="stop-color:#FFFF1B;stop-opacity:0.5482"/>
				<stop  offset="0.5556" style="stop-color:#FFFF30;stop-opacity:0.4444"/>
				<stop  offset="0.652" style="stop-color:#FFFF4C;stop-opacity:0.348"/>
				<stop  offset="0.7428" style="stop-color:#FFFF6E;stop-opacity:0.2572"/>
				<stop  offset="0.8295" style="stop-color:#FFFF96;stop-opacity:0.1705"/>
				<stop  offset="0.9126" style="stop-color:#FFFFC5;stop-opacity:8.738375e-02"/>
				<stop  offset="0.9904" style="stop-color:#FFFFF8;stop-opacity:9.625316e-03"/>
				<stop  offset="1" style="stop-color:#FFFFFF;stop-opacity:0"/>
			</linearGradient>
			<rect x="524" y="90.8" class="st28" width="842" height="40"/>
		</g>
	</g>
</g>
</svg>
