<svg xmlns="http://www.w3.org/2000/svg" viewBox="0 0 198 198"><path d="M8.7,0C3.9,0,0,3.9,0,8.7v180.6c0,4.8,3.9,8.7,8.7,8.7h180.6c4.8,0,8.7-3.9,8.7-8.7V8.7 c0-4.8-3.9-8.7-8.7-8.7H8.7z" fill="#154889"/><path d="M137.6 125.5a6.38 6.38 0 0 0 6.4 6.4c3.5 0 6.4-2.9 6.4-6.4v-53c0-3.5-2.9-6.4-6.4-6.4a6.38 6.38 0 0 0-6.4 6.4v53zm-12.9 0v-53a19.25 19.25 0 1 1 38.6 0v53c0 10.6-8.6 19.3-19.3 19.3a19.25 19.25 0 0 1-19.3-19.3zm-51.4-7.2h12.9v7.2a6.38 6.38 0 1 0 12.8 0v-16.1a6.38 6.38 0 0 0-6.4-6.4h-4V91.8h4a6.38 6.38 0 0 0 6.4-6.4V72.5c0-3.5-2.9-6.4-6.4-6.4s-6.4 2.9-6.4 6.4v7.2H73.3v-7.2a19.25 19.25 0 0 1 19.3-19.3 19.25 19.25 0 0 1 19.3 19.3v12.1c0 5.4-3 10.4-7.8 12.9 4.8 2.5 7.8 7.4 7.8 12.9v15.3c0 10.6-8.6 19.3-19.3 19.3-10.6 0-19.3-8.6-19.3-19.3v-7.4zm-38.6-41V63.7L47.6 54h12.9v90H47.6V67.7" fill="#fff"/></svg>