<svg xmlns="http://www.w3.org/2000/svg" xmlns:xlink="http://www.w3.org/1999/xlink" viewBox="0 0 200 132.8"><style><![CDATA[.Ao{fill:#304048}.Ap{fill-rule:evenodd}.Aq{fill:#3c4f58}.Ar{fill:#e8e5d9}.As{fill:#fbfaf9}.At{fill:#ed1c24}.Au{fill:#0b7c26}.Av{fill:#6cb75a}.Aw{fill:#a6a8ab}.Ax{fill:#929497}.Ay{stroke-miterlimit:10}.Az{fill:#ef7b6f}.BA{fill:#3d5059}.BB{fill:#b7ce15}.BC{fill:#0071bc}.BD{stroke-dasharray:12.5333,12.5333}]]></style><path d="M0 0h200v132.8H0z" fill="#009245"/><path d="M0 69.7h200V128H0zM0 4.3h200v60.4H0z" fill="gray"/><path d="M0 66.8h200v.8H0z" fill="#ccc"/><g fill="none" stroke="#fff" class="Ay"><g stroke-width="1.5"><path d="M200 18.9H0m200 22.2h-6"/><path d="M181.5 41.1H12.3" class="BD"/><path d="M6 41.1H0m200 51.6h-6"/><path d="M181.5 92.7H12.3" class="BD"/><path d="M6 92.7H0m200-29.8H0"/></g><path d="M200 71.3H0"/><path d="M200 114.3H0" stroke-width="1.5"/></g><g class="At"><path d="M111.4 18.2c.1.1.2.2.2.3a10.68 10.68 0 0 1-.3-2.5v-.8c0-1 .1-2 .4-3.1-.1.1-.2.2-.2.3-.3 1.1-.5 2-.6 2.9v.2c0 .7.2 1.6.5 2.7z"/><path d="M111.6 18.4c-.1-.1-.2-.2-.2-.3-.2-.3-.3-.5-.4-.8-.2-.7-.3-1.4-.2-2v-.2h-.3v.2c0 .8.1 1.5.2 2.2.3.4.5.8.9 1.2l.3.3c.1.1.3.2.3.4.3.3.6.5.9.7 1.8 1.2 4.1 1.8 7 1.8h.3c-.2-.1-.4-.2-.6-.4h-.2c-1.9 0-3.9-.4-5.7-1.3-1.1-.6-1.8-1.2-2.3-1.8z"/><path d="M113 20.1c-.3-.2-.6-.5-.9-.7.1.2.1.3.2.5.3.6.6 1.1 1 1.7a32.39 32.39 0 0 0 7.2.8l-.5-.4c-2.8-.1-5.1-.7-7-1.9zm-.8-.3c-.1-.2-.1-.3-.2-.5-.1-.1-.3-.2-.3-.4.1.1.1.2.1.3.1.4.3.6.4.6z"/><path d="M112.2 19.8c-.2 0-.3-.2-.4-.5.3.8.6 1.5 1.1 2.1.3.4.5.7.9 1 .2.1.3 0 .3-.1-.4-.2-.6-.5-.9-.7l-1-1.8z"/></g><path d="M111.8 19.3c-.1-.1-.1-.2-.1-.3l-.3-.3c.2.8.5 1.7 1 2.4.3.5.6.8 1 1.1.1.1.2.1.3.1-.4-.3-.7-.6-.9-1-.4-.6-.8-1.3-1-2z" fill="#ff0"/><path d="M111.4 18.7c-.3-.4-.6-.7-.9-1.2.2 1 .5 2 1 3 .3.8.7 1.4 1.5 1.7.2.1.3.1.3.1-.4-.3-.7-.7-1-1.1l-.9-2.5z" fill="#fff"/><g class="At"><path d="M110.9 17.3c.2.3.3.6.4.8-.3-1.1-.5-2-.5-2.9V15c.1-.8.2-1.8.6-2.9-.2.3-.3.5-.4.8a6.28 6.28 0 0 0-.3 1.9v.3c0 .9 0 1.6.2 2.2z"/><path d="M110.7 15.1a6.28 6.28 0 0 1 .3-1.9c.2-.3.3-.6.4-.8.1-.1.2-.2.2-.3.5-.6 1.3-1.2 2.1-1.7 1.8-.8 3.9-1.2 5.9-1.2h.1c.2-.2.3-.3.4-.3l.1-.1c-2.8-.1-5.2.4-7.1 1.6-.3.2-.7.5-.9.7-.1.1-.3.2-.3.4l-.3.3-.9 1.2c-.2.7-.3 1.4-.3 2.1h.3z"/><path d="M111.9 11.3c-.1.1-.1.2-.1.3.1-.1.3-.2.3-.4.1-.2.1-.3.2-.4-.1-.1-.3.2-.4.5z"/><path d="M111.8 11.6c.1-.1.1-.2.1-.3.3-.8.6-1.5 1.1-2.1.3-.4.5-.7.9-.9-.1.1-.2.1-.3.1-.4.3-.8.6-1 1.1-.5.8-.9 1.6-1.1 2.4.1-.2.2-.2.3-.3z"/></g><path d="M111.9 11.3c.2-.4.3-.5.4-.5.3-.6.6-1.1 1-1.6.2-.2.5-.5.9-.7-.1-.1-.2-.1-.3-.1-.4.3-.7.6-.9.9-.5.6-.9 1.3-1.1 2z" fill="#ff0"/><path d="M112.3 10.8c-.1.2-.1.3-.2.4.3-.3.7-.5.9-.7 1.9-1.2 4.2-1.7 7.1-1.6l.3-.4c-2.6-.1-4.9.1-7.1.6-.4.6-.7 1.1-1 1.7z" class="At"/><path d="M110.7 13l.9-1.2c.2-.8.6-1.6 1.1-2.4.3-.5.7-.8 1-1.1-.1.1-.2.1-.3.1-.8.3-1.3.8-1.5 1.6-.6 1-1 2-1.2 3z" fill="#fff"/><g class="At"><path d="M114 8.3c.2-.1.3 0 .3.1-.4.2-.7.5-.9.7 2.1-.5 4.5-.7 7.1-.6-.3-.4-.5-.6-.9-.8h0c-.1 0-.2 0-.2-.1-1.5-.2-2.8-.1-3.8.1l-.9.3c-.2.2-.4.2-.7.3z"/><path d="M118.4 14.8c.1-.1.2 0 .3.1.2.3.3.5.4.7v-.5c0-1.6.3-3.2.8-4.8.3-.8.7-1.3 1-1.3.4 0 .8.1 1.1.1h0c.9.1 1.6.2 2.2.4.9.2 1.2.4 1.1.7-.3 1.6-.4 3.3-.4 5v.2c-.1 1.4 0 2.8.2 4.1.1.1.2.1.3.2l.4.4c.1 0 .1 0 .1.1a35.53 35.53 0 0 1-.3-4.6v-.2c0-1.6.1-3.2.4-4.8v-.3c0-.4-.2-.6-.6-.7h-.1l-4.5-.9c-.2 0-.4-.1-.6-.1-.1 0-.2.1-.2.1-.2.1-.3.2-.4.3-.8 2-1.2 3.9-1.2 5.8z"/><path d="M118.6 14.9c-.1-.1-.2-.2-.3-.1v.8c-.1 2.1.3 4.2 1.3 6.1.2.2.4.4.6.4s.4 0 .6-.1c1.7-.2 3.2-.4 4.5-.8h.1c.4-.1.6-.3.7-.6v-.3c0-.1 0-.1-.1-.2-.1 0-.1 0-.1-.1-.2-.1-.3-.2-.3-.3-.1 0-.1 0-.1-.1-.1-.1-.2-.2-.3-.2.1.3 0 .6.2.9.1.2-.3.4-1.1.6-.5.2-1.2.3-2.1.3h0c-.4.1-.9.1-1.3.1-.4-.1-.8-.5-1-1.4a13.49 13.49 0 0 1-.7-4.4c-.3 0-.5-.3-.6-.6z"/><path d="M113.7 10.5c-.9.5-1.6 1-2.1 1.7-.3 1.1-.4 2.1-.4 3.1v.8c0 .8.1 1.6.3 2.5.5.7 1.2 1.2 2.1 1.7 1.8.8 3.8 1.3 5.7 1.3h.2c-1-1.9-1.4-4-1.3-6.1v-.8c0-1.9.5-3.8 1.4-5.5h-.1c-1.9.1-3.8.5-5.8 1.3zm7.1-2.7c-.3 0-.5 0-.9-.1l.6.7h1.9l.3-.6h-1.9z"/><path d="M120 7.8c-.2 0-.3-.1-.4-.1.3.2.6.4.9.8h.1l-.6-.7zm.1 1.1c.1-.1.2-.1.2-.1 0 .1 0 .1-.2.1h0z"/><path d="M120.2 8.9h.2c.2 0 .4 0 .6.1l4.5.9h.1c.4.1.6.3.6.7 3.7.3 7.6.4 11.8.2.7-.7 2-.9 4-.7.1-.2.3-.3.7-.3-1.2-.7-2.9-1-4.9-1 .2.2 0 .5-.4.7-.2.1-.3.1-.5.2l-.2.1c-1.2.3-2.9.6-4.9.4h-.9c-1.7-.1-3.4-.2-4.8-.4l-4.7-.9h-1.2z"/><path d="M122.5 8.3l-.1.2h-1.1l2.1.4-.3-.4 6.7.1h1.2l6.7.1c.1.2-.1.4-.3.5s-.3.2-.5.2c.2-.1.3-.1.5-.2.4-.2.5-.4.4-.7h-.2l-14.5-.2c.3-.1.4-.3.5-.6l.3-.9c.1-.1 0-.2-.1-.2l-.4 1.2c-.2.3-.3.5-.5.5l-.1.2-.3-.1v-.1z"/></g><radialGradient id="A" cx="164.06" cy="94.81" r=".837" gradientTransform="matrix(4.908900e-11 -1 1.0934 4.489700e-11 19.5022 171.7304)" gradientUnits="userSpaceOnUse"><stop offset="0" stop-color="#808183"/><stop offset="1" stop-color="#293237"/></radialGradient><path d="M122.8 8.7l.1-.2c.2-.1.4-.2.5-.5l.4-1.2h-.1c-.4-.1-.7.1-.9.6l-.2.6-.2.4.1.1-.1.3.4-.1z" fill="url(#A)"/><g class="At"><path d="M123.1 8.5l.3.4 2.6.5c1.5.2 3 .3 4.8.4 0-.1-.1-.1-.1-.1h0c-.3-.5-.6-.9-1-1.1v-.1h-6.6z"/><path d="M123.6 7.8c-.2.4-.3.6-.5.6l7.1.1c-.1-.3-.2-.5-.3-.6h-2.2l-4.1-.1zm6.6.8h-.4v.1l1 1.1h.3a2.73 2.73 0 0 0-.9-1.2z"/><path d="M127.7 7.8h2.1c-.2-.2-.5-.2-1.1-.2l-1 .2zm2.3.1h-.1c.2.2.3.4.3.6h.1c-.1-.3-.2-.5-.3-.6z"/><path d="M126.1 10.6h0l.1.1c3.7.3 7.6.4 11.6.3v-.1c.1-.1.1-.2.1-.2-4.2.1-8.2.1-11.8-.2v.1zm4.9-2h-.6l.9 1.2h.5c-.2-.5-.5-.8-.8-1.2z"/><path d="M131.1 9.8h-.3l.1.1c.1 0 .2 0 .2-.1l.1.1h.5c0-.1 0-.1-.1-.1h-.5c-.2-.5-.5-.8-.9-1.2h-.2c.6.3.9.7 1.1 1.2z"/><path d="M131.7 9.8c0 .1 0 .1 0 0 2.1.1 3.7 0 5-.4l.2-.1c.2-.1.3-.2.5-.2.3-.2.3-.4.3-.5H131c.3.4.6.7.7 1.2z"/><path d="M130 7.9c.1.1.2.4.3.6l7.2.1c-.1-.3-.3-.5-.5-.7h-.3c-.2 0-.4.1-.5.1l-6.2-.1zm-15.8 14.3c-.1.1-.2.1-.3.1.3.1.5.2.6.2l.9.3c1 .3 2.3.3 3.8.2.1 0 .3-.1.4-.1l.9-.7c-2.7 0-5-.2-7.2-.8.2.4.4.5.9.8z"/><path d="M119.6 23h.2l.8-.7h-.2l-.8.7z"/><path d="M120.2 21.8h-.3l.5.4h.7l2.1-.3 2.7-.4c1.5-.2 3-.3 4.8-.3h.9c2.1 0 3.7.1 4.9.5l.2.1c.2.1.3.1.5.2.4.2.5.4.4.7 2.1-.2 3.6-.4 4.6-1-.2-.1-.3-.2-.3-.3-2.1.2-3.4-.1-4-.7-4.2-.2-8.2-.3-11.8 0 0 .4-.2.6-.7.6h-.1c-1.3.3-2.8.6-4.5.8-.1-.3-.4-.3-.6-.3z"/><path d="M121.1 22.3h-.5l-.8.7c.3 0 .5-.1.9-.1l1.8.1-.2-.5-.1-.2h-1.1z"/></g><radialGradient id="B" cx="148.569" cy="94.72" r=".826" gradientTransform="matrix(4.908900e-11 -1 1.0934 4.489700e-11 19.5022 171.7304)" gradientUnits="userSpaceOnUse"><stop offset="0" stop-color="#808183"/><stop offset="1" stop-color="#293237"/></radialGradient><path d="M122.7 23.6c.2.5.5.7.9.6h.1l-.4-1.2c-.2-.3-.3-.5-.5-.5l-.1-.2-.3.1.1.3-.1.1.2.5.1.3z" fill="url(#B)"/><path d="M123.7 24.1c.1-.1.2-.1.1-.2l-.3-.9c-.2-.4-.3-.6-.5-.6l14.6.2c.2-.2 0-.5-.4-.7-.2-.1-.3-.1-.5-.2.2.1.3.2.5.2.3.2.3.4.3.5l-6.7-.1h-1.2l-6.8-.1.3-.4-2.1.3 1.1.1.1.2.1-.1-.1-.3.3-.1.1.2c.2.1.4.2.5.5l.6 1.5z" class="At"/><radialGradient id="C" cx="156.278" cy="93.915" r="4.801" gradientTransform="matrix(4.908900e-11 -1 1.0934 4.489700e-11 19.5022 171.7304)" gradientUnits="userSpaceOnUse"><stop offset="0" stop-color="#808183"/><stop offset="1" stop-color="#293237"/></radialGradient><path d="M120.9 9.3c-.4.1-.8.5-1 1.3-.6 1.5-.8 3.1-.8 4.8v.5c0 1.5.2 3 .7 4.4.3.8.6 1.3 1 1.4.4-.1.9-.1 1.3-.1h0l2.1-.3c.9-.2 1.2-.4 1.1-.6-.1-.3-.1-.6-.2-.9l-.2-4.1v-.2c0-1.6.1-3.4.4-5 .1-.2-.3-.4-1.1-.7-.6-.2-1.3-.3-2.2-.4v.1-.1c-.3-.1-.7-.1-1.1-.1z" fill="url(#C)"/><g class="At"><path d="M123.2 21.9l-.3.4 6.8.1v-.1l1-1.1.1-.1c-1.7 0-3.4.1-4.8.3l-2.8.5z"/><path d="M122.9 22.4c.3.1.4.3.5.6h6.5c.2-.2.3-.4.3-.6h-7.3zm3.1-2.2v.2c3.7-.3 7.6-.2 11.8 0-.1-.1-.1-.2-.2-.4h-.3c-3.8-.1-7.5-.1-11 .1-.1.1-.2.1-.3.1h0z"/><path d="M129.6 23.1h-2.1c.1.1.4.2.9.2.6 0 1-.1 1.2-.2zm.1-.8h0l.5.1c.3-.4.7-.8.9-1.2h-.3c-.4.4-.7.8-1.1 1.1z"/><path d="M130.1 22.5c0 .2-.1.4-.3.6h.1l.3-.6h-.1z"/><path d="M131.1 21.1h-.3c0 .1-.1.1-.1.1l.4-.1c-.3.5-.6.9-.9 1.3h.2c.3-.4.7-.8.9-1.2h.4c0-.1 0-.1.1-.1h-.7z"/><path d="M130.3 22.3h.5c.3-.4.6-.8.8-1.2h-.4c-.3.5-.5.9-.9 1.2z"/><use xlink:href="#s"/><path d="M130.3 22.5l-.3.6 6 .1a.9.9 0 0 0 .5.1h.2c.4-.2.7-.4.8-.7l-7.2-.1z"/><use xlink:href="#t"/><path d="M125.7 15.4h0c0 1.6 0 3.1.3 4.6 0 .1.1.1.1.2h.3c3.6-.2 7.3-.2 11-.1h.3c.3-1.5.5-2.9.4-4.5v-.1c.1-1.6-.1-3.1-.3-4.5-4 .1-7.9 0-11.6-.3h-.1c-.3 1.5-.4 3.1-.4 4.7z"/><path d="M138.1 19.7c-.2.5.2.8.9 1 .8.2 1.6.2 2.4 0 .4-.1.7-.5.9-1.1-.7-3.7-2.1-6.4-4.2-8 .3 1.4.3 2.8.3 4.1v.2c.2 1 0 2.4-.3 3.8zm-1.4 3.5h.1c.4-.2.7-.4.8-.7h-.1c-.1.3-.4.5-.8.7z"/><path d="M137.6 22.5a1.85 1.85 0 0 1-.8.7c1.7.1 3.5-.1 5.1-.3-1.5.1-2.9 0-4.3-.4z"/><path d="M142.5 21.6c-.1 0-.2-.1-.3-.1-1 .6-2.6.9-4.6 1 1.3.4 2.8.5 4.4.3.1 0 .2-.1.3-.1l1.5-.3h.1c.9-.2 1.6-.6 2.1-1.2h0c-.5.1-1.2.2-1.9.2l-1.6.2z"/><path d="M142.2 21.5c.1.1.2.1.3.1h1.4c1-.5 1.5-1 1.6-1.5l.3-1 .3-1.1c-.6 2.5-1.8 3.6-3.5 3.5-.3 0-.4-.2-.3-.4-.1.1-.3.2-.4.3 0-.1.1.1.3.1z"/><path d="M142.2 21c-.1.2.1.4.3.4 1.7.2 2.9-1 3.5-3.5.2-.8.2-1.5.2-2.2v-.1c0-1.1-.1-2.3-.4-3.5V12c-.1-.3-.2-.5-.2-.8-.1-.5-.6-.9-1.6-1.5h0-.1c-.2 0-.3 0-.4-.1h-.1c-.5.1-.8.2-.7.4.5.6.9 1.4 1.1 2.3a12.59 12.59 0 0 1 0 6.1c-.2.8-.6 1.5-1.2 1.8a.76.76 0 0 0-.2.4c.1.2 0 .3-.2.4zm1.6 1.5h0c.6.1 1.1 0 1.4-.2s.5-.5.8-1c-.6.7-1.3 1.1-2.2 1.2z"/><path d="M145.9 21.3h.1c.4-.2.7-.4.8-.8.5-1.6.8-3.2.8-4.8h0v-.2c0-.6 0-1.1-.1-1.6 0 2.2-.1 3.8-.5 4.8-.2.4-.5.5-1.1.3l-.3 1c-.1.5-.7.9-1.6 1.5.7 0 1.3-.1 1.9-.2zm-3.4-1.8c.1.2 0 .5.2 1 .1-.1.2-.2.2-.4.5-.9.8-2.5.9-4.6v-.2c0-3.2-.6-5-1.8-5.7-2.1-.2-3.4 0-4 .7-.1.1-.1.2-.1.2l.4.5c-.1-.4.2-.7.9-.9.8-.2 1.6-.2 2.4 0 .9.2 1.3 1.9 1.3 5.1v.2c0 2-.1 3.3-.4 4.1z"/><path d="M142.9 20.2c.7-.3 1-.9 1.2-1.8.5-2 .4-4.1 0-6.1-.3-.9-.6-1.7-1.1-2.3-.1-.2.1-.4.7-.4-.3 0-.5 0-.9-.1-.3.1-.5.2-.7.3 1.1.6 1.7 2.4 1.8 5.7v.2c-.2 2-.5 3.5-1 4.5zm3-1.2c.5.1.9 0 1.1-.3.4-.9.6-2.5.5-4.8l-.4-2.4c.1.6.1 1 0 1.4a1.1 1.1 0 0 1-.8 0c-.2-.2-.3-.5-.3-.8.3 1.2.4 2.4.4 3.5v.1c0 .7-.1 1.5-.2 2.2-.2.4-.3.8-.3 1.1zm-8.7-11.1h-.2c.3.2.4.4.5.7h.2c-.1-.3-.3-.6-.5-.7z"/><path d="M141.1 8.1c-1.3-.2-2.6-.3-3.9-.3.3.2.4.4.6.7 2 .1 3.6.4 4.9 1 .3 0 .5 0 .9.1h.1c.2 0 .3 0 .4.1h.1c.5 0 .9-.1.9-.2 0-.2-1.3-.6-4-1.4zm-2.9 3.3h0c2.1 1.8 3.5 4.4 4.2 8.1.3-.8.5-2.1.5-3.9h0v-.2c0-3.2-.5-4.9-1.3-5.1-.9-.2-1.7-.2-2.4 0-.8.2-1 .5-.9.9l-.1.2z"/><path d="M147 12.8c.1-.3.1-.8 0-1.4-.1-.2-.2-.5-.2-.7-.1-.4-.3-.6-.7-.8h-.1l-1.9-.3c1 .5 1.5 1 1.6 1.5.1.3.2.5.2.8h0v.1l.3.8c.3.2.5.2.8 0z"/><path d="M143.9 8.7h0l-2.8-.5c2.6.7 3.9 1.2 3.8 1.3-.1.2-.3.2-.9.2.8.1 1.4.1 1.9.3-.3-.7-1-1.1-2-1.3h0z"/></g><linearGradient id="D" gradientUnits="userSpaceOnUse" x1="126.968" y1="8.449" x2="126.95" y2="10.159"><stop offset="0" stop-color="#272626"/><stop offset="1" stop-color="#808183"/></linearGradient><path d="M123.1 8.5l.3.4 2.6.5c1.5.2 3 .3 4.8.4-.3-.5-.6-.9-1-1.2h0l-6.7-.1z" fill="url(#D)"/><linearGradient id="E" gradientUnits="userSpaceOnUse" x1="134.35" y1="8.519" x2="134.332" y2="10.236"><stop offset="0" stop-color="#272626"/><stop offset="1" stop-color="#808183"/></linearGradient><path d="M131 8.6c.4.4.6.8.7 1.3 2.1.1 3.7 0 4.9-.4l.2-.1c.2-.1.3-.2.5-.2.3-.2.3-.4.3-.5l-6.6-.1z" fill="url(#E)"/><linearGradient id="F" gradientUnits="userSpaceOnUse" x1="126.824" y1="21.079" x2="126.808" y2="22.612"><stop offset="0" stop-color="#272626"/><stop offset="1" stop-color="#808183"/></linearGradient><path d="M123.2 21.9l-.3.4 6.8.1v-.1c.3-.3.7-.7 1-1.2-1.7 0-3.4.1-4.8.3l-2.7.5z" fill="url(#F)"/><linearGradient id="G" gradientUnits="userSpaceOnUse" x1="134.211" y1="21.155" x2="134.195" y2="22.681"><stop offset="0" stop-color="#272626"/><stop offset="1" stop-color="#808183"/></linearGradient><use xlink:href="#s" fill="url(#G)"/><linearGradient id="H" gradientUnits="userSpaceOnUse" x1="137.438" y1="18.646" x2="144.267" y2="10.452"><stop offset="0" stop-color="#272626"/><stop offset="1" stop-color="#808183"/></linearGradient><use xlink:href="#t" fill="url(#H)"/><linearGradient id="I" gradientUnits="userSpaceOnUse" x1="142.95" y1="12.798" x2="135.528" y2="21.855"><stop offset="0" stop-color="#030405"/><stop offset="1" stop-color="#808183"/></linearGradient><path d="M142.6 20.5c.1-.1.2-.2.2-.4.5-.9.8-2.5.9-4.6v-.2c0-3.2-.6-5-1.8-5.7-2.1-.2-3.4 0-4 .7-.1.1-.1.2-.1.2l.4.5c-.1-.4.2-.7.9-.9.8-.2 1.6-.2 2.4 0 .9.2 1.3 1.9 1.3 5.1v.2c-.1 1.8-.2 3.1-.5 3.9.2.3.3.7.3 1.2z" fill="url(#I)"/><radialGradient id="J" cx="115.359" cy="-10.676" r="4.568" gradientTransform="matrix(1.542726e-02 -1.3482 -1.2387 -1.185662e-02 124.2194 172.4908)" gradientUnits="userSpaceOnUse"><stop offset="0" stop-color="#808183"/><stop offset="1" stop-color="#293237"/></radialGradient><path d="M139.2 10.5c-.8.2-1 .5-.9.9v.2c.3 1.4.3 2.8.3 4.1v.2c0 1.4-.1 2.8-.4 4.2-.2.5.2.8.9 1 .8.2 1.6.2 2.4 0 .4-.1.7-.5.9-1.1.3-.8.5-2.1.5-3.9v-.2c0-3.2-.5-4.9-1.3-5.1-.8-.5-1.6-.5-2.4-.3z" fill="url(#J)"/><linearGradient id="K" gradientUnits="userSpaceOnUse" x1="127.509" y1="17.912" x2="118.14" y2="13.407"><stop offset="0" stop-color="#363639"/><stop offset=".264" stop-color="#040506"/><stop offset=".438" stop-color="#555659"/><stop offset="1" stop-color="#030405"/></linearGradient><path d="M118.4 14.8h0v.7c-.1 2.1.3 4.2 1.3 6.1.2.2.4.4.6.4s.4 0 .6-.1c1.7-.2 3.2-.4 4.5-.8h.1c.4-.1.6-.3.7-.6v-.3c0-.1 0-.1-.1-.2a35.53 35.53 0 0 1-.3-4.6v-.2c0-1.6.1-3.2.4-4.8v-.3c0-.4-.2-.6-.6-.7h-.1l-4.5-.9c-.2 0-.4-.1-.6-.1-.1 0-.2.1-.2.1-.2.1-.3.2-.4.3-1 2.2-1.4 4.1-1.4 6zm.6.5h0c0-1.6.3-3.2.8-4.8.3-.8.7-1.3 1-1.3.4 0 .8.1 1.1.1h0c.9.1 1.6.2 2.2.4.9.2 1.2.4 1.1.7-.3 1.6-.4 3.3-.4 5v.2c-.1 1.4 0 2.8.2 4.1.1.3 0 .6.2.9.1.2-.3.4-1.1.6-.5.2-1.2.3-2.1.3h0c-.4.1-.9.1-1.3.1-.4-.1-.8-.5-1-1.4a13.49 13.49 0 0 1-.7-4.4v-.5z" fill="url(#K)"/><g class="Au"><path d="M125 100.8c-.1-.1-.2-.2-.2-.3a10.68 10.68 0 0 1 .3 2.5v.8c0 1-.1 2-.4 3.1.1-.1.2-.2.2-.3.3-1.1.5-2 .6-2.9v-.2c-.1-.7-.2-1.7-.5-2.7z"/><path d="M124.8 100.5c.1.1.2.2.2.3.2.3.3.5.4.8.2.7.3 1.4.2 2v.2h.3v-.2c0-.8-.1-1.5-.2-2.2-.3-.4-.5-.8-.9-1.2l-.3-.3c-.1-.1-.3-.2-.3-.4-.3-.3-.6-.5-.9-.7-1.8-1.2-4.1-1.8-7-1.8h-.3c.2.1.4.2.6.4h.2c1.9 0 3.9.4 5.7 1.3 1.1.6 1.8 1.2 2.3 1.8z"/><path d="M123.3 98.8c.3.2.6.5.9.7-.1-.2-.1-.3-.2-.5-.3-.6-.6-1.1-1-1.7a32.39 32.39 0 0 0-7.2-.8l.5.4c2.9.2 5.2.7 7 1.9zm.8.3c.1.2.1.3.2.5.1.1.3.2.3.4-.1-.1-.1-.2-.1-.3 0-.4-.2-.6-.4-.6z"/><path d="M124.1 99.1c.2 0 .3.2.4.5-.3-.8-.6-1.5-1.1-2.1-.3-.4-.5-.7-.9-1-.2-.1-.3 0-.3.1.4.2.6.5.9.7.5.7.8 1.3 1 1.8z"/><path d="M124.6 99.7c.1.1.1.2.1.3l.3.3c-.2-.8-.5-1.7-1-2.4-.3-.5-.6-.8-1-1.1-.1-.1-.2-.1-.3-.1.4.3.7.6.9 1 .4.5.8 1.2 1 2z"/></g><path d="M124.9 100.2c.3.4.6.7.9 1.2-.2-1-.5-2-1-3-.3-.8-.7-1.4-1.5-1.7-.2-.1-.3-.1-.3-.1.4.3.7.7 1 1.1.4.9.8 1.7.9 2.5z" fill="#e6efe8"/><g class="Au"><path d="M125.5 101.6c-.2-.3-.3-.6-.4-.8.3 1.1.5 2 .5 2.9v.2c-.1.8-.2 1.8-.6 2.9.2-.3.3-.5.4-.8a6.28 6.28 0 0 0 .3-1.9v-.3c0-.8 0-1.5-.2-2.2z"/><path d="M125.7 103.8a6.28 6.28 0 0 1-.3 1.9c-.2.3-.3.6-.4.8-.1.1-.2.2-.2.3-.5.6-1.3 1.2-2.1 1.7-1.8.8-3.9 1.2-5.9 1.2h0-.1c-.2.2-.3.3-.4.3l-.1.1c2.8.1 5.2-.4 7.1-1.6.3-.2.7-.5.9-.7.1-.1.3-.2.3-.4s.2-.2.3-.3l.9-1.2c.2-.7.3-1.4.3-2.1h-.3z"/><path d="M124.5 107.6c.1-.1.1-.2.1-.3-.1.1-.3.2-.3.4-.1.2-.1.3-.2.4.1.1.3-.1.4-.5z"/><path d="M124.6 107.4c-.1.1-.1.2-.1.3-.3.8-.6 1.5-1.1 2.1-.3.4-.5.7-.9.9.1-.1.2-.1.3-.1.4-.3.8-.6 1-1.1.5-.8.9-1.6 1.1-2.4-.2.1-.3.2-.3.3z"/><path d="M124.5 107.6c-.2.4-.3.5-.4.5-.3.6-.6 1.1-1 1.6-.2.2-.5.5-.9.7.1.1.2.1.3.1.4-.3.7-.6.9-.9.5-.5.8-1.2 1.1-2z"/><path d="M124 108.1c.1-.2.1-.3.2-.4-.3.3-.7.5-.9.7-1.9 1.2-4.2 1.7-7.1 1.6l-.3.4c2.6.1 4.9-.1 7.1-.6.4-.6.8-1.1 1-1.7z"/></g><path d="M125.7 105.9l-.9 1.2c-.2.8-.6 1.6-1.1 2.4-.3.5-.7.8-1 1.1.1-.1.2-.1.3-.1.8-.3 1.3-.8 1.5-1.6.6-1 1-2 1.2-3z" fill="#e6efe8"/><g class="Au"><path d="M122.4 110.6c-.2.1-.3 0-.3-.1.4-.2.7-.5.9-.7-2.1.5-4.5.7-7.1.6.3.4.5.6.9.8h0c.1 0 .2 0 .2.1 1.5.2 2.8.1 3.8-.1l.9-.3c.2-.1.4-.2.7-.3zm-4.4-6.5c-.1.1-.2 0-.3-.1-.2-.3-.3-.5-.4-.7v.5c0 1.6-.3 3.2-.8 4.8-.3.8-.7 1.3-1 1.3-.4 0-.8-.1-1.1-.1h0c-.9-.1-1.6-.2-2.2-.4-.9-.2-1.2-.4-1.1-.7.3-1.6.4-3.3.4-5v-.2c.1-1.4 0-2.8-.2-4.1-.1-.1-.2-.1-.3-.2l-.4-.4c-.1 0-.1 0-.1-.1a35.53 35.53 0 0 1 .3 4.6v.2c0 1.6-.1 3.2-.4 4.8v.3c0 .4.2.6.6.7h.1l4.5.9c.2 0 .4.1.6.1.1 0 .2-.1.2-.1.2-.1.3-.2.4-.3.7-2 1.2-3.8 1.2-5.8z"/><path d="M117.8 104c.1.1.2.2.3.1v-.8c.1-2.1-.3-4.2-1.3-6.1-.2-.2-.4-.4-.6-.4s-.4 0-.6.1c-1.7.2-3.2.4-4.5.8h-.1c-.4.1-.6.3-.7.6v.3c0 .1 0 .1.1.2.1 0 .1 0 .1.1.2.1.3.2.3.3.1 0 .1 0 .1.1.1.1.2.2.3.2-.1-.3 0-.6-.2-.9-.1-.2.3-.4 1.1-.6.5-.2 1.2-.3 2.1-.3h0c.4-.1.9-.1 1.3-.1.4.1.8.5 1 1.4a13.49 13.49 0 0 1 .7 4.4.9.9 0 0 1 .6.6z"/><path d="M122.6 108.5c.9-.5 1.6-1 2.1-1.7.3-1.1.4-2.1.4-3.1v-.8c0-.8-.1-1.6-.3-2.5-.5-.7-1.2-1.2-2.1-1.7-1.8-.8-3.8-1.3-5.7-1.3h-.2c1 1.9 1.4 4 1.3 6.1v.8c0 1.9-.5 3.8-1.4 5.5h.1c2-.1 3.9-.6 5.8-1.3zm-7 2.6c.3 0 .5 0 .9.1l-.6-.7H114l-.3.6h1.9z"/><path d="M116.4 111.1c.2 0 .3.1.4.1-.3-.2-.6-.4-.9-.8h-.1l.6.7zm-.2-1.1c-.1.1-.2.1-.2.1.1 0 .1 0 .2-.1h0z"/><path d="M116.2 110.1h-.2c-.2 0-.4 0-.6-.1l-4.5-.9h-.1c-.4-.1-.6-.3-.6-.7-3.7-.3-7.6-.4-11.8-.2-.7.7-2 .9-4 .7-.1.2-.3.3-.7.3 1.2.7 2.9 1 4.9 1-.2-.2 0-.5.4-.7.2-.1.3-.1.5-.2l.2-.1c1.2-.3 2.9-.6 4.9-.4h.9c1.7.1 3.4.2 4.8.4l2.6.5 2.1.4h1.2z"/><path d="M113.8 110.7l.1-.2h1.1l-2.1-.4.3.4-6.7-.1h-1.2l-6.7-.1c-.1-.2.1-.4.3-.5s.3-.2.5-.2c-.2.1-.3.1-.5.2-.4.2-.5.4-.4.7h.2l14.5.2c-.3.1-.4.3-.5.6l-.3.9c-.1.1 0 .2.1.2l.4-1.2c.2-.3.3-.5.5-.5l.1-.2.3.1v.1z"/><path d="M113.6 110.3l-.1.2c-.2.1-.4.2-.5.5l-.4 1.2h.1c.4.1.7-.1.9-.6l.2-.6.2-.4-.1-.1.1-.3-.4.1z"/><path d="M113.3 110.4l-.3-.4-2.6-.5-4.8-.4c0 .1.1.1.1.1h0c.3.5.6.9 1 1.1v.1h6.6z"/><path d="M112.8 111.1c.2-.4.3-.6.5-.6l-7.1-.1c.1.3.2.5.3.6h2.2l4.1.1z"/><path d="M106.2 110.4h.4v-.1l-1-1.1h-.3c.2.5.5.8.9 1.2zm2.5.7h-2.1c.2.2.5.2 1.1.2s.9-.1 1-.2z"/><path d="M106.4 111.1h.1c-.2-.2-.3-.4-.3-.6h-.1c.1.2.2.5.3.6zm3.8-2.8h0l-.1-.1c-3.7-.3-7.6-.4-11.6-.3v.1c-.1.1-.1.2-.1.2 4.2-.1 8.2-.1 11.8.2 0 .1 0 0 0-.1z"/><path d="M105.4 110.4h.6l-.9-1.2h-.5c.2.4.4.7.8 1.2z"/><path d="M105.3 109.1h.3l-.1-.1c-.1.1-.2.1-.2.1l-.1-.1h-.5c0 .1 0 .1.1.1h.5c.2.5.5.8.9 1.2h.2c-.6-.3-.9-.6-1.1-1.2z"/><path d="M104.7 109.1c-2.1-.1-3.7 0-5 .4l-.2.1c-.2.1-.3.2-.5.2-.3.2-.3.4-.3.5l6.7.1c-.4-.5-.6-.8-.7-1.3zm1.7 2c-.1-.1-.2-.4-.3-.6l-7.2-.1c.1.3.3.5.5.7h.3c.2 0 .4-.1.5-.1l6.2.1zm15.8-14.4c.1-.1.2-.1.3-.1-.3-.1-.5-.2-.6-.2l-.9-.3c-1-.3-2.3-.3-3.8-.2-.1 0-.3.1-.4.1l-.9.7c2.7 0 5 .2 7.2.8-.2-.3-.5-.5-.9-.8zm-5.4-.8h-.2l-.8.7h.2l.8-.7z"/><path d="M116.2 97.1h.3l-.5-.4h-.7l-2.1.3-2.7.4c-1.5.2-3 .3-4.8.3h-.9c-2.1 0-3.7-.1-4.9-.5l-.2-.1c-.2-.1-.3-.1-.5-.2-.4-.2-.5-.4-.4-.7-2.1.2-3.6.4-4.6 1 .2.1.3.2.3.3 2.1-.2 3.4.1 4 .7 4.2.2 8.2.3 11.8 0 0-.4.2-.6.7-.6h.1c1.3-.3 2.8-.6 4.5-.8.1.3.3.3.6.3z"/><path d="M115.2 96.7h.5l.8-.7c-.3 0-.5.1-.9.1l-1.8-.1.2.5.1.2h1.1z"/><path d="M113.6 95.4c-.2-.5-.5-.7-.9-.6h-.1l.4 1.2c.2.3.3.5.5.5l.1.2.3-.1-.1-.3.1-.1-.2-.5-.1-.3z"/><path d="M112.7 94.8c-.1.1-.2.1-.1.2l.3.9c.2.4.3.6.5.6l-14.6-.2c-.2.2 0 .5.4.7.2.1.3.1.5.2-.2-.1-.3-.2-.5-.2-.3-.2-.3-.4-.3-.5l6.7.1h1.2l6.8.1-.3.4 2.1-.3-1.1-.1-.1-.2-.1.1.1.3-.3.1-.1-.2c-.2-.1-.4-.2-.5-.5l-.6-1.5z"/></g><radialGradient id="L" cx="114.189" cy="103.484" r="4.884" gradientUnits="userSpaceOnUse"><stop offset="0" stop-color="#808183"/><stop offset="1" stop-color="#293237"/></radialGradient><path d="M115.5 109.6c.4-.1.8-.5 1-1.3.6-1.5.8-3.1.8-4.8v-.5c0-1.5-.2-3-.7-4.4-.3-.8-.6-1.3-1-1.4-.4.1-.9.1-1.3.1h0l-2.1.3c-.9.2-1.2.4-1.1.6.1.3.1.6.2.9l.2 4.1v.2c0 1.6-.1 3.4-.4 5-.1.2.3.4 1.1.7.6.2 1.3.3 2.2.4v-.1.1c.3.1.6.1 1.1.1z" fill="url(#L)"/><g class="Au"><path d="M113.1 97.1l.3-.4-6.8-.1v.1l-1 1.1-.1.1c1.7 0 3.4-.1 4.8-.3l2.8-.5zm.4-.6c-.3-.1-.4-.3-.5-.6h-6.5c-.2.2-.3.4-.3.6h7.3zm-3.1 2.2v-.2c-3.7.3-7.6.2-11.8 0 .1.1.1.2.2.4h.3c3.8.1 7.5.1 11-.1 0 0 .1 0 .3-.1h0zm-3.6-2.9h2.1c-.1-.1-.4-.2-.9-.2-.6.1-1 .1-1.2.2z"/><path d="M106.7 96.6h0l-.5-.1c-.3.4-.7.8-.9 1.2h.3c.4-.4.7-.8 1.1-1.1z"/><path d="M106.3 96.5c0-.2.1-.4.3-.6h-.1l-.3.6h.1z"/><path d="M105.3 97.9h.3c0-.1.1-.1.1-.1l-.4.1c.3-.5.6-.9.9-1.3h-.2c-.3.4-.7.8-.9 1.2h-.4c0 .1 0 .1-.1.1h.7z"/><path d="M106 96.6h-.5c-.3.4-.6.8-.8 1.2h.4c.3-.4.6-.9.9-1.2z"/><path d="M104.7 97.9c0-.1 0-.1 0 0 .2-.5.4-.9.8-1.3l-6.7-.1c-.1.2.1.4.3.5s.3.2.5.2l.2.1c1.3.4 2.9.6 4.9.6zm1.4-1.4l.3-.6-6-.1c-.2-.1-.3-.1-.5-.1h-.2c-.4.2-.7.4-.8.7l7.2.1z"/><use xlink:href="#u"/><path d="M110.7 103.5h0c0-1.6 0-3.1-.3-4.6 0-.1-.1-.1-.1-.2h0-.3c-3.6.2-7.3.2-11 .1h-.3c-.3 1.5-.5 2.9-.4 4.5v.1c-.1 1.6.1 3.1.3 4.5 4-.1 7.9 0 11.6.3h.1c.2-1.5.4-3 .4-4.7z"/><path d="M98.2 99.2c.2-.5-.2-.8-.9-1-.8-.2-1.6-.2-2.4 0-.4.1-.7.5-.9 1.1.7 3.7 2.1 6.4 4.2 8-.3-1.4-.3-2.8-.3-4.1v-.2c-.1-1 0-2.4.3-3.8zm1.5-3.4h-.1c-.4.2-.7.4-.8.7h.1c.1-.3.4-.6.8-.7z"/><path d="M98.8 96.4a1.85 1.85 0 0 1 .8-.7c-1.7-.1-3.5.1-5.1.3 1.5 0 2.9 0 4.3.4zm-4.9 1c.1 0 .2.1.3.1 1-.6 2.6-.9 4.6-1-1.3-.4-2.8-.5-4.4-.3-.1 0-.2.1-.3.1l-1.5.3h-.1c-.9.2-1.6.6-2.1 1.2h0c.5-.1 1.2-.2 1.9-.2.6-.2 1.1-.2 1.6-.2z"/><path d="M94.2 97.4c-.1-.1-.2-.1-.3-.1h-1.4c-1 .5-1.5 1-1.6 1.5l-.3 1-.3 1.1c.6-2.5 1.8-3.6 3.5-3.5.3 0 .4.2.3.4.1-.1.3-.2.4-.3 0 .1-.1 0-.3-.1z"/><path d="M94.1 98c.1-.2-.1-.4-.3-.4-1.7-.2-2.9 1-3.5 3.5-.2.8-.2 1.5-.2 2.2v.1c0 1.1.1 2.3.4 3.5v.1c.1.3.2.5.2.8.1.5.6.9 1.6 1.5h.1c.2 0 .3 0 .4.1h.1c.5-.1.8-.2.7-.4-.5-.6-.9-1.4-1.1-2.3a12.59 12.59 0 0 1 0-6.1c.2-.8.6-1.5 1.2-1.8a.76.76 0 0 0 .2-.4c0-.2.1-.3.2-.4zm-1.5-1.6h0c-.6-.1-1.1 0-1.4.2s-.5.5-.8 1a4.32 4.32 0 0 1 2.2-1.2z"/><path d="M90.5 97.6h-.1c-.4.2-.7.4-.8.8-.5 1.6-.8 3.2-.8 4.8h0v.2c0 .6 0 1.1.1 1.6 0-2.2.1-3.8.5-4.8.2-.4.5-.5 1.1-.3l.3-1c.1-.5.7-.9 1.6-1.5l-1.9.2zm3.4 1.8c-.1-.2 0-.5-.2-1-.1.1-.2.2-.2.4-.5.9-.8 2.5-.9 4.6v.2c0 3.2.6 5 1.8 5.7 2.1.2 3.4 0 4-.7.1-.1.1-.2.1-.2l-.4-.5c.1.4-.2.7-.9.9-.8.2-1.6.2-2.4 0s-1.3-1.9-1.3-5.1v-.2c-.1-2 .1-3.3.4-4.1z"/><path d="M93.5 98.7c-.7.3-1 .9-1.2 1.8-.5 2-.4 4.1 0 6.1.3.9.6 1.7 1.1 2.3.1.2-.1.4-.7.4.3 0 .5 0 .9.1.3-.1.5-.2.7-.3-1.1-.6-1.7-2.4-1.8-5.7v-.2c.2-2 .5-3.5 1-4.5zm-3 1.2c-.5-.1-.9 0-1.1.3-.4.9-.6 2.5-.5 4.8l.4 2.4c-.1-.6-.1-1 0-1.4a1.1 1.1 0 0 1 .8 0c.2.2.3.5.3.8-.3-1.2-.4-2.4-.4-3.5v-.1c0-.7.1-1.5.2-2.2.2-.4.2-.7.3-1.1zm8.7 11.2h.2c-.3-.2-.4-.4-.5-.7h-.2c0 .3.3.5.5.7z"/><path d="M95.2 110.9h0c1.3.2 2.6.3 3.9.3-.3-.2-.4-.4-.6-.7-2-.1-3.6-.4-4.9-1-.3 0-.5 0-.9-.1h-.1c-.2 0-.3 0-.4-.1h-.1c-.5 0-.9.1-.9.2.1.1 1.4.6 4 1.4zm2.9-3.4h0c-2.1-1.8-3.5-4.4-4.2-8.1-.3.8-.5 2.1-.5 3.9h0v.2c0 3.2.5 4.9 1.3 5.1.9.2 1.7.2 2.4 0 .8-.2 1-.5.9-.9.1-.1.1-.1.1-.2z"/><path d="M89.3 106.1c-.1.3-.1.8 0 1.4.1.2.2.5.2.7.1.4.3.6.7.8h.1l1.9.3c-1-.5-1.5-1-1.6-1.5-.1-.3-.2-.5-.2-.8h0v-.1l-.3-.8c-.2-.1-.4-.1-.8 0z"/><path d="M92.5 110.2h0l2.8.5c-2.6-.7-3.9-1.2-3.8-1.3.1-.2.3-.2.9-.2-.8-.1-1.4-.1-1.9-.3.3.7 1 1.2 2 1.3h0z"/></g><linearGradient id="M" gradientUnits="userSpaceOnUse" x1="109.407" y1="110.488" x2="109.425" y2="108.777"><stop offset="0" stop-color="#272626"/><stop offset="1" stop-color="#808183"/></linearGradient><path d="M113.3 110.4l-.3-.4-2.6-.5-4.8-.4c.3.5.6.9 1 1.2h0l6.7.1z" fill="url(#M)"/><linearGradient id="N" gradientUnits="userSpaceOnUse" x1="102.025" y1="110.418" x2="102.043" y2="108.7"><stop offset="0" stop-color="#272626"/><stop offset="1" stop-color="#808183"/></linearGradient><path d="M105.4 110.4c-.4-.4-.6-.8-.7-1.3-2.1-.1-3.7 0-4.9.4l-.2.1c-.2.1-.3.2-.5.2-.3.2-.3.4-.3.5l6.6.1z" fill="url(#N)"/><linearGradient id="O" gradientUnits="userSpaceOnUse" x1="109.551" y1="97.857" x2="109.567" y2="96.324"><stop offset="0" stop-color="#272626"/><stop offset="1" stop-color="#808183"/></linearGradient><path d="M113.1 97.1l.3-.4-6.8-.1v.1c-.3.3-.7.7-1 1.2 1.7 0 3.4-.1 4.8-.3l2.7-.5z" fill="url(#O)"/><linearGradient id="P" gradientUnits="userSpaceOnUse" x1="102.164" y1="97.781" x2="102.18" y2="96.255"><stop offset="0" stop-color="#272626"/><stop offset="1" stop-color="#808183"/></linearGradient><path d="M104.7 97.9c.2-.5.4-.9.8-1.3l-6.7-.1c-.1.2.1.4.3.5s.3.2.5.2l.2.1c1.3.4 2.9.6 4.9.6z" fill="url(#P)"/><linearGradient id="Q" gradientUnits="userSpaceOnUse" x1="98.937" y1="100.29" x2="92.108" y2="108.484"><stop offset="0" stop-color="#272626"/><stop offset="1" stop-color="#808183"/></linearGradient><use xlink:href="#u" fill="url(#Q)"/><linearGradient id="R" gradientUnits="userSpaceOnUse" x1="93.425" y1="106.138" x2="100.847" y2="97.081"><stop offset="0" stop-color="#030405"/><stop offset="1" stop-color="#808183"/></linearGradient><path d="M93.8 98.4c-.1.1-.2.2-.2.4-.5.9-.8 2.5-.9 4.6v.2c0 3.2.6 5 1.8 5.7 2.1.2 3.4 0 4-.7.1-.1.1-.2.1-.2l-.4-.5c.1.4-.2.7-.9.9-.8.2-1.6.2-2.4 0-.9-.2-1.3-1.9-1.3-5.1v-.2c.1-1.8.2-3.1.5-3.9-.2-.3-.3-.7-.3-1.2z" fill="url(#R)"/><radialGradient id="S" cx="50.288" cy="-45.741" r="4.568" gradientTransform="matrix(-1.542726e-02 1.3482 1.2387 1.185662e-02 154.586 34.5887)" gradientUnits="userSpaceOnUse"><stop offset="0" stop-color="#808183"/><stop offset="1" stop-color="#293237"/></radialGradient><path d="M97.2 108.5c.8-.2 1-.5.9-.9v-.2c-.3-1.4-.3-2.8-.3-4.1v-.2c0-1.4.1-2.8.4-4.2.2-.5-.2-.8-.9-1-.8-.2-1.6-.2-2.4 0-.4.1-.7.5-.9 1.1-.3.8-.5 2.1-.5 3.9v.2c0 3.2.5 4.9 1.3 5.1.8.4 1.6.4 2.4.3z" fill="url(#S)"/><linearGradient id="T" gradientUnits="userSpaceOnUse" x1="108.863" y1="101.027" x2="118.232" y2="105.531"><stop offset="0" stop-color="#363639"/><stop offset=".264" stop-color="#040506"/><stop offset=".438" stop-color="#555659"/><stop offset="1" stop-color="#030405"/></linearGradient><path d="M118 104.1h0v-.7c.1-2.1-.3-4.2-1.3-6.1-.2-.2-.4-.4-.6-.4s-.4 0-.6.1c-1.7.2-3.2.4-4.5.8h-.1c-.4.1-.6.3-.7.6v.3c0 .1 0 .1.1.2a35.53 35.53 0 0 1 .3 4.6v.2c0 1.6-.1 3.2-.4 4.8v.3c0 .4.2.6.6.7h.1l4.5.9c.2 0 .4.1.6.1.1 0 .2-.1.2-.1.2-.1.3-.2.4-.3.9-2.2 1.4-4 1.4-6zm-.7-.5h0c0 1.6-.3 3.2-.8 4.8-.3.8-.7 1.3-1 1.3-.4 0-.8-.1-1.1-.1h0c-.9-.1-1.6-.2-2.2-.4-.9-.2-1.2-.4-1.1-.7.3-1.6.4-3.3.4-5v-.2c.1-1.4 0-2.8-.2-4.1-.1-.3 0-.6-.2-.9-.1-.2.3-.4 1.1-.6.5-.2 1.2-.3 2.1-.3h0c.4-.1.9-.1 1.3-.1.4.1.8.5 1 1.4a13.49 13.49 0 0 1 .7 4.4v.5z" fill="url(#T)"/><path d="M197.1 7.8c1.1 4.4 1 8.9-.1 13.4-.2.7-.9 1.2-1.8 1.2-10.3 0-24-.1-34.3-.2-2.2 0-4.1-1.4-4.4-3.2a29.64 29.64 0 0 1 0-9.4c.3-1.8 2.2-3.1 4.5-3.1l34.3.2c.9-.1 1.6.5 1.8 1.1z" class="Av"/><path d="M156.4 10.9c-.3 2.2-.3 4.5 0 6.8h4.3v-6.8h-4.3z" fill="#231f20"/><g class="Av"><path d="M158.7 9.9c-.3 1.5-.4 2.9-.4 4.4s.1 3 .4 4.4c.2.9 1.1 1.6 2.2 1.6l36.3.2c.9-4 .9-8 .1-12L161 8.3c-1.1 0-2.1.7-2.3 1.6z"/><path d="M171.4 9.8v9.1L160 17.5c-.4-2.1-.4-4.2 0-6.3l11.4-1.4zm-14-1.9c.8-.4 1.8-.6 2.9-.6l31.5.1c.9 2.1 1.4 4.4 1.4 7s-.5 4.9-1.4 7l-31.5-.1c-1.1 0-2-.3-2.9-.6.8.9 2.2 1.5 3.6 1.5l34.7.1c.1 0 .2-.1.3-.1h.1c.1-.1.2-.1.2-.1h.1c.1-.1.2-.1.2-.1h0c.2-.1.3-.2.4-.3h0l.2-.2c.1-.1.1-.2.1-.2h0c.1-.1.1-.2.1-.2 1.1-4.4 1.1-8.9.1-13.4 0-.1-.1-.2-.1-.2h0c-.1-.1-.1-.2-.1-.2h0c-.1-.1-.1-.2-.2-.2h0c-.1-.1-.3-.2-.4-.3h0c-.1-.1-.1-.1-.2-.1h-.1c-.1-.1-.2-.1-.2-.1h-.1c-.1-.1-.2-.1-.3-.1h-.4l-34.4.1c-1.5-.1-2.8.4-3.6 1.3z"/></g><path d="M187.2 20l.8.5c.6.4.2 1.2-.5 1.1l-17.7-.1 4.7-1.6 12.7.1z" class="Ao"/><path d="M187.8 21c0 .1-.1.3-.3.3l-15.6-.1 2.6-.9 12.6.1.6.4c.1.1.1.2.1.2z" class="Aq"/><path d="M170.8 22l.7 1c.2.3.6.6 1.1.6l.4.1-.7-1.6-1.1-.3-.3-.5-.4.1.3.6z" class="Av"/><path d="M172.1 22.3l.7 1.5.2.1-.7-1.7-1.1-.3-.3-.5h-.1l.2.6zm15.1-13.5l.8-.5c.6-.4.3-1.1-.5-1.2L169.8 7l4.7 1.7 12.7.1z" class="Ao"/><path d="M187.8 7.8c0-.1-.1-.3-.3-.3l-15.6-.1 2.6.9 12.6.1.6-.4c.1 0 .1 0 .1-.2z" class="Aq"/><path d="M170.9 6.7l.7-1c.2-.3.6-.6 1.1-.6l.4-.1-.7 1.6-1.1.3-.3.5-.4-.1.3-.6z" class="Av"/><path d="M172.2 6.4l.6-1.4.3-.1-.8 1.6-1.1.3-.2.5h-.1l.2-.6z" class="Ao"/><path d="M160.2 20.7s-2-.1-2-2.5h-1.1c-.1 0 0 2.4 3.1 2.5z" class="As"/><path d="M160.2 20.7s-.1 0-.2-.1c-2.6-.3-2.7-2.4-2.7-2.4h-.3s.1 2.4 3.2 2.5z" class="Ar"/><path d="M157 18.4h.9c.1 1.1.5 1.7 1 2 .4.1.8.2 1.3.2 0 0-2-.1-2-2.5h-1.1c-.1.1-.1.2-.1.3z" class="Aq"/><path d="M160.3 7.9s-2 0-2.1 2.4h-1.1c0 .1.1-2.3 3.2-2.4z" class="As"/><path d="M160.3 7.9s-.1 0-.2.1c-2.6.2-2.7 2.4-2.7 2.4h-.3s.1-2.4 3.2-2.5z" class="Ar"/><path d="M157.1 10.2h.9c.1-1.1.5-1.7 1-2 .4-.1.8-.2 1.3-.2 0 0-2 0-2.1 2.4h-1.1v-.2z" class="Aq"/><path d="M158.1 17.3c-.2-2-.2-4 0-5.9h-.9c-.2 2-.2 4 0 5.9h.9z" fill="#8ac26e"/><path d="M174.2 9.3v10.1l-3.6 1.3c-.8.3-1.8-.1-2-.8-1.1-3.7-1.1-7.6.1-11.3.2-.7 1.2-1.1 2-.8 1.7.8 3.5 1.5 3.5 1.5z" class="Ao"/><path d="M173.8 19.2l-3.3 1.2c-.3.1-.6.1-.9 0s-.4-.3-.5-.5c-.6-1.8-.9-3.7-.9-5.5s.3-3.8.9-5.5c.1-.3.3-.4.5-.5.3-.1.6-.1.9 0l3.2 1.3.1 9.5z" class="Aq"/><path d="M188.2 9.4v10.1s.2.2.4.3c1.1.8 2.9.3 3.1-.9a23.23 23.23 0 0 0 0-9.1c-.2-1.2-2-1.7-3.1-.9-.2.3-.4.5-.4.5z" class="Ao"/><path d="M191.7 14.4c0 1.5-.2 3-.5 4.5-.1.4-.4.7-.9.9s-1 0-1.4-.3c-.1-.1-.3-.2-.3-.3V9.4l.3-.3c.4-.3.9-.4 1.4-.3.5.2.8.5.9.9.3 1.7.5 3.3.5 4.7z" class="Aq"/><path d="M195.9 6.7c-.3.3-.4.6.4 1.3.8.6.5 2.6 1.3 2.7-.1-.9-.3-1.9-.5-2.9-.1-.5-.6-1-1.2-1.1h0zm-.1 15.5c-.3-.3-.4-.6.4-1.3.8-.6.5-2.6 1.4-2.7-.1.9-.3 1.9-.5 2.9a1.63 1.63 0 0 1-1.3 1.1h0z" class="Az"/><path d="M196.6 17.6h1.1c.3-2 .3-4.1 0-6.1h-1.1c.3 2 .3 4 0 6.1z" fill="#f1f2f2"/><path d="M109.7 63.9h-10l-4.3.4h-4.7c-2.1 0-3.9-1.3-4.2-3-.3-1.4-.5-2.8-.5-4.3s.1-3 .4-4.4c.3-1.7 2.1-3 4.2-3h4.7l4.3.4h10l5-1h6.5c.8 0 1.5.5 1.7 1.1.5 2.2.8 4.5.8 6.8s-.2 4.7-.8 6.8c-.2.7-.9 1.1-1.7 1.1h-6.5l-4.9-.9z" fill="#c1272d"/><path d="M89.3 50.6l-1 .6c-.3.2-.6.5-.7.8l-.5 1.8c0 .2.2.3.4.2l.6-.2 1.2-3.2z" fill="#fcfbfa"/><path d="M88.4 51.7c-.3.2-.6.5-.7.8l-.4 1.5c-.1 0-.2-.1-.1-.2l.5-1.8c.1-.3.3-.6.7-.8l1-.6-.2.7-.8.4z" class="Ar"/><path d="M89.3 63.3l-1-.6c-.3-.2-.6-.5-.7-.8l-.5-1.8c0-.2.2-.3.4-.2l.6.2 1.2 3.2z" fill="#fcfbfa"/><path d="M88.4 62.3c-.3-.2-.6-.5-.7-.8l-.4-1.6c-.1 0-.2.1-.1.2l.5 1.8c.1.3.3.6.7.8l1 .6-.2-.7-.8-.3z" class="Ar"/><path d="M112.3 61.4v-8.9l2.7-1.2c.5-.2 1.1 0 1.3.4a18.75 18.75 0 0 1 0 10.5c-.1.4-.8.6-1.3.4l-2.7-1.2z" fill="#343844"/><path d="M116.6 57c0-1.8-.2-3.5-.7-5.2 0-.1-.1-.2-.2-.2h-.4l-2.5 1.1v8.5l2.5 1.1c.1 0 .3.1.4 0 .1 0 .2-.1.2-.2.5-1.6.7-3.4.7-5.1z" class="BA"/><path d="M101.4 61.4v-8.9l-3.9-1.4c-.5-.2-1 0-1.2.4a15.44 15.44 0 0 0 0 10.8c.1.4.7.6 1.2.4l3.9-1.3zm-4.3-10.8h17.2l-2.4 1.5h-10.4z" class="Ao"/><path d="M99.2 51l2.4.8h10.1l1.4-.8z" class="BA"/><path d="M97.1 63.3h17.2l-2.4-1.5h-10.4z" class="Ao"/><path d="M111.7 62.2h-10.1l-2.4.8h13.9z" class="BA"/><path d="M98.8 50.4l.7-.9c.2-.3.6-.5 1-.6l.4-.1-.7 1.4-1 .3-.3.5-.4-.1.3-.5z" fill="#ed6e64"/><path d="M100.1 50.2l.6-1.3h.2l-.7 1.3-1.1.3-.2.5h-.1l.2-.5z" class="Ao"/><path d="M98.8 63.5l.7.9c.2.3.6.5 1 .6l.4.1-.7-1.4-1-.3-.2-.5-.4.1.2.5z" fill="#ed6e64"/><path d="M100.1 63.7l.6 1.3.2.1-.7-1.4-1.1-.3-.2-.5-.1.1.2.4z" class="Ao"/><g fill="#ff931e"><path d="M172.2 52.3c1 3.9 1 7.9 0 11.9-.2.6-.8 1-1.6 1h-30.3c-2 0-3.7-1.2-3.9-2.8-.5-2.8-.5-5.6 0-8.4.3-1.6 2-2.8 3.9-2.8h30.3c.8.1 1.5.5 1.6 1.1z"/><path d="M136.3,55.2c-0.3,2-0.3,4,0,6h3.8v-6H136.3z"/><path d="M138.4 54.3c-.2 1.3-.3 2.6-.3 4s.1 2.6.3 4c.1.8 1 1.4 2 1.4h32c.8-3.5.8-7.2 0-10.7h-32c-1-.1-1.9.5-2 1.3z"/><path d="M149.6 54.2v8.1L139.5 61c-.4-1.9-.4-3.7 0-5.6l10.1-1.2zm-12.4-1.6c.7-.4 1.6-.6 2.5-.6h27.8c.8 1.9 1.3 4 1.3 6.2 0 2.3-.4 4.4-1.3 6.2h-27.8c-.9 0-1.8-.2-2.5-.6.7.8 1.9 1.3 3.2 1.3h30.7c.1 0 .1 0 .2-.1.1 0 .1-.1.2-.1h0c.1-.1.3-.2.3-.3h0s.1-.1.1-.2h0c0-.1.1-.1.1-.2h0c0-.1.1-.1.1-.2 1-3.9 1-7.9 0-11.9 0-.1 0-.1-.1-.2h0c0-.1-.1-.1-.1-.2h0s-.1-.1-.1-.2h0l-.3-.3c-.1 0-.1-.1-.2-.1s-.1 0-.2-.1h-30.7c-1.3.3-2.5.8-3.2 1.6z"/></g><path d="M163.5 63.2l.7.4c.5.3.2 1-.4 1h-15.6l4.1-1.5 11.2.1z" class="Ao"/><path d="M164 64.1c0 .1-.1.3-.3.3H150l2.3-.8h11.1l.5.4c.1 0 .1 0 .1.1z" class="Aq"/><g class="Ao"><path d="M149 65.1l.6.9c.2.3.5.5.9.6l.4.1-.6-1.4-1-.3-.2-.5-.3.1.2.5z"/><path d="M150.2 65.3l.6 1.3.2.1-.6-1.5-1-.2-.2-.5h-.2l.2.5zm13.3-12l.7-.4c.5-.3.2-1-.4-1h-15.6l4.1 1.5 11.2-.1z"/></g><path d="M164 52.4c0-.1-.1-.3-.3-.3H150l2.3.8h11.1l.5-.4c.1 0 .1 0 .1-.1z" class="Aq"/><g class="Ao"><path d="M149 51.4l.6-.9c.2-.3.5-.5.9-.6l.4-.1-.6 1.4-1 .3-.2.5-.3-.1.2-.5z"/><path d="M150.2 51.2l.6-1.4h.2l-.6 1.4-1 .3-.2.5h-.2l.2-.5z"/></g><path d="M139.7 63.9s-1.7-.1-1.8-2.2h-1s.1 2.2 2.8 2.2z" class="As"/><path d="M139.7 63.9h-.2c-2.3-.3-2.4-2.1-2.4-2.1h-.3c.1-.1.2 2.1 2.9 2.1z" class="Ar"/><path d="M136.9 61.9h.8c.1 1 .5 1.5.9 1.8a3.73 3.73 0 0 0 1.2.2s-1.7-.1-1.8-2.2h-1c-.1 0-.1.1-.1.2z" class="Aq"/><path d="M139.7 52.6s-1.7.1-1.8 2.2h-1s.1-2.2 2.8-2.2z" class="As"/><path d="M139.7 52.6h-.2c-2.3.3-2.4 2.1-2.4 2.1h-.3c.1.1.2-2.1 2.9-2.1z" class="Ar"/><path d="M136.9 54.6h.8c.1-1 .5-1.5.9-1.8a3.73 3.73 0 0 1 1.2-.2s-1.7.1-1.8 2.2h-1c-.1 0-.1-.1-.1-.2zm.9 6.3c-.2-1.8-.2-3.5 0-5.3h-.8c-.2 1.8-.2 3.5 0 5.3h.8z" class="Aq"/><path d="M152.1 53.7v9l-3.1 1.2c-.7.3-1.6 0-1.8-.7-1-3.3-1-6.8 0-10 .2-.6 1.1-1 1.8-.7l3.1 1.2z" class="Ao"/><path d="M151.7 62.5l-2.9 1.1a1.1 1.1 0 0 1-.8 0c-.2-.1-.4-.3-.5-.5-.5-1.6-.8-3.3-.8-4.9 0-1.7.3-3.3.8-4.9.1-.2.2-.4.5-.5a1.1 1.1 0 0 1 .8 0l2.9 1.1v8.6z" class="Aq"/><path d="M164.3 53.7v9s.2.1.4.3c.9.7 2.5.3 2.7-.8.5-2.7.5-5.4 0-8.1-.2-1.1-1.8-1.5-2.7-.8-.2.3-.4.4-.4.4z" class="Ao"/><path d="M167.4 58.2c0 1.3-.1 2.7-.4 4-.1.4-.4.7-.8.8a1.64 1.64 0 0 1-1.2-.2c-.1-.1-.2-.2-.3-.2v-8.8c.1 0 .2-.1.3-.2.3-.3.8-.3 1.2-.2s.7.4.8.8c.3 1.3.4 2.7.4 4z" class="Aq"/><path d="M171.1 51.3c-.3.2-.3.6.3 1.1.7.5.5 2.3 1.2 2.4-.1-.9-.3-1.7-.5-2.5 0-.5-.4-.8-1-1h0zm0 13.8c-.3-.2-.3-.6.3-1.1.7-.5.5-2.3 1.2-2.4-.1.9-.3 1.7-.5 2.5 0 .5-.4.9-1 1h0z" fill="#c1272d"/><path d="M171.8 61h.9c.2-1.8.2-3.6 0-5.5h-.9c.2 1.8.2 3.6 0 5.5z" fill="#ff0"/><path d="M13.5 51.3c-.4 1.8-1.5 3.8-1.5 5.7s1.2 3.8 1.6 5.7c.2 1.1 2.7 1.9 4.6 1.9l6.2-.3h22.4s.1 0 .1-.1c1.8-.9 3-2.5 3.2-4.3l.2-3c0-1-.1-2-.2-3-.3-1.8-1.5-3.4-3.2-4.3l-.1-.1H24.3s-2.3-.3-6.2-.3c-1.8.1-4.3.9-4.6 2.1z" fill="#177494"/><path d="M48.7 57c0 1-.1 2-.2 2.8-.2 1.3-1 2.4-2.2 3.2H24.2s-.1.3-3.9.3c-1.4 0-2.8-.6-3.1-.9l-.7-2.4c-.4-1.1-.8-2.1-.8-3s.4-1.9.8-3c.3-.8.6-1.5.7-2.4.3-.3 1.7-.9 3.1-.9 3.7 0 3.8.2 3.9.3h22.1c1.2.7 2.1 1.9 2.2 3.2.1.8.2 1.7.2 2.8z" fill="#3587a3"/><path d="M42.2 52.2v9.6a12.25 12.25 0 0 0 .9.8c.5.4 1.4.2 1.4-.5.4-3.3.4-6.8 0-10.2-.1-.6-.9-.9-1.4-.5s-.9.8-.9.8z" class="Ao"/><path d="M44.5 57c0 1.7-.1 3.4-.3 5 0 .2-.1.3-.3.4s-.4 0-.5-.1c-.3-.3-.6-.5-.8-.7v-9.2c.1-.1.4-.4.8-.7.1-.1.3-.2.5-.1s.3.2.3.4c.2 1.6.3 3.3.3 5z" class="Aq"/><path d="M30.3 52.2v9.6l-3.5 1.5c-.4.2-.9 0-1.1-.4a19.14 19.14 0 0 1 0-11.6c.1-.4.6-.6 1.1-.4 1.4.4 3.5 1.3 3.5 1.3z" class="Ao"/><path d="M29.9 61.5c-.6.2-2.1.9-3.3 1.4-.1.1-.2.1-.3 0s-.2-.1-.2-.2c-.6-1.9-.9-3.8-.9-5.7s.3-3.9.9-5.7c0-.1.1-.2.2-.2.1-.1.2-.1.3 0l3.3 1.4v9z" class="Aq"/><path d="M41.9 62.2l1.2 1c.3.2.1.7-.3.7H26.3l4.2-1.6 11.4-.1z" class="Ao"/><path d="M42.8 63.5H28.1l2.4-.9h11.2l1.1.9z" class="Aq"/><path d="M41.9 51.7l1.2-1c.3-.2.1-.7-.3-.7H26.3l4.2 1.6 11.4.1z" class="Ao"/><path d="M42.8 50.5l-1.1.9H30.5l-2.4-.9h14.7c0-.1 0-.1 0 0z" class="Aq"/><path d="M13.5 51.2c.8-.7 2.8-1.2 4.3-1.2l6.4.2h21.6c.5 2 .7 4.3.7 6.7s-.3 4.7-.7 6.7H24.1s-2.4.2-6.4.2c-1.5 0-3.4-.5-4.3-1.2.3 1.1 2.8 1.9 4.6 1.9l6.2-.3h22.4s.1 0 .1-.1c.1-.1.2-.1.4-.2 0 0 .1 0 .1-.1.1-.1.2-.1.2-.2l1-1c.8-.9 1.4-1.9 1.6-3.1l.2-3c0-1-.1-2-.2-3-.2-1.1-.7-2.2-1.6-3.1l-1.3-1.3c-.1-.1-.2-.1-.4-.2l-.1-.1H24.3s-2.3-.3-6.2-.3c-1.8.8-4.3 1.6-4.6 2.7z" fill="#3587a3"/><path d="M16 62.7l-1-.5c-.3-.2-.6-.4-.7-.7l-.7-1.9c-.1-.2.1-.4.4-.3l.5.2 1.5 3.2z" class="As"/><path d="M15 61.8c-.3-.2-.6-.4-.7-.7l-.6-1.7c-.1.1-.1.2-.1.3l.7 1.9a1.21 1.21 0 0 0 .7.7l1 .5-.3-.7-.7-.3z" class="Ar"/><path d="M16 51.2l-1 .5c-.3.2-.6.4-.7.7l-.7 1.9c-.1.2.1.4.4.3l.5-.2 1.5-3.2z" class="As"/><path d="M15 52.2c-.3.2-.6.4-.7.7l-.6 1.7c-.1-.1-.1-.2-.1-.3l.7-1.9a1.21 1.21 0 0 1 .7-.7l1-.5-.3.7-.7.3z" class="Ar"/><path d="M14.9 57c0-.5.1-1.1.2-1.6h-2.9c-.1.5-.2 1-.2 1.6s.1 1.1.2 1.6h2.9c-.1-.5-.2-1.1-.2-1.6zm12.3 7.3l.6 1c.2.3.5.5.9.6l.4.1-.6-1.5-1-.3-.2-.5-.3.1.2.5z" fill="#12617c"/><path d="M28.4 64.5l.6 1.4.1.1-.6-1.5-1-.3-.2-.5h-.1l.2.5z" class="Ao"/><path d="M27.2 49.6l.6-1c.2-.3.5-.5.9-.6l.4-.1-.6 1.5-1 .3-.2.5-.3-.1.2-.5z" fill="#12617c"/><path d="M28.4 49.4L29 48h.1l-.6 1.5-1 .3-.2.5-.1-.1.2-.5z" class="Ao"/><path d="M49 52.5c.2.7.6 1.2 1.1 1.5-.1-1-.6-1.9-1.2-2.6-.1.3-.1.7.1 1.1zm0 9c.2-.7.6-1.2 1.1-1.5-.1 1-.6 1.9-1.2 2.6-.1-.3-.1-.7.1-1.1z" class="Az"/><path d="M81 87.7c.4-1.9 1.6-3.8 1.6-5.7s-1.2-3.8-1.6-5.7c-.2-1.1-2.7-1.9-4.6-1.9l-6.2.3H47.8s-.1 0-.1.1c-1.8.9-3 2.5-3.2 4.3l-.2 3c0 1 .1 2 .2 3 .3 1.8 1.5 3.4 3.2 4.3l.1.1h22.4s2.3.3 6.2.3c1.8-.1 4.3-.9 4.6-2.1z" fill="#838936"/><path d="M45.8 82c0-1 .1-2 .2-2.8.2-1.3 1-2.4 2.2-3.2h22.1s.1-.3 3.9-.3c1.4 0 2.8.6 3.1.9L78 79c.4 1.1.8 2.1.8 3s-.4 2-.8 3c-.3.8-.6 1.5-.7 2.4-.3.3-1.7.9-3.1.9-3.7 0-3.8-.2-3.9-.3H48.2c-1.2-.7-2.1-1.9-2.2-3.2-.1-.8-.2-1.7-.2-2.8z" class="BB"/><path d="M52.3 86.8v-9.6s-.4-.4-.9-.8-1.4-.1-1.5.6c-.4 3.3-.4 6.8 0 10.2.1.6.9.9 1.4.5.6-.5 1-.9 1-.9z" class="Ao"/><radialGradient id="U" cx="50.949" cy="82.037" r="3.886" gradientUnits="userSpaceOnUse"><stop offset="0" stop-color="#808183"/><stop offset="1" stop-color="#293237"/></radialGradient><path d="M50 82c0-1.7.1-3.4.3-5 0-.2.1-.3.3-.4s.4 0 .5.1c.3.3.6.5.8.7v9.2c-.1.1-.4.4-.8.7-.1.1-.3.2-.5.1s-.3-.2-.3-.4c-.2-1.6-.3-3.3-.3-5z" fill="url(#U)"/><path d="M64.2 86.8v-9.6l3.5-1.5c.4-.2.9 0 1.1.4C70 80 70 84 68.8 87.9c-.1.4-.6.6-1.1.4-1.5-.6-3.5-1.5-3.5-1.5z" class="Ao"/><radialGradient id="V" cx="66.946" cy="82.057" r="4.551" gradientUnits="userSpaceOnUse"><stop offset="0" stop-color="#808183"/><stop offset="1" stop-color="#293237"/></radialGradient><path d="M64.6 77.5c.6-.2 2.1-.9 3.3-1.4.1-.1.2-.1.3 0s.2.1.2.2c.6 1.9.9 3.8.9 5.7s-.3 3.9-.9 5.7c0 .1-.1.2-.2.2-.1.1-.2.1-.3 0l-3.3-1.4v-9z" fill="url(#V)"/><path d="M52.6 76.8l-1.2-1c-.3-.2-.1-.7.3-.7h16.5L64 76.8H52.6z" class="Ao"/><radialGradient id="W" cx="59.003" cy="75.959" r="5.21" gradientUnits="userSpaceOnUse"><stop offset="0" stop-color="#808183"/><stop offset="1" stop-color="#293237"/></radialGradient><path d="M51.7 75.5h14.7l-2.4.9H52.7l-1-.9z" fill="url(#W)"/><path d="M52.6 87.3l-1.2 1c-.3.2-.1.7.3.7h16.5L64 87.3H52.6z" class="Ao"/><radialGradient id="X" cx="59.013" cy="88.12" r="5.216" gradientUnits="userSpaceOnUse"><stop offset="0" stop-color="#808183"/><stop offset="1" stop-color="#293237"/></radialGradient><path d="M51.7 88.6s0-.1 0 0l1.1-.9H64l2.4.9H51.7z" fill="url(#X)"/><path d="M80.9 87.8c-.8.7-2.8 1.2-4.3 1.2-4 0-6.4-.2-6.4-.2H48.7c-.5-2-.7-4.3-.7-6.7s.3-4.7.7-6.7h21.6s2.4-.2 6.4-.2c1.5 0 3.4.5 4.3 1.2-.3-1.1-2.8-1.9-4.6-1.9l-6.2.3H47.8s-.1 0-.1.1c-.1.1-.2.1-.4.2 0 0-.1 0-.1.1-.1.1-.2.1-.2.2l-1 1c-.8.9-1.4 1.9-1.6 3.1l-.2 3c0 1 .1 2 .2 3 .2 1.1.7 2.2 1.6 3.1l1.3 1.3c.1.1.2.1.4.2l.1.1h22.4s2.3.3 6.2.3c1.8-.8 4.3-1.6 4.5-2.7z" fill="#595b14"/><path d="M78.5 76.3l1 .5c.3.2.6.4.7.7l.7 1.9c.1.2-.1.4-.4.3l-.5-.2-1.5-3.2z" class="As"/><path d="M79.5 77.2c.3.2.6.4.7.7l.6 1.7c.1-.1.1-.2.1-.3l-.7-1.9a1.21 1.21 0 0 0-.7-.7l-1-.5.3.7.7.3z" class="Ar"/><path d="M78.5 87.8l1-.5c.3-.2.6-.4.7-.7l.7-1.9c.1-.2-.1-.4-.4-.3l-.5.2-1.5 3.2z" class="As"/><path d="M79.5 86.8c.3-.2.6-.4.7-.7l.6-1.7c.1.1.1.2.1.3l-.7 1.9a1.21 1.21 0 0 1-.7.7l-1 .5.3-.7.7-.3z" class="Ar"/><path d="M79.6 82c0 .5-.1 1.1-.2 1.6h2.9c.1-.5.2-1.1.2-1.6s-.1-1.1-.2-1.6h-2.9c.1.5.2 1.1.2 1.6z" fill="#666306"/><path d="M67.3 74.7l-.6-1c-.2-.3-.5-.5-.9-.6l-.5-.1.6 1.5 1 .3.2.5.3-.1-.1-.5z" class="BB"/><path d="M66.1 74.5l-.6-1.4-.1-.1.6 1.5.9.3.2.5h.2l-.2-.5z" class="Ao"/><path d="M67.3 89.4l-.6 1c-.2.3-.5.5-.9.6l-.4.1.6-1.5 1-.3.2-.5.3.1-.2.5z" class="BB"/><path d="M66.1 89.6l-.6 1.4-.1.1.6-1.5.9-.4.2-.5.2.1-.2.5z" class="Ao"/><path d="M45.5 86.6c-.2-.7-.6-1.2-1.1-1.5.1 1 .6 1.9 1.2 2.6.1-.4.1-.7-.1-1.1zm0-9.1c-.2.7-.6 1.2-1.1 1.5.1-1 .6-1.9 1.2-2.6.1.3.1.7-.1 1.1z" class="Az"/><path d="M189.9 30.5h-5.7c-.2 0-.3-.1-.3-.3v-.6c0-.2.1-.3.3-.3h5.7c.2 0 .3.1.3.3v.6c0 .2-.1.3-.3.3h0zm0 15.9h-5.7c-.2 0-.3-.1-.3-.3v-.6c0-.2.1-.3.3-.3h5.7c.2 0 .3.1.3.3v.6c0 .1-.1.3-.3.3z" fill="#404041" class="Ap"/><linearGradient id="Y" gradientUnits="userSpaceOnUse" x1="184.006" y1="29.934" x2="189.53" y2="29.934"><stop offset="0" stop-color="#404041"/><stop offset=".27" stop-color="#808184"/><stop offset=".54" stop-color="#a6a8ab"/><stop offset="1" stop-color="#231f20"/></linearGradient><use xlink:href="#v" fill="url(#Y)" class="Ap"/><linearGradient id="Z" gradientUnits="userSpaceOnUse" x1="184.006" y1="29.863" x2="189.53" y2="29.863"><stop offset="0" stop-color="#404041"/><stop offset=".27" stop-color="#808184"/><stop offset=".54" stop-color="#a6a8ab"/><stop offset="1" stop-color="#231f20"/></linearGradient><g class="Ap"><use xlink:href="#v" y="15.9" fill="url(#Z)"/><path d="M164.3 30.1h-5.7c-.2 0-.3-.1-.3-.3v-.6c0-.2.1-.3.3-.3h5.7c.2 0 .3.1.3.3v.6c0 .1-.2.3-.3.3h0zm0 16.7h-5.7c-.2 0-.3-.1-.3-.3v-.6c0-.2.1-.3.3-.3h5.7c.2 0 .3.1.3.3v.6c0 .2-.2.3-.3.3z" fill="#404041"/></g><linearGradient id="a" gradientUnits="userSpaceOnUse" x1="183.936" y1="29.867" x2="189.46" y2="29.867"><stop offset="0" stop-color="#404041"/><stop offset=".27" stop-color="#808184"/><stop offset=".54" stop-color="#a6a8ab"/><stop offset="1" stop-color="#231f20"/></linearGradient><use xlink:href="#v" x="-25.6" y="-0.4" fill="url(#a)" class="Ap"/><linearGradient id="b" gradientUnits="userSpaceOnUse" x1="183.936" y1="29.929" x2="189.46" y2="29.929"><stop offset="0" stop-color="#404041"/><stop offset=".27" stop-color="#808184"/><stop offset=".54" stop-color="#a6a8ab"/><stop offset="1" stop-color="#231f20"/></linearGradient><g class="Ap"><use xlink:href="#v" x="-25.6" y="16.3" fill="url(#b)"/><path d="M153.3 30.7a5.73 5.73 0 0 0-1.1 1.1c-.1.2-.4.5-.3.8.5-.6 1.2-1.3 1.6-1.6s1.1-.8 1.8-1.2c-.5-.1-1.6.7-2 .9z" fill="#f2f2f2"/><path d="M153.4 30.8c-.8.6-1.4 1.3-1.4 1.7.5-.6 1.2-1.2 1.5-1.5.4-.3 1-.8 1.6-1.1-.3 0-1 .4-1.7.9z" fill="#fffbd4"/><path d="M153.3 45a5.73 5.73 0 0 1-1.1-1.1c-.1-.2-.4-.5-.3-.8.5.6 1.2 1.3 1.6 1.6s1.1.8 1.8 1.2c-.5.1-1.6-.7-2-.9z" fill="#f7f7f7"/><path d="M153.4 44.9c-.8-.6-1.4-1.3-1.4-1.7.5.6 1.2 1.2 1.5 1.5.4.3 1 .8 1.6 1.1-.3 0-1-.4-1.7-.9z" fill="#fffbd4"/><g class="BC"><path d="M191.1 45.7l-34.2.7c-.9 0-2.6-1.2-3.3-1.8s-2.4-2.1-2.4-3.1V34c0-1 1.7-2.5 2.4-3.1s2.4-1.8 3.3-1.8l34.2.7c5 .3 5.1 15.8 0 15.9z"/><path d="M152 34.1c0-.2.4-.7.6-.9.4-.5 1-1 1.5-1.5.5-.4 1.1-.8 1.7-1.2.2-.1.8-.4 1.1-.4h0l6.4.5-.1.1c-1.8 5-1.8 9.3 0 14.3l.1.1-6.4.5c-.3 0-.8-.3-1.1-.4a6.57 6.57 0 0 1-1.7-1.2c-.5-.4-1.1-.9-1.5-1.5-.2-.2-.5-.7-.6-.9h0v-7.5z"/></g></g><radialGradient id="c" cx="124.771" cy="125.993" r="9.066" gradientTransform="matrix(4.707900e-11 -1.0486 1.0486 4.707900e-11 40.4345 169.231)" gradientUnits="userSpaceOnUse"><stop offset="0" stop-color="#aeb0b3"/><stop offset="1" stop-color="#808184"/></radialGradient><path d="M168.7 43.8l-5.2.9c-.2 0-.4-.1-.4-.3-1.4-4.4-1.4-8.8 0-13.2.1-.2.2-.3.4-.2l5.2.9c.1 0 .2.1.2.1.1.1.1.2.1.3-.6 3.7-.6 7.3 0 11 0 .1 0 .2-.1.3 0 .1-.1.1-.2.2z" fill="url(#c)" class="Ap"/><radialGradient id="d" cx="165.624" cy="37.975" r="5.338" gradientUnits="userSpaceOnUse"><stop offset="0" stop-color="#808183"/><stop offset="1" stop-color="#293237"/></radialGradient><path d="M168.7 43.8l-5.2.9c-.1 0-.2 0-.3-.1-1.3-4.4-1.4-8.7 0-13.1.1-.2.2-.3.4-.2l5.2.9c.1 0 .1 0 .2.1v.1c-.6 3.7-.6 7.3 0 11 0 .1 0 .2-.1.3 0 0-.1 0-.2.1z" fill="url(#d)" class="Ap"/><linearGradient id="e" gradientUnits="userSpaceOnUse" x1="177.714" y1="37.848" x2="160.958" y2="37.848"><stop offset="0" stop-color="#d0d2d3"/><stop offset=".22" stop-color="#f1f1f2"/><stop offset=".67" stop-color="#f1f1f2"/><stop offset="1" stop-color="#d0d2d3"/></linearGradient><path d="M176.1 43.8h8.4l2.6.1c.7.1 1.4.3 1.8.9l.3.4h-.5l-5.2.1c-.2-.1-.3-.3-.5-.5 0 .2 0 .3-.1.4l-.1.1h-.1l-6.8.2h-.1c-.2-.1-.2-.2-.2-.4-.1.2-.3.4-.5.4h0l-9.7.2h-.7l.5-.5c.5-.5 1.6-.8 2.2-.9 1.4-.3 2.8-.5 4.2-.5h4.5zm-.4-13.2c0-.2.1-.3.2-.4h.2l6.7.2h.1l.1.1c.1.1.1.3.1.4.1-.2.3-.4.5-.5h.2l5 .1h.5l-.3.4c-.4.6-1.2.8-1.8.9-.8.1-1.7.1-2.6.1h-12.8l-4.2-.5c-.6-.1-1.7-.4-2.2-.9l-.5-.5h.7l9.7.2c.2 0 .3.2.4.4z" fill="url(#e)" class="Ap"/><linearGradient id="f" gradientUnits="userSpaceOnUse" x1="179.431" y1="44.327" x2="179.431" y2="45.001"><stop offset="0" stop-color="#403f3a"/><stop offset="1" stop-color="#8b8b83"/></linearGradient><path d="M182.8 45.1l-6.7.2c-.2-.1.1-.9.2-1.1h6.2c.2.2.4.6.3.9z" fill="url(#f)" class="Ap"/><linearGradient id="g" gradientUnits="userSpaceOnUse" x1="185.909" y1="44.247" x2="185.909" y2="44.867"><stop offset="0" stop-color="#231f20"/><stop offset="1" stop-color="#808184"/></linearGradient><path d="M188.7 44.9l-5 .1c-.3-.2-.5-.7-.6-1 2.2.1 4.9-.1 5.6.9z" fill="url(#g)" class="Ap"/><linearGradient id="h" gradientUnits="userSpaceOnUse" x1="179.431" y1="30.695" x2="179.431" y2="31.37"><stop offset="0" stop-color="#403f3a"/><stop offset="1" stop-color="#8b8b83"/></linearGradient><path d="M182.8 30.6l-6.7-.2c-.2.1.1.9.2 1.1h6.2c.2-.2.4-.6.3-.9z" fill="url(#h)" class="Ap"/><linearGradient id="i" gradientUnits="userSpaceOnUse" x1="185.909" y1="30.834" x2="185.909" y2="31.421"><stop offset="0" stop-color="#403f3a"/><stop offset="1" stop-color="#8b8b83"/></linearGradient><path d="M188.7 30.7c-1.7 0-3.3-.1-5-.1-.3.2-.5.7-.6 1 2.2 0 4.9.2 5.6-.9z" fill="url(#i)" class="Ap"/><linearGradient id="j" gradientUnits="userSpaceOnUse" x1="170.64" y1="30.514" x2="170.64" y2="31.325"><stop offset="0" stop-color="#403f3a"/><stop offset="1" stop-color="#8b8b83"/></linearGradient><path d="M175.2 30.5l-9.7-.2c.6.6 2.8 1.2 6.3 1.4h4c-.2-.4-.3-1.2-.6-1.2z" fill="url(#j)" class="Ap"/><linearGradient id="k" gradientUnits="userSpaceOnUse" x1="170.64" y1="44.372" x2="170.64" y2="45.183"><stop offset="0" stop-color="#403f3a"/><stop offset="1" stop-color="#8b8b83"/></linearGradient><path d="M175.2 45.2l-9.7.2c.6-.6 2.8-1.2 6.3-1.4h4c-.2.4-.3 1.2-.6 1.2z" fill="url(#k)" class="Ap"/><radialGradient id="l" cx="125.167" cy="140.835" r="7.253" gradientTransform="matrix(4.707900e-11 -1.0486 1.0486 4.707900e-11 40.4345 169.231)" gradientUnits="userSpaceOnUse"><stop offset="0" stop-color="#808183"/><stop offset="1" stop-color="#293237"/></radialGradient><g class="Ap"><path d="M191.6 37.9c0 2.5-.5 5.1-1.5 5.5.7.6 1.7.9 2.1.5 1.2-.9 1.8-3.5 1.8-6h0c0-2.6-.6-5.1-1.8-6-.4-.4-1.4-.1-2.1.5.9.4 1.4 2.9 1.5 5.5z" fill="url(#l)"/><path d="M166.7 48.1c-.2.1-.5.1-.7 0-.3-.2-.4-.5-.5-.8l-.3-1.2a.76.76 0 0 0-.2-.4v-.1h.1c.3-.1.6-.2.9-.2h.1v.1l.7 2.6h-.1z" class="Aw"/><path d="M166.6 48c-1.2.4-1-1.2-1.6-2.3.3-.1.6-.2.9-.2.3.8.5 1.6.7 2.5z" class="BC"/><path d="M165.076 45.84l1.062-.285.104.386-1.062.285z" class="Aw"/><path d="M165.198 45.9l.87-.233.052.193-.87.233z" fill="#d0d2d3"/><path d="M166.7 27.6c-.2-.1-.5-.1-.7 0-.3.2-.4.5-.5.8l-.3 1.2a.76.76 0 0 1-.2.4v.1h.1c.3.1.6.2.9.2h.1v-.1l.7-2.6h-.1z" class="Aw"/><path d="M166.6 27.7c-1.2-.4-1 1.2-1.6 2.3.3.1.6.2.9.2.3-.8.5-1.6.7-2.5z" class="BC"/><path d="M165.04 29.91l.103-.386 1.063.284-.103.386z" class="Aw"/><path d="M165.17 29.828l.052-.193.87.233-.052.193z" fill="#d0d2d3"/><path d="M174.7 45.7c-.1 0-.8 0-.8-.1v-.1h1.2c0 .1-.2.2-.4.2z" class="Ax"/></g><linearGradient id="m" gradientUnits="userSpaceOnUse" x1="175.035" y1="45.571" x2="173.963" y2="45.589"><stop offset="0" stop-color="#d0d2d3"/><stop offset=".11" stop-color="#f1f1f2"/><stop offset=".68" stop-color="#f1f1f2"/><stop offset="1" stop-color="#d0d2d3"/></linearGradient><g class="Ap"><path d="M175 45.5c0 .1-.2.2-.3.2s-.7 0-.7-.1v-.1h1z" fill="url(#m)"/><path d="M182.3 45.5c-.1 0-.8 0-.8-.1v-.1h1.2c0 .2-.2.2-.4.2z" class="Ax"/></g><linearGradient id="n" gradientUnits="userSpaceOnUse" x1="182.671" y1="45.421" x2="181.6" y2="45.44"><stop offset="0" stop-color="#d0d2d3"/><stop offset=".11" stop-color="#f1f1f2"/><stop offset=".68" stop-color="#f1f1f2"/><stop offset="1" stop-color="#d0d2d3"/></linearGradient><g class="Ap"><path d="M182.7 45.3c0 .1-.2.2-.3.2s-.7 0-.7-.1v-.1c.3.1.6 0 1 0z" fill="url(#n)"/><path d="M174.7 30c-.1 0-.8 0-.8.1v.1h1.2c0-.1-.2-.2-.4-.2z" class="Ax"/></g><linearGradient id="o" gradientUnits="userSpaceOnUse" x1="173.963" y1="30.107" x2="175.035" y2="30.126"><stop offset="0" stop-color="#d0d2d3"/><stop offset=".11" stop-color="#f1f1f2"/><stop offset=".68" stop-color="#f1f1f2"/><stop offset="1" stop-color="#d0d2d3"/></linearGradient><g class="Ap"><path d="M175 30.2c0-.1-.2-.2-.3-.2s-.7 0-.7.1v.1h1z" fill="url(#o)"/><path d="M182.3 30.2c-.1 0-.8 0-.8.1v.1h1.2c0-.2-.2-.2-.4-.2z" class="Ax"/></g><linearGradient id="p" gradientUnits="userSpaceOnUse" x1="181.6" y1="30.256" x2="182.671" y2="30.275"><stop offset="0" stop-color="#d0d2d3"/><stop offset=".11" stop-color="#f1f1f2"/><stop offset=".68" stop-color="#f1f1f2"/><stop offset="1" stop-color="#d0d2d3"/></linearGradient><g class="Ap"><path d="M182.7 30.4c0-.1-.2-.2-.3-.2s-.7 0-.7.1v.1c.3-.1.6 0 1 0z" fill="url(#p)"/><path d="M173 44h0a1.11 1.11 0 0 1-1.1-1.1v-10a1.11 1.11 0 0 1 1.1-1.1h0a1.11 1.11 0 0 1 1.1 1.1V43c0 .5-.5 1-1.1 1z" fill="#29abe2"/><path d="M172 36.9h2.1v1.6H172z" fill="#f7f7f7"/></g><path d="M179.2 34.3l-5.1-.7 3.5 3.9-4-3.4 1 5.2-1.6-5-2 4.8 1.4-5-4.3 2.9 3.9-3.5-5.2.2 5.1-.8-4.5-2.7 4.8 2.1-2.3-4.6 2.9 4.3.6-5.2V32l3.3-4-2.7 4.4 4.9-1.6-4.7 2.2zm0 10.2l-5.1-.7 3.5 3.8-4-3.3 1 5.1-1.6-5-2 4.8 1.4-5-4.3 3 3.9-3.5-5.2.2 5.1-.8-4.5-2.7 4.8 2.1-2.3-4.7 2.9 4.4.6-5.2v5.2l3.3-4.1-2.7 4.5 4.9-1.7-4.7 2.3zm-21.3-12l-5.1-.6 3.5 3.8-4-3.4.9 5.2-1.5-5-2 4.8 1.4-5-4.3 2.9 3.9-3.4-5.3.1 5.2-.8-4.5-2.7 4.8 2.2-2.3-4.7 2.9 4.3.5-5.2.1 5.3 3.3-4.1-2.8 4.4 5-1.6-4.7 2.2zm.6 13.1l-5.2-.6 3.6 3.8-4-3.4.9 5.2-1.6-5-2 4.8 1.4-5-4.3 2.9 3.9-3.4-5.2.1 5.2-.8-4.5-2.7 4.8 2.2-2.4-4.7 2.9 4.3.6-5.2v5.3l3.3-4.1-2.7 4.4 4.9-1.6-4.7 2.2z" fill="#cad5ef"/><path d="M20.3 7.9h10.8v17.2H20.3z" fill="#000052"/><path d="M10.9 7.6h.9l.1-.9h.8l.2-1.8h-.8zm2 20.4l-.2-1.8h-.8l-.1-.9h-.9l1.2 2.7z" fill="#01010a"/><path d="M25.2 7h71.9v19H25.2z" fill="#690303"/><path d="M26 7.6h70.5v17.7H26z" fill="#381e1e"/><path d="M8.5 7.8C7 13.6 7 19.4 8.5 25.1c.1.5.6.9 1.1.9h14.7V7H9.6c-.5 0-1 .3-1.1.8z" fill="#224d6d"/><radialGradient id="q" cx="9.464" cy="17.961" r="7.241" gradientTransform="matrix(1 0 0 0.8849 0 0.5685)" gradientUnits="userSpaceOnUse"><stop offset="0" stop-color="#808183"/><stop offset="1" stop-color="#293237"/></radialGradient><path d="M9.9 16.5c0-3 .4-6 1.1-9H9.6c-.3 0-.5.2-.6.4-.7 2.8-1 5.7-1 8.6 0 2.8.4 5.7 1.1 8.6.1.2.3.4.6.4H11c-.8-3-1.1-6.1-1.1-9z" fill="url(#q)"/><path d="M140.8 31.5v14H37.9l-.1 2.9-13.6-10.1 14.1-9.7-.1 2.9z" fill="#fff" fill-opacity=".56"/><path d="M52.2 38.5h-3v2.4h3.4v1.2h-4.9V34h4.7v1.2h-3.2v2.1h3v1.2zm1.6-.5v-1.7H55l.1.9c.3-.5.8-1 1.8-1 .8 0 1.4.4 1.6 1.1h0c.2-.3.4-.6.7-.7.3-.2.7-.3 1.2-.3 1 0 2 .7 2 2.5v3.4H61V39c0-1-.3-1.5-1-1.5-.5 0-.9.4-1 .8 0 .1-.1.3-.1.5v3.5h-1.4v-3.4c0-.8-.3-1.4-1-1.4-.6 0-.9.4-1.1.8-.1.1-.1.3-.1.5v3.5h-1.4V38z"/><use xlink:href="#w"/><path d="M70.2 38.1v-1.9h1.3v1.1c.3-.8 1-1.2 1.6-1.2h.3v1.4H73a1.3 1.3 0 0 0-1.3 1.1v3.5h-1.5v-4zm9.5-1.8v5c0 1.2-.3 2.1-.9 2.7-.6.5-1.5.7-2.3.7-.7 0-1.5-.2-2-.5l.3-1.1c.4.2 1 .4 1.7.4 1 0 1.7-.5 1.7-1.8v-.5c-.3.5-.9.9-1.7.9-1.5 0-2.5-1.2-2.5-2.9 0-1.9 1.2-3.1 2.7-3.1.9 0 1.4.4 1.7.9h0l.1-.8h1.2zm-1.6 2.3v-.4c-.2-.5-.6-.9-1.2-.9-.8 0-1.4.7-1.4 1.9 0 1 .5 1.8 1.4 1.8.6 0 1-.4 1.2-.9 0-.2.1-.4.1-.5v-1z"/><use xlink:href="#w" x="17.2"/><path d="M87.4 38v-1.7h1.3l.1.9c.3-.5.9-1 1.9-1s2.1.7 2.1 2.5v3.5h-1.5v-3.3c0-.8-.3-1.5-1.1-1.5-.6 0-1 .4-1.2.9 0 .1-.1.3-.1.5v3.4h-1.5V38zm11.2 3.9c-.3.1-.9.3-1.7.3-1.8 0-3-1.2-3-3s1.2-3.1 3.3-3.1c.5 0 1.1.1 1.4.3l-.3 1.1c-.2-.1-.6-.2-1.1-.2-1.1 0-1.8.8-1.8 1.9 0 1.2.8 1.9 1.8 1.9a3.73 3.73 0 0 0 1.2-.2l.2 1z"/><use xlink:href="#x"/><path d="M110 39.8l-.7 2.3h-1.5l2.6-8.1h1.9l2.6 8.1h-1.6l-.7-2.3H110zm2.3-1.1l-.6-2c-.2-.5-.3-1-.4-1.5h0c-.1.5-.2 1-.4 1.5l-.6 2h2zm3.6-5.1h1.5v8.5h-1.5v-8.5zm3.1 0h1.5v8.5H119v-8.5z"/><use xlink:href="#w" x="58.1"/><use xlink:href="#x" x="28.3"/><defs ><path id="s" d="M131.6 21.1c-.2.5-.4.9-.8 1.3l6.7.1c.1-.2-.1-.4-.3-.5s-.3-.2-.5-.2l-.2-.1c-1.2-.5-2.9-.7-4.9-.6z"/><path id="t" d="M137.7 20.1c0 .1.1.2.2.4.6.7 1.9 1 4 .7.2-.1.3-.2.4-.3.2-.1.3-.3.4-.4 0-.6-.2-.9-.2-1-.2.7-.6 1.1-.9 1.1-.9.2-1.7.2-2.4 0-.8-.2-1.1-.5-.9-1 .3-1.4.4-2.8.4-4.2v-.2c.1-1.4 0-2.8-.3-4.1v-.2l-.4-.5v.1a16.78 16.78 0 0 1 .3 4.5v.1c-.1 2-.3 3.5-.6 5z"/><path id="u" d="M98.7 98.8c0-.1-.1-.2-.2-.4-.6-.7-1.9-1-4-.7-.2.1-.3.2-.4.3-.2.1-.3.3-.4.4 0 .6.2.9.2 1 .2-.7.6-1.1.9-1.1.9-.2 1.7-.2 2.4 0 .8.2 1.1.5.9 1-.3 1.4-.4 2.8-.4 4.2v.2c-.1 1.4 0 2.8.3 4.1v.2l.4.5v-.1a16.78 16.78 0 0 1-.3-4.5v-.1c.1-2 .2-3.5.6-5z"/><path id="v" d="M189.9 30.4h-5.7c-.1 0-.2-.1-.2-.2v-.6c0-.1.1-.2.2-.2h5.7c.1 0 .2.1.2.2v.6c0 .1-.1.2-.2.2z"/><path id="w" d="M65 39.6c0 1.1.9 1.5 1.8 1.5.7 0 1.2-.1 1.6-.3l.2 1a5.44 5.44 0 0 1-2 .4c-1.9 0-3-1.2-3-3 0-1.6 1-3.1 2.9-3.1s2.5 1.6 2.5 2.8v.6h-4zm2.6-1c0-.5-.2-1.4-1.2-1.4-.9 0-1.3.8-1.4 1.4h2.6z"/><path id="x" d="M100.8 36.3l1.1 3.1.3 1.1c.1-.3.2-.8.3-1.2l.9-3.1h1.6l-1.5 4c-.8 2.2-1.3 3.2-2 3.8-.6.5-1.2.7-1.5.8l-.3-1.2c.3-.1.6-.2.9-.4a2.36 2.36 0 0 0 .8-.9c.1-.1.1-.2.1-.3s0-.1-.1-.3l-2.1-5.4h1.5z"/></defs></svg>