<svg xmlns="http://www.w3.org/2000/svg" xmlns:xlink="http://www.w3.org/1999/xlink" viewBox="0 0 200 100"><style><![CDATA[.Ap{fill-rule:evenodd}.Aq{fill:#3c4f58}.Ar{fill:#304048}.As{fill:#191c45}.At{fill:#ed1c24}.Au{fill:#fbfaf9}.Av{fill:#e8e5d9}.Aw{fill:#6cb75a}.Ax{fill:#0b7c26}.Ay{fill:#a6a8ab}.Az{fill:#929497}.BA{fill:#0071bc}.BB{stroke-dasharray:12.5333,12.5333}]]></style><path d="M0 0h200v100H0z" fill="#006837"/><path d="M0 8h200v88H0z" fill="#666"/><g fill="none" stroke="#fff" stroke-width="1.5" stroke-miterlimit="10"><path d="M200 31.3H0m200 61H0"/><path d="M200 52.1h-6"/><path d="M181.5 52.1H12.3" class="BB"/><path d="M6 52.1H0m200 21h-6"/><path d="M181.5 73.1H12.3" class="BB"/><path d="M6 73.1H0"/></g><g class="As"><use xlink:href="#AA"/><use xlink:href="#AB"/><path d="M26 44.1c-.3-.2-.6-.5-.9-.7.1.2.1.3.2.5.3.6.6 1.1 1 1.7a32.39 32.39 0 0 0 7.2.8L33 46c-2.8-.1-5.1-.7-7-1.9zm-.8-.3c-.1-.2-.1-.3-.2-.5-.1-.1-.3-.2-.3-.4.1.1.1.2.1.3.1.4.3.6.4.6z"/><use xlink:href="#AC"/></g><use xlink:href="#AD" fill="#ff0"/><use xlink:href="#AE" fill="#fff"/><g class="As"><path d="M23.9 41.3c.2.3.3.6.4.8-.3-1.1-.5-2-.5-2.9V39c.1-.8.2-1.8.6-2.9-.2.3-.3.5-.4.8a6.28 6.28 0 0 0-.3 1.9v.3c0 .9 0 1.6.2 2.2z"/><path d="M23.7 39.1a6.28 6.28 0 0 1 .3-1.9c.2-.3.3-.6.4-.8.1-.1.2-.2.2-.3.5-.6 1.3-1.2 2.1-1.7 1.8-.8 3.9-1.2 5.9-1.2h.1c.2-.2.3-.3.4-.3l.1-.1c-2.8-.1-5.2.4-7.1 1.6-.3.2-.7.5-.9.7-.1.1-.3.2-.3.4s-.2.2-.3.3l-.9 1.2c-.2.7-.3 1.4-.3 2.1h.3z"/><path d="M24.9 35.3c-.1.1-.1.2-.1.3.1-.1.3-.2.3-.4.1-.2.1-.3.2-.4-.1-.1-.3.2-.4.5z"/><use xlink:href="#AF"/></g><use xlink:href="#AG" fill="#ff0"/><use xlink:href="#AH" class="As"/><use xlink:href="#AI" fill="#fff"/><g class="As"><use xlink:href="#AJ"/><use xlink:href="#AK"/><path d="M31.6 38.9c-.1-.1-.2-.2-.3-.1v.8c-.1 2.1.3 4.2 1.3 6.1.2.2.4.4.6.4s.4 0 .6-.1c1.7-.2 3.2-.4 4.5-.8h.1c.4-.1.6-.3.7-.6v-.3c0-.1 0-.1-.1-.2v-.2c-.2-.1-.3-.2-.3-.3-.1 0-.1 0-.1-.1-.1-.1-.2-.2-.3-.2.1.3 0 .6.2.9.1.2-.3.4-1.1.6-.5.2-1.2.3-2.1.3h0c-.4.1-.9.1-1.3.1-.4-.1-.8-.5-1-1.4a13.49 13.49 0 0 1-.7-4.4c-.4.1-.6-.2-.7-.5z"/><use xlink:href="#AL"/><path d="M33.8 31.8c-.3 0-.5 0-.9-.1l.6.7h1.9l.3-.6h-1.9z"/><path d="M33 31.8c-.2 0-.3-.1-.4-.1.3.2.6.4.9.8h.1l-.6-.7zm.1 1.1c.1-.1.2-.1.2-.1 0 .1 0 .1-.2.1h0z"/><use xlink:href="#AM"/><path d="M35.5 32.3l-.1.2h-1.1l2.1.4-.3-.4 6.7.1H44l6.7.1c.1.2-.1.4-.3.5s-.3.2-.5.2c.2-.1.3-.1.5-.2.4-.2.5-.4.4-.7h-.2l-14.5-.2c.3-.1.4-.3.5-.6l.3-.9c.1-.1 0-.2-.1-.2l-.4 1.2c-.2.3-.3.5-.5.5l-.1.2-.3-.1v-.1z"/></g><radialGradient id="A" cx="118.397" cy="-6.423" r=".837" gradientTransform="matrix(4.908900e-11 -1 1.0934 4.489700e-11 43.1875 150.0678)" gradientUnits="userSpaceOnUse"><stop offset="0" stop-color="#808183"/><stop offset="1" stop-color="#293237"/></radialGradient><path d="M35.8 32.7l.1-.2c.2-.1.4-.2.5-.5l.4-1.2h-.1c-.4-.1-.7.1-.9.6l-.2.6-.2.4.1.1-.1.3.4-.1z" fill="url(#A)"/><g class="As"><use xlink:href="#AN"/><use xlink:href="#AO"/><path d="M43.2 32.6h-.4v.1l1 1.1h.3a2.73 2.73 0 0 0-.9-1.2zm-2.5-.8h2.1c-.2-.2-.5-.2-1.1-.2l-1 .2z"/><path d="M43 31.9h-.1c.2.2.3.4.3.6h.1c-.1-.3-.2-.5-.3-.6zm-3.9 2.7h0l.1.1a112.07 112.07 0 0 0 11.7.3v-.1c.1-.1.1-.2.1-.2-4.2.1-8.2.1-11.8-.2-.1 0-.1 0-.1.1z"/><path d="M44 32.6h-.6l.9 1.2h.5c-.2-.5-.5-.8-.8-1.2z"/><path d="M44.1 33.8h-.3l.1.1c.1 0 .2 0 .2-.1l.1.1h.5c0-.1 0-.1-.1-.1h-.5c-.2-.5-.5-.8-.9-1.2H43c.6.3.9.7 1.1 1.2z"/><path d="M44.7 33.8c0 .1 0 .1 0 0 2.1.1 3.7 0 5-.4l.2-.1c.2-.1.3-.2.5-.2.3-.2.3-.4.3-.5H44c.3.4.6.7.7 1.2z"/><use xlink:href="#AP"/><use xlink:href="#AQ"/><path d="M32.6 47h.2l.8-.7h-.2l-.8.7z"/><use xlink:href="#AR"/><path d="M34.1 46.3h-.5l-.8.7c.3 0 .5-.1.9-.1l1.8.1-.2-.5-.1-.2h-1.1z"/></g><radialGradient id="B" cx="102.906" cy="-6.513" r=".826" gradientTransform="matrix(4.908900e-11 -1 1.0934 4.489700e-11 43.1875 150.0678)" gradientUnits="userSpaceOnUse"><stop offset="0" stop-color="#808183"/><stop offset="1" stop-color="#293237"/></radialGradient><use xlink:href="#AS" fill="url(#B)"/><path d="M36.7 48.1c.1-.1.2-.1.1-.2l-.3-.9c-.2-.4-.3-.6-.5-.6l14.6.2c.2-.2 0-.5-.4-.7-.2-.1-.3-.1-.5-.2.2.1.3.2.5.2.3.2.3.4.3.5l-6.7-.1h-1.2l-6.8-.1.3-.4-2.1.3 1.1.1.1.2.1-.1V46l.3-.1.1.2c.2.1.4.2.5.5l.5 1.5z" class="As"/><radialGradient id="C" cx="110.615" cy="-7.319" r="4.801" gradientTransform="matrix(4.908900e-11 -1 1.0934 4.489700e-11 43.1875 150.0678)" gradientUnits="userSpaceOnUse"><stop offset="0" stop-color="#808183"/><stop offset="1" stop-color="#293237"/></radialGradient><use xlink:href="#AT" fill="url(#C)"/><g class="As"><use xlink:href="#AU"/><path d="M35.9 46.4c.3.1.4.3.5.6h6.5c.2-.2.3-.4.3-.6h-7.3zm3.1-2.2v.2c3.7-.3 7.6-.2 11.8 0-.1-.1-.1-.2-.2-.4h-.3c-3.8-.1-7.5-.1-11 .1-.1.1-.2.1-.3.1h0z"/><path d="M42.6 47.1h-2.1c.1.1.4.2.9.2.6 0 1-.1 1.2-.2zm.1-.8h0l.5.1c.3-.4.7-.8.9-1.2h-.3c-.4.4-.7.8-1.1 1.1z"/><path d="M43.1 46.5c0 .2-.1.4-.3.6h.1l.3-.6h-.1z"/><use xlink:href="#AV"/><path d="M43.3 46.3h.5c.3-.4.6-.8.8-1.2h-.4c-.3.5-.5.9-.9 1.2z"/><use xlink:href="#AW"/><use xlink:href="#AX"/><use xlink:href="#AY"/><use xlink:href="#AZ"/><path d="M51.1 43.7c-.2.5.2.8.9 1s1.6.2 2.4 0c.4-.1.7-.5.9-1.1-.7-3.7-2.1-6.4-4.2-8 .3 1.4.3 2.8.3 4.1v.2c.2 1 0 2.4-.3 3.8zm-1.4 3.5h.1c.4-.2.7-.4.8-.7h-.1c-.1.3-.4.5-.8.7z"/><path d="M50.6 46.5a1.85 1.85 0 0 1-.8.7c1.7.1 3.5-.1 5.1-.3-1.5.1-2.9 0-4.3-.4z"/><use xlink:href="#Aa"/><use xlink:href="#Ab"/><path d="M55.2 45c-.1.2.1.4.3.4 1.7.2 2.9-1 3.5-3.5.2-.8.2-1.5.2-2.2v-.1c0-1.1-.1-2.3-.4-3.5V36c-.1-.3-.2-.5-.2-.8-.1-.5-.6-.9-1.6-1.5h0-.1c-.2 0-.3 0-.4-.1h-.1c-.5.1-.8.2-.7.4.5.6.9 1.4 1.1 2.3a12.59 12.59 0 0 1 0 6.1c-.2.8-.6 1.5-1.2 1.8a.76.76 0 0 0-.2.4c.1.2 0 .3-.2.4zm1.6 1.5h0c.6.1 1.1 0 1.4-.2s.5-.5.8-1c-.6.7-1.3 1.1-2.2 1.2z"/><use xlink:href="#Ac"/><path d="M55.5 43.5c.1.2 0 .5.2 1 .1-.1.2-.2.2-.4.5-.9.8-2.5.9-4.6v-.2c0-3.2-.6-5-1.8-5.7-2.1-.2-3.4 0-4 .7-.1.1-.1.2-.1.2l.4.5c-.1-.4.2-.7.9-.9.8-.2 1.6-.2 2.4 0s1.3 1.9 1.3 5.1v.2c0 2-.1 3.3-.4 4.1z"/><use xlink:href="#Ad"/><use xlink:href="#Ae"/><path d="M50.2 31.9H50c.3.2.4.4.5.7h.2c-.1-.3-.3-.6-.5-.7z"/><use xlink:href="#Af"/><use xlink:href="#Ag"/><path d="M60 36.8c.1-.3.1-.8 0-1.4-.1-.2-.2-.5-.2-.7-.1-.4-.3-.6-.7-.8l-.1.1-1.9-.3c1 .5 1.5 1 1.6 1.5.1.3.2.5.2.8h0v.1l.3.8a.78.78 0 0 0 .8-.1z"/><use xlink:href="#Ah"/></g><linearGradient id="D" gradientUnits="userSpaceOnUse" x1="39.969" y1="32.449" x2="39.951" y2="34.16"><stop offset="0" stop-color="#272626"/><stop offset="1" stop-color="#808183"/></linearGradient><use xlink:href="#Ai" fill="url(#D)"/><linearGradient id="E" gradientUnits="userSpaceOnUse" x1="47.351" y1="32.519" x2="47.333" y2="34.237"><stop offset="0" stop-color="#272626"/><stop offset="1" stop-color="#808183"/></linearGradient><use xlink:href="#Aj" fill="url(#E)"/><linearGradient id="F" gradientUnits="userSpaceOnUse" x1="39.825" y1="45.08" x2="39.809" y2="46.612"><stop offset="0" stop-color="#272626"/><stop offset="1" stop-color="#808183"/></linearGradient><use xlink:href="#Ak" fill="url(#F)"/><linearGradient id="G" gradientUnits="userSpaceOnUse" x1="47.212" y1="45.155" x2="47.196" y2="46.681"><stop offset="0" stop-color="#272626"/><stop offset="1" stop-color="#808183"/></linearGradient><use xlink:href="#AW" fill="url(#G)"/><linearGradient id="H" gradientUnits="userSpaceOnUse" x1="50.439" y1="42.647" x2="57.268" y2="34.453"><stop offset="0" stop-color="#272626"/><stop offset="1" stop-color="#808183"/></linearGradient><use xlink:href="#AY" fill="url(#H)"/><linearGradient id="I" gradientUnits="userSpaceOnUse" x1="55.952" y1="36.799" x2="48.529" y2="45.855"><stop offset="0" stop-color="#030405"/><stop offset="1" stop-color="#808183"/></linearGradient><use xlink:href="#Al" fill="url(#I)"/><radialGradient id="J" cx="80.875" cy="37.467" r="4.568" gradientTransform="matrix(1.542726e-02 -1.3482 -1.2387 -1.185662e-02 97.3858 150.5713)" gradientUnits="userSpaceOnUse"><stop offset="0" stop-color="#808183"/><stop offset="1" stop-color="#293237"/></radialGradient><path d="M52.2 34.5c-.8.2-1 .5-.9.9v.2c.3 1.4.3 2.8.3 4.1v.2c0 1.4-.1 2.8-.4 4.2-.2.5.2.8.9 1s1.6.2 2.4 0c.4-.1.7-.5.9-1.1.3-.8.5-2.1.5-3.9v-.2c0-3.2-.5-4.9-1.3-5.1-.8-.5-1.6-.5-2.4-.3z" fill="url(#J)"/><linearGradient id="K" gradientUnits="userSpaceOnUse" x1="40.511" y1="41.914" x2="31.142" y2="37.41"><stop offset="0" stop-color="#363639"/><stop offset=".264" stop-color="#040506"/><stop offset=".438" stop-color="#555659"/><stop offset="1" stop-color="#030405"/></linearGradient><use xlink:href="#Am" fill="url(#K)"/><g class="At"><use xlink:href="#AA" x="86" y="-21"/><use xlink:href="#AB" x="86" y="-21"/><path d="M112 23.1c-.3-.2-.6-.5-.9-.7.1.2.1.3.2.5.3.6.6 1.1 1 1.7a32.39 32.39 0 0 0 7.2.8l-.5-.4c-2.8-.1-5.1-.7-7-1.9zm-.8-.3c-.1-.2-.1-.3-.2-.5-.1-.1-.3-.2-.3-.4.1.1.1.2.1.3.1.4.3.6.4.6z"/><use xlink:href="#AC" x="86" y="-21"/></g><use xlink:href="#AD" x="86" y="-21" fill="#ff0"/><use xlink:href="#AE" x="86" y="-21" fill="#fff"/><g class="At"><path d="M109.9 20.3c.2.3.3.6.4.8-.3-1.1-.5-2-.5-2.9V18c.1-.8.2-1.8.6-2.9-.2.3-.3.5-.4.8a6.28 6.28 0 0 0-.3 1.9v.3c0 .9 0 1.6.2 2.2z"/><use xlink:href="#An"/><path d="M110.9 14.3c-.1.1-.1.2-.1.3.1-.1.3-.2.3-.4.1-.2.1-.3.2-.4-.1-.1-.3.2-.4.5z"/><use xlink:href="#AF" x="86" y="-21"/></g><use xlink:href="#AG" x="86" y="-21" fill="#ff0"/><use xlink:href="#AH" x="86" y="-21" class="At"/><use xlink:href="#AI" x="86" y="-21" fill="#fff"/><g class="At"><use xlink:href="#AJ" x="86" y="-21"/><use xlink:href="#AK" x="86" y="-21"/><path d="M117.6 17.9c-.1-.1-.2-.2-.3-.1v.8c-.1 2.1.3 4.2 1.3 6.1.2.2.4.4.6.4s.4 0 .6-.1c1.7-.2 3.2-.4 4.5-.8h.1c.4-.1.6-.3.7-.6v-.3c0-.1 0-.1-.1-.2-.1 0-.1 0-.1-.1-.2-.1-.3-.2-.3-.3-.1 0-.1 0-.1-.1-.1-.1-.2-.2-.3-.2.1.3 0 .6.2.9.1.2-.3.4-1.1.6-.5.2-1.2.3-2.1.3h0c-.4.1-.9.1-1.3.1-.4-.1-.8-.5-1-1.4a13.49 13.49 0 0 1-.7-4.4c-.3 0-.5-.3-.6-.6z"/><use xlink:href="#AL" x="86" y="-21"/><path d="M119.8 10.8c-.3 0-.5 0-.9-.1l.6.7h1.9l.3-.6h-1.9z"/><path d="M119 10.8c-.2 0-.3-.1-.4-.1.3.2.6.4.9.8h.1l-.6-.7zm.1 1.1c.1-.1.2-.1.2-.1 0 .1 0 .1-.2.1h0z"/><use xlink:href="#AM" x="86" y="-21"/><path d="M121.5 11.3l-.1.2h-1.1l2.1.4-.3-.4 6.7.1h1.2l6.7.1c.1.2-.1.4-.3.5s-.3.2-.5.2c.2-.1.3-.1.5-.2.4-.2.5-.4.4-.7h-.2l-14.5-.2c.3-.1.4-.3.5-.6l.3-.9c.1-.1 0-.2-.1-.2l-.4 1.2c-.2.3-.3.5-.5.5l-.1.2-.3-.1v-.1z"/></g><radialGradient id="L" cx="139.397" cy="72.233" r=".837" gradientTransform="matrix(4.908900e-11 -1 1.0934 4.489700e-11 43.1875 150.0678)" gradientUnits="userSpaceOnUse"><stop offset="0" stop-color="#808183"/><stop offset="1" stop-color="#293237"/></radialGradient><path d="M121.8 11.7l.1-.2c.2-.1.4-.2.5-.5l.4-1.2h-.1c-.4-.1-.7.1-.9.6l-.2.6-.2.4.1.1-.1.3.4-.1z" fill="url(#L)"/><g class="At"><use xlink:href="#AN" x="86" y="-21"/><use xlink:href="#AO" x="86" y="-21"/><path d="M129.2 11.6h-.4v.1l1 1.1h.3a2.73 2.73 0 0 0-.9-1.2zm-2.5-.8h2.1c-.2-.2-.5-.2-1.1-.2l-1 .2z"/><path d="M129 10.9h-.1c.2.2.3.4.3.6h.1c-.1-.3-.2-.5-.3-.6zm-3.9 2.7h0l.1.1c3.7.3 7.6.4 11.6.3v-.1c.1-.1.1-.2.1-.2-4.2.1-8.2.1-11.8-.2v.1z"/><path d="M130 11.6h-.6l.9 1.2h.5c-.2-.5-.5-.8-.8-1.2z"/><path d="M130.1 12.8h-.3l.1.1c.1 0 .2 0 .2-.1l.1.1h.5c0-.1 0-.1-.1-.1h-.5c-.2-.5-.5-.8-.9-1.2h-.2c.6.3.9.7 1.1 1.2z"/><path d="M130.7 12.8c0 .1 0 .1 0 0 2.1.1 3.7 0 5-.4l.2-.1c.2-.1.3-.2.5-.2.3-.2.3-.4.3-.5l-6.7-.1c.3.5.6.8.7 1.3z"/><use xlink:href="#AP" x="86" y="-21"/><use xlink:href="#AQ" x="86" y="-21"/><path d="M118.6 26h.2l.8-.7h-.2l-.8.7z"/><use xlink:href="#AR" x="86" y="-21"/><path d="M120.1 25.3h-.5l-.8.7c.3 0 .5-.1.9-.1l1.8.1-.2-.5-.1-.2h-1.1z"/></g><radialGradient id="M" cx="123.906" cy="72.143" r=".826" gradientTransform="matrix(4.9089e-11,-1,1.0934,4.4897e-11,-42.8125,171.0678)" gradientUnits="userSpaceOnUse"><stop offset="0" stop-color="#808183"/><stop offset="1" stop-color="#293237"/></radialGradient><use xlink:href="#AS" x="86" y="-21" fill="url(#M)"/><path d="M122.7 27.1c.1-.1.2-.1.1-.2l-.3-.9c-.2-.4-.3-.6-.5-.6l14.6.2c.2-.2 0-.5-.4-.7-.2-.1-.3-.1-.5-.2.2.1.3.2.5.2.3.2.3.4.3.5l-6.7-.1h-1.2l-6.8-.1.3-.4-2.1.3 1.1.1.1.2.1-.1-.1-.3.3-.1.1.2c.2.1.4.2.5.5l.6 1.5z" class="At"/><radialGradient id="N" cx="131.615" cy="71.337" r="4.801" gradientTransform="matrix(4.9089e-11,-1,1.0934,4.4897e-11,-42.8125,171.0678)" gradientUnits="userSpaceOnUse"><stop offset="0" stop-color="#808183"/><stop offset="1" stop-color="#293237"/></radialGradient><use xlink:href="#AT" x="86" y="-21" fill="url(#N)"/><g class="At"><use xlink:href="#AU" x="86" y="-21"/><path d="M121.9 25.4c.3.1.4.3.5.6h6.5c.2-.2.3-.4.3-.6h-7.3zm3.1-2.2v.2c3.7-.3 7.6-.2 11.8 0-.1-.1-.1-.2-.2-.4h-.3c-3.8-.1-7.5-.1-11 .1-.1.1-.2.1-.3.1h0z"/><path d="M128.6 26.1h-2.1c.1.1.4.2.9.2.6 0 1-.1 1.2-.2zm.1-.8h0l.5.1c.3-.4.7-.8.9-1.2h-.3c-.4.4-.7.8-1.1 1.1z"/><path d="M129.1 25.5c0 .2-.1.4-.3.6h.1l.3-.6h-.1z"/><use xlink:href="#AV" x="86" y="-21"/><path d="M129.3 25.3h.5c.3-.4.6-.8.8-1.2h-.4c-.3.5-.5.9-.9 1.2z"/><use xlink:href="#AW" x="86" y="-21"/><use xlink:href="#AX" x="86" y="-21"/><use xlink:href="#AY" x="86" y="-21"/><use xlink:href="#AZ" x="86" y="-21"/><path d="M137.1 22.7c-.2.5.2.8.9 1 .8.2 1.6.2 2.4 0 .4-.1.7-.5.9-1.1-.7-3.7-2.1-6.4-4.2-8 .3 1.4.3 2.8.3 4.1v.2c.2 1 0 2.4-.3 3.8zm-1.4 3.5h.1c.4-.2.7-.4.8-.7h-.1c-.1.3-.4.5-.8.7z"/><path d="M136.6 25.5a1.85 1.85 0 0 1-.8.7c1.7.1 3.5-.1 5.1-.3-1.5.1-2.9 0-4.3-.4z"/><use xlink:href="#Aa" x="86" y="-21"/><use xlink:href="#Ab" x="86" y="-21"/><path d="M141.2 24c-.1.2.1.4.3.4 1.7.2 2.9-1 3.5-3.5.2-.8.2-1.5.2-2.2v-.1c0-1.1-.1-2.3-.4-3.5V15c-.1-.3-.2-.5-.2-.8-.1-.5-.6-.9-1.6-1.5h0-.1c-.2 0-.3 0-.4-.1h-.1c-.5.1-.8.2-.7.4.5.6.9 1.4 1.1 2.3a12.59 12.59 0 0 1 0 6.1c-.2.8-.6 1.5-1.2 1.8a.76.76 0 0 0-.2.4c.1.2 0 .3-.2.4zm1.6 1.5h0c.6.1 1.1 0 1.4-.2s.5-.5.8-1c-.6.7-1.3 1.1-2.2 1.2z"/><use xlink:href="#Ac" x="86" y="-21"/><path d="M141.5 22.5c.1.2 0 .5.2 1 .1-.1.2-.2.2-.4.5-.9.8-2.5.9-4.6v-.2c0-3.2-.6-5-1.8-5.7-2.1-.2-3.4 0-4 .7-.1.1-.1.2-.1.2l.4.5c-.1-.4.2-.7.9-.9.8-.2 1.6-.2 2.4 0 .9.2 1.3 1.9 1.3 5.1v.2c0 2-.1 3.3-.4 4.1z"/><use xlink:href="#Ad" x="86" y="-21"/><use xlink:href="#Ae" x="86" y="-21"/><path d="M136.2 10.9h-.2c.3.2.4.4.5.7h.2c-.1-.3-.3-.6-.5-.7z"/><use xlink:href="#Af" x="86" y="-21"/><use xlink:href="#Ag" x="86" y="-21"/><path d="M146 15.8c.1-.3.1-.8 0-1.4-.1-.2-.2-.5-.2-.7-.1-.4-.3-.6-.7-.8h-.1l-1.9-.3c1 .5 1.5 1 1.6 1.5.1.3.2.5.2.8h0v.1l.3.8c.3.2.5.2.8 0z"/><use xlink:href="#Ah" x="86" y="-21"/></g><linearGradient id="O" gradientUnits="userSpaceOnUse" x1="39.968" y1="32.449" x2="39.95" y2="34.16"><stop offset="0" stop-color="#272626"/><stop offset="1" stop-color="#808183"/></linearGradient><use xlink:href="#Ai" x="86" y="-21" fill="url(#O)"/><linearGradient id="P" gradientUnits="userSpaceOnUse" x1="47.35" y1="32.519" x2="47.332" y2="34.237"><stop offset="0" stop-color="#272626"/><stop offset="1" stop-color="#808183"/></linearGradient><use xlink:href="#Aj" x="86" y="-21" fill="url(#P)"/><linearGradient id="Q" gradientUnits="userSpaceOnUse" x1="39.823" y1="45.079" x2="39.807" y2="46.612"><stop offset="0" stop-color="#272626"/><stop offset="1" stop-color="#808183"/></linearGradient><use xlink:href="#Ak" x="86" y="-21" fill="url(#Q)"/><linearGradient id="R" gradientUnits="userSpaceOnUse" x1="47.211" y1="45.155" x2="47.195" y2="46.681"><stop offset="0" stop-color="#272626"/><stop offset="1" stop-color="#808183"/></linearGradient><use xlink:href="#AW" x="86" y="-21" fill="url(#R)"/><linearGradient id="S" gradientUnits="userSpaceOnUse" x1="50.438" y1="42.647" x2="57.267" y2="34.452"><stop offset="0" stop-color="#272626"/><stop offset="1" stop-color="#808183"/></linearGradient><use xlink:href="#AY" x="86" y="-21" fill="url(#S)"/><linearGradient id="T" gradientUnits="userSpaceOnUse" x1="55.95" y1="36.799" x2="48.527" y2="45.855"><stop offset="0" stop-color="#030405"/><stop offset="1" stop-color="#808183"/></linearGradient><use xlink:href="#Al" x="86" y="-21" fill="url(#T)"/><radialGradient id="U" cx="97.06" cy="-31.759" r="4.568" gradientTransform="matrix(1.542726e-02 -1.3482 -1.2387 -1.185662e-02 97.3858 150.5713)" gradientUnits="userSpaceOnUse"><stop offset="0" stop-color="#808183"/><stop offset="1" stop-color="#293237"/></radialGradient><path d="M138.2 13.5c-.8.2-1 .5-.9.9v.2c.3 1.4.3 2.8.3 4.1v.2c0 1.4-.1 2.8-.4 4.2-.2.5.2.8.9 1 .8.2 1.6.2 2.4 0 .4-.1.7-.5.9-1.1.3-.8.5-2.1.5-3.9v-.2c0-3.2-.5-4.9-1.3-5.1-.8-.5-1.6-.5-2.4-.3z" fill="url(#U)"/><linearGradient id="V" gradientUnits="userSpaceOnUse" x1="40.51" y1="41.912" x2="31.141" y2="37.408"><stop offset="0" stop-color="#363639"/><stop offset=".264" stop-color="#040506"/><stop offset=".438" stop-color="#555659"/><stop offset="1" stop-color="#030405"/></linearGradient><use xlink:href="#Am" x="86" y="-21" fill="url(#V)"/><path d="M193.3 11.2c1.1 4.4 1 8.9-.1 13.4-.2.7-.9 1.2-1.8 1.2-10.3 0-24-.1-34.3-.2-2.2 0-4.1-1.4-4.4-3.2a29.64 29.64 0 0 1 0-9.4c.3-1.8 2.2-3.1 4.5-3.1l34.3.2c.9-.1 1.6.5 1.8 1.1z" class="Aw"/><path d="M152.6 14.3c-.3 2.2-.3 4.5 0 6.8h4.3v-6.8h-4.3z" fill="#231f20"/><g class="Aw"><path d="M154.9 13.3c-.3 1.5-.4 2.9-.4 4.4s.1 3 .4 4.4c.2.9 1.1 1.6 2.2 1.6l36.3.2c.9-4 .9-8 .1-12l-36.2-.2c-1.2 0-2.2.7-2.4 1.6z"/><path d="M167.6 13.2v9.1l-11.4-1.5c-.4-2.1-.4-4.2 0-6.3l11.4-1.3zm-14-1.9c.8-.4 1.8-.6 2.9-.6l31.5.1c.9 2.1 1.4 4.4 1.4 7s-.5 4.9-1.4 7l-31.5-.1c-1.1 0-2-.3-2.9-.6.8.9 2.2 1.5 3.6 1.5l34.7.1c.1 0 .2-.1.3-.1h.1c.1-.1.2-.1.2-.1h.1c.1-.1.2-.1.2-.1h0c.2-.1.3-.2.4-.3h0l.2-.2c.1-.1.1-.2.1-.2h0c.1-.1.1-.2.1-.2 1.1-4.4 1.1-8.9.1-13.4 0-.1-.1-.2-.1-.2h0c-.1-.1-.1-.2-.1-.2h0c-.1-.1-.1-.2-.2-.2h0c-.1-.1-.3-.2-.4-.3h0c-.1-.1-.1-.1-.2-.1h-.1c-.1-.1-.2-.1-.2-.1h-.1c-.1-.1-.2-.1-.3-.1h-.4l-34.4.1c-1.5-.1-2.8.4-3.6 1.3z"/></g><path d="M183.4 23.4l.8.5c.6.4.2 1.2-.5 1.1h-17.8l4.7-1.6h12.8z" class="Ar"/><path d="M183.9 24.4c0 .1-.1.3-.3.3l-15.6-.1 2.6-.9 12.6.1.6.4c.1.1.1.2.1.2z" class="Aq"/><path d="M167 25.4l.7 1c.2.3.6.6 1.1.6l.4.1-.7-1.6-1.1-.3-.3-.5-.4.1.3.6z" class="Aw"/><path d="M168.3 25.7l.6 1.5.3.1-.8-1.7-1-.3-.3-.5h-.1l.2.6zm15.1-13.5l.8-.5c.6-.4.3-1.1-.5-1.2H166l4.7 1.7h12.7z" class="Ar"/><path d="M184 11.2c0-.1-.1-.3-.3-.3l-15.6-.1 2.6.9 12.6.1.6-.4c.1 0 .1-.1.1-.2z" class="Aq"/><path d="M167 10.1l.7-1c.2-.3.6-.6 1.1-.6l.4-.1-.7 1.6-1.1.3-.3.5-.4-.1.3-.6z" class="Aw"/><path d="M168.4 9.8l.6-1.4.3-.1-.8 1.6-1.1.3-.2.5h-.2l.3-.6z" class="Ar"/><path d="M156.4 24.1s-2-.1-2-2.5h-1.1c-.1 0 0 2.4 3.1 2.5z" class="Au"/><path d="M156.4 24.1s-.1 0-.2-.1c-2.6-.3-2.7-2.4-2.7-2.4h-.3s.1 2.4 3.2 2.5z" class="Av"/><path d="M153.2 21.8h.9c.1 1.1.5 1.7 1 2 .4.1.8.2 1.3.2 0 0-2-.1-2-2.5h-1.1c-.1.1-.1.2-.1.3z" class="Aq"/><path d="M156.5 11.3s-2 0-2.1 2.4h-1.1c0 .1 0-2.3 3.2-2.4z" class="Au"/><path d="M156.5 11.3s-.1 0-.2.1c-2.6.2-2.7 2.4-2.7 2.4h-.3s0-2.4 3.2-2.5z" class="Av"/><path d="M153.3 13.6h.9c.1-1.1.5-1.7 1-2 .4-.1.8-.2 1.3-.2 0 0-2 0-2.1 2.4h-1.1v-.2z" class="Aq"/><path d="M154.2 20.7c-.2-2-.2-4 0-5.9h-.9c-.2 2-.2 4 0 5.9h.9z" fill="#8ac26e"/><path d="M170.4 12.7v10.1l-3.6 1.3c-.8.3-1.8-.1-2-.8-1.1-3.7-1.1-7.6.1-11.3.2-.7 1.2-1.1 2-.8 1.7.8 3.5 1.5 3.5 1.5z" class="Ar"/><path d="M170 22.6l-3.3 1.2c-.3.1-.6.1-.9 0s-.4-.3-.5-.5c-.6-1.8-.9-3.7-.9-5.5s.3-3.8.9-5.5c.1-.3.3-.4.5-.5.3-.1.6-.1.9 0l3.2 1.3.1 9.5z" class="Aq"/><path d="M184.4 12.8v10.1s.2.2.4.3c1.1.8 2.9.3 3.1-.9a23.23 23.23 0 0 0 0-9.1c-.2-1.2-2-1.7-3.1-.9-.2.3-.4.5-.4.5z" class="Ar"/><path d="M187.9 17.8c0 1.5-.2 3-.5 4.5-.1.4-.4.7-.9.9s-1 0-1.4-.3c-.1-.1-.3-.2-.3-.3v-9.8l.3-.3c.4-.3.9-.4 1.4-.3.5.2.8.5.9.9.3 1.7.5 3.3.5 4.7z" class="Aq"/><path d="M192.1 10.1c-.3.3-.4.6.4 1.3s.5 2.6 1.3 2.7c-.1-.9-.3-1.9-.5-2.9-.1-.5-.6-1-1.2-1.1h0zm-.1 15.5c-.3-.3-.4-.6.4-1.3.8-.6.5-2.6 1.4-2.7-.1.9-.3 1.9-.5 2.9a1.63 1.63 0 0 1-1.3 1.1h0z" fill="#ef7b6f"/><path d="M192.8 21h1.1c.3-2 .3-4.1 0-6.1h-1.1c.3 2 .3 4 0 6.1z" fill="#f1f2f2"/><g fill="#ff931e"><path d="M92.2 81.6c1 4.1 1 8.3 0 12.5-.2.6-.8 1.1-1.6 1.1H60.3c-2 0-3.7-1.3-3.9-2.9-.5-2.9-.5-5.8 0-8.8.3-1.7 2-2.9 3.9-2.9h30.3c.8-.1 1.5.4 1.6 1z"/><path d="M56.3,84.7c-0.3,2.1-0.3,4.2,0,6.3h3.8v-6.3H56.3z"/><path d="M58.4 83.7a28.28 28.28 0 0 0-.3 4.1c0 1.4.1 2.8.3 4.1.1.8 1 1.5 2 1.5h32c.8-3.7.8-7.5 0-11.2h-32c-1 0-1.9.7-2 1.5z"/><path d="M69.6 83.6v8.5l-10.1-1.3c-.4-2-.4-3.9 0-5.9l10.1-1.3zm-12.4-1.7c.7-.4 1.6-.6 2.5-.6h27.8c.8 2 1.3 4.2 1.3 6.5 0 2.4-.4 4.6-1.3 6.5H59.7c-.9 0-1.8-.2-2.5-.6.7.8 1.9 1.4 3.2 1.4h30.7c.1 0 .1 0 .2-.1.1 0 .1-.1.2-.1h0c.1-.1.3-.2.3-.3h0s.1-.1.1-.2h0c0-.1.1-.1.1-.2h0c0-.1.1-.1.1-.2 1-4.1 1-8.3 0-12.5 0-.1 0-.1-.1-.2h0c0-.1-.1-.1-.1-.2h0s-.1-.1-.1-.2h0l-.3-.3c-.1 0-.1-.1-.2-.1s-.1 0-.2-.1H60.4c-1.3.1-2.5.7-3.2 1.5z"/></g><path d="M83.5 93.1l.7.5c.5.4.2 1.1-.4 1.1H68.1l4.1-1.6h11.3z" class="Ar"/><path d="M84 94c0 .1-.1.3-.3.3H70l2.3-.8h11.1l.5.4c.1-.1.1 0 .1.1z" class="Aq"/><g class="Ar"><path d="M69 95l.6 1c.2.3.5.5.9.6l.4.1-.6-1.5-1-.3-.2-.5-.3.1.2.5z"/><path d="M70.2 95.2l.6 1.4.2.1-.6-1.5-1-.3-.2-.5H69l.2.5zm13.3-12.6l.7-.5c.5-.4.2-1.1-.4-1.1H68.1l4.1 1.6h11.3z"/></g><path d="M84 81.7c0-.1-.1-.3-.3-.3H70l2.3.8h11.1l.5-.4c.1 0 .1 0 .1-.1z" class="Aq"/><g class="Ar"><path d="M69 80.7l.6-1c.2-.3.5-.5.9-.6l.5-.1-.6 1.5-1 .3-.2.5-.3-.1.1-.5z"/><path d="M70.2 80.4l.6-1.4h.2l-.6 1.5-1 .3-.2.5-.2-.1.2-.5z"/></g><path d="M59.7 93.8s-1.7-.1-1.8-2.3h-1s.1 2.2 2.8 2.3z" class="Au"/><path d="M59.7 93.8h-.2c-2.3-.3-2.4-2.2-2.4-2.2h-.3c.1-.1.2 2.1 2.9 2.2z" class="Av"/><path d="M56.9 91.7h.8c.1 1 .5 1.6.9 1.9a3.73 3.73 0 0 0 1.2.2s-1.7-.1-1.8-2.3h-1c-.1 0-.1.1-.1.2z" class="Aq"/><path d="M59.7 81.9s-1.7.1-1.8 2.3h-1s.1-2.3 2.8-2.3z" class="Au"/><path d="M59.7 81.9h-.2c-2.3.3-2.4 2.2-2.4 2.2h-.3c.1.1.2-2.2 2.9-2.2z" class="Av"/><path d="M56.9 84h.8c.1-1 .5-1.6.9-1.9a3.73 3.73 0 0 1 1.2-.2s-1.7.1-1.8 2.3h-1c-.1 0-.1-.1-.1-.2zm.9 6.6c-.2-1.8-.2-3.7 0-5.5H57c-.2 1.8-.2 3.7 0 5.5h.8z" class="Aq"/><path d="M72.1 83.1v9.5L69 93.9c-.7.3-1.6 0-1.8-.7a18.75 18.75 0 0 1 0-10.5c.2-.7 1.1-1 1.8-.7 1.4.4 3.1 1.1 3.1 1.1z" class="Ar"/><path d="M71.7 92.3l-2.9 1.2a1.1 1.1 0 0 1-.8 0c-.2-.1-.4-.3-.5-.5-.5-1.7-.8-3.4-.8-5.2 0-1.7.3-3.5.8-5.2.1-.2.2-.4.5-.5a1.1 1.1 0 0 1 .8 0l2.9 1.2v9z" class="Aq"/><path d="M84.3 83.1v9.5s.2.1.4.3c.9.8 2.5.3 2.7-.8a24.27 24.27 0 0 0 0-8.5c-.2-1.1-1.8-1.6-2.7-.8-.2.2-.4.3-.4.3z" class="Ar"/><path d="M87.4 87.8c0 1.4-.1 2.8-.4 4.2-.1.4-.4.7-.8.8a1.64 1.64 0 0 1-1.2-.2c-.1-.1-.2-.2-.3-.2v-9.2c.1 0 .2-.1.3-.2.3-.3.8-.3 1.2-.2s.7.4.8.8c.3 1.4.4 2.8.4 4.2z" class="Aq"/><path d="M91.1 80.6c-.3.2-.3.6.3 1.2.7.6.5 2.4 1.2 2.5-.1-.9-.3-1.8-.5-2.7 0-.5-.4-.9-1-1h0zm0 14.5c-.3-.2-.3-.6.3-1.2.7-.6.5-2.4 1.2-2.5-.1.9-.3 1.8-.5 2.7 0 .4-.4.8-1 1h0z" fill="#c1272d"/><g fill="#ffe91e"><path d="M176.2 80.3c1 3.9 1 7.9 0 11.9-.2.6-.8 1-1.6 1h-30.3c-2 0-3.7-1.2-3.9-2.8-.5-2.8-.5-5.6 0-8.4.3-1.6 2-2.8 3.9-2.8h30.3c.8.1 1.5.5 1.6 1.1z"/><path d="M140.3,83.2c-0.3,2-0.3,4,0,6h3.8v-6H140.3z"/><path d="M142.4 82.3c-.2 1.3-.3 2.6-.3 4 0 1.3.1 2.6.3 4 .1.8 1 1.4 2 1.4h32c.8-3.5.8-7.2 0-10.7h-32c-1-.1-1.9.5-2 1.3z"/><path d="M153.6 82.2v8.1L143.5 89c-.4-1.9-.4-3.7 0-5.6l10.1-1.2zm-12.4-1.6c.7-.4 1.6-.6 2.5-.6h27.8c.8 1.9 1.3 4 1.3 6.2 0 2.3-.4 4.4-1.3 6.2h-27.8c-.9 0-1.8-.2-2.5-.6.7.8 1.9 1.3 3.2 1.3h30.7c.1 0 .1 0 .2-.1.1 0 .1-.1.2-.1h0c.1-.1.3-.2.3-.3h0s.1-.1.1-.2h0c0-.1.1-.1.1-.2h0c0-.1.1-.1.1-.2 1-3.9 1-7.9 0-11.9 0-.1 0-.1-.1-.2h0c0-.1-.1-.1-.1-.2h0s-.1-.1-.1-.2h0l-.3-.3c-.1 0-.1-.1-.2-.1s-.1 0-.2-.1h-30.7c-1.3.3-2.5.8-3.2 1.6z"/></g><path d="M167.5 91.2l.7.4c.5.3.2 1-.4 1h-15.6l4.1-1.5 11.2.1z" class="Ar"/><path d="M168 92.1c0 .1-.1.3-.3.3H154l2.3-.8h11.1l.5.4c.1 0 .1 0 .1.1z" class="Aq"/><g class="Ar"><path d="M153 93.1l.6.9c.2.3.5.5.9.6l.4.1-.6-1.4-1-.3-.2-.5-.3.1.2.5z"/><path d="M154.2 93.3l.6 1.3.2.1-.6-1.5-1-.2-.2-.5h-.2l.2.5zm13.3-12l.7-.4c.5-.3.2-1-.4-1h-15.6l4.1 1.5 11.2-.1z"/></g><path d="M168 80.4c0-.1-.1-.3-.3-.3H154l2.3.8h11.1l.5-.4c.1 0 .1 0 .1-.1z" class="Aq"/><g class="Ar"><path d="M153 79.4l.6-.9c.2-.3.5-.5.9-.6l.4-.1-.6 1.4-1 .3-.2.5-.3-.1.2-.5z"/><path d="M154.2 79.2l.6-1.4h.2l-.6 1.4-1 .3-.2.5h-.2l.2-.5z"/></g><path d="M143.7 91.9s-1.7-.1-1.8-2.2h-1s.1 2.2 2.8 2.2z" class="Au"/><path d="M143.7 91.9h-.2c-2.3-.3-2.4-2.1-2.4-2.1h-.3c.1-.1.2 2.1 2.9 2.1z" class="Av"/><path d="M140.9 89.9h.8c.1 1 .5 1.5.9 1.8a3.73 3.73 0 0 0 1.2.2s-1.7-.1-1.8-2.2h-1c-.1 0-.1.1-.1.2z" class="Aq"/><path d="M143.7 80.6s-1.7.1-1.8 2.2h-1s.1-2.2 2.8-2.2z" class="Au"/><path d="M143.7 80.6h-.2c-2.3.3-2.4 2.1-2.4 2.1h-.3c.1.1.2-2.1 2.9-2.1z" class="Av"/><path d="M140.9 82.6h.8c.1-1 .5-1.5.9-1.8a3.73 3.73 0 0 1 1.2-.2s-1.7.1-1.8 2.2h-1c-.1 0-.1-.1-.1-.2zm.9 6.3c-.2-1.8-.2-3.5 0-5.3h-.8c-.2 1.8-.2 3.5 0 5.3h.8z" class="Aq"/><path d="M156.1 81.7v9l-3.1 1.2c-.7.3-1.6 0-1.8-.7-1-3.3-1-6.8 0-10 .2-.6 1.1-1 1.8-.7l3.1 1.2z" class="Ar"/><path d="M155.7 90.5l-2.9 1.1a1.1 1.1 0 0 1-.8 0c-.2-.1-.4-.3-.5-.5-.5-1.6-.8-3.3-.8-4.9 0-1.7.3-3.3.8-4.9.1-.2.2-.4.5-.5a1.1 1.1 0 0 1 .8 0l2.9 1.1v8.6z" class="Aq"/><path d="M168.3 81.7v9s.2.1.4.3c.9.7 2.5.3 2.7-.8.5-2.7.5-5.4 0-8.1-.2-1.1-1.8-1.5-2.7-.8-.2.3-.4.4-.4.4z" class="Ar"/><path d="M171.4 86.2c0 1.3-.1 2.7-.4 4-.1.4-.4.7-.8.8a1.64 1.64 0 0 1-1.2-.2c-.1-.1-.2-.2-.3-.2v-8.8c.1 0 .2-.1.3-.2.3-.3.8-.3 1.2-.2s.7.4.8.8c.3 1.3.4 2.7.4 4z" class="Aq"/><path d="M175.1 79.3c-.3.2-.3.6.3 1.1.7.5.5 2.3 1.2 2.4-.1-.9-.3-1.7-.5-2.5 0-.5-.4-.8-1-1h0zm0 13.8c-.3-.2-.3-.6.3-1.1.7-.5.5-2.3 1.2-2.4-.1.9-.3 1.7-.5 2.5 0 .5-.4.9-1 1h0z" fill="#c1272d"/><g class="Ax"><path d="M5.8 90.3c.1.1.2.2.2.3a10.68 10.68 0 0 1-.3-2.5v-.8c0-1 .1-2 .4-3.1-.1.1-.2.2-.2.3-.3 1.1-.5 2-.6 2.9v.2c.1.7.2 1.6.5 2.7z"/><path d="M6 90.5c-.1-.1-.2-.2-.2-.3-.2-.3-.3-.5-.4-.8-.2-.7-.3-1.4-.2-2v-.2h-.3v.2c0 .8.1 1.5.2 2.2.3.4.5.8.9 1.2 0 .1.1.2.2.3s.3.2.3.4c.3.3.6.5.9.7 1.8 1.2 4.1 1.8 7 1.8h.3c-.2-.1-.4-.2-.6-.4h-.2c-1.9 0-3.9-.4-5.7-1.3-1-.5-1.7-1.1-2.2-1.8z"/><path d="M7.5 92.3c-.3-.2-.6-.5-.9-.7.1.2.1.3.2.5.3.6.6 1.1 1 1.7a32.39 32.39 0 0 0 7.2.8l-.5-.4c-2.9-.2-5.2-.7-7-1.9zm-.8-.3c-.1-.2-.1-.3-.2-.5-.1-.1-.3-.2-.3-.4.1.1.1.2.1.3 0 .4.2.6.4.6z"/><path d="M6.7 92c-.2 0-.3-.2-.4-.5.3.8.6 1.5 1.1 2.1.3.4.5.7.9 1 .2.1.3 0 .3-.1-.4-.2-.6-.5-.9-.7-.5-.7-.8-1.3-1-1.8z"/><path d="M6.2 91.4c-.1-.1-.1-.2-.1-.3 0 0-.1-.1-.2-.3.2.8.5 1.7 1 2.4.3.5.6.8 1 1.1.1.1.2.1.3.1-.4-.3-.7-.6-.9-1-.5-.6-.9-1.3-1.1-2z"/></g><path d="M5.9 90.8c-.3-.4-.6-.7-.9-1.2.2 1 .5 2 1 3 .3.8.7 1.4 1.5 1.7.2.1.3.1.3.1-.4-.3-.7-.7-1-1.1-.4-.8-.8-1.6-.9-2.5z" fill="#e6efe8"/><g class="Ax"><path d="M5.3 89.5c.2.3.3.6.4.8-.3-1.1-.5-2-.5-2.9v-.2c.1-.8.2-1.8.6-2.9-.2.3-.3.5-.4.8a6.28 6.28 0 0 0-.3 1.9v.3c0 .8 0 1.5.2 2.2z"/><use xlink:href="#An" x="-104.5" y="69.2"/><path d="M6.3 83.5c-.1.1-.1.2-.1.3.1-.1.3-.2.3-.4.1-.2.1-.3.2-.4-.1-.1-.3.1-.4.5z"/><path d="M6.2 83.7c.1-.1.1-.2.1-.3.3-.8.6-1.5 1.1-2.1.3-.4.5-.7.9-.9-.1.1-.2.1-.3.1-.4.3-.8.6-1 1.1-.5.8-.9 1.6-1.1 2.4.2-.1.3-.2.3-.3z"/><path d="M6.3 83.5c.2-.4.3-.5.5-.5.3-.6.6-1.1 1-1.6.2-.2.5-.5.9-.7-.1-.1-.2-.1-.3-.1-.4.3-.7.6-.9.9-.6.5-.9 1.2-1.2 2z"/><path d="M6.8 83c-.1.2-.1.3-.2.4.3-.3.7-.5.9-.7 1.9-1.2 4.2-1.7 7.1-1.6l.3-.4c-2.6-.1-4.9.1-7.1.6-.4.5-.8 1.1-1 1.7z"/></g><path d="M5.1 85.2L6 84c.2-.8.6-1.6 1.1-2.4.3-.5.7-.8 1-1.1-.1.1-.2.1-.3.1-.8.3-1.3.8-1.5 1.6-.6 1-1 2-1.2 3z" fill="#e6efe8"/><g class="Ax"><path d="M8.4 80.4c.2-.1.3 0 .3.1-.4.2-.7.5-.9.7 2.1-.5 4.5-.7 7.1-.6-.3-.4-.5-.6-.9-.8h0c-.1 0-.2 0-.2-.1-1.5-.2-2.8-.1-3.8.1l-.9.3c-.2.2-.4.3-.7.3z"/><path d="M12.8 87c.1-.1.2 0 .3.1.2.3.3.5.4.7v-.5c0-1.6.3-3.2.8-4.8.3-.8.7-1.3 1-1.3.4 0 .8.1 1.1.1h0c.9.1 1.6.2 2.2.4.9.2 1.2.4 1.1.7-.3 1.6-.4 3.3-.4 5v.2c-.1 1.4 0 2.8.2 4.1.1.1.2.1.3.2l.4.4c.1 0 .1 0 .1.1a35.53 35.53 0 0 1-.3-4.6v-.2c0-1.6.1-3.2.4-4.8v-.3c0-.4-.2-.6-.6-.7h-.1l-4.5-.9c-.2 0-.4-.1-.6-.1-.1 0-.2.1-.2.1-.2.1-.3.2-.4.3-.7 2-1.2 3.8-1.2 5.8z"/><path d="M13 87.1c-.1-.1-.2-.2-.3-.1v.8c-.1 2.1.3 4.2 1.3 6.1.2.2.4.4.6.4s.4 0 .6-.1c1.7-.2 3.2-.4 4.5-.8h.1c.4-.1.6-.3.7-.6v-.3c0-.1 0-.1-.1-.2-.1 0-.1 0-.1-.1-.2-.1-.3-.2-.3-.3-.1 0-.1 0-.1-.1-.1-.1-.2-.2-.3-.2.1.3 0 .6.2.9.1.2-.3.4-1.1.6-.5.2-1.2.3-2.1.3h0c-.4.1-.9.1-1.3.1-.4-.1-.8-.5-1-1.4a13.49 13.49 0 0 1-.7-4.4.9.9 0 0 1-.6-.6z"/><path d="M8.2 82.6c-.9.5-1.6 1-2.1 1.7-.3 1.1-.4 2.1-.4 3.1v.8c0 .8.1 1.6.3 2.5.5.7 1.2 1.2 2.1 1.7 1.8.8 3.8 1.3 5.7 1.3h.2c-1-1.9-1.4-4-1.3-6.1v-.8c0-1.9.5-3.8 1.4-5.5H14c-2 .1-3.9.6-5.8 1.3zm7-2.6c-.3 0-.5 0-.9-.1l.6.7h1.9l.3-.6h-1.9z"/><path d="M14.4 80c-.2 0-.3-.1-.4-.1.3.2.6.4.9.8h.1l-.6-.7zm.2 1.1c.1-.1.2-.1.2-.1-.1 0-.1 0-.2.1h0z"/><path d="M14.6 81h.2c.2 0 .4 0 .6.1l4.5.9h.1c.4.1.6.3.6.7 3.7.3 7.6.4 11.8.2.7-.7 2-.9 4-.7.1-.2.3-.3.7-.3-1.2-.7-2.9-1-4.9-1 .2.2 0 .5-.4.7-.2.1-.3.1-.5.2l-.2.1c-1.2.3-2.9.6-4.9.4h-.9c-1.7-.1-3.4-.2-4.8-.4l-2.5-.6-2.1-.4H15l-.4.1z"/><path d="M17 80.4l-.1.2h-1.1l2.1.4-.3-.4 6.7.1h1.2l6.7.1c.1.2-.1.4-.3.5s-.3.2-.5.2c.2-.1.3-.1.5-.2.4-.2.5-.4.4-.7h-.2l-14.5-.2c.3-.1.4-.3.5-.6l.3-.9c.1-.1 0-.2-.1-.2l-.5 1.3c-.2.3-.3.5-.5.5l-.1.2H17v-.3z"/><path d="M17.2 80.8l.1-.2c.2-.1.4-.2.5-.5l.4-1.2h-.1c-.4-.1-.7.1-.9.6l-.1.5-.2.4.1.1-.1.3h.3z"/><use xlink:href="#AN" x="-18.6" y="48.1"/><use xlink:href="#AO" x="-18.5" y="48.1"/><path d="M24.6 80.7h-.4v.1l1 1.1h.3c-.2-.5-.5-.8-.9-1.2zm-2.5-.7h2.1c-.2-.2-.5-.2-1.1-.2s-.9.1-1 .2z"/><path d="M24.4 80h-.1c.2.2.3.4.3.6h.1c-.1-.2-.2-.5-.3-.6zm-3.8 2.8h0l.1.1c3.7.3 7.6.4 11.6.3v-.1c.1-.1.1-.2.1-.2-4.2.1-8.2.1-11.8-.2 0-.1 0 0 0 .1zm4.9-2.1h-.6l.9 1.2h.5c-.3-.4-.5-.8-.8-1.2z"/><path d="M25.5 82h-.3l.1.1c.1-.1.2-.1.2-.1l.1.1h.5c0-.1 0-.1-.1-.1h-.5c-.2-.5-.5-.8-.9-1.2h-.2c.6.3.9.6 1.1 1.2z"/><path d="M26.1 82c2.1.1 3.7 0 5-.4l.2-.1c.2-.1.3-.2.5-.2.3-.2.3-.4.3-.5l-6.7-.1c.4.4.6.8.7 1.3z"/><use xlink:href="#AP" x="-18.6" y="48.1"/><path d="M8.6 94.4c-.1.1-.2.1-.3.1.3.1.5.2.6.2l.9.3c1 .3 2.3.3 3.8.2.1 0 .3-.1.4-.1l.9-.7c-2.7 0-5-.2-7.2-.8.2.3.5.5.9.8z"/><path d="M14 95.1h.2l.8-.7h-.2l-.8.7z"/><path d="M14.6 94h-.3l.5.4h.7l2.1-.3 2.7-.4c1.5-.2 3-.3 4.8-.3h.9c2.1 0 3.7.1 4.9.5l.2.1c.2.1.3.1.5.2.4.2.5.4.4.7 2.1-.2 3.6-.4 4.6-1-.2-.1-.3-.2-.3-.3-2.1.2-3.4-.1-4-.7-4.2-.2-8.2-.3-11.8 0 0 .4-.2.6-.7.6h-.1c-1.3.3-2.8.6-4.5.8-.1-.3-.3-.3-.6-.3z"/><path d="M15.6 94.4h-.5l-.8.7c.3 0 .5-.1.9-.1l1.8.1-.2-.5-.1-.2h-1.1z"/><use xlink:href="#AS" x="-18.5" y="48.1"/><path d="M18.1 96.2c.1-.1.2-.1.1-.2l-.3-.9c-.2-.4-.3-.6-.5-.6l14.6.2c.2-.2 0-.5-.4-.7-.2-.1-.3-.1-.5-.2.2.1.3.2.5.2.3.2.3.4.3.5l-6.7-.1H24l-6.8-.1.3-.4-2.1.3 1.1.1.1.2.1-.1-.1-.3.3-.1.1.2c.2.1.4.2.5.5l.6 1.5z"/></g><radialGradient id="W" cx="182.189" cy="13.484" r="4.884" gradientTransform="matrix(-1 0 0 -1 198.8054 101.0795)" gradientUnits="userSpaceOnUse"><stop offset="0" stop-color="#808183"/><stop offset="1" stop-color="#293237"/></radialGradient><path d="M15.3 81.4c-.4.1-.8.5-1 1.3-.6 1.5-.8 3.1-.8 4.8v.5c0 1.5.2 3 .7 4.4.3.8.6 1.3 1 1.4.4-.1.9-.1 1.3-.1h0l2.1-.3c.9-.2 1.2-.4 1.1-.6-.1-.3-.1-.6-.2-.9l-.2-4.1v-.2c0-1.6.1-3.4.4-5 .1-.2-.3-.4-1.1-.7-.6-.2-1.3-.3-2.2-.4v.1-.1c-.3 0-.6-.1-1.1-.1z" fill="url(#W)"/><g class="Ax"><use xlink:href="#AU" x="-18.5" y="48.1"/><path d="M17.3 94.5c.3.1.4.3.5.6h6.5c.2-.2.3-.4.3-.6h-7.3zm3.2-2.1v.2c3.7-.3 7.6-.2 11.8 0-.1-.1-.1-.2-.2-.4h-.3c-3.8-.1-7.5-.1-11 .1-.1 0-.2 0-.3.1h0z"/><path d="M24 95.2h-2.1c.1.1.4.2.9.2.6 0 1 0 1.2-.2zm.1-.7h0l.5.1c.3-.4.7-.8.9-1.2h-.3c-.4.4-.7.8-1.1 1.1z"/><path d="M24.5 94.6c0 .2-.1.4-.3.6h.1l.3-.6h-.1z"/><use xlink:href="#AV" x="-18.6" y="48.1"/><path d="M24.8 94.5h.5c.3-.4.6-.8.8-1.2h-.4l-.9 1.2z"/><path d="M26.1 93.2c0 .1 0 .1 0 0-.2.5-.4.9-.8 1.3l6.7.1c.1-.2-.1-.4-.3-.5s-.3-.2-.5-.2l-.2-.2c-1.3-.3-2.9-.5-4.9-.5z"/><use xlink:href="#AX" x="-18.6" y="48.1"/><use xlink:href="#Ao"/><path d="M20.1 87.6h0c0 1.6 0 3.1.3 4.6 0 .1.1.1.1.2h.3c3.6-.2 7.3-.2 11-.1h.3c.3-1.5.5-2.9.4-4.5v-.1c.1-1.6-.1-3.1-.3-4.5-4 .1-7.9 0-11.6-.3h-.1c-.2 1.5-.4 3-.4 4.7z"/><path d="M32.6 91.9c-.2.5.2.8.9 1 .8.2 1.6.2 2.4 0 .4-.1.7-.5.9-1.1-.7-3.7-2.1-6.4-4.2-8 .3 1.4.3 2.8.3 4.1v.2c.1 1 0 2.3-.3 3.8zm-1.5 3.4h.1c.4-.2.7-.4.8-.7h-.1c-.1.3-.4.5-.8.7z"/><path d="M32.1 94.7a1.85 1.85 0 0 1-.8.7c1.7.1 3.5-.1 5.1-.3-1.6 0-3-.1-4.3-.4zm4.8-1c-.1 0-.2-.1-.3-.1-1 .6-2.6.9-4.6 1 1.3.4 2.8.5 4.4.3.1 0 .2-.1.3-.1l1.5-.3h.1c.9-.2 1.6-.6 2.1-1.2h0c-.5.1-1.2.2-1.9.2-.6.2-1.1.2-1.6.2z"/><path d="M36.6 93.7c.1.1.2.1.3.1h1.4c1-.5 1.5-1 1.6-1.5l.3-1 .3-1.1c-.6 2.5-1.8 3.6-3.5 3.5-.3 0-.4-.2-.3-.4-.1.1-.3.2-.4.3 0-.1.1 0 .3.1z"/><path d="M36.7 93.1c-.1.2.1.4.3.4 1.7.2 2.9-1 3.5-3.5.2-.8.2-1.5.2-2.2v-.1c0-1.1-.1-2.3-.4-3.5v-.1c-.1-.3-.2-.5-.2-.8-.1-.5-.6-.9-1.6-1.5h0-.1c-.2 0-.3 0-.4-.1h-.1c-.5.1-.8.2-.7.4.5.6.9 1.4 1.1 2.3a12.59 12.59 0 0 1 0 6.1c-.2.8-.6 1.5-1.2 1.8a.76.76 0 0 0-.2.4c0 .2-.1.3-.2.4zm1.5 1.6h0c.6.1 1.1 0 1.4-.2s.5-.5.8-1a4.32 4.32 0 0 1-2.2 1.2z"/><path d="M40.3 93.5h.1c.4-.2.7-.4.8-.8.5-1.6.8-3.2.8-4.8h0v-.2c0-.6 0-1.1-.1-1.6 0 2.2-.1 3.8-.5 4.8-.2.4-.5.5-1.1.3l-.3 1c-.1.5-.7.9-1.6 1.5l1.9-.2zm-3.4-1.8c.1.2 0 .5.2 1 .1-.1.2-.2.2-.4.5-.9.8-2.5.9-4.6v-.2c0-3.2-.6-5-1.8-5.7-2.1-.2-3.4 0-4 .7-.1.1-.1.2-.1.2l.4.5c-.1-.4.2-.7.9-.9.8-.2 1.6-.2 2.4 0 .9.2 1.3 1.9 1.3 5.1v.2c.1 1.9-.1 3.2-.4 4.1z"/><path d="M37.3 92.4c.7-.3 1-.9 1.2-1.8.5-2 .4-4.1 0-6.1-.3-.9-.6-1.7-1.1-2.3-.1-.2.1-.4.7-.4-.3 0-.5 0-.9-.1-.3.1-.5.2-.7.3 1.1.6 1.7 2.4 1.8 5.7v.2c-.2 1.9-.5 3.5-1 4.5zm3-1.2c.5.1.9 0 1.1-.3.4-.9.6-2.5.5-4.8l-.4-2.4c.1.6.1 1 0 1.4a1.1 1.1 0 0 1-.8 0c-.2-.2-.3-.5-.3-.8.3 1.2.4 2.4.4 3.5v.1c0 .7-.1 1.5-.2 2.2-.2.4-.2.7-.3 1.1zM31.6 80h-.2c.3.2.4.4.5.7h.2c0-.3-.3-.5-.5-.7z"/><path d="M35.6 80.2c-.1 0-.1 0 0 0-1.3-.2-2.6-.2-4-.2.3.2.4.4.6.7 2 .1 3.6.4 4.9 1 .3 0 .5 0 .9.1h.1c.2 0 .3 0 .4.1h.1c.5 0 .9-.1.9-.2s-1.3-.7-3.9-1.5zm-2.9 3.4h0c2.1 1.8 3.5 4.4 4.2 8.1.3-.8.5-2.1.5-3.9h0v-.2c0-3.2-.5-4.9-1.3-5.1-.9-.2-1.7-.2-2.4 0-.8.2-1 .5-.9.9-.1.1-.1.1-.1.2z"/><path d="M41.5 85c.1-.3.1-.8 0-1.4-.1-.2-.2-.5-.2-.7-.1-.4-.3-.6-.7-.8h-.1l-1.9-.3c1 .5 1.5 1 1.6 1.5.1.3.2.5.2.8h0v.1l.3.8c.2.1.4.1.8 0z"/><use xlink:href="#Ah" x="-18.6" y="48.1"/></g><linearGradient id="X" gradientUnits="userSpaceOnUse" x1="39.999" y1="32.493" x2="39.981" y2="34.203"><stop offset="0" stop-color="#272626"/><stop offset="1" stop-color="#808183"/></linearGradient><use xlink:href="#Ai" x="-18.6" y="48.1" fill="url(#X)"/><linearGradient id="Y" gradientUnits="userSpaceOnUse" x1="47.281" y1="32.562" x2="47.263" y2="34.28"><stop offset="0" stop-color="#272626"/><stop offset="1" stop-color="#808183"/></linearGradient><use xlink:href="#Aj" x="-18.5" y="48.1" fill="url(#Y)"/><linearGradient id="Z" gradientUnits="userSpaceOnUse" x1="39.755" y1="45.123" x2="39.739" y2="46.656"><stop offset="0" stop-color="#272626"/><stop offset="1" stop-color="#808183"/></linearGradient><use xlink:href="#Ak" x="-18.5" y="48.1" fill="url(#Z)"/><linearGradient id="a" gradientUnits="userSpaceOnUse" x1="28.642" y1="93.299" x2="28.626" y2="94.825"><stop offset="0" stop-color="#272626"/><stop offset="1" stop-color="#808183"/></linearGradient><path d="M26.1 93.2c-.2.5-.4.9-.8 1.3l6.7.1c.1-.2-.1-.4-.3-.5s-.3-.2-.5-.2l-.2-.2c-1.3-.3-2.9-.5-4.9-.5z" fill="url(#a)"/><linearGradient id="b" gradientUnits="userSpaceOnUse" x1="31.869" y1="90.79" x2="38.698" y2="82.596"><stop offset="0" stop-color="#272626"/><stop offset="1" stop-color="#808183"/></linearGradient><use xlink:href="#Ao" fill="url(#b)"/><linearGradient id="c" gradientUnits="userSpaceOnUse" x1="37.382" y1="84.942" x2="29.959" y2="93.999"><stop offset="0" stop-color="#030405"/><stop offset="1" stop-color="#808183"/></linearGradient><path d="M37.1 92.7c.1-.1.2-.2.2-.4.5-.9.8-2.5.9-4.6v-.2c0-3.2-.6-5-1.8-5.7-2.1-.2-3.4 0-4 .7-.1.1-.1.2-.1.2l.4.5c-.1-.4.2-.7.9-.9.8-.2 1.6-.2 2.4 0 .9.2 1.3 1.9 1.3 5.1v.2c-.1 1.8-.2 3.1-.5 3.9.1.3.2.6.3 1.2z" fill="url(#c)"/><radialGradient id="d" cx="-.877" cy="-13.144" r="4.568" gradientTransform="matrix(1.542726e-02 -1.3482 -1.2387 -1.185662e-02 17.3858 87.8966)" gradientUnits="userSpaceOnUse"><stop offset="0" stop-color="#808183"/><stop offset="1" stop-color="#293237"/></radialGradient><path d="M33.7 82.6c-.8.2-1 .5-.9.9v.2c.3 1.4.3 2.8.3 4.1v.2c0 1.4-.1 2.8-.4 4.2-.2.5.2.8.9 1 .8.2 1.6.2 2.4 0 .4-.1.7-.5.9-1.1.3-.8.5-2.1.5-3.9V88c0-3.2-.5-4.9-1.3-5.1-.9-.4-1.7-.4-2.4-.3z" fill="url(#d)"/><linearGradient id="e" gradientUnits="userSpaceOnUse" x1="21.945" y1="90.055" x2="12.576" y2="85.55"><stop offset="0" stop-color="#363639"/><stop offset=".264" stop-color="#040506"/><stop offset=".438" stop-color="#555659"/><stop offset="1" stop-color="#030405"/></linearGradient><path d="M12.8 87h0v.7c-.1 2.1.3 4.2 1.3 6.1.2.2.4.4.6.4s.4 0 .6-.1c1.7-.2 3.2-.4 4.5-.8h.1c.4-.1.6-.3.7-.6v-.3c0-.1 0-.1-.1-.2a35.53 35.53 0 0 1-.3-4.6v-.2c0-1.6.1-3.2.4-4.8v-.3c0-.4-.2-.6-.6-.7h-.1l-4.5-.9c-.2 0-.4-.1-.6-.1-.1 0-.2.1-.2.1-.2.1-.3.2-.4.3-.9 2.2-1.4 4-1.4 6zm.7.5h0c0-1.6.3-3.2.8-4.8.3-.8.7-1.3 1-1.3.4 0 .8.1 1.1.1h0c.9.1 1.6.2 2.2.4.9.2 1.2.4 1.1.7-.3 1.6-.4 3.3-.4 5v.2c-.1 1.4 0 2.8.2 4.1.1.3 0 .6.2.9.1.2-.3.4-1.1.6-.5.2-1.2.3-2.1.3h0c-.4.1-.9.1-1.3.1-.4-.1-.8-.5-1-1.4a13.49 13.49 0 0 1-.7-4.4v-.5z" fill="url(#e)"/><path d="M186.9 57.5h-5.7c-.2 0-.3-.1-.3-.3v-.6c0-.2.1-.3.3-.3h5.7c.2 0 .3.1.3.3v.6c0 .2-.1.3-.3.3h0zm0 15.9h-5.7c-.2 0-.3-.1-.3-.3v-.6c0-.2.1-.3.3-.3h5.7c.2 0 .3.1.3.3v.6c0 .1-.1.3-.3.3z" fill="#404041" class="Ap"/><linearGradient id="f" gradientUnits="userSpaceOnUse" x1="181.006" y1="56.934" x2="186.53" y2="56.934"><stop offset="0" stop-color="#404041"/><stop offset=".27" stop-color="#808184"/><stop offset=".54" stop-color="#a6a8ab"/><stop offset="1" stop-color="#231f20"/></linearGradient><use xlink:href="#Ap" fill="url(#f)" class="Ap"/><linearGradient id="g" gradientUnits="userSpaceOnUse" x1="181.006" y1="56.863" x2="186.53" y2="56.863"><stop offset="0" stop-color="#404041"/><stop offset=".27" stop-color="#808184"/><stop offset=".54" stop-color="#a6a8ab"/><stop offset="1" stop-color="#231f20"/></linearGradient><g class="Ap"><use xlink:href="#Ap" y="15.9" fill="url(#g)"/><path d="M161.3 57.1h-5.7c-.2 0-.3-.1-.3-.3v-.6c0-.2.1-.3.3-.3h5.7c.2 0 .3.1.3.3v.6c0 .1-.2.3-.3.3h0zm0 16.7h-5.7c-.2 0-.3-.1-.3-.3v-.6c0-.2.1-.3.3-.3h5.7c.2 0 .3.1.3.3v.6c0 .2-.2.3-.3.3z" fill="#404041"/></g><linearGradient id="h" gradientUnits="userSpaceOnUse" x1="180.936" y1="56.867" x2="186.46" y2="56.867"><stop offset="0" stop-color="#404041"/><stop offset=".27" stop-color="#808184"/><stop offset=".54" stop-color="#a6a8ab"/><stop offset="1" stop-color="#231f20"/></linearGradient><use xlink:href="#Ap" x="-25.6" y="-0.4" fill="url(#h)" class="Ap"/><linearGradient id="i" gradientUnits="userSpaceOnUse" x1="180.936" y1="56.929" x2="186.46" y2="56.929"><stop offset="0" stop-color="#404041"/><stop offset=".27" stop-color="#808184"/><stop offset=".54" stop-color="#a6a8ab"/><stop offset="1" stop-color="#231f20"/></linearGradient><g class="Ap"><use xlink:href="#Ap" x="-25.6" y="16.3" fill="url(#i)"/><path d="M150.3 57.7a5.73 5.73 0 0 0-1.1 1.1c-.1.2-.4.5-.3.8.5-.6 1.2-1.3 1.6-1.6s1.1-.8 1.8-1.2c-.5-.1-1.6.7-2 .9z" fill="#f2f2f2"/><path d="M150.4 57.8c-.8.6-1.4 1.3-1.4 1.7.5-.6 1.2-1.2 1.5-1.5.4-.3 1-.8 1.6-1.1-.3 0-1 .4-1.7.9z" fill="#fffbd4"/><path d="M150.3 72a5.73 5.73 0 0 1-1.1-1.1c-.1-.2-.4-.5-.3-.8.5.6 1.2 1.3 1.6 1.6s1.1.8 1.8 1.2c-.5.1-1.6-.7-2-.9z" fill="#f7f7f7"/><path d="M150.4 71.9c-.8-.6-1.4-1.3-1.4-1.7.5.6 1.2 1.2 1.5 1.5.4.3 1 .8 1.6 1.1-.3 0-1-.4-1.7-.9z" fill="#fffbd4"/><g class="BA"><path d="M188.1 72.7l-34.2.7c-.9 0-2.6-1.2-3.3-1.8s-2.4-2.1-2.4-3.1V61c0-1 1.7-2.5 2.4-3.1s2.4-1.8 3.3-1.8l34.2.7c5 .3 5.1 15.8 0 15.9z"/><path d="M149 61.1c0-.2.4-.7.6-.9.4-.5 1-1 1.5-1.5.5-.4 1.1-.8 1.7-1.2.2-.1.8-.4 1.1-.4h0l6.4.5-.1.1c-1.8 5-1.8 9.3 0 14.3l.1.1-6.4.5c-.3 0-.8-.3-1.1-.4a6.57 6.57 0 0 1-1.7-1.2c-.5-.4-1.1-.9-1.5-1.5-.2-.2-.5-.7-.6-.9h0v-7.5z"/></g></g><radialGradient id="j" cx="78.364" cy="101.47" r="9.066" gradientTransform="matrix(4.707900e-11 -1.0486 1.0486 4.707900e-11 63.1499 147.5684)" gradientUnits="userSpaceOnUse"><stop offset="0" stop-color="#aeb0b3"/><stop offset="1" stop-color="#808184"/></radialGradient><path d="M165.7 70.8l-5.2.9c-.2 0-.4-.1-.4-.3-1.4-4.4-1.4-8.8 0-13.2.1-.2.2-.3.4-.2l5.2.9c.1 0 .2.1.2.1.1.1.1.2.1.3-.6 3.7-.6 7.3 0 11 0 .1 0 .2-.1.3 0 .1-.1.1-.2.2z" fill="url(#j)" class="Ap"/><radialGradient id="k" cx="162.624" cy="64.975" r="5.338" gradientUnits="userSpaceOnUse"><stop offset="0" stop-color="#808183"/><stop offset="1" stop-color="#293237"/></radialGradient><path d="M165.7 70.8l-5.2.9c-.1 0-.2 0-.3-.1-1.3-4.4-1.4-8.7 0-13.1.1-.2.2-.3.4-.2l5.2.9c.1 0 .1 0 .2.1v.1c-.6 3.7-.6 7.3 0 11 0 .1 0 .2-.1.3 0 0-.1 0-.2.1z" fill="url(#k)" class="Ap"/><linearGradient id="l" gradientUnits="userSpaceOnUse" x1="174.714" y1="64.848" x2="157.958" y2="64.848"><stop offset="0" stop-color="#d0d2d3"/><stop offset=".22" stop-color="#f1f1f2"/><stop offset=".67" stop-color="#f1f1f2"/><stop offset="1" stop-color="#d0d2d3"/></linearGradient><path d="M173.1 70.8h8.4l2.6.1c.7.1 1.4.3 1.8.9l.3.4h-.5l-5.2.1c-.2-.1-.3-.3-.5-.5 0 .2 0 .3-.1.4l-.1.1h-.1l-6.8.2h-.1c-.2-.1-.2-.2-.2-.4-.1.2-.3.4-.5.4h0l-9.7.2h-.7l.5-.5c.5-.5 1.6-.8 2.2-.9 1.4-.3 2.8-.5 4.2-.5h4.5zm-.4-13.2c0-.2.1-.3.2-.4h.2l6.7.2h.1l.1.1c.1.1.1.3.1.4.1-.2.3-.4.5-.5h.2l5 .1h.5l-.3.4c-.4.6-1.2.8-1.8.9-.8.1-1.7.1-2.6.1h-12.8l-4.2-.5c-.6-.1-1.7-.4-2.2-.9l-.5-.5h.7l9.7.2c.2 0 .3.2.4.4z" fill="url(#l)" class="Ap"/><linearGradient id="m" gradientUnits="userSpaceOnUse" x1="176.431" y1="71.327" x2="176.431" y2="72.001"><stop offset="0" stop-color="#403f3a"/><stop offset="1" stop-color="#8b8b83"/></linearGradient><path d="M179.8 72.1l-6.7.2c-.2-.1.1-.9.2-1.1h6.2c.2.2.4.6.3.9z" fill="url(#m)" class="Ap"/><linearGradient id="n" gradientUnits="userSpaceOnUse" x1="182.909" y1="71.247" x2="182.909" y2="71.867"><stop offset="0" stop-color="#231f20"/><stop offset="1" stop-color="#808184"/></linearGradient><path d="M185.7 71.9l-5 .1c-.3-.2-.5-.7-.6-1 2.2.1 4.9-.1 5.6.9z" fill="url(#n)" class="Ap"/><linearGradient id="o" gradientUnits="userSpaceOnUse" x1="176.431" y1="57.695" x2="176.431" y2="58.37"><stop offset="0" stop-color="#403f3a"/><stop offset="1" stop-color="#8b8b83"/></linearGradient><path d="M179.8 57.6l-6.7-.2c-.2.1.1.9.2 1.1h6.2c.2-.2.4-.6.3-.9z" fill="url(#o)" class="Ap"/><linearGradient id="p" gradientUnits="userSpaceOnUse" x1="182.909" y1="57.834" x2="182.909" y2="58.421"><stop offset="0" stop-color="#403f3a"/><stop offset="1" stop-color="#8b8b83"/></linearGradient><path d="M185.7 57.7c-1.7 0-3.3-.1-5-.1-.3.2-.5.7-.6 1 2.2 0 4.9.2 5.6-.9z" fill="url(#p)" class="Ap"/><linearGradient id="q" gradientUnits="userSpaceOnUse" x1="167.64" y1="57.514" x2="167.64" y2="58.325"><stop offset="0" stop-color="#403f3a"/><stop offset="1" stop-color="#8b8b83"/></linearGradient><path d="M172.2 57.5l-9.7-.2c.6.6 2.8 1.2 6.3 1.4h4c-.2-.4-.3-1.2-.6-1.2z" fill="url(#q)" class="Ap"/><linearGradient id="r" gradientUnits="userSpaceOnUse" x1="167.64" y1="71.372" x2="167.64" y2="72.183"><stop offset="0" stop-color="#403f3a"/><stop offset="1" stop-color="#8b8b83"/></linearGradient><path d="M172.2 72.2l-9.7.2c.6-.6 2.8-1.2 6.3-1.4h4c-.2.4-.3 1.2-.6 1.2z" fill="url(#r)" class="Ap"/><radialGradient id="s" cx="78.76" cy="116.311" r="7.253" gradientTransform="matrix(4.707900e-11 -1.0486 1.0486 4.707900e-11 63.1499 147.5684)" gradientUnits="userSpaceOnUse"><stop offset="0" stop-color="#808183"/><stop offset="1" stop-color="#293237"/></radialGradient><g class="Ap"><path d="M188.6 64.9c0 2.5-.5 5.1-1.5 5.5.7.6 1.7.9 2.1.5 1.2-.9 1.8-3.5 1.8-6h0c0-2.6-.6-5.1-1.8-6-.4-.4-1.4-.1-2.1.5.9.4 1.4 2.9 1.5 5.5z" fill="url(#s)"/><path d="M163.7 75.1c-.2.1-.5.1-.7 0-.3-.2-.4-.5-.5-.8l-.3-1.2a.76.76 0 0 0-.2-.4v-.1h.1c.3-.1.6-.2.9-.2h.1v.1l.7 2.6h-.1z" class="Ay"/><path d="M163.6 75c-1.2.4-1-1.2-1.6-2.3.3-.1.6-.2.9-.2.3.8.5 1.6.7 2.5z" class="BA"/><path d="M162.076 72.84l1.062-.285.104.386-1.062.285z" class="Ay"/><path d="M162.2 72.9l.87-.233.052.193-.87.233z" fill="#d0d2d3"/><path d="M163.7 54.6c-.2-.1-.5-.1-.7 0-.3.2-.4.5-.5.8l-.3 1.2a.76.76 0 0 1-.2.4v.1h.1c.3.1.6.2.9.2h.1v-.1l.7-2.6h-.1z" class="Ay"/><path d="M163.6 54.7c-1.2-.4-1 1.2-1.6 2.3.3.1.6.2.9.2.3-.8.5-1.6.7-2.5z" class="BA"/><path d="M162.038 56.91l.103-.386 1.063.284-.103.386z" class="Ay"/><path d="M162.17 56.83l.052-.193.87.233-.052.193z" fill="#d0d2d3"/><path d="M171.7 72.7c-.1 0-.8 0-.8-.1v-.1h1.2c0 .1-.2.2-.4.2z" class="Az"/></g><linearGradient id="t" gradientUnits="userSpaceOnUse" x1="172.035" y1="72.571" x2="170.963" y2="72.589"><stop offset="0" stop-color="#d0d2d3"/><stop offset=".11" stop-color="#f1f1f2"/><stop offset=".68" stop-color="#f1f1f2"/><stop offset="1" stop-color="#d0d2d3"/></linearGradient><g class="Ap"><path d="M172 72.5c0 .1-.2.2-.3.2s-.7 0-.7-.1v-.1h1z" fill="url(#t)"/><path d="M179.3 72.5c-.1 0-.8 0-.8-.1v-.1h1.2c0 .2-.2.2-.4.2z" class="Az"/></g><linearGradient id="u" gradientUnits="userSpaceOnUse" x1="179.671" y1="72.421" x2="178.6" y2="72.44"><stop offset="0" stop-color="#d0d2d3"/><stop offset=".11" stop-color="#f1f1f2"/><stop offset=".68" stop-color="#f1f1f2"/><stop offset="1" stop-color="#d0d2d3"/></linearGradient><g class="Ap"><path d="M179.7 72.3c0 .1-.2.2-.3.2s-.7 0-.7-.1v-.1c.3.1.6 0 1 0z" fill="url(#u)"/><path d="M171.7 57c-.1 0-.8 0-.8.1v.1h1.2c0-.1-.2-.2-.4-.2z" class="Az"/></g><linearGradient id="v" gradientUnits="userSpaceOnUse" x1="170.963" y1="57.107" x2="172.035" y2="57.126"><stop offset="0" stop-color="#d0d2d3"/><stop offset=".11" stop-color="#f1f1f2"/><stop offset=".68" stop-color="#f1f1f2"/><stop offset="1" stop-color="#d0d2d3"/></linearGradient><g class="Ap"><path d="M172 57.2c0-.1-.2-.2-.3-.2s-.7 0-.7.1v.1h1z" fill="url(#v)"/><path d="M179.3 57.2c-.1 0-.8 0-.8.1v.1h1.2c0-.2-.2-.2-.4-.2z" class="Az"/></g><linearGradient id="w" gradientUnits="userSpaceOnUse" x1="178.6" y1="57.256" x2="179.671" y2="57.275"><stop offset="0" stop-color="#d0d2d3"/><stop offset=".11" stop-color="#f1f1f2"/><stop offset=".68" stop-color="#f1f1f2"/><stop offset="1" stop-color="#d0d2d3"/></linearGradient><g class="Ap"><path d="M179.7 57.4c0-.1-.2-.2-.3-.2s-.7 0-.7.1v.1c.3-.1.6 0 1 0z" fill="url(#w)"/><path d="M170 71h0a1.11 1.11 0 0 1-1.1-1.1v-10a1.11 1.11 0 0 1 1.1-1.1h0a1.11 1.11 0 0 1 1.1 1.1V70c0 .5-.5 1-1.1 1z" fill="#29abe2"/><path d="M169 63.9h2.1v1.6H169z" fill="#f7f7f7"/></g><path d="M176.2 61.3l-5.1-.7 3.5 3.9-4-3.4 1 5.2-1.6-5-2 4.8 1.4-5-4.3 2.9 3.9-3.5-5.2.2 5.1-.8-4.5-2.7 4.8 2.1-2.3-4.6 2.9 4.3.6-5.2V59l3.3-4-2.7 4.4 4.9-1.6-4.7 2.2zm0 10.2l-5.1-.7 3.5 3.8-4-3.3 1 5.1-1.6-5-2 4.8 1.4-5-4.3 3 3.9-3.5-5.2.2 5.1-.8-4.5-2.7 4.8 2.1-2.3-4.7 2.9 4.4.6-5.2v5.2l3.3-4.1-2.7 4.5 4.9-1.7-4.7 2.3zm-21.3-12l-5.1-.6 3.5 3.8-4-3.4.9 5.2-1.5-5-2 4.8 1.4-5-4.3 2.9 3.9-3.4-5.3.1 5.2-.8-4.5-2.7 4.8 2.2-2.3-4.7 2.9 4.3.5-5.2.1 5.3 3.3-4.1-2.8 4.4 5-1.6-4.7 2.2zm.6 13.1l-5.2-.6 3.6 3.8-4-3.4.9 5.2-1.6-5-2 4.8 1.4-5-4.3 2.9 3.9-3.4-5.2.1 5.2-.8-4.5-2.7 4.8 2.2-2.4-4.7 2.9 4.3.6-5.2v5.3l3.3-4.1-2.7 4.4 4.9-1.6-4.7 2.2z" fill="#cad5ef"/><path d="M25.3 9.9h10.8v17.2H25.3z" fill="#000052"/><path d="M15.9 9.6h.9l.1-.9h.8l.2-1.8h-.8zm2 20.4l-.2-1.8h-.8l-.1-.9h-.9l1.2 2.7z" fill="#01010a"/><path d="M30.2 9h71.9v19H30.2z" fill="#690303"/><path d="M31 9.6h70.5v17.7H31z" fill="#381e1e"/><path d="M13.5 9.8c-1.4 5.8-1.4 11.6 0 17.3.1.5.6.8 1.2.8h14.7V9H14.6c-.5 0-1 .3-1.1.8z" fill="#224d6d"/><radialGradient id="x" cx="14.464" cy="23.038" r="7.241" gradientTransform="matrix(1 0 0 0.8849 0 -1.9242)" gradientUnits="userSpaceOnUse"><stop offset="0" stop-color="#808183"/><stop offset="1" stop-color="#293237"/></radialGradient><path d="M14.9 18.5c0-3 .4-6 1.1-9h-1.3c-.3 0-.5.2-.6.4-.7 2.8-1.1 5.7-1.1 8.6 0 2.8.4 5.7 1.1 8.6.1.2.3.4.6.4H16c-.8-3-1.1-6.1-1.1-9z" fill="url(#x)"/><path d="M97.3 31.9h10.8v17.2H97.3z" fill="#5b260b"/><path d="M96 47h12v2H96zm0-15h12v2H96z" fill="#1e0e06"/><path d="M85.9 31.6h.9l.1-.9h.8l.2-1.8h-.8zm2 20.4l-.2-1.8h-.8l-.1-.9h-.9l1.2 2.7z" fill="#01010a"/><path d="M105 31.6h70.5v17.7H105z" fill="#190511"/><path d="M83.5 31.8c-1.4 5.8-1.4 11.6 0 17.3.1.5.6.8 1.2.8h14.7V31H84.7c-.6 0-1.1.3-1.2.8z" fill="#3b2212"/><radialGradient id="y" cx="84.464" cy="47.899" r="7.241" gradientTransform="matrix(1 0 0 0.8849 0 -1.9242)" gradientUnits="userSpaceOnUse"><stop offset="0" stop-color="#808183"/><stop offset="1" stop-color="#293237"/></radialGradient><path d="M84.9 40.5c0-3 .4-6 1.1-9h-1.3c-.3 0-.5.2-.6.4-.7 2.8-1.1 5.7-1.1 8.6 0 2.8.4 5.7 1.1 8.6.1.2.3.4.6.4H86c-.8-3-1.1-6.1-1.1-9z" fill="url(#y)"/><path d="M139.6 58.1v14h-103V75L23 65l14-9.8v2.9z" fill="#fff" fill-opacity=".56"/><path d="M51 65.1h-3v2.4h3.4v1.2h-4.9v-8.1h4.7v1.2H48v2.1h3v1.2zm1.6-.5v-1.7h1.3l.1.9c.3-.5.8-1 1.8-1 .8 0 1.4.4 1.6 1.1h0c.2-.3.4-.6.7-.7.3-.2.7-.3 1.2-.3 1 0 2 .7 2 2.5v3.4h-1.4v-3.2c0-1-.3-1.5-1-1.5-.5 0-.9.4-1 .8 0 .1-.1.3-.1.5v3.5h-1.4v-3.4c0-.8-.3-1.4-1-1.4-.6 0-.9.4-1.1.8-.3 0-.3.2-.3.4v3.5h-1.4v-4.2z"/><use xlink:href="#Aq"/><path d="M68.9 64.8v-1.9h1.3V64c.3-.8 1-1.2 1.6-1.2h.3v1.4h-.4a1.3 1.3 0 0 0-1.3 1.1v3.5h-1.5v-4zm9.5-1.9v5c0 1.2-.3 2.1-.9 2.7-.6.5-1.5.7-2.3.7-.7 0-1.5-.2-2-.5l.3-1.1c.4.2 1 .4 1.7.4 1 0 1.7-.5 1.7-1.8v-.5c-.3.5-.9.9-1.7.9-1.5 0-2.5-1.2-2.5-2.9 0-1.9 1.2-3.1 2.7-3.1.9 0 1.4.4 1.7.9h0l.1-.8h1.2zm-1.5 2.3v-.4c-.2-.5-.6-.9-1.2-.9-.8 0-1.4.7-1.4 1.9 0 1 .5 1.8 1.4 1.8.6 0 1-.4 1.2-.9 0-.2.1-.4.1-.5v-1zm4.1 1c0 1.1.9 1.5 1.8 1.5.7 0 1.2-.1 1.6-.3l.2 1a5.44 5.44 0 0 1-2 .4c-1.9 0-3-1.2-3-3 0-1.6 1-3.1 2.9-3.1s2.5 1.6 2.5 2.8v.6h-4zm2.6-1c0-.5-.2-1.4-1.2-1.4-.9 0-1.3.8-1.4 1.4h2.6zm2.6-.6v-1.7h1.3l.1.9c.3-.5.9-1 1.9-1s2.1.7 2.1 2.5v3.5H90v-3.3c0-.8-.3-1.5-1.1-1.5-.6 0-1 .4-1.2.9 0 .1-.1.3-.1.5v3.4h-1.5v-4.2zm11.1 4c-.3.1-.9.3-1.7.3-1.8 0-3-1.2-3-3s1.2-3.1 3.3-3.1c.5 0 1.1.1 1.4.3l-.3 1.1c-.2-.1-.6-.2-1.1-.2-1.1 0-1.8.8-1.8 1.9 0 1.2.8 1.9 1.8 1.9a3.73 3.73 0 0 0 1.2-.2l.2 1zm2.2-5.7l1.1 3.1.3 1.1c.1-.3.2-.8.3-1.2l.9-3.1h1.6l-1.5 4c-.8 2.2-1.3 3.2-2 3.8-.6.5-1.2.7-1.5.8l-.3-1.2c.3-.1.6-.2.9-.4a2.36 2.36 0 0 0 .8-.9c.1-.1.1-.2.1-.3s0-.1-.1-.3L98 62.9h1.5zm9.3 3.5l-.7 2.3h-1.5l2.6-8.1h1.9l2.6 8.1h-1.6l-.7-2.3h-2.6zm2.3-1.1l-.6-2c-.2-.5-.3-1-.4-1.5h0c-.1.5-.2 1-.4 1.5l-.6 2h2zm3.6-5.1h1.5v8.5h-1.5v-8.5zm3 0h1.5v8.5h-1.5v-8.5z"/><use xlink:href="#Aq" x="58.1"/><path d="M127.9 62.9L129 66l.3 1.1c.1-.3.2-.8.3-1.2l.9-3.1h1.6l-1.5 4c-.8 2.2-1.3 3.2-2 3.8-.6.5-1.2.7-1.5.8l-.3-1.2c.3-.1.6-.2.9-.4a2.36 2.36 0 0 0 .8-.9c.1-.1.1-.2.1-.3s0-.1-.1-.3l-2.1-5.4h1.5z"/><defs ><path id="AA" d="M24.4 42.2c.1.1.2.2.2.3a10.68 10.68 0 0 1-.3-2.5v-.8c0-1 .1-2 .4-3.1-.1.1-.2.2-.2.3-.3 1.1-.5 2-.6 2.9v.2c0 .7.2 1.6.5 2.7z"/><path id="AB" d="M24.6 42.4c-.1-.1-.2-.2-.2-.3-.2-.3-.3-.5-.4-.8-.2-.7-.3-1.4-.2-2v-.2h-.3v.2c0 .8.1 1.5.2 2.2.3.4.5.8.9 1.2l.3.3c.1.1.3.2.3.4.3.3.6.5.9.7 1.8 1.2 4.1 1.8 7 1.8h.3c-.2-.1-.4-.2-.6-.4h-.2c-1.9 0-3.9-.4-5.7-1.3-1.1-.6-1.8-1.2-2.3-1.8z"/><path id="AC" d="M25.2 43.8c-.2 0-.3-.2-.4-.5.3.8.6 1.5 1.1 2.1.3.4.5.7.9 1 .2.1.3 0 .3-.1-.4-.2-.6-.5-.9-.7l-1-1.8z"/><path id="AD" d="M24.8 43.3c-.1-.1-.1-.2-.1-.3l-.3-.3c.2.8.5 1.7 1 2.4.3.5.6.8 1 1.1.1.1.2.1.3.1-.4-.3-.7-.6-.9-1-.4-.6-.8-1.3-1-2z"/><path id="AE" d="M24.4 42.7c-.3-.4-.6-.7-.9-1.2.2 1 .5 2 1 3 .3.8.7 1.4 1.5 1.7.2.1.3.1.3.1-.4-.3-.7-.7-1-1.1l-.9-2.5z"/><path id="AF" d="M24.8 35.6c.1-.1.1-.2.1-.3.3-.8.6-1.5 1.1-2.1.3-.4.5-.7.9-.9-.1.1-.2.1-.3.1-.4.3-.8.6-1 1.1-.5.8-.9 1.6-1.1 2.4.1-.2.2-.2.3-.3z"/><path id="AG" d="M24.9 35.3c.2-.4.3-.5.4-.5.3-.6.6-1.1 1-1.6.2-.2.5-.5.9-.7-.1-.1-.2-.1-.3-.1-.4.3-.7.6-.9.9-.5.6-.9 1.3-1.1 2z"/><path id="AH" d="M25.3 34.8c-.1.2-.1.3-.2.4.3-.3.7-.5.9-.7 1.9-1.2 4.2-1.7 7.1-1.6l.3-.4c-2.6-.1-4.9.1-7.1.6-.4.6-.7 1.1-1 1.7z"/><path id="AI" d="M23.7 37l.9-1.2c.2-.8.6-1.6 1.1-2.4.3-.5.7-.8 1-1.1-.1.1-.2.1-.3.1-.8.3-1.3.8-1.5 1.6-.6 1-1 2-1.2 3z"/><path id="AJ" d="M27 32.3c.2-.1.3 0 .3.1-.4.2-.7.5-.9.7 2.1-.5 4.5-.7 7.1-.6-.3-.4-.5-.6-.9-.8h0c-.1 0-.2 0-.2-.1-1.5-.2-2.8-.1-3.8.1l-.9.3c-.2.2-.4.2-.7.3z"/><path id="AK" d="M31.4 38.8c.1-.1.2 0 .3.1.2.3.3.5.4.7v-.5c0-1.6.3-3.2.8-4.8.3-.8.7-1.3 1-1.3.4 0 .8.1 1.1.1h0c.9.1 1.6.2 2.2.4.9.2 1.2.4 1.1.7-.3 1.6-.4 3.3-.4 5v.2c-.1 1.4 0 2.8.2 4.1.1.1.2.1.3.2l.4.4c.1 0 .1 0 .1.1a35.53 35.53 0 0 1-.3-4.6v-.2c0-1.6.1-3.2.4-4.8v-.3c0-.4-.2-.6-.6-.7h-.1l-4.5-.9c-.2 0-.4-.1-.6-.1-.1 0-.2.1-.2.1-.2.1-.3.2-.4.3-.8 2-1.2 3.9-1.2 5.8z"/><path id="AL" d="M26.7 34.5c-.9.5-1.6 1-2.1 1.7-.3 1.1-.4 2.1-.4 3.1v.8c0 .8.1 1.6.3 2.5.5.7 1.2 1.2 2.1 1.7 1.8.8 3.8 1.3 5.7 1.3h.2c-1-1.9-1.4-4-1.3-6.1v-.8c0-1.9.5-3.8 1.4-5.5h-.1c-1.9.1-3.8.5-5.8 1.3z"/><path id="AM" d="M33.2 32.9h.2c.2 0 .4 0 .6.1l4.5.9h.1c.4.1.6.3.6.7 3.7.3 7.6.4 11.8.2.7-.7 2-.9 4-.7.1-.2.3-.3.7-.3-1.2-.7-2.9-1-4.9-1 .2.2 0 .5-.4.7-.2.1-.3.1-.5.2l-.2.1c-1.2.3-2.9.6-4.9.4h-.9c-1.7-.1-3.4-.2-4.8-.4l-4.7-.9h-1.2z"/><path id="AN" d="M36.1 32.5l.3.4 2.6.5c1.5.2 3 .3 4.8.4 0-.1-.1-.1-.1-.1h0c-.3-.5-.6-.9-1-1.1v-.1h-6.6z"/><path id="AO" d="M36.6 31.8c-.2.4-.3.6-.5.6l7.1.1c-.1-.3-.2-.5-.3-.6h-2.2l-4.1-.1z"/><path id="AP" d="M43 31.9c.1.1.2.4.3.6l7.2.1c-.1-.3-.3-.5-.5-.7h-.3c-.2 0-.4.1-.5.1l-6.2-.1z"/><path id="AQ" d="M27.2 46.2c-.1.1-.2.1-.3.1.3.1.5.2.6.2l.9.3c1 .3 2.3.3 3.8.2.1 0 .3-.1.4-.1l.9-.7c-2.7 0-5-.2-7.2-.8.2.4.4.5.9.8z"/><path id="AR" d="M33.2 45.8h-.3l.5.4h.7l2.1-.3 2.7-.4c1.5-.2 3-.3 4.8-.3h.9c2.1 0 3.7.1 4.9.5l.2.1c.2.1.3.1.5.2.4.2.5.4.4.7 2.1-.2 3.6-.4 4.6-1-.2-.1-.3-.2-.3-.3-2.1.2-3.4-.1-4-.7-4.2-.2-8.2-.3-11.8 0 0 .4-.2.6-.7.6h-.1c-1.3.3-2.8.6-4.5.8-.1-.3-.4-.3-.6-.3z"/><path id="AS" d="M35.7 47.6c.2.5.5.7.9.6h.1l-.4-1.2c-.2-.3-.3-.5-.5-.5l-.1-.2-.3.1.1.3-.1.1.2.5.1.3z"/><path id="AT" d="M33.9 33.3c-.4.1-.8.5-1 1.3-.6 1.5-.8 3.1-.8 4.8v.5c0 1.5.2 3 .7 4.4.3.8.6 1.3 1 1.4.4-.1.9-.1 1.3-.1h0l2.1-.3c.9-.2 1.2-.4 1.1-.6-.1-.3-.1-.6-.2-.9l-.2-4.1v-.2c0-1.6.1-3.4.4-5 .1-.2-.3-.4-1.1-.7-.6-.2-1.3-.3-2.2-.4v.1-.1c-.3-.1-.7-.1-1.1-.1z"/><path id="AU" d="M36.2 45.9l-.3.4 6.8.1v-.1l1-1.1.1-.1c-1.7 0-3.4.1-4.8.3l-2.8.5z"/><path id="AV" d="M44.1 45.1h-.3c0 .1-.1.1-.1.1l.4-.1c-.3.5-.6.9-.9 1.3h.2c.3-.4.7-.8.9-1.2h.4c0-.1 0-.1.1-.1h-.7z"/><path id="AW" d="M44.6 45.1c-.2.5-.4.9-.8 1.3l6.7.1c.1-.2-.1-.4-.3-.5s-.3-.2-.5-.2l-.2-.1c-1.2-.5-2.9-.7-4.9-.6z"/><path id="AX" d="M43.3 46.5l-.3.6 6 .1a.9.9 0 0 0 .5.1h.2c.4-.2.7-.4.8-.7l-7.2-.1z"/><path id="AY" d="M50.7 44.1c0 .1.1.2.2.4.6.7 1.9 1 4 .7.2-.1.3-.2.4-.3.2-.1.3-.3.4-.4 0-.6-.2-.9-.2-1-.2.7-.6 1.1-.9 1.1-.9.2-1.7.2-2.4 0-.8-.2-1.1-.5-.9-1 .3-1.4.4-2.8.4-4.2v-.2c.1-1.4 0-2.8-.3-4.1v-.2l-.4-.5v.1a16.78 16.78 0 0 1 .3 4.5v.1c-.1 2-.3 3.5-.6 5z"/><path id="AZ" d="M38.7 39.4h0c0 1.6 0 3.1.3 4.6 0 .1.1.1.1.2h.3c3.6-.2 7.3-.2 11-.1h.3c.3-1.5.5-2.9.4-4.5v-.1c.1-1.6-.1-3.1-.3-4.5-4 .1-7.9 0-11.6-.3h-.1c-.3 1.5-.4 3.1-.4 4.7z"/><path id="Aa" d="M55.5 45.6c-.1 0-.2-.1-.3-.1-1 .6-2.6.9-4.6 1 1.3.4 2.8.5 4.4.3.1 0 .2-.1.3-.1l1.5-.3h.1c.9-.2 1.6-.6 2.1-1.2h0c-.5.1-1.2.2-1.9.2l-1.6.2z"/><path id="Ab" d="M55.2 45.5c.1.1.2.1.3.1h1.4c1-.5 1.5-1 1.6-1.5l.3-1 .3-1.1c-.6 2.5-1.8 3.6-3.5 3.5-.3 0-.4-.2-.3-.4-.1.1-.3.2-.4.3 0-.1.1.1.3.1z"/><path id="Ac" d="M58.9 45.3h.1c.4-.2.7-.4.8-.8.5-1.6.8-3.2.8-4.8h0v-.2c0-.6 0-1.1-.1-1.6 0 2.2-.1 3.8-.5 4.8-.2.4-.5.5-1.1.3l-.3 1c-.1.5-.7.9-1.6 1.5.7 0 1.3-.1 1.9-.2z"/><path id="Ad" d="M55.9 44.2c.7-.3 1-.9 1.2-1.8.5-2 .4-4.1 0-6.1-.3-.9-.6-1.7-1.1-2.3-.1-.2.1-.4.7-.4-.3 0-.5 0-.9-.1-.3.1-.5.2-.7.3 1.1.6 1.7 2.4 1.8 5.7v.2c-.2 2-.5 3.5-1 4.5z"/><path id="Ae" d="M58.9 43c.5.1.9 0 1.1-.3.4-.9.6-2.5.5-4.8l-.4-2.4c.1.6.1 1 0 1.4a1.1 1.1 0 0 1-.8 0c-.2-.2-.3-.5-.3-.8.3 1.2.4 2.4.4 3.5v.1c0 .7-.1 1.5-.2 2.2-.2.4-.3.8-.3 1.1z"/><path id="Af" d="M54.1 32.1c-1.3-.2-2.6-.3-3.9-.3.3.2.4.4.6.7 2 .1 3.6.4 4.9 1 .3 0 .5 0 .9.1h.1c.2 0 .3 0 .4.1h.1c.5 0 .9-.1.9-.2 0-.2-1.3-.6-4-1.4z"/><path id="Ag" d="M51.2 35.4h0c2.1 1.8 3.5 4.4 4.2 8.1.3-.8.5-2.1.5-3.9h0v-.2c0-3.2-.5-4.9-1.3-5.1-.9-.2-1.7-.2-2.4 0-.8.2-1 .5-.9.9l-.1.2z"/><path id="Ah" d="M56.9 32.7h0l-2.8-.5c2.6.7 3.9 1.2 3.8 1.3-.1.2-.3.2-.9.2.8.1 1.4.1 1.9.3-.3-.7-1-1.1-2-1.3h0z"/><path id="Ai" d="M36.1 32.5l.3.4 2.6.5c1.5.2 3 .3 4.8.4-.3-.5-.6-.9-1-1.2h0l-6.7-.1z"/><path id="Aj" d="M44 32.6c.4.4.6.8.7 1.3 2.1.1 3.7 0 4.9-.4l.2-.1c.2-.1.3-.2.5-.2.3-.2.3-.4.3-.5l-6.6-.1z"/><path id="Ak" d="M36.2 45.9l-.3.4 6.8.1v-.1c.3-.3.7-.7 1-1.2-1.7 0-3.4.1-4.8.3l-2.7.5z"/><path id="Al" d="M55.6 44.5c.1-.1.2-.2.2-.4.5-.9.8-2.5.9-4.6v-.2c0-3.2-.6-5-1.8-5.7-2.1-.2-3.4 0-4 .7-.1.1-.1.2-.1.2l.4.5c-.1-.4.2-.7.9-.9.8-.2 1.6-.2 2.4 0 .9.2 1.3 1.9 1.3 5.1v.2c-.1 1.8-.2 3.1-.5 3.9.2.3.3.7.3 1.2z"/><path id="Am" d="M31.4 38.8h0v.7c-.1 2.1.3 4.2 1.3 6.1.2.2.4.4.6.4s.4 0 .6-.1c1.7-.2 3.2-.4 4.5-.8h.1c.4-.1.6-.3.7-.6v-.3c0-.1 0-.1-.1-.2a35.53 35.53 0 0 1-.3-4.6v-.2c0-1.6.1-3.2.4-4.8v-.3c0-.4-.2-.6-.6-.7h-.1l-4.5-.9c-.2 0-.4-.1-.6-.1-.1 0-.2.1-.2.1-.2.1-.3.2-.4.3-1 2.2-1.4 4.1-1.4 6zm.6.5h0c0-1.6.3-3.2.8-4.8.3-.8.7-1.3 1-1.3.4 0 .8.1 1.1.1h0c.9.1 1.6.2 2.2.4.9.2 1.2.4 1.1.7-.3 1.6-.4 3.3-.4 5v.2c-.1 1.4 0 2.8.2 4.1.1.3 0 .6.2.9.1.2-.3.4-1.1.6-.5.2-1.2.3-2.1.3h0c-.4.1-.9.1-1.3.1-.4-.1-.8-.5-1-1.4a13.49 13.49 0 0 1-.7-4.4v-.5z"/><path id="An" d="M109.7 18.1a6.28 6.28 0 0 1 .3-1.9c.2-.3.3-.6.4-.8.1-.1.2-.2.2-.3.5-.6 1.3-1.2 2.1-1.7 1.8-.8 3.9-1.2 5.9-1.2h.1c.2-.2.3-.3.4-.3l.1-.1c-2.8-.1-5.2.4-7.1 1.6-.3.2-.7.5-.9.7-.1.1-.3.2-.3.4l-.3.3-.9 1.2c-.2.7-.3 1.4-.3 2.1h.3z"/><path id="Ao" d="M32.1 92.3c0 .1.1.2.2.4.6.7 1.9 1 4 .7.2-.1.3-.2.4-.3.2-.1.3-.3.4-.4 0-.6-.2-.9-.2-1-.2.7-.6 1.1-.9 1.1-.9.2-1.7.2-2.4 0-.8-.2-1.1-.5-.9-1 .3-1.4.4-2.8.4-4.2v-.2c.1-1.4 0-2.8-.3-4.1v-.2l-.4-.5v.1a16.78 16.78 0 0 1 .3 4.5v.1c-.1 2-.2 3.5-.6 5z"/><path id="Ap" d="M186.9 57.4h-5.7c-.1 0-.2-.1-.2-.2v-.6c0-.1.1-.2.2-.2h5.7c.1 0 .2.1.2.2v.6c0 .1-.1.2-.2.2z"/><path id="Aq" d="M63.8 66.2c0 1.1.9 1.5 1.8 1.5.7 0 1.2-.1 1.6-.3l.2 1a5.44 5.44 0 0 1-2 .4c-1.9 0-3-1.2-3-3 0-1.6 1-3.1 2.9-3.1s2.5 1.6 2.5 2.8v.6h-4zm2.5-1c0-.5-.2-1.4-1.2-1.4-.9 0-1.3.8-1.4 1.4h2.6z"/></defs></svg>