<svg xmlns="http://www.w3.org/2000/svg" height="600.995" width="600.995"><path d="M600.498 300.497c0 165.69-134.31 300-300 300s-300-134.31-300-300 134.313-300 300-300 300 134.313 300 300z" fill="#fff"/><path d="M300.498 0C134.54 0 0 134.54 0 300.497s134.54 300.5 300.498 300.5 300.5-134.54 300.5-300.5S466.455 0 300.498 0zm0 .497c165.69 0 300 134.313 300 300s-134.31 300-300 300-300-134.31-300-300 134.313-300 300-300z"/><path d="M300.498 10.497c-159.682 0-290 130.318-290 290s130.318 290 290 290 290-130.316 290-290-130.316-290-290-290zm0 80.4c116.236 0 209.6 93.364 209.6 209.6s-93.364 209.6-209.6 209.6-209.6-93.364-209.6-209.6 93.364-209.6 209.6-209.6z" fill="#c1121c"/><path d="M29.8 30.356v.03h-.03l.03-.03z"/><path d="M29.76 30.386v-.03l.03.03h-.03zm.03 0l-.03-.03v.03h.03zm.034 0H29.8v-.03l.034.03z"/><path d="M29.76 30.386v-.03.03l.03-.03-.03.03z"/><path d="M29.76 30.356h.03v.03h-.03v-.03z"/><path d="M29.824 30.356v.06h-.063l.063-.06z"/><path d="M29.76 30.415v-.06l.063.06h-.063zm.063 0l-.063-.06v.06h.063z"/><path d="M29.824 30.415H29.8v-.06l.034.06z"/><path d="M29.76 30.415v-.06.06l.063-.06-.063.06z"/><path d="M29.76 30.356h.064v.06h-.064v-.06zM154.346 309.63c-6.32 12.637-9.477 26.567-9.477 41.782 0 11.47 1.87 21.885 5.615 31.25 3.98 9.36 9.248 17.436 15.8 24.23 6.793 6.786 14.282 11.94 22.476 15.45 8.427 3.5 16.967 5.264 25.63 5.264 9.834 0 19.076-1.52 27.74-4.565s16.504-7.842 23.525-14.395 12.525-14.864 16.505-24.926c3.98-10.304 5.966-22.36 5.966-36.168 0-22.94-5.733-40.264-17.202-51.967-11.24-11.704-25.4-17.554-42.5-17.554-7.256 0-13.574 1.05-18.96 3.16h-.697l52.665-105.7h-40.03l-67.065 134.13zm62.153 0c10.532 0 19.077 3.5 25.63 10.532 6.788 7.02 10.18 17.202 10.18 30.546 0 13.8-3.63 24.1-10.884 30.9-7.022 6.787-15.332 10.18-24.927 10.18-11.24 0-20.014-3.394-26.338-10.18-6.32-7.02-9.477-17.32-9.477-30.9 0-13.344 3.276-23.525 9.83-30.546 6.788-7.02 15.45-10.532 25.986-10.532zm203.814 43.886c0 11.938-3.16 21.303-9.483 28.1s-14.864 10.18-25.63 10.18-19.3-3.394-25.63-10.18-9.483-16.153-9.483-28.1v-106.04c0-11.933 3.16-21.3 9.483-28.085 6.32-6.793 14.864-10.186 25.63-10.186s19.3 3.394 25.63 10.186c6.324 6.786 9.483 16.152 9.483 28.085v106.04zm-106.04 2.1c0 11.235 1.875 21.3 5.62 30.195 3.98 8.896 9.244 16.504 15.8 22.822 6.786 6.324 14.394 11.12 22.822 14.395 8.428 3.046 17.32 4.565 26.684 4.565s18.257-1.52 26.685-4.565c8.663-3.276 16.27-7.955 22.823-14.044 6.557-6.317 11.704-13.925 15.45-22.82 3.98-9.13 5.97-19.312 5.97-30.548V245.37c0-11.235-1.875-21.304-5.62-30.195-3.745-8.898-9-16.504-15.8-22.823s-14.395-11.006-22.823-14.048c-8.427-3.278-17.32-4.917-26.685-4.917s-18.374 1.64-27.036 4.917c-8.428 3.04-15.917 7.724-22.47 14.048-6.558 6.084-11.82 13.7-15.8 22.823-3.745 8.9-5.62 18.96-5.62 30.195v110.254z"/></svg>