<svg xmlns="http://www.w3.org/2000/svg" viewBox="0 0 601 601"><path d="M600.5 299.995c0 165.75-134.25 300-300 300s-300-134.25-300-300c0-165.625 134.25-300 300-300 165.625 0 300 134.375 300 300h0z" fill="#fff"/><path d="M300.5-.505c-166 0-300.5 134.5-300.5 300.5s134.5 300.5 300.5 300.5 300.5-134.5 300.5-300.5S466.5-.505 300.5-.505zm0 .5c165.75 0 300 134.25 300 300s-134.25 300-300 300-300-134.25-300-300c0-165.625 134.25-300 300-300h0z"/><path d="M300.5 9.995c-159.625 0-290 130.375-290 290s130.375 290 290 290 290-130.375 290-290-130.375-290-290-290h0zm0 80.375a209.02 209.02 0 0 1 209.625 209.625A209.02 209.02 0 0 1 300.5 509.62 209.02 209.02 0 0 1 90.875 299.995 209.02 209.02 0 0 1 300.5 90.37h0z" fill="#c1121c"/><path d="M29.75 29.87h0zm0 0h0zm.125 0h0z"/><path d="M29.75 29.87h0zm.125 0h0z"/><path d="M29.875 29.87h0c-.125 0 0 0 0 0zm-.125 0h0zM188.3 414.1c-10.7-5.6-19-13.6-24.9-23.9s-8.8-22.3-8.8-36v-4.1c0-12.3 3-23.9 9.1-34.7 6-10.8 14-19 24-24.5-8.5-4.7-15.4-11.6-20.6-20.5s-7.8-18.3-7.8-28.3V236c0-12.9 2.8-24.2 8.3-33.9 5.5-9.8 13.3-17.3 23.2-22.7 10-5.4 21.6-8 34.8-8s24.8 2.7 34.8 8c10 5.4 17.7 12.9 23.2 22.7s8.3 21.1 8.3 33.9v6.1c0 10.2-2.7 19.7-8 28.5-5.3 8.9-12.3 15.6-20.9 20.2 10.1 5.6 18.2 13.8 24.3 24.6s9.2 22.3 9.2 34.6v4.1c0 13.6-2.9 25.6-8.8 36-5.9 10.3-14.2 18.3-24.9 23.9s-23.2 8.5-37.3 8.5-26.5-2.8-37.2-8.4zm54.9-34.7c5.1-2.8 9-6.8 11.8-12s4.2-11.1 4.2-17.8v-2.4c0-6.5-1.4-12.3-4.2-17.3s-6.7-8.8-11.7-11.6-10.9-4.1-17.6-4.1-12.6 1.4-17.6 4.1c-5 2.8-9 6.7-11.7 11.7-2.8 5-4.2 10.8-4.2 17.3v2.5c0 6.7 1.4 12.5 4.2 17.7 2.8 5.1 6.7 9.1 11.8 11.8 5.1 2.8 10.9 4.1 17.6 4.1s12.3-1.2 17.4-4zm-2.5-108c4.4-2.6 7.7-6.4 10.1-11.3s3.5-10.6 3.5-17v-2.4c0-6-1.2-11.3-3.5-15.9-2.4-4.6-5.7-8.2-10.1-10.7s-9.4-3.7-15-3.7-10.7 1.2-15 3.7c-4.4 2.5-7.7 6-10.1 10.7-2.4 4.6-3.5 10-3.5 16.1v2.5c0 6.3 1.2 11.9 3.5 16.7 2.4 4.9 5.7 8.6 10.1 11.3s9.4 4 15 4 10.7-1.4 15-4zm88.9 132.7c-11.4-12.3-17.1-29.4-17.1-51.4V240.8c0-22.1 5.7-39.3 17.2-51.5 11.4-12.2 28-18.4 49.8-18.4s38.5 6.1 49.9 18.3 17.1 29.4 17.1 51.6v111.8c0 22.1-5.7 39.3-17.2 51.5-11.4 12.2-28 18.4-49.8 18.4-21.9 0-38.5-6.1-49.9-18.4zm72-29.9c4.7-6.4 7.1-15.5 7.1-27.5v-100c0-12-2.4-21.1-7.1-27.5s-12.1-9.6-22.2-9.6-17.5 3.2-22.2 9.6-7.1 15.5-7.1 27.5v100c0 12 2.4 21.1 7.1 27.5s12.1 9.6 22.2 9.6 17.5-3.2 22.2-9.6z"/></svg>