<svg xmlns="http://www.w3.org/2000/svg" viewBox="0 0 602 602"><g fill-rule="evenodd"><path d="M513.5 88.523c39.125 39.125 63.5 81.25 77.75 134.625 14.375 53.5 14.375 102.125 0 155.625-14.25 53.375-38.625 95.625-77.75 134.75s-81.25 63.5-134.75 77.75c-53.375 14.25-102.125 14.25-155.625 0-53.375-14.375-95.625-38.625-134.625-77.75-39.125-39.125-63.5-81.25-77.875-134.75-14.375-53.375-14.375-102.125 0-155.5s38.625-95.625 77.75-134.625c39.125-39.125 81.25-63.5 134.75-77.75 53.5-14.375 102.125-14.375 155.625 0 53.5 14.125 95.625 38.5 134.75 77.625zm-.375.375C474 49.773 432 25.523 378.625 11.148c-53.375-14.25-102-14.25-155.375 0s-95.375 38.625-134.5 77.625c-38.875 39.125-63.25 81.25-77.5 134.625s-14.25 102 0 155.25c14.25 53.375 38.625 95.5 77.625 134.5 39.125 39 81.125 63.375 134.5 77.625 53.375 14.375 102 14.25 155.375 0 53.375-14.375 95.375-38.625 134.5-77.625 39.125-39.125 63.375-81.125 77.625-134.5s14.25-102 0-155.375c-14.375-53.25-38.625-95.375-77.75-134.375z"/><path d="M88.875 88.898C128 49.773 170 25.523 223.375 11.273c53.375-14.375 102-14.25 155.375 0 53.375 14.375 95.5 38.625 134.5 77.75 39 39 63.375 81.125 77.625 134.5s14.25 102 0 155.375-38.625 95.375-77.625 134.5c-39.125 38.875-81.25 63.125-134.625 77.375-53.25 14.375-101.875 14.375-155.25 0-53.375-14.25-95.375-38.5-134.5-77.625-39-39-63.375-81.125-77.625-134.5s-14.25-102 0-155.25c14.25-53.375 38.625-95.5 77.625-134.5z" fill="#fff"/><path d="M98.75 98.773c37.25-37.25 77.375-60.375 128.25-74s97.25-13.625 148 0c50.875 13.625 91 36.75 128.25 74s60.375 77.375 74 128.125c13.625 50.875 13.625 97.25 0 148.125s-36.75 91-74 128.25-77.375 60.375-128.25 74-97.25 13.625-148 0c-50.875-13.625-91-36.75-128.125-74-37.25-37.25-60.5-77.375-74-128.25-13.625-50.875-13.625-97.25 0-148 13.5-50.875 36.625-91 73.875-128.25h0z" fill="#154889"/></g><path d="M357.5 368.148c0 23.75 19.25 43 43 43s43-19.25 43-43V233.773c0-23.75-19.25-43-43-43s-43 19.25-43 43v134.375zm-43 0V233.773c0-47.5 38.5-86 86-86s86 38.5 86 86v134.375c0 47.5-38.5 86-86 86s-86-38.5-86-86M124.7 310.4c-7.7 15.4-11.6 32.4-11.6 51 0 14 2.3 26.7 6.9 38.1 4.9 11.4 11.3 21.3 19.3 29.6 8.3 8.3 17.4 14.6 27.4 18.8 10.3 4.3 20.7 6.4 31.3 6.4 12 0 23.3-1.9 33.8-5.6 10.6-3.7 20.1-9.6 28.7-17.6s15.3-18.1 20.1-30.4c4.9-12.6 7.3-27.3 7.3-44.1 0-28-7-49.1-21-63.4-13.7-14.3-31-21.4-51.8-21.4-8.9 0-16.6 1.3-23.1 3.9h-.9l64.3-128.9h-48.8l-81.9 163.6zm75.8 0c12.8 0 23.3 4.3 31.3 12.8 8.3 8.6 12.4 21 12.4 37.3 0 16.8-4.4 29.4-13.3 37.7-8.6 8.3-18.7 12.4-30.4 12.4-13.7 0-24.4-4.1-32.1-12.4-7.7-8.6-11.6-21.1-11.6-37.7 0-16.3 4-28.7 12-37.3 8.3-8.5 18.8-12.8 31.7-12.8z" fill="#fff"/></svg>