<svg xmlns="http://www.w3.org/2000/svg" xmlns:xlink="http://www.w3.org/1999/xlink" viewBox="0 0 1524 1512"><path d="M5 0h1519v1512H5z" fill="#72bc5c"/><path d="M323 1512h854L946.5 0h-393z" fill="#636363"/><g fill="none" stroke="#fff" stroke-width="8" stroke-miterlimit="10"><path d="M750 4v31.5"/><path d="M750 98.5V1453" stroke-dasharray="63,63"/><path d="M750 1484.5v31.5M932 0l223 1512M569 0L349 1512"/></g><path d="M1177 1512L947 0h102l320 1512zm-854 0L553 0H451L131 1512z" fill="#c7b299"/><linearGradient id="A" gradientUnits="userSpaceOnUse" x1="1201.852" y1="1334.85" x2="1181.102" y2="1334.85"><stop offset="0" stop-color="#edebe9"/><stop offset="0" stop-color="#e1deda"/><stop offset="0" stop-color="#d6d1cc"/><stop offset=".07" stop-color="#c7c3be"/><stop offset=".146" stop-color="#b2aeaa"/><stop offset=".523" stop-color="#e6e6e6"/><stop offset=".633" stop-color="#d9d8d7"/><stop offset=".844" stop-color="#b8b4b0"/><stop offset=".876" stop-color="#b2aeaa"/><stop offset="1" stop-color="#d9d9d9"/><stop offset="1" stop-color="#b1b1b1"/></linearGradient><path d="M1181.1 1183.3l4.9 4.6 5-4.6 5.8 4.6 5.1-4.6v303.1h-20.8z" fill="url(#A)"/><path d="M1290.875 1187.12c0 54.625-44.25 99-99 99-54.625 0-99-44.25-99-99 0-54.625 44.25-99 99-99 54.625 0 99 44.375 99 99h0z" fill="#fff"/><path d="M1265 1187.12c0 40.75-32.75 73.875-73.125 73.875s-73.125-33-73.125-73.875c0-40.75 32.75-73.875 73.125-73.875S1265 1146.37 1265 1187.12z" fill="#154889"/><path d="M1191.875 1087.996c-54.75 0-99.125 44.375-99.125 99.125s44.375 99.125 99.125 99.125S1291 1241.87 1291 1187.12s-44.375-99.125-99.125-99.125zm0 .125c54.625 0 99 44.25 99 99 0 54.625-44.25 99-99 99-54.625 0-99-44.25-99-99 0-54.625 44.375-99 99-99h0z"/><path d="M1274.25 1187.12c0 45.5-36.875 82.375-82.375 82.375s-82.375-36.875-82.375-82.375 36.875-82.375 82.375-82.375 82.375 36.875 82.375 82.375z" fill="none" stroke="#c1121c" stroke-width="26.524"/><path d="M1102.5 1097.996h0zm0 0h0z"/><path d="M1102.5 1097.996h0z"/><path d="M1141.5 1122.87l-14 14 50.25 50.25-50.25 50.25 14 14 50.25-50.25 50.25 50.25 14-14-50.25-50.25 50.25-50.25-14-14-50.25 50.25-50.25-50.25z" fill="#c1121c"/><path d="M1165.875 1137.62l14.875-14.875h8.25l-11.625 11.625h40.5v6.625h-40.5L1189 1152.62h-8.25" fill="#fff"/><linearGradient id="B" gradientUnits="userSpaceOnUse" x1="1113.15" y1="754.6" x2="1093.108" y2="754.6"><stop offset="0" stop-color="#edebe9"/><stop offset="0" stop-color="#e1deda"/><stop offset="0" stop-color="#d6d1cc"/><stop offset=".07" stop-color="#c7c3be"/><stop offset=".146" stop-color="#b2aeaa"/><stop offset=".523" stop-color="#e6e6e6"/><stop offset=".633" stop-color="#d9d8d7"/><stop offset=".844" stop-color="#b8b4b0"/><stop offset=".876" stop-color="#b2aeaa"/><stop offset="1" stop-color="#d9d9d9"/><stop offset="1" stop-color="#b1b1b1"/></linearGradient><path d="M1093.1 608.2l4.8 4.5 4.8-4.5 5.6 4.5 4.9-4.5V901h-20.1z" fill="url(#B)"/><path d="M1011.125 613.746c0-53.25 43.125-96.375 96.375-96.375s96.375 43.125 96.375 96.375-43.125 96.375-96.375 96.375-96.375-43.125-96.375-96.375h0z" fill="#fff"/><path d="M1036.375 613.746c0-39.75 31.875-71.875 71.125-71.875s71.125 32.125 71.125 71.875-31.875 71.875-71.125 71.875-71.125-32.25-71.125-71.875z" fill="#154889"/><path d="M1107.5 710.246c53.25 0 96.5-43.25 96.5-96.5s-43.25-96.5-96.5-96.5-96.5 43.25-96.5 96.5 43.25 96.5 96.5 96.5zm0-.125c-53.25 0-96.375-43.125-96.375-96.375s43.125-96.375 96.375-96.375 96.375 43.125 96.375 96.375-43.125 96.375-96.375 96.375h0z"/><path d="M1027.25 613.746c0-44.25 35.875-80.25 80.25-80.25 44.25 0 80.25 35.875 80.25 80.25 0 44.25-35.875 80.25-80.25 80.25-44.25 0-80.25-36-80.25-80.25z" fill="none" stroke="#c1121c" stroke-width="25.818"/><path d="M1194.5 700.496h0zm-.125 0h0z"/><path d="M1194.5 700.496h0zm-.125 0h0z"/><path d="M1156.5 676.37l13.625-13.625-49-49 49-49-13.625-13.625-49 49-49-49-13.625 13.625 49 49-49 49 13.625 13.625 49-49 49 49z" fill="#c1121c"/><path d="M1132.875 661.996l-14.5 14.5h-8l11.25-11.25h-39.375v-6.375h39.375l-11.25-11.25h8m-36.25-82.125l14.5-14.5h8l-11.25 11.25h39.375v6.375h-39.375l11.25 11.25h-8" fill="#fff"/><linearGradient id="C" gradientUnits="userSpaceOnUse" x1="1032.559" y1="237.6" x2="1013.744" y2="237.6"><stop offset="0" stop-color="#edebe9"/><stop offset="0" stop-color="#e1deda"/><stop offset="0" stop-color="#d6d1cc"/><stop offset=".07" stop-color="#c7c3be"/><stop offset=".146" stop-color="#b2aeaa"/><stop offset=".523" stop-color="#e6e6e6"/><stop offset=".633" stop-color="#d9d8d7"/><stop offset=".844" stop-color="#b8b4b0"/><stop offset=".876" stop-color="#b2aeaa"/><stop offset="1" stop-color="#d9d9d9"/><stop offset="1" stop-color="#b1b1b1"/></linearGradient><path d="M1013.7 100.2l4.5 4.1 4.5-4.1 5.3 4.1 4.6-4.1V375h-18.9z" fill="url(#C)"/><path d="M942.125 105.37c0-48.75 39.5-88.375 88.375-88.375 48.75 0 88.375 39.5 88.375 88.375 0 48.75-39.5 88.375-88.375 88.375-48.75-.125-88.375-39.625-88.375-88.375h0z" fill="#fff"/><path d="M965.25 105.37c0-36.375 29.25-65.875 65.25-65.875s65.25 29.5 65.25 65.875-29.25 65.875-65.25 65.875-65.25-29.5-65.25-65.875z" fill="#154889"/><path d="M1030.5 193.87c48.875 0 88.5-39.625 88.5-88.5s-39.625-88.5-88.5-88.5-88.5 39.625-88.5 88.5 39.625 88.5 88.5 88.5zm0-.25c-48.75 0-88.375-39.5-88.375-88.375 0-48.75 39.5-88.375 88.375-88.375 48.75 0 88.375 39.5 88.375 88.375s-39.625 88.375-88.375 88.375h0z"/><path d="M956.875 105.37c0-40.625 33-73.625 73.625-73.625s73.625 33 73.625 73.625-33 73.625-73.625 73.625c-40.625-.125-73.625-33-73.625-73.625z" fill="none" stroke="#c1121c" stroke-width="23.678"/><path d="M1110.25 184.87h0zm0 0h0z"/><path d="M1110.25 184.87h0z"/><path d="M1075.375 162.746l12.5-12.5L1043 105.37l44.875-44.875-12.5-12.5L1030.5 92.87l-44.875-44.875-12.5 12.5L1018 105.37l-44.875 44.875 12.5 12.5 44.875-44.875 44.875 44.875z" fill="#c1121c"/><path d="M1053.75 149.62l-13.25 13.25h-7.375l10.375-10.375h-36.125v-5.875h36.125l-10.375-10.375h7.375" fill="#fff"/><path d="M1065.3 1249h-72.2l143.9 91-199.9-91H543.7a6.7 6.7 0 0 1-6.7-6.7v-71.5a6.7 6.7 0 0 1 6.7-6.7h521.5a6.7 6.7 0 0 1 6.7 6.7v71.5c.1 3.7-2.9 6.7-6.6 6.7z" fill="#f9f9f9"/><g enable-background="new"><path d="M567.8 1217.8c2.3 1.4 5.8 2.6 9.4 2.6 5.3 0 8.5-2.8 8.5-6.9 0-3.8-2.2-5.9-7.6-8-6.6-2.3-10.7-5.8-10.7-11.5 0-6.3 5.2-11 13.1-11 4.1 0 7.1 1 8.9 2l-1.4 4.3c-1.3-.7-4-1.9-7.7-1.9-5.5 0-7.6 3.3-7.6 6.1 0 3.8 2.5 5.6 8 7.8 6.8 2.6 10.3 5.9 10.3 11.9 0 6.2-4.6 11.6-14.2 11.6-3.9 0-8.2-1.1-10.3-2.6l1.3-4.4z"/><use xlink:href="#E"/><use xlink:href="#F"/><use xlink:href="#G"/><use xlink:href="#E" x="69.8"/><use xlink:href="#H"/><use xlink:href="#I"/><use xlink:href="#J"/><use xlink:href="#K"/><use xlink:href="#L"/><use xlink:href="#F" x="261.2"/><use xlink:href="#G" x="261.2"/><path d="M932.8 1208.4h.1c.7-1 1.7-2.3 2.6-3.3l8.5-10h6.4l-11.2 11.9 12.8 17.1h-6.4l-10-13.9-2.7 3v10.9h-5.2v-42.6h5.2v26.9z"/><use xlink:href="#M"/><path d="M970.8 1202.9l-.2-7.9h4.7l.3 4.8h.1c1.4-2.8 4.8-5.5 9.6-5.5 4 0 10.3 2.4 10.3 12.4v17.3h-5.3v-16.7c0-4.7-1.7-8.6-6.7-8.6-3.5 0-6.2 2.5-7.1 5.4-.2.7-.4 1.6-.4 2.5v17.5h-5.3v-21.2zm58.3-7.8l-.2 8v16.9c0 6.7-1.3 10.7-4.1 13.3s-6.9 3.5-10.6 3.5c-3.5 0-7.3-.8-9.7-2.4l1.3-4c1.9 1.2 4.9 2.3 8.5 2.3 5.4 0 9.4-2.8 9.4-10.1v-3.2h-.1c-1.6 2.7-4.7 4.9-9.2 4.9-7.2 0-12.4-6.1-12.4-14.2 0-9.8 6.4-15.4 13.1-15.4 5 0 7.8 2.6 9.1 5h.1l.2-4.4h4.6zm-5.4 11.4c0-.9-.1-1.7-.3-2.4-1-3.1-3.5-5.6-7.4-5.6-5 0-8.6 4.3-8.6 11 0 5.7 2.9 10.4 8.6 10.4 3.2 0 6.2-2 7.3-5.4.3-.9.4-1.9.4-2.8v-5.2z"/></g><path d="M978.3 659h-72.2l143.9 91-199.9-91H406.7a6.7 6.7 0 0 1-6.7-6.7v-71.5a6.7 6.7 0 0 1 6.7-6.7h571.5a6.7 6.7 0 0 1 6.7 6.7v71.5c.1 3.7-2.9 6.7-6.6 6.7z" fill="#f9f9f9"/><g enable-background="new"><path d="M465.6 616.4c-.3-5.6-.7-12.4-.6-17.5h-.2c-1.4 4.7-3.1 9.8-5.1 15.4l-7.1 19.6h-4l-6.5-19.3c-1.9-5.7-3.5-10.9-4.7-15.7h-.1c-.1 5-.4 11.8-.8 17.9l-1.1 17.3h-5l2.8-40.4h6.7l6.9 19.6c1.7 5 3.1 9.4 4.1 13.6h.2c1-4.1 2.5-8.5 4.3-13.6l7.2-19.6h6.7l2.5 40.4h-5.1l-1.1-17.7z"/><use xlink:href="#N"/><use xlink:href="#O"/><use xlink:href="#O" x="33.9"/><path d="M562 591.5h5.3v42.6H562v-42.6zm17.1 29.1c.1 7.1 4.7 10.1 10 10.1 3.8 0 6.1-.7 8-1.5l.9 3.8c-1.9.8-5 1.8-9.7 1.8-8.9 0-14.3-5.9-14.3-14.6s5.2-15.7 13.6-15.7c9.5 0 12 8.3 12 13.7 0 1.1-.1 1.9-.2 2.5h-20.3zm15.5-3.8c.1-3.4-1.4-8.6-7.3-8.6-5.3 0-7.7 4.9-8.1 8.6h15.4z"/><use xlink:href="#H" x="-81.2" y="-590"/><use xlink:href="#I" x="-81.2" y="-590"/><use xlink:href="#J" x="-81.2" y="-590"/><use xlink:href="#K" x="-81.2" y="-590"/><use xlink:href="#L" x="-81.2" y="-590"/><use xlink:href="#F" x="180" y="-590"/><use xlink:href="#G" x="180" y="-590"/><path d="M851.6 618.4h.1c.7-1 1.7-2.3 2.6-3.3l8.5-10h6.4L858 617l12.8 17.1h-6.4l-10-13.9-2.7 3v10.9h-5.2v-42.6h5.2v26.9z"/><use xlink:href="#M" x="-81.2" y="-590"/><path d="M889.6 612.9l-.2-7.9h4.7l.3 4.8h.1c1.4-2.8 4.8-5.5 9.6-5.5 4 0 10.3 2.4 10.3 12.4V634H909v-16.7c0-4.7-1.7-8.6-6.7-8.6-3.5 0-6.2 2.5-7.1 5.4-.2.7-.4 1.6-.4 2.5v17.5h-5.3v-21.2zm58.3-7.8l-.2 8V630c0 6.7-1.3 10.7-4.1 13.3s-6.9 3.5-10.6 3.5c-3.5 0-7.3-.8-9.7-2.4l1.3-4c1.9 1.2 4.9 2.3 8.5 2.3 5.4 0 9.4-2.8 9.4-10.1v-3.2h-.1c-1.6 2.7-4.7 4.9-9.2 4.9-7.2 0-12.4-6.1-12.4-14.2 0-9.8 6.4-15.4 13.1-15.4 5 0 7.8 2.6 9.1 5h.1l.2-4.4h4.6zm-5.4 11.4c0-.9-.1-1.7-.3-2.4-1-3.1-3.5-5.6-7.4-5.6-5 0-8.6 4.3-8.6 11 0 5.7 2.9 10.4 8.6 10.4 3.2 0 6.2-2 7.3-5.4.3-.9.4-1.9.4-2.8v-5.2z"/></g><path d="M919.3 179h-72.2L991 270l-199.9-91H397.7a6.7 6.7 0 0 1-6.7-6.7v-71.5a6.7 6.7 0 0 1 6.7-6.7h521.5a6.7 6.7 0 0 1 6.7 6.7v71.5c.1 3.7-2.9 6.7-6.6 6.7z" fill="#f9f9f9"/><g enable-background="new"><path d="M443.5 135.2h-15.7v14.6h17.5v4.4h-22.7v-40.4h21.8v4.4h-16.6V131h15.7v4.2z"/><use xlink:href="#P"/><path d="M510.2 111.5v35.1l.2 7.5h-4.7l-.2-5h-.1c-1.6 3.2-5.2 5.7-9.9 5.7-7 0-12.4-5.9-12.4-14.8-.1-9.7 5.9-15.6 13-15.6 4.4 0 7.4 2.1 8.8 4.4h.1v-17.3h5.2zm-5.2 25.4a14.98 14.98 0 0 0-.2-2.2c-.8-3.4-3.7-6.1-7.6-6.1-5.5 0-8.7 4.8-8.7 11.2 0 5.9 2.9 10.7 8.6 10.7 3.5 0 6.8-2.3 7.7-6.3.2-.7.2-1.4.2-2.3v-5z"/><use xlink:href="#H" x="-168.4" y="-1070"/><use xlink:href="#I" x="-168.4" y="-1070"/><use xlink:href="#J" x="-168.4" y="-1070"/><use xlink:href="#H" x="-65.8" y="-1070"/><path d="M680.2 114.2a61.92 61.92 0 0 1 10-.8c5.2 0 8.9 1.2 11.3 3.4 2.2 1.9 3.5 4.9 3.5 8.5 0 3.7-1.1 6.5-3.1 8.6-2.8 2.9-7.3 4.4-12.4 4.4-1.6 0-3-.1-4.2-.4v16.2h-5.2v-39.9zm5.2 19.5c1.1.3 2.6.4 4.3.4 6.3 0 10.1-3.1 10.1-8.6 0-5.3-3.8-7.9-9.5-7.9-2.3 0-4 .2-4.9.4v15.7z"/><use xlink:href="#F" x="92.8" y="-1070"/><use xlink:href="#G" x="92.8" y="-1070"/><path d="M764.4 138.4h.1c.7-1 1.7-2.3 2.6-3.3l8.5-10h6.4L770.7 137l12.8 17.1h-6.4l-10-13.9-2.7 3v10.9h-5.2v-42.6h5.2v26.9z"/><use xlink:href="#N" x="308" y="-480"/><use xlink:href="#P" x="350.5"/><path d="M860.7 125.1l-.2 8V150c0 6.7-1.3 10.7-4.1 13.3s-6.9 3.5-10.6 3.5c-3.5 0-7.3-.8-9.7-2.4l1.3-4c1.9 1.2 4.9 2.3 8.5 2.3 5.4 0 9.4-2.8 9.4-10.1v-3.2h-.1c-1.6 2.7-4.7 4.9-9.2 4.9-7.2 0-12.4-6.1-12.4-14.2 0-9.8 6.4-15.4 13.1-15.4 5 0 7.8 2.6 9.1 5h.1l.2-4.4h4.6zm-5.5 11.4c0-.9-.1-1.7-.3-2.4-1-3.1-3.5-5.6-7.4-5.6-5 0-8.6 4.3-8.6 11 0 5.7 2.9 10.4 8.6 10.4 3.2 0 6.2-2 7.3-5.4.3-.9.4-1.9.4-2.8v-5.2z"/></g><text transform="translate(494.824 1422)" fill="#a09d9d" font-family="MyriadPro-Regular" font-size="60">routetogermany.com</text><defs ><path id="E" d="M604.1 1186.7v8.3h7.6v4h-7.6v15.7c0 3.6 1 5.6 4 5.6 1.4 0 2.4-.2 3.1-.4l.2 4c-1 .4-2.6.7-4.7.7-2.5 0-4.4-.8-5.7-2.2-1.5-1.6-2-4.1-2-7.6V1199h-4.5v-4h4.5v-7l5.1-1.3z"/><path id="F" d="M633.7 1224.1l-.4-3.7h-.2c-1.6 2.3-4.7 4.3-8.9 4.3-5.9 0-8.9-4.1-8.9-8.3 0-7 6.2-10.9 17.5-10.8v-.6c0-2.4-.7-6.7-6.6-6.7-2.7 0-5.5.8-7.6 2.2l-1.2-3.5c2.4-1.6 5.9-2.6 9.5-2.6 8.9 0 11 6.1 11 11.9v10.9c0 2.5.1 5 .5 7h-4.7zm-.8-14.8c-5.8-.1-12.3.9-12.3 6.5 0 3.4 2.3 5 5 5 3.8 0 6.2-2.4 7-4.9.2-.5.3-1.1.3-1.7v-4.9z"/><path id="G" d="M646.5 1204.1l-.2-9.1h4.6l.2 5.7h.2c1.3-3.9 4.5-6.4 8-6.4.6 0 1 .1 1.5.2v5c-.5-.1-1.1-.2-1.8-.2-3.7 0-6.4 2.8-7.1 6.8-.1.7-.2 1.6-.2 2.5v15.5h-5.2v-20z"/><path id="H" d="M726.4 1209.4c0 10.7-7.4 15.4-14.5 15.4-7.9 0-13.9-5.8-13.9-14.9 0-9.7 6.4-15.4 14.4-15.4 8.4-.1 14 6 14 14.9zm-23 .3c0 6.4 3.7 11.2 8.8 11.2 5 0 8.8-4.7 8.8-11.3 0-4.9-2.5-11.2-8.7-11.2s-8.9 5.7-8.9 11.3z"/><path id="I" d="M733.6 1224.1v-25h-4.1v-4h4.1v-1.4c0-4.1.9-7.8 3.4-10.1 2-1.9 4.6-2.7 7.1-2.7 1.9 0 3.5.4 4.5.8l-.7 4.1c-.8-.4-1.9-.7-3.4-.7-4.5 0-5.6 4-5.6 8.4v1.6h7v4h-7v25h-5.3z"/><path id="J" d="M763.5 1224.1v-40.4h5.7l13 20.5c3 4.7 5.3 9 7.3 13.1l.1-.1c-.5-5.4-.6-10.3-.6-16.6v-16.9h4.9v40.4h-5.3l-12.8-20.5c-2.8-4.5-5.5-9.1-7.6-13.5l-.2.1c.3 5.1.4 10 .4 16.7v17.3h-4.9z"/><path id="K" d="M829.1 1209.4c0 10.7-7.4 15.4-14.5 15.4-7.9 0-13.9-5.8-13.9-14.9 0-9.7 6.4-15.4 14.4-15.4 8.3-.1 14 6 14 14.9zm-23.1.3c0 6.4 3.7 11.2 8.8 11.2 5 0 8.8-4.7 8.8-11.3 0-4.9-2.5-11.2-8.7-11.2s-8.9 5.7-8.9 11.3z"/><path id="L" d="M848.6 1184.2a61.92 61.92 0 0 1 10-.8c5.2 0 8.9 1.2 11.3 3.4 2.2 1.9 3.5 4.9 3.5 8.5 0 3.7-1.1 6.5-3.1 8.6-2.8 2.9-7.3 4.4-12.4 4.4-1.6 0-3-.1-4.2-.4v16.2h-5.2v-39.9zm5.3 19.5c1.1.3 2.6.4 4.3.4 6.3 0 10.1-3.1 10.1-8.6 0-5.3-3.8-7.9-9.5-7.9-2.3 0-4 .2-4.9.4v15.7z"/><path id="M" d="M962.6 1186.9c.1 1.8-1.3 3.2-3.4 3.2-1.9 0-3.2-1.4-3.2-3.2 0-1.9 1.4-3.3 3.3-3.3 2.1 0 3.3 1.5 3.3 3.3zm-5.8 37.2v-29h5.3v29h-5.3z"/><path id="N" d="M486.2 596.9c.1 1.8-1.3 3.2-3.4 3.2-1.9 0-3.2-1.4-3.2-3.2 0-1.9 1.4-3.3 3.3-3.3 2 0 3.3 1.5 3.3 3.3zm-5.9 37.2v-29h5.3v29h-5.3z"/><path id="O" d="M519.4 591.5v35.1l.2 7.5h-4.7l-.2-5h-.1c-1.6 3.2-5.2 5.7-9.9 5.7-7 0-12.4-5.9-12.4-14.8-.1-9.7 5.9-15.6 13-15.6 4.4 0 7.4 2.1 8.8 4.4h.1v-17.3h5.2zm-5.3 25.4a14.98 14.98 0 0 0-.2-2.2c-.8-3.4-3.7-6.1-7.6-6.1-5.5 0-8.7 4.8-8.7 11.2 0 5.9 2.9 10.7 8.6 10.7 3.5 0 6.8-2.3 7.7-6.3.2-.7.2-1.4.2-2.3v-5z"/><path id="P" d="M451.9 132.9l-.2-7.9h4.7l.3 4.8h.1c1.4-2.8 4.8-5.5 9.6-5.5 4 0 10.3 2.4 10.3 12.4V154h-5.3v-16.7c0-4.7-1.7-8.6-6.7-8.6-3.5 0-6.2 2.5-7.1 5.4-.2.7-.4 1.6-.4 2.5v17.5h-5.3v-21.2z"/></defs></svg>