<svg xmlns="http://www.w3.org/2000/svg" xmlns:xlink="http://www.w3.org/1999/xlink" viewBox="0 0 1524 1512"><style><![CDATA[.Z{fill:#fff}.a{fill:none}.b{fill:#154889}.c{stroke:#c1121c}.d{fill:#c1121c}.e{stroke-width:25.818}]]></style><path d="M0 0h1524v1512H0z" fill="#72bc5c"/><path d="M323 1512h854L946.5 0h-393z" fill="#636363"/><path d="M932 0l223 1512M569 0L349 1512" stroke="#fff" stroke-width="8" stroke-miterlimit="10" class="a"/><path d="M1177 1512L947 0h102l320 1512zm-854 0L553 0H451L131 1512z" fill="#c7b299"/><linearGradient id="A" gradientUnits="userSpaceOnUse" x1="1201.852" y1="1334.848" x2="1181.102" y2="1334.848"><stop offset="0" stop-color="#edebe9"/><stop offset="0" stop-color="#e1deda"/><stop offset="0" stop-color="#d6d1cc"/><stop offset=".07" stop-color="#c7c3be"/><stop offset=".146" stop-color="#b2aeaa"/><stop offset=".523" stop-color="#e6e6e6"/><stop offset=".633" stop-color="#d9d8d7"/><stop offset=".844" stop-color="#b8b4b0"/><stop offset=".876" stop-color="#b2aeaa"/><stop offset="1" stop-color="#d9d9d9"/><stop offset="1" stop-color="#b1b1b1"/></linearGradient><path d="M1181.1 1183.3l4.9 4.6 5-4.6 5.8 4.6 5.1-4.6v303.1h-20.8z" fill="url(#A)"/><path d="M1290.875 1187.12c0 54.625-44.25 99-99 99-54.625 0-99-44.25-99-99 0-54.625 44.25-99 99-99 54.625 0 99 44.375 99 99h0z" class="Z"/><path d="M1265 1187.12c0 40.75-32.75 73.875-73.125 73.875s-73.125-33-73.125-73.875c0-40.75 32.75-73.875 73.125-73.875S1265 1146.37 1265 1187.12z" class="b"/><path d="M1191.875 1087.996c-54.75 0-99.125 44.375-99.125 99.125s44.375 99.125 99.125 99.125S1291 1241.87 1291 1187.12s-44.375-99.125-99.125-99.125zm0 .125c54.625 0 99 44.25 99 99 0 54.625-44.25 99-99 99-54.625 0-99-44.25-99-99 0-54.625 44.375-99 99-99h0z"/><path d="M1274.25 1187.12c0 45.5-36.875 82.375-82.375 82.375s-82.375-36.875-82.375-82.375 36.875-82.375 82.375-82.375 82.375 36.875 82.375 82.375z" stroke-width="26.524" class="a c"/><path d="M1102.5 1097.996h0zm0 0h0z"/><path d="M1102.5 1097.996h0z"/><path d="M1141.5 1122.87l-14 14 50.25 50.25-50.25 50.25 14 14 50.25-50.25 50.25 50.25 14-14-50.25-50.25 50.25-50.25-14-14-50.25 50.25-50.25-50.25z" class="d"/><path d="M1165.875 1137.62l14.875-14.875h8.25l-11.625 11.625h40.5v6.625h-40.5L1189 1152.62h-8.25" class="Z"/><linearGradient id="B" gradientUnits="userSpaceOnUse" x1="490.307" y1="238.424" x2="472.703" y2="238.424"><stop offset="0" stop-color="#edebe9"/><stop offset="0" stop-color="#e1deda"/><stop offset="0" stop-color="#d6d1cc"/><stop offset=".07" stop-color="#c7c3be"/><stop offset=".146" stop-color="#b2aeaa"/><stop offset=".523" stop-color="#e6e6e6"/><stop offset=".633" stop-color="#d9d8d7"/><stop offset=".844" stop-color="#b8b4b0"/><stop offset=".876" stop-color="#b2aeaa"/><stop offset="1" stop-color="#d9d9d9"/><stop offset="1" stop-color="#b1b1b1"/></linearGradient><path d="M472.7 109.8l4.2 4 4.2-4 4.9 4 4.3-4V367h-17.6z" fill="url(#B)"/><path d="M565.75 113.12c0 46.375-37.625 84-84 84s-84-37.625-84-84 37.625-84 84-84c46.5 0 84 37.625 84 84h0z" class="Z"/><path d="M543.875 113.12c0 34.625-27.75 62.625-62 62.625s-62-28-62-62.625 27.75-62.625 62-62.625 62 28 62 62.625z" class="b"/><path d="M481.875 28.996c-46.5 0-84.125 37.625-84.125 84.125s37.625 84.125 84.125 84.125S566 159.62 566 113.12s-37.75-84.125-84.125-84.125zm0 .125c46.375 0 84 37.625 84 84s-37.625 84-84 84-84-37.625-84-84 37.625-84 84-84h0z"/><path d="M551.75 113.12c0 38.625-31.25 69.875-69.875 69.875S412 151.746 412 113.12s31.25-69.875 69.875-69.875 69.875 31.25 69.875 69.875z" stroke-width="22.502" class="a c"/><path d="M406 37.496h0zm0 0h0z"/><path d="M406 37.496h0zm.125 0h0z"/><path d="M406.125 37.496h0zm-.125 0h0z"/><path d="M439.125 58.496L427.25 70.37l42.625 42.625-42.625 42.625 11.875 11.875 42.625-42.625 42.625 42.625 11.875-11.875-42.5-42.5 42.625-42.625L524.5 58.62l-42.625 42.625-42.75-42.75z" class="d"/><path d="M459.75 70.996l12.625-12.625h7l-9.875 9.875h34.375v5.625H469.5l9.875 9.875h-7" class="Z"/><linearGradient id="C" gradientUnits="userSpaceOnUse" x1="1113.15" y1="754.617" x2="1093.108" y2="754.617"><stop offset="0" stop-color="#edebe9"/><stop offset="0" stop-color="#e1deda"/><stop offset="0" stop-color="#d6d1cc"/><stop offset=".07" stop-color="#c7c3be"/><stop offset=".146" stop-color="#b2aeaa"/><stop offset=".523" stop-color="#e6e6e6"/><stop offset=".633" stop-color="#d9d8d7"/><stop offset=".844" stop-color="#b8b4b0"/><stop offset=".876" stop-color="#b2aeaa"/><stop offset="1" stop-color="#d9d9d9"/><stop offset="1" stop-color="#b1b1b1"/></linearGradient><path d="M1093.1 608.2l4.8 4.5 4.8-4.5 5.6 4.5 4.9-4.5V901h-20.1z" fill="url(#C)"/><path d="M1011.125 613.746c0-53.25 43.125-96.375 96.375-96.375s96.375 43.125 96.375 96.375-43.125 96.375-96.375 96.375-96.375-43.125-96.375-96.375h0z" class="Z"/><path d="M1036.375 613.746c0-39.75 31.875-71.875 71.125-71.875s71.125 32.125 71.125 71.875-31.875 71.875-71.125 71.875-71.125-32.25-71.125-71.875z" class="b"/><path d="M1107.5 710.246c53.25 0 96.5-43.25 96.5-96.5s-43.25-96.5-96.5-96.5-96.5 43.25-96.5 96.5 43.25 96.5 96.5 96.5zm0-.125c-53.25 0-96.375-43.125-96.375-96.375s43.125-96.375 96.375-96.375 96.375 43.125 96.375 96.375-43.125 96.375-96.375 96.375h0z"/><use xlink:href="#I" class="a c e"/><path d="M1194.5 700.496h0zm-.125 0h0z"/><path d="M1194.5 700.496h0zm-.125 0h0z"/><path d="M1156.5 676.37l13.625-13.625-49-49 49-49-13.625-13.625-49 49-49-49-13.625 13.625 49 49-49 49 13.625 13.625 49-49 49 49z" class="d"/><path d="M1132.875 661.996l-14.5 14.5h-8l11.25-11.25h-39.375v-6.375h39.375l-11.25-11.25h8m-36.25-82.125l14.5-14.5h8l-11.25 11.25h39.375v6.375h-39.375l11.25 11.25h-8" class="Z"/><linearGradient id="D" gradientUnits="userSpaceOnUse" x1="407.15" y1="770.617" x2="387.108" y2="770.617"><stop offset="0" stop-color="#edebe9"/><stop offset="0" stop-color="#e1deda"/><stop offset="0" stop-color="#d6d1cc"/><stop offset=".07" stop-color="#c7c3be"/><stop offset=".146" stop-color="#b2aeaa"/><stop offset=".523" stop-color="#e6e6e6"/><stop offset=".633" stop-color="#d9d8d7"/><stop offset=".844" stop-color="#b8b4b0"/><stop offset=".876" stop-color="#b2aeaa"/><stop offset="1" stop-color="#d9d9d9"/><stop offset="1" stop-color="#b1b1b1"/></linearGradient><path d="M387.1 624.2l4.8 4.5 4.8-4.5 5.6 4.5 4.8-4.5V917h-20z" fill="url(#D)"/><path d="M305.125 629.746c0-53.25 43.125-96.375 96.375-96.375s96.375 43.125 96.375 96.375S454.75 726.12 401.5 726.12s-96.375-43.125-96.375-96.375h0z" class="Z"/><path d="M330.375 629.746c0-39.75 31.875-71.875 71.125-71.875s71.125 32.125 71.125 71.875S440.75 701.62 401.5 701.62s-71.125-32.25-71.125-71.875z" class="b"/><path d="M401.5 726.246c53.25 0 96.5-43.25 96.5-96.5s-43.25-96.5-96.5-96.5-96.5 43.125-96.5 96.5c0 53.25 43.25 96.5 96.5 96.5zm0-.125c-53.25 0-96.375-43.125-96.375-96.375S348.25 533.37 401.5 533.37s96.375 43.125 96.375 96.375S454.75 726.12 401.5 726.12h0z"/><use xlink:href="#I" x="-706" y="16" class="a c e"/><path d="M488.5 716.496h0zm-.125 0h0z"/><path d="M488.5 716.496h0zm-.125 0h0z"/><path d="M450.5 692.37l13.625-13.625-49-49 49-49L450.5 567.12l-49 49-49-49-13.625 13.625 49 49-49 49L352.5 692.37l49-49 49 49z" class="d"/><path d="M426.875 677.996l-14.5 14.5h-8l11.25-11.25H376.25v-6.375h39.375l-11.25-11.25h8m-36.25-82.125l14.5-14.5h8l-11.25 11.25h39.375v6.5h-39.375l11.25 11.25h-8" class="Z"/><linearGradient id="E" gradientUnits="userSpaceOnUse" x1="1032.559" y1="237.581" x2="1013.744" y2="237.581"><stop offset="0" stop-color="#edebe9"/><stop offset="0" stop-color="#e1deda"/><stop offset="0" stop-color="#d6d1cc"/><stop offset=".07" stop-color="#c7c3be"/><stop offset=".146" stop-color="#b2aeaa"/><stop offset=".523" stop-color="#e6e6e6"/><stop offset=".633" stop-color="#d9d8d7"/><stop offset=".844" stop-color="#b8b4b0"/><stop offset=".876" stop-color="#b2aeaa"/><stop offset="1" stop-color="#d9d9d9"/><stop offset="1" stop-color="#b1b1b1"/></linearGradient><path d="M1013.7 100.2l4.5 4.1 4.5-4.1 5.3 4.1 4.6-4.1V375h-18.9z" fill="url(#E)"/><path d="M942.125 105.37c0-48.75 39.5-88.375 88.375-88.375 48.75 0 88.375 39.5 88.375 88.375 0 48.75-39.5 88.375-88.375 88.375-48.75-.125-88.375-39.625-88.375-88.375h0z" class="Z"/><path d="M965.25 105.37c0-36.375 29.25-65.875 65.25-65.875s65.25 29.5 65.25 65.875-29.25 65.875-65.25 65.875-65.25-29.5-65.25-65.875z" class="b"/><path d="M1030.5 193.87c48.875 0 88.5-39.625 88.5-88.5s-39.625-88.5-88.5-88.5-88.5 39.625-88.5 88.5 39.625 88.5 88.5 88.5zm0-.25c-48.75 0-88.375-39.5-88.375-88.375 0-48.75 39.5-88.375 88.375-88.375 48.75 0 88.375 39.5 88.375 88.375s-39.625 88.375-88.375 88.375h0z"/><path d="M956.875 105.37c0-40.625 33-73.625 73.625-73.625s73.625 33 73.625 73.625-33 73.625-73.625 73.625c-40.625-.125-73.625-33-73.625-73.625z" stroke-width="23.678" class="a c"/><path d="M1110.25 184.87h0zm0 0h0z"/><path d="M1110.25 184.87h0z"/><path d="M1075.375 162.746l12.5-12.5L1043 105.37l44.875-44.875-12.5-12.5L1030.5 92.87l-44.875-44.875-12.5 12.5L1018 105.37l-44.875 44.875 12.5 12.5 44.875-44.875 44.875 44.875z" class="d"/><path d="M1053.75 149.62l-13.25 13.25h-7.375l10.375-10.375h-36.125v-5.875h36.125l-10.375-10.375h7.375" class="Z"/><linearGradient id="F" gradientUnits="userSpaceOnUse" x1="313.174" y1="1327.63" x2="292.86" y2="1327.63"><stop offset="0" stop-color="#edebe9"/><stop offset="0" stop-color="#e1deda"/><stop offset="0" stop-color="#d6d1cc"/><stop offset=".07" stop-color="#c7c3be"/><stop offset=".146" stop-color="#b2aeaa"/><stop offset=".523" stop-color="#e6e6e6"/><stop offset=".633" stop-color="#d9d8d7"/><stop offset=".844" stop-color="#b8b4b0"/><stop offset=".876" stop-color="#b2aeaa"/><stop offset="1" stop-color="#d9d9d9"/><stop offset="1" stop-color="#b1b1b1"/></linearGradient><path d="M292.9 1179.3l4.8 4.5 4.9-4.5 5.6 4.5 5-4.5V1476h-20.3z" fill="url(#F)"/><path d="M210.125 1167.496c0-52.625 42.75-95.375 95.375-95.375s95.375 42.75 95.375 95.375-42.75 95.375-95.375 95.375c-52.625.125-95.375-42.625-95.375-95.375h0z" class="Z"/><path d="M235.125 1167.496c0-39.25 31.5-71.125 70.5-71.125 38.875 0 70.5 31.875 70.5 71.125s-31.5 71.125-70.5 71.125c-39 .125-70.5-31.75-70.5-71.125z" class="b"/><path d="M305.5 1263.12c52.75 0 95.5-42.75 95.5-95.5s-42.75-95.5-95.5-95.5-95.5 42.75-95.5 95.5 42.75 95.5 95.5 95.5zm0-.125c-52.625 0-95.375-42.75-95.375-95.375s42.75-95.375 95.375-95.375 95.375 42.75 95.375 95.375c.125 52.625-42.625 95.375-95.375 95.375h0z"/><path d="M226.125 1167.496c0-43.875 35.625-79.375 79.375-79.375 43.875 0 79.375 35.625 79.375 79.375 0 43.875-35.625 79.375-79.375 79.375-43.875.125-79.375-35.5-79.375-79.375z" stroke-width="25.565" class="a c"/><path d="M391.625 1253.496h0zm0 0h0z"/><path d="M391.625 1253.496h0z"/><path d="M354 1229.496l13.5-13.5-48.5-48.5 48.5-48.5-13.5-13.5-48.5 48.5-48.5-48.5-13.5 13.5 48.5 48.5-48.375 48.5 13.5 13.5 48.5-48.5 48.375 48.5z" class="d"/><path d="M330.625 1215.37l-14.375 14.375h-8l11.125-11.125h-39v-6.375h39l-11.125-11.125h8" class="Z"/><linearGradient id="G" gradientUnits="userSpaceOnUse" x1="1300.048" y1="961.658" x2="1282.3" y2="955.416"><stop offset="0" stop-color="#edebe9"/><stop offset="0" stop-color="#e1deda"/><stop offset="0" stop-color="#d6d1cc"/><stop offset=".07" stop-color="#c7c3be"/><stop offset=".146" stop-color="#b2aeaa"/><stop offset=".523" stop-color="#e6e6e6"/><stop offset=".633" stop-color="#d9d8d7"/><stop offset=".844" stop-color="#b8b4b0"/><stop offset=".876" stop-color="#b2aeaa"/><stop offset="1" stop-color="#d9d9d9"/><stop offset="1" stop-color="#b1b1b1"/></linearGradient><path d="M1327.9 825.8l2.8 5.5 5.7-2.5 3.5 5.7 5.7-2.4-91.2 259.2-17.7-6.2z" fill="url(#G)"/><path d="M1487.8 1236h-154.6a13.19 13.19 0 0 1-13.2-13.2v-80.6a13.19 13.19 0 0 1 13.2-13.2h154.6a13.19 13.19 0 0 1 13.2 13.2v80.6a13.19 13.19 0 0 1-13.2 13.2zM1266 145h-126a12.04 12.04 0 0 1-12-12V50a12.04 12.04 0 0 1 12-12h126a12.04 12.04 0 0 1 12 12v83a12.04 12.04 0 0 1-12 12zm-896-1H244a12.04 12.04 0 0 1-12-12V49a12.04 12.04 0 0 1 12-12h126a12.04 12.04 0 0 1 12 12v83a12.04 12.04 0 0 1-12 12zM185.8 1239H31.2c-7.2 0-13.2-5.9-13.2-13.2v-80.6a13.19 13.19 0 0 1 13.2-13.2h154.6a13.19 13.19 0 0 1 13.2 13.2v80.6a13.19 13.19 0 0 1-13.2 13.2zm1262.6-587h-221.8c-8.6 0-15.6-7-15.6-15.6v-75.8c0-8.6 7-15.6 15.6-15.6h221.8c8.6 0 15.6 7 15.6 15.6v75.8c0 8.6-7 15.6-15.6 15.6zm-1173 10H53.6C45 662 38 655 38 646.4v-75.8c0-8.6 7-15.6 15.6-15.6h221.8c8.6 0 15.6 7 15.6 15.6v75.8c0 8.6-7 15.6-15.6 15.6z" class="Z"/><use xlink:href="#J"/><use xlink:href="#K"/><use xlink:href="#L"/><use xlink:href="#M"/><use xlink:href="#K" x="89.1"/><use xlink:href="#N"/><use xlink:href="#O"/><path d="M1343.2 573.4v41.3l.3 9.9h-7.9l-.4-5.5h-.1c-2.1 3.9-6.3 6.3-11.4 6.3-8.4 0-15-7.1-15-17.9-.1-11.7 7.3-18.7 15.7-18.7 4.8 0 8.3 2 9.9 4.6h.1v-19.9h8.8zm-8.9 30.6c0-.7-.1-1.6-.2-2.3-.8-3.5-3.6-6.3-7.6-6.3-5.7 0-8.9 5-8.9 11.6 0 6.4 3.2 11.1 8.8 11.1 3.6 0 6.8-2.4 7.6-6.3a10.9 10.9 0 0 0 .3-2.6V604zm50.7-30.6v41.3l.3 9.9h-7.9l-.4-5.5h-.1c-2.1 3.9-6.3 6.3-11.4 6.3-8.4 0-15-7.1-15-17.9-.1-11.7 7.3-18.7 15.7-18.7 4.8 0 8.3 2 9.9 4.6h.1v-19.9h8.8zm-8.8 30.6c0-.7-.1-1.6-.2-2.3-.8-3.5-3.6-6.3-7.6-6.3-5.7 0-8.9 5-8.9 11.6 0 6.4 3.2 11.1 8.8 11.1 3.6 0 6.8-2.4 7.6-6.3a10.9 10.9 0 0 0 .3-2.6V604zm18.3-30.6h8.9v51.1h-8.9v-51.1z"/><use xlink:href="#P"/><path d="M1171.8,92h-18.3v14.3h20.5v7.3h-29.3V65h28.2v7.3h-19.4v12.5h18.3V92z"/><use xlink:href="#Q"/><path d="M1254.8 62.4v41.3l.3 9.9h-7.9l-.4-5.5h-.1c-2.1 3.9-6.3 6.3-11.4 6.3-8.4 0-15-7.1-15-17.9-.1-11.7 7.3-18.7 15.7-18.7 4.8 0 8.3 2 9.9 4.6h.1v-20h8.8zM1246 93c0-.7-.1-1.6-.2-2.3-.8-3.5-3.6-6.3-7.6-6.3-5.7 0-8.9 5-8.9 11.6 0 6.4 3.2 11.1 8.8 11.1 3.6 0 6.8-2.4 7.6-6.3a10.9 10.9 0 0 0 .3-2.6V93z"/><use xlink:href="#J" x="-1303" y="3"/><use xlink:href="#K" x="-1303" y="3"/><use xlink:href="#L" x="-1303" y="3"/><use xlink:href="#M" x="-1303" y="3"/><use xlink:href="#K" x="-1213.9" y="3"/><use xlink:href="#N" x="-1173" y="9"/><use xlink:href="#O" x="-1173" y="9"/><path d="M170.2 582.4v41.3l.3 9.9h-7.9l-.4-5.5h-.1c-2.1 3.9-6.3 6.3-11.4 6.3-8.4 0-15-7.1-15-17.9-.1-11.7 7.3-18.7 15.7-18.7 4.8 0 8.3 2 9.9 4.6h.1v-19.9h8.8zm-8.9 30.6c0-.7-.1-1.6-.2-2.3-.8-3.5-3.6-6.3-7.6-6.3-5.7 0-8.9 5-8.9 11.6 0 6.4 3.2 11.1 8.8 11.1 3.6 0 6.8-2.4 7.6-6.3a10.9 10.9 0 0 0 .3-2.6V613zm50.7-30.6v41.3l.3 9.9h-7.9l-.4-5.6h-.1c-2.1 3.9-6.3 6.3-11.4 6.3-8.4 0-15-7.1-15-17.9-.1-11.7 7.3-18.7 15.7-18.7 4.8 0 8.3 2 9.9 4.6h.1v-19.9h8.8zm-8.8 30.6c0-.7-.1-1.6-.2-2.3-.8-3.5-3.6-6.3-7.6-6.3-5.7 0-8.9 5-8.9 11.6 0 6.4 3.2 11.1 8.8 11.1 3.6 0 6.8-2.4 7.6-6.3a10.9 10.9 0 0 0 .3-2.6V613zm18.3-30.6h8.9v51.1h-8.9v-51.1z"/><use xlink:href="#P" x="-1173" y="9"/><path d="M275.8 92h-18.3v14.3H278v7.3h-29.3V65h28.2v7.3h-19.4v12.5h18.3V92z"/><use xlink:href="#Q" x="-896"/><path d="M358.8 62.4v41.3l.3 9.9h-7.9l-.4-5.5h-.1c-2.1 3.9-6.3 6.3-11.4 6.3-8.4 0-15-7.1-15-17.9-.1-11.7 7.3-18.7 15.7-18.7 4.8 0 8.3 2 9.9 4.6h.1v-20h8.8zM350 93c0-.7-.1-1.6-.2-2.3-.8-3.5-3.6-6.3-7.6-6.3-5.7 0-8.9 5-8.9 11.6 0 6.4 3.2 11.1 8.8 11.1 3.6 0 6.8-2.4 7.6-6.3a10.9 10.9 0 0 0 .3-2.6V93z"/><g transform="matrix(1.25 0 0 -1.25 0 269)"><defs><path id="H" d="M1056.3-338.4l50.2-173.3-33.6-63.7-50.2 173.3z"/><path id="I" d="M1027.25 613.746c0-44.25 35.875-80.25 80.25-80.25 44.25 0 80.25 35.875 80.25 80.25 0 44.25-35.875 80.25-80.25 80.25-44.25 0-80.25-36-80.25-80.25z"/><path id="J" d="M1334.4 1195.9c2.9 1.7 7.2 3.1 11.7 3.1 5.7 0 8.9-2.7 8.9-6.6 0-3.7-2.4-5.8-8.6-8.1-8-2.9-13.1-7.1-13.1-14.1 0-7.9 6.6-14 17.1-14 5.3 0 9.1 1.2 11.7 2.4l-2.2 7.1c-1.7-.9-5.1-2.3-9.6-2.3-5.6 0-8.1 3-8.1 5.8 0 3.7 2.8 5.5 9.3 8 8.4 3.2 12.5 7.4 12.5 14.4 0 7.8-5.9 14.5-18.4 14.5-5.1 0-10.4-1.4-13.1-3l1.9-7.2z"/><path id="K" d="M1381.5 1160.4v10h8.4v6.6h-8.4v15.5c0 4.2 1.2 6.5 4.5 6.5 1.5 0 2.7-.2 3.5-.4l.1 6.8c-1.3.5-3.6.9-6.4.9-3.2 0-6-1.1-7.6-2.9-1.9-2-2.7-5.2-2.7-9.8v-16.5h-5v-6.6h5v-7.9l8.6-2.2z"/><path id="L" d="M1416.3 1205.5l-.6-3.9h-.2c-2.2 2.7-5.8 4.7-10.4 4.7-7.1 0-11-5.1-11-10.4 0-8.9 7.8-13.3 20.8-13.3v-.6c0-2.3-.9-6.1-7.1-6.1-3.5 0-7.1 1.1-9.4 2.6l-1.7-5.8c2.6-1.6 7.1-3.1 12.7-3.1 11.2 0 14.5 7.1 14.5 14.8v12.7c0 3.2.1 6.3.5 8.4h-8.1zm-1.1-17.1c-6.3-.1-12.2 1.2-12.2 6.6 0 3.5 2.2 5 5 5 3.5 0 6.1-2.3 6.9-4.8.2-.6.3-1.4.3-1.9v-4.9z"/><path id="M" d="M1433.2 1181.7c0-4.8-.1-8.1-.3-11.3h7.7l.3 6.7h.3c1.7-5 5.8-7.5 9.6-7.5.9 0 1.4.1 2.1.2v8.4c-.7-.1-1.5-.3-2.6-.3-4.2 0-7.1 2.7-7.9 6.7-.1.8-.3 1.7-.3 2.7v18.1h-8.9v-23.7z"/><path id="N" d="M1273.6 604.7c-.3-6.3-.6-13.8-.6-20.4h-.2c-1.6 5.9-3.6 12.5-5.8 18.6l-7.1 21h-6.8l-6.5-20.7c-1.9-6.2-3.6-12.8-4.9-18.9h-.1l-.9 20.7-1.1 19.5h-8.3l3.2-48.5h11.7l6.3 19.5a326.53 326.53 0 0 1 4.5 16.8h.2c1.3-5.3 3-11.2 4.8-16.9l6.7-19.4h11.5l2.8 48.5h-8.6l-.8-19.8z"/><path id="O" d="M1301.9 579.6c0 2.7-1.9 4.8-5 4.8-3 0-4.9-2.1-4.9-4.8s2-4.8 5-4.8c2.9 0 4.8 2.1 4.9 4.8zm-9.5 44.9v-35.1h8.9v35.1h-8.9z"/><path id="P" d="M1419.3 609.5c.2 6.3 5.2 9.1 10.8 9.1 4.1 0 7.1-.6 9.7-1.6l1.3 6.1c-3 1.2-7.2 2.2-12.2 2.2-11.4 0-18.1-7-18.1-17.7 0-9.7 5.9-18.9 17.1-18.9 11.4 0 15.1 9.4 15.1 17.1 0 1.7-.1 3-.3 3.7h-23.4zm15.4-6.2c.1-3.2-1.4-8.6-7.3-8.6-5.5 0-7.8 5-8.1 8.6h15.4z"/><path id="Q" d="M1181.3 88.9c0-4-.1-7.4-.3-10.4h7.8l.4 5.3h.2c1.5-2.7 5.3-6 11.2-6 6.1 0 12.5 4 12.5 15v20.8h-8.9V93.7c0-5-1.9-8.9-6.7-8.9-3.5 0-6 2.5-6.9 5.2-.3.8-.4 1.9-.4 2.9v20.6h-8.9V88.9z"/><path id="R" d="M1055.5-442l4.5 8.5.5-1.7-.5-1c.9.2 1.6-1.4 1.4-3.7-.1-1.2-.4-2.4-.9-3.3l-3-5.7-.5 1.7 2.7 5.2c.5.9.7 2.5.4 3.4-.3 1-.9 1-1.4 0l-2.7-5.2"/><path id="S" d="M1064.3-461.8l-.7 2.5c-.2.6-.6.6-.9 0s-.4-1.5-.2-2.1l.4-1.4c.2-.6.6-.6.9 0l.5 1zm-1.5-5.5l-.5 1.7.5.9c-.4-.2-.7 0-.9.6l-.3 1.1c-.4 1.4-.2 3.7.6 5.1.7 1.4 1.7 1.4 2.1-.1l.8-2.6.4.8c.2.5.4 1.2.3 1.7-.1.7-.3 1.3-.5 1.8-.1.3-.3.3-.5.2l.2 2.4c.4.2.8-.1 1.1-.7.3-.7.5-1.5.7-2.4.3-1.5 0-3.6-.7-4.8"/></defs><clipPath id="T"><use xlink:href="#H"/></clipPath><g clip-path="url(#T)"><g transform="translate(0 -.8)"><defs><path id="U" d="M1022.6-401.4l50.3-173.3 33.7 64-50.2 173.2z"/></defs><clipPath id="V"><use xlink:href="#U"/></clipPath><g clip-path="url(#V)"><path d="M1025.3-409.8c-1.4 4.8-.5 12.4 2 17.1l24.5 46.5c2.5 4.7 5.6 4.6 7-.2l45.1-155.5c1.4-4.8.5-12.4-2-17.1l-24.5-46.5c-2.5-4.7-5.6-4.6-7 .2" class="Z"/><path d="M1058.8-346.4c-1.4 4.8-4.6 4.9-7 .2l-24.5-46.5c-2.5-4.7-3.4-12.4-2-17.3l45.1-155.5c1.4-4.8 4.5-4.9 7-.2l24.5 46.5c2.5 4.7 3.4 12.5 2 17.3l-45.1 155.5zm0-.1l45.1-155.5c1.4-4.8.5-12.4-2-17.1l-24.5-46.5c-2.5-4.7-5.6-4.6-7 .2l-45.1 155.5c-1.4 4.8-.5 12.4 2 17.1l24.5 46.5c2.4 4.7 5.6 4.6 7-.2z"/></g></g></g><path d="M1027-407.4c-.9 3-.3 7.8 1.2 10.7l24.5 46.5c1.5 2.9 3.5 2.9 4.4-.1l45.1-155.5c.9-3 .3-7.8-1.2-10.7l-24.5-46.5c-1.5-2.9-3.5-2.9-4.4.1" class="b"/><path d="M1041.9-378.4l24.1-17.8c.9-.7 1.2-3.2.7-5.6-.3-1.2-.7-2.1-1.2-2.7l-5.4-6.5 32.9-113.4-11.1-21.1-32.9 113.4-4-11.4c-.8-2.2-2-2.9-2.7-1.6-.4.6-.6 1.6-.5 2.8" class="Z"/><path d="M1051.3-427.5l6.2 11.8 2.3-7.8-.9-1.7-1.7 5.9-1.8-3.4 1.5-5.1-.8-1.6-1.5 5.1-1.8-3.5 1.7-5.9-.9-1.7m6.5 6.1l-.5 1.7.9 1.7.5-1.7-.9-1.7zm-5.9-8.4l4.5 8.5.5-1.7-4.5-8.5"/><use xlink:href="#R"/><path d="M1060.5-449.9c-.5-.9-.7-2.5-.4-3.4.3-1 .9-1 1.4 0l1 1.9c.5.9.7 2.5.4 3.4-.3 1-.9 1-1.4 0l-1-1.9zm-2.3-1.6l6.2 11.8.5-1.7-2.3-4.3c.9.2 1.6-1.4 1.4-3.7-.1-1.2-.4-2.4-.9-3.3l-1.6-3c-.8-1.6-1.9-1.5-2.4.1-.3.9-.3 2.1-.1 3.3l-.5-1"/><use xlink:href="#S"/><path d="M1063.6-469.9l6.2 11.8.5-1.7-2.3-4.3c.9.2 1.6-1.4 1.4-3.7-.1-1.2-.4-2.4-.9-3.3l-3-5.7-.5 1.7 2.7 5.2c.5.9.7 2.5.4 3.4-.3 1-.9 1-1.4 0l-2.7-5.2"/><use xlink:href="#R" x="10.8" y="-37.4"/><path d="M1069.6-486.9h1c-.2-2 0-3.8.7-4.6.2-.3.5 0 .7.6.1.4.2.9.1 1.3l-.5 1.9c-.4 1.5 0 3.8.7 5.1.6 1 1.3 1.2 1.8.3.7-1.2 1-3.3.8-5.6l-1-.2c.1 1.6-.1 3-.5 3.8-.2.4-.5.2-.7-.4-.2-.5-.2-1-.1-1.4l.5-1.9c.4-1.5 0-3.8-.7-5.1-.5-.9-1.2-1.1-1.7-.5-1 1.1-1.4 3.8-1.1 6.7m3-14.1l-.3 1.1c-.3 1.1-.1 2.8.4 3.8l2.7 5.2-.3.9.7 1.4.3-.9 1.3 2.5.5-1.7-1.3-2.5.4-1.3-.7-1.4-.4 1.3-2.6-5c-.2-.3-.2-.8-.1-1.1l.2-.8m-.1-3.8l4.5 8.5.5-1.7-.5-1c.9.2 1.6-1.4 1.4-3.7l-1.1-.3c.1 1.3-.2 2.4-.8 2.3-.2 0-.5-.3-.7-.7l-2.7-5.2"/><use xlink:href="#S" x="14.4" y="-49.7"/><path d="M1078-519.5l4.9 9.3c.6 1.1 1.3 1.3 1.8.6s.8-1.9 1-3.4c.1-1.4-.2-3.1-.8-4.2l-.2-.3c-.4-.8-.9-.9-1.2-.5.1-1-.1-2.2-.5-2.9l-1.7-3.3c-.7-1.3-1.5-1.3-1.9.1l-.3 1.1.8 1.6.3-.9c.1-.5.5-.5.7 0l1.7 3.2c.2.5.3 1.2.2 1.7l-.3 1.1.8 1.6.3-1.1c.1-.5.5-.5.7 0l.2.4c.2.4.3.9.3 1.4-.1 1-.3 1.8-.7 2.3-.2.2-.4.2-.6-.2l-4.9-9.3m5.3-4.3l1.1-3.7c.5 1 .7 2.6.4 3.6-.4 1.1-1 1.1-1.5.1zm.7-6.9l-1.6 5.4-.1-.2c-.4-.7-.6-1.9-.5-2.8.1-1.3.5-2.2 1.1-2.1l-.2-2.4c-1-.2-1.8 1.3-2 3.6h0c-.1 1.9.3 4.1 1.1 5.5l.9 1.7c1 1.9 2.3 1.9 2.9-.1s.2-5.1-.8-7"/></g><text transform="translate(494.824 1422)" fill="#a09d9d" font-family="MyriadPro-Regular" font-size="60">routetogermany.com</text></svg>