<svg xmlns="http://www.w3.org/2000/svg" xmlns:xlink="http://www.w3.org/1999/xlink" viewBox="0 0 1366 880"><style><![CDATA[.W{fill:#c1b49a}.X{fill:#716558}.Y{fill:#fff}.Z{fill:#8c939b}.a{fill:#abafb2}.b{fill:#154889}.c{stroke:#c1121c}.d{fill:#c1121c}.e{fill:#e6e6e6}]]></style><pattern y="112" width="451" height="288" patternUnits="userSpaceOnUse" id="A" viewBox="66 -288 451 288" overflow="visible"><path d="M497-69.5h86v31h-86zm0-72h86v31h-86zm0-72h86v31h-86zm0-72h86v31h-86zM91-33.5h86v31H91zm90 0h86v31h-86zm90 0h86v31h-86zm90 0h86v31h-86zm90 0h86v31h-86zm-45-36h86v31h-86zm-90 0h86v31h-86zm-90 0h86v31h-86zm-90 0h86v31h-86zm-90 0h86v31H46zm45-36h86v31H91zm90 0h86v31h-86zm90 0h86v31h-86zm90 0h86v31h-86zm90 0h86v31h-86zm-45-36h86v31h-86zm-90 0h86v31h-86zm-90 0h86v31h-86zm-90 0h86v31h-86zm-90 0h86v31H46zm45-36h86v31H91zm90 0h86v31h-86zm90 0h86v31h-86zm90 0h86v31h-86zm90 0h86v31h-86zm-45-36h86v31h-86zm-90 0h86v31h-86zm-90 0h86v31h-86zm-90 0h86v31h-86zm-90 0h86v31H46zm45-36h86v31H91zm90 0h86v31h-86zm90 0h86v31h-86zm90 0h86v31h-86zm90 0h86v31h-86zm-45-36h86v31h-86zm-90 0h86v31h-86zm-90 0h86v31h-86zm-90 0h86v31h-86zm-90 0h86v31H46zM0-33.5h86v31H0zm0-72h86v31H0zm0-72h86v31H0zm0-72h86v31H0z" fill="#adadad"/></pattern><path d="M2 0h1364v567H2z" fill="#d2cecd"/><path d="M2 0h1364v880H2z" fill="url(#A)"/><path d="M1.6 372.4h27.2v214.8H1.6z" class="W"/><use xlink:href="#F" class="X"/><path d="M35.5 372.4h27.2v214.8H35.5z" class="W"/><use xlink:href="#F" x="33.9" class="X"/><path d="M69.4 372.4h27.2v214.8H69.4z" class="W"/><use xlink:href="#F" x="67.8" class="X"/><use xlink:href="#G" class="W"/><use xlink:href="#F" x="101.8" class="X"/><use xlink:href="#G" x="33.9" class="W"/><use xlink:href="#F" x="135.7" class="X"/><use xlink:href="#G" x="67.8" class="W"/><use xlink:href="#F" x="169.6" class="X"/><use xlink:href="#G" x="101.7" class="W"/><use xlink:href="#F" x="203.5" class="X"/><path d="M239 372.4h27.2v214.8H239z" class="W"/><use xlink:href="#F" x="237.4" class="X"/><g class="W"><use xlink:href="#G" x="169.5"/><path d="M306.8 372.4H334v214.8h-27.2z"/></g><g class="X"><use xlink:href="#F" x="271.3"/><path d="M1.6 391H334v31.7H1.6zm0 144.4H334v31.7H1.6z"/></g><path d="M334.4 372H353v214.6h-18.6zm350 0H703v214.6h-18.6z" fill="#5a4a42"/><use xlink:href="#G" x="249.2" y="-1" class="W"/><use xlink:href="#F" x="351" y="-1" class="X"/><use xlink:href="#G" x="283.1" y="-1" class="W"/><use xlink:href="#F" x="384.9" y="-1" class="X"/><use xlink:href="#G" x="317" y="-1" class="W"/><use xlink:href="#F" x="418.8" y="-1" class="X"/><use xlink:href="#G" x="351" y="-1" class="W"/><use xlink:href="#F" x="452.8" y="-1" class="X"/><use xlink:href="#G" x="384.9" y="-1" class="W"/><use xlink:href="#F" x="486.7" y="-1" class="X"/><use xlink:href="#G" x="418.8" y="-1" class="W"/><use xlink:href="#F" x="520.6" y="-1" class="X"/><use xlink:href="#G" x="452.7" y="-1" class="W"/><use xlink:href="#F" x="554.5" y="-1" class="X"/><path d="M590 371.4h27.2v214.8H590z" class="W"/><use xlink:href="#F" x="588.4" y="-1" class="X"/><g class="W"><use xlink:href="#G" x="520.5" y="-1"/><path d="M657.8 371.4H685v214.8h-27.2z"/></g><g class="X"><use xlink:href="#F" x="622.3" y="-1"/><path d="M352.6 390H685v31.7H352.6zm0 144.4H685v31.7H352.6z"/></g><use xlink:href="#G" x="600.2" class="W"/><use xlink:href="#F" x="702" class="X"/><use xlink:href="#G" x="634.1" class="W"/><use xlink:href="#F" x="735.9" class="X"/><use xlink:href="#G" x="668" class="W"/><use xlink:href="#F" x="769.8" class="X"/><use xlink:href="#G" x="702" class="W"/><use xlink:href="#F" x="803.8" class="X"/><use xlink:href="#G" x="735.9" class="W"/><use xlink:href="#F" x="837.7" class="X"/><use xlink:href="#G" x="769.8" class="W"/><use xlink:href="#F" x="871.6" class="X"/><use xlink:href="#G" x="803.7" class="W"/><use xlink:href="#F" x="905.5" class="X"/><path d="M941 372.4h27.2v214.8H941z" class="W"/><use xlink:href="#F" x="939.4" class="X"/><g class="W"><use xlink:href="#G" x="871.5"/><use xlink:href="#G" x="905.4"/></g><g class="X"><use xlink:href="#F" x="973.3"/><path d="M703.6 391H1036v31.7H703.6zm0 144.4H1036v31.7H703.6z"/></g><path d="M1036.4 372h18.6v214.6h-18.6z" fill="#5a4a42"/><g class="W"><path d="M1358 371h8v216h-8z"/><use xlink:href="#G" x="949.2" y="-1"/></g><use xlink:href="#F" x="1051" y="-1" class="X"/><use xlink:href="#G" x="983.1" y="-1" class="W"/><use xlink:href="#F" x="1084.9" y="-1" class="X"/><use xlink:href="#G" x="1017" y="-1" class="W"/><use xlink:href="#F" x="1118.8" y="-1" class="X"/><use xlink:href="#G" x="1051" y="-1" class="W"/><use xlink:href="#F" x="1152.8" y="-1" class="X"/><use xlink:href="#G" x="1084.9" y="-1" class="W"/><use xlink:href="#F" x="1186.7" y="-1" class="X"/><use xlink:href="#G" x="1118.8" y="-1" class="W"/><use xlink:href="#F" x="1220.6" y="-1" class="X"/><use xlink:href="#G" x="1152.7" y="-1" class="W"/><use xlink:href="#F" x="1254.5" y="-1" class="X"/><path d="M1290 371.4h27.2v214.8H1290z" class="W"/><use xlink:href="#F" x="1288.4" y="-1" class="X"/><use xlink:href="#G" x="1220.5" y="-1" class="W"/><g class="X"><use xlink:href="#F" x="1322.3" y="-1"/><path d="M1052.6 390h313.2v31.7h-313.2zm0 144.4h313.2v31.7h-313.2z"/></g><path d="M0 612h1366v268H0z" fill="#566069"/><g fill="none" stroke="#fff" stroke-width="18" stroke-miterlimit="10"><path d="M0 848h71"/><path d="M207 848h1020" stroke-dasharray="136,136"/><path d="M1295 848h71M0 642l1366-2"/></g><path d="M0 587h87v25H0z" class="Z"/><path d="M79 587h150v25H79z" class="a"/><path d="M225 587h150v25H225z" class="Z"/><path d="M375 587h150v25H375z" class="a"/><path d="M525 587h150v25H525z" class="Z"/><path d="M675 587h150v25H675z" class="a"/><path d="M825 587h150v25H825z" class="Z"/><path d="M975 587h150v25H975z" class="a"/><path d="M1125 587h150v25h-150z" class="Z"/><path d="M1275 587h91v25h-91z" class="a"/><linearGradient id="B" gradientUnits="userSpaceOnUse" x1="1218.469" y1="441.934" x2="1198.553" y2="441.934"><stop offset="0" stop-color="#edebe9"/><stop offset="0" stop-color="#e1deda"/><stop offset="0" stop-color="#d6d1cc"/><stop offset=".07" stop-color="#c7c3be"/><stop offset=".146" stop-color="#b2aeaa"/><stop offset=".523" stop-color="#e6e6e6"/><stop offset=".633" stop-color="#d9d8d7"/><stop offset=".844" stop-color="#b8b4b0"/><stop offset=".876" stop-color="#b2aeaa"/><stop offset="1" stop-color="#d9d9d9"/><stop offset="1" stop-color="#b1b1b1"/></linearGradient><path d="M1198.6 296.5l4.7 4.4 4.8-4.4 5.5 4.4 4.9-4.4v290.9h-19.9z" fill="url(#B)"/><path d="M1303.875 300.12c0 52.5-42.5 95-95 95s-95-42.5-95-95 42.5-95 95-95 95 42.625 95 95h0z" class="Y"/><path d="M1279 300.12c0 39.125-31.375 70.875-70.125 70.875s-70.125-31.75-70.125-70.875 31.375-70.875 70.125-70.875S1279 260.996 1279 300.12z" class="b"/><path d="M1208.875 204.996c-52.5 0-95.125 42.625-95.125 95.125s42.625 95.125 95.125 95.125S1304 352.62 1304 300.12s-42.625-95.125-95.125-95.125zm0 .125c52.5 0 95 42.5 95 95s-42.5 95-95 95-95-42.5-95-95c0-52.375 42.5-95 95-95h0z"/><path d="M1288 300.12c0 43.625-35.375 79.125-79.125 79.125-43.625 0-79.125-35.375-79.125-79.125 0-43.625 35.375-79.125 79.125-79.125S1288 256.496 1288 300.12z" fill="none" stroke-width="25.459" class="c"/><path d="M1123.125 214.62h0zm0 0h0z"/><path d="M1123.125 214.62h0z"/><path d="M1160.625 238.496l-13.375 13.375 48.25 48.25-48.375 48.375 13.375 13.375 48.25-48.25 48.25 48.25 13.375-13.375-48.25-48.25 48.25-48.25L1257 238.62l-48.25 48.25-48.125-48.375z" class="d"/><path d="M1183.875 252.62l14.25-14.25H1206l-11.125 11.125h38.875v6.375H1195l11.125 11.125h-7.875" class="Y"/><linearGradient id="C" gradientUnits="userSpaceOnUse" x1="644.15" y1="442.617" x2="624.108" y2="442.617"><stop offset="0" stop-color="#edebe9"/><stop offset="0" stop-color="#e1deda"/><stop offset="0" stop-color="#d6d1cc"/><stop offset=".07" stop-color="#c7c3be"/><stop offset=".146" stop-color="#b2aeaa"/><stop offset=".523" stop-color="#e6e6e6"/><stop offset=".633" stop-color="#d9d8d7"/><stop offset=".844" stop-color="#b8b4b0"/><stop offset=".876" stop-color="#b2aeaa"/><stop offset="1" stop-color="#d9d9d9"/><stop offset="1" stop-color="#b1b1b1"/></linearGradient><path d="M624.1 296.2l4.8 4.5 4.8-4.5 5.6 4.5 4.9-4.5V589h-20.1z" fill="url(#C)"/><path d="M542.125 301.746c0-53.25 43.125-96.375 96.375-96.375s96.375 43.125 96.375 96.375S691.75 398.12 638.5 398.12s-96.375-43.125-96.375-96.375h0z" class="Y"/><path d="M567.375 301.746c0-39.75 31.875-71.875 71.125-71.875s71.125 32.125 71.125 71.875S677.75 373.62 638.5 373.62s-71.125-32.25-71.125-71.875z" class="b"/><path d="M638.5 398.246c53.25 0 96.5-43.25 96.5-96.5s-43.25-96.5-96.5-96.5-96.5 43.25-96.5 96.5 43.25 96.5 96.5 96.5zm0-.125c-53.25 0-96.375-43.125-96.375-96.375S585.25 205.37 638.5 205.37s96.375 43.125 96.375 96.375S691.75 398.12 638.5 398.12h0z"/><path d="M558.25 301.746c0-44.25 35.875-80.25 80.25-80.25 44.25 0 80.25 35.875 80.25 80.25 0 44.25-35.875 80.25-80.25 80.25-44.25 0-80.25-36-80.25-80.25z" fill="none" stroke-width="25.818" class="c"/><path d="M725.5 388.496h0zm-.125 0h0z"/><path d="M725.5 388.496h0zm-.125 0h0z"/><path d="M687.5 364.37l13.625-13.625-49-49 49-49L687.5 239.12l-49 49-49-49-13.625 13.625 49 49-49 49L589.5 364.37l49-49 49 49z" class="d"/><path d="M663.875 349.996l-14.5 14.5h-8l11.25-11.25H613.25v-6.375h39.375l-11.25-11.25h8m-36.25-82.125l14.5-14.5h8l-11.25 11.25h39.375v6.375h-39.375l11.25 11.25h-8" class="Y"/><linearGradient id="D" gradientUnits="userSpaceOnUse" x1="148.581" y1="440.443" x2="128.515" y2="440.443"><stop offset="0" stop-color="#edebe9"/><stop offset="0" stop-color="#e1deda"/><stop offset="0" stop-color="#d6d1cc"/><stop offset=".07" stop-color="#c7c3be"/><stop offset=".146" stop-color="#b2aeaa"/><stop offset=".523" stop-color="#e6e6e6"/><stop offset=".633" stop-color="#d9d8d7"/><stop offset=".844" stop-color="#b8b4b0"/><stop offset=".876" stop-color="#b2aeaa"/><stop offset="1" stop-color="#d9d9d9"/><stop offset="1" stop-color="#b1b1b1"/></linearGradient><path d="M128.5 293.9l4.8 4.4 4.8-4.4 5.6 4.4 4.9-4.4V587h-20.1z" fill="url(#D)"/><path d="M49.125 299.37c0-52 42.125-94.25 94.25-94.25 52 0 94.25 42.125 94.25 94.25 0 52-42.125 94.25-94.25 94.25-52 0-94.25-42.25-94.25-94.25h0z" class="Y"/><path d="M73.75 299.37c0-38.875 31.125-70.25 69.625-70.25 38.375 0 69.625 31.5 69.625 70.25 0 38.875-31.125 70.25-69.625 70.25-38.375.125-69.625-31.375-69.625-70.25z" class="b"/><path d="M143.375 393.746c52.125 0 94.375-42.25 94.375-94.375s-42.25-94.375-94.375-94.375S49 247.246 49 299.37s42.25 94.375 94.375 94.375zm0-.125c-52 0-94.25-42.125-94.25-94.25 0-52 42.125-94.25 94.25-94.25 52 0 94.25 42.125 94.25 94.25 0 52-42.25 94.25-94.25 94.25h0z"/><path d="M64.875 299.37c0-43.375 35.125-78.5 78.5-78.5s78.5 35.125 78.5 78.5-35.125 78.5-78.5 78.5-78.5-35.125-78.5-78.5z" fill="none" stroke-width="25.252" class="c"/><path d="M228.375 384.246h0zm0 0h0z"/><path d="M228.375 384.246h0z"/><path d="M191.25 360.62l13.375-13.375-47.875-47.875 47.875-47.875-13.375-13.375-47.875 47.875L95.5 238.12l-13.375 13.375L130 299.37l-47.875 47.875L95.5 360.62l47.875-47.875 47.875 47.875z" class="d"/><path d="M168.125 346.62L154 360.746h-7.875l11-11h-38.5v-6.25h38.5l-11-11H154" class="Y"/><path d="M1278,192h-149c-6.6,0-12-5.4-12-12v-52c0-6.6,5.4-12,12-12h149c6.6,0,12,5.4,12,12v52 C1290,186.6,1284.6,192,1278,192z" class="e"/><path d="M1136.6 167.5c2.8 1.7 6.9 3.2 11.2 3.2 6.4 0 10.2-3.4 10.2-8.3 0-4.5-2.6-7.1-9.1-9.6-7.9-2.8-12.8-6.9-12.8-13.8 0-7.6 6.3-13.2 15.7-13.2 5 0 8.6 1.2 10.7 2.4l-1.7 5.1c-1.6-.9-4.8-2.3-9.2-2.3-6.6 0-9.1 4-9.1 7.3 0 4.5 3 6.8 9.6 9.4 8.2 3.2 12.4 7.1 12.4 14.3 0 7.5-5.5 14-17 14-4.7 0-9.8-1.4-12.4-3.1l1.5-5.4z"/><use xlink:href="#H"/><path d="M1215.7 175.1l-.5-4.4h-.2c-1.9 2.7-5.7 5.2-10.7 5.2-7.1 0-10.7-5-10.7-10 0-8.4 7.5-13 21-13v-.7c0-2.9-.8-8.1-7.9-8.1-3.2 0-6.6 1-9.1 2.6l-1.4-4.2c2.9-1.9 7.1-3.1 11.4-3.1 10.7 0 13.2 7.3 13.2 14.3v13c0 3 .1 6 .6 8.4h-5.7zm-.9-17.8c-6.9-.1-14.8 1.1-14.8 7.8 0 4.1 2.7 6 6 6 4.5 0 7.4-2.9 8.4-5.8.2-.6.4-1.4.4-2v-6zm16.3-6.1c0-4.1-.1-7.6-.3-10.9h5.5l.2 6.8h.3c1.6-4.7 5.4-7.6 9.6-7.6.7 0 1.2.1 1.8.2v6c-.6-.1-1.3-.2-2.2-.2-4.5 0-7.6 3.4-8.5 8.1-.1.9-.3 1.9-.3 3v18.6h-6.3v-24z"/><use xlink:href="#H" x="83.8"/><path d="M736.5 192h-204c-7.6 0-13.9-6.3-13.9-13.9v-48.2c0-7.6 6.3-13.9 13.9-13.9h204c7.6 0 13.9 6.3 13.9 13.9v48.2c0 7.6-6.2 13.9-13.9 13.9z" class="e"/><path d="M574.4 153.8c-.4-6.8-.8-14.9-.7-21h-.2c-1.7 5.7-3.7 11.7-6.1 18.4l-8.6 23.5H554l-7.8-23.1c-2.3-6.8-4.2-13.1-5.6-18.9h-.1c-.1 6-.5 14.2-.9 21.5l-1.3 20.8h-6l3.4-48.5h8L552 150c2 6 3.7 11.3 4.9 16.3h.2c1.2-4.9 3-10.2 5.1-16.3l8.6-23.5h8l3 48.5h-6.1l-1.3-21.2zm24.7-23.3c.1 2.2-1.5 3.9-4 3.9-2.2 0-3.8-1.7-3.8-3.9s1.7-4 4-4 3.8 1.8 3.8 4zm-7.1 44.6v-34.9h6.3v34.9H592z"/><use xlink:href="#I"/><use xlink:href="#I" x="40.6"/><path d="M690.1 124h6.3v51.1h-6.3V124zm20.5 34.9c.1 8.6 5.6 12.1 12 12.1 4.5 0 7.3-.8 9.6-1.8l1.1 4.5c-2.2 1-6 2.2-11.6 2.2-10.7 0-17.1-7.1-17.1-17.6s6.2-18.8 16.3-18.8c11.4 0 14.4 10 14.4 16.4 0 1.3-.1 2.3-.2 3h-24.5zm18.6-4.6c.1-4-1.7-10.3-8.8-10.3-6.4 0-9.2 5.9-9.7 10.3h18.5z"/><path d="M213,192H64c-6.6,0-12-5.4-12-12v-52c0-6.6,5.4-12,12-12h149c6.6,0,12,5.4,12,12v52 C225,186.6,219.6,192,213,192z" class="e"/><path d="M109.6 152.4H90.8v17.5h21v5.3H84.5v-48.5h26.2v5.3H90.8v15.3h18.9v5.1zm10.1-2.7l-.3-9.4h5.6l.4 5.8h.1c1.7-3.3 5.8-6.6 11.5-6.6 4.8 0 12.3 2.9 12.3 14.8v20.8H143V155c0-5.6-2.1-10.3-8.1-10.3-4.2 0-7.4 3-8.5 6.5-.3.8-.4 1.9-.4 3v21h-6.3v-25.5zm70.1-25.7v42.1l.3 9h-5.7l-.3-6h-.1c-1.9 3.9-6.2 6.8-11.9 6.8-8.4 0-14.9-7.1-14.9-17.7-.1-11.6 7.1-18.7 15.6-18.7 5.3 0 8.9 2.5 10.5 5.3h.1V124h6.4zm-6.4 30.5c0-.8-.1-1.9-.3-2.7-.9-4-4.4-7.3-9.1-7.3-6.6 0-10.4 5.8-10.4 13.5 0 7.1 3.5 12.9 10.3 12.9 4.2 0 8.1-2.8 9.3-7.6.2-.9.3-1.7.3-2.7v-6.1z"/><defs ><path id="F" d="M28.8 372.4h6.7v214.8h-6.7z"/><path id="G" d="M103.4 372.4h27.2v214.8h-27.2z"/><path id="H" d="M1180.2 130.3v10h9.1v4.8h-9.1v18.8c0 4.3 1.2 6.8 4.8 6.8 1.7 0 2.9-.2 3.7-.4l.3 4.8c-1.2.5-3.2.9-5.6.9-3 0-5.3-.9-6.8-2.7-1.8-1.9-2.4-5-2.4-9.1v-19h-5.4v-4.8h5.4V132l6-1.7z"/><path id="I" d="M639 124v42.1l.3 9h-5.7l-.3-6h-.1c-1.9 3.9-6.2 6.8-11.9 6.8-8.4 0-14.9-7.1-14.9-17.7-.1-11.6 7.1-18.7 15.6-18.7 5.3 0 8.9 2.5 10.5 5.3h.1V124h6.4zm-6.3 30.5c0-.8-.1-1.9-.3-2.7-.9-4-4.4-7.3-9.1-7.3-6.6 0-10.4 5.8-10.4 13.5 0 7.1 3.5 12.9 10.3 12.9 4.2 0 8.1-2.8 9.3-7.6.2-.9.3-1.7.3-2.7v-6.1z"/></defs></svg>