<svg xmlns="http://www.w3.org/2000/svg" viewBox="0 0 270.4 460.7"><linearGradient id="A" gradientUnits="userSpaceOnUse" x1="121.676" y1="334.754" x2="148.676" y2="334.754"><stop offset="0" stop-color="#edebe9"/><stop offset="0" stop-color="#e1deda"/><stop offset="0" stop-color="#d6d1cc"/><stop offset=".07" stop-color="#c7c3be"/><stop offset=".146" stop-color="#b2aeaa"/><stop offset=".523" stop-color="#e6e6e6"/><stop offset=".633" stop-color="#d9d8d7"/><stop offset=".844" stop-color="#b8b4b0"/><stop offset=".876" stop-color="#b2aeaa"/><stop offset="1" stop-color="#d9d9d9"/><stop offset="1" stop-color="#b1b1b1"/></linearGradient><path d="M148.6 460.7l-6.3-5-6.6 5-7.5-5-6.6 5V208.9h27z" fill="url(#A)"/><path d="M30.875 295.576c-8.75 0-15.875 7.125-15.875 15.75V411.7c0 8.75 7.125 15.75 15.875 15.75H239.5c8.75 0 15.875-7.125 15.875-15.75V311.326c0-8.75-7.125-15.75-15.875-15.75H30.875z" fill="#fff"/><path d="M30.875 417.826H239.5c3.25 0 6-2.625 6-6v-100.5c0-3.25-2.625-6-6-6H30.875c-3.25 0-6 2.75-6 6v100.5c0 3.375 2.75 6 6 6zm.25 5.625c-6.625 0-12-5.375-12-11.875v-100c0-6.625 5.375-11.875 12-11.875H239.25c6.625 0 12 5.375 12 11.875v100c0 6.625-5.375 11.875-12 11.875m-208.375-128c-8.75 0-16 7.125-16 16V411.7c0 8.75 7.25 16 16 16H239.5a15.95 15.95 0 0 0 16-16V311.45c0-8.75-7.125-16-16-16H30.875zm0 .125H239.5c8.75 0 15.875 7.125 15.875 15.75v100.25c0 8.75-7.125 15.75-15.875 15.75H30.875c-8.75 0-15.875-7.125-15.875-15.75v-100.25c.125-8.625 7.125-15.75 15.875-15.75h0z"/><path d="M208.625 354.326v-24h4.875v2.75c2.875-3.5 7.875-4 11.375-1.25h0l-3.375 4.25c-2-1.75-5-1.625-6.75.375-.75.875-1.25 2-1.25 3.25v14.625h-4.875zM187 339.95h10.25c0-2.875-2.25-5.125-5.125-5.125S187 337.076 187 339.95zm15 4.25h-15v.625c0 2.125 1.25 4 3.25 4.75 2.625 1.125 5.75.375 7.625-1.875l3.625 3.125c-3.25 3.75-8.5 5-13 3.25-3.75-1.5-6.25-5.125-6.25-9.25v-4.875a9.9 9.9 0 0 1 9.875-9.875A9.9 9.9 0 0 1 202 339.95v4.25zm-31.25.875V339.7c0-2.625-2.125-4.75-4.875-4.75-2.625 0-4.875 2.125-4.875 4.75v5.375c0 2.625 2.125 4.875 4.875 4.875 2.625-.125 4.875-2.25 4.875-4.875zm4.75-14.75V354.7c0 3.625-2 7-5.375 8.625-4.625 2.25-10.125 1.125-13.375-2.875l3.75-3c1.875 2.25 5 2.875 7.5 1.625 1.625-.875 2.625-2.5 2.625-4.25v-3c-2.875 3.5-7.875 4-11.375 1.25-1.875-1.5-3-3.875-3-6.375v-8.375a8.11 8.11 0 0 1 8.125-8.125c2.5 0 4.75 1.125 6.375 3v-2.875h4.75zm-40.25 9.625h10.25c0-2.875-2.25-5.125-5.125-5.125s-5.125 2.25-5.125 5.125zm15 4.25h-15v.625c0 2.125 1.25 4 3.25 4.75 2.625 1.125 5.75.375 7.625-1.875l3.625 3.125c-3.25 3.75-8.5 5-13 3.25-3.75-1.5-6.25-5.125-6.25-9.25v-4.875a9.9 9.9 0 0 1 9.875-9.875 9.9 9.9 0 0 1 9.875 9.875v4.25zm-26.5-18.75h-4.875v-4.75h4.875v4.75zm0 28.875h-4.875v-24h4.875v24zm-10.875 0h-3c-3 0-5.375-2.375-5.375-5.375V320.7h4.75v27.625a1.44 1.44 0 0 0 1.5 1.5h2.125v4.5zm-34.25 0v-24h4.75v2.75c2.875-3.5 8-4 11.375-1.25 1.875 1.5 3 3.875 3 6.375v16.25h-4.875V339.7a4.75 4.75 0 0 0-4.75-4.75c-2.625 0-4.875 2.125-4.875 4.75v14.625h-4.625zm-23.625-12h9.875l-5-14.75L55 342.326zm-9.5 12l12.375-33.75h4.25l12.375 33.75h-5.375l-2.5-7.5H53.5l-2.5 7.5m117.875 19.25H164v-4.75h4.875v4.75zm0 28.875H164v-24.125h4.875v24.125zm-26.5-14.375h10.25c0-2.875-2.25-5.125-5.125-5.125-2.75 0-5.125 2.25-5.125 5.125h0zm15.125 4.25h-15v.5c0 2.125 1.25 4 3.25 4.75 2.625 1.125 5.75.375 7.625-1.875l3.625 3.125c-3.25 3.75-8.5 5-13 3.25-3.75-1.5-6.25-5.125-6.25-9.25v-4.875a9.9 9.9 0 0 1 9.875-9.875 9.9 9.9 0 0 1 9.875 9.875v4.375zM119 402.45v-24.125h4.875v2.75c2.875-3.5 7.875-4 11.375-1.25h0l-3.375 4.25c-2-1.75-5-1.625-6.75.375-.75.875-1.25 2-1.25 3.25v14.75H119zm-15.125 0v-20.125H101.5v-3.875h2.375v-3.625c0-3.375 2.75-6 6-6h3.625v4.5h-3.25a1.44 1.44 0 0 0-1.5 1.5v3.625h4.875v3.875h-4.875v20.125"/><path d="M270.5 135.496c0 74.5-60.5 135-135 135s-135-60.5-135-135 60.5-135 135-135 135 60.5 135 135h0z" fill="#fff"/><path d="M135.5.246C60.875.246.25 60.746.25 135.496c0 74.625 60.5 135.25 135.25 135.25 74.625 0 135.25-60.5 135.25-135.25C270.75 60.87 210.125.246 135.5.246zm0 .25c74.5 0 135 60.5 135 135s-60.5 135-135 135-135-60.5-135-135 60.5-135 135-135h0z"/><path d="M135.5 4.996C63.625 4.996 5 63.62 5 135.496s58.625 130.5 130.5 130.5S266 207.37 266 135.496s-58.625-130.5-130.5-130.5zm0 36.125c52.25 0 94.375 42 94.375 94.375 0 52.25-42 94.375-94.375 94.375-52.25 0-94.375-42-94.375-94.375 0-52.25 42.125-94.375 94.375-94.375z" fill="#c1121c"/><path d="M13.625 13.996h0zm0 0h0zm.125 0h0z"/><path d="M13.625 13.996h0zm.125 0h0z"/><path d="M13.75 13.996h0c-.125 0 0 0 0 0zm-.125 0h0zm94 85.874v49.875H211V99.87H107.625zm-7.125 12.5l-30.875 1.875c-1.375.125-2.625 1-3.125 2.25l-7.875 21c-.625 1.625-.875 3.25-.875 5v19.75c0 2 1.625 3.625 3.5 3.625H63a15.95 15.95 0 0 1 16-16 15.95 15.95 0 0 1 16 16h64.125c0-4.875 2.25-9.375 6-12.5H100.5v-41zM88 118.62v17.875l-23.625 2.75h-.25c-1 0-1.75-.75-1.75-1.75 0-.25 0-.375.125-.625l6-15.875c.25-.625.875-1.125 1.5-1.125l18-1.25zm-8.875 34.75c-6.875 0-12.5 5.625-12.5 12.5s5.625 12.5 12.5 12.5 12.5-5.625 12.5-12.5-5.625-12.5-12.5-12.5zm96.25 0c-6.875 0-12.5 5.625-12.5 12.5s5.625 12.5 12.5 12.5 12.5-5.625 12.5-12.5-5.625-12.5-12.5-12.5zm10.125 0c3.75 3 6 7.625 6 12.5h8.875l10.75-3.625v-8.875H185.5z"/></svg>