<svg xmlns="http://www.w3.org/2000/svg" xmlns:xlink="http://www.w3.org/1999/xlink" viewBox="0 0 42.1 95.9"><linearGradient id="A" gradientUnits="userSpaceOnUse" x1="17.767" y1="70.616" x2="23.438" y2="70.616"><stop offset="0" stop-color="#edebe9"/><stop offset="0" stop-color="#e1deda"/><stop offset="0" stop-color="#d6d1cc"/><stop offset=".07" stop-color="#c7c3be"/><stop offset=".146" stop-color="#b2aeaa"/><stop offset=".523" stop-color="#e6e6e6"/><stop offset=".633" stop-color="#d9d8d7"/><stop offset=".844" stop-color="#b8b4b0"/><stop offset=".876" stop-color="#b2aeaa"/><stop offset="1" stop-color="#d9d9d9"/><stop offset="1" stop-color="#b1b1b1"/></linearGradient><path d="M23.4 95.9l-1.3-.7-1.4.7-1.5-.7-1.4.7V45.3h5.6z" fill="url(#A)"/><g transform="matrix(1.25 0 0 -1.25 0 630.72315)"><g fill-rule="evenodd"><path d="M2.3 454.1h29.1c2.2 0 2.2 1.8 2.2 1.8v46.8s0 1.8-1.9 1.8H2s-2 0-2-2v-46.4c0-2 2.3-2 2.3-2z" fill="#fff"/><path d="M2 455h29.8s1.1 0 1.1 1.1v46.5s0 1.1-1.2 1.1H2.1s-1.2 0-1.2-1.1V456c0-1 1.1-1 1.1-1z" fill="#154889"/><path d="M2 504.5s-.5 0-1-.2-1-.8-1-1.8v-46.4c0-1 .6-1.5 1.2-1.8s1.1-.3 1.1-.3h29.1c1.1 0 1.7.5 2 .9.3.5.3.9.3.9v46.8s0 .5-.2.9c-.2.5-.7.9-1.7.9H2v.1zm0 0h29.7c1.9 0 1.9-1.8 1.9-1.8v-46.8s0-1.8-2.2-1.8H2.3s-2.3 0-2.3 2v46.4c0 2 2 2 2 2z"/></g><path d="M9.2 491.8h4.3a3.01 3.01 0 0 1 3 3c0 1.6-1.4 2.9-3 2.9H9.2v-5.9zM6.4 482v18.3h7.2c3.1 0 5.6-2.4 5.6-5.5a5.59 5.59 0 0 0-5.6-5.6H9.2V482m12.4-6.4a1.1 1.1 0 0 0 1-.6l2.1-4c.1-.3.3-.6.5-.8l.3-.3c.2-.2.3-.5.3-.8l.2-3c0-.6-.4-1.2-1.1-1.2l-17-1.3c-.6 0-1.2.4-1.2 1.1l-.2 3c0 .3.1.6.2.8l.2.4c.2.3.3.6.4.9l1.5 4.3c.1.4.5.7 1 .8l11.8.7zm-.2-1.1l-11-.8c-.2 0-.3-.1-.4-.3l-1.3-3.7 14.9 1.1-1.9 3.5c0 .1-.1.1-.3.2h0zm3.8-10.1l.2-2.5c0-.4-.3-.7-.6-.7l-1.4-.1c-.4 0-.7.3-.7.6l-.2 2.5c-.1 0 2.7.2 2.7.2zM11 463.3l.2-2.5c0-.4-.3-.7-.6-.7l-1.4-.1c-.4 0-.7.3-.7.6l-.2 2.5c-.1 0 2.7.2 2.7.2zm18.5-2.3v-2.7H4.3v1.6h13.8v1.1h11.4z" fill="#fff"/><g transform="translate(0 -.421)"><defs><path id="B" d="M-4.2 448.1h42.1v63.1H-4.2z"/></defs><clipPath id="C"><use xlink:href="#B"/></clipPath><g clip-path="url(#C)"><defs><path id="D" d="M-4.2 448.1h42.1v63.1H-4.2z"/></defs><clipPath id="E"><use xlink:href="#D"/></clipPath><g clip-path="url(#E)"><defs><path id="F" d="M-4.2 448.1h42v63h-42z"/></defs><clipPath id="G"><use xlink:href="#F"/></clipPath><g clip-path="url(#G)"><defs><path id="H" d="M13 481.4h15.9v9.1H13z"/></defs><clipPath id="I"><use xlink:href="#H"/></clipPath><g clip-path="url(#I)"><path d="M23.7,482.4h-2l2.8,2.8h-9.8v1.6h9.8l-2.8,2.8h2l3.6-3.6" fill="#fff"/></g></g></g></g></g></g></svg>