<svg xmlns="http://www.w3.org/2000/svg" xmlns:xlink="http://www.w3.org/1999/xlink" viewBox="0 0 42.1 95.9"><linearGradient id="A" gradientUnits="userSpaceOnUse" x1="17.767" y1="70.616" x2="23.438" y2="70.616"><stop offset="0" stop-color="#edebe9"/><stop offset="0" stop-color="#e1deda"/><stop offset="0" stop-color="#d6d1cc"/><stop offset=".07" stop-color="#c7c3be"/><stop offset=".146" stop-color="#b2aeaa"/><stop offset=".523" stop-color="#e6e6e6"/><stop offset=".633" stop-color="#d9d8d7"/><stop offset=".844" stop-color="#b8b4b0"/><stop offset=".876" stop-color="#b2aeaa"/><stop offset="1" stop-color="#d9d9d9"/><stop offset="1" stop-color="#b1b1b1"/></linearGradient><path d="M23.4 95.9l-1.3-.7-1.4.7-1.5-.7-1.4.7V45.3h5.6z" fill="url(#A)"/><g transform="matrix(1.25 0 0 -1.25 0 630.72315)"><g fill-rule="evenodd"><path d="M2.3 454.2h29.1c2.2 0 2.2 1.8 2.2 1.8v46.8s0 1.8-1.9 1.8H2s-2 0-2-2v-46.4c0-2 2.3-2 2.3-2z" fill="#fff"/><path d="M2 455.1h29.8s1.1 0 1.1 1.1v46.5s0 1.1-1.2 1.1H2.1s-1.2 0-1.2-1.1v-46.6c0-1.1 1.1-1 1.1-1z" fill="#154889"/><path d="M2 504.6s-.5 0-1-.2-1-.8-1-1.8v-46.4c0-1 .6-1.5 1.2-1.8s1.1-.3 1.1-.3h29.1c1.1 0 1.7.5 2 .9.3.5.3.9.3.9v46.8s0 .5-.2.9c-.2.5-.7.9-1.7.9H2v.1zm0-.1h29.7c1.9 0 1.9-1.8 1.9-1.8V456s0-1.8-2.2-1.8H2.3s-2.3 0-2.3 2v46.4c0 2 2 1.9 2 1.9z"/></g><path d="M9.2 491.9h4.3a3.01 3.01 0 0 1 3 3c0 1.6-1.4 2.9-3 2.9H9.2v-5.9zM6.4 482v18.3h7.2c3.1 0 5.6-2.4 5.6-5.5a5.59 5.59 0 0 0-5.6-5.6H9.2V482m12.4-6.3a1.1 1.1 0 0 0 1-.6l2.1-4c.1-.3.3-.6.5-.8l.3-.3c.2-.2.3-.5.3-.8l.2-3c0-.6-.4-1.2-1.1-1.2l-17-1.3c-.6 0-1.2.4-1.2 1.1l-.2 3c0 .3.1.6.2.8l.2.4c.2.3.3.6.4.9l1.5 4.3c.1.4.5.7 1 .8l11.8.7zm-.2-1.2l-11-.8c-.2 0-.3-.1-.4-.3l-1.3-3.7 14.9 1.1-1.9 3.5c0 .1-.1.2-.3.2h0zm3.8-10.1l.2-2.5c0-.4-.3-.7-.6-.7l-1.4-.1c-.4 0-.7.3-.7.6l-.2 2.5c-.1 0 2.7.2 2.7.2zM11 463.3l.2-2.5c0-.4-.3-.7-.6-.7l-1.5-.1c-.4 0-.7.3-.7.6l-.2 2.5 2.8.2zm18.5-2.2v-2.7H4.3v1.6h13.8v1.1h11.4z" fill="#fff"/><g transform="translate(0 -.421)"><defs><path id="B" d="M-4.2 448.2h42.1v63.1H-4.2z"/></defs><clipPath id="C"><use xlink:href="#B"/></clipPath><g clip-path="url(#C)"><defs><path id="D" d="M-4.2 448.2h42.1v63.1H-4.2z"/></defs><clipPath id="E"><use xlink:href="#D"/></clipPath><g clip-path="url(#E)"><defs><path id="F" d="M-4.2 448.2h42v63h-42z"/></defs><clipPath id="G"><use xlink:href="#F"/></clipPath><g clip-path="url(#G)"><defs><path id="H" d="M13 481.5h15.9v9.1H13z"/></defs><clipPath id="I"><use xlink:href="#H"/></clipPath><g clip-path="url(#I)"><path d="M14.7,486.1l3.6,3.6h2l-2.8-2.8h9.8v-1.6h-9.8l2.8-2.8h-2" fill="#fff"/></g></g></g></g></g></g><path d="M5.625 68.326c-1.25 0-2.375 1-2.375 2.375v15c0 1.25 1.125 2.375 2.375 2.375h31.25c1.25 0 2.375-1 2.375-2.375v-15c0-1.25-1.125-2.375-2.375-2.375H5.625z" fill="#fff"/><path d="M5.625 86.7h31.25c.5 0 .875-.375.875-.875V70.7c0-.5-.375-.875-.875-.875H5.625c-.5 0-.875.375-.875.875v15.125c0 .5.375.875.875.875zm0 .875c-1 0-1.75-.75-1.75-1.75v-15c0-1 .75-1.75 1.75-1.75h31.25c1 0 1.75.75 1.75 1.75v15c0 1-.75 1.75-1.75 1.75m-31.25-19.25c-1.375 0-2.375 1.125-2.375 2.375v15c0 1.375 1.125 2.375 2.375 2.375h31.25c1.375 0 2.375-1.125 2.375-2.375v-15c0-1.375-1.125-2.375-2.375-2.375H5.625zm0 0h31.25c1.25 0 2.375 1 2.375 2.375v15c0 1.25-1.125 2.375-2.375 2.375H5.625c-1.25 0-2.375-1-2.375-2.375v-15c0-1.25 1-2.375 2.375-2.375h0z"/><path d="M18.75 80.7v-.625l2-2.5c.125-.125.125-.125.125-.25v-.25c0-.125 0-.375-.125-.5s-.25-.25-.5-.25-.375.125-.5.25-.25.25-.25.5h-.75c0-.375.125-.75.375-1s.625-.375 1-.375.75.125 1 .375.375.625.375 1-.125.625-.25.875l-1.625 2H21.5v.75h-2.75zm4.875-.625l.5-.625c.25.125.375.25.625.375s.5.125.75.125.5-.125.75-.25c.125-.125.25-.25.25-.5 0-.375-.25-.625-.625-.625h-.75c-.375 0-.75-.25-1-.5a1.35 1.35 0 0 1-.375-.875c0-.375.125-.75.375-1s.75-.375 1.25-.375c.25 0 .625 0 .875.125l.75.375-.375.625c-.125-.125-.375-.25-.625-.25-.25-.125-.375-.125-.625-.125s-.375 0-.625.125c-.125.125-.25.25-.25.5 0 .125 0 .25.125.375s.25.25.5.25h.625c.5 0 .875.25 1 .5a1.35 1.35 0 0 1 .375.875c0 .5-.125.875-.5 1.125a2.11 2.11 0 0 1-1.25.375c-.5.125-1.25-.125-1.75-.625h0zM28.25 77.2v-1.125H29V77.2h.5v.5H29v2.125a.27.27 0 0 0 .25.25h.25v.625h-.375c-.25 0-.5-.125-.625-.25s-.25-.375-.25-.625V77.7h-.375v-.5h.375zm4.25 3.5v-.375c-.25.25-.5.375-.875.375-.25 0-.375 0-.625-.125l-.375-.375c-.125-.125-.125-.25-.25-.5v-1.75c0-.125.125-.375.25-.5l.375-.375c.125-.125.375-.125.625-.125.125 0 .375 0 .5.125s.25.125.375.25V75.45h.75v5c0 .25-.75.25-.75.25zm-.625-2.875c-.375 0-.5.125-.625.375s-.125.5-.125.75 0 .5.125.75.25.375.625.375.5-.125.625-.375.125-.5.125-.75 0-.5-.125-.75-.375-.375-.625-.375zm2.25 2.875v-.75h.75v.75h-.75z"/><path d="M7.125 72.2v12h8.75v-12h-8.75zm5.125 1.25h0c-.125 0-.125.125 0 0-.125.125 0 .125 0 .125h.125s.125 0 .125.125c0 0 0 .125-.125.125h-.125s-.125 0-.125-.125c0-.25 0-.25.125-.25zm-2.5 0h0l.25.375h-.125V73.7h-.25v.125H9.5l.25-.375zm.25 0h0l.25.25v-.25.375L10 73.45v.375-.375zm.375 0h0v.25l.125-.25h.125l-.125.125.125.25-.125-.25-.125.125v.125-.375zm.375 0h0v.25s0 .125.125.125c0 0 .125 0 .125-.125v-.25.25c0 .125-.125.125-.125.125-.125 0-.125-.125-.125-.125v-.25zm.375 0h0l.25.25v-.25.375l-.25-.375v.375-.375zm.375 0h0v.25-.25zm.25 0h.125v.375l-.125-.375zm.625 0h.25l-.125.25h.125-.25l.125-.25h-.125zm.375 0h0v.25-.25zm.375 0h0v.375-.375zm.125 0h.125v.375l-.125-.375zm-3.5.125v.125h.125c-.125 0-.125-.125-.125-.125zm1.125 1.25h1.375l-.75 2.625-.625-2.625zm-.625 2.5c.25.375.75.625 1.25.625s.875-.25 1.25-.625l1.5 1.25c-.625.875-1.75 1.25-2.75 1.25-1.125 0-2.125-.5-2.75-1.25l1.5-1.25zm-.125 2.875h2.75a.27.27 0 0 1 .25.25v2.75a.27.27 0 0 1-.25.25h-2.75a.27.27 0 0 1-.25-.25v-2.75a.27.27 0 0 1 .25-.25zm0 .125c-.125 0-.125 0-.125.125v2.75c0 .125 0 .125.125.125h2.75c.125 0 .125 0 .125-.125v-2.75c0-.125 0-.125-.125-.125h-2.75zm.625.375h.875c.375 0 .625.25.625.625s-.25.625-.625.625h-.5v.875h-.375V80.7zm.375.375v.75h.5c.25 0 .375-.125.375-.375s-.125-.375-.375-.375h-.5z" fill="#154889"/><path d="M10.625 77.7h0v.25H10.5l.125-.25zm-.625.75h0l.125.125s0 .125.125.125l.125-.25s0-.125-.125-.125h-.125l.25-.5.375.25-.125.125-.25-.125-.125.25c.125 0 .125.125.125.125v.125l-.125.25c0 .125-.125.125-.125.125a.27.27 0 0 1-.25-.25c0-.125.125-.125.125-.25h0zm-.25.5h0v.25-.25zm0 .25l.25-.125h-.125v-.125l.125.125-.25.125zm1.75-1.25h0l.125.25H11.5v-.25zm0 .25h.125l-.125.375c.125 0 .125.125.125.125v.25a.27.27 0 0 1-.25.25.27.27 0 0 1-.25-.25v-.25c.25 0 .375-.5.375-.5zm0 .75c0 .125 0 .125 0 0 .125.125.125 0 .125 0v-.125s0-.125-.125-.125-.125 0-.125.125v.125zm-.125.5h0l.125.25-.125-.25zm.125 0v-.125s.125 0 .125.125c.125 0 0 0-.125 0 .125 0 .125 0 .125.125 0 0 0 .125-.125.125s0-.125 0-.25c0 .125 0 .125 0 0h0zm0 .125h0zm0-.125h0zm.875-1.75h0l.25.125H12.5c0 .125-.125-.125-.125-.125zm.125.625l-.125-.25.375-.25.125.125.25.875-.125.125-.25-.875h-.25v.25zm.5.75h0l.25.125-.25-.125zm.25.125h0v-.125.125l-.125-.125s0-.125.125-.125h.125l-.125.25zm-.125-.25h0c0 .125 0 .125 0 0 .125.125.125 0 0 0h0zm-1.25-1.125h0l.125.25-.125-.25zm.875-.375h0l.25.125c-.125 0-.25-.125-.25-.125zm-2.375 0h0l-.125.25.125-.25zm.75.375h0v.25-.25" fill-rule="evenodd" fill="#231f20"/></svg>