<svg xmlns="http://www.w3.org/2000/svg" xmlns:xlink="http://www.w3.org/1999/xlink" viewBox="0 0 500 500"><style><![CDATA[.Af{fill:#70150f}.Ag{fill:#3c4f58}.Ah{fill:#6cb75a}.Ai{fill:#304048}.Aj{fill:#020203}.Ak{stroke-miterlimit:10}.Al{enable-background:new}]]></style><path d="M0 0h500v500H0z" fill="#009245"/><g fill="#2e3a34"><path d="M189 500V399c-19.6-8.1-37.7-20.1-52.8-35.2S109.1 330.6 101 311H0V189h101c8.1-19.6 20.1-37.7 35.2-52.8s33.2-27.1 52.8-35.2V0h122v101c19.6 8.1 37.7 20.1 52.8 35.2s27.1 33.2 35.2 52.8h101v122H399c-8.1 19.6-20.1 37.7-35.2 52.8S330.6 390.9 311 399v101H189zm61-289c-21.5 0-39 17.5-39 39s17.5 39 39 39 39-17.5 39-39-17.5-39-39-39z"/><path d="M391.4 200c-15.1-42.6-48.9-76.3-91.4-91.4V1H200v107.6c-42.6 15.1-76.3 48.9-91.4 91.4H1v100h107.6c15.1 42.6 48.9 76.3 91.4 91.4V499h100V391.4c42.6-15.1 76.3-48.9 91.4-91.4H499V200H391.4zM250 300c-27.6 0-50-22.4-50-50s22.4-50 50-50 50 22.4 50 50-22.4 50-50 50z"/></g><path d="M300.5 499.5h-101V391.8c-20.8-7.4-40.1-19.7-55.9-35.4a149.58 149.58 0 0 1-35.4-55.9H.5v-101h107.7c7.4-20.8 19.7-40.1 35.4-55.9a149.58 149.58 0 0 1 55.9-35.4V.5h101v107.7c20.8 7.4 40.1 19.7 55.9 35.4a149.58 149.58 0 0 1 35.4 55.9h107.7v101H391.8c-7.4 20.8-19.7 40.1-35.4 55.9a149.58 149.58 0 0 1-55.9 35.4v107.7zm-100-1h99V391.1l.3-.1c42.2-15 76.2-49 91.2-91.2l.1-.3h107.4v-99H391.1l-.1-.3C376 158 342 124 299.8 109l-.3-.1V1.5h-99v107.4l-.3.1C158 124 124 158 109 200.2l-.1.3H1.5v99h107.4l.1.3c15 42.2 49 76.2 91.2 91.2l.3.1v107.4zm49.5-198c-27.8 0-50.5-22.7-50.5-50.5s22.7-50.5 50.5-50.5 50.5 22.7 50.5 50.5-22.7 50.5-50.5 50.5zm0-100c-27.3 0-49.5 22.2-49.5 49.5s22.2 49.5 49.5 49.5 49.5-22.2 49.5-49.5-22.2-49.5-49.5-49.5z" fill="#fff"/><path d="M498.1 200.7h1.9v98.7h-1.9zM200.6.1h98.7V2h-98.7zM0 200.6h1.9v98.7H0zm200.8 297.2h98.7v1.9h-98.7z" fill="#2e3a34"/><path d="M467.5 217.6c2.1 10.2 2.1 20.8 0 31.1-.4 1.6-1.7 2.8-3.4 2.8h-65.4c-4.3 0-7.9-3.2-8.5-7.3a80.31 80.31 0 0 1 0-21.9c.6-4.3 4.3-7.3 8.5-7.3h65.4c1.7-.2 3 1 3.4 2.6z" class="Ah"/><path d="M389.8 225.1a69.57 69.57 0 0 0 0 15.8h8.3v-15.8h-8.3z" fill="#231f20"/><path d="M394.3 222.7c-.5 3.4-.7 6.8-.7 10.3 0 3.4.2 6.9.7 10.3.4 2.1 2.1 3.6 4.3 3.6h69.1c1.7-9.2 1.7-18.7 0-28h-69c-2.2.2-4 1.7-4.4 3.8z" class="Ah"/><path d="M418.5 222.4v21.3l-21.8-3.3c-.9-4.9-.9-9.8 0-14.7l21.8-3.3z" fill="#a1cd91"/><path d="M391.8 218.2c1.5-1 3.4-1.5 5.5-1.5h60c1.7 4.9 2.7 10.3 2.7 16.3s-1 11.4-2.7 16.3h-60c-2.1 0-3.9-.6-5.5-1.5a8.62 8.62 0 0 0 6.9 3.4h66c.1 0 .4-.1.5-.1h.1c.1-.1.4-.1.4-.1h.1c.1-.1.4-.1.4-.2h0c.4-.1.6-.4.7-.7h0c.1-.1.1-.2.4-.4h0c.1-.1.1-.4.2-.5h0c.1-.1.1-.4.1-.5 2.1-10.2 2.1-20.8 0-31.1 0-.1-.1-.4-.1-.5h0c-.1-.1-.1-.4-.2-.5h0c-.1-.1-.1-.4-.4-.4h0l-.7-.7c-.1-.1-.2-.1-.4-.2h-.1c-.1-.1-.4-.1-.4-.1h-.1c-.1-.1-.4-.1-.5-.1h-66c-2.9-.3-5.4 1-6.9 3.1z" class="Ah"/><path d="M448.6 246l1.5 1.2c1.1 1 .5 2.7-1 2.7h-33.8l9-3.9h24.3z" class="Ai"/><path d="M449.7 248.3c0 .2-.1.7-.6.7h-29.7l5-2.1h23.9l1.2 1c.2.2.2.3.2.4z" class="Ag"/><path d="M417.4 250.9l1.3 2.4c.4.7 1.2 1.3 2.1 1.5l.9.1-1.3-3.6-2.1-.7-.5-1.2-.7.2.3 1.3z" class="Ah"/><path d="M420 251.5l1.2 3.5.5.1-1.5-3.8-2.1-.7-.4-1.2h-.3l.5 1.3zm28.6-31.5l1.5-1.2c1.1-1 .5-2.7-1-2.7h-33.8l9 3.9h24.3z" class="Ai"/><path d="M449.7 217.7c0-.2-.1-.7-.6-.7h-29.7l5 2.1h23.9l1.2-1c.2-.1.2-.2.2-.4z" class="Ag"/><path d="M417.4 215.1l1.3-2.4c.4-.7 1.2-1.3 2.1-1.5l.9-.1-1.3 3.6-2.1.7-.5 1.2-.7-.2.3-1.3z" class="Ah"/><path d="M420 214.5l1.2-3.4.5-.1-1.5 3.6-2.1.9-.4 1.2-.3-.1.5-1.3z" class="Ai"/><path d="M397.2 247.8s-3.8-.1-3.9-5.7h-2.1s.1 5.6 6 5.7z" fill="#fbfaf9"/><path d="M397.2 247.8s-.1 0-.4-.1c-5-.6-5.1-5.6-5.1-5.6h-.6c.1 0 .2 5.6 6.1 5.7z" fill="#e8e5d9"/><path d="M391.2 242.6h1.7c.1 2.6 1 4 1.9 4.7a13.33 13.33 0 0 0 2.6.5s-3.8-.1-3.9-5.7h-2.1c-.2 0-.2.1-.2.5z" class="Ag"/><path d="M397.2 218.2s-3.8.1-3.9 5.7h-2.1s.1-5.6 6-5.7z" fill="#fbfaf9"/><path d="M397.2 218.2s-.1 0-.4.1c-5 .6-5.1 5.6-5.1 5.6h-.6c.1 0 .2-5.6 6.1-5.7z" fill="#e8e5d9"/><path d="M391.2 223.4h1.7c.1-2.6 1-4 1.9-4.7a13.33 13.33 0 0 1 2.6-.5s-3.8.1-3.9 5.7h-2.1c-.2 0-.2-.1-.2-.5z" class="Ag"/><path d="M393.1 239.9c-.4-4.6-.4-9.2 0-13.7h-1.7c-.4 4.6-.4 9.2 0 13.7h1.7z" fill="#8ac26e"/><path d="M423.8 221.2v23.6L417 248c-1.6.7-3.4-.1-3.9-1.8a52.83 52.83 0 0 1 0-26.2c.4-1.7 2.3-2.6 3.9-1.8l6.8 3z" class="Ai"/><path d="M423.1 244.3l-6.2 2.9a2.48 2.48 0 0 1-1.7 0c-.6-.2-.9-.7-1-1.2-1.1-4.3-1.7-8.6-1.7-12.9s.6-8.7 1.7-12.9c.1-.6.6-1 1-1.2a2.48 2.48 0 0 1 1.7 0c2.4 1.1 5.2 2.3 6.2 2.9v22.4z" class="Ag"/><path d="M450.5 221.2v23.6a5.3 5.3 0 0 0 .9.7c2.1 1.9 5.5.7 5.8-2.1 1.1-7 1.1-14.2 0-21.3-.5-2.8-3.8-3.9-5.8-2.1l-.9 1.2z" class="Ai"/><path d="M457.1 233c0 3.5-.4 7-.9 10.5-.1 1-.7 1.7-1.7 2.1s-1.9.1-2.7-.6c-.2-.2-.5-.4-.6-.6v-22.8l.6-.6c.7-.7 1.7-.9 2.7-.6 1 .4 1.6 1.1 1.7 2.1.6 3.4.9 7.1.9 10.5z" class="Ag"/><path d="M465.2 214.9c-.6.6-.7 1.5.7 2.9 1.5 1.5 1 6 2.6 6.3-.2-2.2-.6-4.5-1-6.7-.3-1.2-1.2-2.1-2.3-2.5h0zm0 36.2c-.6-.6-.7-1.5.7-2.9 1.5-1.5 1-6 2.6-6.3-.2 2.2-.6 4.5-1 6.7-.3 1.2-1.2 2.1-2.3 2.5h0z" fill="#ef7b6f"/><path d="M466.6 240.2h2.1a67.4 67.4 0 0 0 0-14.2h-2.1c.5 4.7.5 9.3 0 14.2z" fill="#f1f2f2"/><linearGradient id="A" gradientUnits="userSpaceOnUse" x1="343.426" y1="271.317" x2="355.572" y2="279.18"><stop offset="0" stop-color="#5b5b5d"/><stop offset=".141" stop-color="#fff"/><stop offset=".894" stop-color="#a6a8aa"/><stop offset="1" stop-color="#fff"/></linearGradient><path d="M343 271.5c-.2 0-.6.1-.9 0 2.1.7 4 1.7 5.9 2.9l1.4.9.2.2c2.3 1.3 4.3 3 6.4 5.1-.1-.2-.2-.6-.4-.9a43.13 43.13 0 0 0-5.6-5.2l-.2-.2c-1.8-.9-4.1-1.9-6.8-2.8z" fill="url(#A)"/><linearGradient id="B" gradientUnits="userSpaceOnUse" x1="333.554" y1="256.098" x2="345.118" y2="312.743"><stop offset=".051" stop-color="#f2959a"/><stop offset=".894" stop-color="#911917"/><stop offset="1" stop-color="#ea506a"/></linearGradient><path d="M342.2 271.6c.2 0 .6-.1.9 0 .9.1 1.6.1 2.4.3 1.8.6 3.3 1.4 4.8 2.3l.2.2.4-.7-.2-.2c-1.8-1-3.5-2-5.3-2.6-1.3 0-2.5-.1-3.7.1-.3-.1-.6.1-1 .1s-.9.2-1.2.2c-1.1.2-2 .6-2.8.8-5 2-9.3 5.9-12.8 11.6-.1.2-.2.3-.4.5.4-.4 1-.6 1.8-.7.1-.1.2-.3.3-.4 2.5-3.9 6-7.3 10.2-9.8 2.1-1.1 4.3-1.6 6.4-1.7z" fill="url(#B)"/><linearGradient id="C" gradientUnits="userSpaceOnUse" x1="332.775" y1="269.309" x2="329.937" y2="279.143"><stop offset=".051" stop-color="#f2959a"/><stop offset=".781" stop-color="#911917"/></linearGradient><path d="M336.5 272.1l2.8-.8-1.2-.3c-1.6-.3-3.2-.4-5-.3-3.9 3.7-7.5 8.2-10.9 13.5l1.5-.6c3.6-5.5 7.8-9.5 12.8-11.5z" fill="url(#C)"/><path d="M338.2 270.9l1.2.3c.4-.1.9-.2 1.2-.2a1.08 1.08 0 0 1-.7-.3c-.9-.2-1.5-.1-1.7.2z" fill="#676767"/><linearGradient id="D" gradientUnits="userSpaceOnUse" x1="331.721" y1="268.845" x2="338.431" y2="273.188"><stop offset="0" stop-color="#5b5b5d"/><stop offset=".141" stop-color="#fff"/><stop offset=".894" stop-color="#a6a8aa"/><stop offset="1" stop-color="#fff"/></linearGradient><path d="M338.2 270.9c.2-.3.8-.4 1.7-.1-2-.5-4-.9-6.1-.8-1.1 0-2.3.1-3.3.5-.3.2-.4.5-.3.7 1-.4 1.9-.6 2.7-.7 2.1 0 3.9.1 5.3.4z" fill="url(#D)"/><path d="M339.9 270.8a1.08 1.08 0 0 1 .7.3c.3-.1.6-.1 1-.1-2-.8-4.3-1.3-6.6-1.4-1.5 0-2.7.1-3.8.5-.3.1-.4.4-.6.6 1.1-.3 2.2-.6 3.3-.5 2.2-.2 4.2 0 6 .6z" fill="#fff"/><linearGradient id="E" gradientUnits="userSpaceOnUse" x1="338.158" y1="268.785" x2="338.432" y2="270.61"><stop offset=".051" stop-color="#f2959a"/><stop offset=".894" stop-color="#911917"/><stop offset="1" stop-color="#ea506a"/></linearGradient><path d="M341.7 270.9c1.2-.1 2.3-.2 3.7-.1-2.5-1-5.1-1.8-7.8-2.1-2-.5-4-.4-5.6.7-.3.2-.5.5-.6.6 1.1-.3 2.4-.6 3.8-.5 2.2.1 4.5.5 6.5 1.4z" fill="url(#E)"/><linearGradient id="F" gradientUnits="userSpaceOnUse" x1="343.457" y1="270.694" x2="356.094" y2="278.874"><stop offset="0" stop-color="#5b5b5d"/><stop offset=".141" stop-color="#808183"/><stop offset=".894" stop-color="#1b2326"/><stop offset="1" stop-color="#fff"/></linearGradient><path d="M345.4 271.7c-.9-.1-1.6-.3-2.4-.3 2.9.9 5 1.9 7.1 3l.2.2c1.7 1.3 3.6 3 5.6 5.2-.4-.7-.7-1.4-1.2-2-1.1-1.4-2.5-2.4-3.9-3.3l-.3-.3c-1.8-1.1-3.4-2-5.1-2.5z" fill="url(#F)"/><linearGradient id="G" gradientUnits="userSpaceOnUse" x1="353.695" y1="273.411" x2="355.304" y2="302.741"><stop offset="0" stop-color="#a41b25"/><stop offset=".141" stop-color="#f2959a"/><stop offset=".77" stop-color="#911917"/><stop offset="1" stop-color="#ef7c88"/></linearGradient><path d="M350.5 274.4c1.5.8 2.8 2 3.9 3.3l1.2 2c.1.2.2.6.4.9.7 2 1.1 4.3 1 6.7-.6 4.9-2.3 9.5-5 13.6h0s-.1.1-.1.2c.2.6.3 1 .2 1.4l.1.2c3.8-5.6 5.7-11.1 5.5-16.7-.1-1-.2-2-.4-2.9-.1-.4-.2-.9-.4-1.2s-.2-.6-.3-1c-.4-1.2-.9-2.3-1.5-3.4-1.3-1.3-2.8-2.6-4.3-3.6l-.3.5z" fill="url(#G)"/><path d="M357.4 282.1c-.1-.2-.3-.4-.6-.5.1.4.2.9.4 1.2l.7.9c.5-.2.2-.9-.5-1.6z" fill="#676767"/><path d="M357.1 281.6c.1.2.3.4.6.5 1.3 1.6 2.5 3.3 3.3 5.2.4 1 .8 2.1.9 3.2 0-.3.2-.5.3-.7-.2-1.2-.4-2.4-1.1-3.7-1.2-2.2-2.4-4-4-5.5-.2.4-.2.7 0 1z" fill="#fff"/><linearGradient id="H" gradientUnits="userSpaceOnUse" x1="356.055" y1="278.957" x2="362.825" y2="294.653"><stop offset="0" stop-color="#5b5b5d"/><stop offset=".141" stop-color="#fff"/><stop offset=".894" stop-color="#a6a8aa"/><stop offset="1" stop-color="#fff"/></linearGradient><path d="M357.4 282.1c.6.8.8 1.3.6 1.6.9 1.4 1.7 2.8 2.3 4.4.2.8.4 1.7.4 2.7.2 0 .5-.2.6-.6-.2-1.2-.4-2.3-.9-3.2-.5-1.6-1.6-3.4-3-4.9z" fill="url(#H)"/><linearGradient id="I" gradientUnits="userSpaceOnUse" x1="358.727" y1="286.824" x2="351.163" y2="301.201"><stop offset=".051" stop-color="#f2959a"/><stop offset=".73" stop-color="#911917"/><stop offset="1" stop-color="#c1444b"/></linearGradient><path d="M358 283.7l-.7-.9.4 2.9c.1 5.5-1.6 11-5.5 16.7l.4 1c3.5-5.1 6-10.2 7.7-15.3-.6-1.6-1.3-3.1-2.3-4.4z" fill="url(#I)"/><linearGradient id="J" gradientUnits="userSpaceOnUse" x1="362.532" y1="289.864" x2="355.159" y2="277.568"><stop offset=".051" stop-color="#f2959a"/><stop offset=".894" stop-color="#911917"/><stop offset="1" stop-color="#ea506a"/></linearGradient><path d="M355.2 277.3c.6 1.1 1.1 2.3 1.5 3.4 1.6 1.5 2.8 3.4 4 5.5.6 1.3 1 2.5 1.1 3.7 0-.3.2-.5.3-.7.3-1.9-.1-3.8-1.7-5.4-1.5-2.6-3.2-4.8-5.2-6.5z" fill="url(#J)"/><radialGradient id="K" cx="-3358.214" cy="708.855" r="64.215" gradientTransform="matrix(2.059938e-02 1.333406e-02 -7.679258e-02 0.1191 482.0121 257.6369)" gradientUnits="userSpaceOnUse"><stop offset=".051" stop-color="#f2959a"/><stop offset="1" stop-color="#911917"/></radialGradient><path d="M361.5 290.6c-.1.4-.4.5-.6.6 0-1.1-.2-2-.4-2.7-1.7 4.9-4.3 10-7.7 15.3 1.1 0 2-.3 2.9-.8h0c.1-.1.2-.3.4-.4 2.4-2.8 3.9-5.5 4.6-8 .2-.6.4-1.4.6-2.3-.2-.6 0-1.1.2-1.7z" fill="url(#K)"/><linearGradient id="L" gradientUnits="userSpaceOnUse" x1="321.034" y1="288.028" x2="349.587" y2="306.51"><stop offset="0" stop-color="#5c5c5e"/><stop offset=".278" stop-color="#808183"/><stop offset="1" stop-color="#272626"/></linearGradient><path d="M341.5 290.3c0 .3-.2.3-.6.4-.9-.1-1.5-.2-2.1-.1l.6.4.2.2c3.7 2.2 6.7 5 9.5 8.3 1.5 1.7 2 3.2 1.6 4-.5.8-1.1 1.4-1.6 2.2h0c-1.3 1.7-2.5 3-3.7 4-1.6 1.4-2.5 1.9-2.9 1.4a74.2 74.2 0 0 0-10.6-7.8l-.2-.2c-2.9-2-6.2-3.8-9.3-5.4-.3.1-.4.4-.7.3 0 0-.2 0-.3.1-.3-.1-.7 0-1.1.2-.1.1-.1.1-.2 0 3.6 1.7 7.2 3.7 10.5 5.9l.2.2c3.6 2.2 6.9 4.7 10.1 7.4l.1.1c.1.1.4.3.5.3.8.5 1.6.4 2.3-.4l.1-.1c2.3-2.2 5-4.8 7.7-7.9.3-.4.7-.8 1-1.2.1-.1.1-.4.2-.5.1-.4 0-.8-.2-1.4-3.4-4.2-6.9-7.6-11.1-10.4z" fill="url(#L)"/><linearGradient id="M" gradientUnits="userSpaceOnUse" x1="321.063" y1="287.984" x2="349.615" y2="306.466"><stop offset="0" stop-color="#272626"/><stop offset=".467" stop-color="#808183"/><stop offset=".773" stop-color="#5c5c5e"/></linearGradient><path d="M340.9 290.6c.3.1.6-.1.6-.4l-.1-.1-1-.7-.2-.2c-4.5-3.2-9.6-5.3-15.1-5.9-.7 0-1.3.3-1.8.7-.3.4-.6.9-.7 1.4-1.7 3.7-3.1 7.1-4 10.2l-.1.1c-.4 1-.1 1.6.6 2.2.1.1.4.3.5.3l.1.1c.1.1.3.2.5.1.1-.1.1-.1.2 0a1.39 1.39 0 0 1 1.1-.2c.1-.1.1-.1.3-.1.3-.1.6-.1.7-.3-.7-.3-1.4-.7-2.2-.9-.6-.2-.5-1.2.1-3.2.3-1.3 1-2.9 1.9-4.6h0c.4-.8 1-1.8 1.4-2.8.7-.8 2-.9 4.3-.1 3.9 1.1 7.3 2.6 10.7 4.8.6-.5 1.4-.6 2.2-.4z" fill="url(#M)"/><linearGradient id="N" gradientUnits="userSpaceOnUse" x1="323.968" y1="279.785" x2="359.699" y2="288.694"><stop offset="0" stop-color="#f4a198"/><stop offset=".421" stop-color="#bd3f44"/><stop offset="1" stop-color="#ec867f"/></linearGradient><path d="M357 287.1c.2-2.5-.2-4.8-1-6.7-2-2.1-4.2-3.8-6.4-5.1l-.2-.2-1.4-.9c-1.8-1.2-3.8-2-5.9-2.9-2.1.2-4.3.7-6.5 1.8-4.2 2.5-7.7 5.9-10.2 9.8-.1.1-.2.3-.3.4 5.4.7 10.6 2.7 15.1 5.9l.2.2c.4.3.6.4 1 .7l.1.1c4.3 2.8 7.7 6.2 10.4 10.6.1-.1.1-.2.1-.2h0c2.7-4 4.2-8.6 5-13.5z" fill="url(#N)"/><linearGradient id="O" gradientUnits="userSpaceOnUse" x1="350.871" y1="304.528" x2="353.048" y2="305.937"><stop offset=".051" stop-color="#f2959a"/><stop offset="1" stop-color="#911917"/></linearGradient><path d="M353.8 305.1c.4-.5.7-1.1 1.3-1.7l-2.3.2c-.4.5-.6 1-1 1.5l-1.4 2.4.4.4.7.9 2.3-3.7z" fill="url(#O)"/><path d="M354.8 303.4c.2-.3.5-.5.7-.8-.8.4-1.8.7-2.9.8l-.1.1 2.3-.1z" fill="#911915"/><path d="M352.2 302.2c.1.2-.1.4-.2.5.1-.1.1-.2.2-.5h0z" class="Af"/><linearGradient id="P" gradientUnits="userSpaceOnUse" x1="332.748" y1="322.01" x2="339.189" y2="326.178"><stop offset="0" stop-color="#911917"/><stop offset=".604" stop-color="#ed6a6f"/><stop offset="1" stop-color="#a41b25"/></linearGradient><path d="M352.2 302.4c-.1.1-.1.2-.2.3-.3.4-.6.9-1 1.2-2.7 3-5.2 5.8-7.7 7.9l-.1.1c-.7.8-1.4.8-2.3.4-5.4 7-10.6 14.9-15.7 23.7.7 2.3-.5 5.3-3.7 9.1.3.4.2 1.1-.2 1.7 3-1.6 6-4.5 8.6-8.5-.7 0-1-.7-1.1-1.8.1-.4.2-.8.2-1.2l.1-.4c.8-3 2.5-6.7 5.4-10.6l.1-.1c.2-.3.4-.5.5-.8.1-.1.1-.1.1-.2.1-.2.3-.4.4-.5 2.4-3.4 4.8-6.5 7-9.2l4.5-4.7 3.5-3.7c.4-.5.6-1 1-1.5l.1-.1.5-1.1z" fill="url(#P)"/><path d="M350.6 308l-.4-.4 1.4-2.4-3.5 3.7 1.3-.1-8.7 13.5-.5.8-.2.3-.8 1.3-8.7 13.4c-.5-.1-.7-.6-.7-1.4.1-.4 0-.8.1-1.3-.1.4-.2.8-.2 1.2-.1 1 .2 1.7 1.1 1.8l.2-.3 9.5-14.7.1-.1 9.3-14.4c-.2.6.1 1.3.6 1.9l1.6 2c.2.3.4.3.7.1l-2.2-2.6c-.4-.7-.6-1.3-.5-1.8l-.4-.4.5-.5.4.4z" class="Aj"/><radialGradient id="Q" cx="762.103" cy="-2683.038" r="98.457" gradientTransform="matrix(1.398426e-02 -6.468693e-03 2.093158e-02 3.217402e-02 396.7255 402.0657)" gradientUnits="userSpaceOnUse"><stop offset="0" stop-color="#f2959a"/><stop offset="1" stop-color="#a11c19"/></radialGradient><path d="M349.4 307.9l.4.4c-.2.5 0 1.2.5 1.8l2.2 2.6.1-.1c.6-.7.7-1.6-.1-2.7l-1-1.3-.7-.9-.3-.1-.6-.5-.5.8z" fill="url(#Q)"/><path d="M348.7 305.5h0z" fill="#343434"/><linearGradient id="R" gradientUnits="userSpaceOnUse" x1="341.313" y1="314.611" x2="344.3" y2="316.544"><stop offset="0" stop-color="#808183"/><stop offset="1" stop-color="#5b5b5d"/></linearGradient><path d="M349.4 308.7l-1.3.1-4.5 4.7c-2.3 2.7-4.6 5.7-7 9.2.1.1.2 0 .2 0h0c1.5 0 2.8 0 3.7-.4l.1.1 8.8-13.7z" fill="url(#R)"/><linearGradient id="S" gradientUnits="userSpaceOnUse" x1="343.881" y1="315.326" x2="346.058" y2="316.735"><stop offset=".051" stop-color="#f2959a"/><stop offset="1" stop-color="#911917"/></linearGradient><path d="M350.2 310.8c-.6-.8-.9-1.5-.6-1.9l-9.2 14.3c.7.3 1.2.3 1.7.2l.1-.2 2.7-4.1 5.3-8.3z" fill="url(#S)"/><linearGradient id="T" gradientUnits="userSpaceOnUse" x1="339.724" y1="323.574" x2="336.893" y2="321.742"><stop offset=".051" stop-color="#f2959a"/><stop offset=".239" stop-color="#af191a"/><stop offset="1" stop-color="#ed6a6b"/></linearGradient><path d="M340.1 323.1l.5-.8-.1-.1c-1.1.2-2.4.3-3.7.4h0l-.4.7c1.2.2 2.4.1 3.7-.2z" fill="url(#T)"/><path d="M345 319l-2.7 4.1c.6-.1 1.2-.8 1.9-2 .7-1.1.7-1.8.8-2.1z" fill="#fff"/><path d="M341.9 323.7l.1-.2c-.6.1-1.1 0-1.7-.2l-.1.2 1.7.2z" class="Af"/><path d="M340.7 311.9h0c-.2 0-.2 0-.3.1-5.4 7.2-10.5 14.8-15.5 23.2.1.1.1.1.3.2.1.2.3.4.4.6 5.1-8.7 10.3-16.7 15.7-23.7-.2-.1-.3-.2-.6-.4z" class="Aj"/><linearGradient id="U" gradientUnits="userSpaceOnUse" x1="338.948" y1="324.773" x2="336.118" y2="322.94"><stop offset=".051" stop-color="#f2959a"/><stop offset=".239" stop-color="#af191a"/><stop offset="1" stop-color="#ed6a6b"/></linearGradient><path d="M339 324.7l.8-1.3c-1.2.2-2.5.2-3.8 0l-.6 1c1.2.4 2.3.4 3.6.3z" fill="url(#U)"/><path d="M336.2 323.2l.4-.7h-.2c-.1.2-.3.4-.4.5s-.1.1-.1.2c-.2.3-.4.5-.5.8l-.1.1c.1.1.1.1.2 0l.7-.9c1.2.3 2.4.2 3.8 0l.2-.3c-1.4.5-2.6.6-4 .3z" class="Af"/><linearGradient id="V" gradientUnits="userSpaceOnUse" x1="331.709" y1="329.446" x2="334.696" y2="331.38"><stop offset="0" stop-color="#808183"/><stop offset="1" stop-color="#5b5b5d"/></linearGradient><path d="M335.4 324.4c-.1-.1-.1-.1-.2 0-2.8 4.1-4.7 7.5-5.4 10.6l-.1.4c-.2.5 0 .9-.1 1.3 0 .8.4 1.2.7 1.4l8.7-13.5c-1.3.2-2.4.2-3.6-.2z" fill="url(#V)"/><linearGradient id="W" gradientUnits="userSpaceOnUse" x1="334.552" y1="329.736" x2="336.729" y2="331.145"><stop offset=".051" stop-color="#f2959a"/><stop offset="1" stop-color="#911917"/></linearGradient><path d="M341.9 323.7c-.4.1-1.1-.1-1.7-.2l-9.4 14.6c.8.2 1.5 0 2.3-.1.1-.2.3-.4.4-.7.3-.4.4-.8.6-1.2l7.8-12.4z" fill="url(#W)"/><radialGradient id="X" cx="10428.734" cy="504.642" r="224.847" gradientTransform="matrix(1.464420e-02 1.136873e-02 -7.324369e-02 8.809208e-02 213.7224 113.7639)" gradientUnits="userSpaceOnUse"><stop offset=".051" stop-color="#f2959a"/><stop offset="1" stop-color="#911917"/></radialGradient><path d="M330.4 271.4c-.1-.2 0-.5.3-.7-.5.5-1 .7-1.4 1-.7.5-1.3.9-1.8 1.4-2 1.6-3.7 4.3-5.4 7.5-.1.2-.2.6-.4.8l.4 2.7c3.3-5.4 6.9-9.9 10.9-13.5-.7 0-1.4.3-2.6.8z" fill="url(#X)"/><path d="M321.8 281.3c-.1.1-.2.3-.3.4l.5 2.6c.1-.1.1-.1.2-.3l-.4-2.7z" fill="#911915"/><linearGradient id="Y" gradientUnits="userSpaceOnUse" x1="308.609" y1="305.5" x2="315.495" y2="309.957"><stop offset="0" stop-color="#911917"/><stop offset=".604" stop-color="#f2959a"/><stop offset="1" stop-color="#a41b25"/></linearGradient><path d="M323.5 284.2c.1-.2.2-.3.4-.5l-1.5.6c-.1.1-.1.1-.2.3l-.7 1.1-2 4.7-2.4 6c-1.5 3.2-3.3 6.5-5.5 10.2-.1.2-.3.4-.4.7-.1.1-.1.2-.2.3-.1.2-.3.4-.4.7l-.1.1c-2.5 4.2-4.9 7.3-7.4 9.2l-.3.2c-.3.2-.7.5-1 .7-.9.5-1.6.5-2-.2-2.4 4.5-3.7 8-3.7 10.8a1.39 1.39 0 0 1 1.1-.2c2.3-4.4 4.6-6.8 6.8-7 5.9-8.2 11-16.2 15.2-24-.8-.5-1-1.3-.6-2.2l.1-.1c1-3 2.4-6.5 4-10.2.2-.3.5-.7.8-1.2z" fill="url(#Y)"/><linearGradient id="Z" gradientUnits="userSpaceOnUse" x1="319.561" y1="284.313" x2="321.058" y2="285.282"><stop offset=".051" stop-color="#f2959a"/><stop offset="1" stop-color="#911917"/></linearGradient><path d="M321.4 285.5l.7-1.1-.5-2.6c-.4.5-.6 1.2-1 1.8l-2.5 3.6 1.2.3.6.2 1.5-2.2z" fill="url(#Z)"/><radialGradient id="a" cx="3017.479" cy="-6278.628" r="98.457" gradientTransform="matrix(3.346562e-04 1.263324e-02 -2.856502e-02 -3.509345e-03 136.1917 227.6797)" gradientUnits="userSpaceOnUse"><stop offset="0" stop-color="#f2959a"/><stop offset="1" stop-color="#a11c19"/></radialGradient><path d="M316.4 286.9c-1.3-.2-2.1.2-2.5 1l-.1.1 3.3.9c.9.1 1.5 0 1.9-.3l.6.2.2-.6-.7-.3-.2-.3-1.2-.3-1.3-.4z" fill="url(#a)"/><path d="M314.1 288c0 .3 0 .5.4.6l2.5.7c1 .2 1.7.2 2-.3l-9.4 14.5-.1.2-9.4 14.6-.1.2c.3.7 1 .7 2 .2l1-.7c-.4.4-.8.4-1.2.6-.7.3-1.2.2-1.6-.1l8.7-13.5.7-1.1.2-.3.6-1 8.8-13.6.5 1.2 2-4.7-1.6 2.2-.6-.2.2.3.7.3-.2.6-.6-.2c-.4.4-1.1.5-1.9.3l-3.6-.8z" class="Aj"/><linearGradient id="b" gradientUnits="userSpaceOnUse" x1="304.031" y1="276.916" x2="347.867" y2="305.292"><stop offset=".278" stop-color="#a6a8aa"/><stop offset="1" stop-color="#565658"/></linearGradient><path d="M350.4 303.2c.4-1 0-2.2-1.6-4-2.7-3.3-5.8-6.1-9.5-8.3l-.2-.2c-.3-.2-.5-.3-.6-.4-3.4-2.2-7-3.7-10.7-4.8-2.2-.6-3.7-.5-4.3.1-.4 1-1 1.8-1.4 2.8h0c-.9 1.7-1.5 3.2-1.9 4.6-.6 2.1-.7 3.1-.1 3.2.7.3 1.4.6 2.2.9 3.2 1.6 6.3 3.3 9.3 5.4l.2.2c3.7 2.2 7.3 4.9 10.6 7.8.4.4 1.3-.1 2.9-1.4 1.2-.9 2.4-2.3 3.7-4l-.1-.1.1.1c.3-.3.8-1 1.4-1.9z" fill="url(#b)"/><linearGradient id="c" gradientUnits="userSpaceOnUse" x1="313.599" y1="296.684" x2="316.474" y2="298.545"><stop offset="0" stop-color="#808183"/><stop offset="1" stop-color="#5b5b5d"/></linearGradient><path d="M319.6 290.3l-.5-1.2-8.8 13.6.1.1c.2 1.1.7 2.3 1.2 3.6h0l.1.2c2.1-3.6 4-7 5.5-10.2l2.4-6.1z" fill="url(#c)"/><linearGradient id="d" gradientUnits="userSpaceOnUse" x1="312.572" y1="295.111" x2="314.068" y2="296.079"><stop offset=".051" stop-color="#f2959a"/><stop offset="1" stop-color="#911917"/></linearGradient><path d="M318.9 288.8c-.5.5-1.2.5-2 .3l-5.4 8.3-2.7 4.1-.4.5c.2.6.6 1.1.9 1.4l9.6-14.6z" fill="url(#d)"/><path d="M319.6 298.2c-.1-.1-.4-.3-.5-.3-4.1 7.8-9.3 15.8-15.2 24 .3.1.7.1 1 .2.1-.2.3-.4.4-.7 5.1-7.6 9.7-15 14-22.5.1-.1.3-.4.3-.7h0z" class="Aj"/><path d="M308.7 301.4l2.7-4.1c-.2 0-.9.5-1.6 1.6-.8 1.2-1.1 2-1.1 2.5z" fill="#fff"/><linearGradient id="e" gradientUnits="userSpaceOnUse" x1="309.202" y1="303.93" x2="312.032" y2="305.763"><stop offset=".051" stop-color="#f2959a"/><stop offset=".239" stop-color="#af191a"/><stop offset="1" stop-color="#ed6a6b"/></linearGradient><path d="M310.3 302.7h0l-.8.9c.4 1.2.8 2.4 1.6 3.5l.4-.7c-.6-1.3-1.1-2.5-1.2-3.7z" fill="url(#e)"/><path d="M309.4 303.4c-.5-.3-.8-.7-.9-1.4l-.1.2c.2.5.5.9.9 1.4l.1-.2zm1.9 4c.1-.2.3-.4.4-.7-.1-.1-.1-.2-.1-.2l-.4.7c-.6-1-1.2-2.2-1.6-3.5l-.2.3c.4 1.2.8 2.4 1.6 3.5l-.6.9c.1.1.1.1.1.2l.1-.1c.1-.2.3-.4.4-.7.1-.2.3-.4.3-.4z" class="Af"/><linearGradient id="f" gradientUnits="userSpaceOnUse" x1="311.378" y1="307.157" x2="308.548" y2="305.325"><stop offset=".051" stop-color="#f2959a"/><stop offset=".239" stop-color="#af191a"/><stop offset="1" stop-color="#ed6a6b"/></linearGradient><path d="M309.4 304l-.7 1.1c.4 1.2.9 2.3 1.7 3.3l.6-.9c-.7-1.2-1.2-2.3-1.6-3.5z" fill="url(#f)"/><linearGradient id="g" gradientUnits="userSpaceOnUse" x1="304.01" y1="311.496" x2="306.885" y2="313.356"><stop offset="0" stop-color="#808183"/><stop offset="1" stop-color="#5b5b5d"/></linearGradient><path d="M310.6 308.5c-.1-.1-.1-.1-.1-.2-.8-1-1.3-1.9-1.7-3.3l-8.7 13.5c.3.4.8.4 1.6.1.3-.2.7-.3 1.2-.6l.3-.2c2.4-2.2 4.9-5.2 7.4-9.3z" fill="url(#g)"/><linearGradient id="h" gradientUnits="userSpaceOnUse" x1="303.155" y1="309.656" x2="304.652" y2="310.625"><stop offset=".051" stop-color="#f2959a"/><stop offset="1" stop-color="#911917"/></linearGradient><path d="M309.2 303.7c-.4-.4-.7-.9-.9-1.4l-7.8 12.1c-.3.2-.6.6-.8 1-.1.1-.2.3-.3.4-.1 1 .1 1.9.6 2.5l9.2-14.6z" fill="url(#h)"/><linearGradient id="i" gradientUnits="userSpaceOnUse" x1="311.505" y1="335.513" x2="310.781" y2="322.952"><stop offset="0" stop-color="#808183"/><stop offset="1" stop-color="#272626"/></linearGradient><use xlink:href="#AF" fill="url(#i)"/><radialGradient id="j" cx="288.66" cy="67.099" r="17.32" gradientTransform="matrix(1.1318 0.7326 -0.6157 0.9511 35.8446 36.1478)" gradientUnits="userSpaceOnUse"><stop offset="0" stop-color="#f2958e"/><stop offset=".937" stop-color="#93191a"/></radialGradient><path d="M330.7 304.4h0c-3.5-2.3-6.9-4.3-10.5-5.9-.1-.1-.3-.1-.5-.1h0c-.1.2-.3.4-.4.7-4.1 7.5-8.9 15.1-14 22.5-.1.2-.3.4-.4.7 2.9 2.6 5.9 5.1 9.5 7.2l.1.1c3.4 2.4 6.9 4.1 10.5 5.7 5-8.2 10.2-16 15.5-23.2.1-.1.1-.1.1-.2h0c-3-2.8-6.3-5.2-9.9-7.5z" fill="url(#j)"/><radialGradient id="k" cx="519.505" cy="-1982.576" r="98.457" gradientTransform="matrix(0.1321 8.549916e-02 -7.184740e-02 0.111 100.257 505.1711)" gradientUnits="userSpaceOnUse"><stop offset="0" stop-color="#808183"/><stop offset="1" stop-color="#5b5b5d"/></radialGradient><path d="M305.2 323.5c-.8-1-1.9-.8-3.3.5s-2.4 2.9-3.2 4.9c-.4.8.1 2.1 1.3 3.4 9 3.7 16.8 4.7 23.3 2.7-3.3-1.4-6.6-3.2-9.5-5.2l-.2-.2c-2.8-1.2-5.6-3.5-8.4-6.1z" fill="url(#k)"/><path d="M299.4 315.8c-.1.1-.1.1-.1.2-.1 1 .1 1.9.6 2.5l.1-.2c-.5-.6-.7-1.5-.6-2.5z" class="Af"/><linearGradient id="l" gradientUnits="userSpaceOnUse" x1="295.766" y1="321.069" x2="297.263" y2="322.038"><stop offset=".051" stop-color="#f2959a"/><stop offset="1" stop-color="#911917"/></linearGradient><path d="M299.7 318.5c-.4-.7-.5-1.4-.6-2.5-2.4 3.4-4.3 7.1-5.8 10.7 1.9-3.2 3.8-5.9 6.4-8.2z" fill="url(#l)"/><radialGradient id="m" cx="7083.185" cy="-1993.467" r="98.457" gradientTransform="matrix(3.722420e-02 1.370321e-02 -3.803787e-02 0.1399 -44.7862 513.1633)" gradientUnits="userSpaceOnUse"><stop offset=".051" stop-color="#f2959a"/><stop offset="1" stop-color="#911917"/></radialGradient><path d="M295.5 329.8c.1-.2.4-.4.6-.6 0-2.8 1.2-6.5 3.7-10.8-2.5 2.2-4.7 5-6.4 8.4-.1.2-.2.5-.3.7-.5 1.1-.9 2.2-1.3 3.4h0l-.1.1c-.8 2.1-.8 4.1 0 5.9h0c.4-1.3 1.2-2.8 2-4.3.7-.8 1.3-1.8 1.8-2.8z" fill="url(#m)"/><path d="M296.1 329.2c-.3.1-.4.4-.6.6l-1.7 2.9c-.1 2.7.2 4.5 1.1 5.4.6.7 1.2 1.2 1.8 2s1.5 1.4 2.1 2.1c-4.7-4.6-5.8-8.7-3.3-12 .4-.5.9-.5 1.2-.1-.1-.4 0-.8-.2-1.2.3 0-.1.1-.4.3z" class="Af"/><linearGradient id="n" gradientUnits="userSpaceOnUse" x1="293.699" y1="333.57" x2="319.554" y2="350.305"><stop offset="0" stop-color="#ea4e52"/><stop offset=".886" stop-color="#911917"/><stop offset="1" stop-color="#f2959a"/></linearGradient><path d="M297.2 330.1c-.4-.4-.9-.3-1.2.2-2.6 3.2-1.6 7.3 3.3 12 1.5 1.4 3 2.5 4.6 3.6l.1.1c2.5 1.6 5.3 2.9 8.3 4.2l.1.1c.7.3 1.2.3 2 .7 1.2.5 2.9 0 5.4-1.2h0l.1-.1c.2-.3.4-.7.7-.8l.1-.1c.6-1.2.6-1.8-.1-1.9-2 .3-4.2-.1-6.5-1-5-1.9-9.6-4.7-13.5-8.4-1.6-1.5-2.5-3.2-2.4-4.8-.2-.3-.4-.7-.5-.9-.4-.9-.5-1.2-.5-1.7z" fill="url(#n)"/><path d="M291.7 331h0c-1 1.2-1.3 2.3-1.2 3.1 0 .8.4 1.7 1.2 2.9-.8-1.9-.8-3.9 0-6z" fill="#f59d1e"/><linearGradient id="o" gradientUnits="userSpaceOnUse" x1="291.622" y1="336.305" x2="317.595" y2="353.118"><stop offset=".051" stop-color="#f2959a"/><stop offset=".239" stop-color="#b31d1a"/><stop offset=".944" stop-color="#f2959a"/><stop offset="1" stop-color="#e6696d"/></linearGradient><path d="M291.8 336.9c-.1.1-.1.1-.1.2-.1 1 .1 1.9.8 2.7 2.9 3.2 6 6.1 9.6 8.4h0l.2.2c1.3.8 2.5 1.5 3.8 2.1-5-3.1-8.3-5.6-9.9-7.8-.6-.8-.3-1.8.6-2.7-.7-.6-1.2-1.2-1.8-2-.9-.9-1.2-2.6-1.1-5.4-.9 1.7-1.7 3.1-2.1 4.3z" fill="url(#o)"/><linearGradient id="p" gradientUnits="userSpaceOnUse" x1="311.597" y1="343.81" x2="311.886" y2="334.031"><stop offset="0" stop-color="#272626"/><stop offset="1" stop-color="#5b5b5d"/></linearGradient><path d="M300.1 332.6c-.5-.1-1.1-.6-2.4-1.1.2.3.3.7.5.9 1.4 2.3 4.5 5 9 8.3l.2.2c7.1 4.4 11.9 5.8 14.8 4.3 3.1-3.9 4.3-6.9 3.7-9.1-.1-.2-.2-.5-.4-.6l-1.6.2c1 .4 1.3 1.4.7 3.1-.6 1.8-1.7 3.4-3.2 4.9s-5.9 0-13-4.4l-.2-.2c-4-2.6-6.6-4.8-8.1-6.5z" fill="url(#p)"/><linearGradient id="q" gradientUnits="userSpaceOnUse" x1="295.153" y1="331.279" x2="321.008" y2="348.014"><stop offset="0" stop-color="#ea555a"/><stop offset="1" stop-color="#911917"/></linearGradient><path d="M298 332.5c-.1 1.8.7 3.4 2.4 4.8 3.8 3.7 8.4 6.5 13.5 8.4 2.4.8 4.6 1.1 6.5 1 .5 0 .6.7.1 1.9.4-.5.7-1.1 1.3-1.7.3-.7.3-1.3.2-1.7-2.8 1.4-7.6 0-14.8-4.3l-.2-.2c-4.4-3.1-7.4-5.8-9-8.2z" fill="url(#q)"/><linearGradient id="r" gradientUnits="userSpaceOnUse" x1="290.359" y1="338.285" x2="316.332" y2="355.098"><stop offset=".051" stop-color="#e6a890"/><stop offset=".2" stop-color="#911917"/><stop offset=".773" stop-color="#911917"/><stop offset=".949" stop-color="#e6a890"/><stop offset="1" stop-color="#c68b73"/></linearGradient><path d="M296.8 340.2c-1 .9-1.1 1.7-.6 2.7 1.5 2.2 4.9 4.7 9.9 7.8 2 1 4 1.8 5.9 2.6-1.4-.6-2.3-1.2-3-1.9.1-.7.4-1.3 1.1-1.6.6-.1 1.4.1 2.1.4-3-1-5.7-2.5-8.3-4.2l-.1-.1c-1.6-1-3.2-2.2-4.6-3.6a21.14 21.14 0 0 0-2.4-2.1z" fill="url(#r)"/><path d="M332.7 338.2c.1-.1.1-.2.2-.3-.7.3-1.5.3-2.3.1l-.3.4c.9.1 1.7 0 2.4-.2z" class="Af"/><radialGradient id="s" cx="-6077.417" cy="-2404.99" r="208.522" gradientTransform="matrix(1.889730e-02 1.695601e-02 -8.451848e-02 8.268335e-02 236.9317 642.7843)" gradientUnits="userSpaceOnUse"><stop offset=".118" stop-color="#f2959a"/><stop offset=".955" stop-color="#911917"/></radialGradient><path d="M327.2 345.9c0-.1 0-.1 0 0 2.1-2.4 3.9-4.9 5.7-7.6-.7.3-1.5.3-2.3.2-2.7 3.9-5.5 6.8-8.6 8.5-.4.5-.7 1.1-1.3 1.7l-.1.1c-.2.3-.4.7-.7.8l-.1.1c-.7 1.1-1 1.8-.7 2.2s2.9-1.7 8.1-6z" fill="url(#s)"/><radialGradient id="t" cx="519.505" cy="-1982.576" r="98.457" gradientTransform="matrix(0.1321 8.549916e-02 -7.184740e-02 0.111 100.257 505.1711)" gradientUnits="userSpaceOnUse"><stop offset=".239" stop-color="#808183"/><stop offset="1" stop-color="#5b5b5d"/></radialGradient><path d="M323.5 335.4h0c-6.7 1.8-14.4.9-23.4-2.8 1.5 1.7 4.1 3.9 8 6.4h0l.2.2c7.1 4.4 11.5 5.9 13 4.4s2.6-3.1 3.2-4.9.3-2.7-.7-3.1c-.2-.1-.2-.1-.3-.2z" fill="url(#t)"/><linearGradient id="u" gradientUnits="userSpaceOnUse" x1="289.291" y1="334.208" x2="317.863" y2="352.703"><stop offset=".051" stop-color="#f2959a"/><stop offset=".255" stop-color="#911917"/><stop offset=".71" stop-color="#a41b25"/><stop offset=".949" stop-color="#f2959a"/><stop offset=".994" stop-color="#ee767b"/></linearGradient><path d="M309 351.2c.5.6 1.5 1.3 3 1.9.6.2 1.2.3 1.8.6.9.3 1.7.2 2.8-.4.1-.1.1-.1.1-.2 1-.9 2-2.3 3.1-3.6-2.4 1.2-4.2 1.6-5.4 1.2-.7-.3-1.4-.4-2-.7h0l-.1-.1c-.7-.3-1.6-.4-2.1-.4-.7.4-1 .9-1.2 1.7z" fill="url(#u)"/><radialGradient id="v" cx="-6253.277" cy="-2635.17" r="95.975" gradientTransform="matrix(1.889730e-02 1.695601e-02 -8.451848e-02 8.268335e-02 220.3017 670.9566)" gradientUnits="userSpaceOnUse"><stop offset=".282" stop-color="#eb5b5a"/><stop offset="1" stop-color="#911917"/></radialGradient><path d="M322.3 350.6h0c1.7-1.5 3.2-3.2 4.7-5-5 4.3-7.6 6.4-7.9 5.9-.3-.4-.1-1 .7-2.2l-3.1 3.6c2.1.3 3.9-.6 5.6-2.3h0z" fill="url(#v)"/><linearGradient id="w" gradientUnits="userSpaceOnUse" x1="344.498" y1="316.669" x2="340.73" y2="314.23"><stop offset="0" stop-color="#272626"/><stop offset="1" stop-color="#808183"/></linearGradient><path d="M349.4 308.7l-1.3.1-4.5 4.7c-2.3 2.7-4.6 5.7-7 9.2 1.6.1 2.9 0 4.1-.3h0l8.7-13.7z" fill="url(#w)"/><linearGradient id="x" gradientUnits="userSpaceOnUse" x1="334.87" y1="331.542" x2="331.102" y2="329.103"><stop offset="0" stop-color="#272626"/><stop offset="1" stop-color="#808183"/></linearGradient><path d="M339 324.7c-1.3.3-2.7.1-3.8-.3-2.8 4.1-4.7 7.5-5.4 10.6l-.1.4c-.2.5 0 .9-.1 1.3 0 .8.4 1.2.7 1.4l8.7-13.4z" fill="url(#x)"/><linearGradient id="y" gradientUnits="userSpaceOnUse" x1="316.706" y1="298.663" x2="313.351" y2="296.491"><stop offset="0" stop-color="#272626"/><stop offset="1" stop-color="#808183"/></linearGradient><path d="M319.6 290.3l-.5-1.2-8.8 13.6.1.1c.2 1.1.6 2.4 1.4 3.8 2.1-3.6 4-7 5.5-10.2l2.3-6.1z" fill="url(#y)"/><linearGradient id="z" gradientUnits="userSpaceOnUse" x1="307.051" y1="313.578" x2="303.695" y2="311.406"><stop offset="0" stop-color="#272626"/><stop offset="1" stop-color="#808183"/></linearGradient><path d="M310.6 308.5c-.8-1-1.6-2.1-1.9-3.4l-8.7 13.4c.3.4.8.4 1.6.1.3-.2.7-.3 1.2-.6l.3-.2c2.5-2.2 5-5.2 7.5-9.3z" fill="url(#z)"/><linearGradient id="AA" gradientUnits="userSpaceOnUse" x1="305.208" y1="311.737" x2="321.302" y2="361.626"><stop offset="0" stop-color="#272626"/><stop offset="1" stop-color="#808183"/></linearGradient><use xlink:href="#AF" fill="url(#AA)"/><linearGradient id="AB" gradientUnits="userSpaceOnUse" x1="318.075" y1="355.697" x2="300.1" y2="301.498"><stop offset="0" stop-color="#030405"/><stop offset="1" stop-color="#808183"/></linearGradient><path d="M297.7 331.5c.2.3.3.7.5.9 1.4 2.3 4.5 5 9 8.3l.2.2c7.1 4.4 11.9 5.8 14.8 4.3 3.1-3.9 4.3-6.9 3.7-9.1-.1-.2-.2-.5-.4-.6l-1.6.2c1 .4 1.3 1.4.7 3.1-.6 1.8-1.7 3.4-3.2 4.9s-5.9 0-13-4.4l-.2-.2c-3.8-2.6-6.5-4.7-8-6.4-.3-.3-1.3-.6-2.5-1.2z" fill="url(#AB)"/><radialGradient id="AC" cx="288.681" cy="85.962" r="11.976" gradientTransform="matrix(1.1318 0.7326 -0.6157 0.9511 35.8446 36.1478)" gradientUnits="userSpaceOnUse"><stop offset="0" stop-color="#808183"/><stop offset="1" stop-color="#293237"/></radialGradient><path d="M324.3 338.7c.6-1.8.3-2.7-.7-3.1l-.2-.2c-3.3-1.4-6.6-3.2-9.5-5.2l-.2-.2c-3-1.8-6-4-8.8-6.6-.8-1-1.9-.8-3.3.5s-2.4 2.9-3.2 4.9c-.4.8.1 2.1 1.3 3.4 1.5 1.7 4.1 3.9 8 6.4l.2.2c7.1 4.4 11.5 5.9 13 4.4 1.8-1.1 2.8-2.8 3.4-4.5z" fill="url(#AC)"/><linearGradient id="AD" gradientUnits="userSpaceOnUse" x1="353.064" y1="297.308" x2="319.878" y2="299.467"><stop offset="0" stop-color="#363639"/><stop offset=".264" stop-color="#040506"/><stop offset=".438" stop-color="#555659"/><stop offset="1" stop-color="#030405"/></linearGradient><path d="M341.5 290.3h0c-.4-.3-.8-.5-1-.7l-.2-.2c-4.5-3.2-9.6-5.3-15.1-5.9-.7 0-1.3.3-1.8.7-.3.4-.6.9-.7 1.4-1.7 3.7-3.1 7.1-4 10.2l-.1.1c-.4 1-.1 1.6.6 2.2.1.1.4.3.5.3l.1.1c.1.1.3.2.5.1 3.6 1.7 7.2 3.7 10.5 5.9l.2.2c3.6 2.2 6.9 4.7 10.1 7.4l.1.1c.1.1.4.3.5.3.8.5 1.6.4 2.3-.4l.1-.1c2.3-2.2 5-4.8 7.7-7.9.3-.4.7-.8 1-1.2.1-.1.1-.4.2-.5.1-.4 0-.8-.2-1.4-3.6-4.5-7.1-7.9-11.3-10.7zm-2.1.7h0c3.7 2.2 6.8 5 9.5 8.3 1.5 1.7 2 3.2 1.6 4-.5.8-1.1 1.4-1.6 2.2h0c-1.3 1.7-2.5 3-3.7 4-1.6 1.4-2.5 1.9-2.9 1.4a74.2 74.2 0 0 0-10.6-7.8l-.2-.2c-2.9-2-6.2-3.8-9.3-5.4-.7-.3-1.4-.7-2.2-.9-.6-.2-.5-1.2.1-3.2.3-1.3 1-2.9 1.9-4.6h0c.4-.8 1-1.8 1.4-2.8.7-.8 2-.9 4.3-.1 3.9 1.1 7.3 2.6 10.7 4.8.5-.1.7.1 1 .3h0z" fill="url(#AD)"/><path d="M342.8 249.8c-10.5-25.6-30.3-47.2-54.9-59.7-24.6-12.6-53.8-16-80.6-9.4-25.8 6.3-48.5 21-72 33.3-8.8 4.6-18.1 8.9-27.5 12.2" fill="none" stroke="#c1272d" stroke-width="6" class="Ak"/><path d="M118 222.6l16.3 19.3-.7.6-37-8.4-37.7-2.3L94 218.1l32.6-19.3.8.3-9.4 23.5z" fill="#c1272d"/><path d="M380,226.2c-47.4-22.5-84.4-65.3-101.5-114.8" fill="none" stroke="#39b54a" stroke-width="6" class="Ak"/><path d="M282.1 121.7L264 139.4l-.6-.6 5.6-37.5-.5-37.7 16.3 34 21.7 31.1-.2.8-24.2-7.8z" fill="#39b54a"/><path d="M436.3 236.8l-.6 3.1h-2.5l2.9-13.5h3.1l2.6 13.5h-2.5l-.6-3.1h-2.4zm2.2-2l-.5-2.8-.4-3.1h-.1c-.1.9-.3 2.3-.5 3.1l-.5 2.8h2z" fill="#e4f411" class="Al"/><path d="M323.8 306.8c.8.3 1.7.8 2.7 1.4 1.1.7 2 1.5 2.4 2.6.3.9.1 1.8-.4 2.6-.6 1-1.8 1.7-3.2 1.4v.1c1.1 1.2 1.1 2.8.3 4-.6.9-1.4 1.5-2.3 1.7-1.1.3-2.6 0-4.5-1.2-.8-.5-1.5-1-2-1.4l7-11.2zm-3.9 11c.1.1.3.2.5.3.9.6 2 .5 2.7-.7.7-1.1.3-2.2-.6-2.8l-.5-.3-2.1 3.5zm3.2-5.1l.5.3c.8.5 1.8.2 2.4-.7.5-.8.5-1.7-.4-2.3-.2-.1-.5-.3-.6-.3l-1.9 3z" fill="#ead90f" class="Al"/><path d="M401 218.3l-7.6-1 5.2 5.6-5.9-4.9 1.4 7.5-2.3-7.3-2.9 7.1 2-7.4-6.3 4.4 5.7-5.1-7.7.2 7.6-1.2-6.6-3.9 7.1 3.1-3.5-6.9 4.3 6.4.8-7.7.1 7.7 4.8-6-4 6.6 7.3-2.4-7 3.3zm73.4-.4l-7.6-1 5.3 5.7-5.9-5 1.3 7.6-2.3-7.4-2.9 7.1 2-7.4-6.3 4.4 5.8-5.1-7.7.3 7.6-1.3-6.6-3.9 7 3.1-3.4-6.9 4.2 6.4.8-7.6.2 7.7 4.8-6-4.1 6.5 7.3-2.4-6.9 3.3zM340 272.5l-7.6-.9 5.2 5.6-5.9-5 1.4 7.6-2.3-7.3-3 7.1 2.1-7.4-6.3 4.3 5.7-5.1-7.7.3 7.6-1.2-6.6-3.9 7 3-3.4-6.8 4.3 6.4.8-7.7.1 7.7 4.8-6-4 6.6 7.3-2.5-7 3.3zm-41.9 62.6l-7.6-1 5.2 5.6-5.9-4.9 1.4 7.6-2.3-7.4-2.9 7.1 2-7.4-6.3 4.4 5.8-5.1-7.7.2 7.6-1.2-6.7-3.9 7.1 3.1-3.5-6.9 4.3 6.4.8-7.6.2 7.6 4.8-5.9-4.1 6.5 7.3-2.4-6.9 3.3z" fill="#f3ff00"/><defs ><path id="AF" d="M304.9 322.1c-.3-.2-.6-.2-1-.2-2.4.3-4.6 2.6-6.8 7-.1.4 0 .8.2 1.2 0 .5.3 1 .4 1.3l2.4 1.1c-1.3-1.4-1.6-2.6-1.3-3.4.7-2 1.8-3.6 3.2-4.9s2.4-1.5 3.3-.5c2.6 2.5 5.6 4.7 8.8 6.6l.2.2c2.9 2 6.2 3.8 9.5 5.2l.2.2 1.6-.2c-.1-.1-.1-.1-.3-.2-3.6-1.6-7-3.3-10.5-5.7l-.1-.1c-3.8-2.5-7-4.9-9.8-7.6z"/></defs></svg>