<svg xmlns="http://www.w3.org/2000/svg" xmlns:xlink="http://www.w3.org/1999/xlink" viewBox="0 0 500 500"><style><![CDATA[.Al{fill:#304048}.Am{fill:#3c4f58}.An{fill:#70150f}.Ao{fill:#e8e5d9}.Ap{fill:#6cb75a}.Aq{fill:#fbfaf9}.Ar{fill:#020203}.As{fill:#ed6e64}.At{fill:#3d5059}.Au{stroke-miterlimit:10}.Av{stroke-dasharray:41.8182,41.8182}]]></style><path d="M-.5-.5h500v501H-.5z" fill="#009245"/><path d="M0 0h392v500H0z" fill="#4d4d4d"/><g fill="none" class="Au"><g stroke="#fff" stroke-width="2"><path d="M329 0v501M10 0v500M226 0v20"/><path d="M226 61.8v397.3" class="Av"/><path d="M226 480v20M112 0v20"/><path d="M112 61.8v397.3" class="Av"/><path d="M112 480v20"/></g><path d="M392 0v500" stroke="#42210b" stroke-width="2"/></g><path d="M192.2 444.2c-17.6 3.5-35.7 3.4-53.5-.2-2.7-.6-4.8-2.9-4.8-5.9l.5-112.4c0-7.3 5.5-13.6 12.6-14.6 12.5-1.6 25.1-1.6 37.6.2 7.3 1.1 12.5 7.4 12.5 14.7l-.5 112.4c.4 2.9-1.7 5.2-4.4 5.8z" class="Ap"/><path d="M179.9 310.6c-9-1.1-18.2-1.1-27.2-.1l-.1 14.2 27.2.1.1-14.2z" fill="#231f20"/><path d="M184 318.4c-5.8-.9-11.7-1.3-17.8-1.3-5.9 0-11.9.4-17.8 1.2-3.6.6-6.3 3.5-6.3 7.3l-.6 118.9c15.9 3 32.2 3.1 48.1.2l.6-118.7c-.2-3.9-2.6-7-6.2-7.6z" class="Ap"/><path d="M184.2 359.9l-36.6-.2 5.8-37.4c8.4-1.4 16.9-1.4 25.3.1l5.5 37.5z" fill="#a1cd91"/><path d="M191.8 314c1.7 2.5 2.5 5.9 2.5 9.4l-.5 103.2c-8.4 2.9-17.8 4.5-28 4.5a85.58 85.58 0 0 1-28-4.7l.5-103.2c0-3.6 1.1-6.7 2.6-9.4-3.6 2.7-5.9 7.1-5.9 11.9l-.6 113.5c0 .2.2.6.2.8v.2c.2.2.2.6.2.6v.2c.2.2.2.6.4.6h0c.2.6.6 1 1.2 1.3h0c.2.2.4.2.6.6h0c.2.2.6.2.8.4h0c.2.2.6.2.8.2 17.5 3.6 35.7 3.7 53.5.2.2 0 .6-.2.8-.2h0c.2-.2.6-.2.8-.4h0c.2-.2.6-.2.6-.6h0c.4-.4.8-.8 1.3-1.2h0c.2-.2.2-.4.4-.6v-.2c.2-.2.2-.6.2-.6v-.2c.2-.2.2-.6.2-.8v-1l.5-112.4c.7-5.2-1.6-9.4-5.1-12.1z" class="Ap"/><path d="M143.4 411.6l-2.1 2.5c-1.7 1.9-4.6.8-4.6-1.7l.3-58.1 6.6 15.5-.2 41.8z" class="Al"/><path d="M139.5 413.4c-.4 0-1.3-.2-1.2-1.1l.2-51 3.5 8.6-.2 41.2-1.7 2.1c-.2.2-.4.2-.6.2z" class="Am"/><path d="M135.3 357.8l-4.2 2.3c-1.3.6-2.3 2.1-2.5 3.5l-.2 1.5 6.3-2.3 1.3-3.5 2.1-.8-.4-1.3-2.4.6z" class="Ap"/><path d="M134.3 362.2l-6.1 2.1-.2.8 6.5-2.5 1.3-3.5 2-.8v-.5l-2.3.9zm53.9 49.6l2.1 2.5c1.7 1.9 4.6.9 4.6-1.7l.3-58.1-6.8 15.4-.2 41.9z" class="Al"/><path d="M192.1 413.7c.4 0 1.3-.2 1.3-1l.2-51-3.6 8.6-.2 41.2 1.7 2.1c0 .1.2.1.6.1z" class="Am"/><path d="M196.8 358.1l4.2 2.3c1.3.6 2.3 2.1 2.5 3.6l.2 1.5-6.3-2.3-1.2-3.6-2.1-.8.4-1.3 2.3.6z" class="Ap"/><path d="M197.8 362.5l5.8 2.1.2.9-6.2-2.6-1.5-3.5-2-.9.2-.4 2.3.8z" class="Al"/><path d="M140.7 323.2s.2-6.5 9.9-6.6V313c0-.2-9.6-.1-9.9 10.2z" class="Aq"/><path d="M140.7 323.2s0-.2.2-.6c1.1-8.6 9.7-8.7 9.7-8.7v-1c0-.1-9.6 0-9.9 10.3z" class="Ao"/><path d="M149.8 312.8v2.9c-4.4.2-6.9 1.6-8.2 3.3-.4 1.3-.6 2.5-.9 4.4 0 0 .2-6.5 9.9-6.6v-3.6c0-.4-.2-.4-.8-.4z" class="Am"/><path d="M191.7 323.4s-.2-6.5-9.8-6.7v-3.6c0-.2 9.7.1 9.8 10.3z" class="Aq"/><path d="M191.7 323.4s0-.2-.2-.6c-1-8.6-9.6-8.8-9.6-8.8v-1c0-.1 9.7.2 9.8 10.4z" class="Ao"/><path d="M182.8 312.9v2.9c4.4.2 6.9 1.7 8.1 3.4.4 1.3.6 2.5.8 4.4 0 0-.2-6.5-9.8-6.7v-3.6c0-.4.2-.4.9-.4z" class="Am"/><path d="M154.3 316.1c7.9-.6 15.9-.6 23.6.1v-2.9c-7.9-.7-15.9-.7-23.6-.1v2.9z" fill="#8ac26e"/><path d="M186.3 369.1l-40.5-.2-5.4-11.7c-1.2-2.7.2-5.8 3.2-6.7 14.9-3.7 30.3-3.6 45.1.2 2.9.6 4.4 4 3.1 6.7l-5.5 11.7z" class="Al"/><path d="M146.6 367.7c-.8-1.9-2.9-6.5-5-10.7a3.65 3.65 0 0 1 0-2.9c.4-1 1.3-1.5 2.1-1.7 7.3-1.8 14.8-2.9 22.2-2.8 7.3 0 15 1.1 22.1 3 1 .2 1.7 1.1 2.1 1.7a3.65 3.65 0 0 1 0 2.9c-1.9 4.2-4 9-5.1 10.6l-38.4-.1z" class="Am"/><path d="M186.1 414.9l-40.5-.2s-.6.6-1.3 1.5c-3.4 3.5-1.3 9.4 3.5 10 12.1 1.9 24.4 2 36.6.2 4.8-.8 6.7-6.4 3.6-10-1.3-.9-1.9-1.5-1.9-1.5z" class="Al"/><path d="M165.7 426.3c-6.1 0-12.1-.7-18-1.5-1.7-.2-2.9-1.3-3.5-2.9-.6-1.7-.2-3.3 1.1-4.6.4-.4.6-.8 1-1l39.3.2 1 1c1.2 1.3 1.4 2.9 1 4.6-.6 1.7-1.9 2.7-3.6 2.9-6.1.7-12.4 1.3-18.3 1.3z" class="Am"/><path d="M196.8 440.2c-1-1-2.5-1.3-5 1.2s-10.2 1.6-10.9 4.3c3.8-.4 7.7-1 11.5-1.6 2.1-.3 3.8-2 4.4-3.9h0zm-62.3-.3c1-1 2.5-1.2 5 1.3s10.2 1.7 10.8 4.4c-3.8-.4-7.7-1.1-11.5-1.7-2-.4-3.6-2.1-4.3-4h0z" fill="#ef7b6f"/><path d="M153.3 442.5v3.6c8.1.9 16.3.9 24.4.1v-3.6c-8.1.9-16 .8-24.4-.1z" fill="#f1f2f2"/><linearGradient id="A" gradientUnits="userSpaceOnUse" x1="50.157" y1="144.637" x2="72.916" y2="144.875"><stop offset="0" stop-color="#5b5b5d"/><stop offset=".141" stop-color="#fff"/><stop offset=".894" stop-color="#a6a8aa"/><stop offset="1" stop-color="#fff"/></linearGradient><path d="M49.7 145.2a4.13 4.13 0 0 1-1.2.8c3.4-.8 6.8-1.2 10.2-1.1h3.1c4.1-.2 8.2.3 12.9 1.4a4.13 4.13 0 0 0-1.2-.8c-4.6-1.3-8.2-1.9-11.9-2.2h-.4c-3.2.2-7.1.8-11.5 1.9z" fill="url(#A)"/><linearGradient id="B" gradientUnits="userSpaceOnUse" x1="35.704" y1="144.565" x2="76" y2="186.512"><stop offset=".051" stop-color="#f2959a"/><stop offset=".894" stop-color="#911917"/><stop offset="1" stop-color="#ea506a"/></linearGradient><path d="M48.7 146a4.13 4.13 0 0 1 1.2-.8c1.2-.6 2.2-1.2 3.4-1.6 2.9-.8 5.6-1 8.3-.9h.4v-1.2h-.4l-9.2.9-4.9 3.2c-.5.2-.7.6-1.2 1s-1 1-1.5 1.2c-1.2 1.2-2.2 2.4-2.9 3.4-4.9 6.9-7.4 15.6-7.3 26.2v1c.3-.8.7-1.6 1.7-2.4v-.8c.1-7.3 1.9-14.7 5.3-21.6 2-3.1 4.4-5.7 7.1-7.6z" fill="url(#B)"/><linearGradient id="C" gradientUnits="userSpaceOnUse" x1="31.422" y1="141.32" x2="41.524" y2="176.065"><stop offset=".051" stop-color="#f2959a"/><stop offset=".781" stop-color="#911917"/></linearGradient><path d="M41.6 151.5l2.9-3.4-1.9.6c-2.4 1-4.6 2.2-6.8 3.8-2 8.1-3.1 17.3-3.2 27.1l1.5-2c.3-10.5 2.6-19.2 7.5-26.1z" fill="url(#C)"/><path d="M42.9 148.4l1.9-.6c.5-.4 1-1 1.5-1.2-.2.2-.7.2-1.2.2-1.5.4-2.2 1-2.2 1.6z" fill="#676767"/><linearGradient id="D" gradientUnits="userSpaceOnUse" x1="32.521" y1="151.081" x2="45.092" y2="151.213"><stop offset="0" stop-color="#5b5b5d"/><stop offset=".141" stop-color="#fff"/><stop offset=".894" stop-color="#a6a8aa"/><stop offset="1" stop-color="#fff"/></linearGradient><path d="M42.9 148.4c0-.6.7-1.2 2.2-1.6-3.2 1-6.1 2.2-8.8 4-1.5 1-2.9 2-3.9 3.4-.2.6 0 1 .2 1.2a18.82 18.82 0 0 1 2.9-3.2c2.7-1.6 5.2-3 7.4-3.8z" fill="url(#D)"/><path d="M45.1 146.8c.2-.2.7-.2 1.2-.2.2-.4.7-.6 1.2-1-3.4.6-6.8 2-10 3.8-2 1.2-3.4 2.4-4.7 3.8-.2.4-.3.8-.3 1.2 1.2-1.4 2.5-2.6 3.9-3.4 2.8-2 5.8-3.4 8.7-4.2z" fill="#fff"/><linearGradient id="E" gradientUnits="userSpaceOnUse" x1="41.117" y1="145.612" x2="43.015" y2="147.808"><stop offset=".051" stop-color="#f2959a"/><stop offset=".894" stop-color="#911917"/><stop offset="1" stop-color="#ea506a"/></linearGradient><path d="M47.5 145.4c1.5-1.2 2.9-2.2 4.9-3.2-4.1.8-8.3 2-12.2 3.7-3.2 1-5.6 2.8-6.9 5.6-.2.6-.3 1-.3 1.2 1.2-1.4 2.7-2.8 4.7-3.8 3-1.5 6.4-2.9 9.8-3.5z" fill="url(#E)"/><linearGradient id="F" gradientUnits="userSpaceOnUse" x1="49.677" y1="143.714" x2="73.354" y2="143.962"><stop offset="0" stop-color="#5b5b5d"/><stop offset=".141" stop-color="#808183"/><stop offset=".894" stop-color="#1b2326"/><stop offset="1" stop-color="#fff"/></linearGradient><path d="M53.1 143.4l-3.4 1.6c4.6-1.2 8.3-1.7 11.9-1.9h.4c3.4.2 7.3.9 11.9 2.2-1.2-.6-2.2-1.2-3.4-1.7-2.7-.8-5.3-1.1-8-1.1h-.6c-3.2 0-6.1.2-8.8.9z" fill="url(#F)"/><linearGradient id="G" gradientUnits="userSpaceOnUse" x1="65.589" y1="130.83" x2="92.393" y2="184.336"><stop offset="0" stop-color="#a41b25"/><stop offset=".141" stop-color="#f2959a"/><stop offset=".77" stop-color="#911917"/><stop offset="1" stop-color="#ef7c88"/></linearGradient><path d="M62.1 142.7c2.7-.2 5.3.3 8 1.1 1.2.6 2.4 1 3.4 1.7a4.13 4.13 0 0 0 1.2.8c2.6 2.1 5 4.7 7 8 3.3 7 4.9 14.5 4.9 22.3h0v.4c.7.6 1.2 1 1.4 1.6l.2.2c.4-10.6-1.7-19.6-6.8-26.8-1-1.2-1.9-2.5-2.9-3.5-.5-.4-1-1-1.4-1.2-.5-.2-.7-.6-1.2-1-1.4-1.2-3.1-2.3-4.8-3.3-2.9-.6-5.8-1.1-8.7-1.1l-.3.8z" fill="url(#G)"/><path d="M77.8 147.2c-.2-.2-.7-.2-1.2-.2.5.4 1 1 1.4 1.2.7.2 1.2.4 1.7.6.6-.6-.4-1.2-1.9-1.6z" fill="#676767"/><path d="M76.9 146.8c.2.2.7.2 1.2.2 3.1 1.1 6 2.3 8.7 4.2 1.4 1 2.9 2.1 3.8 3.5-.2-.4-.2-.8-.2-1.2-1.2-1.4-2.6-2.9-4.6-3.9-3.4-1.9-6.5-3.3-9.9-4 .3.5.5.9 1 1.2z" fill="#fff"/><linearGradient id="H" gradientUnits="userSpaceOnUse" x1="75.365" y1="145.507" x2="93.523" y2="157.92"><stop offset="0" stop-color="#5b5b5d"/><stop offset=".141" stop-color="#fff"/><stop offset=".894" stop-color="#a6a8aa"/><stop offset="1" stop-color="#fff"/></linearGradient><path d="M77.8 147.2c1.4.6 2.2 1 2.2 1.7 2.4 1 4.6 2.3 6.8 3.9 1 .8 1.9 1.9 2.9 3.3.2-.2.5-.6.3-1.2-1.2-1.4-2.4-2.7-3.8-3.5-2.3-1.9-5.2-3.4-8.4-4.2z" fill="url(#H)"/><linearGradient id="I" gradientUnits="userSpaceOnUse" x1="83.029" y1="145.016" x2="86.235" y2="185.183"><stop offset=".051" stop-color="#f2959a"/><stop offset=".73" stop-color="#911917"/><stop offset="1" stop-color="#c1444b"/></linearGradient><path d="M80 148.8c-.7-.2-1.2-.4-1.7-.6 1.2 1.2 1.9 2.5 2.9 3.5 4.8 7.2 7.1 16 6.8 26.8l1.4 1c.3-9.8-.5-18.6-2.6-26.7-2.2-1.7-4.4-3.1-6.8-4z" fill="url(#I)"/><linearGradient id="J" gradientUnits="userSpaceOnUse" x1="89.949" y1="152.573" x2="72.224" y2="143.644"><stop offset=".051" stop-color="#f2959a"/><stop offset=".894" stop-color="#911917"/><stop offset="1" stop-color="#ea506a"/></linearGradient><path d="M70.9 142.6c1.7 1 3.4 2.1 4.8 3.3 3.4.6 6.5 2.1 9.9 4 1.9 1.2 3.4 2.5 4.6 3.9-.2-.4-.2-.8-.2-1.2-1.2-2.9-3.3-4.9-6.7-5.8-4.2-2.1-8.3-3.5-12.4-4.2z" fill="url(#J)"/><radialGradient id="K" cx="-3905.241" cy="-365.822" r="100.936" gradientTransform="matrix(2.453702e-02 2.567991e-04 1.213626e-03 -0.1417 188.1849 115.7321)" gradientUnits="userSpaceOnUse"><stop offset=".051" stop-color="#f2959a"/><stop offset="1" stop-color="#911917"/></radialGradient><path d="M90.4 155.1c.2.6 0 1-.3 1.2-1-1.4-1.9-2.5-2.9-3.3 1.9 8 2.7 17 2.6 26.7 1.5-1 2.4-2 3.2-3.4h0c0-.2 0-.6.3-.8.8-5.7.6-10.6-.6-14.5-.2-1-.7-2.3-1.2-3.5-.7-.6-.9-1.4-1.1-2.4z" fill="url(#K)"/><linearGradient id="L" gradientUnits="userSpaceOnUse" x1="34.419" y1="185.574" x2="87.911" y2="186.133"><stop offset="0" stop-color="#5c5c5e"/><stop offset=".278" stop-color="#808183"/><stop offset="1" stop-color="#272626"/></linearGradient><path d="M63.5 171.5c.2.4 0 .6-.5 1-1.2.6-2.2 1-2.9 1.6h1.6c6.8-.1 13.1 1 19.6 3.1 3.4 1.1 5.3 2.5 5.5 3.9 0 1.4-.3 2.9-.3 4.3h0c-.3 3.3-.8 6.1-1.5 8.3-1 3.3-1.7 4.7-2.7 4.3-6.8-1.1-13.6-1.6-20.6-1.4h-.4c-5.6-.3-11.4.1-17 .6-.2.4-.3.8-.7 1 0 0-.2.2-.2.4-.5.2-1 .6-1.2 1.2 0 .2 0 .2-.2.2 6.3-.7 12.6-1.1 18.9-1h.4c6.6-.1 13.1.5 19.6 1.4h1.2c1.5 0 2.4-.8 2.7-2.4v-.2c1.3-4.9 2.5-10.6 3.6-16.9 0-.8.3-1.6.3-2.4 0-.2-.2-.6-.2-.8-.2-.6-.7-1-1.4-1.6-8.1-2.8-15.6-4.5-23.6-4.6z" fill="url(#L)"/><linearGradient id="M" gradientUnits="userSpaceOnUse" x1="34.418" y1="185.747" x2="87.909" y2="186.307"><stop offset="0" stop-color="#272626"/><stop offset=".467" stop-color="#808183"/><stop offset=".773" stop-color="#5c5c5e"/></linearGradient><path d="M63 172.3c.5-.2.7-.6.5-1H61c-8.7-.5-17.2 1-25.1 4.8a3.42 3.42 0 0 0-1.7 2.4c0 .8 0 1.6.2 2.4.9 6.3 1.8 12.1 3.2 17v.2c.2 1.6 1.2 2.3 2.6 2.5h1.2c.2 0 .5 0 .7-.2 0-.2 0-.2.2-.2.2-.6.7-1 1.2-1.2 0-.2 0-.2.2-.4.2-.4.7-.6.7-1-1.2.2-2.4.2-3.6.6-1 .2-1.7-1.2-2.6-4.3-.7-2-1.2-4.7-1.4-7.8h0c-.2-1.4-.2-3.3-.4-4.9.3-1.6 2-2.8 5.6-3.8 6.1-1.8 11.9-2.7 18.2-2.7.6-1.2 1.6-2 2.8-2.4z" fill="url(#M)"/><linearGradient id="N" gradientUnits="userSpaceOnUse" x1="29.913" y1="172.772" x2="87.94" y2="153.561"><stop offset="0" stop-color="#f4a198"/><stop offset=".421" stop-color="#bd3f44"/><stop offset="1" stop-color="#ec867f"/></linearGradient><path d="M81.4 154.1c-1.9-3.5-4.3-6.2-7-8-4.4-1.1-8.7-1.5-12.9-1.4h-3.1c-3.4 0-6.8.5-10.2 1.1-2.7 2-5.1 4.6-7.1 7.9-3.5 6.9-5.2 14.2-5.3 21.6v.8c7.8-3.6 16.3-5.3 25.1-4.8h2.5c8 .1 15.5 1.8 22.8 5.3v-.4c.2-7.5-1.7-14.9-4.8-22.1z" fill="url(#N)"/><linearGradient id="O" gradientUnits="userSpaceOnUse" x1="87.992" y1="182.57" x2="92.071" y2="182.613"><stop offset=".051" stop-color="#f2959a"/><stop offset="1" stop-color="#911917"/></linearGradient><path d="M92.3 180.8c0-1 0-2 .3-3.3l-2.9 2.2v2.9l.2 4.3 1 .2 1.7.6-.3-6.9z" fill="url(#O)"/><path d="M92.3 177.7c0-.6.3-1 .3-1.6a10.19 10.19 0 0 1-3.2 3.4v.2l2.9-2z" fill="#911915"/><path d="M87.7 178.3c.2.2.2.6.2.8 0-.2.1-.4-.2-.8h0z" class="An"/><linearGradient id="P" gradientUnits="userSpaceOnUse" x1="78.6" y1="220.836" x2="90.669" y2="220.962"><stop offset="0" stop-color="#911917"/><stop offset=".604" stop-color="#ed6a6f"/><stop offset="1" stop-color="#a41b25"/></linearGradient><path d="M88 178.5v.6c0 .8 0 1.6-.3 2.4-1 6.3-2.1 12-3.6 16.9v.2c-.3 1.6-1.2 2.2-2.7 2.4-1.4 13.9-1.5 28.7-1 44.7 2.9 2.5 3.8 7.4 2.8 15.1.7.2 1.2 1.2 1.2 2.5 2.7-4.7 4.2-11 4.3-18.5-1 .6-1.9 0-2.9-1.5-.2-.6-.5-1.2-.7-1.8l-.2-.6c-1.4-4.7-2.3-11-1.7-18.6v-3c.3-6.5.9-12.6 1.6-18.1l2-10 1.5-7.9v-3.1l-.3-1.7z" fill="url(#P)"/><path d="M90.5 187.3l-1-.2-.2-4.3-1.5 7.9 1.7-1.2-.3 25.3v4.4l-.2 25.2c-.7.2-1.5-.2-2.2-1.2-.2-.6-.7-1-1-1.8l.7 1.8c.7 1.4 1.7 2.1 2.9 1.5v-.6l.6-54.6c.2 1 1.2 1.6 2.4 2.1l3.9 1.3c.5.2.7 0 1-.4l-5.1-1.7c-1.2-.6-1.9-1.2-2.2-2.1l-1-.2.3-1 1.2-.2z" class="Ar"/><radialGradient id="Q" cx="141.324" cy="3116.505" r="154.867" gradientTransform="matrix(8.360297e-03 -1.294253e-02 -3.488927e-02 -1.600117e-02 201.2832 242.2453)" gradientUnits="userSpaceOnUse"><stop offset="0" stop-color="#f2959a"/><stop offset="1" stop-color="#a11c19"/></radialGradient><path d="M88.8 188.3l1 .2c.2.8 1 1.6 2.2 2.1l5.1 1.7v-.2c.3-1.4-.5-2.7-2.4-3.5l-2.4-.8-1.7-.6-.5.2-1.2-.2-.1 1.1z" fill="url(#Q)"/><path d="M85.9 185.6h0z" fill="#343434"/><linearGradient id="R" gradientUnits="userSpaceOnUse" x1="83.781" y1="203.93" x2="89.377" y2="203.989"><stop offset="0" stop-color="#808183"/><stop offset="1" stop-color="#5b5b5d"/></linearGradient><path d="M89.5 189.3l-1.7 1.2-2 10c-.8 5.5-1.3 11.4-1.6 18.1.2 0 .2-.2.2-.2h0c2-1.2 3.7-2.4 4.6-3.6h.2l.3-25.5z" fill="url(#R)"/><linearGradient id="S" gradientUnits="userSpaceOnUse" x1="87.782" y1="202.659" x2="91.86" y2="202.702"><stop offset=".051" stop-color="#f2959a"/><stop offset="1" stop-color="#911917"/></linearGradient><path d="M92.4 191.4c-1.4-.6-2.4-1.2-2.4-2.1l-.3 26.7c1.2-.2 1.9-.6 2.4-1.2v-.4l.3-23z" fill="url(#S)"/><linearGradient id="T" gradientUnits="userSpaceOnUse" x1="89.177" y1="217.253" x2="83.874" y2="217.198"><stop offset=".051" stop-color="#f2959a"/><stop offset=".239" stop-color="#af191a"/><stop offset="1" stop-color="#ed6a6b"/></linearGradient><path d="M89.3 216.2v-1.4h-.2c-1.2 1.2-2.9 2.4-4.6 3.6h0v1.2c1.8-.7 3.3-2 4.8-3.4z" fill="url(#T)"/><path d="M92.3 206.7l-.1 7.8c.7-.6 1-2 .8-4.3 0-2.1-.5-3.1-.7-3.5z" fill="#fff"/><path d="M92.2 215.4v-.4a5.45 5.45 0 0 1-2.4 1.2v.4c.9-.4 1.9-.7 2.4-1.2z" class="An"/><path d="M80.7 200.8h0c-.2.2-.2.2-.2.4-1.1 14.1-1.5 28.5-1.2 43.8h.5c.2.2.7.2 1 .4-.6-15.9-.4-30.8 1-44.7-.4.2-.6.2-1.1.1z" class="Ar"/><linearGradient id="U" gradientUnits="userSpaceOnUse" x1="89.155" y1="219.395" x2="83.851" y2="219.339"><stop offset=".051" stop-color="#f2959a"/><stop offset=".239" stop-color="#af191a"/><stop offset="1" stop-color="#ed6a6b"/></linearGradient><path d="M89.2 219.3v-2.4c-1.5 1.2-3.2 2.4-5.1 3.2v1.8c1.9-.4 3.4-1.4 5.1-2.6z" fill="url(#U)"/><path d="M84.1 219.6v-1.2l-.2.2v3c.2 0 .2 0 .2-.2v-1.8c1.9-.6 3.4-1.8 5.1-3.2v-.6c-1.4 1.8-2.9 3.1-5.1 3.8z" class="An"/><linearGradient id="V" gradientUnits="userSpaceOnUse" x1="83.491" y1="231.667" x2="89.086" y2="231.726"><stop offset="0" stop-color="#808183"/><stop offset="1" stop-color="#5b5b5d"/></linearGradient><path d="M84.1 221.9c-.2 0-.2 0-.2.2-.3 7.7.1 13.9 1.7 18.6l.2.6c.2.8.7 1.2 1 1.8.7 1 1.4 1.2 2.2 1.2l.3-25.3c-1.8 1.5-3.3 2.5-5.2 2.9z" fill="url(#V)"/><linearGradient id="W" gradientUnits="userSpaceOnUse" x1="87.499" y1="229.683" x2="91.577" y2="229.726"><stop offset=".051" stop-color="#f2959a"/><stop offset="1" stop-color="#911917"/></linearGradient><path d="M92.2 215.4c-.5.4-1.5.8-2.4 1.2l-.3 27.4c1.2-.4 2-1.2 2.9-2v-1.2c0-.8-.2-1.4-.2-2v-23.4z" fill="url(#W)"/><radialGradient id="X" cx="8642.991" cy="-167.081" r="353.671" gradientTransform="matrix(1.845358e-02 1.779395e-03 1.480710e-02 -0.1136 -120.8055 129.2316)" gradientUnits="userSpaceOnUse"><stop offset=".051" stop-color="#f2959a"/><stop offset="1" stop-color="#911917"/></radialGradient><path d="M32.8 155.7c-.2-.2-.5-.6-.2-1.2-.3 1-.7 1.8-1 2.4-.5 1.2-1 2.2-1.2 3.5-1.3 3.9-1.3 8.8-.9 14.5 0 .4.2 1 .2 1.4l2.9 3.3c-.1-10 .9-19 3.2-27.1-1 .5-1.7 1.6-3 3.2z" fill="url(#X)"/><path d="M29.7 176v.8l2.9 3.1v-.6l-2.9-3.3z" fill="#911915"/><linearGradient id="Y" gradientUnits="userSpaceOnUse" x1="32.629" y1="219.401" x2="45.532" y2="219.536"><stop offset="0" stop-color="#911917"/><stop offset=".604" stop-color="#f2959a"/><stop offset="1" stop-color="#a41b25"/></linearGradient><path d="M34.6 178.5v-1l-1.5 2v2.6l1.4 8 1.8 10c.7 5.5 1.1 11.4 1.3 18.2v3.2c.2 7.8-.4 13.9-2.1 18.5l-.2.6c-.2.6-.5 1.2-.7 1.8-.7 1.4-1.7 2-2.9 1.4.6 8 1.8 13.7 4.2 17.4.2-.6.7-1 1.2-1.2-.6-7.8.4-12.8 3.1-15.1.9-15.9 1.1-30.8 0-44.7-1.5 0-2.4-.8-2.6-2.5v-.2c-1.2-4.9-2.3-10.6-3.2-17 .1-.3.1-1.1.2-2z" fill="url(#Y)"/><linearGradient id="Z" gradientUnits="userSpaceOnUse" x1="29.372" y1="181.957" x2="32.175" y2="181.986"><stop offset=".051" stop-color="#f2959a"/><stop offset="1" stop-color="#911917"/></linearGradient><path d="M32.8 182v-2l-2.9-3.1c0 1 .2 2 .2 3.3l-.3 6.9 1.9-.6 1-.2.1-4.3z" fill="url(#Z)"/><radialGradient id="a" cx="1953.622" cy="5598.306" r="154.867" gradientTransform="matrix(7.036315e-03 1.049766e-02 2.601682e-02 -1.230452e-02 -131.0755 237.5344)" gradientUnits="userSpaceOnUse"><stop offset="0" stop-color="#f2959a"/><stop offset="1" stop-color="#a11c19"/></radialGradient><path d="M27.4 188c-2 .8-2.7 2-2.5 3.4v.2L30 190c1.2-.6 2-1.2 2.2-2l1-.2-.2-1-1.2.2-.5-.2-1.9.6-2 .6z" fill="url(#a)"/><path d="M25.2 191.5c.2.4.5.6 1 .4l3.9-1.2c1.5-.6 2.4-1.2 2.4-2l-.6 55.2c1 .6 1.9 0 2.9-1.4l.7-1.8c-.3.8-.7 1.2-1 1.8-.7 1-1.5 1.2-2.2 1.2l.3-25.3V214l.3-25.5 1.7 1.2-1.4-8-.3 4.3-1 .2.5.2 1.2-.2.2 1-1 .2c-.3.8-1 1.6-2.2 2l-5.4 2.1z" class="Ar"/><linearGradient id="b" gradientUnits="userSpaceOnUse" x1="2.505" y1="185.368" x2="84.639" y2="186.228"><stop offset=".278" stop-color="#a6a8aa"/><stop offset="1" stop-color="#565658"/></linearGradient><path d="M86.2 181.1c-.2-1.6-1.9-2.9-5.5-3.9-6.3-2.1-12.8-3.2-19.6-3.1h-1.6c-6.5-.1-12.5.9-18.4 2.7-3.4 1-5.4 2.4-5.6 3.8.2 1.6.2 3.3.4 4.9h0c.2 3.1.7 5.5 1.4 7.8.9 3.3 1.6 4.7 2.6 4.3l3.6-.6c5.6-.6 11.2-.9 17-.6h.4c6.8-.1 13.8.3 20.6 1.4 1 .2 1.7-1.2 2.7-4.3.8-2.2 1.3-5.1 1.5-8.3h-.2.2c.5-1 .5-2.5.5-4.1z" fill="url(#b)"/><linearGradient id="c" gradientUnits="userSpaceOnUse" x1="31.865" y1="203.387" x2="37.251" y2="203.443"><stop offset="0" stop-color="#808183"/><stop offset="1" stop-color="#5b5b5d"/></linearGradient><path d="M34.4 190l-1.7-1.2-.3 25.5h.2c1.2 1.2 2.9 2.5 4.6 3.7h0l.2.2c-.2-6.5-.6-12.7-1.3-18.2l-1.7-10z" fill="url(#c)"/><linearGradient id="d" gradientUnits="userSpaceOnUse" x1="29.16" y1="202.148" x2="31.964" y2="202.177"><stop offset=".051" stop-color="#f2959a"/><stop offset="1" stop-color="#911917"/></linearGradient><path d="M32.3 188.5c-.3 1-1.2 1.6-2.4 2l-.3 23.3v1c.7.6 1.7 1 2.4 1l.3-27.3z" fill="url(#d)"/><path d="M41.1 200.4h-1c1.1 13.9.9 28.8 0 44.7l1.5-.6v-1.2c.4-14.5.3-28.1-.3-41.6.1-.4.1-.9-.2-1.3h0z" class="Ar"/><path d="M29.3 213.8l.1-7.8c-.2.2-.7 1.4-.8 3.5 0 2.2.2 3.7.7 4.3z" fill="#fff"/><linearGradient id="e" gradientUnits="userSpaceOnUse" x1="32.098" y1="216.763" x2="37.401" y2="216.818"><stop offset=".051" stop-color="#f2959a"/><stop offset=".239" stop-color="#af191a"/><stop offset="1" stop-color="#ed6a6b"/></linearGradient><path d="M32.5 214.2h0l-.3 1.8c1.4 1.2 3.1 2.5 5.1 3.3v-1.2c-1.9-1.2-3.6-2.4-4.8-3.9z" fill="url(#e)"/><path d="M32 215.8c-1 0-1.7-.2-2.4-1v.4c.7.4 1.4.8 2.4 1v-.4zm5.8 3.8v-1.2c-.2 0-.2-.2-.2-.2v1.2c-1.7-.8-3.4-1.9-5.1-3.3v.6c1.4 1.2 3.1 2.5 5.1 3.3v1.6c.2 0 .2 0 .2.2v-2.2z" class="An"/><linearGradient id="f" gradientUnits="userSpaceOnUse" x1="37.693" y1="219.162" x2="32.39" y2="219.107"><stop offset=".051" stop-color="#f2959a"/><stop offset=".239" stop-color="#af191a"/><stop offset="1" stop-color="#ed6a6b"/></linearGradient><path d="M32.5 216.7v2c1.4 1.2 3.1 2.3 5.1 2.9V220c-2-1.1-3.7-2.1-5.1-3.3z" fill="url(#f)"/><linearGradient id="g" gradientUnits="userSpaceOnUse" x1="31.574" y1="231.15" x2="36.96" y2="231.206"><stop offset="0" stop-color="#808183"/><stop offset="1" stop-color="#5b5b5d"/></linearGradient><path d="M37.7 221.6c-.2 0-.2 0-.2-.2-1.9-.6-3.4-1.5-5.1-2.9l-.3 25.3c.7.2 1.5-.2 2.2-1.2.2-.6.7-1 1-1.8l.2-.6c1.6-4.9 2.4-11 2.2-18.6z" fill="url(#g)"/><linearGradient id="h" gradientUnits="userSpaceOnUse" x1="28.873" y1="229.579" x2="31.677" y2="229.609"><stop offset=".051" stop-color="#f2959a"/><stop offset="1" stop-color="#911917"/></linearGradient><path d="M32 216.5c-1-.2-1.7-.6-2.4-1l-.3 22.5c-.2.6-.3 1.2-.3 2v.8c.7 1.4 1.7 2.5 2.9 2.9l.1-27.2z" fill="url(#h)"/><linearGradient id="i" gradientUnits="userSpaceOnUse" x1="61.793" y1="260.14" x2="50.268" y2="237.244"><stop offset="0" stop-color="#808183"/><stop offset="1" stop-color="#272626"/></linearGradient><use xlink:href="#AF" fill="url(#i)"/><radialGradient id="j" cx="79.222" cy="228.216" r="27.243" gradientTransform="matrix(1.3482 1.410984e-02 1.185662e-02 -1.1329 -55.103 474.0379)" gradientUnits="userSpaceOnUse"><stop offset="0" stop-color="#f2958e"/><stop offset=".937" stop-color="#93191a"/></radialGradient><path d="M61 199.2h0c-6.6-.1-12.9.1-18.9 1-.2 0-.5.2-.7.2h0v1.2c.8 13.5.9 27.5.3 41.6v1.2c6.1 1.1 12.1 1.8 18.7 1.6h.2c6.6.3 12.6-.3 18.7-1.2-.3-15.1.1-29.8 1.2-43.8v-.4c-6.4-.8-12.7-1.3-19.5-1.4z" fill="url(#j)"/><radialGradient id="k" cx="190.817" cy="2100.174" r="154.867" gradientTransform="matrix(0.1573 1.646618e-03 1.383668e-03 -0.1322 23.4701 526.3601)" gradientUnits="userSpaceOnUse"><stop offset="0" stop-color="#808183"/><stop offset="1" stop-color="#5b5b5d"/></radialGradient><path d="M43.3 246.1c-1.9-.6-3.2.6-3.9 3.4-.8 2.8-.8 5.9-.1 9.2.2 1.4 1.9 2.7 4.6 3.5 15.1-2.7 26.3-7.9 33.2-16-5.6 1-11.4 1.3-17 1h-.4c-5 .7-10.6 0-16.4-1.1z" fill="url(#k)"/><path d="M29 240.7v.4c.7 1.4 1.7 2.5 2.9 2.9v-.4c-1.2-.4-2.1-1.5-2.9-2.9z" class="An"/><linearGradient id="l" gradientUnits="userSpaceOnUse" x1="28.649" y1="250.892" x2="31.453" y2="250.922"><stop offset=".051" stop-color="#f2959a"/><stop offset="1" stop-color="#911917"/></linearGradient><path d="M31.7 244.2c-1.2-.6-1.9-1.4-2.9-2.9-.3 6.5.3 13.1 1.3 19.2-.2-5.9.1-11.2 1.6-16.3z" fill="url(#l)"/><radialGradient id="m" cx="5958.183" cy="2134.41" r="154.867" gradientTransform="matrix(3.878429e-02 -8.318544e-03 -4.264042e-02 -0.1386 -104.2035 610.6795)" gradientUnits="userSpaceOnUse"><stop offset=".051" stop-color="#f2959a"/><stop offset="1" stop-color="#911917"/></radialGradient><path d="M35.6 262.6c0-.4.3-.8.3-1.2-2.4-3.7-3.8-9.6-4.2-17.4a40.84 40.84 0 0 0-1.4 16.5c0 .4.2.8.2 1.2.2 1.8.7 3.7 1.2 5.5h0v.2c.7 3.5 2.4 6.1 5 7.8h0c-.5-2-.7-4.7-.9-7.4 0-1.5 0-3.4-.2-5.2z" fill="url(#m)"/><path d="M35.9 261.4c-.2.4-.3.8-.3 1.2l.2 5.3c2.1 3.7 4.1 5.8 6 6.2l4.1 1.1 4.6 1.1c-10.2-2.1-15-6.7-14.4-13.2 0-1 .7-1.4 1.5-1.2-.5-.4-.7-1-1.2-1.4.2-.1-.3.3-.5.9z" class="An"/><linearGradient id="n" gradientUnits="userSpaceOnUse" x1="36.384" y1="269.103" x2="84.827" y2="269.61"><stop offset="0" stop-color="#ea4e52"/><stop offset=".886" stop-color="#911917"/><stop offset="1" stop-color="#f2959a"/></linearGradient><path d="M38.1 261.6c-1-.2-1.5.4-1.5 1.2-.8 6.5 4 11.1 14.4 13.2 3.1.6 6.1.9 9.2.9h.2c4.6 0 9.5-.5 14.6-1.5h.2c1.2-.2 1.9-.6 3.2-.8 1.9-.4 3.9-2.4 6.1-6.1h0v-.2c0-.6 0-1.2.3-1.6v-.2c-.2-2-.7-2.9-1.7-2.5-2.4 2-5.6 3.4-9.5 4.2-8.3 1.7-16.8 1.9-25 .1-3.4-.6-6-2.1-7.2-4.4-.5-.2-1.2-.6-1.4-.8-1-.5-1.5-.9-1.9-1.5z" fill="url(#n)"/><path d="M31.7 267.4h0c-.3 2.4.2 4.1.9 5.1s1.9 1.9 4.1 2.9c-2.7-1.8-4.3-4.5-5-8z" fill="#f59d1e"/><linearGradient id="o" gradientUnits="userSpaceOnUse" x1="35.841" y1="274.625" x2="84.5" y2="275.134"><stop offset=".051" stop-color="#f2959a"/><stop offset=".239" stop-color="#b31d1a"/><stop offset=".944" stop-color="#f2959a"/><stop offset="1" stop-color="#e6696d"/></linearGradient><path d="M36.7 275.2v.4c.7 1.4 1.7 2.5 3.4 2.9 6.5 1.9 13.1 3 19.9 3.1h.4c2.4 0 4.6-.2 6.8-.3-9.2.1-15.8-.4-19.6-2-1.4-.6-1.9-2.1-1.4-4.1-1.5-.2-2.7-.6-4.1-1.1-1.9-.4-3.9-2.5-6-6.2-.1 2.9.1 5.3.6 7.3z" fill="url(#o)"/><linearGradient id="p" gradientUnits="userSpaceOnUse" x1="68.84" y1="270.501" x2="61.002" y2="251.692"><stop offset="0" stop-color="#272626"/><stop offset="1" stop-color="#5b5b5d"/></linearGradient><path d="M44.1 262.5c-.7.2-1.9.2-4.1.6.5.2 1 .6 1.4.8 3.9 1.9 10.2 3 18.9 3.5h.4c13.1-.1 20.7-2.2 23.4-6.7.8-7.7-.1-12.9-2.8-15.1a1.78 1.78 0 0 0-1-.4l-2 1.6c1.7-.4 2.9.8 3.6 3.5.7 2.9.7 5.9-.1 9.2s-7.8 5-20.9 5.1h-.4c-7.7-.4-13-1.1-16.4-2.1z" fill="url(#p)"/><linearGradient id="q" gradientUnits="userSpaceOnUse" x1="36.39" y1="264.883" x2="84.833" y2="265.39"><stop offset="0" stop-color="#ea555a"/><stop offset="1" stop-color="#911917"/></linearGradient><path d="M41.2 264.1c1.4 2.5 3.8 3.9 7.2 4.4 8.2 1.7 16.7 1.6 25-.1 3.9-1 7.1-2.4 9.5-4.2.7-.4 1.5.4 1.7 2.5 0-1 0-2 .3-3.3-.2-1.2-.7-2-1.2-2.5-2.5 4.3-10 6.4-23.4 6.7h-.4c-8.3-.6-14.6-1.6-18.7-3.5z" fill="url(#q)"/><linearGradient id="r" gradientUnits="userSpaceOnUse" x1="35.828" y1="278.218" x2="84.487" y2="278.727"><stop offset=".051" stop-color="#e6a890"/><stop offset=".2" stop-color="#911917"/><stop offset=".773" stop-color="#911917"/><stop offset=".949" stop-color="#e6a890"/><stop offset="1" stop-color="#c68b73"/></linearGradient><path d="M46.2 275.3c-.5 2 0 3.3 1.4 4.1 3.9 1.7 10.4 2.1 19.6 2 3.4-.4 6.8-.9 10-1.5-2.4.4-4.1.4-5.6-.1-.5-1-.5-2 0-3.1.7-.6 2-1 3.2-1.2-4.9 1.2-9.7 1.5-14.6 1.5H60c-2.9 0-6.1-.3-9.2-.9-1.7-.3-3.2-.5-4.6-.8z" fill="url(#r)"/><path d="M92.1 242.6v-.6c-.7 1-1.7 1.6-2.9 2v.8c1.2-.6 2.2-1.4 2.9-2.2z" class="An"/><radialGradient id="s" cx="-6468.366" cy="2478.769" r="327.992" gradientTransform="matrix(2.503480e-02 4.227669e-03 2.722703e-02 -0.1151 179.0708 564.8281)" gradientUnits="userSpaceOnUse"><stop offset=".118" stop-color="#f2959a"/><stop offset=".955" stop-color="#911917"/></radialGradient><path d="M91.3 257.5c0-.2 0-.2 0 0 .8-4.9 1.1-9.8 1.1-14.9-.7 1-1.7 1.6-2.9 2.2-.3 7.5-1.6 13.6-4.3 18.5 0 1 0 2-.3 3.3v.2c0 .6 0 1.2-.3 1.6v.2c0 2 .2 3.3.9 3.5s2.5-4.7 5.8-14.6z" fill="url(#s)"/><radialGradient id="t" cx="190.817" cy="2100.174" r="154.867" gradientTransform="matrix(0.1573 1.646618e-03 1.383668e-03 -0.1322 23.4701 526.3601)" gradientUnits="userSpaceOnUse"><stop offset=".239" stop-color="#808183"/><stop offset="1" stop-color="#5b5b5d"/></radialGradient><path d="M77.5 246.5h0c-7.4 8.1-18.3 13.3-33.4 16 3.4 1.1 8.7 1.7 16 1.8h.4c13.1-.1 20.2-1.8 20.9-5.1.8-3.3.8-6.3.1-9.2s-1.9-3.9-3.6-3.5h-.4z" fill="url(#t)"/><linearGradient id="u" gradientUnits="userSpaceOnUse" x1="31.081" y1="273.708" x2="84.603" y2="274.268"><stop offset=".051" stop-color="#f2959a"/><stop offset=".255" stop-color="#911917"/><stop offset=".71" stop-color="#a41b25"/><stop offset=".949" stop-color="#f2959a"/><stop offset=".994" stop-color="#ee767b"/></linearGradient><path d="M71.6 279.7c1.2.4 3.2.4 5.6.1 1-.2 1.9-.6 2.9-.8 1.5-.4 2.4-1.2 3.4-2.8v-.4c.5-2 .8-4.7 1-7.3-2.2 3.6-4.2 5.7-6.1 6.1-1.2.2-2.2.6-3.2.8h0-.2c-1.2.2-2.4.8-3.2 1.2-.7 1-.7 1.9-.2 3.1z" fill="url(#u)"/><radialGradient id="v" cx="-6552.563" cy="2685.072" r="150.962" gradientTransform="matrix(2.503480e-02 4.227669e-03 2.722703e-02 -0.1151 180.0769 597.5271)" gradientUnits="userSpaceOnUse"><stop offset=".282" stop-color="#eb5b5a"/><stop offset="1" stop-color="#911917"/></radialGradient><path d="M88.7 267.8h0c1-3.5 1.5-6.9 2.1-10.6-3 10-4.8 14.8-5.5 14.4-.7-.2-1-1.2-.9-3.5-.3 2.9-.5 5.3-1 7.3 2.8-1.3 4.6-3.9 5.3-7.6h0z" fill="url(#v)"/><linearGradient id="w" gradientUnits="userSpaceOnUse" x1="89.731" y1="204.006" x2="82.671" y2="203.932"><stop offset="0" stop-color="#272626"/><stop offset="1" stop-color="#808183"/></linearGradient><path d="M89.5 189.3l-1.7 1.2-2 10c-.8 5.5-1.3 11.4-1.6 18.1 2.2-1.2 3.9-2.4 5.1-3.8h0l.2-25.5z" fill="url(#w)"/><linearGradient id="x" gradientUnits="userSpaceOnUse" x1="89.439" y1="231.845" x2="82.379" y2="231.771"><stop offset="0" stop-color="#272626"/><stop offset="1" stop-color="#808183"/></linearGradient><path d="M89.2 219.3c-1.5 1.4-3.4 2.4-5.4 2.8-.3 7.7.1 13.9 1.7 18.6l.2.6c.2.8.7 1.2 1 1.8.7 1 1.4 1.2 2.2 1.2l.3-25z" fill="url(#x)"/><linearGradient id="y" gradientUnits="userSpaceOnUse" x1="37.643" y1="203.461" x2="31.357" y2="203.395"><stop offset="0" stop-color="#272626"/><stop offset="1" stop-color="#808183"/></linearGradient><path d="M34.4 190l-1.7-1.2-.3 25.5h.2c1.2 1.2 2.9 2.7 5.1 3.9-.2-6.5-.6-12.7-1.3-18.2l-2-10z" fill="url(#y)"/><linearGradient id="z" gradientUnits="userSpaceOnUse" x1="37.352" y1="231.325" x2="31.065" y2="231.26"><stop offset="0" stop-color="#272626"/><stop offset="1" stop-color="#808183"/></linearGradient><path d="M37.7 221.6c-1.9-.6-3.9-1.5-5.3-2.9l-.3 25.1c.7.2 1.5-.2 2.2-1.2.2-.6.7-1 1-1.8l.2-.6c1.6-4.9 2.4-11 2.2-18.6z" fill="url(#z)"/><linearGradient id="AA" gradientUnits="userSpaceOnUse" x1="41.148" y1="236.94" x2="88.944" y2="276.772"><stop offset="0" stop-color="#272626"/><stop offset="1" stop-color="#808183"/></linearGradient><use xlink:href="#AF" fill="url(#AA)"/><linearGradient id="AB" gradientUnits="userSpaceOnUse" x1="79.127" y1="271.297" x2="26.259" y2="227.967"><stop offset="0" stop-color="#030405"/><stop offset="1" stop-color="#808183"/></linearGradient><path d="M40 263c.5.2 1 .6 1.4.8 3.9 1.9 10.2 3 18.9 3.5h.4c13.1-.1 20.7-2.2 23.4-6.7.8-7.7-.1-12.9-2.8-15.1a1.78 1.78 0 0 0-1-.4l-2 1.6c1.7-.4 2.9.8 3.6 3.5.7 2.9.7 5.9-.1 9.2s-7.8 5-20.9 5.1h-.4c-7.3-.3-12.6-.7-16-1.8-.9-.2-2.3.2-4.5.3z" fill="url(#AB)"/><radialGradient id="AC" cx="79.255" cy="198.546" r="18.837" gradientTransform="matrix(1.3482 1.410984e-02 1.185662e-02 -1.1329 -55.103 474.0379)" gradientUnits="userSpaceOnUse"><stop offset="0" stop-color="#808183"/><stop offset="1" stop-color="#293237"/></radialGradient><path d="M81.4 250.2c-.7-2.9-1.9-3.9-3.6-3.5h-.4c-5.6 1-11.4 1.3-17 1H60c-5.6.1-11.4-.3-17.2-1.4-1.9-.6-3.2.6-3.9 3.4-.8 2.8-.8 5.9-.1 9.2.2 1.4 1.9 2.7 4.6 3.5 3.4 1.1 8.7 1.7 16 1.8h.4c13.1-.1 20.2-1.8 20.9-5.1 1.3-3 1.4-6 .7-8.9z" fill="url(#AC)"/><linearGradient id="AD" gradientUnits="userSpaceOnUse" x1="51.16" y1="206.758" x2="68.896" y2="169.868"><stop offset="0" stop-color="#363639"/><stop offset=".264" stop-color="#040506"/><stop offset=".438" stop-color="#555659"/><stop offset="1" stop-color="#030405"/></linearGradient><path d="M63.5 171.5h0-2.3c-8.7-.5-17.2 1-25.1 4.8a3.42 3.42 0 0 0-1.7 2.4c0 .8 0 1.6.2 2.4.9 6.3 1.8 12.1 3.2 17v.2c.2 1.6 1.2 2.3 2.6 2.5h1.2c.2 0 .5 0 .7-.2 6.3-.7 12.6-1.1 18.9-1h.4c6.6-.1 13.1.5 19.6 1.4h1.2c1.5 0 2.4-.8 2.7-2.4v-.2c1.3-4.9 2.5-10.6 3.6-16.9 0-.8.3-1.6.3-2.4 0-.2-.2-.6-.2-.8-.2-.6-.7-1-1.4-1.6-8.4-3.4-15.9-5.1-23.9-5.2zm-2.2 2.6h0c6.8-.1 13.3 1 19.6 3.1 3.4 1.1 5.3 2.5 5.5 3.9 0 1.4-.3 2.9-.3 4.3h0c-.3 3.3-.8 6.1-1.5 8.3-1 3.3-1.7 4.7-2.7 4.3-6.8-1.1-13.6-1.6-20.6-1.4h-.4c-5.6-.3-11.4.1-17 .6-1.2.2-2.4.2-3.6.6-1 .2-1.7-1.2-2.6-4.3-.7-2-1.2-4.7-1.4-7.8h0c-.2-1.4-.2-3.3-.4-4.9.3-1.6 2-2.8 5.6-3.8 6.1-1.8 11.9-2.7 18.2-2.7.6-.2 1.1-.2 1.6-.2h0z" fill="url(#AD)"/><g fill="#f3ff00"><use xlink:href="#AG"/><use xlink:href="#AG" x="-2" y="117"/></g><path d="M391.6 411.7c0-10.2 3.7-9.9 4-10.5.2-6.6-2.9-5.5-2.4-2.5.5-1.2 4.5-9.4 5.2-9 .7-1.1-1.7-6.6-.7 0 1-10.9 5-10.4 6.2-11.9 1.2 3.4-.3.5 1-6.2 1.3 1.2 5.1 1.6 6.7 1.3 1.5 5.2 1.1-6.1 2.7-4 1.6-4.2 4.9 2 6.7-2.7 1.7 5.9 2.4 2.2 4.2-5.1 1.8 1.7 4.4 9 6.3.5 1.9 4.8 3.5-1.5 5.5-2.3 1.9 1.6 3.6 10.1 5.5 10.8 1.9-3.4 4.5-7.6 6.3-2.9 1.8.2 2.5 4.3 4.2-3 1.8 1.3 5.1 4 6.7 7.3 1.6-5.8 1.2-1.8 2.7 6.3 1.5-1.8 5.3-3.3 6.7 1.7 1.3-7.1-.1-2.2 1 7.4 1.2 1.1 5.2-3 6.2 3 .9-3.9-1.4-2.4-.7-3.4.7 6.3 4.7 9.6 5.2 14.3.5.5-2.7-1.8-2.4 5 .2-7.6 4-.6 4-1.2 0 6.1-3.7 11-4 5.5-.2 1.7 2.9 7.1 2.4 12.3-.5-1.9-4.5 3.1-5.2-2.2-.7.3 1.7 4.3.7 6.6-1 4.4-5 3.9-6.2 9.8-1.2-6 .3 2.4-1-.6-1.3 8.4-5.1.3-6.7 9.7-1.5.1-1.1-.7-2.7-2.9-1.6 3.3-4.9 3.2-6.7 1.8-1.7 1.1-2.4 4.3-4.2 5.2-1.8-.9-4.4 1.7-6.3-4.9-1.9 5.9-3.5 11.7-5.5 4.1-1.9 9-3.6.8-5.5-3.1-1.9 5.9-4.5 7.3-6.3 8.5-1.8-2.3-2.5-9.8-4.2-5.9-1.8-5.8-5.1.8-6.7-1.9-1.6-4.5-1.2-2.1-2.7-2.4-1.5-10.4-5.3-6.9-6.7-8.2-1.3-.3.1-3.1-1-7.4-1.2 3-5.2 1.1-6.2.3-.9-2.3 1.4-4.3.7-10-.7-2.1-4.7-2.8-5.2-5.2-.5 7.2 2.7 4.3 2.4.6-.3 1.4-4-3-4-2.6z" fill="#185e37"/><path d="M414.2 435.2s5.4 6.8 11.3 5.6c5.9-1.1 2.5-1.9 10.2-2.8s1.6 6.3 10.6 0 11.5-2.1 11.5-8.7-1.1-6.6 2.7-11.3-.5-5.6-2.3-13.8c-1.8-8.1 4.7-16.5-.9-22.1s-16.7-4.7-20.3-7-4.7-12.4-13.8-4.1c-9 8.4-18.4 9.4-18.1 16.2s-2.7 5.1-4.1 10.4-1.7 9-.8 11.1 3.6 9 4.8 10.8c1.4 2 2.1 15.4 9.2 15.7z" fill="#006837"/><path d="M432.1 247.6c10.2 0 9.9 3.7 10.5 3.9 6.6.2 5.5-2.9 2.5-2.4 1.2.5 9.4 4.5 9 5.2 1.1.7 6.6-1.7 0-.7 10.9.9 10.4 5 11.9 6.1-3.4 1.2-.5-.3 6.2 1-1.2 1.3-1.6 5.2-1.3 6.7-5.2 1.5 6.1 1.1 4 2.7 4.2 1.6-2 4.9 2.7 6.7-5.9 1.8-2.2 2.4 5.1 4.2-1.7 1.8-9 4.4-.5 6.3-4.7 1.9 1.5 3.5 2.3 5.4-1.6 1.9-10 3.6-10.8 5.5 3.4 1.9 7.6 4.4 2.9 6.3-.2 1.9-4.3 2.5 3.1 4.2-1.3 1.8-3.9 5.1-7.2 6.7 5.9 1.6 1.8 1.2-6.3 2.8 1.8 1.5 3.4 5.3-1.7 6.7 7.1 1.3 2.2-.1-7.4 1.1-1.1 1.2 3 5.2-2.9 6.2 3.9.9 2.4-1.4 3.4-.7-6.3.7-9.6 4.8-14.3 5.3-.5.5 1.8-2.7-5-2.4 7.6.2.6 4 1.2 4-6.1 0-11.1-3.7-5.5-3.9-1.7-.2-7.1 2.9-12.3 2.5 1.9-.5-3.2-4.5 2.2-5.3-.3-.7-4.3 1.7-6.6.7-4.4-.9-3.9-5-9.8-6.1 6-1.2-2.4.3.6-1.1-8.4-1.3-.3-5.1-9.7-6.6-.2-1.5.7-1.1 2.9-2.7-3.3-1.6-3.3-4.9-1.8-6.7-1.1-1.7-6.5-.2-7.3-2 .9-1.8.4-6.5 7-8.5-5.9-1.8-11.7-3.5-4.2-5.4-9-1.9-.8-3.6 3.1-5.5-5.9-1.9-10.7-4.8-11.9-6.6 2.3-1.9 13.1-2.2 9.2-3.9 5.8-1.8-.8-5.1 1.9-6.7 4.5-1.7 2.1-1.2 2.4-2.7 10.4-1.5 6.9-5.3 8.1-6.7.3-1.3 5.1 3.2 9.4 2-3-1.1-3.1-8.3-2.3-9.3 2.3-1 4.3 1.4 10 .7 2.1-.7 2.7-4.8 5.2-5.3-7.2-.5-4.3 2.7-.6 2.4-1.5-.4 2.9-4.1 2.6-4.1z" fill="#216d37"/><path d="M409.6 276.3s-6.8 5.4-5.6 11.3 1.9 2.5 2.8 10.1c.9 7.7-6.3 1.6 0 10.6s2.2 11.5 8.8 11.5 6.6-1.2 11.3 2.7c4.8 3.8 5.6-.5 13.8-2.3 8.1-1.8 16.5 4.7 22.1-1s4.7-16.7 6.9-20.4c2.2-3.6 12.4-4.8 4-13.8s-9.5-18.3-16.3-18-5.1-2.7-10.4-4-11-6.9-13.1-6-7.1 8.9-8.9 10.2c-1.7 1.2-15.1 2-15.4 9.1z" fill="#28783c"/><path d="M252.1 94.4V61.2l-1.4-14.3V31.3c0-6.9 4.2-12.9 9.8-13.9a90.17 90.17 0 0 1 14.7-1.2c4.9 0 9.8.4 14.7 1.2 5.6 1 9.8 6.9 9.8 13.9v15.6l-1.4 14.3v33.2l3.2 16.5v21.4c0 2.6-1.5 5-3.7 5.5-7.1 1.8-14.9 2.6-22.6 2.5-7.7.1-15.5-.7-22.6-2.5-2.2-.5-3.7-2.9-3.7-5.5v-21.4l3.2-16.5z" class="As"/><path d="M296.2 27.1l-1.8-3.5c-.6-1.2-1.5-1.9-2.5-2.2l-6-1.6c-.6-.1-1.2.7-.8 1.4l.7 1.8 10.4 4.1z" fill="#fcfbfa"/><path d="M292.8 23.9c-.6-1.2-1.5-1.9-2.5-2.2l-5.2-1.4c.1-.3.5-.5.8-.5l6 1.6c1 .3 1.9 1 2.5 2.2l1.8 3.5-2.2-.7-1.2-2.5z" class="Ao"/><path d="M254.2 27.1l1.8-3.5c.6-1.2 1.5-1.9 2.5-2.2l6-1.6c.6-.1 1.2.7.8 1.4l-.7 1.8-10.4 4.1z" fill="#fcfbfa"/><path d="M257.6 23.9c.6-1.2 1.5-1.9 2.5-2.2l5.2-1.4c-.1-.3-.5-.5-.8-.5l-6 1.6c-1 .3-1.9 1-2.5 2.2l-1.8 3.5 2.2-.7 1.2-2.5z" class="Ao"/><path d="M260.6 103.1h29.3l4.1 9c.7 1.6.1 3.7-1.4 4.1-11.3 3.2-23.4 3.2-34.8 0-1.4-.4-2.1-2.5-1.4-4.1l4.2-9z" fill="#343844"/><path d="M275.2 117.3c5.8 0 11.6-.8 17.2-2.4.3-.1.6-.4.7-.8s.1-.9-.1-1.3l-3.8-8.4h-28.1l-3.8 8.4c-.1.4-.2.9-.1 1.3s.4.7.7.8c5.7 1.6 11.5 2.4 17.3 2.4z" class="At"/><path d="M260.6 66.9h29.3l4.6-12.8c.5-1.6-.1-3.4-1.4-3.9-11.7-4.3-24.1-4.3-35.7 0-1.2.5-1.8 2.3-1.4 3.9l4.6 12.8zm35.6-14v56.8l-4.9-7.9V67.5z" class="Al"/><path d="M295.1 59.7l-2.7 8.1v33.4l2.7 4.5z" class="At"/><path d="M254.2 52.9v56.8l4.9-7.9V67.5z" class="Al"/><path d="M258 101.2V67.8l-2.7-8.1v46z" class="At"/><path d="M296.8 58.4l3.1 2.2c1 .7 1.6 1.9 1.8 3.3l.2 1.4-4.6-2.2-1-3.5-1.6-.7.3-1.2 1.8.7z" class="As"/><path d="M297.6 62.6l4.3 2.1.1.6-4.6-2.2-.9-3.5-1.6-.8.1-.5 1.6.8z" class="Al"/><path d="M253.6 58.4l-3.1 2.2c-1 .7-1.6 1.9-1.8 3.3l-.2 1.4 4.6-2.2 1-3.5 1.6-.7-.3-1.2-1.8.7z" class="As"/><path d="M252.8 62.6l-4.3 2.1-.1.6 4.6-2.2.9-3.5 1.6-.8-.2-.5-1.5.8z" class="Al"/><g fill="#ff931e"><path d="M297 361.2a97.88 97.88 0 0 1-47.5 0c-2.4-.6-4.2-3.2-4.2-6.2V233.9c0-7.9 4.8-14.7 11.2-15.7a98.57 98.57 0 0 1 33.4 0c6.4 1.1 11.2 7.9 11.2 15.7V355c.1 2.9-1.6 5.6-4.1 6.2z"/><path d="M285.3,217.4c-8-1-16.1-1-24.1,0v15.3h24.1V217.4z"/><path d="M289 225.9c-5.2-.9-10.5-1.3-15.8-1.3s-10.6.5-15.8 1.3c-3.2.5-5.6 3.9-5.6 7.9v127.9a99.19 99.19 0 0 0 42.7 0V233.8c.2-3.9-2.2-7.3-5.5-7.9z"/><path d="M289.6 270.6H257l5-40.3c7.6-1.5 15-1.5 22.5 0l5.1 40.3zm6.4-49.5c1.5 2.8 2.4 6.2 2.4 10v111.2c-7.5 3.2-16 5-24.9 5-9 0-17.5-1.8-24.9-5V231c0-3.7.9-7.2 2.4-10-3.2 2.9-5.3 7.6-5.3 12.8v121.1c0 .3 0 .6.1.9v.1c.1.3.1.5.2.8 0 .1 0 .1.1.2.1.3.2.5.2.8 0 0 0 .1.1.1.2.2.2.5.4.8h0c.3.5.6 1 1.1 1.4h0c.2.2.4.4.6.5h0c.2.2.5.3.7.4h0c.2.1.5.2.8.3a97.88 97.88 0 0 0 47.5 0c.2-.1.5-.2.8-.3h0c.2-.1.5-.2.7-.4h0c.2-.2.5-.3.6-.5h0c.4-.4.8-.8 1.1-1.4h0c.2-.2.2-.5.4-.8 0 0 0-.1.1-.1.2-.2.2-.5.2-.8 0-.1 0-.1.1-.2.1-.3.2-.5.2-.8v-.1c.1-.3.1-.6.1-.9V233.8c-.6-5.2-2.7-9.8-5.8-12.7z"/></g><path d="M253.4 326.5l-1.8 2.6c-1.4 2-4.1.8-4.1-1.8v-62.6l5.9 16.6v45.2z" class="Al"/><path d="M249.8 328.5c-.4 0-1-.3-1-1.2v-54.9l3.2 9.2v44.2l-1.5 2.2c0 .4-.4.5-.7.5z" class="Am"/><g class="Al"><path d="M246 268.5l-3.8 2.5c-1.2.8-2 2.2-2.3 3.7l-.3 1.6 5.6-2.5 1.2-3.9 2-.8-.5-1.4-1.9.8z"/><path d="M245.1 273.3l-5.4 2.4-.1.7 5.7-2.6 1.1-4 2-.8-.2-.6-2 .9zm48.1 53.2l1.8 2.6c1.4 2 4.1.8 4.1-1.8v-62.6l-5.9 16.6v45.2z"/></g><path d="M296.7 328.5c.4 0 1-.3 1-1.2v-54.9l-3.2 9.2v44.2l1.5 2.2c.2.4.4.5.7.5z" class="Am"/><g class="Al"><path d="M300.6 268.5l3.8 2.5c1.2.8 2 2.2 2.3 3.7l.3 1.6-5.6-2.5-1.2-3.9-2-.8.5-1.4 1.9.8z"/><path d="M301.5 273.3l5.4 2.4.1.7-5.6-2.6-1.2-4-2-.8.2-.6 2 .9z"/></g><path d="M250.7 231.2s.3-6.9 8.6-7.3v-4c0-.1-8.5.3-8.6 11.3z" class="Aq"/><path d="M250.7 231.2s0-.3.2-.8c1-9.2 8.6-9.5 8.6-9.5v-1.1c-.2 0-8.7.4-8.8 11.4z" class="Ao"/><path d="M258.6 219.9v3.1c-3.9.2-6.1 1.9-7.3 3.5-.4 1.3-.6 2.8-.7 4.6 0 0 .3-6.9 8.6-7.3v-4c.1 0-.1 0-.6.1z" class="Am"/><path d="M296 231.2s-.3-6.9-8.6-7.3v-4c-.1-.1 8.4.3 8.6 11.3z" class="Aq"/><path d="M296 231.2s0-.3-.2-.8c-1-9.2-8.6-9.5-8.6-9.5v-1.1c.1 0 8.6.4 8.8 11.4z" class="Ao"/><path d="M287.9 219.9v3.1c3.9.2 6.1 1.9 7.3 3.5.4 1.3.6 2.8.7 4.6 0 0-.3-6.9-8.6-7.3v-4s.3 0 .6.1zm-25.1 3.7a93.05 93.05 0 0 1 21.1 0v-3.2a93.05 93.05 0 0 0-21.1 0v3.2z" class="Am"/><path d="M291.3 280.6h-36.2l-4.8-12.5c-1.2-2.9.2-6.4 2.8-7.2a66.9 66.9 0 0 1 40.1 0c2.5.8 3.9 4.2 2.8 7.2-2.1 5.9-4.7 12.5-4.7 12.5z" class="Al"/><path d="M256.1 279.1l-4.5-11.6c-.4-1-.4-2.1 0-3.1.4-.9 1.1-1.6 1.9-1.9a65.83 65.83 0 0 1 19.7-3c6.6 0 13.3 1 19.7 3 .8.2 1.5.9 1.9 1.9s.4 2.1 0 3.1c-1.7 4.6-3.6 9.6-4.5 11.6h-34.2z" class="Am"/><path d="M291.3 329.7h-36.2l-1.3 1.6c-2.9 3.8-1.2 10 3.1 10.8a84.62 84.62 0 0 0 32.5 0c4.2-.8 6-7 3.1-10.8-.6-1-1.2-1.6-1.2-1.6z" class="Al"/><path d="M273.3 342c-5.3 0-10.8-.5-16-1.5-1.5-.3-2.7-1.5-3.2-3.2s-.2-3.5.8-4.9c.3-.5.6-.8.8-1.1h35c.2.2.5.6.8 1.1 1 1.3 1.3 3.2.8 4.9-.5 1.8-1.7 2.9-3.2 3.2-5 1.1-10.4 1.5-15.8 1.5z" class="Am"/><path d="M301 356.9c-.9-1-2.2-1.3-4.4 1.3s-9 1.9-9.7 4.9c3.5-.5 6.8-1.1 10.2-1.9 1.8-.5 3.3-2.1 3.9-4.3h0zm-55.3 0c.9-1 2.2-1.3 4.4 1.3s9 1.9 9.7 4.9c-3.5-.5-6.8-1.1-10.2-1.9-1.9-.5-3.4-2.1-3.9-4.3h0z" fill="#ef7b6f"/><path d="M262.4 359.6v3.8c7.3.8 14.5.8 21.8 0v-3.8c-7.3.9-14.5.9-21.8 0z" fill="#ddd9da"/><g fill="#f3ff00"><use xlink:href="#AG" x="158" y="74"/><use xlink:href="#AG" x="158" y="201"/></g><defs ><path id="AF" d="M41.6 244.5c-.5 0-1 .2-1.5.6-2.9 2.4-4 7.3-3.1 15.1.2.6.7 1 1.2 1.4.5.6 1.2 1 1.7 1.4 2.4-.2 3.9-.6 4.1-.6-2.9-.8-4.3-2.1-4.6-3.5-.7-3.3-.7-6.3.1-9.2.8-2.8 2-4.1 3.9-3.4 5.6 1.1 11.4 1.5 17.2 1.4h.4c5.6.3 11.4-.1 17-1h.4l2-1.6h-.5c-6.1 1-12.2 1.5-18.7 1.2H61c-7 0-13.3-.5-19.4-1.8z"/><path id="AG" d="M108.5 159.9l-17.1-2.2 11.8 12.7-13.3-11.1 3.1 17-5.2-16.5-6.6 15.9 4.6-16.6-14.2 9.8 12.9-11.5-17.3.6 17.1-2.7-14.9-8.9 15.9 7-7.8-15.5 9.6 14.4 1.9-17.2.2 17.3 10.9-13.5-9.1 14.7 16.4-5.4-15.6 7.4z"/></defs></svg>