<svg xmlns="http://www.w3.org/2000/svg" xmlns:xlink="http://www.w3.org/1999/xlink" viewBox="0 0 500 500"><style><![CDATA[.Ai{fill:#fff}.Aj{fill:#70150f}.Ak{fill:#3c4f58}.Al{fill:#6cb75a}.Am{fill:#304048}.An{fill:#c1121c}.Ao{fill-rule:evenodd}.Ap{fill:#154889}.Aq{fill:#020203}]]></style><path d="M0 0h500v500H0z" fill="#009245"/><g fill="#2e3a34"><path d="M189 500V399c-19.6-8.1-37.7-20.1-52.8-35.2S109.1 330.6 101 311H0V189h101c8.1-19.6 20.1-37.7 35.2-52.8s33.2-27.1 52.8-35.2V0h122v101c19.6 8.1 37.7 20.1 52.8 35.2s27.1 33.2 35.2 52.8h101v122H399c-8.1 19.6-20.1 37.7-35.2 52.8S330.6 390.9 311 399v101H189zm61-289c-21.5 0-39 17.5-39 39s17.5 39 39 39 39-17.5 39-39-17.5-39-39-39z"/><path d="M391.4 200c-15.1-42.6-48.9-76.3-91.4-91.4V1H200v107.6c-42.6 15.1-76.3 48.9-91.4 91.4H1v100h107.6c15.1 42.6 48.9 76.3 91.4 91.4V499h100V391.4c42.6-15.1 76.3-48.9 91.4-91.4H499V200H391.4zM250 300c-27.6 0-50-22.4-50-50s22.4-50 50-50 50 22.4 50 50-22.4 50-50 50z"/></g><path d="M300.5 499.5h-101V391.8c-20.8-7.4-40.1-19.7-55.9-35.4a149.58 149.58 0 0 1-35.4-55.9H.5v-101h107.7c7.4-20.8 19.7-40.1 35.4-55.9a149.58 149.58 0 0 1 55.9-35.4V.5h101v107.7c20.8 7.4 40.1 19.7 55.9 35.4a149.58 149.58 0 0 1 35.4 55.9h107.7v101H391.8c-7.4 20.8-19.7 40.1-35.4 55.9a149.58 149.58 0 0 1-55.9 35.4v107.7zm-100-1h99V391.1l.3-.1c42.2-15 76.2-49 91.2-91.2l.1-.3h107.4v-99H391.1l-.1-.3C376 158 342 124 299.8 109l-.3-.1V1.5h-99v107.4l-.3.1C158 124 124 158 109 200.2l-.1.3H1.5v99h107.4l.1.3c15 42.2 49 76.2 91.2 91.2l.3.1v107.4zm49.5-198c-27.8 0-50.5-22.7-50.5-50.5s22.7-50.5 50.5-50.5 50.5 22.7 50.5 50.5-22.7 50.5-50.5 50.5zm0-100c-27.3 0-49.5 22.2-49.5 49.5s22.2 49.5 49.5 49.5 49.5-22.2 49.5-49.5-22.2-49.5-49.5-49.5z" class="Ai"/><path d="M498.1 200.7h1.9v98.7h-1.9zM200.557 1.95V.05h98.7v1.9zM1.893 299.293h-1.9v-98.7h1.9zM299.45 497.757v1.9h-98.7v-1.9z" fill="#2e3a34"/><linearGradient id="A" gradientUnits="userSpaceOnUse" x1="455.558" y1="176.652" x2="455.558" y2="180.555"><stop offset="0" stop-color="#edebe9"/><stop offset="0" stop-color="#e1deda"/><stop offset="0" stop-color="#d6d1cc"/><stop offset=".07" stop-color="#c7c3be"/><stop offset=".146" stop-color="#b2aeaa"/><stop offset=".523" stop-color="#e6e6e6"/><stop offset=".633" stop-color="#d9d8d7"/><stop offset=".844" stop-color="#b8b4b0"/><stop offset=".876" stop-color="#b2aeaa"/><stop offset="1" stop-color="#d9d9d9"/><stop offset="1" stop-color="#b1b1b1"/></linearGradient><path d="M413.1 180.5l1.7-.9-1.7-.9 1.7-1.1-1.7-1H498v3.9z" fill="url(#A)"/><path d="M423.75 178.623c0-.5-.125-.875-.5-1.25-.125-.125-.25-.25-.375-.25l-1.625-1-30.25-17.5c-.125-.125-.25-.125-.5-.25-.875-.25-1.875.25-2.125 1.25v37.375c0 1 .75 1.75 1.75 1.75.375 0 .625-.125.875-.25l31.5-18.125c.375-.25.5-.375.75-.5.375-.375.5-.875.5-1.25z" class="Ai"/><path d="M423.25 178.623c0-.375-.25-.875-.625-1.125l-32-18.5c-.25-.125-.375-.125-.625-.125-.375 0-.75.125-1 .5-.25.25-.25.5-.25.875v36.875c0 .25 0 .5.125.625.25.375.625.625 1.125.625.25 0 .5-.125.625-.125l32-18.375c.125-.125.25-.125.25-.25.25-.375.375-.625.375-1h0zm-34.5-18.375h0zM417 178.623l-24.375 14v-28.125L417 178.623z" class="An"/><path d="M423.75 178.623c0-.5-.125-.875-.5-1.25-.125-.125-.25-.25-.375-.25l-1.5-.875-30.25-17.5c-.125-.125-.25-.125-.5-.25-1-.25-1.875.25-2.125 1.25v37.375c0 1 .75 1.75 1.75 1.75.375 0 .625-.125.875-.25l31.5-18.125c.375-.25.5-.375.75-.625.25-.375.375-.875.375-1.25zm0 0c0 .5-.125.875-.5 1.25-.25.25-.375.375-.75.5L391 198.498c-.25.125-.5.25-.875.25-1 0-1.75-.75-1.75-1.75v-37.375c.25-.875 1.25-1.5 2.125-1.25.125 0 .375.125.5.25l30.25 17.5 1.5.875c.125.125.25.125.375.25.5.5.625.875.625 1.375h0z"/><g class="Ao"><path d="M424.875 178.626c0 2.625.625 4.875 1.875 7.125 1.375 2.25 3 3.875 5.25 5.25s4.5 1.875 7.125 1.875S444 192.25 446.25 191c2.25-1.375 3.875-3 5.25-5.25s1.875-4.5 1.875-7.125-.625-4.875-1.875-7.125c-1.375-2.25-3-3.875-5.25-5.25s-4.5-1.875-7.125-1.875-4.875.625-7.125 1.875c-2.25 1.375-3.875 3-5.25 5.25-1.25 2.25-1.875 4.5-1.875 7.125zm.125 0c0-2.625.625-4.875 1.875-7.125 1.375-2.25 3-3.875 5.25-5.25s4.5-1.875 7.125-1.875 4.875.625 7.125 1.875c2.25 1.375 3.875 3 5.25 5.25s1.875 4.5 1.875 7.125-.625 4.875-1.875 7.125c-1.375 2.25-3 3.875-5.25 5.25s-4.5 1.875-7.125 1.875-4.875-.625-7.125-1.875c-2.25-1.375-3.875-3-5.25-5.25s-1.875-4.5-1.875-7.125z"/><path d="M439.25 164.25c-2.625 0-4.875.625-7.125 1.875-2.25 1.375-3.875 3-5.25 5.25S425 175.876 425 178.5s.625 4.875 1.875 7.125c1.375 2.25 3 3.875 5.25 5.25s4.5 1.875 7.125 1.875 4.875-.625 7.125-1.875c2.25-1.375 3.875-3 5.25-5.25s1.875-4.5 1.875-7.125-.625-4.875-1.875-7.125c-1.375-2.25-3-3.875-5.25-5.25-2.25-1.25-4.5-1.875-7.125-1.875h0z" class="Ai"/><path d="M439.25 165c-2.5 0-4.625.625-6.875 1.875a13.7 13.7 0 0 0-5 5 12.9 12.9 0 0 0-1.875 6.875c0 2.5.625 4.625 1.875 6.875a13.7 13.7 0 0 0 5 5 12.9 12.9 0 0 0 6.875 1.875c2.5 0 4.625-.625 6.875-1.875a13.7 13.7 0 0 0 5-5 12.9 12.9 0 0 0 1.875-6.875c0-2.5-.625-4.625-1.875-6.875a13.7 13.7 0 0 0-5-5c-2.25-1.375-4.375-1.875-6.875-1.875z" class="Ap"/><path d="M442.125 187.25l-3.375-3.375h-2l2.375 2.5c-3.875.125-7.125-3.25-7.5-6.375l-1.625.25c1.125 5.5 5.375 7.75 9.25 7.875l-2.375 2.5H439l3.125-3.375zm3.125-15.5l-1.125 4.625 1 1.75.875-3.375c2 3.25.75 7.75-1.75 9.75l1.125 1.25c4.25-3.75 4-8.5 2.125-11.875l3.375.875-1-1.75-4.625-1.25zm-14.875 5.126l4.625-1.25 1-1.75-3.375.875c1.875-3.375 6.375-4.625 9.25-3.375l.625-1.625c-5.375-1.75-9.375.875-11.375 4.125l-1-3.375-1 1.75 1.25 4.625z" class="Ai"/></g><linearGradient id="B" gradientUnits="userSpaceOnUse" x1="45.388" y1="321.648" x2="45.388" y2="317.744"><stop offset="0" stop-color="#edebe9"/><stop offset="0" stop-color="#e1deda"/><stop offset="0" stop-color="#d6d1cc"/><stop offset=".07" stop-color="#c7c3be"/><stop offset=".146" stop-color="#b2aeaa"/><stop offset=".523" stop-color="#e6e6e6"/><stop offset=".633" stop-color="#d9d8d7"/><stop offset=".844" stop-color="#b8b4b0"/><stop offset=".876" stop-color="#b2aeaa"/><stop offset="1" stop-color="#d9d9d9"/><stop offset="1" stop-color="#b1b1b1"/></linearGradient><path d="M87.8 317.8l-1.7.9 1.7.9-1.7 1.1 1.7 1H2.9v-3.9z" fill="url(#B)"/><path d="M77.25 319.748c0 .5.125.875.5 1.25.125.125.25.25.375.25l1.5.875 30.25 17.5c.125.125.25.125.5.25.875.25 1.875-.25 2.125-1.25v-37.375c0-1-.75-1.75-1.75-1.75-.375 0-.625.125-.875.25l-31.5 18.125c-.375.25-.5.375-.75.5-.25.5-.375.875-.375 1.375z" class="Ai"/><path d="M77.625 319.748c0 .375.25.875.625 1.125l32 18.5c.25.125.375.125.625.125.375 0 .75-.125 1-.5.25-.25.25-.5.25-.875v-36.875c0-.25 0-.5-.125-.625-.25-.375-.625-.625-1.125-.625-.25 0-.5.125-.625.125l-32 18.5c-.125.125-.25.125-.25.25-.25.25-.375.5-.375.875 0-.125 0-.125 0 0h0zm34.5 18.375h0zM84 319.748l24.375-14v28.125L84 319.748z" class="An"/><path d="M77.125 319.748c0 .5.125.875.5 1.25.125.125.25.25.375.25l1.5.875 30.25 17.5c.125.125.25.125.5.25 1 .25 1.875-.25 2.125-1.25v-37.375c0-1-.75-1.75-1.75-1.75-.375 0-.625.125-.875.25l-31.5 18.125c-.375.25-.5.375-.75.625-.125.25-.375.75-.375 1.25zm.125 0c0-.5.125-.875.5-1.25.25-.25.375-.375.75-.5l31.5-18.25c.25-.125.5-.25.875-.25 1 0 1.75.75 1.75 1.75v37.375c-.25.875-1.25 1.5-2.125 1.25-.125 0-.375-.125-.5-.25l-31.75-18.375c-.125-.125-.25-.125-.375-.25a1.52 1.52 0 0 1-.625-1.25h0z"/><g class="Ao"><path d="M76 319.75c0-2.625-.625-4.875-1.875-7.125-1.375-2.25-3-3.875-5.25-5.25s-4.5-1.875-7.125-1.875-4.875.625-7.125 1.875c-2.25 1.375-3.875 3-5.25 5.25s-1.875 4.5-1.875 7.125.625 4.875 1.875 7.125c1.375 2.25 3 3.875 5.25 5.25S59.125 334 61.75 334s4.875-.625 7.125-1.875c2.25-1.375 3.875-3 5.25-5.25 1.25-2.25 1.875-4.5 1.875-7.125zm0 0c0 2.625-.625 4.875-1.875 7.125-1.375 2.25-3 3.875-5.25 5.25S64.375 334 61.75 334s-4.875-.625-7.125-1.875c-2.25-1.375-3.875-3-5.25-5.25s-1.875-4.5-1.875-7.125.625-4.875 1.875-7.125c1.375-2.25 3-3.875 5.25-5.25s4.5-1.875 7.125-1.875 4.875.625 7.125 1.875c2.25 1.375 3.875 3 5.25 5.25 1.25 2.25 1.875 4.5 1.875 7.125z"/><path d="M61.625 334c2.625 0 4.875-.625 7.125-1.875 2.25-1.375 3.875-3 5.25-5.25s1.875-4.5 1.875-7.125-.625-4.875-1.875-7.125c-1.375-2.25-3-3.875-5.25-5.25s-4.5-1.875-7.125-1.875-4.875.625-7.125 1.875c-2.25 1.375-3.875 3-5.25 5.25s-1.875 4.5-1.875 7.125.625 4.875 1.875 7.125c1.375 2.25 3 3.875 5.25 5.25 2.375 1.25 4.5 1.875 7.125 1.875h0z" class="Ai"/><path d="M61.625 333.376c2.5 0 4.625-.625 6.875-1.875a13.7 13.7 0 0 0 5-5 12.9 12.9 0 0 0 1.875-6.875c0-2.5-.625-4.625-1.875-6.875a13.7 13.7 0 0 0-5-5 12.9 12.9 0 0 0-6.875-1.875c-2.5 0-4.625.625-6.875 1.875a13.7 13.7 0 0 0-5 5 12.9 12.9 0 0 0-1.875 6.875c0 2.5.625 4.625 1.875 6.875a13.7 13.7 0 0 0 5 5c2.25 1.25 4.375 1.875 6.875 1.875z" class="Ap"/><path d="M58.75 311.126l3.375 3.375h2L61.75 312c3.875-.125 7.125 3.25 7.5 6.375l1.625-.25c-1.125-5.5-5.375-7.75-9.25-7.875l2.375-2.5h-2.125l-3.125 3.375zm-3 15.374l1.125-4.625-1-1.75L55 323.5c-2-3.25-.75-7.75 1.75-9.75l-1.125-1.25c-4.25 3.75-4 8.5-2.125 11.875l-3.375-.875 1 1.75 4.625 1.25zm14.75-5l-4.625 1.25-1 1.75 3.375-.875C66.375 327 61.875 328.25 59 327l-.625 1.625c5.375 1.75 9.375-.875 11.375-4.125l1 3.375 1-1.75-1.25-4.625z" class="Ai"/></g><linearGradient id="C" gradientUnits="userSpaceOnUse" x1="177.539" y1="44.084" x2="181.442" y2="44.084"><stop offset="0" stop-color="#edebe9"/><stop offset="0" stop-color="#e1deda"/><stop offset="0" stop-color="#d6d1cc"/><stop offset=".07" stop-color="#c7c3be"/><stop offset=".146" stop-color="#b2aeaa"/><stop offset=".523" stop-color="#e6e6e6"/><stop offset=".633" stop-color="#d9d8d7"/><stop offset=".844" stop-color="#b8b4b0"/><stop offset=".876" stop-color="#b2aeaa"/><stop offset="1" stop-color="#d9d9d9"/><stop offset="1" stop-color="#b1b1b1"/></linearGradient><path d="M181.4 86.5l-.9-1.7-.9 1.7-1.1-1.7-1 1.7V1.6h3.9z" fill="url(#C)"/><path d="M179.5 75.873c-.5 0-.875.125-1.25.5-.125.125-.25.25-.25.375l-.875 1.5-17.5 30.25c-.125.125-.125.25-.25.5-.25.875.25 1.875 1.25 2.125H198c1 0 1.75-.75 1.75-1.75 0-.375-.125-.625-.25-.875l-18.25-31.25c-.25-.375-.375-.5-.5-.75-.375-.375-.875-.625-1.25-.625z" class="Ai"/><path d="M179.5 76.373c-.375 0-.875.25-1.125.625l-18.5 32c-.125.25-.125.375-.125.625 0 .375.125.75.5 1 .25.25.5.25.875.25H198c.25 0 .5 0 .625-.125.375-.25.625-.625.625-1.125 0-.25-.125-.5-.125-.625l-18.375-32c-.125-.125-.125-.25-.25-.25-.375-.25-.625-.375-1-.375h0zm-18.375 34.5h0zm18.375-28.25l14 24.375h-28.125L179.5 82.623z" class="An"/><path d="M179.5 75.873c-.5 0-.875.125-1.25.5-.125.125-.25.25-.25.375l-.875 1.5-17.5 30.25c-.125.125-.125.25-.25.5-.25 1 .25 1.875 1.25 2.125H198c1 0 1.75-.75 1.75-1.75 0-.375-.125-.625-.25-.875l-18.25-31.375c-.25-.375-.375-.5-.625-.75-.25-.375-.75-.5-1.125-.5zm0 0c.5 0 .875.125 1.25.5.25.25.375.375.5.75l18.125 31.5c.125.25.25.5.25.875 0 1-.75 1.75-1.75 1.75H160.5c-.875-.25-1.5-1.25-1.25-2.125 0-.125.125-.375.25-.5l18.375-31.75c.125-.125.125-.25.25-.375.5-.375.875-.625 1.375-.625h0z"/><g class="Ao"><path d="M179.5 74.75c2.625 0 4.875-.625 7.125-1.875 2.25-1.375 3.875-3 5.25-5.25s1.875-4.5 1.875-7.125-.625-4.875-1.875-7.125c-1.375-2.25-3-3.875-5.25-5.25s-4.5-1.875-7.125-1.875-4.875.625-7.125 1.875c-2.25 1.375-3.875 3-5.25 5.25s-1.875 4.5-1.875 7.125.625 4.875 1.875 7.125c1.375 2.25 3 3.875 5.25 5.25 2.25 1.25 4.5 1.875 7.125 1.875zm0 0c-2.625 0-4.875-.625-7.125-1.875-2.25-1.375-3.875-3-5.25-5.25s-1.875-4.5-1.875-7.125.625-4.875 1.875-7.125c1.375-2.25 3-3.875 5.25-5.25s4.5-1.875 7.125-1.875 4.875.625 7.125 1.875c2.25 1.375 3.875 3 5.25 5.25s1.875 4.5 1.875 7.125-.625 4.875-1.875 7.125c-1.375 2.25-3 3.875-5.25 5.25-2.25 1.25-4.5 1.875-7.125 1.875z"/><path d="M165.125 60.376c0 2.625.625 4.875 1.875 7.125 1.375 2.25 3 3.875 5.25 5.25s4.5 1.875 7.125 1.875S184.25 74 186.5 72.75c2.25-1.375 3.875-3 5.25-5.25s1.875-4.5 1.875-7.125S193 55.5 191.75 53.25c-1.375-2.25-3-3.875-5.25-5.25s-4.5-1.875-7.125-1.875-4.875.625-7.125 1.875c-2.25 1.375-3.875 3-5.25 5.25-1.25 2.25-1.875 4.5-1.875 7.125h0z" class="Ai"/><path d="M165.875 60.376c0 2.5.625 4.625 1.875 6.875a13.7 13.7 0 0 0 5 5 12.9 12.9 0 0 0 6.875 1.875c2.5 0 4.625-.625 6.875-1.875a13.7 13.7 0 0 0 5-5 12.9 12.9 0 0 0 1.875-6.875c0-2.5-.625-4.625-1.875-6.875a13.7 13.7 0 0 0-5-5 12.9 12.9 0 0 0-6.875-1.875c-2.5 0-4.625.625-6.875 1.875a13.7 13.7 0 0 0-5 5c-1.375 2.25-1.875 4.375-1.875 6.875z" class="Ap"/><path d="M188.125 57.5l-3.375 3.375v2l2.5-2.375c.125 3.875-3.25 7.125-6.375 7.5l.25 1.625c5.5-1.125 7.75-5.375 7.875-9.25l2.5 2.375v-2.125l-3.375-3.125zm-15.5-3.124l4.625 1.125 1.75-1-3.375-.875c3.25-2 7.75-.75 9.75 1.75l1.25-1.125c-3.75-4.25-8.5-4-11.875-2.125l.875-3.375-1.75 1-1.25 4.625zm5.125 14.874l-1.25-4.625-1.75-1 .875 3.375c-3.375-1.875-4.625-6.375-3.375-9.25l-1.625-.625c-1.75 5.375.875 9.375 4.125 11.375l-3.375 1 1.75 1 4.625-1.25z" class="Ai"/></g><linearGradient id="D" gradientUnits="userSpaceOnUse" x1="321.581" y1="455.365" x2="317.678" y2="455.365"><stop offset="0" stop-color="#edebe9"/><stop offset="0" stop-color="#e1deda"/><stop offset="0" stop-color="#d6d1cc"/><stop offset=".07" stop-color="#c7c3be"/><stop offset=".146" stop-color="#b2aeaa"/><stop offset=".523" stop-color="#e6e6e6"/><stop offset=".633" stop-color="#d9d8d7"/><stop offset=".844" stop-color="#b8b4b0"/><stop offset=".876" stop-color="#b2aeaa"/><stop offset="1" stop-color="#d9d9d9"/><stop offset="1" stop-color="#b1b1b1"/></linearGradient><path d="M317.7 412.9l.9 1.7 1-1.7 1 1.7 1-1.7v84.9h-3.9z" fill="url(#D)"/><path d="M319.625 423.498c.5 0 .875-.125 1.25-.5.125-.125.25-.25.25-.375l.875-1.5 17.5-30.25c.125-.125.125-.25.25-.5.25-.875-.25-1.875-1.25-2.125h-37.25c-1 0-1.75.75-1.75 1.75 0 .375.125.625.25.875l18.125 31.5c.25.375.375.5.5.75.375.25.875.375 1.25.375z" class="Ai"/><path d="M319.625 423.123c.375 0 .875-.25 1.125-.625l18.5-32c.125-.25.125-.375.125-.625 0-.375-.125-.75-.5-1-.25-.25-.5-.25-.875-.25h-36.75c-.25 0-.5 0-.625.125-.375.25-.625.625-.625 1.125 0 .25.125.5.125.625l18.375 32c.125.125.125.25.25.25.25.25.5.375.875.375h0zm18.375-34.5h0zm-18.375 28.125l-14-24.375h28.125l-14.125 24.375z" class="An"/><path d="M319.625 423.623c.5 0 .875-.125 1.25-.5.125-.125.25-.25.25-.375l.875-1.5 17.5-30.25c.125-.125.125-.25.25-.5.25-1-.25-1.875-1.25-2.125h-37.25c-1 0-1.75.75-1.75 1.75 0 .375.125.625.25.875l18.125 31.5c.25.375.375.5.625.75.25.125.625.375 1.125.375zm0-.125c-.5 0-.875-.125-1.25-.5-.25-.25-.375-.375-.5-.75l-18.125-31.5c-.125-.25-.25-.5-.25-.875 0-1 .75-1.75 1.75-1.75h37.375c.875.25 1.5 1.25 1.25 2.125 0 .125-.125.375-.25.5l-18.375 31.75c-.125.125-.125.25-.25.375-.5.5-.875.625-1.375.625h0z"/><g class="Ao"><path d="M319.625 424.75c-2.625 0-4.875.625-7.125 1.875-2.25 1.375-3.875 3-5.25 5.25s-1.875 4.5-1.875 7.125.625 4.875 1.875 7.125c1.375 2.25 3 3.875 5.25 5.25s4.5 1.875 7.125 1.875 4.875-.625 7.125-1.875c2.25-1.375 3.875-3 5.25-5.25s1.875-4.5 1.875-7.125-.625-4.875-1.875-7.125c-1.375-2.25-3-3.875-5.25-5.25-2.25-1.25-4.5-1.875-7.125-1.875zm0 0c2.625 0 4.875.625 7.125 1.875 2.25 1.375 3.875 3 5.25 5.25s1.875 4.5 1.875 7.125-.625 4.875-1.875 7.125c-1.375 2.25-3 3.875-5.25 5.25s-4.5 1.875-7.125 1.875-4.875-.625-7.125-1.875c-2.25-1.375-3.875-3-5.25-5.25s-1.875-4.5-1.875-7.125.625-4.875 1.875-7.125c1.375-2.25 3-3.875 5.25-5.25 2.25-1.25 4.5-1.875 7.125-1.875z"/><path d="M334 439.126c0-2.625-.625-4.875-1.875-7.125-1.375-2.25-3-3.875-5.25-5.25s-4.5-1.875-7.125-1.875-4.875.625-7.125 1.875c-2.25 1.375-3.875 3-5.25 5.25s-1.875 4.5-1.875 7.125.625 4.875 1.875 7.125c1.375 2.25 3 3.875 5.25 5.25s4.5 1.875 7.125 1.875 4.875-.625 7.125-1.875c2.25-1.375 3.875-3 5.25-5.25 1.25-2.25 1.875-4.5 1.875-7.125h0z" class="Ai"/><path d="M333.25 439.126c0-2.5-.625-4.625-1.875-6.875a13.7 13.7 0 0 0-5-5 12.9 12.9 0 0 0-6.875-1.875c-2.5 0-4.625.625-6.875 1.875a13.7 13.7 0 0 0-5 5 12.9 12.9 0 0 0-1.875 6.875c0 2.5.625 4.625 1.875 6.875a13.7 13.7 0 0 0 5 5 12.9 12.9 0 0 0 6.875 1.875c2.5 0 4.625-.625 6.875-1.875a13.7 13.7 0 0 0 5-5c1.375-2.25 1.875-4.375 1.875-6.875z" class="Ap"/><path d="M311 442l3.375-3.375v-2l-2.5 2.375c-.125-3.875 3.25-7.125 6.375-7.5l-.25-1.625c-5.5 1.125-7.75 5.375-7.875 9.25l-2.5-2.375v2.125L311 442zm15.5 3l-4.625-1.125-1.75 1 3.375.875c-3.25 2-7.75.75-9.75-1.75l-1.25 1.125c3.75 4.25 8.5 4 11.875 2.125l-.875 3.375 1.75-1L326.5 445zm-5.125-14.75l1.25 4.625 1.75 1-.875-3.375c3.375 1.875 4.625 6.375 3.375 9.25l1.625.625c1.75-5.375-.875-9.375-4.125-11.375l3.375-1-1.75-1-4.625 1.25z" class="Ai"/></g><linearGradient id="E" gradientUnits="userSpaceOnUse" x1="240.27" y1="97.686" x2="251.634" y2="88.73"><stop offset="0" stop-color="#5b5b5d"/><stop offset=".141" stop-color="#fff"/><stop offset=".894" stop-color="#a6a8aa"/><stop offset="1" stop-color="#fff"/></linearGradient><path d="M240.3 98.2a1.9 1.9 0 0 1-.3.9c1.4-1.7 2.9-3.3 4.6-4.6l1.3-1.1.2-.2c2-1.7 4.2-3.1 6.9-4.5-.2 0-.6 0-.9.1-2.8 1.2-4.8 2.3-6.7 3.7l-.2.2c-1.5 1.3-3.2 3.1-4.9 5.5z" fill="url(#E)"/><linearGradient id="F" gradientUnits="userSpaceOnUse" x1="235.498" y1="103.743" x2="267.26" y2="107.816"><stop offset=".051" stop-color="#f2959a"/><stop offset=".894" stop-color="#911917"/><stop offset="1" stop-color="#ea506a"/></linearGradient><path d="M240.1 99a1.9 1.9 0 0 1 .3-.9c.4-.8.6-1.5 1.1-2.2 1.1-1.6 2.4-2.7 3.7-3.8l.2-.2-.5-.6-.2.2c-1.5 1.3-3 2.7-4.2 4.1-.4 1.2-.9 2.4-1.1 3.5-.2.3-.1.6-.2 1s-.1.9-.2 1.2c-.1 1.1-.1 2.1-.1 2.9.3 5.4 2.5 10.7 6.8 15.9.2.2.2.3.4.5-.2-.5-.3-1.1-.1-1.9-.1-.1-.2-.3-.3-.4-2.9-3.7-4.9-8-6-12.8-.4-2.3-.2-4.6.4-6.5z" fill="url(#F)"/><linearGradient id="G" gradientUnits="userSpaceOnUse" x1="231.747" y1="104.968" x2="246.447" y2="115.24"><stop offset=".051" stop-color="#f2959a"/><stop offset=".781" stop-color="#911917"/></linearGradient><path d="M238.8 104.5l.1-2.9c-.3.4-.4.7-.7 1.1-.8 1.5-1.4 2.9-1.9 4.6 2.2 4.8 5.4 9.8 9.2 14.7l-.1-1.6c-4-5.3-6.3-10.6-6.6-15.9z" fill="url(#G)"/><path d="M238.2 102.5c.3-.4.4-.7.7-1.1.1-.4.1-.9.2-1.2 0 .2-.3.4-.5.6-.5.8-.7 1.4-.4 1.7z" fill="#676767"/><linearGradient id="H" gradientUnits="userSpaceOnUse" x1="234.107" y1="107.91" x2="240.384" y2="102.962"><stop offset="0" stop-color="#5b5b5d"/><stop offset=".141" stop-color="#fff"/><stop offset=".894" stop-color="#a6a8aa"/><stop offset="1" stop-color="#fff"/></linearGradient><path d="M238.2 102.5c-.2-.3-.1-.9.4-1.7-1.2 1.8-2.1 3.5-2.8 5.5-.3 1.1-.7 2.2-.6 3.3.1.4.4.5.6.5-.1-1.1 0-2 .2-2.8.8-1.9 1.4-3.6 2.2-4.8z" fill="url(#H)"/><path d="M238.6 100.8c0-.2.3-.4.5-.6 0-.3.1-.6.2-1-1.5 1.6-2.6 3.7-3.4 5.9-.5 1.4-.7 2.6-.8 3.7 0 .3.2.5.4.7 0-1.2.2-2.3.6-3.3.5-2 1.4-3.8 2.5-5.4z" class="Ai"/><linearGradient id="I" gradientUnits="userSpaceOnUse" x1="236.182" y1="101.774" x2="237.998" y2="102.104"><stop offset=".051" stop-color="#f2959a"/><stop offset=".894" stop-color="#911917"/><stop offset="1" stop-color="#ea506a"/></linearGradient><path d="M239.3 99.1c.2-1.2.6-2.3 1.1-3.5-1.7 2-3.3 4.3-4.5 6.7-1.2 1.8-1.7 3.6-1.1 5.5a1.4 1.4 0 0 0 .4.7c0-1.2.2-2.5.8-3.7.7-2 1.8-4 3.3-5.7z" fill="url(#I)"/><linearGradient id="J" gradientUnits="userSpaceOnUse" x1="239.664" y1="97.421" x2="251.487" y2="88.103"><stop offset="0" stop-color="#5b5b5d"/><stop offset=".141" stop-color="#808183"/><stop offset=".894" stop-color="#1b2326"/><stop offset="1" stop-color="#fff"/></linearGradient><path d="M241.3 95.9l-1.1 2.2c1.8-2.4 3.4-4.2 5.1-5.7l.2-.2c1.8-1.2 4-2.5 6.7-3.7-.8.2-1.6.2-2.3.5-1.7.6-3.1 1.6-4.4 2.6l-.3.3c-1.6 1.3-2.9 2.6-3.9 4z" fill="url(#J)"/><linearGradient id="K" gradientUnits="userSpaceOnUse" x1="245.565" y1="86.146" x2="273.844" y2="99.062"><stop offset="0" stop-color="#a41b25"/><stop offset=".141" stop-color="#f2959a"/><stop offset=".77" stop-color="#911917"/><stop offset="1" stop-color="#ef7c88"/></linearGradient><path d="M245.4 92c1.3-1.2 2.7-2 4.4-2.6l2.3-.5c.2 0 .6 0 .9-.1 2.1 0 4.4.3 6.6 1.2 4.4 2.1 8.2 5.2 11.3 9.1h0l.2.2c.6 0 1 0 1.4.2h.2c-4.1-5.4-8.7-9-14-10.6-1-.2-1.9-.5-2.8-.6-.4 0-.9-.1-1.2 0s-.6 0-1 0a23.08 23.08 0 0 0-3.7.3c-1.7.8-3.3 1.8-4.8 2.9l.2.5z" fill="url(#K)"/><path d="M255 87.9c-.2 0-.4.2-.7.4.4 0 .9.1 1.2 0 .4-.2.8-.3 1.1-.4 0-.4-.7-.4-1.6 0z" fill="#676767"/><path d="M254.3 88.1c.2 0 .4-.2.7-.4 2-.7 3.9-1.3 6-1.4 1.1-.1 2.3-.1 3.3.2-.3-.1-.4-.3-.6-.5-1.2-.2-2.5-.4-3.8-.1-2.4.4-4.6.9-6.5 2 .3.2.6.3.9.2z" class="Ai"/><linearGradient id="L" gradientUnits="userSpaceOnUse" x1="253.829" y1="88.018" x2="266.325" y2="87.038"><stop offset="0" stop-color="#5b5b5d"/><stop offset=".141" stop-color="#fff"/><stop offset=".894" stop-color="#a6a8aa"/><stop offset="1" stop-color="#fff"/></linearGradient><path d="M255 87.9c1-.3 1.5-.4 1.7 0 1.6-.4 3.2-.7 4.9-.7.8 0 1.7.2 2.7.5 0-.2 0-.5-.4-.7-1.2-.2-2.3-.4-3.3-.2-1.7-.2-3.7.3-5.6 1.1z" fill="url(#L)"/><linearGradient id="M" gradientUnits="userSpaceOnUse" x1="259.254" y1="87.479" x2="271.735" y2="100.674"><stop offset=".051" stop-color="#f2959a"/><stop offset=".73" stop-color="#911917"/><stop offset="1" stop-color="#c1444b"/></linearGradient><path d="M256.7 87.9c-.4.2-.8.3-1.1.4 1.1.1 1.9.5 2.8.6 5.2 1.7 9.9 5.1 14 10.6l1.1-.1c-3.7-5-7.7-9-12-12.2-1.6 0-3.2.1-4.8.7z" fill="url(#M)"/><linearGradient id="N" gradientUnits="userSpaceOnUse" x1="262.619" y1="85.861" x2="251.32" y2="88.285"><stop offset=".051" stop-color="#f2959a"/><stop offset=".894" stop-color="#911917"/><stop offset="1" stop-color="#ea506a"/></linearGradient><path d="M249.7 88.4a23.08 23.08 0 0 1 3.7-.3c1.9-1 4.1-1.6 6.5-2 1.5-.2 2.7-.1 3.8.1-.3-.1-.4-.3-.6-.5-1.7-.9-3.6-1.1-5.6-.2-2.9.7-5.5 1.6-7.8 2.9z" fill="url(#N)"/><radialGradient id="O" cx="1565.753" cy="-37.254" r="64.17" gradientTransform="matrix(1.927239e-02 -1.518902e-02 -8.794526e-02 -0.1112 236.2451 111.5411)" gradientUnits="userSpaceOnUse"><stop offset=".051" stop-color="#f2959a"/><stop offset="1" stop-color="#911917"/></radialGradient><path d="M264.3 86.8c.4.2.4.5.4.7-1-.3-1.9-.5-2.7-.5 4.1 3.2 8.1 7.3 12 12.2.3-1.1.4-2 .2-3h0c-.1-.1-.2-.3-.2-.5-1.9-3.1-3.9-5.5-6.1-6.9-.5-.4-1.2-.8-2-1.3-.6 0-1-.3-1.6-.7z" fill="url(#O)"/><linearGradient id="P" gradientUnits="userSpaceOnUse" x1="248.761" y1="124.235" x2="275.462" y2="103.191"><stop offset="0" stop-color="#5c5c5e"/><stop offset=".278" stop-color="#808183"/><stop offset="1" stop-color="#272626"/></linearGradient><path d="M257.6 105.7c.3.1.2.3.2.7-.4.8-.7 1.4-.8 2 .2-.2.5-.4.6-.5l.2-.2c3.3-2.8 6.9-4.8 10.9-6.3 2.1-.8 3.6-.9 4.3-.3.6.7 1 1.5 1.6 2.2h0c1.2 1.7 2 3.3 2.6 4.7.8 2 1 3 .4 3.2-3.8 2.2-7.3 4.6-10.8 7.5l-.2.2c-2.9 2.1-5.6 4.6-8.2 7.1 0 .3.2.5 0 .8v.3c-.2.3-.2.7-.1 1.1.1.1.1.1 0 .2 2.8-2.9 5.8-5.6 9-8.1l.2-.2c3.2-2.7 6.7-5 10.3-7.1l.1-.1c.1-.1.4-.3.5-.4.7-.6.9-1.4.4-2.3l-.1-.1c-1.3-2.9-3-6.3-5-9.8-.3-.4-.5-.9-.8-1.3-.1-.1-.4-.2-.4-.3-.4-.2-.8-.2-1.4-.2-5.1 1.9-9.5 4-13.5 7.2z" fill="url(#P)"/><linearGradient id="Q" gradientUnits="userSpaceOnUse" x1="248.829" y1="124.322" x2="275.531" y2="103.278"><stop offset="0" stop-color="#272626"/><stop offset=".467" stop-color="#808183"/><stop offset=".773" stop-color="#5c5c5e"/></linearGradient><path d="M257.7 106.3c.2-.3.1-.6-.2-.7l-.1.1-1 .8-.2.2c-4.5 3.2-8.1 7.4-10.5 12.4-.2.7-.2 1.3.1 1.9.3.4.6.8 1.1 1.1 3 2.8 5.7 5.2 8.4 7.1l.1.1c.8.7 1.5.6 2.3.2.1-.1.4-.3.5-.4l.1-.1c.1-.1.2-.2.3-.4-.1-.1-.1-.1 0-.2-.1-.4 0-.8.1-1.1-.1-.1-.1-.1 0-.3 0-.3.1-.6 0-.8-.5.6-1.1 1.1-1.6 1.7-.4.5-1.3.1-3-1.1-1.2-.7-2.5-1.9-3.8-3.3h0c-.7-.6-1.4-1.5-2.2-2.3-.5-.9-.2-2.2 1.3-4.1 2.3-3.3 4.8-6.1 8-8.6-.3-.8-.2-1.6.3-2.2z" fill="url(#Q)"/><linearGradient id="R" gradientUnits="userSpaceOnUse" x1="240.301" y1="121.489" x2="263.69" y2="85.249"><stop offset="0" stop-color="#f4a198"/><stop offset=".421" stop-color="#bd3f44"/><stop offset="1" stop-color="#ec867f"/></linearGradient><path d="M259.5 89.9c-2.3-1-4.6-1.3-6.6-1.2-2.6 1.2-4.9 2.7-6.9 4.5l-.2.2-1.3 1.1c-1.7 1.3-3.2 3-4.6 4.6-.5 2.1-.7 4.3-.4 6.7 1 4.8 3.1 9.1 6 12.8.1.1.2.3.3.4 2.4-4.9 6-9.1 10.5-12.4l.2-.2c.4-.3.6-.5 1-.8l.1-.1c4-3.2 8.4-5.3 13.4-6.4l-.2-.2c-3-3.7-6.9-6.6-11.3-9z" fill="url(#R)"/><linearGradient id="S" gradientUnits="userSpaceOnUse" x1="274.125" y1="101.387" x2="276.161" y2="99.782"><stop offset=".051" stop-color="#f2959a"/><stop offset="1" stop-color="#911917"/></linearGradient><path d="M275.5 98.8c-.4-.5-.8-1-1.2-1.7l-.6 2.3 1.1 1.4 1.8 2 .6-.3 1.1-.4-2.8-3.3z" fill="url(#S)"/><path d="M274.3 97.3c-.2-.3-.3-.6-.5-.9.1.9.1 1.9-.2 3l.1.1.6-2.2z" fill="#911915"/><path d="M272.3 99.4c.2 0 .4.2.4.3-.1-.1-.1-.2-.4-.3h0z" class="Aj"/><linearGradient id="T" gradientUnits="userSpaceOnUse" x1="284.718" y1="124.096" x2="290.744" y2="119.345"><stop offset="0" stop-color="#911917"/><stop offset=".604" stop-color="#ed6a6f"/><stop offset="1" stop-color="#a41b25"/></linearGradient><path d="M272.5 99.4c.1.1.2.2.2.3.3.4.6.8.8 1.3 2 3.5 3.8 6.8 5 9.8l.1.1c.5.9.3 1.6-.4 2.3 4.9 7.4 10.7 14.8 17.3 22.5 2.4.1 4.8 2.1 7.4 6.4.4-.2 1.1.1 1.6.7-.5-3.4-2.3-7.1-5.2-10.9-.2.7-1 .8-2 .4-.4-.2-.7-.4-1.1-.6l-.4-.2c-2.6-1.8-5.5-4.5-8.3-8.5l-.1-.1c-.2-.3-.4-.5-.6-.7l-.2-.2c-.2-.2-.3-.4-.4-.5-2.4-3.4-4.6-6.6-6.4-9.6l-3-5.8-2.4-4.5-1.1-1.4-.8-.8z" fill="url(#T)"/><path d="M277.3 102.7l-.6.3-1.8-2 2.4 4.5.4-1.3 10 12.6.6.7.2.3 1 1.2 9.9 12.5c-.3.4-.8.5-1.6.2-.4-.2-.8-.2-1.2-.5l1.1.6c.9.4 1.7.3 2-.4l-.2-.3-10.8-13.7-.1-.1-10.6-13.4c.5.4 1.2.3 2 .1l2.4-.9c.3-.1.4-.3.3-.6l-3.2 1.2c-.8.2-1.5.2-1.9-.2l-.6.3-.3-.6.6-.5z" class="Aq"/><radialGradient id="U" cx="7016.392" cy="923.79" r="98.457" gradientTransform="matrix(-1.605602e-03 -1.532402e-02 -3.721002e-02 9.418772e-03 325.7932 201.8644)" gradientUnits="userSpaceOnUse"><stop offset="0" stop-color="#f2959a"/><stop offset="1" stop-color="#a11c19"/></radialGradient><path d="M276.8 103.9l.6-.3c.4.3 1.1.4 1.9.2l3.2-1.2-.1-.1c-.4-.8-1.3-1.1-2.6-.8l-1.5.5-1.1.4-.2.3-.7.4.5.6z" fill="url(#U)"/><path d="M274.3 103.7h0z" fill="#343434"/><linearGradient id="V" gradientUnits="userSpaceOnUse" x1="280.563" y1="113.63" x2="283.357" y2="111.428"><stop offset="0" stop-color="#808183"/><stop offset="1" stop-color="#5b5b5d"/></linearGradient><path d="M277.6 104.1l-.4 1.3 3 5.8c1.8 3 3.9 6.2 6.4 9.6.1-.1 0-.2 0-.2h0c.5-1.4.9-2.7.9-3.6l.1-.1-10-12.8z" fill="url(#V)"/><linearGradient id="W" gradientUnits="userSpaceOnUse" x1="282.031" y1="111.418" x2="284.067" y2="109.813"><stop offset=".051" stop-color="#f2959a"/><stop offset="1" stop-color="#911917"/></linearGradient><path d="M279.8 104c-1 .3-1.7.3-2-.1l10.5 13.3c.5-.6.7-1.1.7-1.6l-.2-.2-3.1-3.9-5.9-7.5z" fill="url(#W)"/><linearGradient id="X" gradientUnits="userSpaceOnUse" x1="288.546" y1="118.086" x2="285.898" y2="120.173"><stop offset=".051" stop-color="#f2959a"/><stop offset=".239" stop-color="#af191a"/><stop offset="1" stop-color="#ed6a6b"/></linearGradient><path d="M288.2 117.5l-.6-.7-.1.1c-.1 1.1-.5 2.4-.9 3.6h0l.5.6c.7-1.1.9-2.3 1.1-3.6z" fill="url(#X)"/><path d="M285.9 111.6l3.1 3.9c.1-.6-.3-1.4-1.3-2.4-.9-1.1-1.6-1.4-1.8-1.5z" class="Ai"/><path d="M289.3 116l-.2-.2c-.1.6-.3 1.1-.7 1.6l.2.2c.3-.6.6-1.2.7-1.6z" class="Aj"/><path d="M277.8 113.3h0v.3c5.1 7.4 10.6 14.7 16.9 22.2l.2-.2c.2 0 .4-.2.6-.2-6.6-7.7-12.5-15.1-17.3-22.5 0 .2-.2.3-.4.4z" class="Aq"/><linearGradient id="Y" gradientUnits="userSpaceOnUse" x1="289.388" y1="119.155" x2="286.74" y2="121.242"><stop offset=".051" stop-color="#f2959a"/><stop offset=".239" stop-color="#af191a"/><stop offset="1" stop-color="#ed6a6b"/></linearGradient><path d="M289.4 119.1l-1-1.2c-.2 1.2-.6 2.5-1.3 3.6l.7.9c.9-1 1.2-2 1.6-3.3z" fill="url(#Y)"/><path d="M287 121.3l-.5-.6v.2c.2.2.3.4.4.5l.2.2c.2.3.4.5.6.7l.1.1c.1-.1.1-.1 0-.2l-.8-.9c.7-1.1 1-2.3 1.3-3.6l-.2-.3c-.1 1.4-.3 2.6-1.1 3.9z" class="Aj"/><linearGradient id="Z" gradientUnits="userSpaceOnUse" x1="291.479" y1="127.48" x2="294.273" y2="125.278"><stop offset="0" stop-color="#808183"/><stop offset="1" stop-color="#5b5b5d"/></linearGradient><path d="M287.9 122.4c-.1.1-.1.1 0 .2 2.9 4 5.6 6.8 8.3 8.5l.4.2c.4.3.8.3 1.2.5.8.2 1.2 0 1.6-.2l-10-12.6c-.4 1.4-.7 2.4-1.5 3.4z" fill="url(#Z)"/><linearGradient id="a" gradientUnits="userSpaceOnUse" x1="292.666" y1="124.912" x2="294.702" y2="123.307"><stop offset=".051" stop-color="#f2959a"/><stop offset="1" stop-color="#911917"/></linearGradient><path d="M289.3 116c-.1.4-.4 1-.7 1.6l10.8 13.6c.4-.7.5-1.4.7-2.2-.2-.2-.3-.4-.5-.6-.3-.4-.7-.6-.9-.9l-9.4-11.5z" fill="url(#a)"/><radialGradient id="b" cx="16627.018" cy="345.957" r="224.847" gradientTransform="matrix(1.548907e-02 -1.018772e-02 -5.971609e-02 -9.776933e-02 4.0461 315.847)" gradientUnits="userSpaceOnUse"><stop offset=".051" stop-color="#f2959a"/><stop offset="1" stop-color="#911917"/></radialGradient><path d="M236.1 110.1c-.2 0-.5-.1-.6-.5.3.6.4 1.2.5 1.6.2.8.4 1.5.8 2.2.9 2.4 2.8 4.9 5.3 7.5.2.2.5.4.7.6l2.7.5c-4.1-4.9-7.1-9.8-9.2-14.7-.3.7-.2 1.5-.2 2.8z" fill="url(#b)"/><path d="M242.7 121.4c.1.1.2.3.3.4l2.7.4c-.1-.1-.1-.1-.2-.3l-2.8-.5z" fill="#911915"/><linearGradient id="c" gradientUnits="userSpaceOnUse" x1="261.415" y1="141.684" x2="267.858" y2="136.607"><stop offset="0" stop-color="#911917"/><stop offset=".604" stop-color="#f2959a"/><stop offset="1" stop-color="#a41b25"/></linearGradient><path d="M246.1 120.7c-.2-.2-.2-.3-.4-.5l.1 1.6c.1.1.1.1.2.3.2.3.5.6.8 1l3.9 3.4 4.9 4.2c2.5 2.5 5.1 5.2 7.9 8.5.2.2.3.4.5.6.1.1.2.2.2.3.2.2.3.4.5.6l.1.1c3.2 3.8 5.3 7 6.3 10l.1.4c.1.4.2.8.4 1.2.2 1 0 1.7-.9 1.9 3.5 3.7 6.3 6.1 9 6.9-.1-.4 0-.8.1-1.1-3.4-3.6-4.9-6.5-4.5-8.7-5.9-8.2-11.8-15.7-17.8-22.1-.7.6-1.5.5-2.3-.2l-.1-.1c-2.5-2-5.4-4.3-8.4-7.1 0-.4-.3-.8-.6-1.2z" fill="url(#c)"/><linearGradient id="d" gradientUnits="userSpaceOnUse" x1="244.854" y1="124.458" x2="246.254" y2="123.355"><stop offset=".051" stop-color="#f2959a"/><stop offset="1" stop-color="#911917"/></linearGradient><path d="M246.6 123.1c-.2-.3-.5-.6-.8-1l-2.7-.4c.4.5.9.9 1.4 1.5l2.6 3.6.7-1.1.4-.5-1.6-2.1z" fill="url(#d)"/><radialGradient id="e" cx="3490.281" cy="11248.239" r="98.457" gradientTransform="matrix(1.206431e-02 3.763380e-03 1.254681e-02 -2.590084e-02 63.9719 406.6427)" gradientUnits="userSpaceOnUse"><stop offset="0" stop-color="#f2959a"/><stop offset="1" stop-color="#a11c19"/></radialGradient><path d="M246.3 128.3c-.6 1.2-.5 2.1.2 2.7l.1.1 1.9-2.8c.4-.8.5-1.4.3-1.9l.4-.5-.5-.4-.5.6-.3.1-.7 1.1-.9 1z" fill="url(#e)"/><path d="M246.6 130.8c.3.1.5.1.6-.2l1.5-2.1c.5-.9.7-1.6.4-2l10.7 13.5.2.2 10.8 13.6.2.2c.7-.1 1-.8.9-1.9-.1-.4-.2-.8-.4-1.2.2.5.1.9.2 1.3 0 .8-.2 1.2-.6 1.5l-10.8-13.6-.2-.3-.7-.9-10-12.7 1.3-.1-3.9-3.4 1.6 2.2-.4.5.3-.1.5-.6.5.4-.4.5c.2.5.2 1.2-.3 1.9l-2 3.3z" class="Aq"/><linearGradient id="f" gradientUnits="userSpaceOnUse" x1="232.911" y1="136.86" x2="273.922" y2="104.536"><stop offset=".278" stop-color="#a6a8aa"/><stop offset="1" stop-color="#565658"/></linearGradient><path d="M272.7 101.4c-.8-.7-2.1-.7-4.3.3-4 1.5-7.6 3.5-10.9 6.3l-.2.2c-.2.2-.5.4-.6.5-3.2 2.5-5.8 5.4-8 8.6-1.3 1.8-1.7 3.3-1.3 4.1.8.7 1.4 1.5 2.2 2.3h0c1.3 1.4 2.5 2.5 3.8 3.3 1.8 1.2 2.7 1.7 3 1.1.5-.6 1.1-1.2 1.6-1.7 2.5-2.5 5.2-4.9 8.2-7.1l.2-.2c3.3-2.8 7-5.3 10.8-7.5.6-.3.4-1.3-.4-3.2-.5-1.4-1.4-3-2.6-4.7l-.1.1.1-.1c-.3-.8-.9-1.5-1.5-2.3z" fill="url(#f)"/><linearGradient id="g" gradientUnits="userSpaceOnUse" x1="254.638" y1="134.062" x2="257.328" y2="131.942"><stop offset="0" stop-color="#808183"/><stop offset="1" stop-color="#5b5b5d"/></linearGradient><path d="M250.6 126.4l-1.3.1 10 12.7.1-.1c1.1.1 2.4.1 3.7 0h.2c-2.7-3.2-5.3-6-7.9-8.5l-4.8-4.2z" fill="url(#g)"/><linearGradient id="h" gradientUnits="userSpaceOnUse" x1="252.8" y1="134.54" x2="254.2" y2="133.437"><stop offset=".051" stop-color="#f2959a"/><stop offset="1" stop-color="#911917"/></linearGradient><path d="M248.9 126.5c.3.6 0 1.3-.4 2l6.1 7.7 3.5 4.4c.6 0 1.2-.2 1.6-.4l-10.8-13.7z" fill="url(#h)"/><path d="M258 128.9c-.1.1-.4.3-.5.4 6.1 6.4 11.9 13.9 17.8 22.1.2-.3.3-.6.5-.9-.2-.2-.3-.4-.5-.6-5.6-7.3-11.1-14.1-16.7-20.5-.1-.2-.3-.4-.6-.5h0z" class="Aq"/><path d="M257.5 140.2l-3.1-3.9c0 .2.2 1 1 2 1 1.2 1.6 1.8 2.1 1.9z" class="Ai"/><linearGradient id="i" gradientUnits="userSpaceOnUse" x1="260.082" y1="140.606" x2="262.73" y2="138.518"><stop offset=".051" stop-color="#f2959a"/><stop offset=".239" stop-color="#af191a"/><stop offset="1" stop-color="#ed6a6b"/></linearGradient><path d="M259.3 139.2h0l.6 1c1.2 0 2.5 0 3.8-.4l-.5-.6c-1.4.2-2.8.2-3.9 0z" fill="url(#i)"/><path d="M259.7 140.2c-.5.4-.9.6-1.6.4l.2.2 1.6-.4-.2-.2zm4.3-.5c-.2-.2-.3-.4-.5-.6-.1.1-.2 0-.2 0l.5.6c-1.2.3-2.4.4-3.8.4l.2.3c1.2 0 2.5 0 3.8-.4l.6.8c.1-.1.1-.1.2 0l-.1-.1c-.2-.2-.3-.4-.5-.6 0-.2-.2-.4-.2-.4z" class="Aj"/><linearGradient id="j" gradientUnits="userSpaceOnUse" x1="263.813" y1="139.559" x2="261.165" y2="141.646"><stop offset=".051" stop-color="#f2959a"/><stop offset=".239" stop-color="#af191a"/><stop offset="1" stop-color="#ed6a6b"/></linearGradient><path d="M260.2 140.4l.8 1c1.2 0 2.5-.1 3.7-.6l-.7-.8c-1.3.3-2.6.4-3.8.4z" fill="url(#j)"/><linearGradient id="k" gradientUnits="userSpaceOnUse" x1="265.565" y1="147.925" x2="268.254" y2="145.806"><stop offset="0" stop-color="#808183"/><stop offset="1" stop-color="#5b5b5d"/></linearGradient><path d="M264.8 140.8c-.1.1-.1.1-.2 0-1.2.5-2.3.6-3.7.6l10 12.6c.4-.2.6-.7.6-1.5-.1-.4 0-.8-.2-1.3l-.1-.4c-1.3-3-3.3-6.4-6.4-10z" fill="url(#k)"/><linearGradient id="l" gradientUnits="userSpaceOnUse" x1="263.596" y1="148.237" x2="264.995" y2="147.134"><stop offset=".051" stop-color="#f2959a"/><stop offset="1" stop-color="#911917"/></linearGradient><path d="M259.9 140.5c-.6.3-1.1.4-1.6.4l8.9 11.3c.1.4.4.7.7 1.1.1.1.2.3.3.4.9.4 1.8.6 2.6.3l-10.9-13.5z" fill="url(#l)"/><linearGradient id="m" gradientUnits="userSpaceOnUse" x1="290.729" y1="149.624" x2="278.607" y2="144.115"><stop offset="0" stop-color="#808183"/><stop offset="1" stop-color="#272626"/></linearGradient><use xlink:href="#AJ" fill="url(#m)"/><radialGradient id="n" cx="188.72" cy="285.528" r="17.32" gradientTransform="matrix(1.0589 -0.8346 -0.7013 -0.8898 271.4746 543.2018)" gradientUnits="userSpaceOnUse"><stop offset="0" stop-color="#f2958e"/><stop offset=".937" stop-color="#93191a"/></radialGradient><path d="M267.4 120.4h0c-3.3 2.6-6.3 5.2-9 8.1-.1.1-.2.3-.3.4h0c.2.2.3.4.5.6 5.8 6.3 11.4 13.3 16.7 20.5.2.2.3.4.5.6 3.4-1.9 6.7-4 9.9-6.6l.1-.1c3.4-2.5 6.1-5.2 8.8-8.1-6.2-7.3-11.8-14.8-16.9-22.2l-.2-.2c-3.4 2-6.7 4.3-10.1 7z" fill="url(#n)"/><radialGradient id="o" cx="1123.712" cy="2680.484" r="98.457" gradientTransform="matrix(0.1236 -9.739336e-02 -8.184250e-02 -0.1038 365.4887 534.6751)" gradientUnits="userSpaceOnUse"><stop offset="0" stop-color="#808183"/><stop offset="1" stop-color="#5b5b5d"/></radialGradient><path d="M277.4 150.7c-1.2.5-1.3 1.5-.6 3.3s2 3.2 3.6 4.6c.7.6 2 .6 3.7-.1 6.4-7.3 9.9-14.4 10.1-21.1-2.4 2.7-5.1 5.2-8 7.3l-.2.2c-2.3 2.1-5.3 4-8.6 5.8z" fill="url(#o)"/><path d="M268.1 153.7l.2.2c.9.4 1.8.6 2.6.3l-.2-.2c-.8.2-1.7.1-2.6-.3z" class="Aj"/><linearGradient id="p" gradientUnits="userSpaceOnUse" x1="271.983" y1="158.88" x2="273.383" y2="157.777"><stop offset=".051" stop-color="#f2959a"/><stop offset="1" stop-color="#911917"/></linearGradient><path d="M270.8 154.3c-.8.2-1.5.1-2.6-.3 2.4 3.4 5.4 6.3 8.3 9-2.4-2.8-4.4-5.5-5.7-8.7z" fill="url(#p)"/><radialGradient id="q" cx="10312.547" cy="2458.617" r="98.457" gradientTransform="matrix(2.499101e-02 -3.080371e-02 -0.1201 -8.118171e-02 318.9298 680.4235)" gradientUnits="userSpaceOnUse"><stop offset=".051" stop-color="#f2959a"/><stop offset="1" stop-color="#911917"/></radialGradient><path d="M280.1 161.9c-.2-.2-.2-.5-.4-.7-2.7-.9-5.7-3.3-9-6.9 1.3 3.1 3.2 6.1 5.9 8.7.2.2.4.3.6.5.8.8 1.8 1.5 2.8 2.3h0l.1.1c1.7 1.4 3.6 2.1 5.6 1.9h0c-1-.8-2.2-2.1-3.4-3.3-.6-.9-1.4-1.8-2.2-2.6z" fill="url(#q)"/><path d="M279.7 161.2c0 .3.2.5.4.7.7.9 1.6 1.7 2.2 2.6 2.5 1 4.3 1.2 5.4.7l2.5-1.1 2.7-1.3c-5.9 3-10.1 2.7-12.4-.8-.4-.5-.2-1 .2-1.2-.4 0-.8-.2-1.2-.2.2-.2.1.2.2.6z" class="Aj"/><linearGradient id="r" gradientUnits="userSpaceOnUse" x1="283.047" y1="164.807" x2="307.228" y2="145.75"><stop offset="0" stop-color="#ea4e52"/><stop offset=".886" stop-color="#911917"/><stop offset="1" stop-color="#f2959a"/></linearGradient><path d="M280.9 160.4c-.6.3-.6.8-.2 1.2 2.2 3.5 6.4 3.9 12.4.8 1.8-.9 3.4-2 4.9-3.2l.1-.1c2.3-1.8 4.5-4 6.6-6.5l.1-.1c.5-.6.7-1.1 1.3-1.6.8-1 1-2.8.6-5.4h0l-.1-.1c-.2-.3-.5-.6-.5-.9l-.1-.1c-.9-.9-1.5-1.1-1.8-.6-.4 2-1.4 3.9-3 5.9-3.4 4.2-7.6 7.6-12.3 10-1.9 1-3.8 1.4-5.3.7-.3.1-.8.2-1 .2-.8 0-1.2-.1-1.7-.2z" fill="url(#r)"/><path d="M280.1 165.9h0c.8 1.3 1.7 1.9 2.5 2.2.8.2 1.7.2 3.2-.2-2.1.1-4-.6-5.7-2z" fill="#f59d1e"/><linearGradient id="s" gradientUnits="userSpaceOnUse" x1="285.044" y1="167.763" x2="309.343" y2="148.612"><stop offset=".051" stop-color="#f2959a"/><stop offset=".239" stop-color="#b31d1a"/><stop offset=".944" stop-color="#f2959a"/><stop offset="1" stop-color="#e6696d"/></linearGradient><path d="M285.7 167.7l.2.2c.9.4 1.8.6 2.8.1 4-1.7 7.7-3.7 11.1-6.4h0l.2-.2c1.2-1 2.2-1.9 3.2-2.9-4.5 3.7-8 6.1-10.5 6.8-1 .3-1.8-.3-2.3-1.5-.8.5-1.6.7-2.5 1.1-1.1.6-2.9.3-5.4-.7 1.1 1.6 2.1 2.7 3.2 3.5z" fill="url(#s)"/><linearGradient id="t" gradientUnits="userSpaceOnUse" x1="298.597" y1="151.958" x2="289.436" y2="146.977"><stop offset="0" stop-color="#272626"/><stop offset="1" stop-color="#5b5b5d"/></linearGradient><path d="M284.3 158.4c-.3.4-.9.9-1.8 1.9.3-.1.7-.1 1-.2 2.7-.6 6.2-2.6 10.7-5.8l.2-.2c6.5-5.3 9.3-9.3 8.9-12.6-2.7-4.2-5.2-6.3-7.4-6.4-.2 0-.5.1-.6.2l-.3 1.6c.7-.9 1.8-.7 3.2.3 1.5 1.1 2.7 2.7 3.6 4.6s-1.9 5.6-8.3 10.9l-.2.2c-4 2.9-6.9 4.7-9 5.5z" fill="url(#t)"/><linearGradient id="u" gradientUnits="userSpaceOnUse" x1="281.367" y1="162.715" x2="305.548" y2="143.657"><stop offset="0" stop-color="#ea555a"/><stop offset="1" stop-color="#911917"/></linearGradient><path d="M283.4 160.4c1.7.6 3.5.4 5.3-.7 4.8-2.4 8.9-5.9 12.3-10 1.5-2 2.6-4 3-5.9.2-.5.9-.4 1.8.6-.4-.5-.8-1-1.2-1.7-.6-.5-1.2-.7-1.6-.7.5 3.1-2.4 7.2-8.9 12.6l-.2.2c-4.1 2.9-7.7 4.9-10.5 5.6z" fill="url(#u)"/><linearGradient id="v" gradientUnits="userSpaceOnUse" x1="286.471" y1="169.548" x2="310.77" y2="150.397"><stop offset=".051" stop-color="#e6a890"/><stop offset=".2" stop-color="#911917"/><stop offset=".773" stop-color="#911917"/><stop offset=".949" stop-color="#e6a890"/><stop offset="1" stop-color="#c68b73"/></linearGradient><path d="M290.4 164c.6 1.2 1.3 1.6 2.3 1.5 2.6-.7 6-3.1 10.5-6.8 1.5-1.5 3-3.2 4.3-4.7-1.1 1.2-1.9 1.8-2.8 2.2-.6-.3-1-.8-1.2-1.5.1-.6.6-1.3 1.1-1.9-1.9 2.5-4.2 4.6-6.6 6.5l-.1.1c-1.5 1.1-3.1 2.3-4.9 3.2-1 .5-1.8.9-2.6 1.4z" fill="url(#v)"/><path d="M300.1 129.4c-.1-.1-.2-.2-.2-.3 0 .8-.2 1.5-.7 2.2l.3.4c.4-.8.6-1.6.6-2.3z" class="Aj"/><radialGradient id="w" cx="-1889.081" cy="3310.853" r="208.522" gradientTransform="matrix(2.215053e-02 -1.240840e-02 -5.095583e-02 -0.1067 510.8087 467.0479)" gradientUnits="userSpaceOnUse"><stop offset=".118" stop-color="#f2959a"/><stop offset=".955" stop-color="#911917"/></radialGradient><path d="M305.6 137.2c-.1-.1-.1-.1 0 0-1.6-2.7-3.4-5.3-5.4-7.8 0 .8-.2 1.5-.6 2.3 2.8 3.9 4.7 7.4 5.2 10.9.4.5.8 1 1.2 1.7l.1.1c.2.3.5.6.5.9l.1.1c.8 1 1.4 1.5 1.8 1.3.5-.2-.5-3.3-2.9-9.5z" fill="url(#w)"/><radialGradient id="x" cx="1123.712" cy="2680.484" r="98.457" gradientTransform="matrix(0.1236 -9.739336e-02 -8.184250e-02 -0.1038 365.4887 534.6751)" gradientUnits="userSpaceOnUse"><stop offset=".239" stop-color="#808183"/><stop offset="1" stop-color="#5b5b5d"/></radialGradient><path d="M294.4 137.2h0c-.4 6.9-3.8 13.9-10.2 21.2 2.1-.8 5-2.6 8.6-5.5h0l.2-.2c6.5-5.3 9.3-8.9 8.3-10.9-.9-1.9-2.1-3.4-3.6-4.6s-2.5-1.2-3.2-.3c.1.2.1.2-.1.3z" fill="url(#x)"/><linearGradient id="y" gradientUnits="userSpaceOnUse" x1="282.328" y1="169.2" x2="309.069" y2="148.125"><stop offset=".051" stop-color="#f2959a"/><stop offset=".255" stop-color="#911917"/><stop offset=".71" stop-color="#a41b25"/><stop offset=".949" stop-color="#f2959a"/><stop offset=".994" stop-color="#ee767b"/></linearGradient><path d="M304.7 156c.8-.3 1.7-1 2.8-2.2.4-.5.7-1.1 1.1-1.6.6-.8.7-1.6.6-2.8l-.2-.2c-.6-1.2-1.5-2.6-2.4-4 .4 2.7.2 4.5-.6 5.4-.5.6-.8 1.2-1.3 1.6h0l-.1.1c-.5.6-.9 1.4-1.1 1.9.2 1 .5 1.4 1.2 1.8z" fill="url(#y)"/><radialGradient id="z" cx="-2064.941" cy="3541.033" r="95.975" gradientTransform="matrix(2.215053e-02 -1.240840e-02 -5.095583e-02 -0.1067 532.1004 491.8854)" gradientUnits="userSpaceOnUse"><stop offset=".282" stop-color="#eb5b5a"/><stop offset="1" stop-color="#911917"/></radialGradient><path d="M308.5 143.3h0c-.9-2.1-2-4-3.2-6.1 2.5 6.1 3.6 9.2 3 9.3-.4.2-1-.2-1.8-1.3l2.4 4c.9-1.8.7-3.8-.4-5.9h0z" fill="url(#z)"/><linearGradient id="AA" gradientUnits="userSpaceOnUse" x1="283.532" y1="111.308" x2="280.007" y2="114.086"><stop offset="0" stop-color="#272626"/><stop offset="1" stop-color="#808183"/></linearGradient><path d="M277.6 104.1l-.4 1.3 3 5.8c1.8 3 3.9 6.2 6.4 9.6.6-1.5 1-2.8 1-3.9h0l-10-12.8z" fill="url(#AA)"/><linearGradient id="AB" gradientUnits="userSpaceOnUse" x1="294.489" y1="125.209" x2="290.963" y2="127.987"><stop offset="0" stop-color="#272626"/><stop offset="1" stop-color="#808183"/></linearGradient><path d="M289.4 119.1c-.2 1.3-.7 2.6-1.5 3.5 2.9 4 5.6 6.8 8.3 8.5l.4.2c.4.3.8.3 1.2.5.8.2 1.2 0 1.6-.2l-10-12.5z" fill="url(#AB)"/><linearGradient id="AC" gradientUnits="userSpaceOnUse" x1="257.524" y1="131.808" x2="254.384" y2="134.282"><stop offset="0" stop-color="#272626"/><stop offset="1" stop-color="#808183"/></linearGradient><path d="M250.6 126.4l-1.3.1 10 12.7.1-.1c1.1.1 2.5.2 4.1-.1-2.7-3.2-5.3-6-7.9-8.5l-5-4.1z" fill="url(#AC)"/><linearGradient id="AD" gradientUnits="userSpaceOnUse" x1="268.49" y1="145.721" x2="265.351" y2="148.195"><stop offset="0" stop-color="#272626"/><stop offset="1" stop-color="#808183"/></linearGradient><path d="M264.8 140.8c-1.2.5-2.5.8-3.8.7l9.9 12.5c.4-.2.6-.7.6-1.5-.1-.4 0-.8-.2-1.3l-.1-.4c-1.3-3-3.3-6.4-6.4-10z" fill="url(#AD)"/><linearGradient id="AE" gradientUnits="userSpaceOnUse" x1="274.927" y1="147.026" x2="309.839" y2="147.614"><stop offset="0" stop-color="#272626"/><stop offset="1" stop-color="#808183"/></linearGradient><use xlink:href="#AJ" fill="url(#AE)"/><linearGradient id="AF" gradientUnits="userSpaceOnUse" x1="302.592" y1="148.835" x2="264.179" y2="148.503"><stop offset="0" stop-color="#030405"/><stop offset="1" stop-color="#808183"/></linearGradient><path d="M282.4 160.4c.3-.1.7-.1 1-.2 2.7-.6 6.2-2.6 10.7-5.8l.2-.2c6.5-5.3 9.3-9.3 8.9-12.6-2.7-4.2-5.2-6.3-7.4-6.4-.2 0-.5.1-.6.2l-.3 1.6c.7-.9 1.8-.7 3.2.3 1.5 1.1 2.7 2.7 3.6 4.6s-1.9 5.6-8.3 10.9l-.2.2c-3.7 2.8-6.5 4.7-8.6 5.5-.6.1-1.1.9-2.2 1.9z" fill="url(#AF)"/><radialGradient id="AG" cx="188.741" cy="266.666" r="11.976" gradientTransform="matrix(1.0589 -0.8346 -0.7013 -0.8898 271.4746 543.2018)" gradientUnits="userSpaceOnUse"><stop offset="0" stop-color="#808183"/><stop offset="1" stop-color="#293237"/></radialGradient><path d="M297.8 137.5c-1.5-1.1-2.5-1.2-3.2-.3l-.2.2c-2.4 2.7-5.1 5.2-8 7.3l-.2.2c-2.7 2.3-5.8 4.4-9.1 6.2-1.2.5-1.3 1.5-.6 3.3s2 3.2 3.6 4.6c.7.6 2 .6 3.7-.1 2.1-.8 5-2.6 8.6-5.5l.2-.2c6.5-5.3 9.3-8.9 8.3-10.9-.4-2.1-1.6-3.6-3.1-4.8z" fill="url(#AG)"/><linearGradient id="AH" gradientUnits="userSpaceOnUse" x1="265.545" y1="128.057" x2="259.62" y2="102.718"><stop offset="0" stop-color="#363639"/><stop offset=".264" stop-color="#040506"/><stop offset=".438" stop-color="#555659"/><stop offset="1" stop-color="#030405"/></linearGradient><path d="M257.6 105.7h0l-1 .8-.2.2c-4.5 3.2-8.1 7.4-10.5 12.4-.2.7-.2 1.3.1 1.9.3.4.6.8 1.1 1.1 3 2.8 5.7 5.2 8.4 7.1l.1.1c.8.7 1.5.6 2.3.2.1-.1.4-.3.5-.4l.1-.1c.1-.1.2-.2.3-.4 2.8-2.9 5.8-5.6 9-8.1l.2-.2c3.2-2.7 6.7-5 10.3-7.1l.1-.1c.1-.1.4-.3.5-.4.7-.6.9-1.4.4-2.3l-.1-.1c-1.3-2.9-3-6.3-5-9.8-.3-.4-.5-.9-.8-1.3-.1-.1-.4-.2-.4-.3-.4-.2-.8-.2-1.4-.2-5.6 1.7-10 3.8-14 7zm-.1 2.1h0c3.3-2.8 7-4.8 10.9-6.3 2.1-.8 3.6-.9 4.3-.3.6.7 1 1.5 1.6 2.2h0c1.2 1.7 2 3.3 2.6 4.7.8 2 1 3 .4 3.2-3.8 2.2-7.3 4.6-10.8 7.5l-.2.2c-2.9 2.1-5.6 4.6-8.2 7.1-.5.6-1.1 1.1-1.6 1.7-.4.5-1.3.1-3-1.1-1.2-.7-2.5-1.9-3.8-3.3h0c-.7-.6-1.4-1.5-2.2-2.3-.5-.9-.2-2.2 1.3-4.1 2.3-3.3 4.8-6.1 8-8.6.3-.2.5-.4.7-.6h0z" fill="url(#AH)"/><path d="M316.3 153.2l-7.6-.9 5.2 5.6-5.9-5 1.4 7.6-2.3-7.3-3 7.1 2.1-7.4-6.3 4.3 5.7-5.1-7.7.3 7.6-1.2-6.6-3.9 7.1 3-3.5-6.8 4.3 6.4.8-7.7.1 7.7 4.8-6-4 6.6 7.3-2.5-7 3.3zm-49.3-64l-7.6-1 5.2 5.7-5.9-5 1.4 7.6-2.3-7.4-2.9 7.1 2-7.4-6.3 4.4 5.7-5.1-7.7.3 7.6-1.3-6.6-3.9 7.1 3.1-3.5-6.9 4.3 6.4.8-7.6.1 7.7 4.9-6-4.1 6.5 7.3-2.4-6.9 3.3z" fill="#f3ff00"/><path d="M461.5 213.4c2.1 10.2 2.1 20.8 0 31.1-.4 1.6-1.7 2.8-3.4 2.8h-65.4c-4.3 0-7.9-3.2-8.5-7.3a80.31 80.31 0 0 1 0-21.9c.6-4.3 4.3-7.3 8.5-7.3h65.4c1.7-.2 3.1 1 3.4 2.6z" class="Al"/><path d="M383.9 221a69.57 69.57 0 0 0 0 15.8h8.3V221h-8.3z" fill="#231f20"/><path d="M388.4 218.5c-.5 3.4-.7 6.8-.7 10.3 0 3.4.2 6.9.7 10.3.4 2.1 2.1 3.6 4.3 3.6h69.1c1.7-9.2 1.7-18.7 0-28h-69c-2.2.3-4.1 1.8-4.4 3.8z" class="Al"/><path d="M412.6 218.3v21.3l-21.8-3.3c-.9-4.9-.9-9.8 0-14.7l21.8-3.3z" fill="#a1cd91"/><path d="M385.8 214c1.5-1 3.4-1.5 5.5-1.5h60c1.7 4.9 2.7 10.3 2.7 16.3s-1 11.4-2.7 16.3h-60c-2.1 0-3.9-.6-5.5-1.5a8.62 8.62 0 0 0 6.9 3.4h66c.1 0 .4-.1.5-.1h.1c.1-.1.4-.1.4-.1h.1c.1-.1.4-.1.4-.2h0c.4-.1.6-.4.7-.7h0c.1-.1.1-.2.4-.4h0c.1-.1.1-.4.2-.5h0c.1-.1.1-.4.1-.5 2.1-10.2 2.1-20.8 0-31.1 0-.1-.1-.4-.1-.5h0c-.1-.1-.1-.4-.2-.5h0c-.1-.1-.1-.4-.4-.4h0l-.7-.7c-.1-.1-.2-.1-.4-.2h-.1c-.1-.1-.4-.1-.4-.1h-.1c-.1-.1-.4-.1-.5-.1h-66c-2.9-.3-5.3 1.1-6.9 3.1z" class="Al"/><path d="M442.7 241.9l1.5 1.2c1.1 1 .5 2.7-1 2.7h-33.8l9-3.9h24.3z" class="Am"/><path d="M443.8 244.2c0 .2-.1.7-.6.7h-29.7l5-2.1h23.9l1.2 1c.2.1.2.3.2.4z" class="Ak"/><path d="M411.5 246.7l1.3 2.4c.4.7 1.2 1.3 2.1 1.5l.9.1-1.3-3.6-2.1-.7-.5-1.2-.7.2.3 1.3z" class="Al"/><path d="M414 247.3l1.2 3.6.5.1-1.4-3.8-2.1-.7-.5-1.2h-.2l.4 1.3zm28.7-31.4l1.5-1.2c1.1-1 .5-2.7-1-2.7h-33.8l9 3.9h24.3z" class="Am"/><path d="M443.8 213.5c0-.2-.1-.7-.6-.7h-29.7l5 2.1h23.9l1.2-1c.2 0 .2-.1.2-.4z" class="Ak"/><path d="M411.5 211l1.3-2.4c.4-.7 1.2-1.3 2.1-1.5l.9-.1-1.3 3.6-2.1.7-.5 1.2-.7-.2.3-1.3z" class="Al"/><path d="M414 210.4l1.2-3.4.5-.1-1.4 3.6-2.1.9-.5 1.2-.2-.1.4-1.4z" class="Am"/><path d="M391.3 243.7s-3.8-.1-3.9-5.7h-2.1c-.1 0 0 5.6 6 5.7z" fill="#fbfaf9"/><path d="M391.3 243.7s-.1 0-.4-.1c-5-.6-5.1-5.6-5.1-5.6h-.6s.1 5.6 6.1 5.7z" fill="#e8e5d9"/><path d="M385.2 238.5h1.7c.1 2.6 1 4 1.9 4.7a13.33 13.33 0 0 0 2.6.5s-3.8-.1-3.9-5.7h-2.1c-.2 0-.2.1-.2.5z" class="Ak"/><path d="M391.3 214s-3.8.1-3.9 5.7h-2.1c-.1 0 0-5.5 6-5.7z" fill="#fbfaf9"/><path d="M391.3 214s-.1 0-.4.1c-5 .6-5.1 5.6-5.1 5.6h-.6s.1-5.5 6.1-5.7z" fill="#e8e5d9"/><path d="M385.2 219.3h1.7c.1-2.6 1-4 1.9-4.7a13.33 13.33 0 0 1 2.6-.5s-3.8.1-3.9 5.7h-2.1c-.2-.1-.2-.2-.2-.5z" class="Ak"/><path d="M387.2 235.8c-.4-4.6-.4-9.2 0-13.7h-1.7c-.4 4.6-.4 9.2 0 13.7h1.7z" fill="#8ac26e"/><path d="M417.9 217.1v23.6l-6.8 3.2c-1.6.7-3.4-.1-3.9-1.8a52.83 52.83 0 0 1 0-26.2c.4-1.7 2.3-2.6 3.9-1.8l6.8 3z" class="Am"/><path d="M417.2 240.2l-6.2 2.9a2.48 2.48 0 0 1-1.7 0c-.6-.2-.9-.7-1-1.2-1.1-4.3-1.7-8.6-1.7-12.9s.6-8.7 1.7-12.9c.1-.6.6-1 1-1.2a2.48 2.48 0 0 1 1.7 0c2.4 1.1 5.2 2.3 6.2 2.9v22.4z" class="Ak"/><path d="M444.5 217.1v23.6a5.3 5.3 0 0 0 .9.7c2.1 1.9 5.5.7 5.8-2.1 1.1-7 1.1-14.2 0-21.3-.5-2.8-3.8-3.9-5.8-2.1-.5.8-.9 1.2-.9 1.2z" class="Am"/><path d="M451.2 228.9c0 3.5-.4 7-.9 10.5-.1 1-.7 1.7-1.7 2.1s-1.9.1-2.7-.6c-.2-.2-.5-.4-.6-.6v-22.8l.6-.6c.7-.7 1.7-.9 2.7-.6 1 .4 1.6 1.1 1.7 2.1.5 3.4.9 7.1.9 10.5z" class="Ak"/><path d="M459.2 210.8c-.6.6-.7 1.5.7 2.9 1.5 1.5 1 6 2.6 6.3-.2-2.2-.6-4.5-1-6.7-.2-1.2-1.2-2.2-2.3-2.5h0zm0 36.2c-.6-.6-.7-1.5.7-2.9 1.5-1.5 1-6 2.6-6.3-.2 2.2-.6 4.5-1 6.7-.2 1.1-1.2 2.1-2.3 2.5h0z" fill="#ef7b6f"/><path d="M460.7 236h2.1a67.4 67.4 0 0 0 0-14.2h-2.1a67.4 67.4 0 0 1 0 14.2z" fill="#f1f2f2"/><path d="M430.4 232.7l-.6 3.1h-2.5l2.9-13.5h3.1l2.6 13.5h-2.5l-.6-3.1h-2.4zm2.1-2l-.4-2.8-.4-3.1h-.1c-.1.9-.3 2.3-.5 3.1l-.5 2.8h1.9z" fill="#e4f411"/><path d="M268.9 127.1c.5-.6 1.3-1.3 2.2-2 1-.8 2.1-1.4 3.3-1.3.9 0 1.7.6 2.3 1.3.7 1 .9 2.3.2 3.5v.1c1.5-.6 3-.1 3.9 1.1.7.9.9 1.8.8 2.7-.1 1.2-.9 2.4-2.7 3.7l-2 1.4-8-10.5zm5.3 2.7l.4-.3c.8-.6.8-1.6.2-2.5-.6-.8-1.4-1.1-2.3-.5-.2.2-.4.3-.5.5l2.2 2.8zm3.6 4.8c.2-.1.3-.2.5-.3.8-.6 1.2-1.7.3-2.8-.8-1.1-2-1.1-2.8-.5l-.4.3 2.4 3.3z" fill="#ead90f"/><defs ><path id="AJ" d="M275.9 150.5c-.2.2-.4.5-.5.9-.5 2.4 1 5.2 4.5 8.7.4.2.8.2 1.2.2.5.1 1 0 1.4 0l1.8-1.9c-1.8.7-3 .7-3.7.1-1.6-1.3-2.9-2.9-3.6-4.6s-.6-2.8.6-3.3c3.2-1.7 6.3-3.8 9.1-6.2l.2-.2c2.9-2.1 5.6-4.6 8-7.3l.2-.2.3-1.6-.2.2c-2.6 2.9-5.4 5.6-8.8 8.1l-.1.1c-3.6 3-6.9 5.3-10.4 7z"/></defs></svg>