<svg xmlns="http://www.w3.org/2000/svg" xmlns:xlink="http://www.w3.org/1999/xlink" viewBox="0 0 990 768"><style><![CDATA[.X{fill:#304048}.Y{fill:#3c4f58}.Z{stroke-width:164}.a{stroke-width:120}]]></style><path d="M0 0h990v768H0z" fill="#519356"/><g fill="none" stroke-miterlimit="10"><path d="M475.4 677l-.4-567" stroke="gray" class="Z"/><path d="M475.4 677l-.4-567" stroke="#fff" stroke-width="122"/><path d="M475.4 677l-.4-567" stroke="#333" class="a"/><path d="M.5 109.5h990" stroke="gray" class="Z"/><path d="M.5 109.5h990" stroke="#fff" stroke-width="125"/><path d="M.5 109.5h990" stroke="#333" class="a"/><path d="M0 647h990" stroke="gray" class="Z"/><path d="M0 647h990" stroke="#fff" stroke-width="125"/><path d="M0 647h990" stroke="#333" class="a"/></g><path d="M411 140h128v455H411z" fill="#333"/><linearGradient id="A" gradientUnits="userSpaceOnUse" x1="597.431" y1="502.99" x2="589.169" y2="502.99"><stop offset="0" stop-color="#edebe9"/><stop offset="0" stop-color="#e1deda"/><stop offset="0" stop-color="#d6d1cc"/><stop offset=".07" stop-color="#c7c3be"/><stop offset=".146" stop-color="#b2aeaa"/><stop offset=".523" stop-color="#e6e6e6"/><stop offset=".633" stop-color="#d9d8d7"/><stop offset=".844" stop-color="#b8b4b0"/><stop offset=".876" stop-color="#b2aeaa"/><stop offset="1" stop-color="#d9d9d9"/><stop offset="1" stop-color="#b1b1b1"/></linearGradient><path d="M589.2 456.7l1.9 1.9 2-1.9 2.3 1.9 2-1.9v92.6h-8.2z" fill="url(#A)"/><g transform="matrix(1.25 0 0 -1.25 0 488.90373)"><defs><path id="B" d="M431.8 9.4h88.4v59h-88.4z"/><path id="C" d="M470.6 21.5a1.79 1.79 0 1 0-3.6 0 1.79 1.79 0 1 0 3.6 0"/><path id="D" d="M465.9 47.5h2.1v-1.9a.47.47 0 0 0-.5-.5h-1.1a.47.47 0 0 0-.5.5"/><path id="E" d="M475.9 231.1h2v-1.9a.47.47 0 0 0-.5-.5h-1a.47.47 0 0 0-.5.5"/><path id="F" d="M56.4 299.9h2.2v8.8c.3-.7.9-1.4 1.6-1.8.6-.4 1.4-.7 2.2-.7 1.6 0 4.2 1.2 4.2 6v8.4h-2.2v-8.1c0-2.3-.7-4.2-2.8-4.2-1.4 0-2.5 1.2-2.9 2.6-.1.3-.1.7-.1 1.2v8.5h-2.2v-20.7z"/><path id="G" d="M72.7 302.5c0 .9-.5 1.6-1.4 1.6-.8 0-1.3-.7-1.3-1.6s.6-1.6 1.4-1.6 1.3.7 1.3 1.6zm-2.4 18v-14h2.2v14h-2.2z"/><path id="H" d="M75.8 317.9c.6.5 1.8 1 2.9 1 1.6 0 2.3-.9 2.3-2.1s-.6-1.9-2.2-2.6c-2.2-.9-3.2-2.3-3.2-4 0-2.3 1.6-4.1 4.2-4.1 1.2 0 2.3.4 3 .9l-.5 1.9c-.5-.3-1.3-.8-2.5-.8-1.3 0-2 .9-2 1.9 0 1.2.7 1.7 2.3 2.4 2.1.9 3.2 2.1 3.2 4.2 0 2.5-1.6 4.2-4.5 4.2-1.3 0-2.5-.4-3.4-1l.4-1.9z"/><path id="I" d="M103.3 310.8l-.1-4.4h1.9l.1 2.8h.1c.5-1.9 1.9-3.1 3.3-3.1.2 0 .4 0 .6.1v2.4c-.2-.1-.4-.1-.7-.1-1.5 0-2.6 1.4-2.9 3.3 0 .3-.1.8-.1 1.2v7.5h-2.2v-9.7z"/><path id="J" d="M130.4 320.5l-.2-1.8h-.1c-.7 1.1-2 2.1-3.7 2.1-2.4 0-3.7-2-3.7-4 0-3.4 2.6-5.3 7.3-5.2v-.3c0-1.2-.3-3.2-2.7-3.2-1.1 0-2.3.4-3.1 1l-.5-1.7c1-.8 2.4-1.2 4-1.2 3.7 0 4.6 2.9 4.6 5.7v5.3c0 1.2 0 2.4.2 3.4h-2.1zm-.3-7.2c-2.4-.1-5.1.4-5.1 3.2 0 1.7.9 2.4 2.1 2.4 1.6 0 2.6-1.2 2.9-2.3.1-.3.1-.6.1-.8v-2.5z"/><path id="K" d="M161.6 313.9c.1 3.5 1.9 4.9 4.1 4.9 1.6 0 2.5-.3 3.3-.7l.4 1.8c-.8.4-2.1.9-4 .9-3.7 0-5.9-2.8-5.9-7.1s2.1-7.6 5.7-7.6c3.9 0 5 4 5 6.6 0 .5-.1.9-.1 1.2h-8.5zm6.4-1.8c0-1.6-.6-4.1-3-4.1-2.2 0-3.2 2.4-3.4 4.1h6.4z"/><path id="L" d="M243.7 310.3l-.1-3.8h1.9l.1 2.3c.6-1.3 2-2.6 4-2.6 1.7 0 4.3 1.2 4.3 6v8.4h-2.2v-8.1c0-2.3-.7-4.1-2.8-4.1-1.4 0-2.6 1.2-2.9 2.6-.1.3-.1.8-.1 1.2v8.4h-2.2v-10.3z"/><path id="M" d="M293.3 320.5l-.2-1.8h-.1c-.7 1.1-2 2.1-3.7 2.1-2.4 0-3.7-2-3.7-4 0-3.4 2.6-5.3 7.3-5.2v-.3c0-1.2-.3-3.2-2.7-3.2-1.1 0-2.3.4-3.1 1l-.5-1.7c1-.8 2.4-1.2 4-1.2 3.7 0 4.6 2.9 4.6 5.7v5.3c0 1.2 0 2.4.2 3.4h-2.1zm-.4-7.2c-2.4-.1-5.1.4-5.1 3.2 0 1.7.9 2.4 2.1 2.4 1.6 0 2.6-1.2 2.9-2.3.1-.3.1-.6.1-.8v-2.5z"/><path id="N" d="M367.2 313.4c0 5.2-3.1 7.5-6 7.5-3.3 0-5.8-2.8-5.8-7.2 0-4.7 2.6-7.5 6-7.5 3.4-.1 5.8 2.9 5.8 7.2zm-9.6.1c0 3.1 1.5 5.4 3.7 5.4 2.1 0 3.7-2.3 3.7-5.5 0-2.4-1-5.4-3.6-5.4s-3.8 2.8-3.8 5.5z"/><path id="O" d="M402.8 319c0-1.1.6-1.8 1.5-1.8s1.5.8 1.5 1.8-.6 1.8-1.5 1.8-1.5-.8-1.5-1.8z"/><path id="P" d="M35.1 345.8l-.1-4.6h2l.1 2.4c.9-1.7 2.3-2.7 4.3-2.7 2.9 0 5.1 2.9 5.1 7.1 0 5-2.6 7.5-5.5 7.5-1.6 0-3-.8-3.7-2.2h0v7.6h-2.2v-15.1zm2.2 3.8c0 .4 0 .7.1 1 .4 1.8 1.7 3 3.3 3 2.3 0 3.7-2.2 3.7-5.4 0-2.8-1.3-5.2-3.6-5.2-1.5 0-2.9 1.2-3.3 3.2-.1.3-.1.7-.1 1v2.4z"/><path id="Q" d="M128.3 348.2c0 5.2-3.1 7.5-6 7.5-3.3 0-5.8-2.8-5.8-7.2 0-4.7 2.6-7.5 6-7.5 3.5-.1 5.8 2.9 5.8 7.2zm-9.6.1c0 3.1 1.5 5.4 3.7 5.4 2.1 0 3.7-2.3 3.7-5.5 0-2.4-1-5.4-3.6-5.4s-3.8 2.8-3.8 5.5z"/><path id="R" d="M211.1 355.3c.1-1 .1-2.4.1-3.6v-17h2.2v8.8c.8-1.6 2.2-2.6 4.1-2.6 3 0 5.1 2.9 5.1 7.2 0 5-2.7 7.5-5.4 7.5-1.7 0-3.1-.8-4-2.6h-.1l-.1 2.3h-1.9zm2.3-5.6c0 .3 0 .6.1.9.4 1.8 1.7 3 3.3 3 2.3 0 3.7-2.2 3.7-5.4 0-2.8-1.2-5.2-3.6-5.2-1.5 0-2.9 1.2-3.3 3.1 0 .3-.1.6-.1 1v2.6z"/><path id="S" d="M226.6 348.7c.1 3.5 1.9 4.9 4.1 4.9 1.6 0 2.5-.3 3.3-.7l.4 1.8c-.8.4-2.1.9-4 .9-3.7 0-5.9-2.8-5.9-7.1 0-4.2 2.1-7.6 5.7-7.6 3.9 0 5 4 5 6.6 0 .5-.1.9-.1 1.2h-8.5zm6.4-1.8c0-1.6-.6-4.1-3-4.1-2.2 0-3.2 2.4-3.4 4.1h6.4z"/><path id="T" d="M22.8 379.9l-.1-3.8h1.9l.1 2.3c.6-1.3 2-2.6 4-2.6 1.7 0 4.3 1.2 4.3 6v8.4h-2.2V382c0-2.3-.7-4.1-2.8-4.1-1.4 0-2.6 1.2-2.9 2.6-.1.3-.1.8-.1 1.2v8.4h-2.2v-10.2z"/><path id="U" d="M108.6,63.9h3.2v25.6h-3.2V63.9z"/><path id="V" d="M138.7 81.4c.1 4.3 2.8 6 6 6 2.3 0 3.6-.4 4.8-.9l.5 2.3c-1.1.5-3 1.1-5.8 1.1-5.4 0-8.6-3.5-8.6-8.8s3.1-9.4 8.2-9.4c5.7 0 7.2 5 7.2 8.2 0 .6-.1 1.2-.1 1.5h-12.2zm9.3-2.3c0-2-.8-5.1-4.4-5.1-3.2 0-4.6 3-4.9 5.1h9.3z"/><path id="W" d="M175.1 88.9c-.8.4-2.7 1-5 1-5.3 0-8.7-3.6-8.7-8.9 0-5.4 3.7-9.3 9.4-9.3 1.9 0 3.5.5 4.4.9l-.7 2.4c-.8-.4-1.9-.8-3.7-.8-4 0-6.2 3-6.2 6.6 0 4 2.6 6.5 6 6.5 1.8 0 3-.5 3.9-.9l.6 2.5z"/><path id="X" d="M188.4 89.5l-.3-2.2h-.1c-1 1.4-2.8 2.6-5.3 2.6-3.5 0-5.3-2.5-5.3-5 0-4.2 3.7-6.5 10.5-6.5V78c0-1.4-.4-4-4-4-1.6 0-3.3.5-4.5 1.3l-.7-2.1c1.4-.9 3.5-1.5 5.7-1.5 5.3 0 6.6 3.6 6.6 7.1v6.5c0 1.5.1 3 .3 4.2h-2.9zm-.5-8.9c-3.5-.1-7.4.5-7.4 3.9 0 2.1 1.4 3 3 3 2.3 0 3.7-1.4 4.2-2.9.1-.3.2-.7.2-1v-3z"/><path id="Y" d="M196.1 77.5l-.1-5.4h2.8l.1 3.4h.1c.8-2.3 2.7-3.8 4.8-3.8.4 0 .6 0 .9.1v3c-.3-.1-.6-.1-1.1-.1-2.2 0-3.8 1.7-4.2 4.1-.1.4-.1.9-.1 1.5v9.3h-3.1V77.5z"/><path id="Z" d="M264.9 86.3c.9.6 2.6 1.3 4.2 1.3 2.3 0 3.4-1.2 3.4-2.6 0-1.5-.9-2.3-3.2-3.2-3.1-1.1-4.6-2.8-4.6-4.9 0-2.8 2.3-5.1 6-5.1 1.8 0 3.3.5 4.3 1.1l-.8 2.3c-.7-.4-1.9-1-3.6-1-1.9 0-2.9 1.1-2.9 2.4 0 1.4 1 2.1 3.3 3 3 1.2 4.6 2.7 4.6 5.3 0 3.1-2.4 5.2-6.5 5.2-1.9 0-3.7-.5-4.9-1.2l.7-2.6z"/><path id="a" d="M283.5 67.1v5h4.5v2.4h-4.5v9.4c0 2.2.6 3.4 2.4 3.4.8 0 1.4-.1 1.8-.2l.1 2.4c-.6.3-1.6.4-2.8.4-1.5 0-2.7-.5-3.4-1.3-.9-.9-1.2-2.5-1.2-4.5v-9.5h-2.7v-2.4h2.7V68l3.1-.9z"/><path id="b" d="M355.1 80.6c0 6.4-4.5 9.3-8.7 9.3-4.7 0-8.4-3.5-8.4-9 0-5.8 3.8-9.3 8.6-9.3 5.1.1 8.5 3.7 8.5 9zm-13.9.2c0 3.8 2.2 6.7 5.3 6.7 3 0 5.3-2.8 5.3-6.8 0-3-1.5-6.7-5.2-6.7-3.7.1-5.4 3.5-5.4 6.8z"/><path id="c" d="M433.6 63.9V85l.1 4.5h-2.8l-.1-3h-.1c-1 1.9-3.1 3.4-5.9 3.4-4.2 0-7.5-3.6-7.5-8.9 0-5.8 3.6-9.4 7.8-9.4 2.7 0 4.5 1.3 5.3 2.7h.1V63.9h3.1zm-3.1 15.3c0-.4 0-.9-.1-1.3-.5-2-2.2-3.7-4.6-3.7-3.3 0-5.2 2.9-5.2 6.7 0 3.5 1.7 6.4 5.1 6.4 2.1 0 4.1-1.4 4.6-3.8.1-.4.1-.9.1-1.4v-2.9z"/><path id="d" d="M474 80.6c0 6.4-4.5 9.3-8.7 9.3-4.7 0-8.4-3.5-8.4-9 0-5.8 3.8-9.3 8.6-9.3 5.1.1 8.5 3.7 8.5 9zm-13.8.2c0 3.8 2.2 6.7 5.3 6.7 3 0 5.3-2.8 5.3-6.8 0-3-1.5-6.7-5.2-6.7-3.8.1-5.4 3.5-5.4 6.8z"/><path id="e" d="M553.5 76.8l-.1-4.7h2.8l.2 2.9h.1c.9-1.7 2.9-3.3 5.8-3.3 2.4 0 6.2 1.4 6.2 7.4v10.4h-3.2v-10c0-2.8-1-5.1-4-5.1-2.1 0-3.7 1.5-4.2 3.2-.1.4-.2.9-.2 1.5v10.5h-3.2V76.8z"/><path id="f" d="M621.5 89.5v-15h-2.4v-2.4h2.4v-.8c0-2.4.5-4.7 2-6.1 1.2-1.2 2.8-1.6 4.2-1.6 1.1 0 2.1.3 2.7.5l-.4 2.4c-.5-.2-1.1-.4-2-.4-2.7 0-3.4 2.4-3.4 5v.9h4.2v2.4h-4.2v15h-3.1z"/><path id="g" d="M89.1 115.5l-.1-5.4h2.8l.1 3.4h.1c.8-2.3 2.7-3.8 4.8-3.8.4 0 .6 0 .9.1v3c-.3-.1-.6-.1-1.1-.1-2.2 0-3.8 1.7-4.2 4.1-.1.4-.1.9-.1 1.5v9.3h-3.1v-12.1z"/><path id="h" d="M182.5 101.9V123l.1 4.5h-2.8l-.1-3h-.1c-1 1.9-3.1 3.4-5.9 3.4-4.2 0-7.5-3.6-7.5-8.9 0-5.8 3.6-9.4 7.8-9.4 2.7 0 4.5 1.3 5.3 2.7h.1v-10.4h3.1zm-3.2 15.3c0-.4 0-.9-.1-1.3-.5-2-2.2-3.7-4.6-3.7-3.3 0-5.2 2.9-5.2 6.7 0 3.5 1.7 6.4 5.1 6.4 2.1 0 4.1-1.4 4.6-3.8.1-.4.1-.9.1-1.4v-2.9z"/></defs><clipPath id="i"><use xlink:href="#B"/></clipPath><g clip-path="url(#i)"><g transform="translate(0 -.877)"><defs><path id="j" d="M431.8 10.3h88.4v59h-88.4z"/></defs><clipPath id="k"><use xlink:href="#j"/></clipPath><g clip-path="url(#k)"><path d="M443.8 16.3a3.12 3.12 0 0 0-3.1 3.1v40.8a3.12 3.12 0 0 0 3.1 3.1h64.3a3.12 3.12 0 0 0 3.1-3.1V19.4a3.12 3.12 0 0 0-3.1-3.1" fill="#fff"/><path d="M443.8 63.4c-1.8 0-3.2-1.4-3.2-3.2V19.4c0-1.8 1.4-3.2 3.2-3.2h64.3c1.8 0 3.2 1.4 3.2 3.2v40.8c0 1.8-1.4 3.2-3.2 3.2h-64.3zm0-.1h64.3a3.12 3.12 0 0 0 3.1-3.1V19.4a3.12 3.12 0 0 0-3.1-3.1h-64.3a3.12 3.12 0 0 0-3.1 3.1v40.8a3.12 3.12 0 0 0 3.1 3.1z"/></g></g><path d="M443.8 16.6c-1.1 0-2 .9-2 2v40.8c0 1.1.9 2 2 2h64.3c1.1 0 2-.9 2-2V18.5c0-1.1-.9-2-2-2" fill="#154889"/><g fill="#fff"><path d="M455.9 34.1V19.6c-1.4 0-2.5 1.1-2.5 2.5v8.8l-6.3-10.1c-1.2.7-1.5 2.3-.8 3.5l4.6 7.3V34m5 .7h-5v4.7l-3.4-5.4c-1 .6-1.3 2-.7 3l4.4 7.1c.7 1.2 2.3 1.5 3.5.8.7-.5 1.2-1.3 1.2-2.1V40l4.7-2.8c-.6-1-2-1.4-3-.8l-1.7 1m1.5 11.5c0-1.4-1.1-2.5-2.5-2.5s-2.5 1.1-2.5 2.5 1.1 2.5 2.5 2.5 2.5-1.1 2.5-2.5"/><use xlink:href="#C"/><path d="M479.4 29.1l-2.3-1.9c-.5-.4-1.3-.4-1.7.1l4 4c.8-.4 1.8-.3 2.6.2l2.7-.6c.1 0 .2-.1.2-.2l1.4-2.8c-.6-.3-1.4-.1-1.7.6l-.7 1.3h-1.3l1.1-4.4 2.5-.2c.7 0 1.2-.6 1.2-1.3h-4.2c-.1 0-.2.1-.3.2l-.6.9-1.3-.4v-3.8c0-.7-.5-1.2-1.2-1.3m2.5 14.4a1.8 1.8 0 1 0-3.6 0 1.8 1.8 0 1 0 3.6 0M468 56.3c-.4 0-.7-.2-.8-.5l-1.4-3.2c-.1-.2-.2-.4-.4-.6l-.2-.3c-.1-.2-.2-.4-.2-.6v-2.3c0-.5.4-.9.9-.9H479c.5 0 .9.4.9.9V51c0 .2-.1.5-.2.6l-.2.3c-.1.2-.3.4-.4.6l-1.4 3.2c-.1.3-.5.5-.8.5H468v.1zm.3-.9h8.4c.1 0 .3-.1.3-.2l1.2-2.8h-11.5l1.2 2.8c.1.2.2.2.4.2zm-1.3-3.8a1.11 1.11 0 0 0 1.1-1.1 1.11 1.11 0 0 0-1.1-1.1 1.11 1.11 0 0 0-1.1 1.1 1.11 1.11 0 0 0 1.1 1.1zm10.9 0a1.11 1.11 0 0 0 1.1-1.1 1.11 1.11 0 0 0-1.1-1.1 1.11 1.11 0 0 0-1.1 1.1c.1.6.5 1.1 1.1 1.1z"/><use xlink:href="#D"/><path d="M476.9 47.5h2.1v-1.9a.47.47 0 0 0-.5-.5h-1.1a.47.47 0 0 0-.5.5m21 12.2l-1.9-1.2v.9h-1.9v-2.1l-6.1-4h3.4V38.1h12.9v13.3h3.4l-9.8 6.4zm0-1.1l5.3-4.4V39.2h-3.8v5.7h-3v-5.7h-3.8v13.1l5.3 4.4z"/><path d="M494.1 51.4h3v-3.8h-3v3.8zm4.5 0h3v-3.8h-3v3.8zm5.6-29l-13 9.4c-4.2 3.1-6.7 7.9-6.7 13.2h1.6c0-4.7 2.3-9.1 6.1-11.9l12.1-8.8"/></g></g></g><linearGradient id="l" gradientUnits="userSpaceOnUse" x1="610.791" y1="274.023" x2="602.529" y2="274.023"><stop offset="0" stop-color="#edebe9"/><stop offset="0" stop-color="#e1deda"/><stop offset="0" stop-color="#d6d1cc"/><stop offset=".07" stop-color="#c7c3be"/><stop offset=".146" stop-color="#b2aeaa"/><stop offset=".523" stop-color="#e6e6e6"/><stop offset=".633" stop-color="#d9d8d7"/><stop offset=".844" stop-color="#b8b4b0"/><stop offset=".876" stop-color="#b2aeaa"/><stop offset="1" stop-color="#d9d9d9"/><stop offset="1" stop-color="#b1b1b1"/></linearGradient><path d="M602.5 227.8l2 1.8 2-1.8 2.3 1.8 2-1.8v92.5h-8.3z" fill="url(#l)"/><g transform="matrix(1.25 0 0 -1.25 0 488.90373)"><defs><path id="m" d="M443 194.4h85.3v56.9H443z"/></defs><clipPath id="n"><use xlink:href="#m"/></clipPath><g clip-path="url(#n)"><g transform="translate(0 -.877)"><defs><path id="o" d="M443 195.3h85.3v56.9H443z"/></defs><clipPath id="p"><use xlink:href="#o"/></clipPath><g clip-path="url(#p)"><path d="M454.6,201c-1.7,0-3,1.4-3,3v39.3c0,1.7,1.4,3,3,3h62c1.7,0,3-1.4,3-3V204 c0-1.7-1.4-3-3-3" fill="#fff"/><path d="M454.6 246.4a3.12 3.12 0 0 1-3.1-3.1V204a3.12 3.12 0 0 1 3.1-3.1h62a3.12 3.12 0 0 1 3.1 3.1v39.3a3.12 3.12 0 0 1-3.1 3.1h-62zm0 0h62a3.01 3.01 0 0 0 3-3V204a3.01 3.01 0 0 0-3-3h-62a3.01 3.01 0 0 0-3 3v39.3c-.1 1.7 1.3 3.1 3 3.1z"/></g></g><path d="M454.6 201.3c-1 0-1.9.8-1.9 1.9v39.3c0 1 .8 1.9 1.9 1.9h62c1 0 1.9-.8 1.9-1.9v-39.3c0-1-.8-1.9-1.9-1.9" fill="#154889"/><g fill="#fff"><path d="M466.2 218.2v-14c-1.3 0-2.4 1.1-2.4 2.4v8.5l-6.1-9.7c-1.1.7-1.5 2.2-.8 3.3l4.4 7.1v2.3m4.9.7h-4.9v4.6l-3.2-5.2c-1 .6-1.3 1.9-.7 2.9l4.3 6.9c.7 1.1 2.2 1.5 3.3.8.7-.4 1.1-1.2 1.1-2.1V224l4.6-2.7c-.6-1-1.9-1.3-2.9-.7l-1.6 1m1.5 10.8c0-1.3-1.1-2.4-2.4-2.4s-2.4 1.1-2.4 2.4 1.1 2.4 2.4 2.4 2.4-1 2.4-2.4m12.7-26.4a1.8 1.8 0 1 0-3.6 0 1.79 1.79 0 0 0 1.8 1.8c1-.1 1.8-.9 1.8-1.8"/><path d="M488.9 213.4l-2.2-1.8a1.24 1.24 0 0 0-1.7.1l3.9 3.9c.8-.3 1.7-.3 2.5.2l2.6-.6c.1 0 .2-.1.2-.2l1.3-2.7c-.6-.3-1.3-.1-1.7.6l-.6 1.2H492l1.1-4.2 2.4-.2c.6 0 1.1-.6 1.1-1.2h-4c-.1 0-.2.1-.3.2l-.6.9-1.2-.4v-3.7c0-.7-.5-1.2-1.2-1.2m2.4 13.6a1.8 1.8 0 1 0-3.6 0 1.8 1.8 0 1 0 3.6 0m-13.8 21.7c-.3 0-.6-.2-.8-.5l-1.3-3.1c-.1-.2-.2-.4-.4-.6l-.2-.3c-.1-.2-.2-.4-.2-.6v-2.2c0-.5.4-.8.8-.8h12.6c.5 0 .9.4.9.8v2.2c0 .2-.1.4-.2.6l-.2.3c-.1.2-.3.4-.4.6l-1.3 3.1c-.1.3-.4.5-.8.5h-8.5zm.2-.8h8.1c.1 0 .3-.1.3-.2l1.2-2.7h-11.1l1.2 2.7c.1.1.2.2.3.2zm-1.2-3.8c.6 0 1-.5 1-1 0-.6-.5-1-1-1-.6 0-1 .5-1 1a.94.94 0 0 0 1 1zm10.6 0c.6 0 1-.5 1-1 0-.6-.5-1-1-1-.6 0-1 .5-1 1-.1.6.4 1 1 1z"/><use xlink:href="#E"/><path d="M486.4 231.1h2v-1.9a.47.47 0 0 0-.5-.5h-1a.47.47 0 0 0-.5.5m20.3 11.9l-1.8-1.2v.8H503v-2l-5.9-3.8h3.3V222h12.5v12.8h3.3l-9.5 6.3zm0-1.1l5.1-4.2v-12.6h-3.7v5.5h-2.9v-5.5h-3.7v12.6l5.2 4.2z"/><path d="M503 234.8h2.9v-3.7H503v3.7zm4.4 0h2.9v-3.7h-2.9v3.7zm5.4-27.9l-12.6 9.1c-4.1 2.9-6.5 7.7-6.5 12.7h1.5c0-4.5 2.2-8.8 5.8-11.4l11.7-8.5"/></g><path d="M452.7 204.2l60.4 40.3h3.6c1 0 1.9-.8 1.9-1.9v-1l-60.4-40.3h-3.6c-1 0-1.9.8-1.9 1.9" fill="#c1121c"/></g></g><g fill="#fff"><path d="M25.1 300.9v19.6h-2.2v-19.6h2.2zm3.9 9.4l-.1-3.8h1.9l.1 2.3c.6-1.3 2-2.6 4-2.6 1.7 0 4.3 1.2 4.3 6v8.4H37v-8.1c0-2.3-.7-4.1-2.8-4.1-1.4 0-2.6 1.2-2.9 2.6-.1.3-.1.8-.1 1.2v8.4H29v-10.3zm21.8-7.9v4H54v1.9h-3.1v7.6c0 1.7.4 2.7 1.6 2.7.6 0 1-.1 1.3-.2l.1 1.9c-.4.2-1.1.3-1.9.3a3.04 3.04 0 0 1-2.4-1.1c-.6-.8-.8-2-.8-3.7v-7.7h-1.9v-1.9h1.9v-3.4l2-.4z"/><use xlink:href="#F"/><use xlink:href="#G"/><use xlink:href="#H"/><path d="M98 320.5l-.2-1.8h-.1c-.7 1.1-2 2.1-3.7 2.1-2.4 0-3.7-2-3.7-4 0-3.4 2.6-5.3 7.3-5.2v-.3c0-1.2-.3-3.2-2.7-3.2-1.1 0-2.3.4-3.1 1l-.5-1.7c1-.8 2.4-1.2 4-1.2 3.7 0 4.6 2.9 4.6 5.7v5.3c0 1.2 0 2.4.2 3.4H98zm-.4-7.2c-2.4-.1-5.1.4-5.1 3.2 0 1.7.9 2.4 2.1 2.4 1.6 0 2.6-1.2 2.9-2.3.1-.3.1-.6.1-.8v-2.5z"/><use xlink:href="#I"/><path d="M112.4 313.9c.1 3.5 1.9 4.9 4.1 4.9 1.6 0 2.5-.3 3.3-.7l.4 1.8c-.8.4-2.1.9-4 .9-3.7 0-5.9-2.8-5.9-7.1s2.1-7.6 5.7-7.6c3.9 0 5 4 5 6.6 0 .5-.1.9-.1 1.2h-8.5zm6.5-1.8c0-1.6-.6-4.1-3-4.1-2.2 0-3.2 2.4-3.4 4.1h6.4z"/><use xlink:href="#J"/><path d="M134.3 324.1c.5-1.7 1.2-4.8 1.5-6.9l2.4-.3c-.6 2.5-1.7 5.7-2.4 7l-1.5.2zm11.9-13.1l-.1-4.6h2l.1 2.4c.9-1.7 2.3-2.7 4.3-2.7 2.9 0 5.1 2.9 5.1 7.1 0 5-2.6 7.5-5.5 7.5-1.6 0-3-.8-3.7-2.2h0v7.6h-2.2V311zm2.2 3.8c0 .4 0 .7.1 1 .4 1.8 1.7 3 3.3 3 2.3 0 3.7-2.2 3.7-5.4 0-2.8-1.3-5.2-3.6-5.2-1.5 0-2.9 1.2-3.3 3.2-.1.3-.1.7-.1 1v2.4z"/><use xlink:href="#K"/><path d="M183.3 299.9v17l.1 3.6h-2l-.1-2.4h-.1c-.7 1.6-2.1 2.8-4.1 2.8-2.9 0-5.2-2.9-5.2-7.1 0-4.7 2.5-7.5 5.4-7.5 1.8 0 3.1 1 3.6 2.1h0V300h2.4zm-2.2 12.3c0-.3 0-.8-.1-1.1-.3-1.6-1.5-3-3.2-3-2.3 0-3.6 2.3-3.6 5.4 0 2.8 1.2 5.2 3.6 5.2 1.5 0 2.8-1.1 3.2-3 .1-.3.1-.7.1-1.1v-2.4z"/><use xlink:href="#K" x="26.6"/><use xlink:href="#H" x="123.4"/><path d="M212 302.4v4h3.1v1.9H212v7.6c0 1.7.4 2.7 1.6 2.7.6 0 1-.1 1.3-.2l.1 1.9c-.4.2-1.1.3-1.9.3a3.04 3.04 0 0 1-2.4-1.1c-.6-.8-.8-2-.8-3.7v-7.7H208v-1.9h1.9v-3.4l2.1-.4z"/><use xlink:href="#I" x="114.3"/><use xlink:href="#G" x="155.6"/><use xlink:href="#J" x="108"/><use xlink:href="#L"/><use xlink:href="#H" x="181.5"/><use xlink:href="#F" x="216.3"/><use xlink:href="#M"/><path d="M299.3 306.5l2.4 7.9 1 3.6h.1l1-3.6 2.3-7.9h2.3l-4.7 14h-2.1l-4.6-14h2.3zm12.1 7.4c0 3.5 1.9 4.9 4.1 4.9 1.6 0 2.5-.3 3.3-.7l.4 1.8c-.8.4-2.1.9-4 .9-3.7 0-5.9-2.8-5.9-7.1s2.1-7.6 5.7-7.6c3.9 0 5 4 5 6.6 0 .5 0 .9-.1 1.2h-8.5zm6.4-1.8c0-1.6-.6-4.1-3-4.1-2.2 0-3.2 2.4-3.4 4.1h6.4zm10.1-1.1l-.1-4.6h2l.1 2.4c.9-1.7 2.3-2.7 4.3-2.7 2.9 0 5.1 2.9 5.1 7.1 0 5-2.6 7.5-5.5 7.5-1.6 0-3-.8-3.7-2.2h-.1v7.6h-2.2V311zm2.2 3.8c0 .4.1.7.1 1 .4 1.8 1.7 3 3.3 3 2.3 0 3.7-2.2 3.7-5.4 0-2.8-1.3-5.2-3.6-5.2-1.5 0-2.9 1.2-3.3 3.2-.1.3-.2.7-.2 1v2.4z"/><use xlink:href="#I" x="238.8"/><use xlink:href="#G" x="280.1"/><use xlink:href="#N"/><use xlink:href="#I" x="266.6"/><use xlink:href="#G" x="307.9"/><path d="M386.7 302.4v4h3.1v1.9h-3.1v7.6c0 1.7.4 2.7 1.6 2.7.6 0 1-.1 1.3-.2l.1 1.9c-.4.2-1.1.3-1.9.3a3.04 3.04 0 0 1-2.4-1.1c-.6-.8-.8-2-.8-3.7v-7.7h-1.9v-1.9h1.9v-3.4l2.1-.4zm6.6 4.1l2.6 8.3a31.31 31.31 0 0 1 .8 2.9h0l.8-2.9 2.4-8.2h2.3l-3.3 10c-1.6 4.8-2.6 7.3-4.1 8.8-1.1 1.1-2.1 1.5-2.7 1.7l-.5-2.1c.5-.2 1.3-.6 1.9-1.2s1.3-1.5 1.8-2.8c.1-.3.2-.5.2-.6s0-.3-.1-.7l-4.5-12.9h2.4z"/><use xlink:href="#O"/><path d="M22.6 352.2c1 .7 2.4 1.3 3.9 1.3 2.2 0 3.5-1.4 3.5-3.3 0-1.8-.9-2.9-3.2-3.9-2.7-1.1-4.4-2.8-4.4-5.5 0-3 2.2-5.3 5.4-5.3 1.7 0 3 .5 3.7 1l-.6 2.1c-.5-.3-1.7-.9-3.2-.9-2.3 0-3.2 1.6-3.2 2.9 0 1.8 1 2.7 3.3 3.8 2.8 1.3 4.3 2.9 4.3 5.7 0 3-1.9 5.6-5.9 5.6-1.6 0-3.4-.6-4.3-1.2l.7-2.3z"/><use xlink:href="#P"/><path d="M50.5 348.7c.1 3.5 1.9 4.9 4.1 4.9 1.6 0 2.5-.3 3.3-.7l.4 1.8c-.8.4-2.1.9-4 .9-3.7 0-5.9-2.8-5.9-7.1 0-4.2 2.1-7.6 5.7-7.6 3.9 0 5 4 5 6.6 0 .5-.1.9-.1 1.2h-8.5zm6.5-1.8c0-1.6-.6-4.1-3-4.1-2.2 0-3.2 2.4-3.4 4.1H57zm6 1.8c.1 3.5 1.9 4.9 4.1 4.9 1.6 0 2.5-.3 3.3-.7l.4 1.8c-.8.4-2.1.9-4 .9-3.7 0-5.9-2.8-5.9-7.1 0-4.2 2.1-7.6 5.7-7.6 3.9 0 5 4 5 6.6 0 .5-.1.9-.1 1.2H63zm6.5-1.8c0-1.6-.6-4.1-3-4.1-2.2 0-3.2 2.4-3.4 4.1h6.4zm15.2-12.2v17l.1 3.6h-2l-.1-2.4h-.1c-.7 1.6-2.1 2.8-4.1 2.8-2.9 0-5.2-2.9-5.2-7.1 0-4.7 2.5-7.5 5.4-7.5 1.8 0 3.1 1 3.6 2.1h0v-8.4h2.4zM82.5 347c0-.3 0-.8-.1-1.1-.3-1.6-1.5-3-3.2-3-2.3 0-3.6 2.3-3.6 5.4 0 2.8 1.2 5.2 3.6 5.2 1.5 0 2.8-1.1 3.2-3 .1-.3.1-.7.1-1.1V347z"/><use xlink:href="#H" x="17.6" y="34.8"/><use xlink:href="#F" x="47.2" y="34.8"/><use xlink:href="#Q"/><path d="M141.2 351.5l.1 3.8h-1.9l-.1-2.3c-.6 1.1-1.8 2.6-4 2.6-1.9 0-4.2-1.2-4.2-6.1v-8.2h2.2v7.8c0 2.7.7 4.5 2.7 4.5 1.5 0 2.5-1.2 2.9-2.3.1-.4.2-.8.2-1.3v-8.6h2.2v10.1zm3.6-16.8h2.2v20.6h-2.2v-20.6zm16.4 0v17l.1 3.6h-2l-.1-2.4h-.1c-.7 1.6-2.1 2.8-4.1 2.8-2.9 0-5.2-2.9-5.2-7.1 0-4.7 2.5-7.5 5.4-7.5 1.8 0 3.1 1 3.6 2.1h0v-8.4h2.4zM159 347c0-.3 0-.8-.1-1.1-.3-1.6-1.5-3-3.2-3-2.3 0-3.6 2.3-3.6 5.4 0 2.8 1.2 5.2 3.6 5.2 1.5 0 2.8-1.1 3.2-3 .1-.3.1-.7.1-1.1V347z"/><use xlink:href="#L" x="-73.6" y="34.8"/><use xlink:href="#N" x="-172.3" y="34.8"/><path d="M200.3 337.2v4h3.1v1.9h-3.1v7.6c0 1.7.4 2.7 1.6 2.7.6 0 1-.1 1.3-.2l.1 1.9c-.4.2-1.1.3-1.9.3a3.04 3.04 0 0 1-2.4-1.1c-.6-.8-.8-2-.8-3.7v-7.7h-1.9V341h1.9v-3.4l2.1-.4z"/><use xlink:href="#R"/><use xlink:href="#S"/><use xlink:href="#M" x="-43.4" y="34.8"/><use xlink:href="#R" x="44"/><use xlink:href="#Q" x="152"/><path d="M283.8 341.3l2.4 7.9 1 3.6h.1l1-3.6 2.3-7.9h2.3l-4.7 14H286l-4.6-14h2.4zm12.1 7.4c.1 3.5 1.9 4.9 4.1 4.9 1.6 0 2.5-.3 3.3-.7l.4 1.8c-.8.4-2.1.9-4 .9-3.7 0-5.9-2.8-5.9-7.1 0-4.2 2.1-7.6 5.7-7.6 3.9 0 5 4 5 6.6 0 .5 0 .9-.1 1.2h-8.5zm6.4-1.8c0-1.6-.6-4.1-3-4.1-2.2 0-3.2 2.4-3.4 4.1h6.4z"/><use xlink:href="#T"/><use xlink:href="#Q" x="-80.7" y="34.8"/><use xlink:href="#I" x="-52.9" y="69.6"/><path d="M58.6 379.9l-.1-3.8h1.9l.1 2.3h.1c.7-1.3 1.8-2.6 3.8-2.6 1.6 0 2.9 1.2 3.4 2.8h.1c.4-.8.8-1.4 1.3-1.8a3.87 3.87 0 0 1 2.7-1c1.6 0 4 1.2 4 6.1v8.3h-2.1v-7.9c0-2.7-.8-4.3-2.6-4.3-1.2 0-2.2 1.1-2.6 2.3a4.44 4.44 0 0 0-.2 1.3v8.7h-2.1v-8.4c0-2.2-.8-3.9-2.5-3.9-1.4 0-2.4 1.3-2.7 2.6-.1.4-.2.8-.2 1.2v8.5h-2.1v-10.4z"/><use xlink:href="#J" x="-44.3" y="69.6"/><path d="M91.5 369.5h2.2v20.6h-2.2v-20.6zm12 6.6l1.6 7.1.9 4.5h.1l1.1-4.4 2-7.2h1.8l1.9 7 1.1 4.6h.1c.2-1.4.5-2.9.9-4.6l1.7-7h2.2l-3.9 14h-2l-1.8-6.7-1.1-4.6h-.1c-.3 1.7-.7 3.1-1.1 4.6l-1.9 6.7h-2l-3.6-14h2.1z"/><use xlink:href="#J" x="-2.8" y="69.6"/><path d="M132.9 369.5h2.2v20.6h-2.2v-20.6zm8.1 13h0c.3-.5.8-1.1 1.1-1.6l3.5-4.8h2.6l-4.7 5.8 5.3 8.3h-2.7l-4.2-6.7-1.1 1.5v5.3h-2.2v-20.6h2.2v12.8zm12.4-10.4c0 .9-.5 1.6-1.4 1.6-.8 0-1.3-.7-1.3-1.6s.6-1.6 1.4-1.6 1.3.7 1.3 1.6zm-2.5 18v-14h2.2v14h-2.2z"/><use xlink:href="#T" x="134"/><path d="M181 376.1l-.1 3.9v8.2c0 3.2-.5 5.2-1.7 6.4-1.2 1.3-2.9 1.7-4.4 1.7-1.4 0-3-.4-4-1.2l.5-1.9c.8.6 2 1.1 3.5 1.1 2.2 0 3.9-1.4 3.9-4.9v-1.6c-.7 1.3-2 2.3-3.8 2.3-3 0-5.1-3-5.1-6.8 0-4.8 2.7-7.5 5.4-7.5 2.1 0 3.2 1.3 3.8 2.4h0l.1-2.1h1.9zm-2.2 5.5c0-.4 0-.8-.1-1.2-.4-1.5-1.5-2.7-3.1-2.7-2.1 0-3.6 2.1-3.6 5.3 0 2.8 1.2 5 3.6 5 1.3 0 2.6-1 3-2.6.1-.4.2-.9.2-1.4v-2.4zm11.1-12.1h2.2v8.8c.3-.7.9-1.4 1.6-1.8.6-.4 1.4-.7 2.2-.7 1.6 0 4.2 1.2 4.2 6v8.4h-2.2V382c0-2.3-.7-4.2-2.8-4.2-1.4 0-2.5 1.2-2.9 2.6-.1.3-.1.7-.1 1.2v8.5h-2.2v-20.6zm23.9 16.8l.1 3.8H212l-.1-2.3c-.6 1.1-1.8 2.6-4 2.6-1.9 0-4.2-1.2-4.2-6.1v-8.2h2.2v7.8c0 2.7.7 4.5 2.7 4.5 1.5 0 2.5-1.2 2.9-2.3.1-.4.2-.8.2-1.3v-8.6h2.2v10.1zm3.6-6.4l-.1-3.8h1.9l.1 2.3h.1c.7-1.3 1.8-2.6 3.8-2.6 1.6 0 2.9 1.2 3.4 2.8h.1c.4-.8.8-1.4 1.3-1.8a3.87 3.87 0 0 1 2.7-1c1.6 0 4 1.2 4 6.1v8.3h-2.1v-7.9c0-2.7-.8-4.3-2.6-4.3-1.2 0-2.2 1.1-2.6 2.3a4.44 4.44 0 0 0-.2 1.3v8.7H225v-8.4c0-2.2-.8-3.9-2.5-3.9-1.4 0-2.4 1.3-2.7 2.6-.1.4-.2.8-.2 1.2v8.5h-2.1v-10.4z"/><use xlink:href="#J" x="114.5" y="69.6"/><use xlink:href="#T" x="227.5"/><use xlink:href="#H" x="193.3" y="69.6"/><use xlink:href="#P" x="244.2" y="34.8"/><use xlink:href="#S" x="68.1" y="34.8"/><path d="M307.2 383.5c0 3.5 1.9 4.9 4.1 4.9 1.6 0 2.5-.3 3.3-.7l.4 1.8c-.8.4-2.1.9-4 .9-3.7 0-5.9-2.8-5.9-7.1 0-4.2 2.1-7.6 5.7-7.6 3.9 0 5 4 5 6.6 0 .5 0 .9-.1 1.2h-8.5zm6.4-1.8c0-1.6-.6-4.1-3-4.1-2.2 0-3.2 2.4-3.4 4.1h6.4zm15.3-12.2v17l.1 3.6h-2l-.1-2.4c-.7 1.6-2.1 2.8-4.1 2.8-2.9 0-5.2-2.9-5.2-7.1 0-4.7 2.5-7.5 5.4-7.5 1.8 0 3.1 1 3.6 2.1h0v-8.4h2.3zm-2.2 12.3c0-.3 0-.8-.1-1.1-.3-1.6-1.5-3-3.2-3-2.3 0-3.6 2.3-3.6 5.4 0 2.8 1.2 5.2 3.6 5.2 1.5 0 2.8-1.1 3.2-3 .1-.3.1-.7.1-1.1v-2.4z"/><use xlink:href="#O" x="-71" y="69.6"/><path d="M477.2 584.8h-2.1c-17 0-30-5.8-38.8-17.3-8.4-10.3-12.6-24.1-12.6-41.3l.4-115c0-16.2-7.9-24.4-23.8-24.6v-6.3l7-.4c11.2-1.9 16.8-10.1 16.8-24.6l-.4-115c0-17.5 4.6-31.5 13.9-41.9 9.1-10.5 22.3-15.8 39.6-15.8v6.3l-8.8.6-7 1.9c-14.6 5.6-22.1 20.1-22.5 43.6l-1.5 109.5c-.4 18-8.7 31-24.9 39 16.2 7.7 24.6 20.9 24.9 39.4l1.5 109.1c.5 30.7 12.9 46.2 37.3 46.5h1v6.3zM89.2 65.6c1.4-.3 3.5-.5 5.7-.5 3.1 0 5.1.5 6.7 1.8 1.3.9 2 2.4 2 4.3 0 2.3-1.5 4.4-4.1 5.3v.1c2.3.6 5 2.5 5 6.1 0 2.1-.8 3.7-2.1 4.9-1.7 1.5-4.4 2.3-8.4 2.3-2.2 0-3.8-.1-4.9-.3v-24zm3.2 9.9h2.8c3.3 0 5.3-1.7 5.3-4.1 0-2.8-2.2-4-5.3-4-1.4 0-2.3.1-2.8.2v7.9zm0 11.6c.6.1 1.5.1 2.6.1 3.2 0 6.2-1.2 6.2-4.7 0-3.3-2.8-4.7-6.3-4.7h-2.6v9.3z"/><use xlink:href="#U"/><path d="M131.7 84.7l.1 4.8H129l-.2-2.8h-.1c-.8 1.4-2.7 3.2-5.8 3.2-2.7 0-6-1.5-6-7.6V72.1h3.2v9.6c0 3.3 1 5.5 3.9 5.5 2.1 0 3.6-1.5 4.2-2.9.2-.5.3-1 .3-1.6V72.1h3.2v12.6z"/><use xlink:href="#V"/><use xlink:href="#W"/><use xlink:href="#X"/><use xlink:href="#Y"/><path d="M215.5 76.8l-.1-4.7h2.8l.1 2.8h.1c1-1.7 2.6-3.2 5.5-3.2 2.4 0 4.2 1.4 4.9 3.5h.1c.5-1 1.2-1.7 1.9-2.3 1-.8 2.2-1.2 3.9-1.2 2.3 0 5.7 1.5 5.7 7.6v10.3h-3.1v-9.9c0-3.3-1.2-5.4-3.8-5.4-1.8 0-3.2 1.3-3.7 2.9-.1.4-.3 1-.3 1.6v10.8h-3.1V79.1c0-2.8-1.2-4.8-3.6-4.8-2 0-3.4 1.6-3.9 3.2-.2.5-.3 1-.3 1.5v10.5h-3.1V76.8zm44.6 7.9l.1 4.8h-2.8l-.2-2.8h-.1c-.8 1.4-2.7 3.2-5.8 3.2-2.7 0-6-1.5-6-7.6V72.1h3.2v9.6c0 3.3 1 5.5 3.9 5.5 2.1 0 3.6-1.5 4.2-2.9.2-.5.3-1 .3-1.6V72.1h3.2v12.6z"/><use xlink:href="#Z"/><use xlink:href="#a"/><path d="M308.8 89.5l-.3-2.2h-.1c-1 1.4-2.8 2.6-5.3 2.6-3.5 0-5.3-2.5-5.3-5 0-4.2 3.7-6.5 10.5-6.5V78c0-1.4-.4-4-4-4-1.6 0-3.3.5-4.5 1.3l-.7-2.1c1.4-.9 3.5-1.5 5.7-1.5 5.3 0 6.6 3.6 6.6 7.1v6.5c0 1.5.1 3 .3 4.2h-2.9zm-.4-8.9c-3.5-.1-7.4.5-7.4 3.9 0 2.1 1.4 3 3 3 2.3 0 3.7-1.4 4.2-2.9.1-.3.2-.7.2-1v-3z"/><use xlink:href="#U" x="207.9"/><use xlink:href="#Z" x="59.7"/><use xlink:href="#b"/><path d="M367.8 72.1l3.8 10.3 1.1 3.6h.1l1.1-3.6 3.5-10.2h3.3L376 84.5c-2.3 6-3.8 9-6 10.9-1.5 1.4-3.1 1.9-3.9 2.1l-.8-2.7c.8-.3 1.8-.8 2.8-1.5.9-.7 1.9-1.9 2.7-3.5.1-.3.3-.6.3-.8s-.1-.4-.2-.8l-6.4-16.1h3.3zm19.4-4.9c0 1.1-.8 1.9-2 1.9-1.1 0-1.9-.9-1.9-1.9a1.94 1.94 0 0 1 2-2c1.1 0 1.9.9 1.9 2zm-3.6 22.3V72.1h3.2v17.4h-3.2z"/><use xlink:href="#V" x="255.1"/><use xlink:href="#U" x="301.5"/><use xlink:href="#c"/><use xlink:href="#a" x="166.8"/><use xlink:href="#d"/><use xlink:href="#X" x="306.9"/><path d="M503,63.9h3.2v25.6H503V63.9z"/><use xlink:href="#U" x="402.9"/><path d="M530.7 80.1h0l1.6-2 5.1-6h3.8l-6.7 7.2 7.7 10.3h-3.9l-6-8.4-1.6 1.8v6.6h-3.1V63.9h3.1v16.2zm17.9-12.9c0 1.1-.8 1.9-2 1.9-1.1 0-1.9-.9-1.9-1.9a1.94 1.94 0 0 1 2-2c1.2 0 1.9.9 1.9 2zm-3.5 22.3V72.1h3.2v17.4h-3.2z"/><use xlink:href="#e"/><use xlink:href="#c" x="154.9"/><use xlink:href="#d" x="143.2"/><use xlink:href="#f"/><use xlink:href="#a" x="359.7"/><use xlink:href="#Y" x="455.2"/><use xlink:href="#X" x="484.1"/><path d="M702 67c-.8-.5-2.1-.9-3.5-.9-3.3 0-4.4 2.3-4.4 5.1v.9h10.2v17.4h-3.2v-15h-6.9v15H691v-15h-7.3v15h-3.1v-15h-2.4v-2.4h2.4v-.6c0-2.2.6-4.3 2.1-5.8 1-1 2.5-1.7 4.5-1.7 1.2 0 2.4.4 3.1.8l-.9 2.3c-.5-.3-1.4-.6-2.2-.6-1 0-1.7.4-2.3.9-.9.9-1.2 2.5-1.2 4v.7h7.3v-.9c0-4.6 2.7-7.6 7.6-7.6 1.6 0 3.4.5 4.3 1.1L702 67z"/><use xlink:href="#W" x="546.9"/><use xlink:href="#b" x="394"/><use xlink:href="#e" x="199.6"/><use xlink:href="#a" x="501"/><path d="M792.6 63.9h3.2v10.9h.1a5.44 5.44 0 0 1 2.3-2.2c.9-.5 2.1-.9 3.2-.9 2.3 0 6.1 1.4 6.1 7.5v10.4h-3.2v-10c0-2.8-1-5.2-4-5.2-2.1 0-3.7 1.4-4.2 3.2-.2.4-.2.9-.2 1.5v10.5h-3.2V63.9zm23.5 3.3c0 1.1-.8 1.9-2 1.9-1.1 0-1.9-.9-1.9-1.9a1.94 1.94 0 0 1 2-2c1.1 0 1.9.9 1.9 2zm-3.5 22.3V72.1h3.2v17.4h-3.2z"/><use xlink:href="#Z" x="555.7"/><path d="M842.9 77.5l-.1-5.4h2.8l.1 3.4h.1c.8-2.3 2.7-3.8 4.8-3.8.4 0 .6 0 .9.1v3c-.3-.1-.6-.1-1.1-.1-2.2 0-3.8 1.7-4.2 4.1-.1.4-.1.9-.1 1.5v9.3H843V77.5z"/><use xlink:href="#b" x="515"/><use xlink:href="#X" x="695.3"/><path d="M906.5 63.9V85l.1 4.5h-2.8l-.1-3h-.1c-1 1.9-3.1 3.4-5.9 3.4-4.2 0-7.5-3.6-7.5-8.9 0-5.8 3.6-9.4 7.8-9.4 2.7 0 4.5 1.3 5.3 2.7h.1V63.9h3.1zm-3.2 15.3c0-.4 0-.9-.1-1.3-.5-2-2.2-3.7-4.6-3.7-3.3 0-5.2 2.9-5.2 6.7 0 3.5 1.7 6.4 5.1 6.4 2.1 0 4.1-1.4 4.6-3.8.1-.4.1-.9.1-1.4v-2.9z"/><use xlink:href="#g"/><use xlink:href="#V" x="-36.4" y="38"/><path d="M133.6 110.1c-.1 1.3-.1 2.7-.1 4.8V125c0 4-.8 6.4-2.5 8s-4.1 2.1-6.3 2.1c-2.1 0-4.4-.5-5.8-1.4l.8-2.4c1.2.7 3 1.4 5.1 1.4 3.2 0 5.6-1.7 5.6-6.1v-1.9h-.1c-1 1.6-2.8 2.9-5.5 2.9-4.3 0-7.4-3.7-7.4-8.5 0-5.9 3.9-9.3 7.8-9.3 3 0 4.7 1.6 5.4 3h.1l.1-2.6h2.8zm-3.3 6.9c0-.5 0-1-.2-1.4-.6-1.8-2.1-3.3-4.4-3.3-3 0-5.2 2.6-5.2 6.6 0 3.4 1.7 6.3 5.1 6.3 1.9 0 3.7-1.2 4.4-3.2.2-.5.3-1.2.3-1.7V117zm18 10.5l-.3-2.2c-1 1.4-2.8 2.6-5.3 2.6-3.5 0-5.3-2.5-5.3-5 0-4.2 3.7-6.5 10.5-6.5v-.4c0-1.4-.4-4-4-4-1.6 0-3.3.5-4.5 1.3l-.7-2.1c1.4-.9 3.5-1.5 5.7-1.5 5.3 0 6.6 3.6 6.6 7.1v6.5c0 1.5.1 3 .3 4.2h-3zm-.4-8.9c-3.5-.1-7.4.5-7.4 3.9 0 2.1 1.4 3 3 3 2.3 0 3.7-1.4 4.2-2.9.1-.3.2-.7.2-1v-3z"/><use xlink:href="#g" x="67"/><use xlink:href="#h"/><path d="M187.8 101.9h3.2v25.6h-3.2v-25.6zm10.2 17.5c.1 4.3 2.8 6 6 6 2.3 0 3.6-.4 4.8-.9l.5 2.3c-1.1.5-3 1.1-5.8 1.1-5.4 0-8.6-3.5-8.6-8.8s3.1-9.4 8.2-9.4c5.7 0 7.2 5 7.2 8.2 0 .6-.1 1.2-.1 1.5H198zm9.3-2.3c0-2-.8-5.1-4.4-5.1-3.2 0-4.6 3-4.9 5.1h9.3z"/><use xlink:href="#Z" x="-51" y="38"/><use xlink:href="#Z" x="-36.8" y="38"/><use xlink:href="#d" x="-207.8" y="38"/><use xlink:href="#f" x="-351" y="38"/><use xlink:href="#h" x="120.9"/><path d="M312.2 105.2c0 1.1-.8 1.9-2 1.9-1.1 0-1.9-.9-1.9-1.9a1.94 1.94 0 0 1 2-2c1.1 0 1.9.9 1.9 2zm-3.5 22.3v-17.4h3.2v17.4h-3.2z"/><use xlink:href="#g" x="228"/><path d="M330.3 119.4c.1 4.3 2.8 6 6 6 2.3 0 3.6-.4 4.8-.9l.5 2.3c-1.1.5-3 1.1-5.8 1.1-5.4 0-8.6-3.5-8.6-8.8s3.1-9.4 8.2-9.4c5.7 0 7.2 5 7.2 8.2 0 .6-.1 1.2-.1 1.5h-12.2zm9.2-2.3c0-2-.8-5.1-4.4-5.1-3.2 0-4.6 3-4.9 5.1h9.3z"/><use xlink:href="#W" x="183.8" y="38"/><path d="M366.9 105.1v5h4.5v2.4h-4.5v9.4c0 2.2.6 3.4 2.4 3.4.8 0 1.4-.1 1.8-.2l.1 2.4c-.6.3-1.6.4-2.8.4-1.5 0-2.7-.5-3.4-1.3-.9-.9-1.2-2.5-1.2-4.5v-9.5h-2.7v-2.4h2.7V106l3.1-.9zm11.7.1c0 1.1-.8 1.9-2 1.9-1.1 0-1.9-.9-1.9-1.9a1.94 1.94 0 0 1 2-2c1.1 0 1.9.9 1.9 2zm-3.6 22.3v-17.4h3.2v17.4H375z"/><use xlink:href="#d" x="-74.8" y="38"/><path d="M403.2 114.8l-.1-4.7h2.8l.2 2.9h.1c.9-1.7 2.9-3.3 5.8-3.3 2.4 0 6.2 1.4 6.2 7.4v10.4H415v-10c0-2.8-1-5.1-4-5.1-2.1 0-3.7 1.5-4.2 3.2-.1.4-.2.9-.2 1.5v10.5h-3.2v-12.8zm19.2 10.8c0-1.3.9-2.3 2.2-2.3s2.1.9 2.1 2.3c0 1.3-.8 2.3-2.2 2.3-1.2 0-2.1-1-2.1-2.3z"/></g><path d="M516 236c-6.3-1.2-12.7-4.7-19-4.7-6.4 0-12.7 3.5-19 4.7-3.8.7-6.4 8.2-6.4 13.6 0 11.6.8 18.6.8 18.6v67.1c.1.1.1.2.2.3 3 5.3 8.3 8.9 14.4 9.7a83.86 83.86 0 0 0 10 .6 82.62 82.62 0 0 0 10-.6c6-.8 11.3-4.4 14.4-9.7l.2-.3v-67.1s.8-7 .8-18.6c0-5.4-2.6-12.9-6.4-13.6z" fill="#177494"/><path d="M497 341.3c-3.4 0-6.6-.2-9.4-.6-4.3-.6-8.1-3.1-10.5-6.7v-66l-.1-.3c0-.1-.8-.4-.8-11.6 0-4.1 1.9-8.3 2.9-9.1 2.7-.5 5.4-1.4 7.9-2.2 3.6-1.2 7-2.3 10-2.3 3.1 0 6.5 1.1 10 2.3 2.5.8 5.2 1.7 7.9 2.2 1 .8 2.9 5.1 2.9 9.1 0 11.2-.8 11.5-.8 11.6l-.1.3v66c-2.4 3.7-6.3 6.2-10.5 6.7-2.8.4-6 .6-9.4.6z" fill="#0eb5e2"/><path d="M512.9 321.9h-31.8l-2.6 2.7c-1.5 1.5-.6 4.1 1.6 4.3 11.1 1.3 22.7 1.3 33.8 0 2.1-.2 3-2.8 1.6-4.3-1.4-1.4-2.6-2.7-2.6-2.7z" class="X"/><path d="M497 328.8c-5.7 0-11.3-.3-16.8-1-.6-.1-1-.4-1.2-1-.2-.5-.1-1.1.3-1.5 1-1 1.8-1.9 2.2-2.4h30.8c.4.4 1.3 1.3 2.2 2.4.4.4.5 1 .3 1.5s-.6.9-1.2 1c-5.3.6-10.9 1-16.6 1z" class="Y"/><path d="M512.9 286.2h-31.8l-4.9-10.6c-.6-1.3.1-2.8 1.5-3.2 12.7-3.6 26.1-3.6 38.8 0 1.3.4 2.1 1.9 1.5 3.2l-5.1 10.6z" class="X"/><path d="M481.9 285.1l-4.6-10a.91.91 0 0 1 0-1c.2-.3.4-.5.7-.6 6.2-1.7 12.6-2.6 19.1-2.6s12.9.9 19.1 2.6c.3.1.6.3.7.6a.91.91 0 0 1 0 1l-4.6 10h-30.4z" class="Y"/><path d="M479.5 321l-3.3 3.5c-.8.8-2.2.3-2.2-.8v-49.5l5.4 12.5.1 34.3z" class="X"/><path d="M475.3 323.8s-.1 0-.1-.1v-43.9l3.1 7.2v33.6l-3 3.2z" class="Y"/><path d="M514.5 321l3.3 3.5c.8.8 2.2.3 2.2-.8v-49.5l-5.4 12.5-.1 34.3z" class="X"/><path d="M518.7 323.8l-3-3.3v-33.6l3.1-7.2v43.9c.1.1 0 .2-.1.2z" class="Y"/><path d="M516.2 236c2.4 2.5 3.9 8.3 3.9 12.7 0 11.9-.8 19-.8 19v64.8c-6.7 1.5-14.2 2.2-22.2 2.2s-15.5-.8-22.2-2.2v-64.8s-.8-7.1-.8-19c0-4.4 1.5-10.2 3.9-12.7-3.8.8-6.3 8.2-6.3 13.6 0 11.6.8 18.6.8 18.6v67.1c.1.1.1.2.2.3.2.3.4.7.7 1.1.1.1.1.2.2.3.2.2.3.5.5.7.1.1.2.2.2.3.2.2.3.4.6.7.1.1.2.2.2.3l1.8 1.8c2.9 2.5 6.4 4.2 10.2 4.7a83.86 83.86 0 0 0 10 .6 82.62 82.62 0 0 0 10-.6c3.8-.5 7.4-2.2 10.2-4.7l.1-.1c.3-.3.6-.5.8-.8l.9-.9c.1-.1.2-.2.2-.3.2-.2.4-.4.6-.7.1-.1.2-.2.2-.3.2-.2.3-.4.5-.7.1-.1.2-.2.2-.3.2-.3.4-.7.7-1.1l.2-.3v-67.1s.8-7 .8-18.6c-.1-5.4-2.6-12.8-6.3-13.6z" fill="#0eb5e2"/><path d="M477.8 243.3l1.6-3.1c.5-1 1.4-1.8 2.5-2.1l6.3-2.1a.87.87 0 0 1 1.1 1.1l-.6 1.6-10.9 4.6z" fill="#fbfaf9"/><path d="M481 240.3c.5-1 1.4-1.8 2.5-2.1l5.5-1.9c-.2-.3-.6-.4-.9-.3l-6.3 2.1c-1.1.3-2 1.1-2.5 2.1l-1.6 3.1 2.2-1 1.1-2z" fill="#e8e5d9"/><path d="M516.3 243.3l-1.6-3.1c-.5-1-1.4-1.8-2.5-2.1l-6.3-2.1a.87.87 0 0 0-1.1 1.1l.6 1.6 10.9 4.6z" fill="#fbfaf9"/><path d="M513 240.3c-.5-1-1.4-1.8-2.5-2.1l-5.5-1.9c.2-.3.6-.4.9-.3l6.3 2.1c1.1.3 2 1.1 2.5 2.1l1.6 3.1-2.2-1-1.1-2z" fill="#e8e5d9"/><path d="M497 240.2c1.8 0 3.6.3 5.4.7v-8.8c-1.8-.4-3.6-.7-5.4-.7-1.9 0-3.6.3-5.4.7v8.8c1.8-.5 3.6-.7 5.4-.7zM472.6 277l-3.3 1.9c-1.1.6-1.8 1.6-2 2.7l-.3 1.2 4.9-1.9 1-2.9 1.7-.6-.4-1-1.6.6z" fill="#12617c"/><path d="M471.8 280.5l-4.7 1.8-.1.4 4.9-1.9 1.1-2.8 1.7-.6-.1-.4-1.8.6z" class="X"/><path d="M521.4 277l3.3 1.9c1.1.6 1.8 1.6 2 2.7l.3 1.2-4.9-1.9-1-2.9-1.7-.6.4-1 1.6.6z" fill="#12617c"/><path d="M522.2 280.5l4.7 1.8.1.4-5-1.9-1-2.8-1.6-.6.1-.4 1.7.6z" class="X"/><path d="M512.1 342.1c-2.3.6-4.2 1.9-5 3.2 3.2-.4 6.2-1.7 8.8-3.5-1.2-.1-2.5-.1-3.8.3zm-30.2 0c2.3.6 4.2 1.9 5 3.2-3.2-.4-6.2-1.7-8.8-3.5 1.2-.1 2.5-.1 3.8.3z" fill="#ef7b6f"/></svg>