<svg xmlns="http://www.w3.org/2000/svg" viewBox="0 0 40.4 86.7"><linearGradient id="A" gradientUnits="userSpaceOnUse" x1="18.264" y1="44.259" x2="22.168" y2="44.259"><stop offset="0" stop-color="#edebe9"/><stop offset="0" stop-color="#e1deda"/><stop offset="0" stop-color="#d6d1cc"/><stop offset=".07" stop-color="#c7c3be"/><stop offset=".146" stop-color="#b2aeaa"/><stop offset=".523" stop-color="#e6e6e6"/><stop offset=".633" stop-color="#d9d8d7"/><stop offset=".844" stop-color="#b8b4b0"/><stop offset=".876" stop-color="#b2aeaa"/><stop offset="1" stop-color="#d9d9d9"/><stop offset="1" stop-color="#b1b1b1"/></linearGradient><path d="M22.2 86.7l-1-1.7-.9 1.7-1.1-1.7-.9 1.7V1.8h3.9z" fill="url(#A)"/><path d="M20.25 35.498c.5 0 .875-.125 1.25-.5.125-.125.25-.25.25-.375l.875-1.5 17.5-30.25c.125-.125.125-.25.25-.5.25-.875-.25-1.875-1.25-2.125H1.75c-1 0-1.75.75-1.75 1.75 0 .375.125.625.25.875l18.125 31.5c.25.375.375.5.5.75.375.125.875.375 1.375.375z" fill="#fff"/><path d="M20.25 34.998c.375 0 .875-.25 1.125-.625l18.5-32c.125-.25.125-.375.125-.625 0-.375-.125-.75-.5-1-.25-.25-.5-.25-.875-.25H1.75c-.25 0-.5 0-.625.125C.75.873.5 1.248.5 1.748c0 .25.125.5.125.625l18.375 32c.125.125.125.25.25.25.25.25.625.375 1 .375-.125 0-.125 0 0 0h0zM38.625.498h0zM20.25 28.623L6.125 4.373H34.25l-14 24.25z" fill="#c1121c"/><path d="M20.25 35.498c.5 0 .875-.125 1.25-.5.125-.125.25-.25.25-.375l.875-1.5 17.5-30.25c.125-.125.125-.25.25-.5.25-1-.25-1.875-1.25-2.125H1.75c-1 0-1.75.75-1.75 1.75 0 .375.125.625.25.875l18.125 31.5c.25.375.375.5.625.75.25.125.75.375 1.25.375zm0 0c-.5 0-.875-.125-1.25-.5-.25-.25-.375-.375-.5-.75L.25 2.623c-.125-.25-.25-.5-.25-.875 0-1 .75-1.75 1.75-1.75h37.375c.875.25 1.5 1.25 1.25 2.125 0 .125-.125.375-.25.5L21.75 34.373c-.125.125-.125.25-.25.375-.375.5-.875.75-1.25.75h0z"/><g fill-rule="evenodd"><path d="M20.25 36.626c-2.625 0-4.875.625-7.125 1.875-2.25 1.375-3.875 3-5.25 5.25S6 48.25 6 50.876 6.625 55.75 7.875 58c1.375 2.25 3 3.875 5.25 5.25s4.5 1.875 7.125 1.875 4.875-.625 7.125-1.875c2.25-1.375 3.875-3 5.25-5.25s1.875-4.5 1.875-7.125-.625-4.875-1.875-7.125c-1.375-2.25-3-3.875-5.25-5.25-2.25-1.25-4.5-1.875-7.125-1.875zm0 0c2.625 0 4.875.625 7.125 1.875 2.25 1.375 3.875 3 5.25 5.25s1.875 4.5 1.875 7.125-.625 4.875-1.875 7.125c-1.375 2.25-3 3.875-5.25 5.25s-4.5 1.875-7.125 1.875-4.875-.625-7.125-1.875c-2.25-1.375-3.875-3-5.25-5.25S6 53.5 6 50.876 6.625 46 7.875 43.75c1.375-2.25 3-3.875 5.25-5.25 2.25-1.25 4.5-1.875 7.125-1.875z"/><path d="M34.5 51c0-2.625-.625-4.875-1.875-7.125-1.375-2.25-3-3.875-5.25-5.25s-4.5-1.875-7.125-1.875-4.875.625-7.125 1.875c-2.25 1.375-3.875 3-5.25 5.25S6 48.376 6 51s.625 4.875 1.875 7.125c1.375 2.25 3 3.875 5.25 5.25s4.5 1.875 7.125 1.875 4.875-.625 7.125-1.875c2.25-1.375 3.875-3 5.25-5.25 1.25-2.25 1.875-4.5 1.875-7.125h0z" fill="#fff"/><path d="M33.875 51c0-2.5-.625-4.625-1.875-6.875a13.7 13.7 0 0 0-5-5 12.9 12.9 0 0 0-6.875-1.875c-2.5 0-4.625.625-6.875 1.875a13.7 13.7 0 0 0-5 5 12.9 12.9 0 0 0-1.875 6.875c0 2.5.625 4.625 1.875 6.875a13.7 13.7 0 0 0 5 5 12.9 12.9 0 0 0 6.875 1.875c2.5 0 4.625-.625 6.875-1.875a13.7 13.7 0 0 0 5-5c1.25-2.25 1.875-4.375 1.875-6.875z" fill="#154889"/><path d="M11.625 53.876L15 50.5v-2l-2.5 2.375c-.125-3.875 3.25-7.125 6.375-7.5l-.25-1.625c-5.5 1.125-7.75 5.375-7.875 9.25l-2.5-2.375v2.125l3.375 3.125zM27 57l-4.625-1.125-1.75 1L24 57.75c-3.25 2-7.75.75-9.75-1.75L13 57.126c3.75 4.25 8.5 4 11.875 2.125L24 62.626l1.75-1L27 57zm-5-14.874l1.25 4.625 1.75 1-.875-3.375c3.375 1.875 4.625 6.375 3.375 9.25l1.625.625c1.75-5.375-.875-9.375-4.125-11.375l3.375-1-1.75-1L22 42.126z" fill="#fff"/></g></svg>