<?xml version="1.0" encoding="utf-8"?>
<!-- Generator: Adobe Illustrator 23.0.1, SVG Export Plug-In . SVG Version: 6.00 Build 0)  -->
<svg version="1.1" id="Layer_1" xmlns="http://www.w3.org/2000/svg" xmlns:xlink="http://www.w3.org/1999/xlink" x="0px" y="0px"
	 viewBox="0 0 1366 135" style="enable-background:new 0 0 1366 135;" xml:space="preserve">
<style type="text/css">
	.st0{fill:url(#SVGID_1_);}
	.st1{fill:#4A4A00;}
	.st2{fill:#710000;}
	.st3{fill:#FFFF00;}
	.st4{fill:#FF0000;}
	.st5{fill:#333333;}
	.st6{fill:#4D4D4D;}
	.st7{fill:none;stroke:#808080;stroke-width:0.4487;stroke-linecap:round;stroke-miterlimit:10;}
	.st8{fill:#1A1A1A;stroke:#999999;stroke-width:0.4487;stroke-miterlimit:10;}
	.st9{fill:#333333;stroke:#808080;stroke-width:0.1122;stroke-miterlimit:10;}
	.st10{fill:#808080;stroke:#000000;stroke-width:0.1122;stroke-linecap:round;stroke-miterlimit:10;}
	.st11{fill:#736357;}
	.st12{fill:#534741;stroke:#B3B3B3;stroke-width:0.1122;stroke-miterlimit:10;}
	.st13{fill:#4D4D4D;stroke:#999999;stroke-width:0.1122;stroke-miterlimit:10;}
	.st14{fill:#1A1A1A;stroke:#000000;stroke-width:0.4487;stroke-miterlimit:10;}
	.st15{fill:#808080;stroke:#000000;stroke-width:0.4487;stroke-linecap:round;stroke-miterlimit:10;}
	.st16{fill:#666666;}
	.st17{fill:none;stroke:#4D4D4D;stroke-width:0.4487;stroke-linecap:round;stroke-miterlimit:10;}
	.st18{opacity:0.43;}
	.st19{fill:url(#SVGID_2_);}
	.st20{fill:url(#SVGID_3_);}
	.st21{fill:url(#SVGID_4_);}
	.st22{fill:none;}
	.st23{fill:#8CC63F;}
	.st24{fill:#FCEE21;}
	.st25{fill:#FBB03B;}
	.st26{fill:url(#SVGID_5_);}
	.st27{fill:url(#SVGID_6_);}
	.st28{fill:url(#SVGID_7_);}
	.st29{fill:url(#SVGID_8_);}
	.st30{fill:url(#SVGID_9_);}
	.st31{fill:url(#SVGID_10_);}
	.st32{fill:url(#SVGID_11_);}
	.st33{fill:url(#SVGID_12_);}
	.st34{fill:url(#SVGID_13_);}
	.st35{fill:url(#SVGID_14_);}
	.st36{fill:url(#SVGID_15_);}
	.st37{fill:url(#SVGID_16_);}
	.st38{fill:url(#SVGID_17_);}
	.st39{fill:url(#SVGID_18_);}
	.st40{fill:url(#SVGID_19_);}
	.st41{fill:url(#SVGID_20_);}
	.st42{fill:url(#SVGID_21_);}
	.st43{fill:url(#SVGID_22_);}
	.st44{fill:url(#SVGID_23_);}
	.st45{fill:url(#SVGID_24_);}
</style>
<g id="bg_1_">
	<g id="bg">
		
			<linearGradient id="SVGID_1_" gradientUnits="userSpaceOnUse" x1="683" y1="20.177" x2="683" y2="153.2448" gradientTransform="matrix(1 0 0 -1 0 154)">
			<stop  offset="0" style="stop-color:#FFFFFF;stop-opacity:0"/>
			<stop  offset="0.105" style="stop-color:#F5FBFF;stop-opacity:0.105"/>
			<stop  offset="0.2804" style="stop-color:#DCEFFD;stop-opacity:0.2804"/>
			<stop  offset="0.5046" style="stop-color:#B2DCFB;stop-opacity:0.5046"/>
			<stop  offset="0.7659" style="stop-color:#78C3F8;stop-opacity:0.7659"/>
			<stop  offset="1" style="stop-color:#3FA9F5"/>
		</linearGradient>
		<rect class="st0" width="1366" height="135"/>
	</g>
</g>
<g>
	<g>
		<g>
			<path class="st1" d="M188.4,94.2c0,0.1,0.1,0.5,0.2,0.6c0.1,0.2,0.3,0.4,0.5,0.6c0.1,0.1,0.7,0.4,0.7,0.5h0.1
				c0,0.2,0,0.4,0.1,0.6c0.1,0.3,0.3,0.4,0.4,0.6c0.2,0.3,0.4,0.7,0.5,1.1c0.2,0.3,0.4,0.7,0.7,1c0.4,0.4,0.6,0.8,0.9,1.2
				c0.1,0.1,0,0.5,0.2,0.5c0.2-0.1,0.4-0.1,0.7-0.2c0.2-0.1,0.4-0.1,0.5-0.1s0.2,0.1,0.3,0.2c0.2,0.1,0.3,0,0.5,0.1s0.1,0.2,0.2,0.3
				c0.1,0.3,0.4,0.5,0.6,0.7c0.4,0.5,0.8,0.9,1.2,1.3c0.2,0.2,0.2,0.5,0.5,0.7c0.2,0.1,0.8,0.1,1,0.2c0.1,0.4,0.5,0.6,0.7,1
				c0.2,0.3,0.2,0.7,0.5,0.9c0.3,0.3,0.6,0.7,1.1,0.5c0.2-0.1,0.3-0.2,0.5-0.1c0.1,0,0.2,0.2,0.4,0.2c0,1,1.6,0.5,1.6,1.5h0.1
				c0,0.1,0.4,0.4,0.4,0.5c0.1,0.2,0.3,0.3,0.3,0.5c0.1,0.4-0.4,0.9-0.2,1.3c0.1,0.2,0.3,0.3,0.3,0.6c0,0.2-0.2,0.5-0.3,0.7
				c-0.1,0.5-0.7,0.8-0.7,1.4c-0.3,0.1-0.4-0.2-0.7-0.3c-0.3-0.1-0.6-0.1-0.9-0.3c-0.2-0.1-0.4-0.3-0.6-0.3c-0.1,0-0.6,0.2-0.7,0.3
				c-0.1,0.1,0,0.3,0,0.4c0,0.2,0,0.3,0,0.5c0,0.3-0.1,0.5-0.2,0.8c-0.2,0.3-0.1,0.4,0,0.7c0,0.2,0,0.5-0.2,0.7
				c-0.1,0.2-0.2,0.4-0.4,0.6s-0.3,0.5-0.6,0.6c-0.1,0.4-0.6,0.3-0.8,0.3c-0.3,0.1-0.7,0.1-1,0.2s-0.6,0.3-0.9,0.4
				c-0.2,0.1-0.3,0.3-0.5,0.5c-0.4,0.4-1.2,0.1-1.6,0.6c-0.2,0.2-0.3,0.5-0.4,0.7c-0.1,0.3-0.2,0.8-0.5,0.9
				c-0.1,0.2,0.2,0.4,0.3,0.5s0.1,0.1,0.2,0.3c0,0.1,0,0.2,0.1,0.3c0.2,0.1,0.4,0.1,0.6,0.3c0.1,0.2,0,0.2,0.3,0.3
				c0.1,0,0.3,0.1,0.4,0.1c0,0.1,0,0.1,0,0.2c0.1,0,0.1,0,0.2,0c0,0.3,0.3,0.3,0.4,0.5c0.1,0.3-0.1,0.4,0.2,0.6
				c0.3,0.3,0.6,0.6,0.3,1.1c-0.1,0.2-0.3,0.4-0.5,0.6s-0.2,0.3-0.1,0.6c0.1,0.2,0.2,0.5,0.5,0.5s0.5-0.3,0.8-0.2
				c0,0.1,0.1,0.1,0.2,0.2c0,0,0.1,0,0.1,0.1s0,0.1,0,0.2c0.1,0.1,0.2,0.2,0.3,0.3c0.1,0.1,0.1,0.2,0.3,0.2c0,0.3,0,0.7-0.2,1
				c-0.2,0.4-0.5,0.3-0.7,0.6c-0.3,0.3,0.1,0.6,0.2,0.9c0,0.3-0.3,0.6-0.6,0.6c-0.1,0-0.2-0.1-0.3-0.2c-0.2-0.1-0.4,0-0.6-0.1
				c-0.5-0.1-0.3-0.6-0.6-0.8c-0.3-0.3-0.8,0-1-0.2c-0.2-0.3,0.1-0.8,0.3-1c-0.3,0-0.6-0.1-0.7-0.4c-0.1-0.2,0-0.3-0.2-0.5
				c-0.3-0.3-0.5-0.2-0.8,0c-0.5,0.3-1.1,0.8-1.7,0.4c-0.2-0.2-0.5-0.4-0.7-0.5c-0.3-0.2-0.3-0.3-0.7-0.2c-0.2,0-0.3,0.2-0.5,0.2
				c-0.1,0-0.2,0-0.4,0s-1,0-1.1,0.2s0.2,0.5,0.2,0.7c0,0.4-0.3,0.3-0.5,0.5c-0.5-0.2-0.9-0.1-1.4-0.1c-0.4,0-1.1,0-1.3-0.2
				c-0.1,0.2-0.1,0.3-0.3,0.5c-0.2,0.2-0.3,0.2-0.6,0.2s-0.4,0.1-0.7,0.2c-0.3,0.1-0.6-0.1-0.9-0.1c-0.2,0-0.3,0.2-0.5,0.2
				s-0.4-0.1-0.5,0.1s-0.1,0.4-0.3,0.6c-0.1,0.1-0.3,0.2-0.3,0.4c-0.5,0.1-0.9-0.3-1.3,0.1c-0.2,0.2-0.1,0.3-0.2,0.5
				c-0.1,0.2-0.2,0.2-0.2,0.4c-0.2,0-0.3,0-0.5,0.1c-0.1,0-0.3,0.1-0.4,0.2c-0.4,0.1-0.7,0.1-1.1,0.1c-0.4,0-0.7,0.1-1,0.3
				s-0.6,0.3-1,0.3c-0.1-0.3-0.1-0.7-0.3-1c-0.3-0.3-0.9-0.3-1.3-0.4c0.3-0.5,0.2-1.1-0.5-0.8c-0.3,0.1-0.4,0.1-0.7,0.1
				c-0.2,0-0.4,0-0.6-0.2c-0.2-0.2-0.2-0.2-0.5-0.2c-0.2,0-0.3-0.1-0.5-0.2c-0.3-0.1-1.1-0.2-1.3,0.1c-0.2,0.1-0.4,0.4-0.5,0.6
				c-0.2,0.2-0.1,0.3,0.1,0.5c0.3,0.3,0.5,0.7,0.3,1.1c-0.3,0.4-0.6,0.7-1,1s-0.7,0.7-1,1c-0.2,0.2-1,0.6-1.2,0.2
				c-0.1-0.1,0-0.5,0-0.6c0.1-0.2,0.4-0.2,0.5-0.2c-0.1-0.2-0.1-0.4-0.2-0.5c-0.1,0-0.3,0-0.4,0c-0.4,0.1-0.6,0.5-1,0.1
				c-0.2-0.2-0.2-0.5-0.2-0.7c0-0.3,0.4-0.5,0.2-0.8c-0.1-0.3-0.4-0.3-0.6-0.3c-0.2,0-0.4-0.1-0.6-0.2c-0.1-0.1,0-0.3-0.1-0.4
				c-0.2-0.3-0.5-0.2-0.8-0.2c-0.4,0-0.3-0.1-0.6-0.3c-0.2-0.1-0.6-0.2-0.8-0.2c-0.2,0.1-0.6,0.2-0.8,0.3s-0.4,0.2-0.5,0.3
				c-0.1,0.2-0.5,0.1-0.8,0c-0.1,0-0.1-0.2-0.1-0.3c-0.2,0-0.2-0.2-0.3-0.2c-0.1-0.1-0.3,0-0.4-0.2c-0.1-0.1-0.1-0.2-0.2-0.4
				c-0.1-0.1-0.3-0.1-0.4-0.1c-0.2-0.1-0.4-0.3-0.6-0.4c-0.2-0.1-0.4-0.2-0.6-0.3c-0.2-0.1-0.5-0.3-0.7-0.3c-0.3-0.1-0.5,0-0.8-0.1
				c-0.3-0.1-0.6-0.1-0.9-0.1c-0.3,0-0.5,0.1-0.8,0.1s-0.6,0.3-0.9,0.2c-0.3,0-0.3-0.4-0.5-0.4c0-0.1-0.1-0.3-0.1-0.4
				c-0.1-0.2-0.3-0.3-0.4-0.5c-0.2,0.1-0.4,0.6-0.7,0.5c-0.2-0.1-0.3-0.5-0.4-0.6c-0.2-0.2-0.5-0.3-0.7-0.4
				c-0.3-0.1-0.5-0.2-0.8-0.2c-0.6-0.1-1.1,0.5-1.4,0.9c-0.2,0.3-0.3,0.6,0,0.8s0.6,0.2,0.9,0.3c0,0.2-0.2,0.4-0.3,0.5
				c-0.2,0.2-0.3,0.3-0.3,0.6c-0.1,0-0.3,0-0.4,0c-0.1,0-0.3,0-0.3,0c-0.1,0-0.2-0.1-0.3-0.1s-0.2,0.1-0.3,0c-0.1,0-0.4-0.1-0.5-0.2
				c-0.1-0.1-0.2-0.2-0.3-0.3c-0.2-0.1-0.2-0.2-0.4-0.2c-0.6,0-0.8,0.5-1.1,0.9c-0.2,0.3-0.4,0.2-0.7,0.2c-0.2,0-0.4,0.1-0.6,0.1
				c-0.2,0-0.3,0-0.5,0.1c0-0.1-0.1-0.3-0.1-0.4c-0.1-0.1-0.2-0.1-0.3-0.2c-0.2-0.1-0.1-0.2-0.3-0.2c-0.1,0-0.3,0-0.4,0.1
				c-0.2,0.1-0.4,0.2-0.5,0.4c-0.2,0.2-0.5,0.4-0.6,0.6c-0.1-0.1-0.3-0.2-0.4-0.3c-0.2-0.1-0.4-0.1-0.5-0.2
				c-0.2-0.2-0.3-0.5-0.3-0.7c0-0.3,0-0.2-0.2-0.4c-0.2-0.1-0.1-0.1-0.2-0.3c-0.1-0.3-0.3-0.5-0.4-0.8c0-0.1,0-0.3,0.1-0.4
				c0-0.2,0-0.2,0-0.4c-0.1-0.4,0.3-0.4,0.4-0.7c0.1-0.3-0.2-0.6-0.3-0.9c0-0.3,0.1-0.6,0.4-0.7c-0.1-0.3-0.2-0.4,0-0.7
				c0.1-0.2,0.1-0.1,0.2-0.3c0.1-0.1,0.2-0.2,0.3-0.4c0.3-0.6-0.7-0.8-0.3-1.3c-0.2-0.3-0.2-1.1,0.1-1.4c0.3-0.4,0.5-0.8,0.9-1.2
				c0.3-0.4,0.1-0.9,0.4-1.3c0.1-0.1,0.4-0.2,0.5-0.4c0.1-0.2-0.1-0.4,0-0.5c0.1-0.4,0.3-0.7,0.3-1.2c0-0.3,0-0.3,0.1-0.5
				s0.2-0.4,0.2-0.6c0.1-0.2,0.1-0.3,0.1-0.5s-0.1-0.4-0.1-0.5c0-0.2,0-0.5,0.1-0.6s0.2-0.2,0.3-0.3c0.1-0.2,0.2-0.3,0.4-0.4
				s0.3-0.2,0.5-0.3c0.5-0.3,0.6-0.4,0.6-1c0.3,0,0.4-0.6,0.6-0.7c0.2-0.2,0.5-0.2,0.7-0.4c0.2-0.2,0.2-0.5,0.3-0.7s0.3-0.8,0.5-0.9
				c0.3-0.1,0.7-0.3,0.7-0.6c0.1-0.4-0.6-0.3-1-0.4c-0.1,0-0.2,0-0.3,0s-0.2-0.2-0.3-0.3c-0.2-0.2-0.5-0.3-0.7-0.5
				c-0.2-0.1-0.2-0.1-0.4-0.1c-0.1,0-0.2-0.1-0.3-0.1s-0.2,0-0.4-0.1s-0.3-0.2-0.5-0.2s-0.3,0-0.4,0c-0.3,0-0.6-0.1-0.9,0.1
				c-0.3,0.1-0.6,0.3-0.9,0.1c-0.3-0.2-0.6-0.3-0.9-0.6c-0.1-0.1-0.1,0-0.1-0.2c-0.1-0.1,0-0.3-0.1-0.4c0-0.2-0.1-0.3-0.2-0.4
				c-0.1-0.1-0.2-0.3-0.4-0.4c-0.1,0-0.3,0-0.4,0c-0.2,0-0.3-0.2-0.5-0.2c-0.2,0.1-0.2,0.2-0.2,0.4c-0.1,0-0.3,0.1-0.4,0.2
				c-0.1,0.1-0.2,0.1-0.4,0.1c-0.1,0-0.3,0-0.4,0c-0.1,0-0.1-0.1-0.2-0.1c-0.2-0.1-0.7-0.3-0.9-0.1c-0.1,0.1-0.1,0.2-0.2,0.3
				c-0.1,0.1-0.3,0.1-0.5,0.1c0-0.2,0.1-0.5,0-0.7c0-0.1-0.1-0.1-0.1-0.2s0-0.2,0-0.4c0-0.3-0.2-0.3-0.4-0.5
				c-0.1-0.1-0.1-0.2-0.2-0.2c-0.2-0.1-0.4,0.1-0.6,0.1c-0.2,0-0.3,0-0.5,0s-0.4,0.1-0.6,0.2c-0.2,0.1-0.2,0.4-0.3,0.5
				c-0.1,0.2-0.3,0-0.4-0.1c-0.2-0.1-0.3-0.2-0.4-0.4c-0.1-0.2-0.1-0.3-0.3-0.4c-0.1-0.1-0.3-0.2-0.4-0.3c-0.1-0.2-0.1-0.4-0.1-0.6
				c-0.1-0.3-0.1-0.3-0.3-0.4c-0.1-0.1-0.2-0.3-0.3-0.4c-0.3-0.3,0-0.8-0.1-1.1c-0.1-0.8-1.3-1.1-1.9-1.1c0-0.3,0-0.6-0.1-0.8
				c0-0.1-0.1-0.3-0.1-0.4c0-0.2,0.1-0.2,0.2-0.3c0.2-0.2,0.4-0.4,0.5-0.6c0-0.1,0-0.3,0.1-0.4c0-0.1,0.2-0.2,0.2-0.3
				c0.1-0.2,0.3-0.4,0.5-0.5c0.1-0.1,0.2-0.1,0.3-0.2s0.1-0.3,0.2-0.5c0-0.1,0-0.1,0-0.2L188.4,94.2z"/>
			<path class="st2" d="M127.9,94.2h60.5c0-0.1,0-0.1,0-0.2c0,0,0.2-0.2,0.3-0.2c0.1-0.1,0.1-0.2,0.2-0.4c0.1-0.1,0.2-0.1,0.2-0.3
				c0-0.1,0-0.3,0-0.4c0-0.2,0.3-0.6,0.3-0.8c0-0.1-0.2-0.2-0.2-0.3c-0.1-0.1-0.1-0.3-0.2-0.4c-0.1-0.1-0.1-0.2-0.2-0.3
				c-0.1-0.1-0.3-0.1-0.3-0.3c-0.2,0.1-0.2-0.1-0.3-0.1c-0.1-0.1-0.3-0.2-0.5-0.2c-0.3-0.1-0.5-0.2-0.7-0.4
				c-0.2-0.2-0.4-0.4-0.7-0.5c-0.4-0.2-0.4-0.3-0.4-0.7c0-0.3-0.2-0.4-0.4-0.7c-0.2-0.2-0.2-0.4-0.3-0.6c-0.1-0.1-0.2-0.2-0.2-0.3
				c0-0.1,0.1-0.2,0.1-0.3c0-0.3-0.1-0.6-0.1-0.9c0.2,0,0.1-0.2,0.4-0.1c0.1,0,0.3,0.3,0.4,0.4c0.2,0.2,0.4,0.4,0.7,0.6
				c0.2,0.1,0.6,0.6,0.9,0.4c0.4-0.2,0.3-0.8,0.4-1.1c0-0.1,0.1-0.2,0.2-0.3c0.1-0.2,0.2-0.3,0.5-0.4c0.3-0.2,0.6-0.5,0.8-0.7
				c0.3-0.2,0.5-0.5,0.9-0.5c0.2,0,0.5,0.2,0.7,0.1c0.1,0,0.4-0.3,0.5-0.4c0.4-0.4,0.6-0.7,1.2-0.6c0.4,0,0.6,0.3,1.1,0.3v-0.1
				c0.5-0.1,0.7-0.9,1-1.2c0.4-0.3,1,0,1.4-0.4c0.2-0.3,0.3-0.6,0.5-0.9c0.1-0.3,0.4-0.4,0.7-0.5s0.5-0.1,0.8-0.2
				c0.2-0.1,0.7-0.2,0.8-0.4c0.1,0.1,0.2,0.1,0.3,0.2c0.2,0.1,0.2,0.1,0.3-0.1c0.1-0.1,0.2-0.2,0.3-0.3c0.1-0.1,0.1-0.2,0.2-0.3
				c0.2-0.3,0.4-0.4,0.7-0.4c0.3-0.1,0.8-0.5,1.1-0.2c0.2-0.1,0.5-0.2,0.8-0.3c0.3-0.1,0.5-0.4,0.8-0.6s0.6-0.6,1.1-0.7
				s0.8,0,1.2-0.4c0.2-0.2,0.6-0.7,1-0.7c0.1-0.2,0.1-0.4,0-0.6c-0.1-0.3-0.2-0.4,0-0.7c0.1-0.3,0.1-0.4,0.1-0.7
				c0-0.3,0-0.4,0.2-0.6c0.3-0.2,0.6-0.3,0.9-0.3c0.3,0,0.6-0.1,0.9,0c0.2,0.1,0.4,0.3,0.5,0.5c0.2,0.2,0.3,0.3,0.3,0.6
				c0,0.3,0,0.5,0.2,0.7c0.3,0.3,0.3,0.4,0.3,0.7c0.4,0.1,0.7,0.1,1,0.2c0.4,0.1,0.6,0.1,0.9,0.3v-0.1h0.1c0-0.3,0.2-0.4,0.4-0.6
				s0.3-0.4,0.4-0.6c0.4-0.3,1-0.2,0.8-0.9c0-0.2-0.1-0.4-0.1-0.5c-0.1-0.2-0.3-0.3-0.3-0.5s0.3-0.4,0.3-0.6s-0.1-0.5-0.2-0.7
				c0-0.4,0.3-0.9,0.3-1.3c0.1-0.4-0.2-0.7-0.2-1.1c0-0.2,0-0.4,0-0.5c0-0.2-0.1-0.4-0.2-0.6c-0.1-0.2-0.1-0.4-0.2-0.6
				c-0.1-0.2-0.2-0.3-0.3-0.5s0-0.5-0.2-0.6s-0.4-0.1-0.5-0.2c-0.2-0.2-0.3-0.3-0.6-0.4c-0.2-0.1-0.4-0.2-0.6-0.3
				c0-0.4-0.3-0.5-0.5-0.8c-0.2-0.4,0.5-0.7,0.4-0.9c0.2-0.2-0.2-0.8-0.3-1.1c-0.2,0-0.4-0.4-0.7-0.5c-0.1-0.3-0.2-0.7-0.4-1
				c-0.1-0.2-0.2-0.2-0.3-0.4c-0.1-0.1-0.3-0.3-0.2-0.5c0.1,0,0.2,0,0.2,0c0.2-0.3,0.1-0.7,0.3-1c0.2-0.2,0.3-0.5,0.4-0.7
				c0.1-0.3,0.3-0.5,0.3-0.8s0.1-0.5,0.2-0.8c0.1-0.6-0.6-0.9-0.6-1.5s0.2-1.2-0.2-1.7c-0.3-0.4-0.4-0.1-0.7-0.1s-0.4-0.3-0.6-0.4
				c-0.3-0.2-0.2-1.1-0.1-1.5c0-0.1,0-0.2,0.1-0.4h-75.5c0.3,0.1,0.5,0.3,0.8,0.4c0.5,0.2,0.7,0.1,1.1-0.1c0.4-0.2,0.8,0.2,1,0.5
				c0.1,0.2,0.3,0.3,0.2,0.5c0,0.2-0.2,0.3-0.3,0.5c-0.3,0.5-0.1,0.9,0,1.4s-0.3,0.6-0.6,0.8c-0.3,0.3-0.6,0.6-0.9,0.9
				c-0.4,0.3-0.8,0.6-1.2,0.8c-0.3,0.1-0.9,0.2-1,0.5c-0.1,0.4,0.3,0.6,0.6,0.8c0.6,0.3,0.6,1.7-0.2,1.7c-0.4,0-0.7,0-1,0.2
				c-0.4,0.2-0.8,0.3-1.2,0.4c-0.6,0.2-1.4,0.3-2.1,0.2c-0.3,0-0.5-0.1-0.7-0.3c-0.1-0.1-0.4-0.3-0.5-0.3c-0.2,0-0.2,0.3-0.5,0.3
				c-0.3,0.1-0.7,0-1,0c-0.4,0.1-0.6,0.3-0.6,0.7c0.2,0,0.1,0.1,0.2,0.2c0,0.1,0.1,0.1,0.1,0.2c0,0.1-0.1,0.2-0.1,0.2
				c-0.1,0.2-0.4,0.3-0.1,0.5c0.2,0.1,0.3,0.1,0.4,0.2c0.2,0.2,0.1,0.2,0,0.3c0,0.1-0.1,0.3,0,0.3c0,0.1,0.3,0.2,0.4,0.2
				c0.1,0.1,0.2,0.1,0.2,0.2c0,0.1,0,0.3,0,0.5c0,0.3,0.1,0.5,0.2,0.8c0.1,0.1,0.1,0.3,0.1,0.4c0.1,0.2,0.3,0.3,0.5,0.4
				c0.1,0.1,0.2,0.2,0.2,0.3c0,0.1-0.1,0.3-0.1,0.4c0,0.2,0,0.4,0,0.5c0,0.2,0.1,0.3,0.1,0.5s0,0.4,0,0.7c0,0.2,0,0.2,0,0.4
				c-0.2,0-0.2,0.1-0.4,0.2c-0.1,0.1-0.1,0.1-0.2,0.2c-0.1,0.2-0.3,0.5-0.4,0.7s-0.3,0.4-0.4,0.5c0,0.1-0.1,0.1-0.1,0.2s0,0.2,0,0.3
				c0.1,0.2,0.3,0.3,0.4,0.5s0.1,0.4,0.1,0.6c-0.1,0-0.1,0-0.2,0s-0.1,0-0.1,0v0.1c-0.1,0.1-0.2,0.1-0.3,0.2
				c-0.2,0.1-0.2,0.5-0.5,0.5c0,0.1-0.1,0.1-0.1,0.2s0,0.2-0.1,0.3c-0.2,0.2-0.4-0.1-0.6-0.1c-0.4,0-0.3,0.6-0.5,0.9
				c0.2,0,0.2,0.2,0.4,0.3c0.1,0,0.1,0,0.2,0.1c0.1,0,0.1,0.1,0.3,0.1c0,0.1,0.2,0.2,0.3,0.4c0.1,0.1,0.1,0.2,0.2,0.3
				c0.1,0.1,0.3,0.2,0.4,0.3c0.3,0.1,0.3,0.2,0.2,0.5c-0.1,0.2,0,0.3-0.2,0.5c-0.1,0.1-0.1,0.1-0.2,0.1s-0.3,0-0.4,0
				c-0.2,0.1-0.1,0.3-0.1,0.4c0,0.2,0,0.3-0.1,0.5c0,0.2,0.1,0.4,0.2,0.6c0.1,0.1,0,0.1,0.1,0.2s0.2,0.1,0.3,0.2
				c0.2,0.1,0.4,0.2,0.5,0.3c-0.1,0.1,0.2,0.6,0.3,0.8c0.1,0,0.1,0.1,0.2,0.1c0.1,0.1,0.2,0.1,0.2,0.1l0.1,0.1c0.1,0,0.2,0,0.3,0
				l0.1,0.4c0,0,0,0-0.1,0.1c0.1,0.2-0.1,0.4-0.3,0.5c-0.1,0.1-0.2,0.1-0.3,0.2c-0.1,0-0.1,0.1-0.2,0.2c0,0.2,0,0.4,0.1,0.5
				c0.1,0.2,0.3,0.4,0.3,0.6c0.1,0,0.2-0.1,0.3-0.1c0.1,0,0.4,0,0.6,0c0.3,0.1,0.2,0.4,0.2,0.6s0,0.3,0,0.5c0,0.1-0.1,0.2,0,0.3
				c0.2,0.3,0.5,0.4,0.4,0.9c-0.8,0.2-1.3,0.9-1.8,1.4c-0.1,0.1-0.3,0.3-0.4,0.5s-0.1,0.5-0.1,0.7c0,0.6-0.7,0.7-0.8,1.3
				c-0.1,0.2,0,0.4,0.1,0.6s0.1,0.4,0.1,0.6c0,0.5,0.2,0.6,0.4,1c0.1,0.1,0.1,0.3,0.2,0.4c0.1,0.2,0.2,0.3,0.3,0.4
				c0.3,0.3,0.5,0.6,0.7,0.9c0.3,0.3,0.4,0.5,0.9,0.5c0.5-0.1,0.7-0.1,1,0.3c0,0,0,0,0.1,0c0,0.1,0.1,0.2,0.1,0.3c0,0.1,0,0.2,0,0.3
				C127.9,93.7,127.9,94,127.9,94.2z"/>
		</g>
		<g>
			<path class="st3" d="M186.5,92.1c0,0.1,0.1,0.5,0.2,0.6c0.1,0.2,0.3,0.4,0.5,0.6c0.1,0.1,0.7,0.4,0.7,0.5h0.1
				c0,0.2,0,0.4,0.1,0.6c0.1,0.3,0.3,0.4,0.4,0.6c0.2,0.3,0.4,0.7,0.5,1.1c0.2,0.3,0.4,0.7,0.7,1c0.4,0.4,0.6,0.8,0.9,1.2
				c0.1,0.1,0,0.5,0.2,0.5c0.2-0.1,0.4-0.1,0.7-0.2c0.2-0.1,0.4-0.1,0.5-0.1s0.2,0.1,0.3,0.2c0.2,0.1,0.3,0,0.5,0.1s0.1,0.2,0.2,0.3
				c0.1,0.3,0.4,0.5,0.6,0.7c0.4,0.5,0.8,0.9,1.2,1.3c0.2,0.2,0.2,0.5,0.5,0.7c0.2,0.1,0.8,0.1,1,0.2c0.1,0.4,0.5,0.6,0.7,1
				c0.2,0.3,0.2,0.7,0.5,0.9c0.3,0.3,0.6,0.7,1.1,0.5c0.2-0.1,0.3-0.2,0.5-0.1c0.1,0,0.2,0.2,0.4,0.2c0,1,1.6,0.5,1.6,1.5h0.1
				c0,0.1,0.4,0.4,0.4,0.5c0.1,0.2,0.3,0.3,0.3,0.5c0.1,0.4-0.4,0.9-0.2,1.3c0.1,0.2,0.3,0.3,0.3,0.6c0,0.2-0.2,0.5-0.3,0.7
				c-0.1,0.5-0.7,0.8-0.7,1.4c-0.3,0.1-0.4-0.2-0.7-0.3c-0.3-0.1-0.6-0.1-0.9-0.3c-0.2-0.1-0.4-0.3-0.6-0.3c-0.1,0-0.6,0.2-0.7,0.3
				c-0.1,0.1,0,0.3,0,0.4c0,0.2,0,0.3,0,0.5c0,0.3-0.1,0.5-0.2,0.8c-0.2,0.3-0.1,0.4,0,0.7c0,0.2,0,0.5-0.2,0.7
				c-0.1,0.2-0.2,0.4-0.4,0.6s-0.3,0.5-0.6,0.6c-0.1,0.4-0.6,0.3-0.8,0.3c-0.3,0.1-0.7,0.1-1,0.2s-0.6,0.3-0.9,0.4
				c-0.2,0.1-0.3,0.3-0.5,0.5c-0.4,0.4-1.2,0.1-1.6,0.6c-0.2,0.2-0.3,0.5-0.4,0.7c-0.1,0.3-0.2,0.8-0.5,0.9
				c-0.1,0.2,0.2,0.4,0.3,0.5s0.1,0.1,0.2,0.3c0,0.1,0,0.2,0.1,0.3c0.2,0.1,0.4,0.1,0.6,0.3c0.1,0.2,0,0.2,0.3,0.3
				c0.1,0,0.3,0.1,0.4,0.1c0,0.1,0,0.1,0,0.2c0.1,0,0.1,0,0.2,0c0,0.3,0.3,0.3,0.4,0.5c0.1,0.3-0.1,0.4,0.2,0.6
				c0.3,0.3,0.6,0.6,0.3,1.1c-0.1,0.2-0.3,0.4-0.5,0.6s-0.2,0.3-0.1,0.6c0.1,0.2,0.2,0.5,0.5,0.5s0.5-0.3,0.8-0.2
				c0,0.1,0.1,0.1,0.2,0.2c0,0,0.1,0,0.1,0.1s0,0.1,0,0.2c0.1,0.1,0.2,0.2,0.3,0.3c0.1,0.1,0.1,0.2,0.3,0.2c0,0.3,0,0.7-0.2,1
				c-0.2,0.4-0.5,0.3-0.7,0.6c-0.3,0.3,0.1,0.6,0.2,0.9c0,0.3-0.3,0.6-0.6,0.6c-0.1,0-0.2-0.1-0.3-0.2c-0.2-0.1-0.4,0-0.6-0.1
				c-0.5-0.1-0.3-0.6-0.6-0.8c-0.3-0.3-0.8,0-1-0.2c-0.2-0.3,0.1-0.8,0.3-1c-0.3,0-0.6-0.1-0.7-0.4c-0.1-0.2,0-0.3-0.2-0.5
				c-0.3-0.3-0.5-0.2-0.8,0c-0.5,0.3-1.1,0.8-1.7,0.4c-0.2-0.2-0.5-0.4-0.7-0.5c-0.3-0.2-0.3-0.3-0.7-0.2c-0.2,0-0.3,0.2-0.5,0.2
				c-0.1,0-0.2,0-0.4,0s-1,0-1.1,0.2s0.2,0.5,0.2,0.7c0,0.4-0.3,0.3-0.5,0.5c-0.5-0.2-0.9-0.1-1.4-0.1c-0.4,0-1.1,0-1.3-0.2
				c-0.1,0.2-0.1,0.3-0.3,0.5s-0.3,0.2-0.6,0.2s-0.4,0.1-0.7,0.2s-0.6-0.1-0.9-0.1c-0.2,0-0.3,0.2-0.5,0.2s-0.4-0.1-0.5,0.1
				s-0.1,0.4-0.3,0.6c-0.1,0.1-0.3,0.2-0.3,0.4c-0.5,0.1-0.9-0.3-1.3,0.1c-0.2,0.2-0.1,0.3-0.2,0.5c-0.1,0.2-0.2,0.2-0.2,0.4
				c-0.2,0-0.3,0-0.5,0.1c-0.1,0-0.3,0.1-0.4,0.2c-0.4,0.1-0.7,0.1-1.1,0.1c-0.4,0-0.7,0.1-1,0.3s-0.6,0.3-1,0.3
				c-0.1-0.3-0.1-0.7-0.3-1c-0.3-0.3-0.9-0.3-1.3-0.4c0.3-0.5,0.2-1.1-0.5-0.8c-0.3,0.1-0.4,0.1-0.7,0.1c-0.2,0-0.4,0-0.6-0.2
				c-0.2-0.2-0.2-0.2-0.5-0.2c-0.2,0-0.3-0.1-0.5-0.2c-0.3-0.1-1.1-0.2-1.3,0.1c-0.2,0.1-0.4,0.4-0.5,0.6c-0.2,0.2-0.1,0.3,0.1,0.5
				c0.3,0.3,0.5,0.7,0.3,1.1c-0.3,0.4-0.6,0.7-1,1s-0.7,0.7-1,1c-0.2,0.2-1,0.6-1.2,0.2c-0.1-0.1,0-0.5,0-0.6
				c0.1-0.2,0.4-0.2,0.5-0.2c-0.1-0.2-0.1-0.4-0.2-0.5c-0.1,0-0.3,0-0.4,0c-0.4,0.1-0.6,0.5-1,0.1c-0.2-0.2-0.2-0.5-0.2-0.7
				c0-0.3,0.4-0.5,0.2-0.8c-0.1-0.3-0.4-0.3-0.6-0.3c-0.2,0-0.4-0.1-0.6-0.2c-0.1-0.1,0-0.3-0.1-0.4c-0.2-0.3-0.5-0.2-0.8-0.2
				c-0.4,0-0.3-0.1-0.6-0.3c-0.2-0.1-0.6-0.2-0.8-0.2c-0.2,0.1-0.6,0.2-0.8,0.3c-0.2,0.1-0.4,0.2-0.5,0.3c-0.1,0.2-0.5,0.1-0.8,0
				c-0.1,0-0.1-0.2-0.1-0.3c-0.2,0-0.2-0.2-0.3-0.2c-0.1-0.1-0.3,0-0.4-0.2c-0.1-0.1-0.1-0.2-0.2-0.4c-0.1-0.1-0.3-0.1-0.4-0.1
				c-0.2-0.1-0.4-0.3-0.6-0.4c-0.2-0.1-0.4-0.2-0.6-0.3c-0.2-0.1-0.5-0.3-0.7-0.3c-0.3-0.1-0.5,0-0.8-0.1s-0.6-0.1-0.9-0.1
				c-0.3,0-0.5,0.1-0.8,0.1s-0.6,0.3-0.9,0.2c-0.3,0-0.3-0.4-0.5-0.4c0-0.1-0.1-0.3-0.1-0.4c-0.1-0.2-0.3-0.3-0.4-0.5
				c-0.2,0.1-0.4,0.6-0.7,0.5c-0.2-0.1-0.3-0.5-0.4-0.6c-0.2-0.2-0.5-0.3-0.7-0.4c-0.3-0.1-0.5-0.2-0.8-0.2
				c-0.6-0.1-1.1,0.5-1.4,0.9c-0.2,0.3-0.3,0.6,0,0.8c0.3,0.2,0.6,0.2,0.9,0.3c0,0.2-0.2,0.4-0.3,0.5c-0.2,0.2-0.3,0.3-0.3,0.6
				c-0.1,0-0.3,0-0.4,0c-0.1,0-0.3,0-0.3,0c-0.1,0-0.2-0.1-0.3-0.1s-0.2,0.1-0.3,0c-0.1,0-0.4-0.1-0.5-0.2s-0.2-0.2-0.3-0.3
				c-0.2-0.1-0.2-0.2-0.4-0.2c-0.6,0-0.8,0.5-1.1,0.9c-0.2,0.3-0.4,0.2-0.7,0.2c-0.2,0-0.4,0.1-0.6,0.1c-0.2,0-0.3,0-0.5,0.1
				c0-0.1-0.1-0.3-0.1-0.4c-0.1-0.1-0.2-0.1-0.3-0.2c-0.2-0.1-0.1-0.2-0.3-0.2c-0.1,0-0.3,0-0.4,0.1c-0.2,0.1-0.4,0.2-0.5,0.4
				c-0.2,0.2-0.5,0.4-0.6,0.6c-0.1-0.1-0.3-0.2-0.4-0.3c-0.2-0.1-0.4-0.1-0.5-0.2c-0.2-0.2-0.3-0.5-0.3-0.7c0-0.3,0-0.2-0.2-0.4
				c-0.2-0.1-0.1-0.1-0.2-0.3c-0.1-0.3-0.3-0.5-0.4-0.8c0-0.1,0-0.3,0.1-0.4c0-0.2,0-0.2,0-0.4c-0.1-0.4,0.3-0.4,0.4-0.7
				c0.1-0.3-0.2-0.6-0.3-0.9c0-0.3,0.1-0.6,0.4-0.7c-0.1-0.3-0.2-0.4,0-0.7c0.1-0.2,0.1-0.1,0.2-0.3c0.1-0.1,0.2-0.2,0.3-0.4
				c0.3-0.6-0.7-0.8-0.3-1.3c-0.2-0.3-0.2-1.1,0.1-1.4c0.3-0.4,0.5-0.8,0.9-1.2c0.3-0.4,0.1-0.9,0.4-1.3c0.1-0.1,0.4-0.2,0.5-0.4
				c0.1-0.2-0.1-0.4,0-0.5c0.1-0.4,0.3-0.7,0.3-1.2c0-0.3,0-0.3,0.1-0.5s0.2-0.4,0.2-0.6c0.1-0.2,0.1-0.3,0.1-0.5s-0.1-0.4-0.1-0.5
				c0-0.2,0-0.5,0.1-0.6s0.2-0.2,0.3-0.3c0.1-0.2,0.2-0.3,0.4-0.4s0.3-0.2,0.5-0.3c0.5-0.3,0.6-0.4,0.6-1c0.3,0,0.4-0.6,0.6-0.7
				c0.2-0.2,0.5-0.2,0.7-0.4c0.2-0.2,0.2-0.5,0.3-0.7s0.3-0.8,0.5-0.9c0.3-0.1,0.7-0.3,0.7-0.6c0.1-0.4-0.6-0.3-1-0.4
				c-0.1,0-0.2,0-0.3,0s-0.2-0.2-0.3-0.3c-0.2-0.2-0.5-0.3-0.7-0.5c-0.2-0.1-0.2-0.1-0.4-0.1c-0.1,0-0.2-0.1-0.3-0.1s-0.2,0-0.4-0.1
				s-0.3-0.2-0.5-0.2s-0.3,0-0.4,0c-0.3,0-0.6-0.1-0.9,0.1c-0.3,0.1-0.6,0.3-0.9,0.1c-0.3-0.2-0.6-0.3-0.9-0.6
				c-0.1-0.1-0.1,0-0.1-0.2c-0.1-0.1,0-0.3-0.1-0.4c0-0.2-0.1-0.3-0.2-0.4c-0.1-0.1-0.2-0.3-0.4-0.4c-0.1,0-0.3,0-0.4,0
				c-0.2,0-0.3-0.2-0.5-0.2c-0.2,0.1-0.2,0.2-0.2,0.4c-0.1,0-0.3,0.1-0.4,0.2c-0.1,0.1-0.2,0.1-0.4,0.1c-0.1,0-0.3,0-0.4,0
				c-0.1,0-0.1-0.1-0.2-0.1c-0.2-0.1-0.7-0.3-0.9-0.1c-0.1,0.1-0.1,0.2-0.2,0.3c-0.1,0.1-0.3,0.1-0.5,0.1c0-0.2,0.1-0.5,0-0.7
				c0-0.1-0.1-0.1-0.1-0.2s0-0.2,0-0.4c0-0.3-0.2-0.3-0.4-0.5c-0.1-0.1-0.1-0.2-0.2-0.2c-0.2-0.1-0.4,0.1-0.6,0.1
				c-0.2,0-0.3,0-0.5,0s-0.4,0.1-0.6,0.2c-0.2,0.1-0.2,0.4-0.3,0.5c-0.1,0.2-0.3,0-0.4-0.1c-0.2-0.1-0.3-0.2-0.4-0.4
				c-0.1-0.2-0.1-0.3-0.3-0.4c-0.1-0.1-0.3-0.2-0.4-0.3c-0.1-0.2-0.1-0.4-0.1-0.6c-0.1-0.3-0.1-0.3-0.3-0.4
				c-0.1-0.1-0.2-0.3-0.3-0.4c-0.3-0.3,0-0.8-0.1-1.1c-0.1-0.8-1.3-1.1-1.9-1.1c0-0.3,0-0.6-0.1-0.8c0-0.1-0.1-0.3-0.1-0.4
				c0-0.2,0.1-0.2,0.2-0.3c0.2-0.2,0.4-0.4,0.5-0.6c0-0.1,0-0.3,0.1-0.4c0-0.1,0.2-0.2,0.2-0.3c0.1-0.2,0.3-0.4,0.5-0.5
				c0.1-0.1,0.2-0.1,0.3-0.2c0.1-0.1,0.1-0.3,0.2-0.5c0-0.1,0-0.1,0-0.2L186.5,92.1z"/>
			<path class="st4" d="M126,92.1h60.5c0-0.1,0-0.1,0-0.2c0,0,0.2-0.2,0.3-0.2c0.1-0.1,0.1-0.2,0.2-0.4c0.1-0.1,0.2-0.1,0.2-0.3
				c0-0.1,0-0.3,0-0.4c0-0.2,0.3-0.6,0.3-0.8c0-0.1-0.2-0.2-0.2-0.3c-0.1-0.1-0.1-0.3-0.2-0.4c-0.1-0.1-0.1-0.2-0.2-0.3
				c-0.1-0.1-0.3-0.1-0.3-0.3c-0.2,0.1-0.2-0.1-0.3-0.1c-0.1-0.1-0.3-0.2-0.5-0.2c-0.3-0.1-0.5-0.2-0.7-0.4
				c-0.2-0.2-0.4-0.4-0.7-0.5c-0.4-0.2-0.4-0.3-0.4-0.7c0-0.3-0.2-0.4-0.4-0.7c-0.2-0.2-0.2-0.4-0.3-0.6c-0.1-0.1-0.2-0.2-0.2-0.3
				c0-0.1,0.1-0.2,0.1-0.3c0-0.3-0.1-0.6-0.1-0.9c0.2,0,0.1-0.2,0.4-0.1c0.1,0,0.3,0.3,0.4,0.4c0.2,0.2,0.4,0.4,0.7,0.6
				c0.2,0.1,0.6,0.6,0.9,0.4c0.4-0.2,0.3-0.8,0.4-1.1c0-0.1,0.1-0.2,0.2-0.3c0.1-0.2,0.2-0.3,0.5-0.4c0.3-0.2,0.6-0.5,0.8-0.7
				c0.3-0.2,0.5-0.5,0.9-0.5c0.2,0,0.5,0.2,0.7,0.1c0.1,0,0.4-0.3,0.5-0.4c0.4-0.4,0.6-0.7,1.2-0.6c0.4,0,0.6,0.3,1.1,0.3v-0.1
				c0.5-0.1,0.7-0.9,1-1.2c0.4-0.3,1,0,1.4-0.4c0.2-0.3,0.3-0.6,0.5-0.9c0.1-0.3,0.4-0.4,0.7-0.5s0.5-0.1,0.8-0.2
				c0.2-0.1,0.7-0.2,0.8-0.4c0.1,0.1,0.2,0.1,0.3,0.2c0.2,0.1,0.2,0.1,0.3-0.1c0.1-0.1,0.2-0.2,0.3-0.3c0.1-0.1,0.1-0.2,0.2-0.3
				c0.2-0.3,0.4-0.4,0.7-0.4c0.3-0.1,0.8-0.5,1.1-0.2c0.2-0.1,0.5-0.2,0.8-0.3c0.3-0.1,0.5-0.4,0.8-0.6s0.6-0.6,1.1-0.7
				s0.8,0,1.2-0.4c0.2-0.2,0.6-0.7,1-0.7c0.1-0.2,0.1-0.4,0-0.6c-0.1-0.3-0.2-0.4,0-0.7c0.1-0.3,0.1-0.4,0.1-0.7
				c0-0.3,0-0.4,0.2-0.6c0.3-0.2,0.6-0.3,0.9-0.3c0.3,0,0.6-0.1,0.9,0c0.2,0.1,0.4,0.3,0.5,0.5c0.2,0.2,0.3,0.3,0.3,0.6
				c0,0.3,0,0.5,0.2,0.7c0.3,0.3,0.3,0.4,0.3,0.7c0.4,0.1,0.7,0.1,1,0.2c0.4,0.1,0.6,0.1,0.9,0.3V74h0.1c0-0.3,0.2-0.4,0.4-0.6
				s0.3-0.4,0.4-0.6c0.4-0.3,1-0.2,0.8-0.9c0-0.2-0.1-0.4-0.1-0.5c-0.1-0.2-0.3-0.3-0.3-0.5s0.3-0.4,0.3-0.6s-0.1-0.5-0.2-0.7
				c0-0.4,0.3-0.9,0.3-1.3c0.1-0.4-0.2-0.7-0.2-1.1c0-0.2,0-0.4,0-0.5c0-0.2-0.1-0.4-0.2-0.6c-0.1-0.2-0.1-0.4-0.2-0.6
				c-0.1-0.2-0.2-0.3-0.3-0.5s0-0.5-0.2-0.6s-0.4-0.1-0.5-0.2c-0.2-0.2-0.3-0.3-0.6-0.4c-0.2-0.1-0.4-0.2-0.6-0.3
				c0-0.4-0.3-0.5-0.5-0.8c-0.2-0.4,0.5-0.7,0.4-0.9c0.2-0.2-0.2-0.8-0.3-1.1c-0.2,0-0.4-0.4-0.7-0.5c-0.1-0.3-0.2-0.7-0.4-1
				c-0.1-0.2-0.2-0.2-0.3-0.4c-0.1-0.1-0.3-0.3-0.2-0.5c0.1,0,0.2,0,0.2,0c0.2-0.3,0.1-0.7,0.3-1c0.2-0.2,0.3-0.5,0.4-0.7
				c0.1-0.3,0.3-0.5,0.3-0.8s0.1-0.5,0.2-0.8c0.1-0.6-0.6-0.9-0.6-1.5s0.2-1.2-0.2-1.7c-0.3-0.4-0.4-0.1-0.7-0.1s-0.4-0.3-0.6-0.4
				c-0.3-0.2-0.2-1.1-0.1-1.5c0-0.1,0-0.2,0.1-0.4h-75.5c0.3,0.1,0.5,0.3,0.8,0.4c0.5,0.2,0.7,0.1,1.1-0.1c0.4-0.2,0.8,0.2,1,0.5
				c0.1,0.2,0.3,0.3,0.2,0.5c0,0.2-0.2,0.3-0.3,0.5c-0.3,0.5-0.1,0.9,0,1.4s-0.3,0.6-0.6,0.8c-0.3,0.3-0.6,0.6-0.9,0.9
				c-0.4,0.3-0.8,0.6-1.2,0.8c-0.3,0.1-0.9,0.2-1,0.5c-0.1,0.4,0.3,0.6,0.6,0.8c0.6,0.3,0.6,1.7-0.2,1.7c-0.4,0-0.7,0-1,0.2
				c-0.4,0.2-0.8,0.3-1.2,0.4c-0.6,0.2-1.4,0.3-2.1,0.2c-0.3,0-0.5-0.1-0.7-0.3c-0.1-0.1-0.4-0.3-0.5-0.3c-0.2,0-0.2,0.3-0.5,0.3
				c-0.3,0.1-0.7,0-1,0c-0.4,0.1-0.6,0.3-0.6,0.7c0.2,0,0.1,0.1,0.2,0.2c0,0.1,0.1,0.1,0.1,0.2c0,0.1-0.1,0.2-0.1,0.2
				c-0.1,0.2-0.4,0.3-0.1,0.5c0.2,0.1,0.3,0.1,0.4,0.2c0.2,0.2,0.1,0.2,0,0.3c0,0.1-0.1,0.3,0,0.3c0,0.1,0.3,0.2,0.4,0.2
				c0.1,0.1,0.2,0.1,0.2,0.2c0,0.1,0,0.3,0,0.5c0,0.3,0.1,0.5,0.2,0.8c0.1,0.1,0.1,0.3,0.1,0.4c0.1,0.2,0.3,0.3,0.5,0.4
				c0.1,0.1,0.2,0.2,0.2,0.3c0,0.1-0.1,0.3-0.1,0.4c0,0.2,0,0.4,0,0.5c0,0.2,0.1,0.3,0.1,0.5s0,0.4,0,0.7c0,0.2,0,0.2,0,0.4
				c-0.2,0-0.2,0.1-0.4,0.2c-0.1,0.1-0.1,0.1-0.2,0.2c-0.1,0.2-0.3,0.5-0.4,0.7s-0.3,0.4-0.4,0.5c0,0.1-0.1,0.1-0.1,0.2s0,0.2,0,0.3
				c0.1,0.2,0.3,0.3,0.4,0.5s0.1,0.4,0.1,0.6c-0.1,0-0.1,0-0.2,0s-0.1,0-0.1,0v0.1c-0.1,0.1-0.2,0.1-0.3,0.2
				c-0.2,0.1-0.2,0.5-0.5,0.5c0,0.1-0.1,0.1-0.1,0.2s0,0.2-0.1,0.3c-0.2,0.2-0.4-0.1-0.6-0.1c-0.4,0-0.3,0.6-0.5,0.9
				c0.2,0,0.2,0.2,0.4,0.3c0.1,0,0.1,0,0.2,0.1c0.1,0,0.1,0.1,0.3,0.1c0,0.1,0.2,0.2,0.3,0.4c0.1,0.1,0.1,0.2,0.2,0.3
				c0.1,0.1,0.3,0.2,0.4,0.3c0.3,0.1,0.3,0.2,0.2,0.5c-0.1,0.2,0,0.3-0.2,0.5c-0.1,0.1-0.1,0.1-0.2,0.1s-0.3,0-0.4,0
				c-0.2,0.1-0.1,0.3-0.1,0.4c0,0.2,0,0.3-0.1,0.5c0,0.2,0.1,0.4,0.2,0.6c0.1,0.1,0,0.1,0.1,0.2s0.2,0.1,0.3,0.2
				c0.2,0.1,0.4,0.2,0.5,0.3c-0.1,0.1,0.2,0.6,0.3,0.8c0.1,0,0.1,0.1,0.2,0.1c0.1,0.1,0.2,0.1,0.2,0.1l0.1,0.1c0.1,0,0.2,0,0.3,0
				l0.1,0.4c0,0,0,0-0.1,0.1c0.1,0.2-0.1,0.4-0.3,0.5c-0.1,0.1-0.2,0.1-0.3,0.2c-0.1,0-0.1,0.1-0.2,0.2c0,0.2,0,0.4,0.1,0.5
				c0.1,0.2,0.3,0.4,0.3,0.6c0.1,0,0.2-0.1,0.3-0.1c0.1,0,0.4,0,0.6,0c0.3,0.1,0.2,0.4,0.2,0.6s0,0.3,0,0.5c0,0.1-0.1,0.2,0,0.3
				c0.2,0.3,0.5,0.4,0.4,0.9c-0.8,0.2-1.3,0.9-1.8,1.4c-0.1,0.1-0.3,0.3-0.4,0.5s-0.1,0.5-0.1,0.7c0,0.6-0.7,0.7-0.8,1.3
				c-0.1,0.2,0,0.4,0.1,0.6s0.1,0.4,0.1,0.6c0,0.5,0.2,0.6,0.4,1c0.1,0.1,0.1,0.3,0.2,0.4c0.1,0.2,0.2,0.3,0.3,0.4
				c0.3,0.3,0.5,0.6,0.7,0.9c0.3,0.3,0.4,0.5,0.9,0.5c0.5-0.1,0.7-0.1,1,0.3c0,0,0,0,0.1,0c0,0.1,0.1,0.2,0.1,0.3c0,0.1,0,0.2,0,0.3
				C126,91.7,126,91.9,126,92.1z"/>
			<g>
				<path d="M130.4,49.2l75.5,0.1c0-0.1,0.1-0.2,0.1-0.3c0.1-0.2,0.2-0.3,0.3-0.5c0.3-0.4,0.1-0.8,0-1.2c-0.1-0.2,0-0.4,0-0.6
					c0-0.3,0-0.2-0.2-0.4c-0.2-0.1-0.3-0.2-0.5-0.3s-0.4-0.3-0.6-0.4c0-0.3-0.4,0-0.5-0.3c-0.2-0.1-0.3-0.1-0.5-0.2
					c-0.1-0.1-0.2-0.1-0.3-0.1c-0.1-0.1,0-0.1,0-0.2c-0.2-0.2-0.6-0.5-0.7-0.8c-0.2,0-0.4-0.3-0.4-0.5c-0.2,0-0.6-0.1-0.8-0.2
					c-0.1,0-0.2-0.1-0.3-0.2c-0.2,0-0.3,0-0.4-0.1c0.1-0.5,0.2-1,0.2-1.5c0-0.2-0.1-0.5,0-0.7c0-0.3,0.3-0.4,0.6-0.6
					c0.4-0.2,0.8-0.5,1-0.9c0.1-0.2,0.1-0.4,0.2-0.7c0.1-0.2,0.2-0.3,0.2-0.6c0-0.2-0.1-0.5-0.1-0.7c0-0.3,0.1-0.4,0.3-0.6
					c0.2-0.3,0.3-0.9,0.2-1.3c-0.1-0.3-0.3-0.5-0.4-0.7c-0.1-0.2-0.1-0.4-0.2-0.6c-0.2-0.5-0.3-1-0.4-1.4c-0.2-0.6-0.5-1.1-0.7-1.7
					c-0.1-0.6-0.3-1.1-0.3-1.7c-0.2,0-0.4-0.1-0.6-0.1c0-0.1,0-0.2,0-0.2c0-0.1,0.1-0.1,0.1-0.1c0-0.2-0.1-0.2-0.1-0.4
					c-0.1,0-0.3,0.2-0.4,0.2c-0.2,0.1-0.4,0-0.6,0c-0.3,0-0.6-0.1-0.8-0.2c-0.1-0.1-0.2-0.2-0.3-0.3c-0.1-0.1-0.3-0.1-0.4-0.2
					c-0.2-0.1-0.5-0.4-0.8-0.3v-0.1c-0.1,0-0.2-0.1-0.2-0.2c-0.4,0-0.5-0.5-0.3-0.8c0.1-0.1,0.2-0.2,0.3-0.3c0.1-0.2,0-0.4,0.2-0.5
					c-0.1,0-0.2-0.2-0.3-0.2c0-0.3-0.3-0.4-0.5-0.7c-0.1-0.1-0.2-0.3-0.3-0.5c-0.1-0.1-0.3-0.2-0.4-0.3c0.2-0.1,0.3-0.6,0.4-0.8
					c0.1-0.4-0.1-0.7-0.5-0.8c0-0.3-0.6-0.1-0.8-0.1c-0.3,0-0.7-0.1-1,0.1c-0.1,0-0.3,0.1-0.3,0.2c-0.1,0.1-0.1,0.2-0.1,0.4
					c0,0.1,0.1,0.3-0.1,0.4c-0.2,0.1-0.3-0.2-0.2-0.3h-0.1c0-0.3-0.1-0.7-0.4-0.7c0-0.1,0-0.2,0-0.2c-0.1,0-0.2,0-0.3,0
					s-0.1-0.1-0.2-0.2c-0.2-0.1-0.2,0.1-0.4,0.1c-0.1-0.2,0.1-0.3,0-0.5s-0.2-0.2-0.4-0.3c-0.3-0.1-0.4-0.7-0.9-0.4
					c-0.1-0.1-0.2-0.3-0.4-0.4c-0.1,0-0.2-0.1-0.2-0.1c-0.1-0.2,0-0.1,0-0.3c0-0.2,0-0.4-0.1-0.6s-0.1-0.2,0-0.5
					c-0.2-0.3-0.4,0-0.6-0.2c-0.2-0.2-0.1-0.5-0.1-0.7c-0.1,0-0.2-0.1-0.3,0c-0.1,0-0.1,0.1-0.2,0.2c-0.1,0.1-0.3,0.2-0.4,0.3
					c-0.4,0.2-0.3,0.6-0.8,0.8c-0.2-0.1-0.2-0.5-0.5-0.4v0.1c-0.1,0-0.2,0-0.3,0c0-0.1,0-0.1,0-0.2c-0.1,0-0.2-0.1-0.4-0.1
					c0,0.4-0.3,0.4-0.6,0.4c-0.2,0-0.2,0-0.4,0.1s-0.1,0.1-0.4,0c-0.1,0.1-0.1,0.3-0.2,0.5c-0.1,0.1-0.2,0.1-0.3,0.2
					s-0.2,0.3-0.2,0.4c-0.1,0.2-0.1,0.2-0.1,0.4c-0.3,0-0.4,0.3-0.1,0.4c-0.1,0.1-0.2,0.1-0.3,0.2c-0.1-0.2-0.2-0.7-0.4-0.7
					s-0.2,0.1-0.4,0.2s-0.2,0.1-0.4,0.2c-0.5,0.3-1,0.9-1.1,1.4c-0.2,0-0.3,0-0.5,0s-0.3,0.1-0.3,0.1c-0.1,0.1-0.2,0.2-0.3,0.1
					s-0.3-0.1-0.4-0.1c-0.2,0-0.3,0-0.5,0c-0.1,0-0.3,0.1-0.4,0.2c-0.2,0.1-0.4,0.1-0.6,0.1c-0.3,0-0.7-0.1-0.9,0.1
					c-0.2,0.1-0.4,0.3-0.6,0.5c-0.2,0.1-0.2,0.1-0.1,0.3c0,0.2,0.1,0.3,0.1,0.5c0,0.3-0.1,0.6-0.4,0.7c-0.2,0.1-0.5,0.2-0.7,0.3
					c-0.3,0.2-0.1,0.5-0.2,0.8c-0.1,0.1-0.3,0.1-0.3,0.3c0,0.1,0.1,0.2,0.1,0.3c0,0.3-0.5,0.4-0.6,0c-0.2,0-0.4-0.2-0.6-0.3
					c-0.2-0.1-0.2-0.1-0.3,0.1c-0.1,0.1-0.1,0.2-0.3,0.2s-0.5-0.1-0.5-0.3c0-0.3,0.3-0.3,0.2-0.6c-0.1,0-0.2,0.1-0.2,0
					c-0.1,0-0.2,0-0.3-0.1c-0.2-0.1-0.3-0.1-0.5-0.1s-0.3,0-0.5,0s-0.4,0-0.6,0.1c-0.1,0-0.1,0.2-0.1,0.2c-0.1,0-0.2,0-0.2,0
					c-0.1,0-0.3,0.1-0.4,0.1c-0.3,0.2-0.1,0.5-0.1,0.8c0.2,0,0.5,0,0.7,0.1c-0.1,0.2-0.6,0.5-0.8,0.4s-0.1-0.4-0.5-0.3
					c-0.1,0-0.3,0.2-0.5,0.3c-0.2,0.1-0.3,0.1-0.6,0.1c-0.1-0.3,0.1-0.2,0.3-0.3c0.1,0,0.1-0.1,0.2-0.1l0.2-0.1
					c0.2-0.1,0.1-0.3,0.2-0.4c0.1-0.1,0.3-0.3,0.1-0.4c-0.1-0.1-0.3,0-0.4,0c-0.1,0-0.1,0-0.2-0.2c-0.1-0.1-0.1-0.3-0.2-0.4
					c-0.1-0.2-0.5-0.8,0-0.8c0-0.2,0.2-0.5,0.3-0.7c0.1,0.1,0.2,0.1,0.3,0.2c0.1-0.1,0.2-0.2,0.3-0.1c0.5-0.3,0.9-0.7,1.3-1.1
					c0.1-0.1,0.1-0.2,0.2-0.3c0.1-0.2,0.2-0.1,0.3-0.2c0.3-0.1,0.3-0.4,0.2-0.7c0-0.1-0.1-0.2-0.2-0.4c0-0.1,0-0.3,0-0.4
					c0-0.3-0.2-0.5-0.1-0.8c0-0.1,0.1-0.3,0.2-0.3c0.1-0.2,0.3-0.1,0.4-0.2c0.2-0.1,0.2-0.6,0.3-0.8c0.2,0,0.4,0,0.5,0
					c0,0,0.1,0.1,0.2,0.1c0.1,0,0.1,0,0.2,0c0.1,0,0.1,0.1,0.2,0.2c0.2-0.3,0.2-0.4,0.1-0.7c-0.1-0.2-0.2-0.5-0.4-0.7
					c0-0.1-0.2-0.1-0.2-0.1s-0.1-0.1-0.1-0.2c-0.1-0.1-0.2-0.1-0.3-0.2c-0.2-0.2-0.1-0.2-0.4-0.2c-0.1,0-0.3,0.2-0.4,0
					c-0.5,0.3-1.1,0.4-1.1,1.1c0.2,0,0.5-0.1,0.7,0s0.1,0.3,0.3,0.4c0.1,0.1,0.2,0,0.3,0.1s0,0.3,0,0.3s-0.1,0.1-0.2,0.2
					c-0.1,0.1,0,0.2-0.1,0.3c-0.4,0.4-0.6-0.1-1-0.2c-0.3-0.1-0.8,0.2-0.9,0.5c-0.3,0-0.5,0.2-0.7,0.4c-0.3,0.2-0.4,0.3-0.7,0.2
					c-0.3-0.1-0.4-0.1-0.6-0.3c-0.1-0.1-0.3-0.3-0.5-0.4c-0.3-0.3-0.3-0.3-0.6-0.3c-0.2,0-0.5-0.1-0.8-0.2c-0.2-0.1-0.2-0.1-0.3-0.2
					s-0.2-0.1-0.3-0.2c-0.2-0.1-0.3,0.1-0.5,0.1c-0.1,0-0.3,0-0.4,0c-0.3,0.1-0.3,0.3-0.5,0.5s-0.4,0.2-0.4,0.5
					c-0.2,0-0.6,0-0.7-0.2c-0.1-0.3,0.3-0.5,0.4-0.6c0.2-0.3-0.1-1.1-0.4-1.1c-0.6,0-1,0.3-1.6,0.4c-0.1,0-0.2,0-0.3,0.1
					c-0.1,0-0.2,0.1-0.3,0.1c-0.3,0-0.5-0.3-0.5-0.6c0.5,0.2,1-0.4,1.3-0.8c0.4-0.5,0.9-1,0.6-1.7c-0.1-0.2-0.2-0.5-0.5-0.4
					s-0.3,0.3-0.4,0.6c-0.1,0.5-0.7,0.8-1.2,1.1c0,0.2-0.1,0.3-0.3,0.4c-0.1,0.1-0.1,0.2-0.2,0.4c-0.2,0.4-0.3,0.3-0.6,0.2
					c-0.4-0.1-0.5,0.1-0.9,0.2c-0.2,0.1-0.5,0.1-0.6-0.1s0-0.2,0.1-0.4c0.1,0,0.2,0,0.4,0c-0.1-0.3,0.4-0.3,0.6-0.2
					c0.2,0,0.3,0.1,0.6,0c0.3-0.2,0.1-0.3,0.3-0.6s0.5-0.2,0.7-0.2c0-0.2,0.3-0.3,0.4-0.4c0.1-0.1,0.1-0.2,0.2-0.3
					c0.1-0.1,0.2,0,0.3-0.2c0-0.1,0-0.2,0.1-0.3s0.2-0.1,0.3-0.2c0.2-0.1,0.5-0.2,0.6-0.3c0.2-0.2,0-0.3-0.2-0.4
					c-0.1-0.1-0.4-0.5-0.5-0.6c-0.1-0.2,0-0.5-0.3-0.6s-0.2,0.3-0.2,0.5c-0.2,0-0.4,0.2-0.6,0.1c-0.1,0-0.4-0.4-0.4-0.5
					c-0.2,0-0.3-0.3-0.5-0.4c-0.1-0.1-0.3-0.2-0.4-0.2c-0.3-0.1-1,0.2-1-0.4c0-0.1-0.1-0.2-0.1-0.3c-0.1,0-0.1,0-0.2,0
					c-0.1,0-0.1,0-0.2,0c-0.1,0-0.2,0.1-0.3,0.1c-0.1,0.1-0.2,0.1-0.3,0.2c-0.1,0-0.1,0-0.2,0.1c0,0,0,0.1-0.1,0.1c0,0,0,0-0.1,0
					c-0.1,0.1-0.1,0.1-0.2,0.2l-0.1,0.1c0,0-0.1,0-0.1,0.1c-0.1,0-0.2,0-0.3,0h-0.1h-0.1c-0.1-0.1-0.2-0.1-0.2-0.1
					c-0.1,0-0.1-0.1-0.2-0.1c-0.1-0.1-0.2-0.2-0.3-0.3c0,0-0.1,0-0.1-0.1c0,0,0,0,0-0.1l0,0c0,0,0,0,0-0.1s-0.1,0-0.2-0.1
					c0,0,0-0.1-0.1-0.1s-0.2,0-0.2-0.1c0,0,0-0.1-0.1-0.1s-0.1,0-0.2,0c-0.1,0-0.2,0-0.3,0s-0.2,0.1-0.2,0c0,0,0,0-0.1,0h-0.1
					c0,0,0,0-0.1,0c0,0,0,0-0.1,0h-0.1c-0.1,0-0.1-0.1-0.1-0.1s-0.1,0-0.1-0.1h-0.1c0,0,0,0-0.1,0s-0.1,0-0.2,0h-0.1c0,0,0,0-0.1,0
					c0,0,0,0-0.1,0c0,0,0,0-0.1,0h-0.1c0,0,0,0-0.1,0h-0.1h-0.1c-0.1,0-0.1,0-0.2,0c-0.1,0-0.1,0-0.2,0c-0.1,0-0.2,0-0.3-0.1
					c-0.1,0-0.1,0-0.2,0h-0.1c-0.1,0-0.1,0-0.1,0s-0.1,0-0.1,0.1c-0.1,0-0.2,0.1-0.3,0c0,0-0.1,0-0.1-0.1c-0.1,0-0.1-0.1-0.2-0.1
					c-0.1,0-0.2,0-0.4,0c-0.1,0.2-0.3,0.2-0.4,0.3c-0.1,0.2-0.2,0.3-0.1,0.5c0,0.2,0.2,0.3,0.3,0.4c0.1,0.2,0.1,0.3,0.2,0.5
					c0.1,0.2,0.3,0.2,0.3,0.4s-0.1,0.4,0,0.6c0.1,0.1,0.3,0.2,0.3,0.4c0.1,0.2,0,0.3,0,0.6s0.3,0.3,0.5,0.3c0.1,0,0.3,0,0.3,0.1
					s0,0.2,0,0.3s0,0.1,0,0.3c-0.1,0.1-0.2,0.2-0.2,0.3c0.2,0,0.5,0,0.6,0.2c0.1,0.1,0,0.3,0,0.5c0,0.2,0.1,0.3,0,0.5
					s-0.3,0.3-0.4,0.4c-0.2,0.2-0.3,0.6,0,0.7s0.6,0,0.8-0.2c0.1-0.1,0.2-0.2,0.3-0.4c0.1-0.2,0.1-0.3,0.2-0.4
					c0.2,0.1,0.2,0.2,0.2,0.4c0,0.2,0.2,0.4,0.1,0.6c0,0.3-0.5,0.5-0.8,0.7c-0.2,0.2-0.5,0.4-0.8,0.4c-0.2,0-0.3-0.1-0.5-0.1
					s-0.4,0-0.6,0.1c-0.3,0-0.7,0.1-1,0.2c0,0.2,0.4,0.1,0.6,0.2c0.2,0.1,0.2,0.3,0,0.4c-0.1,0-0.3,0.1-0.4,0
					c-0.1,0-0.1-0.1-0.2-0.1c-0.3-0.1-0.4,0.2-0.3,0.4c0,0.2,0.2,0.3,0.3,0.5s0.1,0.4,0.4,0.5c0.3,0.1,0.4-0.1,0.5-0.3
					c0.2-0.3,0.3-0.1,0.5,0c0.3,0.2,0.4,0.1,0.6-0.1c0.3-0.2,0.4,0.1,0.6,0.2c0.1-0.1,0.1-0.3,0.3-0.4s0.3,0.1,0.3,0.3
					c0,0.3-0.3,0.5-0.6,0.6c-0.1,0-0.4,0-0.5,0.1c-0.2,0.2,0.1,0.3,0,0.5c0,0.2-0.2,0.3-0.3,0.4c-0.1,0.2,0,0.4,0.1,0.5
					s0.1,0.2,0.2,0.2c0,0.1,0,0.2,0.1,0.3c0.1,0.2,0.2,0.3,0.4,0.2c0.2,0,0.3-0.2,0.5,0c0.1,0.1,0.1,0.3,0.1,0.5
					c0,0.3,0.3,0.6,0.2,0.9c-0.2,0.5-0.5-0.2-0.8-0.2c-0.1,0-0.4,0.1-0.5,0.2c0,0.1,0.1,0.4,0.1,0.5c0.1,0.1,0.1,0.1,0.2,0.2
					c0.1,0.1,0.1,0.1,0.1,0.2c0.1,0.2,0.1,0.3,0.2,0.5c0.1,0,0.1,0.2,0.3,0.2c0.1,0.5,0.5,0.6,0.9,0.7c0.4,0,0.9-0.3,1.3-0.2
					c0.1,0,0.2,0,0.3,0.1c0.1,0,0.1,0.1,0.2,0.2c0.2,0.1,0.4,0,0.6,0.1c0.2,0.1,0.3,0.3,0.4,0.4c0.1,0.1,0.4,0.2,0.4,0.4
					c0,0,0,0,0.1,0c0,0.2,0,0.4,0,0.6c0,0.1,0.1,0.2,0.1,0.3c0,0.1,0,0.1,0,0.2c0.1,0.2,0.2,0.3,0.4,0.5c0.1,0.1,0.1,0.2,0.1,0.2
					c0.1,0.1,0.2,0.1,0.3,0.2s0.2,0.3,0.2,0.4s0,0.1,0,0.2c0,0,0.1,0,0.1,0.1l0.1,0.2c0,0.1,0,0.2,0.1,0.3v0.1l0.1,0.1
					c0.1,0.2,0.1,0.3,0.3,0.4c0,0.1,0,0-0.1,0c0,0,0,0,0-0.1h-0.1c-0.3-0.4-0.5-0.8-0.7-1.3c-0.2-0.4-0.6-0.7-0.9-1.1
					c-0.3-0.4-0.5-0.8-0.8-1.2c-0.3-0.5-0.8-0.7-1.4-0.7c-0.6,0-1.3,0.1-1.9,0.2c-0.6,0.2-1.2,0.3-1.8,0c-0.5-0.2-1.2-0.8-1.7-0.4
					s-0.5,1.2-0.7,1.7c-0.2,0.6-0.5,1.2-0.3,1.9c0.1,0.4,0.3,0.7,0.4,1c0.1,0.4,0.1,0.7,0.1,1.1c0-0.2-0.2-0.4-0.3-0.5
					c-0.2-0.1-0.3,0-0.5-0.2c-0.3-0.2-0.6-0.3-0.9-0.6c-0.1-0.2-0.3-0.3-0.5-0.4s-0.3,0-0.5,0.2s-0.2,0.2-0.2,0.5c0,0.2,0,0.4,0,0.6
					h0.1c0.1,0.1,0.2,0,0.3,0.1c0.1,0,0.3,0.1,0.3,0.2c-0.2,0.2,0,0.7-0.1,1c-0.1,0.2-0.2,0.3-0.2,0.4c0,0.2-0.1,0.3-0.1,0.5
					c-0.1,0-0.1,0.1-0.2,0.1c-0.1,0-0.3-0.1-0.3-0.1c-0.2-0.1-0.3-0.2-0.4-0.4c-0.1-0.2-0.6-0.8-0.7-0.3c-0.2-0.1-0.2-0.3-0.3-0.5
					c0-0.2-0.2-0.4-0.2-0.5c0-0.2,0.3-0.1,0.4-0.2c0.1,0,0.1-0.1,0.2-0.1c0.1-0.1,0.1-0.1,0.3-0.2c0.1-0.1,0.1-0.3,0.1-0.4
					c0-0.1,0-0.1,0-0.2s0-0.2-0.1-0.2c0,0,0-0.2-0.1-0.3c0-0.1-0.2-0.1-0.2-0.2c-0.1-0.1-0.2-0.2-0.2-0.4c0,0,0,0-0.1,0
					c0,0,0,0,0-0.1c-0.5,0-0.5-0.2-0.5-0.7c0-0.4-0.3-0.4-0.6-0.5c-0.4-0.1-0.7-0.2-1.2-0.1c-0.4,0.2-0.8,0.1-1.2,0.2
					c-0.4,0-0.8,0.3-1.2,0.3s-0.7,0-1.1-0.1c-0.4-0.1-0.8-0.1-1.1,0c-0.4,0.1-0.8,0.1-1.2,0.3c-0.2,0.2-0.4,0.4-0.6,0.5
					c-0.1,0.1-0.4,0.3-0.5,0.4c-0.2,0.4,0.3,0.7,0.5,0.8c-0.1,0.1-0.3,0.1-0.4,0.3c-0.1,0.1-0.1,0.3-0.1,0.4
					c-0.2,0.1-0.2-0.1-0.3-0.2c-0.1-0.1-0.3-0.1-0.4-0.2c-0.3,0.8-0.4,1.7-0.4,2.5c0,0.3,0.1,0.3,0.4,0.2c0.1,0,0.3-0.1,0.4-0.1
					c0.1,0,0.3,0,0.4,0.1c0.2,0.1,0.5,0.2,0.7,0.2s0.2,0,0.3,0.2c0,0.1,0,0.2,0,0.3s-0.1,0.2-0.1,0.3s0,0.3,0,0.4
					c0,0.2,0,0.2-0.1,0.3s-0.2,0.1-0.3,0.2c-0.3,0.2,0.4,0.6,0.3,0.9c-0.1,0.2-0.3,0.4-0.3,0.6c-0.1,0.2,0.2,0.4,0.2,0.6
					c0.1,0.3-0.1,0.5-0.1,0.7s0.1,0.4,0.1,0.6c0.1,1-0.7,1.8-1,2.8c-0.2,0.6-0.1,1.3-0.2,1.9c-0.1,0.3-0.1,0.6-0.2,0.9
					c-0.1,0.3-0.2,0.4-0.4,0.5s-0.4,0.2-0.7,0.1c-0.2-0.1-0.5-0.1-0.7-0.1c-0.4,0-1.1-0.4-1.5-0.1c-0.4,0.2-0.2,0.5,0,0.8
					s0,0.4-0.2,0.6c-0.2,0.1-0.4,0.3-0.3,0.5c0,0.3,0.1,0.5,0.2,0.8c0.2,0,0.3,0.1,0.5,0.1"/>
				<path d="M147.4,13.6c0.2,0,0.4,0.1,0.7,0c0.1,0,0.1-0.1,0.2-0.1c0.1,0,0.2,0,0.3,0s0.4,0.1,0.4,0.3c0,0.1-0.1,0.2-0.1,0.3
					s0,0.2-0.1,0.3c0,0.1,0,0.1-0.1,0.2c0,0.1-0.1,0.1-0.2,0.1c-0.2,0-0.3-0.1-0.5,0c-0.1,0-0.3,0-0.4-0.1c-0.1,0-0.1-0.1-0.2-0.1
					c-0.1,0-0.1,0-0.2-0.1c-0.1-0.1-0.1-0.3-0.1-0.4c0-0.1,0-0.1,0-0.2c0-0.1,0-0.2,0.1-0.2C147.3,13.6,147.4,13.6,147.4,13.6z"/>
				<path d="M196.8,22.1c0,0.1,0.1,0.2,0.2,0.2c0,0.1,0.1,0.2,0.1,0.3c0.1,0.1,0.2,0.2,0.4,0.3c0.1,0,0.1,0,0.2,0.1
					c0.1,0,0.1,0.1,0.1,0.1c0.1,0,0.2,0,0.2,0.1c0.1,0,0.1,0.1,0,0.2c0,0.1-0.1,0.1-0.2,0.1c-0.1,0-0.2,0-0.2,0
					c-0.1,0-0.2,0-0.3,0.1s-0.2,0.2-0.3,0.2c-0.1,0.1-0.2,0.2-0.3,0.2s-0.1-0.1,0-0.2l0.1-0.1v-0.1c0-0.1,0.1-0.2,0.1-0.4
					c0-0.1,0-0.2,0-0.3c0-0.1-0.1-0.2-0.2-0.3c-0.1-0.1-0.3-0.2-0.4-0.4c-0.1-0.1-0.1-0.2,0-0.3c0.1-0.1,0.1-0.1,0.2-0.1
					c0.1,0,0.2,0.1,0.3,0.1C196.8,22,196.8,22.1,196.8,22.1z"/>
				<path d="M199.6,24.2c0,0.1,0.1,0.1,0.1,0.1c0.1,0,0.1,0.1,0.2,0.2c0.1,0.1,0.2,0.1,0.2,0.1c0.1,0.1,0.2,0.1,0.2,0.2
					c0.1,0.1,0.1,0.1,0.2,0.2c0.1,0,0.2,0.1,0.2,0.2s-0.1,0.1-0.1,0.2s-0.1,0.2-0.1,0.2c0,0.1,0,0.2,0,0.2c0.1,0,0.2,0.1,0.2,0.2
					c0,0.2-0.4,0.2-0.5,0.2c-0.2,0-0.5,0-0.7,0c-0.1,0-0.2,0-0.3,0s-0.2,0-0.3,0s-0.2,0.1-0.2,0.2s-0.1,0.2-0.2,0.2
					c-0.1,0-0.2,0-0.2-0.1s0-0.2,0-0.2c-0.1,0-0.1,0-0.2,0c0,0-0.1,0-0.1,0.1l-0.1,0.1c0,0,0,0,0,0.1l-0.1,0.1c-0.1,0-0.1,0-0.2,0
					c-0.1,0-0.1,0-0.2-0.1c-0.1,0-0.1-0.1-0.2-0.2l0.1-0.1c0,0,0,0,0.1,0v-0.1c0.1,0,0.2,0,0.3,0h0.1h0.1c0.1,0,0.1,0,0.1-0.1
					c0,0,0,0,0-0.1c0,0,0-0.1-0.1-0.1c0,0,0.1,0,0.1-0.1c0,0,0,0,0-0.1c0,0,0,0,0-0.1s0-0.1,0-0.2s0-0.1,0-0.2v-0.1c0,0,0,0,0-0.1
					s0.2,0,0.2-0.1c0,0,0,0,0-0.1c0,0,0,0,0-0.1v-0.1l0.1-0.1h0.1h0.1c0,0,0,0,0.1,0.1c0,0,0.1,0,0.1,0.1l0.1,0.1l0.1,0.1l0.1-0.1
					l0.1-0.1c0,0,0.1-0.1,0.1-0.2v-0.1c0-0.1,0-0.1-0.1-0.2c0-0.2,0-0.3,0-0.5c0-0.1,0-0.2,0.1-0.2C199.5,24,199.6,24.1,199.6,24.2z
					"/>
				<path d="M184.4,19.2C184.4,19.2,184.5,19.2,184.4,19.2c0.1,0,0.2,0,0.2,0.1h0.1h0.1h0.1c0.1,0,0.1-0.1,0.1-0.1
					c0.1-0.1,0.2-0.1,0.3-0.2s0.2-0.2,0.3-0.3c0.1,0,0.2,0,0.3,0s0.1-0.2,0.1-0.2c0.1,0,0.2,0,0.2,0s0.1,0,0.1-0.1v-0.1
					c0-0.1,0.1,0,0.2,0c0,0,0,0,0.1,0h0.1c0,0,0.1,0,0.1,0.1c0,0,0,0.1,0.1,0.1s0.2,0,0.3,0.1c0.1,0,0.2,0.1,0.3,0
					c0.1,0,0.2-0.1,0.3-0.1s0.1-0.1,0.2-0.1c0.1,0,0.1,0,0.2,0h0.1v-0.1c0-0.1,0.1-0.2,0.1-0.2l0,0c0-0.1-0.1-0.1-0.2-0.2
					c-0.1,0-0.2,0-0.3,0s-0.2,0-0.3,0s-0.1,0.1-0.2,0.1c-0.1,0-0.2,0-0.3,0c-0.2,0-0.4,0-0.6,0c-0.2,0-0.4,0-0.6,0
					c-0.4,0-0.8,0.1-1.1-0.2c-0.1-0.1-0.3-0.3-0.4-0.1c0,0.1,0,0.2-0.1,0.2c0,0.1-0.1,0.1-0.1,0.2c0,0.2,0,0.3-0.1,0.5
					c-0.1,0.1-0.3,0.2-0.3,0.4C184.2,19.2,184.3,19.2,184.4,19.2z"/>
				<path d="M192.5,13c-0.1,0-0.2,0-0.3,0s-0.2,0-0.3,0s-0.2,0.1-0.3,0.1s-0.2,0-0.3,0.1c-0.1,0-0.2,0-0.2,0.2
					c0,0.1,0.1,0.1,0.2,0.2c0.1,0.1,0,0.2,0.1,0.3c0,0.1,0.1,0.2,0,0.3c0,0.1-0.1,0.2-0.2,0.3c-0.1,0.1-0.2,0.2-0.2,0.3s0.2,0,0.3,0
					s0.2,0,0.2-0.1c0.1-0.1,0.1-0.2,0.2-0.2c0.1-0.1,0.2-0.1,0.3-0.2c0.1,0,0.1-0.1,0.2-0.2c0-0.1,0-0.2,0-0.2c0-0.1-0.1-0.1,0-0.2
					c0-0.1,0.2-0.1,0.2-0.2c0.1,0,0.1-0.1,0.2-0.1l0.1-0.1C192.6,13.3,192.6,13,192.5,13z"/>
				<path d="M193.9,15.5c-0.1,0-0.2,0-0.2,0c-0.1,0-0.1,0.1-0.2,0.1l-0.1,0.1h-0.1c0,0,0,0.1-0.1,0.1c0,0.2,0.2,0.1,0.2,0.2
					c0,0.1,0,0.2,0,0.2c0,0.1,0,0.2,0.1,0.2c0,0.1,0.1,0.1,0.1,0.2s-0.1,0.2-0.1,0.2c-0.1,0.1-0.2,0.4-0.3,0.4
					c-0.2,0-0.3-0.1-0.4-0.2c-0.1-0.1-0.2-0.2-0.2-0.4c0-0.1,0-0.3-0.2-0.3c-0.1,0-0.2,0.3-0.4,0.2c-0.1,0-0.1-0.1-0.1-0.2
					c0-0.1-0.1-0.1-0.1-0.2c0-0.2,0.2-0.2,0.1-0.4c-0.1,0-0.2,0-0.3,0s-0.2,0.1-0.2,0.2c0,0.2,0.3,0.4,0.1,0.5l-0.1,0.1
					c-0.1,0-0.1,0-0.1-0.1c0-0.1-0.1-0.1-0.1-0.1l-0.1-0.1c-0.1-0.1-0.2-0.1-0.2-0.2c-0.1,0-0.2-0.1-0.3,0c-0.1,0-0.1,0.1-0.1,0.1
					s-0.1,0.1-0.2,0.1l-0.1,0.1c0,0,0,0.1,0,0.2c0.1,0,0.2,0,0.3,0.1c0.1,0,0.2,0,0.2,0.1c0,0.1,0,0.1,0,0.2c0,0.1,0.1,0.1,0.2,0.1
					c0.1,0,0.1,0.1,0.1,0.2s-0.1,0.1-0.2,0.1c-0.2,0-0.2,0.2-0.4,0.2c-0.1,0-0.2,0-0.2,0.2c0,0.1,0,0.2,0.1,0.2
					c0.1,0.1,0.2,0.2,0.4,0.3c0.1,0.1,0.1,0.2,0.2,0.3c0.1,0.1,0.1,0.1,0.1,0.2s-0.1,0.1-0.2,0.1c-0.2,0-0.3-0.1-0.4,0
					c-0.1,0.1-0.2,0.2-0.3,0.3c0.1,0.1,0.2,0.1,0.1,0.3c0,0.1,0.1,0.2,0.2,0.3c0.1,0.1,0.2,0.1,0.2,0.3c0,0.1,0.1,0.2,0.2,0.2
					c0.1,0.1,0.2,0.1,0.3,0.2l0.1,0.1c0,0,0.1,0,0.2,0c0.1,0,0.2,0,0.3-0.1s0.1-0.2,0.2-0.2c0.1,0,0.3,0.1,0.4,0.1
					c0.1,0,0.1-0.1,0.1-0.1c0.1,0,0.1,0,0.2-0.1l0.1-0.1c0,0,0-0.1,0.1-0.1c0-0.1,0-0.1,0-0.2s0.1-0.1,0.1-0.1s0,0,0.1-0.1
					c0,0,0,0,0.1,0s0.1-0.1,0.1-0.2s0.1-0.1,0.1-0.2c0,0,0-0.1,0.1-0.1h0.1c0.1,0,0.1,0,0.2,0c0.1,0,0.1,0,0.2,0l0.1-0.1
					c0.1-0.1,0.1-0.1,0.2-0.1c0.1,0,0.2,0.1,0.2,0.1c0.1,0,0.2-0.1,0.2-0.2s0.1-0.2,0.2-0.2c0,0,0,0,0.1,0.1c0,0,0,0.1,0.1,0.1
					l0.1,0.1c0,0,0,0,0,0.1s0,0.1,0,0.1c0,0.1,0,0.1,0,0.2l0.1,0.1v0.1c0,0,0,0.1-0.1,0.1l-0.1,0.1c0,0.1,0,0.1,0.1,0.1s0.2,0,0.3,0
					s0.1,0,0.2-0.1c0-0.1,0-0.1,0-0.2s0.1-0.1,0.1-0.2c0.1-0.1,0.1-0.1,0.1-0.2s0.1-0.3,0-0.3c-0.2-0.1-0.3-0.3-0.4-0.5
					c-0.1-0.1-0.1-0.1-0.2-0.2c-0.1-0.1-0.1-0.1-0.2-0.1c-0.2,0-0.4,0-0.6-0.1c-0.1-0.1-0.2-0.2-0.3-0.4c0-0.1,0-0.2-0.1-0.3
					c0-0.1,0-0.2,0-0.3c0-0.1,0.1-0.2,0.2-0.2c0.1-0.1,0.2-0.2,0.3-0.3c0.2-0.1,0.3-0.2,0.4-0.4c0.1-0.2,0.1-0.3,0-0.5
					c0-0.2-0.1-0.4-0.3-0.5s-0.4,0-0.6,0C194.1,15.5,194,15.5,193.9,15.5z"/>
			</g>
		</g>
	</g>
</g>
<g id="Layer_3">
	<g>
		<rect x="662.1" y="49.3" class="st5" width="78" height="10.5"/>
		<rect x="753.1" y="72.2" class="st6" width="77.2" height="45.7"/>
		<rect x="575.2" y="72.1" class="st6" width="77.2" height="45.7"/>
		<path class="st5" d="M747.4,50.3h-88.8c6.8-25.9,22.1-38.4,44-40.3c0.1,0,0.7,0,0.9,0C725.3,11.9,740.6,24.4,747.4,50.3z"/>
		<line class="st7" x1="664.8" y1="34.2" x2="741.4" y2="34.6"/>
		<line class="st7" x1="737.5" y1="28.3" x2="668.3" y2="28.3"/>
		<line class="st7" x1="674.9" y1="21.2" x2="731.6" y2="21.6"/>
		<line class="st7" x1="724.2" y1="16.2" x2="681.7" y2="16.2"/>
		<path class="st7" d="M704.8,10.4c6.5,5.8,8.8,17.8,10.3,31.4"/>
		<path class="st7" d="M707.4,10.5c12.2,2.8,20.2,15.6,21.1,30.9"/>
		<path class="st7" d="M700.7,10.4c-6.5,5.8-8.8,17.8-10.3,31.4"/>
		<path class="st7" d="M698.5,10.5c-12.2,2.8-20.6,15.6-21.5,30.9"/>
		<line class="st7" x1="661" y1="42.1" x2="744.6" y2="41.9"/>
		<rect x="652.3" y="66.3" class="st8" width="100.8" height="51.3"/>
		<rect x="652.3" y="60.1" class="st9" width="100.8" height="5.8"/>
		<rect x="729" y="111.4" class="st6" width="24.4" height="6.1"/>
		<rect x="652.1" y="111.3" class="st6" width="24.4" height="6.1"/>
		<g>
			<path class="st10" d="M707.5,117.9h6.3v-7.1l-1.4-1.4h-3.5l-1.4,1.4C707.6,110.7,707.5,118.1,707.5,117.9z"/>
			<rect x="708.9" y="76" class="st10" width="3.2" height="33.4"/>
			<polygon class="st10" points="707.6,70.4 708.9,76 712.2,76 713.5,70.4 			"/>
		</g>
		<g>
			<path class="st10" d="M723.1,117.9h6.3v-7.1l-1.4-1.4h-3.5l-1.4,1.4C723.1,110.7,723.1,118.1,723.1,117.9z"/>
			<rect x="724.5" y="76" class="st10" width="3.2" height="33.4"/>
			<polygon class="st10" points="723.2,70.4 724.5,76 727.7,76 729,70.4 			"/>
		</g>
		<g>
			<path class="st10" d="M738.6,117.9h6.3v-7.1l-1.4-1.4H740l-1.4,1.4C738.7,110.7,738.6,118.1,738.6,117.9z"/>
			<rect x="740.1" y="76" class="st10" width="3.2" height="33.4"/>
			<polygon class="st10" points="738.8,70.4 740.1,76 743.3,76 744.6,70.4 			"/>
		</g>
		<g>
			<path class="st10" d="M660.7,117.9h6.3v-7.1l-1.4-1.4h-3.5l-1.4,1.4C660.8,110.7,660.7,118.1,660.7,117.9z"/>
			<rect x="662.1" y="76" class="st10" width="3.2" height="33.4"/>
			<polygon class="st10" points="660.9,70.4 662.1,76 665.4,76 666.7,70.4 			"/>
		</g>
		<g>
			<path class="st10" d="M676.3,117.9h6.3v-7.1l-1.4-1.4h-3.5l-1.4,1.4C676.4,110.7,676.3,118.1,676.3,117.9z"/>
			<rect x="677.7" y="76" class="st10" width="3.2" height="33.4"/>
			<polygon class="st10" points="676.4,70.4 677.7,76 681,76 682.3,70.4 			"/>
		</g>
		<g>
			<path class="st10" d="M691.9,117.9h6.3v-7.1l-1.4-1.4h-3.5l-1.4,1.4C691.9,110.7,691.9,118.1,691.9,117.9z"/>
			<rect x="693.3" y="76" class="st10" width="3.2" height="33.4"/>
			<polygon class="st10" points="692,70.4 693.3,76 696.5,76 697.8,70.4 			"/>
		</g>
		<g>
			<rect x="738.7" y="50.2" class="st11" width="13" height="9.6"/>
			<polygon class="st12" points="751.7,50.2 738.7,50.2 736,49.1 738.7,48 751.7,48 754.4,49.1 			"/>
			<rect x="738.9" y="45.3" class="st11" width="12.5" height="2.7"/>
			<rect x="740.5" y="42.7" class="st12" width="9.6" height="2.7"/>
			<path class="st11" d="M751.5,41.2v1.4h-12.2v-1.4h1.9c-0.3,0-0.6-0.3-0.6-0.6v-2.1c0-0.3,0.3-0.6,0.6-0.6h8.3
				c0.3,0,0.6,0.3,0.6,0.6v2.1c0,0.3-0.2,0.6-0.6,0.6H751.5z"/>
			<rect x="742.4" y="30" class="st12" width="6" height="8"/>
			<path class="st11" d="M743.1,27.3h4.6c0.9,0.3,1.7,0.7,2.2,1.3V30l-9,0.1v-1.6C741.4,27.8,742.2,27.4,743.1,27.3z"/>
			<rect x="742.5" y="25.6" class="st6" width="5.4" height="1.6"/>
			<path class="st6" d="M747.4,25.6h-4c-0.2-1.8,0.5-2.7,2-2.7C746.8,22.9,747.5,23.7,747.4,25.6z"/>
		</g>
		<g>
			<rect x="653.4" y="50.2" class="st11" width="13" height="9.6"/>
			<polygon class="st12" points="666.4,50.2 653.4,50.2 650.7,49.1 653.4,48 666.4,48 669.1,49.1 			"/>
			<rect x="653.6" y="45.3" class="st11" width="12.5" height="2.7"/>
			<rect x="655.2" y="42.7" class="st12" width="9.6" height="2.7"/>
			<path class="st11" d="M666.2,41.2v1.4H654v-1.4h1.9c-0.3,0-0.6-0.3-0.6-0.6v-2.1c0-0.3,0.3-0.6,0.6-0.6h8.3
				c0.3,0,0.6,0.3,0.6,0.6v2.1c0,0.3-0.2,0.6-0.6,0.6H666.2z"/>
			<rect x="657.1" y="30" class="st12" width="6" height="8"/>
			<path class="st11" d="M657.8,27.3h4.6c0.9,0.3,1.7,0.7,2.2,1.3V30l-9,0.1v-1.6C656.1,27.8,656.9,27.4,657.8,27.3z"/>
			<rect x="657.2" y="25.6" class="st6" width="5.4" height="1.6"/>
			<path class="st6" d="M662.1,25.6h-4c-0.2-1.8,0.5-2.7,2-2.7C661.4,22.9,662.2,23.7,662.1,25.6z"/>
		</g>
		<path class="st5" d="M769.8,57.5v2.3h-5v-2.3h0.2c1.3-2.1,1.9-4.9,2.3-8.2c0.3,3.3,0.8,6.2,2.3,8.2H769.8z"/>
		<path class="st5" d="M785.5,57.5v2.3h-5v-2.3h0.2c1.3-2.1,1.9-4.9,2.3-8.2c0.3,3.3,0.8,6.2,2.3,8.2H785.5z"/>
		<path class="st5" d="M801.1,57.5v2.3h-5v-2.3h0.2c1.3-2.1,1.9-4.9,2.3-8.2c0.3,3.3,0.8,6.2,2.3,8.2H801.1z"/>
		<path class="st5" d="M816.8,57.5v2.3h-5v-2.3h0.2c1.3-2.1,1.9-4.9,2.3-8.2c0.3,3.3,0.8,6.2,2.3,8.2H816.8z"/>
		<path class="st5" d="M594,57.9v2.3h-5v-2.3h0.2c1.3-2.1,1.9-4.9,2.3-8.2c0.3,3.3,0.8,6.2,2.3,8.2H594z"/>
		<path class="st5" d="M609.6,57.9v2.3h-5v-2.3h0.2c1.3-2.1,1.9-4.9,2.3-8.2c0.3,3.3,0.8,6.2,2.3,8.2H609.6z"/>
		<path class="st5" d="M625.3,57.9v2.3h-5v-2.3h0.2c1.3-2.1,1.9-4.9,2.3-8.2c0.3,3.3,0.8,6.2,2.3,8.2H625.3z"/>
		<path class="st5" d="M640.9,57.9v2.3h-5v-2.3h0.2c1.3-2.1,1.9-4.9,2.3-8.2c0.3,3.3,0.8,6.2,2.3,8.2H640.9z"/>
		<g>
			<rect x="738.6" y="117.9" class="st5" width="148.3" height="17"/>
			<g>
				<rect x="848.2" y="123.2" class="st10" width="9.4" height="6.5"/>
				<path class="st10" d="M857.5,123.2h-9.4v-1.4c3.1-1.4,6.2-1.4,9.4,0V123.2z"/>
			</g>
			<path class="st10" d="M824.1,128.9h-5.4v-6.1c1.8-1.5,3.6-1.5,5.4,0V128.9z"/>
			<path class="st10" d="M808.6,128.8h-5.4v-6.1c1.8-1.5,3.6-1.5,5.4,0V128.8z"/>
			<path class="st10" d="M793.1,128.8h-5.4v-6.1c1.8-1.5,3.6-1.5,5.4,0V128.8z"/>
			<path class="st10" d="M777.8,128.8h-5.4v-6.1c1.8-1.5,3.6-1.5,5.4,0V128.8z"/>
			<path class="st10" d="M761.8,128.4h-5.4v-6.1c1.8-1.5,3.6-1.5,5.4,0V128.4z"/>
			<polygon class="st6" points="738.6,134.8 738.6,123.2 860,133.4 860,134.8 			"/>
		</g>
		<g>
			<rect x="518.5" y="117.8" class="st5" width="148.3" height="17"/>
			<g>
				<rect x="547.9" y="123.2" class="st10" width="9.4" height="6.5"/>
				<path class="st10" d="M547.9,123.2h9.4v-1.4c-3.1-1.4-6.2-1.4-9.4,0V123.2z"/>
			</g>
			<path class="st10" d="M581.3,128.9h5.4v-6.1c-1.8-1.5-3.6-1.5-5.4,0V128.9z"/>
			<path class="st10" d="M596.9,128.8h5.4v-6.1c-1.8-1.5-3.6-1.5-5.4,0V128.8z"/>
			<path class="st10" d="M612.3,128.8h5.4v-6.1c-1.8-1.5-3.6-1.5-5.4,0V128.8z"/>
			<path class="st10" d="M627.6,128.8h5.4v-6.1c-1.8-1.5-3.6-1.5-5.4,0V128.8z"/>
			<path class="st10" d="M643.7,128.4h5.4v-6.1c-1.8-1.5-3.6-1.5-5.4,0V128.4z"/>
			<polygon class="st6" points="666.8,134.8 666.8,123.2 545.5,133.4 545.5,134.8 			"/>
		</g>
		<rect x="828.8" y="114.6" class="st13" width="48" height="3.2"/>
		<rect x="876.7" y="114.6" class="st6" width="10.1" height="3.2"/>
		<polygon class="st8" points="876.9,114.6 829.3,114.6 829.3,112.4 830.2,111.6 830.2,49.3 876.1,49.3 876.1,111.9 876.9,112.6 		
			"/>
		<path class="st6" d="M864.2,115.3H842v-35c6.7-10.9,16.7-10.8,22.3,0L864.2,115.3L864.2,115.3z"/>
		<g>
			<rect x="870.9" y="66.2" class="st10" width="5.1" height="45.8"/>
			<polygon class="st10" points="876.8,114.6 870,114.6 870,112.7 870.8,111.9 876.2,111.9 876.8,112.7 			"/>
		</g>
		<g>
			<rect x="830.3" y="66.2" class="st10" width="5.1" height="45.8"/>
			<polygon class="st10" points="836.1,114.6 829.3,114.6 829.3,112.7 830.1,111.9 835.5,111.9 836.1,112.7 			"/>
		</g>
		<g>
			<rect x="838.4" y="66.2" class="st10" width="3.6" height="45.8"/>
			<polygon class="st10" points="842,77.8 838.3,77.8 837.3,71.6 843.3,71.6 			"/>
			<rect x="837.5" y="111.9" class="st10" width="5.3" height="2.7"/>
		</g>
		<g>
			<rect x="864.1" y="66.2" class="st10" width="3.6" height="45.8"/>
			<polygon class="st10" points="867.7,77.8 863.9,77.8 863,71.6 869,71.6 			"/>
			<rect x="863.2" y="111.9" class="st10" width="5.3" height="2.7"/>
		</g>
		<g>
			<path class="st10" d="M810.7,118h6.3v-4.4l-1.4-1.4h-3.5l-1.4,1.4C810.8,113.5,810.7,118.2,810.7,118z"/>
			<rect x="812.2" y="78.8" class="st10" width="3.2" height="33.4"/>
			<polygon class="st10" points="810.9,73.2 812.2,78.8 815.4,78.8 816.7,73.2 			"/>
		</g>
		<g>
			<path class="st10" d="M795.2,118h6.3v-4.4l-1.4-1.4h-3.5l-1.4,1.4C795.3,113.5,795.2,118.2,795.2,118z"/>
			<rect x="796.7" y="78.8" class="st10" width="3.2" height="33.4"/>
			<polygon class="st10" points="795.4,73.2 796.7,78.8 799.9,78.8 801.2,73.2 			"/>
		</g>
		<g>
			<path class="st10" d="M779.7,118h6.3v-4.4l-1.4-1.4h-3.5l-1.4,1.4C779.8,113.5,779.7,118.2,779.7,118z"/>
			<rect x="781.2" y="78.8" class="st10" width="3.2" height="33.4"/>
			<polygon class="st10" points="779.9,73.2 781.2,78.8 784.4,78.8 785.7,73.2 			"/>
		</g>
		<g>
			<path class="st10" d="M764.2,118h6.3v-4.4l-1.4-1.4h-3.5l-1.4,1.4C764.3,113.5,764.2,118.2,764.2,118z"/>
			<rect x="765.7" y="78.8" class="st10" width="3.2" height="33.4"/>
			<polygon class="st10" points="764.4,73.2 765.7,78.8 768.9,78.8 770.2,73.2 			"/>
		</g>
		<g>
			<path class="st10" d="M846.9,114.6h2.2v-2.4l-0.5-0.5h-1.2l-0.5,0.5C846.9,112.1,846.9,114.7,846.9,114.6z"/>
			<rect x="847.4" y="100.1" class="st10" width="1.1" height="11.5"/>
			<polygon class="st10" points="846.9,98.2 847.4,100.1 848.5,100.1 848.9,98.2 			"/>
		</g>
		<g>
			<path class="st10" d="M857.1,114.5h2.2V112l-0.5-0.5h-1.2l-0.5,0.5C857.1,112,857.1,114.6,857.1,114.5z"/>
			<rect x="857.6" y="100" class="st10" width="1.1" height="11.5"/>
			<polygon class="st10" points="857.1,98.1 857.6,100 858.7,100 859.2,98.1 			"/>
		</g>
		<rect x="844.9" y="89" class="st14" width="16.4" height="6.5"/>
		<rect x="844.9" y="95.5" class="st10" width="16.4" height="2.1"/>
		<polygon class="st10" points="853.1,91 844.9,95.5 861.3,95.5 		"/>
		<path class="st5" d="M861.3,89h-16.7v-6.9c4.9-8.3,12.2-8.6,16.7,0V89z"/>
		<line class="st7" x1="849.2" y1="89" x2="849.2" y2="77.1"/>
		<line class="st7" x1="857" y1="89" x2="857" y2="77.1"/>
		<rect x="844.9" y="97.6" class="st10" width="16.4" height="16.9"/>
		<rect x="832.9" y="47.3" class="st6" width="39.9" height="2"/>
		<rect x="832.9" y="28.8" class="st6" width="39.9" height="18.5"/>
		<path class="st5" d="M871,22.7h-36.3v3.7c-1.1,0.4-1.6,1.2-1.8,2.5h39.9c0-1.1-0.7-2.3-1.8-2.3L871,22.7L871,22.7z"/>
		<rect x="753.1" y="66.2" class="st15" width="77.2" height="7"/>
		<rect x="753" y="63.5" class="st6" width="131.8" height="2.4"/>
		<rect x="753" y="59.8" class="st16" width="131.8" height="3.7"/>
		<rect x="838.4" y="32.5" class="st5" width="29.6" height="14.8"/>
		<path class="st10" d="M846.3,43.8h-3.6v-7.6c1.2-0.8,2.4-0.8,3.6,0V43.8z"/>
		<path class="st10" d="M854.9,43.8h-3.6v-7.6c1.2-0.8,2.4-0.8,3.6,0V43.8z"/>
		<path class="st10" d="M863.4,43.8h-3.6v-7.6c1.2-0.8,2.4-0.8,3.6,0V43.8z"/>
		<g>
			<path class="st10" d="M825.4,95.5c-2.6-2.4-5.2-2.4-7.8,0v15.9h7.8V95.5z"/>
			<rect x="817.6" y="99.6" class="st10" width="7.8" height="3.7"/>
			<rect x="817.6" y="107.5" class="st10" width="3.9" height="3.9"/>
			<rect x="821.4" y="107.5" class="st10" width="3.9" height="3.9"/>
		</g>
		<g>
			<path class="st10" d="M810.1,95.5c-2.6-2.4-5.2-2.4-7.8,0v15.9h7.8V95.5z"/>
			<rect x="802.3" y="99.6" class="st10" width="7.8" height="3.7"/>
			<rect x="802.3" y="107.5" class="st10" width="3.9" height="3.9"/>
			<rect x="806.1" y="107.5" class="st10" width="3.9" height="3.9"/>
		</g>
		<g>
			<path class="st10" d="M794.7,95.5c-2.6-2.4-5.2-2.4-7.8,0v15.9h7.8V95.5z"/>
			<rect x="786.9" y="99.6" class="st10" width="7.8" height="3.7"/>
			<rect x="786.9" y="107.5" class="st10" width="3.9" height="3.9"/>
			<rect x="790.7" y="107.5" class="st10" width="3.9" height="3.9"/>
		</g>
		<g>
			<path class="st10" d="M779.2,95.5c-2.6-2.4-5.2-2.4-7.8,0v15.9h7.8V95.5z"/>
			<rect x="771.4" y="99.6" class="st10" width="7.8" height="3.7"/>
			<rect x="771.4" y="107.5" class="st10" width="3.9" height="3.9"/>
			<rect x="775.3" y="107.5" class="st10" width="3.9" height="3.9"/>
		</g>
		<g>
			<rect x="802.9" y="76.5" class="st10" width="6.6" height="11.1"/>
			<rect x="802.9" y="82" class="st10" width="3.3" height="5.6"/>
			<rect x="806.2" y="82" class="st10" width="3.3" height="5.6"/>
			<polygon class="st10" points="806.1,73.9 801.9,76.5 810.5,76.5 			"/>
		</g>
		<g>
			<rect x="787.4" y="76.5" class="st10" width="6.6" height="11.1"/>
			<rect x="787.4" y="82" class="st10" width="3.3" height="5.6"/>
			<rect x="790.7" y="82" class="st10" width="3.3" height="5.6"/>
			<polygon class="st10" points="790.6,73.9 786.3,76.5 795,76.5 			"/>
		</g>
		<g>
			<rect x="771.9" y="76.5" class="st10" width="6.6" height="11.1"/>
			<rect x="771.9" y="82" class="st10" width="3.3" height="5.6"/>
			<rect x="775.2" y="82" class="st10" width="3.3" height="5.6"/>
			<polygon class="st10" points="775.1,73.9 770.8,76.5 779.5,76.5 			"/>
		</g>
		<g>
			<rect x="818.1" y="76.5" class="st10" width="6.6" height="11.1"/>
			<rect x="818.1" y="82" class="st10" width="3.3" height="5.6"/>
			<rect x="821.5" y="82" class="st10" width="3.3" height="5.6"/>
			<polygon class="st10" points="821.4,73.9 817.1,76.5 825.7,76.5 			"/>
		</g>
		<rect x="528.7" y="114.7" class="st13" width="48" height="3.2"/>
		<rect x="518.6" y="114.7" class="st6" width="10.1" height="3.2"/>
		<polygon class="st8" points="528.6,114.6 576.1,114.6 576.1,112.4 575.3,111.6 575.3,49.3 529.4,49.3 529.4,111.9 528.6,112.6 		
			"/>
		<path class="st6" d="M541.2,115.3h22.3v-35c-6.7-10.9-16.7-10.8-22.3,0V115.3z"/>
		<g>
			<rect x="529.4" y="66.1" class="st10" width="5.1" height="45.8"/>
			<polygon class="st10" points="528.7,114.6 535.5,114.6 535.5,112.7 534.7,111.9 529.3,111.9 528.7,112.7 			"/>
		</g>
		<g>
			<rect x="570.1" y="66.1" class="st10" width="5.1" height="45.8"/>
			<polygon class="st10" points="569.3,114.6 576.1,114.6 576.1,112.7 575.3,111.9 569.9,111.9 569.3,112.7 			"/>
		</g>
		<g>
			<rect x="563.4" y="66.1" class="st10" width="3.6" height="45.8"/>
			<polygon class="st10" points="563.5,77.8 567.2,77.8 568.2,71.6 562.1,71.6 			"/>
			<rect x="562.7" y="112" class="st10" width="5.3" height="2.7"/>
		</g>
		<g>
			<rect x="537.8" y="66.1" class="st10" width="3.6" height="45.8"/>
			<polygon class="st10" points="537.8,77.8 541.5,77.8 542.5,71.6 536.4,71.6 			"/>
			<rect x="537" y="112" class="st10" width="5.3" height="2.7"/>
		</g>
		<g>
			<path class="st10" d="M594.7,118h-6.3v-4.4l1.4-1.4h3.5l1.4,1.4C594.6,113.5,594.7,118.2,594.7,118z"/>
			<rect x="590" y="78.8" class="st10" width="3.2" height="33.4"/>
			<polygon class="st10" points="594.6,73.2 593.3,78.8 590,78.8 588.7,73.2 			"/>
		</g>
		<g>
			<path class="st10" d="M610.2,118h-6.3v-4.4l1.4-1.4h3.5l1.4,1.4C610.1,113.5,610.2,118.2,610.2,118z"/>
			<rect x="605.5" y="78.8" class="st10" width="3.2" height="33.4"/>
			<polygon class="st10" points="610.1,73.2 608.8,78.8 605.5,78.8 604.2,73.2 			"/>
		</g>
		<g>
			<path class="st10" d="M625.7,118h-6.3v-4.4l1.4-1.4h3.5l1.4,1.4C625.6,113.5,625.7,118.2,625.7,118z"/>
			<rect x="621" y="78.8" class="st10" width="3.2" height="33.4"/>
			<polygon class="st10" points="625.6,73.2 624.3,78.8 621,78.8 619.7,73.2 			"/>
		</g>
		<g>
			<path class="st10" d="M641.2,118h-6.3v-4.4l1.4-1.4h3.5l1.4,1.4C641.1,113.5,641.2,118.2,641.2,118z"/>
			<rect x="636.5" y="78.8" class="st10" width="3.2" height="33.4"/>
			<polygon class="st10" points="641.1,73.2 639.8,78.8 636.5,78.8 635.2,73.2 			"/>
		</g>
		<g>
			<path class="st10" d="M558.6,114.6h-2.2v-2.4l0.5-0.5h1.2l0.5,0.5C558.6,112.1,558.6,114.7,558.6,114.6z"/>
			<rect x="557" y="100.1" class="st10" width="1.1" height="11.5"/>
			<polygon class="st10" points="558.6,98.2 558.1,100.1 557,100.1 556.5,98.2 			"/>
		</g>
		<g>
			<path class="st10" d="M548.4,114.5h-2.2V112l0.5-0.5h1.2l0.5,0.5C548.3,112,548.4,114.6,548.4,114.5z"/>
			<rect x="546.7" y="100" class="st10" width="1.1" height="11.5"/>
			<polygon class="st10" points="548.3,98.1 547.9,100 546.7,100 546.3,98.1 			"/>
		</g>
		<rect x="544.2" y="89.1" class="st14" width="16.4" height="6.5"/>
		<rect x="544.2" y="95.5" class="st10" width="16.4" height="2.1"/>
		<polygon class="st10" points="552.4,91 560.6,95.5 544.1,95.5 		"/>
		<path class="st5" d="M544.1,89h16.7v-6.9c-4.9-8.3-12.2-8.6-16.7,0V89z"/>
		<line class="st7" x1="556.3" y1="89" x2="556.3" y2="77.1"/>
		<line class="st7" x1="548.5" y1="89" x2="548.5" y2="77.1"/>
		<rect x="544.2" y="97.6" class="st10" width="16.4" height="16.9"/>
		<rect x="532.7" y="47.2" class="st6" width="39.9" height="2"/>
		<rect x="532.7" y="28.8" class="st6" width="39.9" height="18.5"/>
		<path class="st5" d="M534.5,22.7h36.3v3.7c1.1,0.4,1.6,1.2,1.8,2.5h-39.9c0-1.1,0.7-2.3,1.8-2.3L534.5,22.7L534.5,22.7z"/>
		<rect x="575.2" y="66.1" class="st15" width="77.2" height="7"/>
		<rect x="520.6" y="63.4" class="st6" width="131.8" height="2.4"/>
		<rect x="520.6" y="59.7" class="st16" width="131.8" height="3.7"/>
		<rect x="537.5" y="32.5" class="st5" width="29.6" height="14.8"/>
		<path class="st10" d="M559.1,43.8h3.6v-7.6c-1.2-0.8-2.4-0.8-3.6,0V43.8z"/>
		<path class="st10" d="M550.6,43.8h3.6v-7.6c-1.2-0.8-2.4-0.8-3.6,0V43.8z"/>
		<path class="st10" d="M542,43.8h3.6v-7.6c-1.2-0.8-2.4-0.8-3.6,0V43.8z"/>
		<g>
			<path class="st10" d="M580.1,95.5c2.6-2.4,5.2-2.4,7.8,0v15.9h-7.8V95.5z"/>
			<rect x="580.1" y="99.7" class="st10" width="7.8" height="3.7"/>
			<rect x="583.9" y="107.5" class="st10" width="3.9" height="3.9"/>
			<rect x="580.2" y="107.5" class="st10" width="3.9" height="3.9"/>
		</g>
		<g>
			<path class="st10" d="M595.4,95.5c2.6-2.4,5.2-2.4,7.8,0v15.9h-7.8V95.5z"/>
			<rect x="595.4" y="99.7" class="st10" width="7.8" height="3.7"/>
			<rect x="599.3" y="107.5" class="st10" width="3.9" height="3.9"/>
			<rect x="595.5" y="107.5" class="st10" width="3.9" height="3.9"/>
		</g>
		<g>
			<path class="st10" d="M610.8,95.5c2.6-2.4,5.2-2.4,7.8,0v15.9h-7.8V95.5z"/>
			<rect x="610.8" y="99.7" class="st10" width="7.8" height="3.7"/>
			<rect x="614.6" y="107.5" class="st10" width="3.9" height="3.9"/>
			<rect x="610.9" y="107.5" class="st10" width="3.9" height="3.9"/>
		</g>
		<g>
			<path class="st10" d="M626.3,95.5c2.6-2.4,5.2-2.4,7.8,0v15.9h-7.8V95.5z"/>
			<rect x="626.2" y="99.7" class="st10" width="7.8" height="3.7"/>
			<rect x="630.1" y="107.5" class="st10" width="3.9" height="3.9"/>
			<rect x="626.3" y="107.5" class="st10" width="3.9" height="3.9"/>
		</g>
		<g>
			<rect x="596" y="76.5" class="st10" width="6.6" height="11.1"/>
			<rect x="599.3" y="82" class="st10" width="3.3" height="5.6"/>
			<rect x="596" y="82" class="st10" width="3.3" height="5.6"/>
			<polygon class="st10" points="599.4,73.9 603.6,76.5 595,76.5 			"/>
		</g>
		<g>
			<rect x="611.5" y="76.5" class="st10" width="6.6" height="11.1"/>
			<rect x="614.8" y="82" class="st10" width="3.3" height="5.6"/>
			<rect x="611.5" y="82" class="st10" width="3.3" height="5.6"/>
			<polygon class="st10" points="614.9,73.9 619.1,76.5 610.5,76.5 			"/>
		</g>
		<g>
			<rect x="627.1" y="76.5" class="st10" width="6.6" height="11.1"/>
			<rect x="630.3" y="82" class="st10" width="3.3" height="5.6"/>
			<rect x="627" y="82" class="st10" width="3.3" height="5.6"/>
			<polygon class="st10" points="630.4,73.9 634.6,76.5 626,76.5 			"/>
		</g>
		<g>
			<rect x="580.7" y="76.5" class="st10" width="6.6" height="11.1"/>
			<rect x="584.1" y="82" class="st10" width="3.3" height="5.6"/>
			<rect x="580.7" y="82" class="st10" width="3.3" height="5.6"/>
			<polygon class="st10" points="584.1,73.9 588.3,76.5 579.7,76.5 			"/>
		</g>
		<polygon class="st10" points="702.9,45.7 748.1,63.1 746.7,64.7 658.9,64.9 657.1,63.1 		"/>
		<polygon class="st10" points="659.9,70.3 745.7,70.2 745.6,64.7 659.9,65 		"/>
		<polygon class="st10" points="666.7,134.8 738.9,134.8 738.8,117.9 666.7,118.1 		"/>
		<line class="st17" x1="666.8" y1="122.3" x2="738.8" y2="122.3"/>
		<line class="st17" x1="738.8" y1="126.5" x2="666.7" y2="126.5"/>
		<line class="st17" x1="738.7" y1="130.7" x2="666.5" y2="130.7"/>
	</g>
</g>
<g id="Layer_4">
	<g>
		<g class="st18">
			
				<linearGradient id="SVGID_2_" gradientUnits="userSpaceOnUse" x1="0" y1="123.5082" x2="718" y2="123.5082" gradientTransform="matrix(1 0 0 -1 0 154)">
				<stop  offset="0" style="stop-color:#000000"/>
				<stop  offset="0.2023" style="stop-color:#030303;stop-opacity:0.7977"/>
				<stop  offset="0.3369" style="stop-color:#0C0C0C;stop-opacity:0.6631"/>
				<stop  offset="0.4518" style="stop-color:#1B1B1B;stop-opacity:0.5482"/>
				<stop  offset="0.5556" style="stop-color:#303030;stop-opacity:0.4444"/>
				<stop  offset="0.652" style="stop-color:#4C4C4C;stop-opacity:0.348"/>
				<stop  offset="0.7428" style="stop-color:#6E6E6E;stop-opacity:0.2572"/>
				<stop  offset="0.8295" style="stop-color:#969696;stop-opacity:0.1705"/>
				<stop  offset="0.9126" style="stop-color:#C5C5C5;stop-opacity:8.738375e-02"/>
				<stop  offset="0.9904" style="stop-color:#F8F8F8;stop-opacity:9.625316e-03"/>
				<stop  offset="1" style="stop-color:#FFFFFF;stop-opacity:0"/>
			</linearGradient>
			<rect y="10" class="st19" width="718" height="41"/>
		</g>
		<g class="st18">
			
				<linearGradient id="SVGID_3_" gradientUnits="userSpaceOnUse" x1="0" y1="81.5" x2="718" y2="81.5" gradientTransform="matrix(1 0 0 -1 0 154)">
				<stop  offset="0" style="stop-color:#FF0000"/>
				<stop  offset="0.2023" style="stop-color:#FF0303;stop-opacity:0.7977"/>
				<stop  offset="0.3369" style="stop-color:#FF0C0C;stop-opacity:0.6631"/>
				<stop  offset="0.4518" style="stop-color:#FF1B1B;stop-opacity:0.5482"/>
				<stop  offset="0.5556" style="stop-color:#FF3030;stop-opacity:0.4444"/>
				<stop  offset="0.652" style="stop-color:#FF4C4C;stop-opacity:0.348"/>
				<stop  offset="0.7428" style="stop-color:#FF6E6E;stop-opacity:0.2572"/>
				<stop  offset="0.8295" style="stop-color:#FF9696;stop-opacity:0.1705"/>
				<stop  offset="0.9126" style="stop-color:#FFC5C5;stop-opacity:8.738375e-02"/>
				<stop  offset="0.9904" style="stop-color:#FFF8F8;stop-opacity:9.625316e-03"/>
				<stop  offset="1" style="stop-color:#FFFFFF;stop-opacity:0"/>
			</linearGradient>
			<rect y="51" class="st20" width="718" height="43"/>
		</g>
		<g class="st18">
			
				<linearGradient id="SVGID_4_" gradientUnits="userSpaceOnUse" x1="0" y1="39.4918" x2="718" y2="39.4918" gradientTransform="matrix(1 0 0 -1 0 154)">
				<stop  offset="0" style="stop-color:#FFFF00"/>
				<stop  offset="0.2023" style="stop-color:#FFFF03;stop-opacity:0.7977"/>
				<stop  offset="0.3369" style="stop-color:#FFFF0C;stop-opacity:0.6631"/>
				<stop  offset="0.4518" style="stop-color:#FFFF1B;stop-opacity:0.5482"/>
				<stop  offset="0.5556" style="stop-color:#FFFF30;stop-opacity:0.4444"/>
				<stop  offset="0.652" style="stop-color:#FFFF4C;stop-opacity:0.348"/>
				<stop  offset="0.7428" style="stop-color:#FFFF6E;stop-opacity:0.2572"/>
				<stop  offset="0.8295" style="stop-color:#FFFF96;stop-opacity:0.1705"/>
				<stop  offset="0.9126" style="stop-color:#FFFFC5;stop-opacity:8.738375e-02"/>
				<stop  offset="0.9904" style="stop-color:#FFFFF8;stop-opacity:9.625316e-03"/>
				<stop  offset="1" style="stop-color:#FFFFFF;stop-opacity:0"/>
			</linearGradient>
			<rect y="94" class="st21" width="718" height="41"/>
		</g>
	</g>
</g>
<g id="Layer_5">
	<g>
		<path id="path3069" class="st22" d="M304.4,6"/>
		<path id="path3067" class="st22" d="M304.4,6"/>
		<path id="path4669" class="st5" d="M449.3,49.7v7.7h-46.6v-0.8h30.7v-0.3h-30.7v-0.8h25.9v-0.3h-25.9v-0.8h21.2V54h-21.2v-0.8
			h16.4v-0.3h-16.4V52h11.6v-0.3h-11.6v-0.8h6.8v-0.3h-6.8v-0.8h46.6V49.7z"/>
		<rect id="rect3011" x="312.3" y="64" class="st5" width="139.6" height="9.5"/>
		<path id="path3085" d="M384.7,9.9c-0.4,0.4-2.5,1.4-2.1,1.5c0.4,0,0.1,0.7-0.8,0.9c0-0.1,0-0.2,0-0.3s0-0.3,0-0.4
			c0-0.2-0.1-0.3-0.2-0.4c0-0.1,0.1-0.2,0-0.2c0-0.1-0.2-0.2-0.3-0.2c-0.1,0.1-0.2,0.2-0.2,0.2c0,0.1,0.2,0.2-0.1,0.3
			c-0.1,0-0.2,0.2-0.2,0.5c0.2-0.2,0.3,0,0.3,0.1c-0.1,0.1,0,0.3,0,0.5c-1.3-0.6-0.4-0.6-0.6-0.8c-0.5-0.5-2-1.1-2.7-1.4
			c0.1,0.8,0.5,1.6,1,2.2c0.5,0.6,1.2,0.7,1.3,1.5c0.9,0.1,1.2,0.6,0.5,1.1c-1,0.5-1,2-0.7,2.6c0.4,0.6,0.7,0.8,1.6,0.9
			c0,0.8,0.1,2.8,0.1,3.6c-0.5,0.4-0.2,0.3-0.9,0.5c-2.4-0.5-1.4,3.3-1.3,4.8c0.4,1.8,0.5,3.6-1.7,4c0.1-1,0.5-2.1-0.3-2.8
			c-0.8-0.1-1.7-0.1-1.4,0.8c-0.3,1.4,0.4,2.9-2,3.2c-2.3,0.2-3.6,0.8-4.1-0.2c-0.5-1.5-0.8-3.5-2.5-4c-0.3,0.2-1.9,0.5-1.5,0.8
			c0.2,0.9,0.3,2,0.1,3.1c-0.1,1.3,2.4,0.6,1,2c-0.7,1.5,0.7,3.1-0.7,4.2c0.4,1-0.5,4.1,1.2,3.4c-0.2-1-1.3-3.7,0.7-3.7
			c1.1,0.5,0.6-1.2,1.3-0.1c0.5,1.3,0.4,2.8,0.4,4.2c-0.8-1.8-2.8,0.3-1.2,1c0,0.4-1.2,0.1-1.7,0.2c-1.9,0-3.5,0-5.4,0v2.7H402v-2.5
			c0,0-4.3-0.4-5.2-0.2c-0.8,0-2.6,0.2-1.1-0.7c0.1-1.4-1.7-0.8-1-2.2c0.4-0.9,1.1-2.3,1.5-2.4c-0.2,0.6,1.6-0.3,1.2,1.1
			c0,1.1-0.7,1.7-0.8,2.6c1.5,0.9,1.1-2.3,1.6-3.2c-0.9-1.5,0.3-3.3-0.7-4.7c-0.3-1.2,1.4-1.8,0.8-3.1c0.3-0.8,0.2-1.7,0.6-2.5
			c-0.9,0.4-1.3-0.8-2.4,0.2c-1.3,1.1-1.6,3-1.9,4.6c-1.5,0.4-3.7,0.5-5.2-0.4c-1.2-0.2-1.6-0.8-1.1-1.9c-0.5-0.9,0.1-2.1-0.3-3
			c-0.8-0.1-2,0-1.6-1.5c0.1-1.2-0.3-5.2-2-3.4c0.2,1.1-0.4,1.3-0.8,1c-0.2-0.1-0.4-0.4-0.5-0.6c0.3-0.1,0-0.6,0.4-0.9
			c0.4-0.6,0.1-1-0.4-1.2c-0.4,0-1.3,0.3-1.5,0.6c0-1.1-0.1-2.3-0.1-3.4c1-0.2,1.7-1.1,1.6-2.2c-0.1-0.7-0.6-1.2-1.3-1.6
			c0-0.3-0.2-1.2,0.7-1c0.6-0.2,0.6-1,1.1-1.4c0.3-0.7,0.4-1.5,0.6-2.2L384.7,9.9L384.7,9.9L384.7,9.9L384.7,9.9z M381.4,10.8
			C381.5,11.3,381.1,10.9,381.4,10.8z M381.5,10.8C381.8,10.9,381.5,11.3,381.5,10.8z M381.3,14.2C381.4,14.6,381.1,14.5,381.3,14.2
			z M381.2,15.1C381.4,15.2,381,15.2,381.2,15.1z M381.9,16.2C381.8,14.2,383.8,16.1,381.9,16.2z M381.3,16.3
			c-1.1,0.2-0.9-0.5-0.6-0.8C381,15.2,381.4,15.3,381.3,16.3z M382.9,16.1C383.4,17.1,382.7,17.2,382.9,16.1z M380.4,16.1
			C380.6,17.6,380.2,17.1,380.4,16.1z M382,16.9C383.9,16.8,381.9,18.8,382,16.9z M381.4,16.9C381.6,18.8,379.4,16.9,381.4,16.9z
			 M381.9,17.9C382.4,18,381.6,18,381.9,17.9z M381.5,17.9C381.8,18,381.1,18,381.5,17.9z M381.7,22.9c0.1,1-0.3,1-0.9,1
			C380.7,23.5,380.8,23.4,381.7,22.9z M382.1,23.2c0.1,0,0.2,0.7,0,0.8C382.1,23.6,382.1,23.4,382.1,23.2z M385.1,29.1
			c0.7,0.7,0.4,2-0.1,0.5C384.9,29.4,385,29.3,385.1,29.1z M381.1,29.7C381.1,30.4,380.6,30,381.1,29.7z M379.6,30.6
			c-0.7,0.4-2.6,3.1-1.7,0.9C378.5,31.2,379.1,30.9,379.6,30.6z M367.5,32C367.8,32.5,366.9,32.4,367.5,32z M375.6,32.4
			c-0.2,1.7-3.2,0.5-4.4,0.7C372.7,33,374.2,32.8,375.6,32.4z M367.4,32.4C367.6,32.5,367.3,32.6,367.4,32.4z M388.5,32.5
			c0.6,0.2,2.9,1.2,1,0.7C389,33,388.4,33.1,388.5,32.5z M367.4,32.6C367.9,32.8,367,33.6,367.4,32.6z M397.7,32.8
			C397.7,33.3,397.5,32.9,397.7,32.8z M370.2,33c1.7,0.2,3.6,0.5,5.2,0.2c-0.7,1.1-1.3,2.6-0.8,4c-2.1-0.4-0.5-4-3.2-3.6
			C371.1,33.6,370.3,33.5,370.2,33z M388.6,33.1c1.3,0.3,3.2,0.7,4.1,1.1c-0.6,1.3-1.1,2.7-2.7,3.1c-0.3-1.2,0.6-4-1-3.5
			C388.9,33.6,388.7,33.3,388.6,33.1z M394.5,33.5c-1.1,0.6-2.7,0.3-2.8,0C392.6,33.6,393.5,33.7,394.5,33.5z M394.7,33.6
			C394.8,33.7,394.4,33.6,394.7,33.6z M391.8,36.6c0.7,1.5-2.6,1.1-0.6,0.4C391.4,36.9,391.6,36.7,391.8,36.6z M373.5,36.9
			c0.8,0.4,1.7,0.9,0.2,0.7C373,37.8,373.5,37.1,373.5,36.9z M391.7,37.8c0.6,1.2,0.3,2.6,0.2,3.7c0.1,0.6,1.1,2.3-0.2,2.1
			C391.7,41.7,391.6,39.7,391.7,37.8L391.7,37.8z M391.4,37.8c0.1,1.9,0,3.9,0,5.8c-0.6,0-0.4-0.8-0.7,0c-1.2,0.4-0.6-1.2-0.6-1.6
			c-0.2-0.8-0.5-2.5,0.4-2.9c-0.1-0.6-1.3-1.6,0.4-1.3C391.1,37.8,391.3,37.8,391.4,37.8L391.4,37.8z M373.1,37.9
			c1.2,0.5,0.2,3,0.5,4.3c0.2,1-0.1,1.8-1.1,1.4c-0.2-1.4,0.9-2.4,0.4-3.9C373,39.1,372.8,38.5,373.1,37.9L373.1,37.9z M374.4,37.9
			c1.4,0.7,0.8,3.4,1.3,4.9c0.2,1.5-2.7,1.1-1.9-0.5C374.2,41.1,373.2,38,374.4,37.9z M371.6,38.1C371.7,38.3,371.1,38.9,371.6,38.1
			z M393.9,38.4c0.8,1.1-0.3,2.7-0.1,4.1c0,1.1-0.5,1.7-0.4,0.3C393.7,41.4,393.2,39.8,393.9,38.4z M377,39.5
			c0.2,1.1,0.3,2.5,0.9,3.5c0.4,1.2-1.9,0.7-0.3,0c0-1.3-1.5-1.3-0.6-2.8C376.9,40,376.7,39.7,377,39.5L377,39.5z M378.3,39.6
			c1.1,0.4,0.9,3.2,0.5,4.1c-1.6-0.3,0.8-2.4-0.4-3.5C378.3,40,378.3,39.8,378.3,39.6z M388.9,39.7c0.9,0.7-0.3,3.8-0.3,1.6
			C388.6,40.9,388.5,39.8,388.9,39.7z M386.7,39.7c0.7,1,0,2.2-0.1,2.9c1,0.9-1.2,1.7-0.5,0.1C386.2,41.8,386.2,40.2,386.7,39.7z
			 M379.8,39.7c1.5,0.1,3.5,0,2.8,2.1c0.3,1.4-0.3,2.1-1.9,1.8c-0.7-0.6,0.5-2.2-1.1-1.9C379.6,41.1,380,40.4,379.8,39.7z
			 M385.1,39.9c-0.9,1.1,1.1,1,0.4,2.2c-0.2,1,0.2,1.5-0.5,1.4c-0.6,0.4-1.8,0-1.5-1C383.6,41.1,382.9,39.6,385.1,39.9z M370.7,40.7
			c0.5,0.5,0.3,3.6-0.2,2.5C370.9,42.4,370.6,41.5,370.7,40.7z M370,42.6C370.1,43.7,369,43.8,370,42.6z M372.2,42.8
			C372.7,44.6,370.9,43.2,372.2,42.8z M388.5,43.1C390,43.9,388.6,44,388.5,43.1z M387.8,43.2C387.9,44.2,387.2,43.5,387.8,43.2z
			 M379.5,43.3C380.6,43.6,379.4,44,379.5,43.3z M392.6,43.5C393.5,43.6,392.5,44,392.6,43.5z M386.9,43.6
			C387,43.7,386.7,43.7,386.9,43.6z M387.3,43.6C387.3,43.7,387.3,43.7,387.3,43.6z M380.3,43.6C380.5,43.7,380.2,43.8,380.3,43.6z"
			/>
		<rect id="rect3101" x="307.7" y="59.9" class="st5" width="148.7" height="1.8"/>
		<rect id="rect3103" x="309.5" y="62" class="st5" width="145.2" height="1.8"/>
		<rect id="rect3009" x="335.7" y="132.3" class="st5" width="9.8" height="2.7"/>
		<rect id="rect3106" x="336.2" y="73.9" class="st5" width="8.8" height="1.5"/>
		<rect id="rect3108" x="337" y="75.8" class="st5" width="7.2" height="1.4"/>
		<path id="path3936" class="st5" d="M337.4,77.6h6.5l0.5,54.2h-7.5L337.4,77.6z"/>
		<rect id="rect3940" x="336.2" y="73.9" class="st5" width="8.8" height="1.5"/>
		<rect id="rect3942" x="337" y="75.8" class="st5" width="7.2" height="1.4"/>
		<path id="path3886" class="st5" d="M313,77.6h6.5l0.5,54.2h-7.5L313,77.6z"/>
		<rect id="rect3888" x="311.3" y="132.3" class="st5" width="9.8" height="2.7"/>
		<rect id="rect3890" x="311.9" y="73.9" class="st5" width="8.8" height="1.5"/>
		<rect id="rect3892" x="312.7" y="75.8" class="st5" width="7.2" height="1.4"/>
		<rect id="rect3950" x="311.9" y="73.9" class="st5" width="8.8" height="1.5"/>
		<rect id="rect3952" x="312.7" y="75.8" class="st5" width="7.2" height="1.4"/>
		<path id="path3896" class="st5" d="M361.7,77.6h6.5l0.5,54.2h-7.5L361.7,77.6z"/>
		<rect id="rect3898" x="360" y="132.3" class="st5" width="9.8" height="2.7"/>
		<rect id="rect3900" x="360.6" y="73.9" class="st5" width="8.8" height="1.5"/>
		<rect id="rect3902" x="361.3" y="75.8" class="st5" width="7.2" height="1.4"/>
		<rect id="rect3960" x="360.6" y="73.9" class="st5" width="8.8" height="1.5"/>
		<rect id="rect3962" x="361.3" y="75.8" class="st5" width="7.2" height="1.4"/>
		<path id="path3966" class="st5" d="M420.7,77.6h6.5l0.5,54.2h-7.5L420.7,77.6z"/>
		<rect id="rect3968" x="418.9" y="132.3" class="st5" width="9.8" height="2.7"/>
		<rect id="rect3970" x="419.5" y="73.9" class="st5" width="8.8" height="1.5"/>
		<rect id="rect3972" x="420.2" y="75.8" class="st5" width="7.2" height="1.4"/>
		<rect id="rect4000" x="419.5" y="73.9" class="st5" width="8.8" height="1.5"/>
		<rect id="rect4002" x="420.2" y="75.8" class="st5" width="7.2" height="1.4"/>
		<path id="path3976" class="st5" d="M395.9,77.6h6.5l0.5,54.2h-7.5L395.9,77.6z"/>
		<rect id="rect3978" x="394.2" y="132.3" class="st5" width="9.8" height="2.7"/>
		<rect id="rect3980" x="394.8" y="73.9" class="st5" width="8.8" height="1.5"/>
		<rect id="rect3982" x="395.6" y="75.8" class="st5" width="7.2" height="1.4"/>
		<rect id="rect4010" x="394.8" y="73.9" class="st5" width="8.8" height="1.5"/>
		<rect id="rect4012" x="395.6" y="75.8" class="st5" width="7.2" height="1.4"/>
		<path id="path3986" class="st5" d="M444.6,77.6h6.5l0.5,54.2h-7.5L444.6,77.6z"/>
		<rect id="rect3988" x="442.9" y="132.3" class="st5" width="9.8" height="2.7"/>
		<rect id="rect3990" x="443.5" y="73.9" class="st5" width="8.8" height="1.5"/>
		<rect id="rect3992" x="444.2" y="75.8" class="st5" width="7.2" height="1.4"/>
		<rect id="rect4020" x="443.5" y="73.9" class="st5" width="8.8" height="1.5"/>
		<rect id="rect4022" x="444.2" y="75.8" class="st5" width="7.2" height="1.4"/>
		<rect id="rect4117" x="359.7" y="46.6" class="st5" width="44.6" height="2.7"/>
		<rect id="rect4119" x="404.8" y="46.6" class="st5" width="46.9" height="2.7"/>
		<rect id="rect4121" x="312" y="46.6" class="st5" width="47.3" height="2.7"/>
		<rect id="rect4123" x="361.8" y="49.8" width="40.4" height="9.7"/>
		<path id="rect4127" class="st5" d="M314.6,49.7v7.7h46.6v-0.8h-30.7v-0.3h30.7v-0.8h-25.9v-0.3h25.9v-0.8H340V54h21.2v-0.8h-16.4
			v-0.3h16.4V52h-11.6v-0.3h11.6v-0.8h-6.8v-0.3h6.8v-0.8h-46.6V49.7z"/>
		<rect id="rect4129" x="402.7" y="57.8" class="st5" width="49" height="1.8"/>
		<rect id="rect4131" x="312.3" y="57.8" class="st5" width="49" height="1.8"/>
	</g>
</g>
<g id="Layer_6">
	<g>
		<polygon class="st23" points="253.3,63.9 253.2,59.7 250,59.7 249.9,63.9 		"/>
		<polygon class="st23" points="253.2,55.9 253.1,54.2 250.1,54.2 250,55.9 		"/>
		<polygon class="st23" points="254.3,134.3 253.3,64.6 249.9,64.6 248.9,134.3 		"/>
		<path class="st23" d="M250.2,47.1v3.3h3v-3.3c-0.5,0.1-0.9,0.1-1.4,0.1C251.1,47.2,250.6,47.1,250.2,47.1z"/>
		<path class="st24" d="M251.6,22.1h-1l-0.2,8c0.4-0.1,0.8-0.1,1.2-0.1s0.8,0,1.2,0.1l-0.2-8H251.6z"/>
		<path class="st25" d="M259.5,38.6c0-4.4-3.6-7.9-7.9-7.9c-4.4,0-7.9,3.6-7.9,7.9c0,4.4,3.6,7.9,7.9,7.9
			C256,46.5,259.5,42.9,259.5,38.6z"/>
		<path class="st24" d="M255.8,51.1h-8.5c-0.6,0-1.1,0.5-1.1,1.1v0.1c0,0.6,0.5,1.1,1.1,1.1h8.5c0.6,0,1.1-0.5,1.1-1.1v-0.1
			C257,51.6,256.5,51.1,255.8,51.1z"/>
		<path class="st24" d="M255.8,56.6h-8.5c-0.6,0-1.1,0.5-1.1,1.1v0.1c0,0.6,0.5,1.1,1.1,1.1h8.5c0.6,0,1.1-0.5,1.1-1.1v-0.1
			C257,57.1,256.5,56.6,255.8,56.6z"/>
		<path d="M260.2,38.6c0-4.1-2.9-7.5-6.7-8.4l-0.2-8.5c0-0.2-0.2-0.3-0.3-0.3h-0.9v-15c0-0.2-0.2-0.3-0.3-0.3
			c-0.2,0-0.3,0.2-0.3,0.3v15h-0.9c-0.2,0-0.3,0.2-0.3,0.3l-0.2,8.5c-3.8,0.9-6.7,4.3-6.7,8.4c0,4,2.8,7.4,6.5,8.3v3.4h-2.1
			c-1,0-1.8,0.8-1.8,1.8v0.1c0,1,0.8,1.8,1.8,1.8h2v1.7h-2c-1,0-1.8,0.8-1.8,1.8v0.1c0,1,0.8,1.8,1.8,1.8h1.9l-0.1,4.2h-3.3
			c-0.2,0-0.3,0.2-0.3,0.3c0,0.2,0.2,0.3,0.3,0.3h3.3l-1,70c0,0.1,0,0.2,0.1,0.3s0.2,0.1,0.2,0.1h6c0.1,0,0.2,0,0.2-0.1
			c0.1-0.1,0.1-0.2,0.1-0.3l-1-70h3.3c0.2,0,0.3-0.2,0.3-0.3c0-0.2-0.2-0.3-0.3-0.3H254l-0.1-4.2h1.9c1,0,1.8-0.8,1.8-1.8v-0.1
			c0-1-0.8-1.8-1.8-1.8h-2V54h2c1,0,1.8-0.8,1.8-1.8v-0.1c0-1-0.8-1.8-1.8-1.8h-2.1v-3.4C257.5,46,260.2,42.6,260.2,38.6z"/>
		<path class="st16" d="M250.6,22.1h1h1l0.2,8c-0.4-0.1-0.8-0.1-1.2-0.1s-0.8,0-1.2,0.1L250.6,22.1z"/>
		<polygon class="st6" points="254.3,134.3 248.9,134.3 249.9,64.6 253.3,64.6 		"/>
		<polygon class="st5" points="253.3,63.9 249.9,63.9 250,59.7 253.2,59.7 		"/>
		<path class="st6" d="M255.8,56.6c0.6,0,1.1,0.5,1.1,1.1v0.1c0,0.6-0.5,1.1-1.1,1.1h-8.5c-0.6,0-1.1-0.5-1.1-1.1v-0.1
			c0-0.6,0.5-1.1,1.1-1.1H255.8z"/>
		<polygon class="st5" points="253.2,55.9 250,55.9 250.1,54.2 253.1,54.2 		"/>
		<path class="st6" d="M255.8,51.1c0.6,0,1.1,0.5,1.1,1.1v0.1c0,0.6-0.5,1.1-1.1,1.1h-8.5c-0.6,0-1.1-0.5-1.1-1.1v-0.1
			c0-0.6,0.5-1.1,1.1-1.1H255.8z"/>
		<path class="st5" d="M253.1,50.4h-3v-3.3c0.5,0.1,0.9,0.1,1.4,0.1s1,0,1.4-0.1L253.1,50.4z"/>
		<path class="st16" d="M251.6,46.5c-4.4,0-7.9-3.6-7.9-7.9c0-4.4,3.6-7.9,7.9-7.9c4.4,0,7.9,3.6,7.9,7.9S256,46.5,251.6,46.5z"/>
	</g>
</g>
<g id="Layer_7">
	<g>
		
			<linearGradient id="SVGID_5_" gradientUnits="userSpaceOnUse" x1="1026.5502" y1="127" x2="1026.5502" y2="89.7441" gradientTransform="matrix(1 0 0 -1 0 154)">
			<stop  offset="0" style="stop-color:#000000"/>
			<stop  offset="0.1406" style="stop-color:#040000"/>
			<stop  offset="0.2682" style="stop-color:#0F0000"/>
			<stop  offset="0.3908" style="stop-color:#210000"/>
			<stop  offset="0.5103" style="stop-color:#3B0000"/>
			<stop  offset="0.6276" style="stop-color:#5D0000"/>
			<stop  offset="0.7433" style="stop-color:#860000"/>
			<stop  offset="0.8575" style="stop-color:#B70000"/>
			<stop  offset="0.968" style="stop-color:#EE0000"/>
			<stop  offset="1" style="stop-color:#FF0000"/>
		</linearGradient>
		<path class="st26" d="M1007.1,27h18.3c6.6,0,11.7,1.8,15.3,5.5c3.6,3.7,5.4,8.1,5.4,13.2c0,3.3-0.8,6.4-2.5,9.3
			c-1.6,2.9-4,5.2-7.2,6.8s-7,2.4-11.5,2.4H1007L1007.1,27L1007.1,27z M1023.6,41.3V50h0.4c2,0,3.4-0.3,4.3-1s1.3-1.8,1.3-3.4
			c0-2.9-1.7-4.3-5-4.3H1023.6z"/>
		
			<linearGradient id="SVGID_6_" gradientUnits="userSpaceOnUse" x1="1065.0499" y1="119.749" x2="1065.0499" y2="89.3047" gradientTransform="matrix(1 0 0 -1 0 154)">
			<stop  offset="0" style="stop-color:#000000"/>
			<stop  offset="0.1406" style="stop-color:#040000"/>
			<stop  offset="0.2682" style="stop-color:#0F0000"/>
			<stop  offset="0.3908" style="stop-color:#210000"/>
			<stop  offset="0.5103" style="stop-color:#3B0000"/>
			<stop  offset="0.6276" style="stop-color:#5D0000"/>
			<stop  offset="0.7433" style="stop-color:#860000"/>
			<stop  offset="0.8575" style="stop-color:#B70000"/>
			<stop  offset="0.968" style="stop-color:#EE0000"/>
			<stop  offset="1" style="stop-color:#FF0000"/>
		</linearGradient>
		<path class="st27" d="M1080.7,53v5.2c-3.3,4.3-8.1,6.5-14.3,6.5c-5.1,0-9.2-1.4-12.3-4.3c-3.1-2.8-4.7-6.6-4.7-11.2
			c0-4.4,1.4-8,4.3-10.8s6.6-4.2,11.1-4.2c2.3,0,4.5,0.4,6.5,1.2s3.7,1.9,5.2,3.4c1.4,1.5,2.5,3.3,3.2,5.3s1,4.4,1,7.3h-15.4
			c0.6,1.5,1.5,2.7,2.8,3.5s2.8,1.3,4.5,1.3C1075.9,56.2,1078.7,55.2,1080.7,53z M1064.4,46.3h7.1c-0.1-1.5-0.4-2.6-1.1-3.4
			c-0.7-0.8-1.5-1.2-2.6-1.2c-0.9,0-1.7,0.4-2.4,1.2C1064.7,43.6,1064.4,44.8,1064.4,46.3z"/>
		
			<linearGradient id="SVGID_7_" gradientUnits="userSpaceOnUse" x1="1102.2" y1="119.1387" x2="1102.2" y2="89.5" gradientTransform="matrix(1 0 0 -1 0 154)">
			<stop  offset="0" style="stop-color:#000000"/>
			<stop  offset="0.1406" style="stop-color:#040000"/>
			<stop  offset="0.2682" style="stop-color:#0F0000"/>
			<stop  offset="0.3908" style="stop-color:#210000"/>
			<stop  offset="0.5103" style="stop-color:#3B0000"/>
			<stop  offset="0.6276" style="stop-color:#5D0000"/>
			<stop  offset="0.7433" style="stop-color:#860000"/>
			<stop  offset="0.8575" style="stop-color:#B70000"/>
			<stop  offset="0.968" style="stop-color:#EE0000"/>
			<stop  offset="1" style="stop-color:#FF0000"/>
		</linearGradient>
		<path class="st28" d="M1119.6,34.9v29.4h-14.5v-5.2h-0.1c-1.5,1.9-3,3.2-4.5,4.1c-1.5,0.9-3.4,1.3-5.5,1.3c-3.1,0-5.6-0.9-7.4-2.7
			c-1.9-1.8-2.8-4.4-2.8-7.7V34.9h14.3v15.8c0,2.7,0.9,4,2.7,4c1.2,0,2.1-0.5,2.8-1.6V34.9H1119.6z"/>
		
			<linearGradient id="SVGID_8_" gradientUnits="userSpaceOnUse" x1="1135.4" y1="127.5" x2="1135.4" y2="89.5" gradientTransform="matrix(1 0 0 -1 0 154)">
			<stop  offset="0" style="stop-color:#000000"/>
			<stop  offset="0.1406" style="stop-color:#040000"/>
			<stop  offset="0.2682" style="stop-color:#0F0000"/>
			<stop  offset="0.3908" style="stop-color:#210000"/>
			<stop  offset="0.5103" style="stop-color:#3B0000"/>
			<stop  offset="0.6276" style="stop-color:#5D0000"/>
			<stop  offset="0.7433" style="stop-color:#860000"/>
			<stop  offset="0.8575" style="stop-color:#B70000"/>
			<stop  offset="0.968" style="stop-color:#EE0000"/>
			<stop  offset="1" style="stop-color:#FF0000"/>
		</linearGradient>
		<path class="st29" d="M1149.1,34.9v8.3h-6.3v6.3c0,2.1,1,3.2,2.9,3.2c1.4,0,2.6-0.7,3.6-2.1v11.6c-2.4,1.6-5.3,2.3-8.7,2.3
			c-3.6,0-6.7-1.1-9.2-3.2c-2.5-2.2-3.7-5.1-3.7-8.9v-9.2h-6.2l21.2-16.7v8.4H1149.1z"/>
		
			<linearGradient id="SVGID_9_" gradientUnits="userSpaceOnUse" x1="1165.75" y1="119.749" x2="1165.75" y2="89.3047" gradientTransform="matrix(1 0 0 -1 0 154)">
			<stop  offset="0" style="stop-color:#000000"/>
			<stop  offset="0.1406" style="stop-color:#040000"/>
			<stop  offset="0.2682" style="stop-color:#0F0000"/>
			<stop  offset="0.3908" style="stop-color:#210000"/>
			<stop  offset="0.5103" style="stop-color:#3B0000"/>
			<stop  offset="0.6276" style="stop-color:#5D0000"/>
			<stop  offset="0.7433" style="stop-color:#860000"/>
			<stop  offset="0.8575" style="stop-color:#B70000"/>
			<stop  offset="0.968" style="stop-color:#EE0000"/>
			<stop  offset="1" style="stop-color:#FF0000"/>
		</linearGradient>
		<path class="st30" d="M1151.1,61.4l3.4-8.3c1,1.4,2.3,2.5,3.8,3.3s2.9,1.2,4.3,1.2c0.9,0,1.6-0.2,2.1-0.6c0.5-0.4,0.8-0.9,0.8-1.5
			s-0.2-1.1-0.7-1.6c-0.4-0.4-1.6-0.9-3.6-1.5c-1.9-0.6-3.5-1.2-4.8-1.8c-1.2-0.7-2.3-1.6-3.1-2.9c-0.8-1.3-1.2-2.7-1.2-4.2
			c0-2.9,1.3-5.2,3.8-6.8s6-2.4,10.6-2.4c5.1,0,9.5,0.8,13.1,2.5l-3.6,7.5c-2.4-2.1-4.7-3.2-6.9-3.2c-0.7,0-1.3,0.2-1.8,0.5
			s-0.7,0.7-0.7,1.2c0,0.6,0.2,1.1,0.7,1.6c0.5,0.4,1.7,0.9,3.7,1.4s3.7,1.1,5,1.7c1.3,0.7,2.4,1.6,3.2,2.9c0.8,1.3,1.2,2.8,1.2,4.5
			c0,3-1.2,5.4-3.7,7.2s-5.6,2.6-9.5,2.6C1162,64.7,1156.6,63.6,1151.1,61.4z"/>
		
			<linearGradient id="SVGID_10_" gradientUnits="userSpaceOnUse" x1="1197.7" y1="119.749" x2="1197.7" y2="89.3047" gradientTransform="matrix(1 0 0 -1 0 154)">
			<stop  offset="0" style="stop-color:#000000"/>
			<stop  offset="0.1406" style="stop-color:#040000"/>
			<stop  offset="0.2682" style="stop-color:#0F0000"/>
			<stop  offset="0.3908" style="stop-color:#210000"/>
			<stop  offset="0.5103" style="stop-color:#3B0000"/>
			<stop  offset="0.6276" style="stop-color:#5D0000"/>
			<stop  offset="0.7433" style="stop-color:#860000"/>
			<stop  offset="0.8575" style="stop-color:#B70000"/>
			<stop  offset="0.968" style="stop-color:#EE0000"/>
			<stop  offset="1" style="stop-color:#FF0000"/>
		</linearGradient>
		<path class="st31" d="M1211.7,36v12.9c-3-1.4-5.7-2.1-8.3-2.1c-1.4,0-2.6,0.2-3.4,0.7s-1.2,1.1-1.2,1.9c0,1.9,1.7,2.8,5.2,2.8
			c3,0,5.5-0.5,7.6-1.5v12.7c-2.9,0.9-6.1,1.3-9.4,1.3c-5.9,0-10.4-1.4-13.7-4.2s-4.8-6.4-4.8-10.8s1.5-8,4.6-11s7.2-4.4,12.4-4.4
			C1204.3,34.3,1208,34.8,1211.7,36z"/>
		
			<linearGradient id="SVGID_11_" gradientUnits="userSpaceOnUse" x1="1234.3501" y1="127" x2="1234.3501" y2="89.7441" gradientTransform="matrix(1 0 0 -1 0 154)">
			<stop  offset="0" style="stop-color:#000000"/>
			<stop  offset="0.1406" style="stop-color:#040000"/>
			<stop  offset="0.2682" style="stop-color:#0F0000"/>
			<stop  offset="0.3908" style="stop-color:#210000"/>
			<stop  offset="0.5103" style="stop-color:#3B0000"/>
			<stop  offset="0.6276" style="stop-color:#5D0000"/>
			<stop  offset="0.7433" style="stop-color:#860000"/>
			<stop  offset="0.8575" style="stop-color:#B70000"/>
			<stop  offset="0.968" style="stop-color:#EE0000"/>
			<stop  offset="1" style="stop-color:#FF0000"/>
		</linearGradient>
		<path class="st32" d="M1232.1,27v11.7c2.3-2.7,5.3-4.1,8.9-4.1c3.3,0,6,1,7.9,2.9c1.9,2,2.9,4.7,2.9,8.2v18.6h-14.3v-17
			c0-2.5-1-3.7-2.9-3.7c-0.9,0-1.7,0.4-2.6,1.1v19.6h-15.1V27H1232.1z"/>
	</g>
	<g>
		
			<linearGradient id="SVGID_12_" gradientUnits="userSpaceOnUse" x1="953.85" y1="39.1338" x2="953.85" y2="77.5859" gradientTransform="matrix(1 0 0 -1 0 154)">
			<stop  offset="2.835052e-02" style="stop-color:#FFFF00"/>
			<stop  offset="0.4235" style="stop-color:#FF9200"/>
			<stop  offset="0.8216" style="stop-color:#FF2A00"/>
			<stop  offset="1" style="stop-color:#FF0000"/>
		</linearGradient>
		<path class="st33" d="M970.7,78.9l-4.1,11.7c-2.7-3.6-5.8-5.4-9.3-5.4c-1.9,0-2.9,0.7-2.9,2.2c0,0.5,0.3,0.9,0.9,1.4
			c0.6,0.5,2.2,1.2,4.8,2.2c2.8,1.1,5,2.1,6.6,3.1c1.5,0.9,2.7,2.1,3.5,3.5s1.1,3.1,1.1,5c0,4-1.5,7-4.5,9.1s-7.5,3.1-13.4,3.1
			c-6.6,0-12.3-0.9-17-2.8l4-12.5c1.2,1.8,2.6,3.3,4.4,4.3c1.7,1.1,3.4,1.6,5,1.6c0.8,0,1.4-0.2,2-0.6c0.5-0.4,0.8-0.9,0.8-1.5
			s-0.3-1.1-0.8-1.6s-1.9-1.2-4.1-2.1c-2-0.8-3.6-1.6-4.9-2.3c-1.3-0.8-2.4-1.8-3.4-3.2c-1-1.4-1.4-3.2-1.4-5.3
			c0-4.1,1.5-7.3,4.5-9.4s7.5-3.1,13.3-3.1C961.1,76.4,966.1,77.2,970.7,78.9z"/>
		
			<linearGradient id="SVGID_13_" gradientUnits="userSpaceOnUse" x1="984.9" y1="39.5" x2="984.9" y2="77.5" gradientTransform="matrix(1 0 0 -1 0 154)">
			<stop  offset="2.835052e-02" style="stop-color:#FFFF00"/>
			<stop  offset="0.4235" style="stop-color:#FF9200"/>
			<stop  offset="0.8216" style="stop-color:#FF2A00"/>
			<stop  offset="1" style="stop-color:#FF0000"/>
		</linearGradient>
		<path class="st34" d="M998.6,84.9v8.3h-6.3v6.3c0,2.1,1,3.2,2.9,3.2c1.4,0,2.6-0.7,3.6-2.1v11.6c-2.4,1.6-5.3,2.3-8.7,2.3
			c-3.6,0-6.7-1.1-9.2-3.2c-2.5-2.2-3.7-5.1-3.7-8.9v-9.2H971l21.2-16.7v8.4L998.6,84.9L998.6,84.9z"/>
		
			<linearGradient id="SVGID_14_" gradientUnits="userSpaceOnUse" x1="1017.75" y1="39.3" x2="1017.75" y2="69.7443" gradientTransform="matrix(1 0 0 -1 0 154)">
			<stop  offset="2.835052e-02" style="stop-color:#FFFF00"/>
			<stop  offset="0.4235" style="stop-color:#FF9200"/>
			<stop  offset="0.8216" style="stop-color:#FF2A00"/>
			<stop  offset="1" style="stop-color:#FF0000"/>
		</linearGradient>
		<path class="st35" d="M1033.4,103v5.2c-3.3,4.3-8.1,6.5-14.3,6.5c-5.1,0-9.2-1.4-12.3-4.3c-3.1-2.8-4.7-6.6-4.7-11.2
			c0-4.4,1.4-8,4.3-10.8c2.9-2.8,6.6-4.2,11.1-4.2c2.3,0,4.5,0.4,6.5,1.2c2,0.8,3.7,1.9,5.2,3.4c1.4,1.5,2.5,3.3,3.2,5.3
			s1,4.4,1,7.3H1018c0.6,1.5,1.5,2.7,2.8,3.5s2.8,1.3,4.5,1.3C1028.6,106.2,1031.4,105.2,1033.4,103z M1017.1,96.3h7.1
			c-0.1-1.5-0.4-2.6-1.1-3.4c-0.7-0.8-1.5-1.2-2.6-1.2c-0.9,0-1.7,0.4-2.4,1.2C1017.4,93.6,1017.1,94.8,1017.1,96.3z"/>
		
			<linearGradient id="SVGID_15_" gradientUnits="userSpaceOnUse" x1="1055.85" y1="31.5" x2="1055.85" y2="69.4" gradientTransform="matrix(1 0 0 -1 0 154)">
			<stop  offset="2.835052e-02" style="stop-color:#FFFF00"/>
			<stop  offset="0.4235" style="stop-color:#FF9200"/>
			<stop  offset="0.8216" style="stop-color:#FF2A00"/>
			<stop  offset="1" style="stop-color:#FF0000"/>
		</linearGradient>
		<path class="st36" d="M1053.3,84.9v2.2c2.3-1.7,4.7-2.5,7.3-2.5c3.7,0,6.8,1.4,9.2,4.1c2.5,2.8,3.7,6.2,3.7,10.4
			c0,4.5-1.3,8.2-4,11.1c-2.6,2.9-6,4.3-10.1,4.3c-2.1,0-4.1-0.4-6.1-1.3v9.3h-15.1V84.9H1053.3z M1053.3,97.8v5.3
			c0.9,0.5,1.7,0.7,2.6,0.7s1.6-0.3,2.2-1s0.9-1.6,0.9-2.7s-0.3-2-0.9-2.7s-1.3-1-2.2-1C1054.9,96.4,1054,96.9,1053.3,97.8z"/>
		
			<linearGradient id="SVGID_16_" gradientUnits="userSpaceOnUse" x1="1112.35" y1="39.7441" x2="1112.35" y2="77" gradientTransform="matrix(1 0 0 -1 0 154)">
			<stop  offset="2.835052e-02" style="stop-color:#FFFF00"/>
			<stop  offset="0.4235" style="stop-color:#FF9200"/>
			<stop  offset="0.8216" style="stop-color:#FF2A00"/>
			<stop  offset="1" style="stop-color:#FF0000"/>
		</linearGradient>
		<path class="st37" d="M1109.8,77v8.8c1.9-0.8,3.8-1.1,5.7-1.1c4.2,0,7.6,1.4,10.4,4.2c2.8,2.8,4.1,6.3,4.1,10.4
			c0,4.2-1.4,7.8-4.3,10.7c-2.9,2.9-6.9,4.3-12.2,4.3h-18.8V77H1109.8z M1109.8,103.6h0.3c1.3,0,2.3-0.1,3-0.2s1.3-0.5,1.7-1
			c0.4-0.5,0.7-1.4,0.7-2.6c0-1.1-0.3-2-0.9-2.6s-1.4-1-2.4-1c-0.8,0-1.6,0.2-2.4,0.7L1109.8,103.6L1109.8,103.6z"/>
		
			<linearGradient id="SVGID_17_" gradientUnits="userSpaceOnUse" x1="1147.25" y1="31.5" x2="1147.25" y2="69.1465" gradientTransform="matrix(1 0 0 -1 0 154)">
			<stop  offset="2.835052e-02" style="stop-color:#FFFF00"/>
			<stop  offset="0.4235" style="stop-color:#FF9200"/>
			<stop  offset="0.8216" style="stop-color:#FF2A00"/>
			<stop  offset="1" style="stop-color:#FF0000"/>
		</linearGradient>
		<path class="st38" d="M1149.7,122.5h-16.4l6.1-14.3L1129,84.9h15l3.5,7.8l3.4-7.8h14.6L1149.7,122.5z"/>
		
			<linearGradient id="SVGID_18_" gradientUnits="userSpaceOnUse" x1="1200.5499" y1="39.1338" x2="1200.5499" y2="77.5859" gradientTransform="matrix(1 0 0 -1 0 154)">
			<stop  offset="2.835052e-02" style="stop-color:#FFFF00"/>
			<stop  offset="0.4235" style="stop-color:#FF9200"/>
			<stop  offset="0.8216" style="stop-color:#FF2A00"/>
			<stop  offset="1" style="stop-color:#FF0000"/>
		</linearGradient>
		<path class="st39" d="M1217.4,78.9l-4.1,11.7c-2.7-3.6-5.8-5.4-9.3-5.4c-1.9,0-2.9,0.7-2.9,2.2c0,0.5,0.3,0.9,0.9,1.4
			s2.2,1.2,4.8,2.2c2.8,1.1,5,2.1,6.6,3.1c1.5,0.9,2.7,2.1,3.5,3.5s1.1,3.1,1.1,5c0,4-1.5,7-4.5,9.1s-7.5,3.1-13.4,3.1
			c-6.6,0-12.3-0.9-17-2.8l4-12.5c1.2,1.8,2.6,3.3,4.4,4.3c1.7,1.1,3.4,1.6,5,1.6c0.8,0,1.4-0.2,2-0.6c0.5-0.4,0.8-0.9,0.8-1.5
			s-0.3-1.1-0.8-1.6s-1.9-1.2-4.1-2.1c-2-0.8-3.6-1.6-4.9-2.3c-1.3-0.8-2.4-1.8-3.4-3.2c-1-1.4-1.4-3.2-1.4-5.3
			c0-4.1,1.5-7.3,4.5-9.4s7.5-3.1,13.3-3.1C1207.9,76.4,1212.8,77.2,1217.4,78.9z"/>
		
			<linearGradient id="SVGID_19_" gradientUnits="userSpaceOnUse" x1="1231.7001" y1="39.5" x2="1231.7001" y2="77.5" gradientTransform="matrix(1 0 0 -1 0 154)">
			<stop  offset="2.835052e-02" style="stop-color:#FFFF00"/>
			<stop  offset="0.4235" style="stop-color:#FF9200"/>
			<stop  offset="0.8216" style="stop-color:#FF2A00"/>
			<stop  offset="1" style="stop-color:#FF0000"/>
		</linearGradient>
		<path class="st40" d="M1245.4,84.9v8.3h-6.3v6.3c0,2.1,1,3.2,2.9,3.2c1.4,0,2.6-0.7,3.6-2.1v11.6c-2.4,1.6-5.3,2.3-8.7,2.3
			c-3.6,0-6.7-1.1-9.2-3.2c-2.5-2.2-3.7-5.1-3.7-8.9v-9.2h-6.2l21.2-16.7v8.4L1245.4,84.9L1245.4,84.9z"/>
		
			<linearGradient id="SVGID_20_" gradientUnits="userSpaceOnUse" x1="1264.5499" y1="39.3" x2="1264.5499" y2="69.7443" gradientTransform="matrix(1 0 0 -1 0 154)">
			<stop  offset="2.835052e-02" style="stop-color:#FFFF00"/>
			<stop  offset="0.4235" style="stop-color:#FF9200"/>
			<stop  offset="0.8216" style="stop-color:#FF2A00"/>
			<stop  offset="1" style="stop-color:#FF0000"/>
		</linearGradient>
		<path class="st41" d="M1280.2,103v5.2c-3.3,4.3-8.1,6.5-14.3,6.5c-5.1,0-9.2-1.4-12.3-4.3c-3.1-2.8-4.7-6.6-4.7-11.2
			c0-4.4,1.4-8,4.3-10.8s6.6-4.2,11.1-4.2c2.3,0,4.5,0.4,6.5,1.2c2,0.8,3.7,1.9,5.2,3.4c1.4,1.5,2.5,3.3,3.2,5.3s1,4.4,1,7.3h-15.4
			c0.6,1.5,1.5,2.7,2.8,3.5s2.8,1.3,4.5,1.3C1275.4,106.2,1278.1,105.2,1280.2,103z M1263.9,96.3h7.1c-0.1-1.5-0.4-2.6-1.1-3.4
			s-1.5-1.2-2.6-1.2c-0.9,0-1.7,0.4-2.4,1.2C1264.2,93.6,1263.9,94.8,1263.9,96.3z"/>
		
			<linearGradient id="SVGID_21_" gradientUnits="userSpaceOnUse" x1="1302.6499" y1="31.5" x2="1302.6499" y2="69.4" gradientTransform="matrix(1 0 0 -1 0 154)">
			<stop  offset="2.835052e-02" style="stop-color:#FFFF00"/>
			<stop  offset="0.4235" style="stop-color:#FF9200"/>
			<stop  offset="0.8216" style="stop-color:#FF2A00"/>
			<stop  offset="1" style="stop-color:#FF0000"/>
		</linearGradient>
		<path class="st42" d="M1300.1,84.9v2.2c2.3-1.7,4.7-2.5,7.3-2.5c3.7,0,6.8,1.4,9.2,4.1c2.5,2.8,3.7,6.2,3.7,10.4
			c0,4.5-1.3,8.2-4,11.1c-2.6,2.9-6,4.3-10.1,4.3c-2.1,0-4.1-0.4-6.1-1.3v9.3H1285V84.9H1300.1z M1300.1,97.8v5.3
			c0.9,0.5,1.7,0.7,2.6,0.7s1.6-0.3,2.2-1s0.9-1.6,0.9-2.7s-0.3-2-0.9-2.7s-1.3-1-2.2-1C1301.7,96.4,1300.8,96.9,1300.1,97.8z"/>
	</g>
	<g>
		<g class="st18">
			
				<linearGradient id="SVGID_22_" gradientUnits="userSpaceOnUse" x1="1142" y1="103" x2="1984" y2="103" gradientTransform="matrix(-1 0 0 1 2508 -72)">
				<stop  offset="0" style="stop-color:#000000"/>
				<stop  offset="0.2023" style="stop-color:#030303;stop-opacity:0.7977"/>
				<stop  offset="0.3369" style="stop-color:#0C0C0C;stop-opacity:0.6631"/>
				<stop  offset="0.4518" style="stop-color:#1B1B1B;stop-opacity:0.5482"/>
				<stop  offset="0.5556" style="stop-color:#303030;stop-opacity:0.4444"/>
				<stop  offset="0.652" style="stop-color:#4C4C4C;stop-opacity:0.348"/>
				<stop  offset="0.7428" style="stop-color:#6E6E6E;stop-opacity:0.2572"/>
				<stop  offset="0.8295" style="stop-color:#969696;stop-opacity:0.1705"/>
				<stop  offset="0.9126" style="stop-color:#C5C5C5;stop-opacity:8.738375e-02"/>
				<stop  offset="0.9904" style="stop-color:#F8F8F8;stop-opacity:9.625316e-03"/>
				<stop  offset="1" style="stop-color:#FFFFFF;stop-opacity:0"/>
			</linearGradient>
			<rect x="524" y="11" class="st43" width="842" height="40"/>
		</g>
		<g class="st18">
			
				<linearGradient id="SVGID_23_" gradientUnits="userSpaceOnUse" x1="1142" y1="144" x2="1984" y2="144" gradientTransform="matrix(-1 0 0 1 2508 -72)">
				<stop  offset="0" style="stop-color:#FF0000"/>
				<stop  offset="0.2023" style="stop-color:#FF0303;stop-opacity:0.7977"/>
				<stop  offset="0.3369" style="stop-color:#FF0C0C;stop-opacity:0.6631"/>
				<stop  offset="0.4518" style="stop-color:#FF1B1B;stop-opacity:0.5482"/>
				<stop  offset="0.5556" style="stop-color:#FF3030;stop-opacity:0.4444"/>
				<stop  offset="0.652" style="stop-color:#FF4C4C;stop-opacity:0.348"/>
				<stop  offset="0.7428" style="stop-color:#FF6E6E;stop-opacity:0.2572"/>
				<stop  offset="0.8295" style="stop-color:#FF9696;stop-opacity:0.1705"/>
				<stop  offset="0.9126" style="stop-color:#FFC5C5;stop-opacity:8.738375e-02"/>
				<stop  offset="0.9904" style="stop-color:#FFF8F8;stop-opacity:9.625316e-03"/>
				<stop  offset="1" style="stop-color:#FFFFFF;stop-opacity:0"/>
			</linearGradient>
			<rect x="524" y="51" class="st44" width="842" height="42"/>
		</g>
		<g class="st18">
			
				<linearGradient id="SVGID_24_" gradientUnits="userSpaceOnUse" x1="1142" y1="185" x2="1984" y2="185" gradientTransform="matrix(-1 0 0 1 2508 -72)">
				<stop  offset="0" style="stop-color:#FFFF00"/>
				<stop  offset="0.2023" style="stop-color:#FFFF03;stop-opacity:0.7977"/>
				<stop  offset="0.3369" style="stop-color:#FFFF0C;stop-opacity:0.6631"/>
				<stop  offset="0.4518" style="stop-color:#FFFF1B;stop-opacity:0.5482"/>
				<stop  offset="0.5556" style="stop-color:#FFFF30;stop-opacity:0.4444"/>
				<stop  offset="0.652" style="stop-color:#FFFF4C;stop-opacity:0.348"/>
				<stop  offset="0.7428" style="stop-color:#FFFF6E;stop-opacity:0.2572"/>
				<stop  offset="0.8295" style="stop-color:#FFFF96;stop-opacity:0.1705"/>
				<stop  offset="0.9126" style="stop-color:#FFFFC5;stop-opacity:8.738375e-02"/>
				<stop  offset="0.9904" style="stop-color:#FFFFF8;stop-opacity:9.625316e-03"/>
				<stop  offset="1" style="stop-color:#FFFFFF;stop-opacity:0"/>
			</linearGradient>
			<rect x="524" y="93" class="st45" width="842" height="40"/>
		</g>
	</g>
</g>
</svg>
