<?xml version="1.0" encoding="utf-8"?>
<!-- Generator: Adobe Illustrator 23.0.1, SVG Export Plug-In . SVG Version: 6.00 Build 0)  -->
<svg version="1.1" id="Layer_2" xmlns="http://www.w3.org/2000/svg" xmlns:xlink="http://www.w3.org/1999/xlink" x="0px" y="0px"
	 viewBox="0 0 649.7 71.3" style="enable-background:new 0 0 649.7 71.3;" xml:space="preserve">
<style type="text/css">
	.st0{fill:url(#SVGID_1_);}
	.st1{fill:#4A4A00;}
	.st2{fill:#710000;}
	.st3{fill:#FFFF00;}
	.st4{fill:#FF0000;}
	.st5{fill:#333333;}
	.st6{fill:#4D4D4D;}
	.st7{fill:none;stroke:#808080;stroke-width:0.2155;stroke-linecap:round;stroke-miterlimit:10;}
	.st8{fill:#1A1A1A;stroke:#999999;stroke-width:0.2155;stroke-miterlimit:10;}
	.st9{fill:#333333;stroke:#808080;stroke-width:5.388229e-02;stroke-miterlimit:10;}
	.st10{fill:#808080;stroke:#000000;stroke-width:5.388229e-02;stroke-linecap:round;stroke-miterlimit:10;}
	.st11{fill:#736357;}
	.st12{fill:#534741;stroke:#B3B3B3;stroke-width:5.388229e-02;stroke-miterlimit:10;}
	.st13{fill:#4D4D4D;stroke:#999999;stroke-width:5.388229e-02;stroke-miterlimit:10;}
	.st14{fill:#1A1A1A;stroke:#000000;stroke-width:0.2155;stroke-miterlimit:10;}
	.st15{fill:#808080;stroke:#000000;stroke-width:0.2155;stroke-linecap:round;stroke-miterlimit:10;}
	.st16{fill:#666666;}
	.st17{fill:none;stroke:#4D4D4D;stroke-width:0.2155;stroke-linecap:round;stroke-miterlimit:10;}
	.st18{opacity:0.43;}
	.st19{fill:url(#SVGID_2_);}
	.st20{fill:url(#SVGID_3_);}
	.st21{fill:url(#SVGID_4_);}
	.st22{fill:none;}
	.st23{fill:#8CC63F;}
	.st24{fill:#FCEE21;}
	.st25{fill:#FBB03B;}
	.st26{fill:url(#SVGID_5_);}
	.st27{fill:url(#SVGID_6_);}
	.st28{fill:url(#SVGID_7_);}
	.st29{fill:url(#SVGID_8_);}
	.st30{fill:url(#SVGID_9_);}
	.st31{fill:url(#SVGID_10_);}
	.st32{fill:url(#SVGID_11_);}
	.st33{fill:url(#SVGID_12_);}
	.st34{fill:url(#SVGID_13_);}
	.st35{fill:url(#SVGID_14_);}
	.st36{fill:url(#SVGID_15_);}
	.st37{fill:url(#SVGID_16_);}
	.st38{fill:url(#SVGID_17_);}
	.st39{fill:url(#SVGID_18_);}
	.st40{fill:url(#SVGID_19_);}
	.st41{fill:url(#SVGID_20_);}
	.st42{fill:url(#SVGID_21_);}
	.st43{fill:url(#SVGID_22_);}
	.st44{fill:url(#SVGID_23_);}
	.st45{fill:url(#SVGID_24_);}
</style>
<g id="bg_1_">
	<g id="bg">
		
			<linearGradient id="SVGID_1_" gradientUnits="userSpaceOnUse" x1="317.71" y1="41.2627" x2="317.71" y2="113.3409" gradientTransform="matrix(1 0 0 -1 0 113.5)">
			<stop  offset="0" style="stop-color:#FFFFFF;stop-opacity:0"/>
			<stop  offset="0.105" style="stop-color:#F5FBFF;stop-opacity:0.105"/>
			<stop  offset="0.2804" style="stop-color:#DCEFFD;stop-opacity:0.2804"/>
			<stop  offset="0.5046" style="stop-color:#B2DCFB;stop-opacity:0.5046"/>
			<stop  offset="0.7659" style="stop-color:#78C3F8;stop-opacity:0.7659"/>
			<stop  offset="1" style="stop-color:#3FA9F5"/>
		</linearGradient>
		<rect x="-14.3" y="-0.3" class="st0" width="664" height="73.1"/>
	</g>
</g>
<g>
	<g>
		<g>
			<path class="st1" d="M80.2,46.1c0,0,0,0.2,0.1,0.3c0,0.1,0.1,0.2,0.2,0.3c0,0,0.3,0.2,0.3,0.2h0c0,0.1,0,0.2,0,0.3
				c0,0.1,0.1,0.2,0.2,0.3c0.1,0.1,0.2,0.3,0.2,0.5c0.1,0.1,0.2,0.3,0.3,0.5c0.2,0.2,0.3,0.4,0.4,0.6c0,0,0,0.2,0.1,0.2
				c0.1,0,0.2,0,0.3-0.1c0.1,0,0.2,0,0.2,0s0.1,0,0.1,0.1c0.1,0,0.1,0,0.2,0s0,0.1,0.1,0.1c0,0.1,0.2,0.2,0.3,0.3
				c0.2,0.2,0.4,0.4,0.6,0.6c0.1,0.1,0.1,0.2,0.2,0.3c0.1,0,0.4,0,0.5,0.1c0,0.2,0.2,0.3,0.3,0.5c0.1,0.1,0.1,0.3,0.2,0.4
				c0.1,0.1,0.3,0.3,0.5,0.2c0.1,0,0.1-0.1,0.2,0c0,0,0.1,0.1,0.2,0.1c0,0.5,0.8,0.2,0.8,0.7h0c0,0,0.2,0.2,0.2,0.2
				c0,0.1,0.1,0.1,0.1,0.2c0,0.2-0.2,0.4-0.1,0.6c0,0.1,0.1,0.1,0.1,0.3c0,0.1-0.1,0.2-0.1,0.3c0,0.2-0.3,0.4-0.3,0.7
				c-0.1,0-0.2-0.1-0.3-0.1c-0.1,0-0.3,0-0.4-0.1c-0.1,0-0.2-0.1-0.3-0.1c0,0-0.3,0.1-0.3,0.1c0,0,0,0.1,0,0.2c0,0.1,0,0.1,0,0.2
				c0,0.1,0,0.2-0.1,0.4c-0.1,0.1,0,0.2,0,0.3c0,0.1,0,0.2-0.1,0.3c0,0.1-0.1,0.2-0.2,0.3s-0.1,0.2-0.3,0.3c0,0.2-0.3,0.1-0.4,0.1
				c-0.1,0-0.3,0-0.5,0.1c-0.1,0-0.3,0.1-0.4,0.2c-0.1,0-0.1,0.1-0.2,0.2c-0.2,0.2-0.6,0-0.8,0.3c-0.1,0.1-0.1,0.2-0.2,0.3
				c0,0.1-0.1,0.4-0.2,0.4c0,0.1,0.1,0.2,0.1,0.2s0,0,0.1,0.1c0,0,0,0.1,0,0.1c0.1,0,0.2,0,0.3,0.1c0,0.1,0,0.1,0.1,0.1
				c0,0,0.1,0,0.2,0c0,0,0,0,0,0.1c0,0,0,0,0.1,0c0,0.1,0.1,0.1,0.2,0.2c0,0.1,0,0.2,0.1,0.3c0.1,0.1,0.3,0.3,0.1,0.5
				c0,0.1-0.1,0.2-0.2,0.3c-0.1,0.1-0.1,0.1,0,0.3c0,0.1,0.1,0.2,0.2,0.2s0.2-0.1,0.4-0.1c0,0,0,0,0.1,0.1c0,0,0,0,0,0s0,0,0,0.1
				c0,0,0.1,0.1,0.1,0.1c0,0,0,0.1,0.1,0.1c0,0.1,0,0.3-0.1,0.5c-0.1,0.2-0.2,0.1-0.3,0.3c-0.1,0.1,0,0.3,0.1,0.4
				c0,0.1-0.1,0.3-0.3,0.3c0,0-0.1,0-0.1-0.1c-0.1,0-0.2,0-0.3,0c-0.2,0-0.1-0.3-0.3-0.4c-0.1-0.1-0.4,0-0.5-0.1
				c-0.1-0.1,0-0.4,0.1-0.5c-0.1,0-0.3,0-0.3-0.2c0-0.1,0-0.1-0.1-0.2c-0.1-0.1-0.2-0.1-0.4,0c-0.2,0.1-0.5,0.4-0.8,0.2
				c-0.1-0.1-0.2-0.2-0.3-0.2c-0.1-0.1-0.1-0.1-0.3-0.1c-0.1,0-0.1,0.1-0.2,0.1c0,0-0.1,0-0.2,0s-0.5,0-0.5,0.1
				c0,0.1,0.1,0.2,0.1,0.3c0,0.2-0.1,0.1-0.2,0.2c-0.2-0.1-0.4,0-0.7,0c-0.2,0-0.5,0-0.6-0.1c0,0.1,0,0.1-0.1,0.2s-0.1,0.1-0.3,0.1
				c-0.1,0-0.2,0-0.3,0.1s-0.3,0-0.4,0c-0.1,0-0.1,0.1-0.2,0.1s-0.2,0-0.2,0c0,0.1,0,0.2-0.1,0.3c0,0-0.1,0.1-0.1,0.2
				c-0.2,0-0.4-0.1-0.6,0c-0.1,0.1,0,0.1-0.1,0.2c0,0.1-0.1,0.1-0.1,0.2c-0.1,0-0.1,0-0.2,0c0,0-0.1,0-0.2,0.1c-0.2,0-0.3,0-0.5,0
				c-0.2,0-0.3,0-0.5,0.1c-0.1,0.1-0.3,0.1-0.5,0.1c0-0.1,0-0.3-0.1-0.5c-0.1-0.1-0.4-0.1-0.6-0.2c0.1-0.2,0.1-0.5-0.2-0.4
				c-0.1,0-0.2,0-0.3,0c-0.1,0-0.2,0-0.3-0.1c-0.1-0.1-0.1-0.1-0.2-0.1c-0.1,0-0.1,0-0.2-0.1c-0.1,0-0.5-0.1-0.6,0
				c-0.1,0-0.2,0.2-0.2,0.3c-0.1,0.1,0,0.1,0,0.2c0.1,0.1,0.2,0.3,0.1,0.5c-0.1,0.2-0.3,0.3-0.5,0.5c-0.2,0.1-0.3,0.3-0.5,0.5
				c-0.1,0.1-0.5,0.3-0.6,0.1c0,0,0-0.2,0-0.3c0-0.1,0.2-0.1,0.2-0.1c0-0.1,0-0.2-0.1-0.2c0,0-0.1,0-0.2,0c-0.2,0-0.3,0.2-0.5,0
				c-0.1-0.1-0.1-0.2-0.1-0.3c0-0.1,0.2-0.2,0.1-0.4c0-0.1-0.2-0.1-0.3-0.1c-0.1,0-0.2,0-0.3-0.1c0,0,0-0.1,0-0.2
				c-0.1-0.1-0.2-0.1-0.4-0.1c-0.2,0-0.1,0-0.3-0.1c-0.1,0-0.3-0.1-0.4-0.1c-0.1,0-0.3,0.1-0.4,0.1c-0.1,0-0.2,0.1-0.2,0.1
				c0,0.1-0.2,0-0.4,0c0,0,0-0.1,0-0.1c-0.1,0-0.1-0.1-0.1-0.1c0,0-0.1,0-0.2-0.1c0,0,0-0.1-0.1-0.2c0,0-0.1,0-0.2,0
				c-0.1,0-0.2-0.1-0.3-0.2c-0.1,0-0.2-0.1-0.3-0.1c-0.1,0-0.2-0.1-0.3-0.1c-0.1,0-0.2,0-0.4,0c-0.1,0-0.3,0-0.4,0
				c-0.1,0-0.2,0-0.4,0c-0.1,0-0.3,0.1-0.4,0.1c-0.1,0-0.1-0.2-0.2-0.2c0,0,0-0.1,0-0.2c0-0.1-0.1-0.1-0.2-0.2
				c-0.1,0-0.2,0.3-0.3,0.2c-0.1,0-0.1-0.2-0.2-0.3c-0.1-0.1-0.2-0.1-0.3-0.2c-0.1,0-0.2-0.1-0.4-0.1c-0.3,0-0.5,0.2-0.7,0.4
				c-0.1,0.1-0.1,0.3,0,0.4c0.1,0.1,0.3,0.1,0.4,0.1c0,0.1-0.1,0.2-0.1,0.2c-0.1,0.1-0.1,0.1-0.1,0.3c0,0-0.1,0-0.2,0
				c0,0-0.1,0-0.1,0c0,0-0.1,0-0.1,0s-0.1,0-0.1,0c0,0-0.2,0-0.2-0.1c0,0-0.1-0.1-0.1-0.1c-0.1,0-0.1-0.1-0.2-0.1
				c-0.3,0-0.4,0.2-0.5,0.4c-0.1,0.1-0.2,0.1-0.3,0.1c-0.1,0-0.2,0-0.3,0c-0.1,0-0.1,0-0.2,0c0,0,0-0.1,0-0.2c0,0-0.1,0-0.1-0.1
				c-0.1,0,0-0.1-0.1-0.1c0,0-0.1,0-0.2,0c-0.1,0-0.2,0.1-0.2,0.2c-0.1,0.1-0.2,0.2-0.3,0.3c0,0-0.1-0.1-0.2-0.1
				c-0.1,0-0.2,0-0.2-0.1c-0.1-0.1-0.1-0.2-0.1-0.3c0-0.1,0-0.1-0.1-0.2c-0.1,0,0,0-0.1-0.1c0-0.1-0.1-0.2-0.2-0.4c0,0,0-0.1,0-0.2
				c0-0.1,0-0.1,0-0.2c0-0.2,0.1-0.2,0.2-0.3c0-0.1-0.1-0.3-0.1-0.4c0-0.1,0-0.3,0.2-0.3c0-0.1-0.1-0.2,0-0.3c0-0.1,0,0,0.1-0.1
				c0,0,0.1-0.1,0.1-0.2c0.1-0.3-0.3-0.4-0.1-0.6c-0.1-0.1-0.1-0.5,0-0.7c0.1-0.2,0.2-0.4,0.4-0.6c0.1-0.2,0-0.4,0.2-0.6
				c0,0,0.2-0.1,0.2-0.2c0-0.1,0-0.2,0-0.2c0-0.2,0.1-0.3,0.1-0.6c0-0.1,0-0.1,0-0.2c0-0.1,0.1-0.2,0.1-0.3c0-0.1,0-0.1,0-0.2
				s0-0.2,0-0.2c0-0.1,0-0.2,0-0.3c0,0,0.1-0.1,0.1-0.1c0-0.1,0.1-0.1,0.2-0.2c0.1,0,0.1-0.1,0.2-0.1c0.2-0.1,0.3-0.2,0.3-0.5
				c0.1,0,0.2-0.3,0.3-0.3c0.1-0.1,0.2-0.1,0.3-0.2c0.1-0.1,0.1-0.2,0.1-0.3s0.1-0.4,0.2-0.4c0.1,0,0.3-0.1,0.3-0.3
				c0-0.2-0.3-0.1-0.5-0.2c0,0-0.1,0-0.1,0s-0.1-0.1-0.1-0.1c-0.1-0.1-0.2-0.1-0.3-0.2c-0.1,0-0.1,0-0.2,0c0,0-0.1,0-0.1,0
				c0,0-0.1,0-0.2,0c-0.1,0-0.1-0.1-0.2-0.1s-0.1,0-0.2,0c-0.1,0-0.3,0-0.4,0c-0.1,0-0.3,0.1-0.4,0c-0.1-0.1-0.3-0.1-0.4-0.3
				c0,0,0,0,0-0.1c0,0,0-0.1,0-0.2c0-0.1,0-0.1-0.1-0.2c0,0-0.1-0.1-0.2-0.2c0,0-0.1,0-0.2,0c-0.1,0-0.1-0.1-0.2-0.1
				c-0.1,0-0.1,0.1-0.1,0.2c0,0-0.1,0-0.2,0.1c0,0-0.1,0-0.2,0c0,0-0.1,0-0.2,0c0,0,0,0-0.1,0c-0.1,0-0.3-0.1-0.4,0
				c0,0,0,0.1-0.1,0.1c0,0-0.1,0-0.2,0c0-0.1,0-0.2,0-0.3c0,0,0,0,0-0.1s0-0.1,0-0.2c0-0.1-0.1-0.1-0.2-0.2c0,0,0-0.1-0.1-0.1
				c-0.1,0-0.2,0-0.3,0c-0.1,0-0.1,0-0.2,0s-0.2,0-0.3,0.1c-0.1,0-0.1,0.2-0.1,0.2c0,0.1-0.1,0-0.2,0c-0.1,0-0.1-0.1-0.2-0.2
				c0-0.1,0-0.1-0.1-0.2c0,0-0.1-0.1-0.2-0.1c0-0.1,0-0.2,0-0.3c0-0.1,0-0.1-0.1-0.2c0,0-0.1-0.1-0.1-0.2c-0.1-0.1,0-0.4,0-0.5
				c0-0.4-0.6-0.5-0.9-0.5c0-0.1,0-0.3,0-0.4c0,0,0-0.1,0-0.2c0-0.1,0-0.1,0.1-0.1c0.1-0.1,0.2-0.2,0.2-0.3c0,0,0-0.1,0-0.2
				c0,0,0.1-0.1,0.1-0.1c0-0.1,0.1-0.2,0.2-0.2c0,0,0.1,0,0.1-0.1c0,0,0-0.1,0.1-0.2c0,0,0,0,0-0.1L80.2,46.1z"/>
			<path class="st2" d="M51.1,46.1h29.1c0,0,0,0,0-0.1c0,0,0.1-0.1,0.1-0.1c0,0,0-0.1,0.1-0.2c0,0,0.1,0,0.1-0.1c0,0,0-0.1,0-0.2
				c0-0.1,0.1-0.3,0.1-0.4c0,0-0.1-0.1-0.1-0.1c0,0,0-0.1-0.1-0.2c0,0,0-0.1-0.1-0.1c0,0-0.1,0-0.1-0.1c-0.1,0-0.1,0-0.1,0
				c0,0-0.1-0.1-0.2-0.1c-0.1,0-0.2-0.1-0.3-0.2c-0.1-0.1-0.2-0.2-0.3-0.2C79,43.7,79,43.6,79,43.4c0-0.1-0.1-0.2-0.2-0.3
				c-0.1-0.1-0.1-0.2-0.1-0.3c0,0-0.1-0.1-0.1-0.1s0-0.1,0-0.1c0-0.1,0-0.3,0-0.4c0.1,0,0-0.1,0.2,0c0,0,0.1,0.1,0.2,0.2
				c0.1,0.1,0.2,0.2,0.3,0.3c0.1,0,0.3,0.3,0.4,0.2c0.2-0.1,0.1-0.4,0.2-0.5c0,0,0-0.1,0.1-0.1c0-0.1,0.1-0.1,0.2-0.2
				c0.1-0.1,0.3-0.2,0.4-0.3c0.1-0.1,0.2-0.2,0.4-0.2c0.1,0,0.2,0.1,0.3,0c0,0,0.2-0.1,0.2-0.2c0.2-0.2,0.3-0.3,0.6-0.3
				c0.2,0,0.3,0.1,0.5,0.1v0c0.2,0,0.3-0.4,0.5-0.6c0.2-0.1,0.5,0,0.7-0.2c0.1-0.1,0.1-0.3,0.2-0.4c0-0.1,0.2-0.2,0.3-0.2
				s0.2,0,0.4-0.1c0.1,0,0.3-0.1,0.4-0.2c0,0,0.1,0,0.1,0.1c0.1,0,0.1,0,0.1,0c0,0,0.1-0.1,0.1-0.1c0,0,0-0.1,0.1-0.1
				c0.1-0.1,0.2-0.2,0.3-0.2c0.1,0,0.4-0.2,0.5-0.1c0.1,0,0.2-0.1,0.4-0.1c0.1,0,0.2-0.2,0.4-0.3c0.1-0.1,0.3-0.3,0.5-0.3
				c0.2,0,0.4,0,0.6-0.2c0.1-0.1,0.3-0.3,0.5-0.3c0-0.1,0-0.2,0-0.3c0-0.1-0.1-0.2,0-0.3c0-0.1,0-0.2,0-0.3c0-0.1,0-0.2,0.1-0.3
				c0.1-0.1,0.3-0.1,0.4-0.1c0.1,0,0.3,0,0.4,0c0.1,0,0.2,0.1,0.2,0.2c0.1,0.1,0.1,0.1,0.1,0.3c0,0.1,0,0.2,0.1,0.3
				c0.1,0.1,0.1,0.2,0.1,0.3c0.2,0,0.3,0,0.5,0.1c0.2,0,0.3,0,0.4,0.1v0h0c0-0.1,0.1-0.2,0.2-0.3c0.1-0.1,0.1-0.2,0.2-0.3
				c0.2-0.1,0.5-0.1,0.4-0.4c0-0.1,0-0.2,0-0.2c0-0.1-0.1-0.1-0.1-0.2c0-0.1,0.1-0.2,0.1-0.3s0-0.2-0.1-0.3c0-0.2,0.1-0.4,0.1-0.6
				c0-0.2-0.1-0.3-0.1-0.5c0-0.1,0-0.2,0-0.2c0-0.1,0-0.2-0.1-0.3c0-0.1,0-0.2-0.1-0.3c0-0.1-0.1-0.1-0.1-0.2s0-0.2-0.1-0.3
				s-0.2,0-0.2-0.1c-0.1-0.1-0.1-0.1-0.3-0.2c-0.1,0-0.2-0.1-0.3-0.1c0-0.2-0.1-0.2-0.2-0.4c-0.1-0.2,0.2-0.3,0.2-0.4
				c0.1-0.1-0.1-0.4-0.1-0.5c-0.1,0-0.2-0.2-0.3-0.2c0-0.1-0.1-0.3-0.2-0.5c0-0.1-0.1-0.1-0.1-0.2c0,0-0.1-0.1-0.1-0.2
				c0,0,0.1,0,0.1,0c0.1-0.1,0-0.3,0.1-0.5c0.1-0.1,0.1-0.2,0.2-0.3c0-0.1,0.1-0.2,0.1-0.4s0-0.2,0.1-0.4c0-0.3-0.3-0.4-0.3-0.7
				c0-0.3,0.1-0.6-0.1-0.8c-0.1-0.2-0.2,0-0.3,0c-0.1,0-0.2-0.1-0.3-0.2c-0.1-0.1-0.1-0.5,0-0.7c0,0,0-0.1,0-0.2H53.4
				c0.1,0,0.2,0.1,0.4,0.2c0.2,0.1,0.3,0,0.5,0c0.2-0.1,0.4,0.1,0.5,0.2c0,0.1,0.1,0.1,0.1,0.2c0,0.1-0.1,0.1-0.1,0.2
				c-0.1,0.2,0,0.4,0,0.7c0,0.2-0.1,0.3-0.3,0.4c-0.1,0.1-0.3,0.3-0.4,0.4c-0.2,0.1-0.4,0.3-0.6,0.4c-0.1,0-0.4,0.1-0.5,0.2
				c0,0.2,0.1,0.3,0.3,0.4c0.3,0.1,0.3,0.8-0.1,0.8c-0.2,0-0.3,0-0.5,0.1c-0.2,0.1-0.4,0.1-0.6,0.2c-0.3,0.1-0.7,0.1-1,0.1
				c-0.1,0-0.2,0-0.3-0.1c0,0-0.2-0.1-0.2-0.1c-0.1,0-0.1,0.1-0.2,0.1c-0.1,0-0.3,0-0.5,0c-0.2,0-0.3,0.1-0.3,0.3c0.1,0,0,0,0.1,0.1
				c0,0,0,0,0,0.1s0,0.1,0,0.1c0,0.1-0.2,0.1,0,0.2c0.1,0,0.1,0,0.2,0.1c0.1,0.1,0,0.1,0,0.1c0,0,0,0.1,0,0.1c0,0,0.1,0.1,0.2,0.1
				c0,0,0.1,0,0.1,0.1c0,0,0,0.1,0,0.2c0,0.1,0,0.2,0.1,0.4c0,0,0,0.1,0,0.2c0,0.1,0.1,0.1,0.2,0.2c0,0,0.1,0.1,0.1,0.1
				c0,0,0,0.1,0,0.2c0,0.1,0,0.2,0,0.2c0,0.1,0,0.1,0,0.2s0,0.2,0,0.3c0,0.1,0,0.1,0,0.2c-0.1,0-0.1,0-0.2,0.1c0,0,0,0-0.1,0.1
				c0,0.1-0.1,0.2-0.2,0.3c0,0.1-0.1,0.2-0.2,0.2c0,0,0,0,0,0.1s0,0.1,0,0.1c0,0.1,0.1,0.1,0.2,0.2s0,0.2,0,0.3c0,0,0,0-0.1,0
				s0,0,0,0v0c0,0-0.1,0-0.1,0.1c-0.1,0-0.1,0.2-0.2,0.2c0,0,0,0,0,0.1c0,0,0,0.1,0,0.1c-0.1,0.1-0.2,0-0.3,0
				c-0.2,0-0.1,0.3-0.2,0.4c0.1,0,0.1,0.1,0.2,0.1c0,0,0,0,0.1,0c0,0,0,0,0.1,0c0,0,0.1,0.1,0.1,0.2c0,0,0,0.1,0.1,0.1
				c0,0,0.1,0.1,0.2,0.1c0.1,0,0.1,0.1,0.1,0.2c0,0.1,0,0.1-0.1,0.2c0,0,0,0-0.1,0s-0.1,0-0.2,0c-0.1,0,0,0.1,0,0.2
				c0,0.1,0,0.1,0,0.2c0,0.1,0,0.2,0.1,0.3c0,0,0,0,0,0.1c0,0,0.1,0,0.1,0.1c0.1,0,0.2,0.1,0.2,0.1c0,0,0.1,0.3,0.1,0.4
				c0,0,0,0,0.1,0c0,0,0.1,0,0.1,0l0,0c0,0,0.1,0,0.1,0l0,0.2c0,0,0,0,0,0c0,0.1,0,0.2-0.1,0.2c0,0-0.1,0-0.1,0.1c0,0,0,0-0.1,0.1
				c0,0.1,0,0.2,0,0.2c0,0.1,0.1,0.2,0.1,0.3c0,0,0.1,0,0.1,0s0.2,0,0.3,0c0.1,0,0.1,0.2,0.1,0.3s0,0.1,0,0.2c0,0,0,0.1,0,0.1
				c0.1,0.1,0.2,0.2,0.2,0.4c-0.4,0.1-0.6,0.4-0.9,0.7c0,0-0.1,0.1-0.2,0.2c0,0.1,0,0.2,0,0.3c0,0.3-0.3,0.3-0.4,0.6
				c0,0.1,0,0.2,0,0.3c0,0.1,0,0.2,0,0.3c0,0.2,0.1,0.3,0.2,0.5c0,0,0,0.1,0.1,0.2c0,0.1,0.1,0.1,0.1,0.2c0.1,0.1,0.2,0.3,0.3,0.4
				c0.1,0.1,0.2,0.2,0.4,0.2c0.2,0,0.3,0,0.5,0.1c0,0,0,0,0,0c0,0,0,0.1,0,0.1c0,0,0,0.1,0,0.1C51.1,45.8,51.1,46,51.1,46.1z"/>
		</g>
		<g>
			<path class="st3" d="M79.3,45.1c0,0,0,0.2,0.1,0.3c0,0.1,0.1,0.2,0.2,0.3c0,0,0.3,0.2,0.3,0.2h0c0,0.1,0,0.2,0,0.3
				c0,0.1,0.1,0.2,0.2,0.3c0.1,0.1,0.2,0.3,0.2,0.5c0.1,0.1,0.2,0.3,0.3,0.5c0.2,0.2,0.3,0.4,0.4,0.6c0,0,0,0.2,0.1,0.2
				c0.1,0,0.2,0,0.3-0.1c0.1,0,0.2,0,0.2,0s0.1,0,0.1,0.1c0.1,0,0.1,0,0.2,0c0.1,0,0,0.1,0.1,0.1c0,0.1,0.2,0.2,0.3,0.3
				c0.2,0.2,0.4,0.4,0.6,0.6c0.1,0.1,0.1,0.2,0.2,0.3c0.1,0,0.4,0,0.5,0.1c0,0.2,0.2,0.3,0.3,0.5c0.1,0.1,0.1,0.3,0.2,0.4
				c0.1,0.1,0.3,0.3,0.5,0.2c0.1,0,0.1-0.1,0.2,0c0,0,0.1,0.1,0.2,0.1c0,0.5,0.8,0.2,0.8,0.7h0c0,0,0.2,0.2,0.2,0.2
				c0,0.1,0.1,0.1,0.1,0.2c0,0.2-0.2,0.4-0.1,0.6c0,0.1,0.1,0.1,0.1,0.3c0,0.1-0.1,0.2-0.1,0.3c0,0.2-0.3,0.4-0.3,0.7
				c-0.1,0-0.2-0.1-0.3-0.1c-0.1,0-0.3,0-0.4-0.1c-0.1,0-0.2-0.1-0.3-0.1c0,0-0.3,0.1-0.3,0.1c0,0,0,0.1,0,0.2c0,0.1,0,0.1,0,0.2
				c0,0.1,0,0.2-0.1,0.4c-0.1,0.1,0,0.2,0,0.3c0,0.1,0,0.2-0.1,0.3c0,0.1-0.1,0.2-0.2,0.3s-0.1,0.2-0.3,0.3c0,0.2-0.3,0.1-0.4,0.1
				c-0.1,0-0.3,0-0.5,0.1s-0.3,0.1-0.4,0.2c-0.1,0-0.1,0.1-0.2,0.2c-0.2,0.2-0.6,0-0.8,0.3c-0.1,0.1-0.1,0.2-0.2,0.3
				c0,0.1-0.1,0.4-0.2,0.4c0,0.1,0.1,0.2,0.1,0.2c0,0,0,0,0.1,0.1c0,0,0,0.1,0,0.1c0.1,0,0.2,0,0.3,0.1c0,0.1,0,0.1,0.1,0.1
				c0,0,0.1,0,0.2,0c0,0,0,0,0,0.1c0,0,0,0,0.1,0c0,0.1,0.1,0.1,0.2,0.2c0,0.1,0,0.2,0.1,0.3c0.1,0.1,0.3,0.3,0.1,0.5
				c0,0.1-0.1,0.2-0.2,0.3c-0.1,0.1-0.1,0.1,0,0.3c0,0.1,0.1,0.2,0.2,0.2c0.1,0,0.2-0.1,0.4-0.1c0,0,0,0,0.1,0.1c0,0,0,0,0,0
				s0,0,0,0.1c0,0,0.1,0.1,0.1,0.1c0,0,0,0.1,0.1,0.1c0,0.1,0,0.3-0.1,0.5c-0.1,0.2-0.2,0.1-0.3,0.3c-0.1,0.1,0,0.3,0.1,0.4
				c0,0.1-0.1,0.3-0.3,0.3c0,0-0.1,0-0.1-0.1c-0.1,0-0.2,0-0.3,0c-0.2,0-0.1-0.3-0.3-0.4c-0.1-0.1-0.4,0-0.5-0.1
				c-0.1-0.1,0-0.4,0.1-0.5c-0.1,0-0.3,0-0.3-0.2c0-0.1,0-0.1-0.1-0.2c-0.1-0.1-0.2-0.1-0.4,0c-0.2,0.1-0.5,0.4-0.8,0.2
				c-0.1-0.1-0.2-0.2-0.3-0.2c-0.1-0.1-0.1-0.1-0.3-0.1c-0.1,0-0.1,0.1-0.2,0.1c0,0-0.1,0-0.2,0s-0.5,0-0.5,0.1s0.1,0.2,0.1,0.3
				c0,0.2-0.1,0.1-0.2,0.2c-0.2-0.1-0.4,0-0.7,0c-0.2,0-0.5,0-0.6-0.1c0,0.1,0,0.1-0.1,0.2s-0.1,0.1-0.3,0.1s-0.2,0-0.3,0.1
				c-0.1,0-0.3,0-0.4,0c-0.1,0-0.1,0.1-0.2,0.1s-0.2,0-0.2,0s0,0.2-0.1,0.3c0,0-0.1,0.1-0.1,0.2c-0.2,0-0.4-0.1-0.6,0
				c-0.1,0.1,0,0.1-0.1,0.2c0,0.1-0.1,0.1-0.1,0.2c-0.1,0-0.1,0-0.2,0c0,0-0.1,0-0.2,0.1c-0.2,0-0.3,0-0.5,0c-0.2,0-0.3,0-0.5,0.1
				c-0.1,0.1-0.3,0.1-0.5,0.1c0-0.1,0-0.3-0.1-0.5c-0.1-0.1-0.4-0.1-0.6-0.2c0.1-0.2,0.1-0.5-0.2-0.4c-0.1,0-0.2,0-0.3,0
				c-0.1,0-0.2,0-0.3-0.1c-0.1-0.1-0.1-0.1-0.2-0.1c-0.1,0-0.1,0-0.2-0.1c-0.1,0-0.5-0.1-0.6,0c-0.1,0-0.2,0.2-0.2,0.3
				c-0.1,0.1,0,0.1,0,0.2c0.1,0.1,0.2,0.3,0.1,0.5c-0.1,0.2-0.3,0.3-0.5,0.5c-0.2,0.1-0.3,0.3-0.5,0.5c-0.1,0.1-0.5,0.3-0.6,0.1
				c0,0,0-0.2,0-0.3c0-0.1,0.2-0.1,0.2-0.1c0-0.1,0-0.2-0.1-0.2c0,0-0.1,0-0.2,0c-0.2,0-0.3,0.2-0.5,0c-0.1-0.1-0.1-0.2-0.1-0.3
				c0-0.1,0.2-0.2,0.1-0.4c0-0.1-0.2-0.1-0.3-0.1c-0.1,0-0.2,0-0.3-0.1c0,0,0-0.1,0-0.2c-0.1-0.1-0.2-0.1-0.4-0.1
				c-0.2,0-0.1,0-0.3-0.1c-0.1,0-0.3-0.1-0.4-0.1c-0.1,0-0.3,0.1-0.4,0.1c-0.1,0-0.2,0.1-0.2,0.1c0,0.1-0.2,0-0.4,0c0,0,0-0.1,0-0.1
				c-0.1,0-0.1-0.1-0.1-0.1c0,0-0.1,0-0.2-0.1c0,0,0-0.1-0.1-0.2c0,0-0.1,0-0.2,0c-0.1,0-0.2-0.1-0.3-0.2c-0.1,0-0.2-0.1-0.3-0.1
				c-0.1,0-0.2-0.1-0.3-0.1c-0.1,0-0.2,0-0.4,0c-0.1,0-0.3,0-0.4,0c-0.1,0-0.2,0-0.4,0c-0.1,0-0.3,0.1-0.4,0.1
				c-0.1,0-0.1-0.2-0.2-0.2c0,0,0-0.1,0-0.2c0-0.1-0.1-0.1-0.2-0.2c-0.1,0-0.2,0.3-0.3,0.2c-0.1,0-0.1-0.2-0.2-0.3
				c-0.1-0.1-0.2-0.1-0.3-0.2c-0.1,0-0.2-0.1-0.4-0.1c-0.3,0-0.5,0.2-0.7,0.4c-0.1,0.1-0.1,0.3,0,0.4c0.1,0.1,0.3,0.1,0.4,0.1
				c0,0.1-0.1,0.2-0.1,0.2c-0.1,0.1-0.1,0.1-0.1,0.3c0,0-0.1,0-0.2,0c0,0-0.1,0-0.1,0c0,0-0.1,0-0.1,0s-0.1,0-0.1,0
				c0,0-0.2,0-0.2-0.1s-0.1-0.1-0.1-0.1c-0.1,0-0.1-0.1-0.2-0.1c-0.3,0-0.4,0.2-0.5,0.4c-0.1,0.1-0.2,0.1-0.3,0.1
				c-0.1,0-0.2,0-0.3,0c-0.1,0-0.1,0-0.2,0c0,0,0-0.1,0-0.2c0,0-0.1,0-0.1-0.1c-0.1,0,0-0.1-0.1-0.1c0,0-0.1,0-0.2,0
				c-0.1,0-0.2,0.1-0.2,0.2c-0.1,0.1-0.2,0.2-0.3,0.3c0,0-0.1-0.1-0.2-0.1c-0.1,0-0.2,0-0.2-0.1c-0.1-0.1-0.1-0.2-0.1-0.3
				c0-0.1,0-0.1-0.1-0.2c-0.1,0,0,0-0.1-0.1c0-0.1-0.1-0.2-0.2-0.4c0,0,0-0.1,0-0.2c0-0.1,0-0.1,0-0.2c0-0.2,0.1-0.2,0.2-0.3
				c0-0.1-0.1-0.3-0.1-0.4c0-0.1,0-0.3,0.2-0.3c0-0.1-0.1-0.2,0-0.3c0-0.1,0,0,0.1-0.1c0,0,0.1-0.1,0.1-0.2c0.1-0.3-0.3-0.4-0.1-0.6
				c-0.1-0.1-0.1-0.5,0-0.7c0.1-0.2,0.2-0.4,0.4-0.6c0.1-0.2,0-0.4,0.2-0.6c0,0,0.2-0.1,0.2-0.2c0-0.1,0-0.2,0-0.2
				c0-0.2,0.1-0.3,0.1-0.6c0-0.1,0-0.1,0-0.2c0-0.1,0.1-0.2,0.1-0.3c0-0.1,0-0.1,0-0.2c0-0.1,0-0.2,0-0.2c0-0.1,0-0.2,0-0.3
				s0.1-0.1,0.1-0.1c0-0.1,0.1-0.1,0.2-0.2c0.1,0,0.1-0.1,0.2-0.1c0.2-0.1,0.3-0.2,0.3-0.5c0.1,0,0.2-0.3,0.3-0.3
				c0.1-0.1,0.2-0.1,0.3-0.2c0.1-0.1,0.1-0.2,0.1-0.3c0-0.1,0.1-0.4,0.2-0.4c0.1,0,0.3-0.1,0.3-0.3c0-0.2-0.3-0.1-0.5-0.2
				c0,0-0.1,0-0.1,0S58,51.2,58,51.1c-0.1-0.1-0.2-0.1-0.3-0.2c-0.1,0-0.1,0-0.2,0c0,0-0.1,0-0.1,0c0,0-0.1,0-0.2,0
				s-0.1-0.1-0.2-0.1c-0.1,0-0.1,0-0.2,0c-0.1,0-0.3,0-0.4,0c-0.1,0-0.3,0.1-0.4,0c-0.1-0.1-0.3-0.1-0.4-0.3c0,0,0,0,0-0.1
				c0,0,0-0.1,0-0.2c0-0.1,0-0.1-0.1-0.2c0,0-0.1-0.1-0.2-0.2c0,0-0.1,0-0.2,0c-0.1,0-0.1-0.1-0.2-0.1c-0.1,0-0.1,0.1-0.1,0.2
				c0,0-0.1,0-0.2,0.1c0,0-0.1,0-0.2,0c0,0-0.1,0-0.2,0c0,0,0,0-0.1,0c-0.1,0-0.3-0.1-0.4,0c0,0,0,0.1-0.1,0.1c0,0-0.1,0-0.2,0
				c0-0.1,0-0.2,0-0.3c0,0,0,0,0-0.1s0-0.1,0-0.2c0-0.1-0.1-0.1-0.2-0.2c0,0,0-0.1-0.1-0.1c-0.1,0-0.2,0-0.3,0c-0.1,0-0.1,0-0.2,0
				c-0.1,0-0.2,0-0.3,0.1c-0.1,0-0.1,0.2-0.1,0.2c0,0.1-0.1,0-0.2,0c-0.1,0-0.1-0.1-0.2-0.2c0-0.1,0-0.1-0.1-0.2
				c0,0-0.1-0.1-0.2-0.1c0-0.1,0-0.2,0-0.3c0-0.1,0-0.1-0.1-0.2c0,0-0.1-0.1-0.1-0.2c-0.1-0.1,0-0.4,0-0.5c0-0.4-0.6-0.5-0.9-0.5
				c0-0.1,0-0.3,0-0.4c0,0,0-0.1,0-0.2c0-0.1,0-0.1,0.1-0.1c0.1-0.1,0.2-0.2,0.2-0.3c0,0,0-0.1,0-0.2c0,0,0.1-0.1,0.1-0.1
				c0-0.1,0.1-0.2,0.2-0.2c0,0,0.1,0,0.1-0.1c0,0,0-0.1,0.1-0.2c0,0,0,0,0-0.1L79.3,45.1z"/>
			<path class="st4" d="M50.2,45.1h29.1c0,0,0,0,0-0.1c0,0,0.1-0.1,0.1-0.1c0,0,0-0.1,0.1-0.2c0,0,0.1,0,0.1-0.1c0,0,0-0.1,0-0.2
				c0-0.1,0.1-0.3,0.1-0.4c0,0-0.1-0.1-0.1-0.1c0,0,0-0.1-0.1-0.2c0,0,0-0.1-0.1-0.1c0,0-0.1,0-0.1-0.1c-0.1,0-0.1,0-0.1,0
				c0,0-0.1-0.1-0.2-0.1c-0.1,0-0.2-0.1-0.3-0.2s-0.2-0.2-0.3-0.2c-0.2-0.1-0.2-0.1-0.2-0.3c0-0.1-0.1-0.2-0.2-0.3
				c-0.1-0.1-0.1-0.2-0.1-0.3c0,0-0.1-0.1-0.1-0.1s0-0.1,0-0.1c0-0.1,0-0.3,0-0.4c0.1,0,0-0.1,0.2,0c0,0,0.1,0.1,0.2,0.2
				c0.1,0.1,0.2,0.2,0.3,0.3c0.1,0,0.3,0.3,0.4,0.2c0.2-0.1,0.1-0.4,0.2-0.5c0,0,0-0.1,0.1-0.1c0-0.1,0.1-0.1,0.2-0.2
				c0.1-0.1,0.3-0.2,0.4-0.3c0.1-0.1,0.2-0.2,0.4-0.2c0.1,0,0.2,0.1,0.3,0c0,0,0.2-0.1,0.2-0.2c0.2-0.2,0.3-0.3,0.6-0.3
				c0.2,0,0.3,0.1,0.5,0.1v0c0.2,0,0.3-0.4,0.5-0.6c0.2-0.1,0.5,0,0.7-0.2c0.1-0.1,0.1-0.3,0.2-0.4c0-0.1,0.2-0.2,0.3-0.2
				c0.1,0,0.2,0,0.4-0.1c0.1,0,0.3-0.1,0.4-0.2c0,0,0.1,0,0.1,0.1c0.1,0,0.1,0,0.1,0c0,0,0.1-0.1,0.1-0.1c0,0,0-0.1,0.1-0.1
				c0.1-0.1,0.2-0.2,0.3-0.2c0.1,0,0.4-0.2,0.5-0.1c0.1,0,0.2-0.1,0.4-0.1c0.1,0,0.2-0.2,0.4-0.3s0.3-0.3,0.5-0.3
				c0.2,0,0.4,0,0.6-0.2c0.1-0.1,0.3-0.3,0.5-0.3c0-0.1,0-0.2,0-0.3c0-0.1-0.1-0.2,0-0.3c0-0.1,0-0.2,0-0.3c0-0.1,0-0.2,0.1-0.3
				c0.1-0.1,0.3-0.1,0.4-0.1s0.3,0,0.4,0c0.1,0,0.2,0.1,0.2,0.2c0.1,0.1,0.1,0.1,0.1,0.3c0,0.1,0,0.2,0.1,0.3
				c0.1,0.1,0.1,0.2,0.1,0.3c0.2,0,0.3,0,0.5,0.1c0.2,0,0.3,0,0.4,0.1v0h0c0-0.1,0.1-0.2,0.2-0.3c0.1-0.1,0.1-0.2,0.2-0.3
				c0.2-0.1,0.5-0.1,0.4-0.4c0-0.1,0-0.2,0-0.2c0-0.1-0.1-0.1-0.1-0.2c0-0.1,0.1-0.2,0.1-0.3s0-0.2-0.1-0.3c0-0.2,0.1-0.4,0.1-0.6
				c0-0.2-0.1-0.3-0.1-0.5c0-0.1,0-0.2,0-0.2c0-0.1,0-0.2-0.1-0.3c0-0.1,0-0.2-0.1-0.3c0-0.1-0.1-0.1-0.1-0.2s0-0.2-0.1-0.3
				c-0.1,0-0.2,0-0.2-0.1c-0.1-0.1-0.1-0.1-0.3-0.2c-0.1,0-0.2-0.1-0.3-0.1c0-0.2-0.1-0.2-0.2-0.4c-0.1-0.2,0.2-0.3,0.2-0.4
				c0.1-0.1-0.1-0.4-0.1-0.5c-0.1,0-0.2-0.2-0.3-0.2c0-0.1-0.1-0.3-0.2-0.5c0-0.1-0.1-0.1-0.1-0.2c0,0-0.1-0.1-0.1-0.2
				c0,0,0.1,0,0.1,0c0.1-0.1,0-0.3,0.1-0.5c0.1-0.1,0.1-0.2,0.2-0.3c0-0.1,0.1-0.2,0.1-0.4s0-0.2,0.1-0.4c0-0.3-0.3-0.4-0.3-0.7
				s0.1-0.6-0.1-0.8c-0.1-0.2-0.2,0-0.3,0s-0.2-0.1-0.3-0.2c-0.1-0.1-0.1-0.5,0-0.7c0,0,0-0.1,0-0.2H52.5c0.1,0,0.2,0.1,0.4,0.2
				c0.2,0.1,0.3,0,0.5,0c0.2-0.1,0.4,0.1,0.5,0.2c0,0.1,0.1,0.1,0.1,0.2c0,0.1-0.1,0.1-0.1,0.2c-0.1,0.2,0,0.4,0,0.7
				c0,0.2-0.1,0.3-0.3,0.4c-0.1,0.1-0.3,0.3-0.4,0.4c-0.2,0.1-0.4,0.3-0.6,0.4c-0.1,0-0.4,0.1-0.5,0.2c0,0.2,0.1,0.3,0.3,0.4
				c0.3,0.1,0.3,0.8-0.1,0.8c-0.2,0-0.3,0-0.5,0.1c-0.2,0.1-0.4,0.1-0.6,0.2c-0.3,0.1-0.7,0.1-1,0.1c-0.1,0-0.2,0-0.3-0.1
				c0,0-0.2-0.1-0.2-0.1c-0.1,0-0.1,0.1-0.2,0.1c-0.1,0-0.3,0-0.5,0c-0.2,0-0.3,0.1-0.3,0.3c0.1,0,0,0,0.1,0.1c0,0,0,0,0,0.1
				s0,0.1,0,0.1c0,0.1-0.2,0.1,0,0.2c0.1,0,0.1,0,0.2,0.1c0.1,0.1,0,0.1,0,0.1c0,0,0,0.1,0,0.1c0,0,0.1,0.1,0.2,0.1
				c0,0,0.1,0,0.1,0.1c0,0,0,0.1,0,0.2c0,0.1,0,0.2,0.1,0.4c0,0,0,0.1,0,0.2c0,0.1,0.1,0.1,0.2,0.2c0,0,0.1,0.1,0.1,0.1
				c0,0,0,0.1,0,0.2c0,0.1,0,0.2,0,0.2c0,0.1,0,0.1,0,0.2c0,0.1,0,0.2,0,0.3c0,0.1,0,0.1,0,0.2c-0.1,0-0.1,0-0.2,0.1
				c0,0,0,0-0.1,0.1c0,0.1-0.1,0.2-0.2,0.3S49,33.5,49,33.5c0,0,0,0,0,0.1s0,0.1,0,0.1c0,0.1,0.1,0.1,0.2,0.2c0,0.1,0,0.2,0,0.3
				c0,0,0,0-0.1,0c0,0,0,0,0,0v0c0,0-0.1,0-0.1,0.1c-0.1,0-0.1,0.2-0.2,0.2c0,0,0,0,0,0.1s0,0.1,0,0.1c-0.1,0.1-0.2,0-0.3,0
				c-0.2,0-0.1,0.3-0.2,0.4c0.1,0,0.1,0.1,0.2,0.1c0,0,0,0,0.1,0c0,0,0,0,0.1,0c0,0,0.1,0.1,0.1,0.2c0,0,0,0.1,0.1,0.1
				c0,0,0.1,0.1,0.2,0.1c0.1,0,0.1,0.1,0.1,0.2c0,0.1,0,0.1-0.1,0.2c0,0,0,0-0.1,0c0,0-0.1,0-0.2,0c-0.1,0,0,0.1,0,0.2
				c0,0.1,0,0.1,0,0.2c0,0.1,0,0.2,0.1,0.3c0,0,0,0,0,0.1s0.1,0,0.1,0.1c0.1,0,0.2,0.1,0.2,0.1c0,0,0.1,0.3,0.1,0.4c0,0,0,0,0.1,0
				c0,0,0.1,0,0.1,0l0,0c0,0,0.1,0,0.1,0l0,0.2c0,0,0,0,0,0c0,0.1,0,0.2-0.1,0.2c0,0-0.1,0-0.1,0.1c0,0,0,0-0.1,0.1
				c0,0.1,0,0.2,0,0.2c0,0.1,0.1,0.2,0.1,0.3c0,0,0.1,0,0.1,0c0,0,0.2,0,0.3,0c0.1,0,0.1,0.2,0.1,0.3s0,0.1,0,0.2c0,0,0,0.1,0,0.1
				c0.1,0.1,0.2,0.2,0.2,0.4c-0.4,0.1-0.6,0.4-0.9,0.7c0,0-0.1,0.1-0.2,0.2c0,0.1,0,0.2,0,0.3c0,0.3-0.3,0.3-0.4,0.6
				c0,0.1,0,0.2,0,0.3s0,0.2,0,0.3c0,0.2,0.1,0.3,0.2,0.5c0,0,0,0.1,0.1,0.2c0,0.1,0.1,0.1,0.1,0.2c0.1,0.1,0.2,0.3,0.3,0.4
				c0.1,0.1,0.2,0.2,0.4,0.2c0.2,0,0.3,0,0.5,0.1c0,0,0,0,0,0c0,0,0,0.1,0,0.1c0,0,0,0.1,0,0.1C50.2,44.9,50.2,45,50.2,45.1z"/>
			<g>
				<path d="M52.3,24.5l36.3,0c0,0,0-0.1,0-0.1c0-0.1,0.1-0.1,0.1-0.2c0.1-0.2,0-0.4,0-0.6c0-0.1,0-0.2,0-0.3c0-0.1,0-0.1-0.1-0.2
					c-0.1,0-0.1-0.1-0.2-0.1s-0.2-0.1-0.3-0.2c0-0.1-0.2,0-0.2-0.1c-0.1,0-0.1,0-0.2-0.1c0,0-0.1,0-0.1,0c0,0,0,0,0-0.1
					c-0.1-0.1-0.3-0.2-0.3-0.4c-0.1,0-0.2-0.1-0.2-0.2c-0.1,0-0.3,0-0.4-0.1c0,0-0.1,0-0.1-0.1c-0.1,0-0.1,0-0.2,0
					c0-0.2,0.1-0.5,0.1-0.7c0-0.1,0-0.2,0-0.3c0-0.1,0.1-0.2,0.3-0.3c0.2-0.1,0.4-0.2,0.5-0.4c0-0.1,0-0.2,0.1-0.3
					c0-0.1,0.1-0.1,0.1-0.3c0-0.1,0-0.2,0-0.3c0-0.1,0-0.2,0.1-0.3c0.1-0.1,0.1-0.4,0.1-0.6c0-0.1-0.1-0.2-0.2-0.3
					c0-0.1,0-0.2-0.1-0.3c-0.1-0.2-0.1-0.5-0.2-0.7c-0.1-0.3-0.2-0.5-0.3-0.8c0-0.3-0.1-0.5-0.1-0.8c-0.1,0-0.2,0-0.3,0
					c0,0,0-0.1,0-0.1c0,0,0,0,0,0c0-0.1,0-0.1,0-0.2c0,0-0.1,0.1-0.2,0.1c-0.1,0-0.2,0-0.3,0c-0.1,0-0.3,0-0.4-0.1
					c0,0-0.1-0.1-0.1-0.1s-0.1,0-0.2-0.1c-0.1,0-0.2-0.2-0.4-0.1v0c0,0-0.1,0-0.1-0.1c-0.2,0-0.2-0.2-0.1-0.4c0,0,0.1-0.1,0.1-0.1
					c0-0.1,0-0.2,0.1-0.2c0,0-0.1-0.1-0.1-0.1c0-0.1-0.1-0.2-0.2-0.3c0,0-0.1-0.1-0.1-0.2c0,0-0.1-0.1-0.2-0.1
					c0.1,0,0.1-0.3,0.2-0.4c0-0.2,0-0.3-0.2-0.4c0-0.1-0.3,0-0.4,0c-0.1,0-0.3,0-0.5,0c0,0-0.1,0-0.1,0.1c0,0,0,0.1,0,0.2
					c0,0,0,0.1,0,0.2c-0.1,0-0.1-0.1-0.1-0.1h0c0-0.1,0-0.3-0.2-0.3c0,0,0-0.1,0-0.1c0,0-0.1,0-0.1,0s0,0-0.1-0.1
					c-0.1,0-0.1,0-0.2,0c0-0.1,0-0.1,0-0.2c0-0.1-0.1-0.1-0.2-0.1c-0.1,0-0.2-0.3-0.4-0.2c0,0-0.1-0.1-0.2-0.2c0,0-0.1,0-0.1,0
					c0-0.1,0,0,0-0.1c0-0.1,0-0.2,0-0.3s0-0.1,0-0.2c-0.1-0.1-0.2,0-0.3-0.1c-0.1-0.1,0-0.2,0-0.3c0,0-0.1,0-0.1,0c0,0,0,0-0.1,0.1
					c0,0-0.1,0.1-0.2,0.1c-0.2,0.1-0.1,0.3-0.4,0.4c-0.1,0-0.1-0.2-0.2-0.2v0c0,0-0.1,0-0.1,0c0,0,0,0,0-0.1c0,0-0.1,0-0.2,0
					c0,0.2-0.1,0.2-0.3,0.2c-0.1,0-0.1,0-0.2,0s0,0-0.2,0c0,0,0,0.1-0.1,0.2c0,0-0.1,0-0.1,0.1c0,0-0.1,0.1-0.1,0.2
					c0,0.1,0,0.1,0,0.2c-0.1,0-0.2,0.1,0,0.2c0,0-0.1,0-0.1,0.1c0-0.1-0.1-0.3-0.2-0.3s-0.1,0-0.2,0.1c-0.1,0-0.1,0-0.2,0.1
					c-0.2,0.1-0.5,0.4-0.5,0.7c-0.1,0-0.1,0-0.2,0s-0.1,0-0.1,0c0,0-0.1,0.1-0.1,0s-0.1,0-0.2,0c-0.1,0-0.1,0-0.2,0
					c0,0-0.1,0-0.2,0.1c-0.1,0-0.2,0-0.3,0c-0.1,0-0.3,0-0.4,0c-0.1,0-0.2,0.1-0.3,0.2c-0.1,0-0.1,0,0,0.1c0,0.1,0,0.1,0,0.2
					c0,0.1,0,0.3-0.2,0.3c-0.1,0-0.2,0.1-0.3,0.1c-0.1,0.1,0,0.2-0.1,0.4c0,0-0.1,0-0.1,0.1c0,0,0,0.1,0,0.1c0,0.1-0.2,0.2-0.3,0
					c-0.1,0-0.2-0.1-0.3-0.1c-0.1,0-0.1,0-0.1,0c0,0,0,0.1-0.1,0.1s-0.2,0-0.2-0.1c0-0.1,0.1-0.1,0.1-0.3c0,0-0.1,0-0.1,0
					c0,0-0.1,0-0.1,0c-0.1,0-0.1,0-0.2,0s-0.1,0-0.2,0c-0.1,0-0.2,0-0.3,0c0,0,0,0.1,0,0.1c0,0-0.1,0-0.1,0c0,0-0.1,0-0.2,0
					c-0.1,0.1,0,0.2,0,0.4c0.1,0,0.2,0,0.3,0c0,0.1-0.3,0.2-0.4,0.2s0-0.2-0.2-0.1c0,0-0.1,0.1-0.2,0.1c-0.1,0-0.1,0-0.3,0
					c0-0.1,0-0.1,0.1-0.1c0,0,0,0,0.1,0l0.1,0c0.1,0,0-0.1,0.1-0.2c0,0,0.1-0.1,0-0.2c0,0-0.1,0-0.2,0s0,0-0.1-0.1
					c0,0,0-0.1-0.1-0.2c0-0.1-0.2-0.4,0-0.4c0-0.1,0.1-0.2,0.1-0.3c0,0,0.1,0,0.1,0.1c0,0,0.1-0.1,0.1,0c0.2-0.1,0.4-0.3,0.6-0.5
					c0,0,0-0.1,0.1-0.1c0-0.1,0.1,0,0.1-0.1c0.1,0,0.1-0.2,0.1-0.3c0,0,0-0.1-0.1-0.2c0,0,0-0.1,0-0.2c0-0.1-0.1-0.2,0-0.4
					c0,0,0-0.1,0.1-0.1c0-0.1,0.1,0,0.2-0.1c0.1,0,0.1-0.3,0.1-0.4c0.1,0,0.2,0,0.2,0c0,0,0,0,0.1,0c0,0,0,0,0.1,0c0,0,0,0,0.1,0.1
					c0.1-0.1,0.1-0.2,0-0.3c0-0.1-0.1-0.2-0.2-0.3c0,0-0.1,0-0.1,0s0,0,0-0.1c0,0-0.1,0-0.1-0.1c-0.1-0.1,0-0.1-0.2-0.1
					c0,0-0.1,0.1-0.2,0c-0.2,0.1-0.5,0.2-0.5,0.5c0.1,0,0.2,0,0.3,0c0.1,0,0,0.1,0.1,0.2c0,0,0.1,0,0.1,0c0,0,0,0.1,0,0.1
					s0,0-0.1,0.1c0,0,0,0.1,0,0.1c-0.2,0.2-0.3,0-0.5-0.1c-0.1,0-0.4,0.1-0.4,0.2c-0.1,0-0.2,0.1-0.3,0.2c-0.1,0.1-0.2,0.1-0.3,0.1
					c-0.1,0-0.2,0-0.3-0.1c0,0-0.1-0.1-0.2-0.2c-0.1-0.1-0.1-0.1-0.3-0.1c-0.1,0-0.2,0-0.4-0.1c-0.1,0-0.1,0-0.1-0.1
					c0,0-0.1,0-0.1-0.1c-0.1,0-0.1,0-0.2,0c0,0-0.1,0-0.2,0c-0.1,0-0.1,0.1-0.2,0.2c-0.1,0.1-0.2,0.1-0.2,0.2c-0.1,0-0.3,0-0.3-0.1
					c0-0.1,0.1-0.2,0.2-0.3c0.1-0.1,0-0.5-0.2-0.5c-0.3,0-0.5,0.1-0.8,0.2c0,0-0.1,0-0.1,0c0,0-0.1,0-0.1,0c-0.1,0-0.2-0.1-0.2-0.3
					c0.2,0.1,0.5-0.2,0.6-0.4c0.2-0.2,0.4-0.5,0.3-0.8c0-0.1-0.1-0.2-0.2-0.2c-0.1,0-0.1,0.1-0.2,0.3c0,0.2-0.3,0.4-0.6,0.5
					c0,0.1,0,0.1-0.1,0.2c0,0,0,0.1-0.1,0.2c-0.1,0.2-0.1,0.1-0.3,0.1c-0.2,0-0.2,0-0.4,0.1c-0.1,0-0.2,0-0.3,0s0-0.1,0-0.2
					c0,0,0.1,0,0.2,0c0-0.1,0.2-0.1,0.3-0.1c0.1,0,0.1,0,0.3,0c0.1-0.1,0-0.1,0.1-0.3c0.1-0.1,0.2-0.1,0.3-0.1
					c0-0.1,0.1-0.1,0.2-0.2c0,0,0-0.1,0.1-0.1c0,0,0.1,0,0.1-0.1c0,0,0-0.1,0-0.1c0,0,0.1,0,0.1-0.1c0.1,0,0.2-0.1,0.3-0.1
					c0.1-0.1,0-0.1-0.1-0.2c0,0-0.2-0.2-0.2-0.3c0-0.1,0-0.2-0.1-0.3c-0.1,0-0.1,0.1-0.1,0.2c-0.1,0-0.2,0.1-0.3,0
					c0,0-0.2-0.2-0.2-0.2c-0.1,0-0.1-0.1-0.2-0.2c0,0-0.1-0.1-0.2-0.1c-0.1,0-0.5,0.1-0.5-0.2c0,0,0-0.1,0-0.1c0,0,0,0-0.1,0
					c0,0,0,0-0.1,0c0,0-0.1,0-0.1,0c0,0-0.1,0-0.1,0.1c0,0,0,0-0.1,0c0,0,0,0,0,0c0,0,0,0,0,0c0,0,0,0-0.1,0.1l0,0c0,0,0,0,0,0
					c0,0-0.1,0-0.1,0h0h0c0,0-0.1,0-0.1,0c0,0,0,0-0.1,0c0,0-0.1-0.1-0.1-0.1c0,0,0,0,0,0c0,0,0,0,0,0l0,0c0,0,0,0,0,0
					c0,0,0,0-0.1,0c0,0,0,0,0,0c0,0-0.1,0-0.1,0c0,0,0,0,0,0c0,0,0,0-0.1,0c0,0-0.1,0-0.1,0s-0.1,0-0.1,0c0,0,0,0,0,0h0c0,0,0,0,0,0
					c0,0,0,0,0,0h0c0,0,0,0,0,0s0,0,0,0h0c0,0,0,0,0,0s0,0-0.1,0h0c0,0,0,0,0,0c0,0,0,0,0,0c0,0,0,0,0,0h0c0,0,0,0,0,0h0h0
					c0,0,0,0-0.1,0c0,0,0,0-0.1,0c0,0-0.1,0-0.1,0c0,0,0,0-0.1,0h0c0,0,0,0,0,0s0,0,0,0c0,0-0.1,0-0.1,0c0,0,0,0,0,0c0,0,0,0-0.1,0
					c0,0-0.1,0-0.2,0c0,0.1-0.1,0.1-0.2,0.1c0,0.1-0.1,0.1,0,0.2c0,0.1,0.1,0.1,0.1,0.2c0,0.1,0,0.1,0.1,0.2c0,0.1,0.1,0.1,0.1,0.2
					c0,0.1,0,0.2,0,0.3c0,0,0.1,0.1,0.1,0.2c0,0.1,0,0.1,0,0.3c0,0.1,0.1,0.1,0.2,0.1c0,0,0.1,0,0.1,0c0,0,0,0.1,0,0.1
					c0,0,0,0,0,0.1c0,0-0.1,0.1-0.1,0.1c0.1,0,0.2,0,0.3,0.1c0,0,0,0.1,0,0.2s0,0.1,0,0.2c0,0.1-0.1,0.1-0.2,0.2
					c-0.1,0.1-0.1,0.3,0,0.3c0.1,0,0.3,0,0.4-0.1c0,0,0.1-0.1,0.1-0.2c0-0.1,0-0.1,0.1-0.2c0.1,0,0.1,0.1,0.1,0.2s0.1,0.2,0,0.3
					c0,0.1-0.2,0.2-0.4,0.3c-0.1,0.1-0.2,0.2-0.4,0.2c-0.1,0-0.1,0-0.2,0c-0.1,0-0.2,0-0.3,0c-0.1,0-0.3,0-0.5,0.1
					c0,0.1,0.2,0,0.3,0.1c0.1,0,0.1,0.1,0,0.2c0,0-0.1,0-0.2,0c0,0,0,0-0.1,0c-0.1,0-0.2,0.1-0.1,0.2c0,0.1,0.1,0.1,0.1,0.2
					s0,0.2,0.2,0.2c0.1,0,0.2,0,0.2-0.1c0.1-0.1,0.1,0,0.2,0c0.1,0.1,0.2,0,0.3,0c0.1-0.1,0.2,0,0.3,0.1c0,0,0-0.1,0.1-0.2
					c0.1,0,0.1,0,0.1,0.1c0,0.1-0.1,0.2-0.3,0.3c0,0-0.2,0-0.2,0c-0.1,0.1,0,0.1,0,0.2c0,0.1-0.1,0.1-0.1,0.2c0,0.1,0,0.2,0,0.2
					c0,0,0,0.1,0.1,0.1c0,0,0,0.1,0,0.1c0,0.1,0.1,0.1,0.2,0.1c0.1,0,0.1-0.1,0.2,0c0,0,0,0.1,0,0.2c0,0.1,0.1,0.3,0.1,0.4
					c-0.1,0.2-0.2-0.1-0.4-0.1c0,0-0.2,0-0.2,0.1c0,0,0,0.2,0,0.2c0,0,0,0,0.1,0.1c0,0,0,0,0,0.1c0,0.1,0,0.1,0.1,0.2
					c0,0,0,0.1,0.1,0.1c0,0.2,0.2,0.3,0.4,0.3c0.2,0,0.4-0.1,0.6-0.1c0,0,0.1,0,0.1,0c0,0,0,0,0.1,0.1c0.1,0,0.2,0,0.3,0
					c0.1,0,0.1,0.1,0.2,0.2c0,0,0.2,0.1,0.2,0.2c0,0,0,0,0,0c0,0.1,0,0.2,0,0.3c0,0,0,0.1,0,0.1s0,0,0,0.1c0,0.1,0.1,0.1,0.2,0.2
					c0,0,0,0.1,0,0.1c0,0,0.1,0,0.1,0.1s0.1,0.1,0.1,0.2c0,0,0,0,0,0.1c0,0,0,0,0,0l0,0.1c0,0,0,0.1,0,0.1v0l0,0
					c0,0.1,0,0.1,0.1,0.2c0,0,0,0,0,0c0,0,0,0,0,0h0c-0.1-0.2-0.2-0.4-0.3-0.6c-0.1-0.2-0.3-0.3-0.4-0.5c-0.1-0.2-0.2-0.4-0.4-0.6
					c-0.1-0.2-0.4-0.3-0.7-0.3c-0.3,0-0.6,0-0.9,0.1c-0.3,0.1-0.6,0.1-0.9,0c-0.2-0.1-0.6-0.4-0.8-0.2c-0.2,0.2-0.2,0.6-0.3,0.8
					c-0.1,0.3-0.2,0.6-0.1,0.9c0,0.2,0.1,0.3,0.2,0.5c0,0.2,0,0.3,0,0.5c0-0.1-0.1-0.2-0.1-0.2c-0.1,0-0.1,0-0.2-0.1
					c-0.1-0.1-0.3-0.1-0.4-0.3c0-0.1-0.1-0.1-0.2-0.2s-0.1,0-0.2,0.1c-0.1,0.1-0.1,0.1-0.1,0.2c0,0.1,0,0.2,0,0.3h0c0,0,0.1,0,0.1,0
					c0,0,0.1,0,0.1,0.1c-0.1,0.1,0,0.3,0,0.5c0,0.1-0.1,0.1-0.1,0.2c0,0.1,0,0.1,0,0.2c0,0,0,0-0.1,0c0,0-0.1,0-0.1,0
					c-0.1,0-0.1-0.1-0.2-0.2c0-0.1-0.3-0.4-0.3-0.1c-0.1,0-0.1-0.1-0.1-0.2c0-0.1-0.1-0.2-0.1-0.2c0-0.1,0.1,0,0.2-0.1
					c0,0,0,0,0.1,0c0,0,0,0,0.1-0.1c0,0,0-0.1,0-0.2c0,0,0,0,0-0.1c0,0,0-0.1,0-0.1c0,0,0-0.1,0-0.1c0,0-0.1,0-0.1-0.1
					c0,0-0.1-0.1-0.1-0.2c0,0,0,0,0,0c0,0,0,0,0,0c-0.2,0-0.2-0.1-0.2-0.3c0-0.2-0.1-0.2-0.3-0.2c-0.2,0-0.3-0.1-0.6,0
					c-0.2,0.1-0.4,0-0.6,0.1c-0.2,0-0.4,0.1-0.6,0.1c-0.2,0-0.3,0-0.5,0c-0.2,0-0.4,0-0.5,0c-0.2,0-0.4,0-0.6,0.1
					c-0.1,0.1-0.2,0.2-0.3,0.2c0,0-0.2,0.1-0.2,0.2c-0.1,0.2,0.1,0.3,0.2,0.4c0,0-0.1,0-0.2,0.1c0,0,0,0.1,0,0.2
					c-0.1,0-0.1,0-0.1-0.1c0,0-0.1,0-0.2-0.1c-0.1,0.4-0.2,0.8-0.2,1.2c0,0.1,0,0.1,0.2,0.1c0,0,0.1,0,0.2,0c0,0,0.1,0,0.2,0
					c0.1,0,0.2,0.1,0.3,0.1s0.1,0,0.1,0.1c0,0,0,0.1,0,0.1c0,0,0,0.1,0,0.1c0,0,0,0.1,0,0.2c0,0.1,0,0.1,0,0.1c0,0-0.1,0-0.1,0.1
					c-0.1,0.1,0.2,0.3,0.1,0.4c0,0.1-0.1,0.2-0.1,0.3c0,0.1,0.1,0.2,0.1,0.3c0,0.1,0,0.2,0,0.3c0,0.1,0,0.2,0,0.3
					c0,0.5-0.3,0.9-0.5,1.3c-0.1,0.3,0,0.6-0.1,0.9c0,0.1,0,0.3-0.1,0.4c0,0.1-0.1,0.2-0.2,0.2c-0.1,0-0.2,0.1-0.3,0
					c-0.1,0-0.2,0-0.3,0c-0.2,0-0.5-0.2-0.7,0c-0.2,0.1-0.1,0.2,0,0.4c0.1,0.1,0,0.2-0.1,0.3c-0.1,0-0.2,0.1-0.1,0.2
					c0,0.1,0,0.2,0.1,0.4c0.1,0,0.1,0,0.2,0"/>
				<path d="M60.5,7.4c0.1,0,0.2,0,0.3,0c0,0,0,0,0.1,0c0,0,0.1,0,0.1,0s0.2,0,0.2,0.1c0,0,0,0.1,0,0.1c0,0,0,0.1,0,0.1
					c0,0,0,0,0,0.1c0,0,0,0-0.1,0c-0.1,0-0.1,0-0.2,0c0,0-0.1,0-0.2,0c0,0,0,0-0.1,0c0,0,0,0-0.1,0c0,0,0-0.1,0-0.2c0,0,0,0,0-0.1
					C60.4,7.4,60.4,7.4,60.5,7.4C60.4,7.4,60.5,7.4,60.5,7.4z"/>
				<path d="M84.2,11.5C84.2,11.5,84.3,11.5,84.2,11.5c0.1,0.1,0.1,0.2,0.1,0.2c0,0,0.1,0.1,0.2,0.1c0,0,0,0,0.1,0c0,0,0,0,0,0
					c0,0,0.1,0,0.1,0c0,0,0,0,0,0.1c0,0,0,0-0.1,0c0,0-0.1,0-0.1,0c0,0-0.1,0-0.1,0c0,0-0.1,0.1-0.1,0.1c0,0-0.1,0.1-0.1,0.1
					c0,0,0,0,0-0.1l0,0v0c0,0,0-0.1,0-0.2c0,0,0-0.1,0-0.1s0-0.1-0.1-0.1c0,0-0.1-0.1-0.2-0.2c0,0,0-0.1,0-0.1s0,0,0.1,0
					C84.1,11.3,84.2,11.4,84.2,11.5C84.2,11.4,84.2,11.5,84.2,11.5z"/>
				<path d="M85.6,12.5C85.6,12.5,85.6,12.5,85.6,12.5c0.1,0,0.1,0.1,0.1,0.1c0,0,0.1,0,0.1,0c0,0,0.1,0,0.1,0.1c0,0,0,0,0.1,0.1
					c0,0,0.1,0,0.1,0.1c0,0,0,0,0,0.1c0,0,0,0.1,0,0.1c0,0,0,0.1,0,0.1c0,0,0.1,0,0.1,0.1c0,0.1-0.2,0.1-0.2,0.1c-0.1,0-0.2,0-0.3,0
					c0,0-0.1,0-0.1,0s-0.1,0-0.1,0s-0.1,0-0.1,0.1c0,0,0,0.1-0.1,0.1c0,0-0.1,0-0.1,0s0-0.1,0-0.1c0,0,0,0-0.1,0c0,0,0,0,0,0l0,0
					c0,0,0,0,0,0l0,0c0,0,0,0-0.1,0c0,0,0,0-0.1,0c0,0,0,0-0.1-0.1l0,0c0,0,0,0,0,0v0c0,0,0.1,0,0.1,0h0h0c0,0,0,0,0,0c0,0,0,0,0,0
					c0,0,0,0,0,0c0,0,0,0,0,0c0,0,0,0,0,0c0,0,0,0,0,0c0,0,0,0,0-0.1c0,0,0,0,0-0.1v0c0,0,0,0,0,0s0.1,0,0.1,0c0,0,0,0,0,0
					c0,0,0,0,0,0v0l0,0h0h0c0,0,0,0,0,0c0,0,0,0,0,0l0,0l0,0l0,0l0,0c0,0,0,0,0-0.1v0c0,0,0,0,0-0.1c0-0.1,0-0.1,0-0.2
					c0,0,0-0.1,0-0.1C85.5,12.4,85.6,12.4,85.6,12.5z"/>
				<path d="M78.3,10.1C78.3,10.1,78.3,10.1,78.3,10.1C78.3,10.1,78.4,10.1,78.3,10.1l0.1,0h0h0c0,0,0,0,0,0c0,0,0.1,0,0.1-0.1
					c0,0,0.1-0.1,0.1-0.1c0,0,0.1,0,0.1,0c0,0,0-0.1,0-0.1c0,0,0.1,0,0.1,0s0,0,0,0v0c0,0,0,0,0.1,0c0,0,0,0,0,0h0c0,0,0,0,0,0
					c0,0,0,0,0,0s0.1,0,0.1,0c0,0,0.1,0,0.1,0c0,0,0.1,0,0.1,0s0,0,0.1,0c0,0,0,0,0.1,0h0v0c0,0,0-0.1,0-0.1l0,0c0,0,0,0-0.1-0.1
					c0,0-0.1,0-0.1,0s-0.1,0-0.1,0s0,0-0.1,0c0,0-0.1,0-0.1,0c-0.1,0-0.2,0-0.3,0c-0.1,0-0.2,0-0.3,0c-0.2,0-0.4,0-0.5-0.1
					c0,0-0.1-0.1-0.2,0c0,0,0,0.1,0,0.1c0,0,0,0,0,0.1c0,0.1,0,0.1,0,0.2c0,0-0.1,0.1-0.1,0.2C78.2,10.1,78.2,10.1,78.3,10.1z"/>
				<path d="M82.2,7.1c0,0-0.1,0-0.1,0s-0.1,0-0.1,0s-0.1,0-0.1,0s-0.1,0-0.1,0c0,0-0.1,0-0.1,0.1c0,0,0,0,0.1,0.1c0,0,0,0.1,0,0.1
					c0,0,0,0.1,0,0.1c0,0,0,0.1-0.1,0.1c0,0-0.1,0.1-0.1,0.1s0.1,0,0.1,0c0,0,0.1,0,0.1,0c0,0,0-0.1,0.1-0.1c0,0,0.1,0,0.1-0.1
					c0,0,0,0,0.1-0.1c0,0,0-0.1,0-0.1c0,0,0,0,0-0.1c0,0,0.1,0,0.1-0.1c0,0,0,0,0.1,0l0,0C82.2,7.2,82.2,7.1,82.2,7.1z"/>
				<path d="M82.8,8.3C82.8,8.3,82.7,8.3,82.8,8.3c-0.1,0-0.1,0-0.2,0l0,0h0c0,0,0,0,0,0c0,0.1,0.1,0,0.1,0.1c0,0,0,0.1,0,0.1
					c0,0,0,0.1,0,0.1c0,0,0,0,0,0.1c0,0,0,0.1,0,0.1c0,0-0.1,0.2-0.1,0.2c-0.1,0-0.1,0-0.2-0.1c0,0-0.1-0.1-0.1-0.2
					c0,0,0-0.1-0.1-0.1c0,0-0.1,0.1-0.2,0.1c0,0,0,0,0-0.1c0,0,0,0,0-0.1c0-0.1,0.1-0.1,0-0.2c0,0-0.1,0-0.1,0s-0.1,0-0.1,0.1
					c0,0.1,0.1,0.2,0,0.2l0,0c0,0,0,0,0,0c0,0,0,0,0,0l0,0c0,0-0.1,0-0.1-0.1c0,0-0.1,0-0.1,0c0,0,0,0,0,0s0,0-0.1,0l0,0
					c0,0,0,0,0,0.1c0,0,0.1,0,0.1,0c0,0,0.1,0,0.1,0c0,0,0,0,0,0.1s0,0,0.1,0c0,0,0,0,0,0.1c0,0,0,0-0.1,0c-0.1,0-0.1,0.1-0.2,0.1
					c0,0-0.1,0-0.1,0.1c0,0,0,0.1,0,0.1c0,0,0.1,0.1,0.2,0.1c0,0,0,0.1,0.1,0.1c0,0,0,0,0,0.1s0,0-0.1,0c-0.1,0-0.1,0-0.2,0
					c0,0-0.1,0.1-0.1,0.1c0,0,0.1,0,0,0.1c0,0,0,0.1,0.1,0.1c0,0,0.1,0,0.1,0.1c0,0,0,0.1,0.1,0.1c0,0,0.1,0,0.1,0.1l0,0
					c0,0,0,0,0.1,0c0,0,0.1,0,0.1,0s0-0.1,0.1-0.1c0,0,0.1,0,0.2,0c0,0,0,0,0,0c0,0,0,0,0.1,0l0,0c0,0,0,0,0,0c0,0,0,0,0-0.1
					c0,0,0,0,0,0s0,0,0,0c0,0,0,0,0,0s0,0,0-0.1c0,0,0,0,0-0.1c0,0,0,0,0,0h0c0,0,0,0,0.1,0c0,0,0,0,0.1,0l0,0c0,0,0,0,0.1,0
					c0,0,0.1,0,0.1,0c0,0,0.1,0,0.1-0.1c0,0,0-0.1,0.1-0.1c0,0,0,0,0,0c0,0,0,0,0,0l0,0c0,0,0,0,0,0s0,0,0,0c0,0,0,0,0,0.1l0,0v0
					c0,0,0,0,0,0l0,0c0,0,0,0,0,0c0,0,0.1,0,0.1,0s0,0,0.1,0c0,0,0,0,0-0.1s0,0,0-0.1c0,0,0,0,0-0.1c0,0,0-0.1,0-0.1
					c-0.1,0-0.1-0.1-0.2-0.2c0,0,0,0-0.1-0.1c0,0,0,0-0.1,0c-0.1,0-0.2,0-0.3,0c0,0-0.1-0.1-0.1-0.2c0,0,0-0.1,0-0.1
					c0,0,0-0.1,0-0.1c0,0,0-0.1,0.1-0.1c0,0,0.1-0.1,0.1-0.1c0.1,0,0.1-0.1,0.2-0.2c0-0.1,0-0.1,0-0.2c0-0.1,0-0.2-0.1-0.2
					c-0.1,0-0.2,0-0.3,0C82.9,8.3,82.9,8.3,82.8,8.3z"/>
			</g>
		</g>
	</g>
</g>
<g id="Layer_3">
	<g>
		<rect x="405.7" y="24.5" class="st5" width="37.5" height="5"/>
		<rect x="449.4" y="35.5" class="st6" width="37.1" height="21.9"/>
		<rect x="363.9" y="35.5" class="st6" width="37.1" height="21.9"/>
		<path class="st5" d="M446.6,25H404c3.3-12.4,10.6-18.4,21.1-19.4c0,0,0.3,0,0.4,0C436,6.6,443.4,12.6,446.6,25z"/>
		<line class="st7" x1="407" y1="17.3" x2="443.8" y2="17.5"/>
		<line class="st7" x1="441.9" y1="14.4" x2="408.7" y2="14.4"/>
		<line class="st7" x1="411.8" y1="11" x2="439" y2="11.2"/>
		<line class="st7" x1="435.5" y1="8.6" x2="415.1" y2="8.6"/>
		<path class="st7" d="M426.2,5.8c3.1,2.8,4.2,8.5,4.9,15.1"/>
		<path class="st7" d="M427.4,5.9c5.9,1.3,9.7,7.5,10.1,14.8"/>
		<path class="st7" d="M424.2,5.8c-3.1,2.8-4.2,8.5-4.9,15.1"/>
		<path class="st7" d="M423.2,5.9c-5.9,1.3-9.9,7.5-10.3,14.8"/>
		<line class="st7" x1="405.1" y1="21.1" x2="445.3" y2="21"/>
		<rect x="401" y="32.7" class="st8" width="48.4" height="24.6"/>
		<rect x="401" y="29.7" class="st9" width="48.4" height="2.8"/>
		<rect x="437.8" y="54.3" class="st6" width="11.7" height="2.9"/>
		<rect x="400.9" y="54.3" class="st6" width="11.7" height="2.9"/>
		<g>
			<path class="st10" d="M427.5,57.5h3V54l-0.7-0.7h-1.7l-0.7,0.7C427.5,54,427.5,57.6,427.5,57.5z"/>
			<rect x="428.1" y="37.3" class="st10" width="1.5" height="16"/>
			<polygon class="st10" points="427.5,34.6 428.1,37.3 429.7,37.3 430.4,34.6 			"/>
		</g>
		<g>
			<path class="st10" d="M435,57.5h3V54l-0.7-0.7h-1.7L435,54C435,54,435,57.6,435,57.5z"/>
			<rect x="435.6" y="37.3" class="st10" width="1.5" height="16"/>
			<polygon class="st10" points="435,34.6 435.6,37.3 437.2,37.3 437.8,34.6 			"/>
		</g>
		<g>
			<path class="st10" d="M442.4,57.5h3V54l-0.7-0.7h-1.7l-0.7,0.7C442.5,54,442.4,57.6,442.4,57.5z"/>
			<rect x="443.1" y="37.3" class="st10" width="1.5" height="16"/>
			<polygon class="st10" points="442.5,34.6 443.1,37.3 444.7,37.3 445.3,34.6 			"/>
		</g>
		<g>
			<path class="st10" d="M405,57.5h3V54l-0.7-0.7h-1.7L405,54C405,54,405,57.6,405,57.5z"/>
			<rect x="405.7" y="37.3" class="st10" width="1.5" height="16"/>
			<polygon class="st10" points="405.1,34.6 405.7,37.3 407.3,37.3 407.9,34.6 			"/>
		</g>
		<g>
			<path class="st10" d="M412.5,57.5h3V54l-0.7-0.7h-1.7l-0.7,0.7C412.5,54,412.5,57.6,412.5,57.5z"/>
			<rect x="413.2" y="37.3" class="st10" width="1.5" height="16"/>
			<polygon class="st10" points="412.5,34.6 413.2,37.3 414.7,37.3 415.4,34.6 			"/>
		</g>
		<g>
			<path class="st10" d="M420,57.5h3V54l-0.7-0.7h-1.7L420,54C420,54,420,57.6,420,57.5z"/>
			<rect x="420.7" y="37.3" class="st10" width="1.5" height="16"/>
			<polygon class="st10" points="420,34.6 420.7,37.3 422.2,37.3 422.8,34.6 			"/>
		</g>
		<g>
			<rect x="442.5" y="24.9" class="st11" width="6.2" height="4.6"/>
			<polygon class="st12" points="448.7,24.9 442.5,24.9 441.2,24.4 442.5,23.9 448.7,23.9 450,24.4 			"/>
			<rect x="442.6" y="22.6" class="st11" width="6" height="1.3"/>
			<rect x="443.3" y="21.3" class="st12" width="4.6" height="1.3"/>
			<path class="st11" d="M448.6,20.6v0.7h-5.9v-0.7h0.9c-0.1,0-0.3-0.1-0.3-0.3v-1c0-0.1,0.1-0.3,0.3-0.3h4c0.1,0,0.3,0.1,0.3,0.3v1
				c0,0.1-0.1,0.3-0.3,0.3H448.6z"/>
			<rect x="444.2" y="15.2" class="st12" width="2.9" height="3.8"/>
			<path class="st11" d="M444.6,14h2.2c0.4,0.1,0.8,0.3,1.1,0.6v0.7l-4.3,0v-0.8C443.8,14.2,444.1,14,444.6,14z"/>
			<rect x="444.3" y="13.1" class="st6" width="2.6" height="0.8"/>
			<path class="st6" d="M446.6,13.1h-1.9c-0.1-0.9,0.2-1.3,1-1.3C446.3,11.8,446.7,12.2,446.6,13.1z"/>
		</g>
		<g>
			<rect x="401.5" y="24.9" class="st11" width="6.2" height="4.6"/>
			<polygon class="st12" points="407.7,24.9 401.5,24.9 400.2,24.4 401.5,23.9 407.7,23.9 409,24.4 			"/>
			<rect x="401.6" y="22.6" class="st11" width="6" height="1.3"/>
			<rect x="402.4" y="21.3" class="st12" width="4.6" height="1.3"/>
			<path class="st11" d="M407.6,20.6v0.7h-5.9v-0.7h0.9c-0.1,0-0.3-0.1-0.3-0.3v-1c0-0.1,0.1-0.3,0.3-0.3h4c0.1,0,0.3,0.1,0.3,0.3v1
				c0,0.1-0.1,0.3-0.3,0.3H407.6z"/>
			<rect x="403.3" y="15.2" class="st12" width="2.9" height="3.8"/>
			<path class="st11" d="M403.6,14h2.2c0.4,0.1,0.8,0.3,1.1,0.6v0.7l-4.3,0v-0.8C402.8,14.2,403.2,14,403.6,14z"/>
			<rect x="403.3" y="13.1" class="st6" width="2.6" height="0.8"/>
			<path class="st6" d="M405.7,13.1h-1.9c-0.1-0.9,0.2-1.3,1-1.3C405.3,11.8,405.7,12.2,405.7,13.1z"/>
		</g>
		<path class="st5" d="M457.4,28.5v1.1H455v-1.1h0.1c0.6-1,0.9-2.4,1.1-3.9C456.3,26.1,456.6,27.5,457.4,28.5L457.4,28.5z"/>
		<path class="st5" d="M464.9,28.5v1.1h-2.4v-1.1h0.1c0.6-1,0.9-2.4,1.1-3.9C463.9,26.1,464.1,27.5,464.9,28.5L464.9,28.5z"/>
		<path class="st5" d="M472.4,28.5v1.1H470v-1.1h0.1c0.6-1,0.9-2.4,1.1-3.9C471.4,26.1,471.6,27.5,472.4,28.5L472.4,28.5z"/>
		<path class="st5" d="M480,28.5v1.1h-2.4v-1.1h0.1c0.6-1,0.9-2.4,1.1-3.9C478.9,26.1,479.1,27.5,480,28.5L480,28.5z"/>
		<path class="st5" d="M373,28.6v1.1h-2.4v-1.1h0.1c0.6-1,0.9-2.4,1.1-3.9C371.9,26.3,372.2,27.7,373,28.6L373,28.6z"/>
		<path class="st5" d="M380.5,28.6v1.1h-2.4v-1.1h0.1c0.6-1,0.9-2.4,1.1-3.9C379.4,26.3,379.6,27.7,380.5,28.6L380.5,28.6z"/>
		<path class="st5" d="M388,28.6v1.1h-2.4v-1.1h0.1c0.6-1,0.9-2.4,1.1-3.9C386.9,26.3,387.2,27.7,388,28.6L388,28.6z"/>
		<path class="st5" d="M395.5,28.6v1.1h-2.4v-1.1h0.1c0.6-1,0.9-2.4,1.1-3.9C394.4,26.3,394.7,27.7,395.5,28.6L395.5,28.6z"/>
		<g>
			<rect x="442.4" y="57.5" class="st5" width="71.2" height="8.2"/>
			<g>
				<rect x="495" y="60" class="st10" width="4.5" height="3.1"/>
				<path class="st10" d="M499.5,60H495v-0.7c1.5-0.7,3-0.7,4.5,0V60z"/>
			</g>
			<path class="st10" d="M483.5,62.7h-2.6v-2.9c0.9-0.7,1.7-0.7,2.6,0V62.7z"/>
			<path class="st10" d="M476,62.7h-2.6v-2.9c0.9-0.7,1.7-0.7,2.6,0V62.7z"/>
			<path class="st10" d="M468.6,62.7H466v-2.9c0.9-0.7,1.7-0.7,2.6,0V62.7z"/>
			<path class="st10" d="M461.2,62.7h-2.6v-2.9c0.9-0.7,1.7-0.7,2.6,0V62.7z"/>
			<path class="st10" d="M453.6,62.5H451v-2.9c0.9-0.7,1.7-0.7,2.6,0V62.5z"/>
			<polygon class="st6" points="442.4,65.6 442.4,60 500.7,64.9 500.7,65.6 			"/>
		</g>
		<g>
			<rect x="336.7" y="57.4" class="st5" width="71.2" height="8.2"/>
			<g>
				<rect x="350.8" y="60" class="st10" width="4.5" height="3.1"/>
				<path class="st10" d="M350.8,60h4.5v-0.7c-1.5-0.7-3-0.7-4.5,0V60z"/>
			</g>
			<path class="st10" d="M366.9,62.7h2.6v-2.9c-0.9-0.7-1.7-0.7-2.6,0V62.7z"/>
			<path class="st10" d="M374.4,62.7h2.6v-2.9c-0.9-0.7-1.7-0.7-2.6,0V62.7z"/>
			<path class="st10" d="M381.8,62.7h2.6v-2.9c-0.9-0.7-1.7-0.7-2.6,0V62.7z"/>
			<path class="st10" d="M389.1,62.7h2.6v-2.9c-0.9-0.7-1.7-0.7-2.6,0V62.7z"/>
			<path class="st10" d="M396.8,62.5h2.6v-2.9c-0.9-0.7-1.7-0.7-2.6,0V62.5z"/>
			<polygon class="st6" points="407.9,65.6 407.9,60 349.7,64.9 349.7,65.6 			"/>
		</g>
		<rect x="485.7" y="55.9" class="st13" width="23.1" height="1.5"/>
		<rect x="508.7" y="55.9" class="st6" width="4.9" height="1.5"/>
		<polygon class="st8" points="508.8,55.9 486,55.9 486,54.8 486.4,54.4 486.4,24.5 508.4,24.5 508.4,54.6 508.8,54.9 		"/>
		<path class="st6" d="M502.7,56.2h-10.7V39.4c3.2-5.2,8-5.2,10.7,0L502.7,56.2L502.7,56.2z"/>
		<g>
			<rect x="505.9" y="32.6" class="st10" width="2.4" height="22"/>
			<polygon class="st10" points="508.8,55.9 505.5,55.9 505.5,55 505.9,54.6 508.5,54.6 508.8,55 			"/>
		</g>
		<g>
			<rect x="486.4" y="32.6" class="st10" width="2.4" height="22"/>
			<polygon class="st10" points="489.2,55.9 486,55.9 486,55 486.4,54.6 488.9,54.6 489.2,55 			"/>
		</g>
		<g>
			<rect x="490.3" y="32.6" class="st10" width="1.7" height="22"/>
			<polygon class="st10" points="492.1,38.2 490.3,38.2 489.8,35.2 492.7,35.2 			"/>
			<rect x="489.9" y="54.6" class="st10" width="2.5" height="1.3"/>
		</g>
		<g>
			<rect x="502.7" y="32.6" class="st10" width="1.7" height="22"/>
			<polygon class="st10" points="504.4,38.2 502.6,38.2 502.2,35.2 505,35.2 			"/>
			<rect x="502.2" y="54.6" class="st10" width="2.5" height="1.3"/>
		</g>
		<g>
			<path class="st10" d="M477,57.5h3v-2.1l-0.7-0.7h-1.7l-0.7,0.7C477.1,55.3,477,57.6,477,57.5z"/>
			<rect x="477.8" y="38.7" class="st10" width="1.5" height="16"/>
			<polygon class="st10" points="477.1,36 477.8,38.7 479.3,38.7 479.9,36 			"/>
		</g>
		<g>
			<path class="st10" d="M469.6,57.5h3v-2.1l-0.7-0.7h-1.7l-0.7,0.7C469.6,55.3,469.6,57.6,469.6,57.5z"/>
			<rect x="470.3" y="38.7" class="st10" width="1.5" height="16"/>
			<polygon class="st10" points="469.7,36 470.3,38.7 471.8,38.7 472.5,36 			"/>
		</g>
		<g>
			<path class="st10" d="M462.1,57.5h3v-2.1l-0.7-0.7h-1.7l-0.7,0.7C462.2,55.3,462.1,57.6,462.1,57.5z"/>
			<rect x="462.9" y="38.7" class="st10" width="1.5" height="16"/>
			<polygon class="st10" points="462.2,36 462.9,38.7 464.4,38.7 465,36 			"/>
		</g>
		<g>
			<path class="st10" d="M454.7,57.5h3v-2.1l-0.7-0.7h-1.7l-0.7,0.7C454.8,55.3,454.7,57.6,454.7,57.5z"/>
			<rect x="455.4" y="38.7" class="st10" width="1.5" height="16"/>
			<polygon class="st10" points="454.8,36 455.4,38.7 457,38.7 457.6,36 			"/>
		</g>
		<g>
			<path class="st10" d="M494.4,55.9h1.1v-1.2l-0.2-0.2h-0.6l-0.2,0.2C494.4,54.7,494.4,55.9,494.4,55.9z"/>
			<rect x="494.7" y="48.9" class="st10" width="0.5" height="5.5"/>
			<polygon class="st10" points="494.4,48 494.7,48.9 495.2,48.9 495.4,48 			"/>
		</g>
		<g>
			<path class="st10" d="M499.3,55.8h1.1v-1.2l-0.2-0.2h-0.6l-0.2,0.2C499.3,54.6,499.3,55.9,499.3,55.8z"/>
			<rect x="499.6" y="48.9" class="st10" width="0.5" height="5.5"/>
			<polygon class="st10" points="499.3,48 499.6,48.9 500.1,48.9 500.3,48 			"/>
		</g>
		<rect x="493.5" y="43.6" class="st14" width="7.9" height="3.1"/>
		<rect x="493.5" y="46.7" class="st10" width="7.9" height="1"/>
		<polygon class="st10" points="497.4,44.5 493.5,46.7 501.3,46.7 		"/>
		<path class="st5" d="M501.3,43.6h-8v-3.3c2.4-4,5.9-4.1,8,0V43.6z"/>
		<line class="st7" x1="495.5" y1="43.6" x2="495.5" y2="37.9"/>
		<line class="st7" x1="499.3" y1="43.6" x2="499.3" y2="37.9"/>
		<rect x="493.5" y="47.7" class="st10" width="7.9" height="8.1"/>
		<rect x="487.7" y="23.6" class="st6" width="19.2" height="1"/>
		<rect x="487.7" y="14.7" class="st6" width="19.2" height="8.9"/>
		<path class="st5" d="M506,11.7h-17.4v1.8c-0.5,0.2-0.8,0.6-0.9,1.2h19.2c0-0.5-0.3-1.1-0.9-1.1L506,11.7L506,11.7z"/>
		<rect x="449.4" y="32.6" class="st15" width="37.1" height="3.4"/>
		<rect x="449.3" y="31.3" class="st6" width="63.3" height="1.2"/>
		<rect x="449.3" y="29.6" class="st16" width="63.3" height="1.8"/>
		<rect x="490.3" y="16.4" class="st5" width="14.2" height="7.1"/>
		<path class="st10" d="M494.1,21.9h-1.7v-3.6c0.6-0.4,1.2-0.4,1.7,0V21.9z"/>
		<path class="st10" d="M498.3,21.9h-1.7v-3.6c0.6-0.4,1.2-0.4,1.7,0V21.9z"/>
		<path class="st10" d="M502.3,21.9h-1.7v-3.6c0.6-0.4,1.2-0.4,1.7,0V21.9z"/>
		<g>
			<path class="st10" d="M484.1,46.7c-1.2-1.2-2.5-1.2-3.7,0v7.6h3.7V46.7z"/>
			<rect x="480.3" y="48.7" class="st10" width="3.7" height="1.8"/>
			<rect x="480.3" y="52.5" class="st10" width="1.9" height="1.9"/>
			<rect x="482.2" y="52.5" class="st10" width="1.9" height="1.9"/>
		</g>
		<g>
			<path class="st10" d="M476.7,46.7c-1.2-1.2-2.5-1.2-3.7,0v7.6h3.7V46.7z"/>
			<rect x="473" y="48.7" class="st10" width="3.7" height="1.8"/>
			<rect x="473" y="52.5" class="st10" width="1.9" height="1.9"/>
			<rect x="474.8" y="52.5" class="st10" width="1.9" height="1.9"/>
		</g>
		<g>
			<path class="st10" d="M469.4,46.7c-1.2-1.2-2.5-1.2-3.7,0v7.6h3.7V46.7z"/>
			<rect x="465.6" y="48.7" class="st10" width="3.7" height="1.8"/>
			<rect x="465.6" y="52.5" class="st10" width="1.9" height="1.9"/>
			<rect x="467.4" y="52.5" class="st10" width="1.9" height="1.9"/>
		</g>
		<g>
			<path class="st10" d="M461.9,46.7c-1.2-1.2-2.5-1.2-3.7,0v7.6h3.7V46.7z"/>
			<rect x="458.2" y="48.7" class="st10" width="3.7" height="1.8"/>
			<rect x="458.2" y="52.5" class="st10" width="1.9" height="1.9"/>
			<rect x="460" y="52.5" class="st10" width="1.9" height="1.9"/>
		</g>
		<g>
			<rect x="473.3" y="37.6" class="st10" width="3.2" height="5.3"/>
			<rect x="473.3" y="40.2" class="st10" width="1.6" height="2.7"/>
			<rect x="474.9" y="40.2" class="st10" width="1.6" height="2.7"/>
			<polygon class="st10" points="474.8,36.3 472.8,37.6 476.9,37.6 			"/>
		</g>
		<g>
			<rect x="465.8" y="37.6" class="st10" width="3.2" height="5.3"/>
			<rect x="465.8" y="40.2" class="st10" width="1.6" height="2.7"/>
			<rect x="467.4" y="40.2" class="st10" width="1.6" height="2.7"/>
			<polygon class="st10" points="467.4,36.3 465.3,37.6 469.5,37.6 			"/>
		</g>
		<g>
			<rect x="458.4" y="37.6" class="st10" width="3.2" height="5.3"/>
			<rect x="458.4" y="40.2" class="st10" width="1.6" height="2.7"/>
			<rect x="460" y="40.2" class="st10" width="1.6" height="2.7"/>
			<polygon class="st10" points="459.9,36.3 457.9,37.6 462.1,37.6 			"/>
		</g>
		<g>
			<rect x="480.6" y="37.6" class="st10" width="3.2" height="5.3"/>
			<rect x="480.6" y="40.2" class="st10" width="1.6" height="2.7"/>
			<rect x="482.2" y="40.2" class="st10" width="1.6" height="2.7"/>
			<polygon class="st10" points="482.2,36.3 480.1,37.6 484.2,37.6 			"/>
		</g>
		<rect x="341.6" y="55.9" class="st13" width="23.1" height="1.5"/>
		<rect x="336.8" y="55.9" class="st6" width="4.9" height="1.5"/>
		<polygon class="st8" points="341.6,55.9 364.4,55.9 364.4,54.8 364,54.4 364,24.5 341.9,24.5 341.9,54.6 341.6,54.9 		"/>
		<path class="st6" d="M347.6,56.2h10.7V39.4c-3.2-5.2-8-5.2-10.7,0V56.2z"/>
		<g>
			<rect x="342" y="32.6" class="st10" width="2.4" height="22"/>
			<polygon class="st10" points="341.6,55.9 344.9,55.9 344.9,55 344.5,54.6 341.9,54.6 341.6,55 			"/>
		</g>
		<g>
			<rect x="361.5" y="32.6" class="st10" width="2.4" height="22"/>
			<polygon class="st10" points="361.1,55.9 364.4,55.9 364.4,55 364,54.6 361.4,54.6 361.1,55 			"/>
		</g>
		<g>
			<rect x="358.3" y="32.6" class="st10" width="1.7" height="22"/>
			<polygon class="st10" points="358.3,38.2 360.1,38.2 360.6,35.2 357.6,35.2 			"/>
			<rect x="358" y="54.6" class="st10" width="2.5" height="1.3"/>
		</g>
		<g>
			<rect x="346" y="32.6" class="st10" width="1.7" height="22"/>
			<polygon class="st10" points="346,38.2 347.8,38.2 348.2,35.2 345.3,35.2 			"/>
			<rect x="345.6" y="54.6" class="st10" width="2.5" height="1.3"/>
		</g>
		<g>
			<path class="st10" d="M373.3,57.5h-3v-2.1l0.7-0.7h1.7l0.7,0.7C373.3,55.3,373.3,57.6,373.3,57.5z"/>
			<rect x="371" y="38.7" class="st10" width="1.5" height="16"/>
			<polygon class="st10" points="373.3,36 372.6,38.7 371,38.7 370.4,36 			"/>
		</g>
		<g>
			<path class="st10" d="M380.7,57.5h-3v-2.1l0.7-0.7h1.7l0.7,0.7C380.7,55.3,380.7,57.6,380.7,57.5z"/>
			<rect x="378.5" y="38.7" class="st10" width="1.5" height="16"/>
			<polygon class="st10" points="380.7,36 380.1,38.7 378.5,38.7 377.9,36 			"/>
		</g>
		<g>
			<path class="st10" d="M388.2,57.5h-3v-2.1l0.7-0.7h1.7l0.7,0.7C388.1,55.3,388.2,57.6,388.2,57.5z"/>
			<rect x="385.9" y="38.7" class="st10" width="1.5" height="16"/>
			<polygon class="st10" points="388.1,36 387.5,38.7 385.9,38.7 385.3,36 			"/>
		</g>
		<g>
			<path class="st10" d="M395.6,57.5h-3v-2.1l0.7-0.7h1.7l0.7,0.7C395.6,55.3,395.6,57.6,395.6,57.5z"/>
			<rect x="393.4" y="38.7" class="st10" width="1.5" height="16"/>
			<polygon class="st10" points="395.6,36 395,38.7 393.4,38.7 392.8,36 			"/>
		</g>
		<g>
			<path class="st10" d="M356,55.9h-1.1v-1.2l0.2-0.2h0.6l0.2,0.2C356,54.7,356,55.9,356,55.9z"/>
			<rect x="355.2" y="48.9" class="st10" width="0.5" height="5.5"/>
			<polygon class="st10" points="356,48 355.7,48.9 355.2,48.9 355,48 			"/>
		</g>
		<g>
			<path class="st10" d="M351.1,55.8H350v-1.2l0.2-0.2h0.6l0.2,0.2C351,54.6,351.1,55.9,351.1,55.8z"/>
			<rect x="350.3" y="48.9" class="st10" width="0.5" height="5.5"/>
			<polygon class="st10" points="351,48 350.8,48.9 350.3,48.9 350.1,48 			"/>
		</g>
		<rect x="349.1" y="43.6" class="st14" width="7.9" height="3.1"/>
		<rect x="349.1" y="46.7" class="st10" width="7.9" height="1"/>
		<polygon class="st10" points="353,44.5 356.9,46.7 349,46.7 		"/>
		<path class="st5" d="M349,43.6h8v-3.3c-2.4-4-5.9-4.1-8,0V43.6z"/>
		<line class="st7" x1="354.9" y1="43.6" x2="354.9" y2="37.9"/>
		<line class="st7" x1="351.1" y1="43.6" x2="351.1" y2="37.9"/>
		<rect x="349.1" y="47.7" class="st10" width="7.9" height="8.1"/>
		<rect x="343.5" y="23.5" class="st6" width="19.2" height="1"/>
		<rect x="343.5" y="14.7" class="st6" width="19.2" height="8.9"/>
		<path class="st5" d="M344.4,11.7h17.4v1.8c0.5,0.2,0.8,0.6,0.9,1.2h-19.2c0-0.5,0.3-1.1,0.9-1.1L344.4,11.7L344.4,11.7z"/>
		<rect x="363.9" y="32.6" class="st15" width="37.1" height="3.4"/>
		<rect x="337.7" y="31.3" class="st6" width="63.3" height="1.2"/>
		<rect x="337.7" y="29.5" class="st16" width="63.3" height="1.8"/>
		<rect x="345.8" y="16.4" class="st5" width="14.2" height="7.1"/>
		<path class="st10" d="M356.2,21.9h1.7v-3.6c-0.6-0.4-1.2-0.4-1.7,0V21.9z"/>
		<path class="st10" d="M352.1,21.9h1.7v-3.6c-0.6-0.4-1.2-0.4-1.7,0V21.9z"/>
		<path class="st10" d="M348,21.9h1.7v-3.6c-0.6-0.4-1.2-0.4-1.7,0V21.9z"/>
		<g>
			<path class="st10" d="M366.3,46.7c1.2-1.2,2.5-1.2,3.7,0v7.6h-3.7V46.7z"/>
			<rect x="366.3" y="48.7" class="st10" width="3.7" height="1.8"/>
			<rect x="368.1" y="52.5" class="st10" width="1.9" height="1.9"/>
			<rect x="366.3" y="52.5" class="st10" width="1.9" height="1.9"/>
		</g>
		<g>
			<path class="st10" d="M373.6,46.7c1.2-1.2,2.5-1.2,3.7,0v7.6h-3.7V46.7z"/>
			<rect x="373.6" y="48.7" class="st10" width="3.7" height="1.8"/>
			<rect x="375.5" y="52.5" class="st10" width="1.9" height="1.9"/>
			<rect x="373.7" y="52.5" class="st10" width="1.9" height="1.9"/>
		</g>
		<g>
			<path class="st10" d="M381,46.7c1.2-1.2,2.5-1.2,3.7,0v7.6H381V46.7z"/>
			<rect x="381" y="48.7" class="st10" width="3.7" height="1.8"/>
			<rect x="382.9" y="52.5" class="st10" width="1.9" height="1.9"/>
			<rect x="381.1" y="52.5" class="st10" width="1.9" height="1.9"/>
		</g>
		<g>
			<path class="st10" d="M388.5,46.7c1.2-1.2,2.5-1.2,3.7,0v7.6h-3.7V46.7z"/>
			<rect x="388.4" y="48.7" class="st10" width="3.7" height="1.8"/>
			<rect x="390.3" y="52.5" class="st10" width="1.9" height="1.9"/>
			<rect x="388.5" y="52.5" class="st10" width="1.9" height="1.9"/>
		</g>
		<g>
			<rect x="373.9" y="37.6" class="st10" width="3.2" height="5.3"/>
			<rect x="375.5" y="40.2" class="st10" width="1.6" height="2.7"/>
			<rect x="373.9" y="40.2" class="st10" width="1.6" height="2.7"/>
			<polygon class="st10" points="375.6,36.3 377.6,37.6 373.4,37.6 			"/>
		</g>
		<g>
			<rect x="381.4" y="37.6" class="st10" width="3.2" height="5.3"/>
			<rect x="383" y="40.2" class="st10" width="1.6" height="2.7"/>
			<rect x="381.4" y="40.2" class="st10" width="1.6" height="2.7"/>
			<polygon class="st10" points="383,36.3 385,37.6 380.9,37.6 			"/>
		</g>
		<g>
			<rect x="388.8" y="37.6" class="st10" width="3.2" height="5.3"/>
			<rect x="390.4" y="40.2" class="st10" width="1.6" height="2.7"/>
			<rect x="388.8" y="40.2" class="st10" width="1.6" height="2.7"/>
			<polygon class="st10" points="390.4,36.3 392.5,37.6 388.3,37.6 			"/>
		</g>
		<g>
			<rect x="366.6" y="37.6" class="st10" width="3.2" height="5.3"/>
			<rect x="368.2" y="40.2" class="st10" width="1.6" height="2.7"/>
			<rect x="366.6" y="40.2" class="st10" width="1.6" height="2.7"/>
			<polygon class="st10" points="368.2,36.3 370.2,37.6 366.1,37.6 			"/>
		</g>
		<polygon class="st10" points="425.3,22.8 447,31.1 446.3,31.9 404.1,32 403.3,31.1 		"/>
		<polygon class="st10" points="404.6,34.6 445.8,34.6 445.8,31.9 404.6,32.1 		"/>
		<polygon class="st10" points="407.9,65.6 442.6,65.6 442.5,57.5 407.9,57.6 		"/>
		<line class="st17" x1="407.9" y1="59.6" x2="442.5" y2="59.6"/>
		<line class="st17" x1="442.5" y1="61.6" x2="407.9" y2="61.6"/>
		<line class="st17" x1="442.5" y1="63.6" x2="407.8" y2="63.6"/>
	</g>
</g>
<g id="Layer_4">
	<g>
		<g class="st18">
			
				<linearGradient id="SVGID_2_" gradientUnits="userSpaceOnUse" x1="-10.29" y1="98.2533" x2="334.5182" y2="98.2533" gradientTransform="matrix(1 0 0 -1 0 113.5)">
				<stop  offset="0" style="stop-color:#000000"/>
				<stop  offset="0.2023" style="stop-color:#030303;stop-opacity:0.7977"/>
				<stop  offset="0.3369" style="stop-color:#0C0C0C;stop-opacity:0.6631"/>
				<stop  offset="0.4518" style="stop-color:#1B1B1B;stop-opacity:0.5482"/>
				<stop  offset="0.5556" style="stop-color:#303030;stop-opacity:0.4444"/>
				<stop  offset="0.652" style="stop-color:#4C4C4C;stop-opacity:0.348"/>
				<stop  offset="0.7428" style="stop-color:#6E6E6E;stop-opacity:0.2572"/>
				<stop  offset="0.8295" style="stop-color:#969696;stop-opacity:0.1705"/>
				<stop  offset="0.9126" style="stop-color:#C5C5C5;stop-opacity:8.738375e-02"/>
				<stop  offset="0.9904" style="stop-color:#F8F8F8;stop-opacity:9.625316e-03"/>
				<stop  offset="1" style="stop-color:#FFFFFF;stop-opacity:0"/>
			</linearGradient>
			<rect x="-10.3" y="5.6" class="st19" width="344.8" height="19.2"/>
		</g>
		<g class="st18">
			
				<linearGradient id="SVGID_3_" gradientUnits="userSpaceOnUse" x1="-10.29" y1="78.5637" x2="334.5182" y2="78.5637" gradientTransform="matrix(1 0 0 -1 0 113.5)">
				<stop  offset="0" style="stop-color:#FF0000"/>
				<stop  offset="0.2023" style="stop-color:#FF0303;stop-opacity:0.7977"/>
				<stop  offset="0.3369" style="stop-color:#FF0C0C;stop-opacity:0.6631"/>
				<stop  offset="0.4518" style="stop-color:#FF1B1B;stop-opacity:0.5482"/>
				<stop  offset="0.5556" style="stop-color:#FF3030;stop-opacity:0.4444"/>
				<stop  offset="0.652" style="stop-color:#FF4C4C;stop-opacity:0.348"/>
				<stop  offset="0.7428" style="stop-color:#FF6E6E;stop-opacity:0.2572"/>
				<stop  offset="0.8295" style="stop-color:#FF9696;stop-opacity:0.1705"/>
				<stop  offset="0.9126" style="stop-color:#FFC5C5;stop-opacity:8.738375e-02"/>
				<stop  offset="0.9904" style="stop-color:#FFF8F8;stop-opacity:9.625316e-03"/>
				<stop  offset="1" style="stop-color:#FFFFFF;stop-opacity:0"/>
			</linearGradient>
			<rect x="-10.3" y="24.9" class="st20" width="344.8" height="20.2"/>
		</g>
		<g class="st18">
			
				<linearGradient id="SVGID_4_" gradientUnits="userSpaceOnUse" x1="-10.29" y1="58.8741" x2="334.5182" y2="58.8741" gradientTransform="matrix(1 0 0 -1 0 113.5)">
				<stop  offset="0" style="stop-color:#FFFF00"/>
				<stop  offset="0.2023" style="stop-color:#FFFF03;stop-opacity:0.7977"/>
				<stop  offset="0.3369" style="stop-color:#FFFF0C;stop-opacity:0.6631"/>
				<stop  offset="0.4518" style="stop-color:#FFFF1B;stop-opacity:0.5482"/>
				<stop  offset="0.5556" style="stop-color:#FFFF30;stop-opacity:0.4444"/>
				<stop  offset="0.652" style="stop-color:#FFFF4C;stop-opacity:0.348"/>
				<stop  offset="0.7428" style="stop-color:#FFFF6E;stop-opacity:0.2572"/>
				<stop  offset="0.8295" style="stop-color:#FFFF96;stop-opacity:0.1705"/>
				<stop  offset="0.9126" style="stop-color:#FFFFC5;stop-opacity:8.738375e-02"/>
				<stop  offset="0.9904" style="stop-color:#FFFFF8;stop-opacity:9.625316e-03"/>
				<stop  offset="1" style="stop-color:#FFFFFF;stop-opacity:0"/>
			</linearGradient>
			<rect x="-10.3" y="45" class="st21" width="344.8" height="19.2"/>
		</g>
	</g>
</g>
<g id="Layer_5">
	<g>
		<path id="path3069" class="st22" d="M551.9,3.7"/>
		<path id="path3067" class="st22" d="M551.9,3.7"/>
		<path id="path4669" class="st5" d="M621.5,24.7v3.7h-22.4V28h14.7v-0.1h-14.7v-0.4h12.4v-0.1h-12.4V27h10.2v-0.2h-10.2v-0.4h7.9
			v-0.1h-7.9v-0.4h5.6v-0.1h-5.6v-0.4h3.3v-0.1h-3.3v-0.4L621.5,24.7L621.5,24.7z"/>
		<rect id="rect3011" x="555.7" y="31.6" class="st5" width="67" height="4.6"/>
		<path id="path3085" d="M590.5,5.6c-0.2,0.2-1.2,0.7-1,0.7c0.2,0,0,0.3-0.4,0.4c0,0,0-0.1,0-0.1s0-0.1,0-0.2c0-0.1,0-0.1-0.1-0.2
			c0,0,0-0.1,0-0.1c0,0-0.1-0.1-0.1-0.1c0,0-0.1,0.1-0.1,0.1c0,0,0.1,0.1,0,0.1c0,0-0.1,0.1-0.1,0.2c0.1-0.1,0.1,0,0.1,0
			c0,0,0,0.1,0,0.2c-0.6-0.3-0.2-0.3-0.3-0.4c-0.2-0.2-1-0.5-1.3-0.7c0,0.4,0.2,0.8,0.5,1.1c0.2,0.3,0.6,0.3,0.6,0.7
			c0.4,0,0.6,0.3,0.2,0.5c-0.5,0.2-0.5,1-0.3,1.2c0.2,0.3,0.3,0.4,0.8,0.4c0,0.4,0,1.3,0,1.7c-0.2,0.2-0.1,0.1-0.4,0.2
			c-1.2-0.2-0.7,1.6-0.6,2.3c0.2,0.9,0.2,1.7-0.8,1.9c0-0.5,0.2-1-0.1-1.3c-0.4,0-0.8,0-0.7,0.4c-0.1,0.7,0.2,1.4-1,1.5
			c-1.1,0.1-1.7,0.4-2-0.1c-0.2-0.7-0.4-1.7-1.2-1.9c-0.1,0.1-0.9,0.2-0.7,0.4c0.1,0.4,0.1,1,0,1.5c0,0.6,1.2,0.3,0.5,1
			c-0.3,0.7,0.3,1.5-0.3,2c0.2,0.5-0.2,2,0.6,1.6c-0.1-0.5-0.6-1.8,0.3-1.8c0.5,0.2,0.3-0.6,0.6,0c0.2,0.6,0.2,1.3,0.2,2
			c-0.4-0.9-1.3,0.1-0.6,0.5c0,0.2-0.6,0-0.8,0.1c-0.9,0-1.7,0-2.6,0V23h19.4v-1.2c0,0-2.1-0.2-2.5-0.1c-0.4,0-1.2,0.1-0.5-0.3
			c0-0.7-0.8-0.4-0.5-1.1c0.2-0.4,0.5-1.1,0.7-1.2c-0.1,0.3,0.8-0.1,0.6,0.5c0,0.5-0.3,0.8-0.4,1.2c0.7,0.4,0.5-1.1,0.8-1.5
			c-0.4-0.7,0.1-1.6-0.3-2.3c-0.1-0.6,0.7-0.9,0.4-1.5c0.1-0.4,0.1-0.8,0.3-1.2c-0.4,0.2-0.6-0.4-1.2,0.1c-0.6,0.5-0.8,1.4-0.9,2.2
			c-0.7,0.2-1.8,0.2-2.5-0.2c-0.6-0.1-0.8-0.4-0.5-0.9c-0.2-0.4,0-1-0.1-1.4c-0.4,0-1,0-0.8-0.7c0-0.6-0.1-2.5-1-1.6
			c0.1,0.5-0.2,0.6-0.4,0.5c-0.1,0-0.2-0.2-0.2-0.3c0.1,0,0-0.3,0.2-0.4c0.2-0.3,0-0.5-0.2-0.6c-0.2,0-0.6,0.1-0.7,0.3
			c0-0.5,0-1.1,0-1.6c0.5-0.1,0.8-0.5,0.8-1.1c0-0.3-0.3-0.6-0.6-0.8c0-0.1-0.1-0.6,0.3-0.5c0.3-0.1,0.3-0.5,0.5-0.7
			c0.1-0.3,0.2-0.7,0.3-1.1L590.5,5.6L590.5,5.6L590.5,5.6L590.5,5.6z M588.9,6 M588.9,6 M588.8,7.7 M588.8,8.1 M589.1,8.6
			 M588.8,8.7c-0.5,0.1-0.4-0.2-0.3-0.4C588.7,8.1,588.9,8.2,588.8,8.7z M589.6,8.6 M588.4,8.6 M589.2,9 M588.9,9 M589.1,9.4
			 M588.9,9.4 M589,11.8c0,0.5-0.1,0.5-0.4,0.5C588.5,12.1,588.6,12.1,589,11.8z M589.2,12c0,0,0.1,0.3,0,0.4
			C589.2,12.2,589.2,12.1,589.2,12z M590.6,14.8c0.3,0.3,0.2,1,0,0.2C590.6,15,590.6,14.9,590.6,14.8z M588.7,15.1 M588,15.5
			c-0.3,0.2-1.2,1.5-0.8,0.4C587.5,15.8,587.8,15.7,588,15.5z M582.2,16.2 M586.1,16.4c-0.1,0.8-1.5,0.2-2.1,0.3
			C584.7,16.7,585.4,16.6,586.1,16.4z M582.1,16.4 M592.3,16.4c0.3,0.1,1.4,0.6,0.5,0.3C592.5,16.7,592.2,16.7,592.3,16.4z
			 M582.1,16.5 M596.7,16.6 M583.5,16.7c0.8,0.1,1.7,0.2,2.5,0.1c-0.3,0.5-0.6,1.2-0.4,1.9c-1-0.2-0.2-1.9-1.5-1.7
			C583.9,17,583.5,16.9,583.5,16.7z M592.3,16.7c0.6,0.1,1.5,0.3,2,0.5c-0.3,0.6-0.5,1.3-1.3,1.5c-0.1-0.6,0.3-1.9-0.5-1.7
			C592.5,17,592.4,16.8,592.3,16.7z M595.2,16.9c-0.5,0.3-1.3,0.1-1.3,0C594.3,17,594.7,17,595.2,16.9z M595.3,17 M593.9,18.4
			c0.3,0.7-1.2,0.5-0.3,0.2C593.7,18.6,593.8,18.5,593.9,18.4z M585.1,18.6c0.4,0.2,0.8,0.4,0.1,0.3C584.8,19,585.1,18.7,585.1,18.6
			z M593.8,19c0.3,0.6,0.1,1.2,0.1,1.8c0,0.3,0.5,1.1-0.1,1C593.8,20.9,593.8,19.9,593.8,19L593.8,19z M593.7,19c0,0.9,0,1.9,0,2.8
			c-0.3,0-0.2-0.4-0.3,0c-0.6,0.2-0.3-0.6-0.3-0.8c-0.1-0.4-0.2-1.2,0.2-1.4c0-0.3-0.6-0.8,0.2-0.6C593.5,19,593.6,19,593.7,19
			L593.7,19z M584.9,19c0.6,0.2,0.1,1.4,0.2,2.1c0.1,0.5,0,0.9-0.5,0.7c-0.1-0.7,0.4-1.2,0.2-1.9C584.8,19.6,584.7,19.3,584.9,19
			L584.9,19z M585.5,19c0.7,0.3,0.4,1.6,0.6,2.4c0.1,0.7-1.3,0.5-0.9-0.2C585.4,20.6,584.9,19.1,585.5,19z M584.2,19.1 M594.9,19.3
			c0.4,0.5-0.1,1.3,0,2c0,0.5-0.2,0.8-0.2,0.1C594.8,20.7,594.5,20,594.9,19.3z M586.8,19.8c0.1,0.5,0.1,1.2,0.4,1.7
			c0.2,0.6-0.9,0.3-0.1,0c0-0.6-0.7-0.6-0.3-1.3C586.7,20,586.6,19.9,586.8,19.8L586.8,19.8z M587.4,19.9c0.5,0.2,0.4,1.5,0.2,2
			c-0.8-0.1,0.4-1.2-0.2-1.7C587.4,20,587.4,20,587.4,19.9z M592.5,19.9c0.4,0.3-0.1,1.8-0.1,0.8C592.3,20.5,592.3,20,592.5,19.9z
			 M591.4,19.9c0.3,0.5,0,1.1,0,1.4c0.5,0.4-0.6,0.8-0.2,0C591.2,20.9,591.2,20.1,591.4,19.9z M588.1,19.9c0.7,0,1.7,0,1.3,1
			c0.1,0.7-0.1,1-0.9,0.9c-0.3-0.3,0.2-1.1-0.5-0.9C588,20.6,588.2,20.2,588.1,19.9z M590.6,20c-0.4,0.5,0.5,0.5,0.2,1.1
			c-0.1,0.5,0.1,0.7-0.2,0.7c-0.3,0.2-0.9,0-0.7-0.5C589.9,20.6,589.6,19.9,590.6,20z M583.7,20.4c0.2,0.2,0.1,1.7-0.1,1.2
			C583.8,21.2,583.7,20.8,583.7,20.4z M583.4,21.3 M584.5,21.4 M592.3,21.5 M591.9,21.6 M588,21.6 M594.3,21.7 M591.5,21.8
			 M591.7,21.8 M588.3,21.8"/>
		<rect id="rect3101" x="553.5" y="29.6" class="st5" width="71.4" height="0.9"/>
		<rect id="rect3103" x="554.3" y="30.6" class="st5" width="69.7" height="0.9"/>
		<rect id="rect3009" x="566.9" y="64.4" class="st5" width="4.7" height="1.3"/>
		<rect id="rect3106" x="567.2" y="36.3" class="st5" width="4.2" height="0.7"/>
		<rect id="rect3108" x="567.5" y="37.2" class="st5" width="3.5" height="0.7"/>
		<path id="path3936" class="st5" d="M567.7,38.1h3.1l0.2,26h-3.6L567.7,38.1z"/>
		<rect id="rect3940" x="567.2" y="36.3" class="st5" width="4.2" height="0.7"/>
		<rect id="rect3942" x="567.5" y="37.2" class="st5" width="3.5" height="0.7"/>
		<path id="path3886" class="st5" d="M556,38.1h3.1l0.2,26h-3.6L556,38.1z"/>
		<rect id="rect3888" x="555.2" y="64.4" class="st5" width="4.7" height="1.3"/>
		<rect id="rect3890" x="555.5" y="36.3" class="st5" width="4.2" height="0.7"/>
		<rect id="rect3892" x="555.9" y="37.2" class="st5" width="3.5" height="0.7"/>
		<rect id="rect3950" x="555.5" y="36.3" class="st5" width="4.2" height="0.7"/>
		<rect id="rect3952" x="555.9" y="37.2" class="st5" width="3.5" height="0.7"/>
		<path id="path3896" class="st5" d="M579.4,38.1h3.1l0.2,26h-3.6L579.4,38.1z"/>
		<rect id="rect3898" x="578.6" y="64.4" class="st5" width="4.7" height="1.3"/>
		<rect id="rect3900" x="578.9" y="36.3" class="st5" width="4.2" height="0.7"/>
		<rect id="rect3902" x="579.2" y="37.2" class="st5" width="3.5" height="0.7"/>
		<rect id="rect3960" x="578.9" y="36.3" class="st5" width="4.2" height="0.7"/>
		<rect id="rect3962" x="579.2" y="37.2" class="st5" width="3.5" height="0.7"/>
		<path id="path3966" class="st5" d="M607.7,38.1h3.1l0.2,26h-3.6L607.7,38.1z"/>
		<rect id="rect3968" x="606.9" y="64.4" class="st5" width="4.7" height="1.3"/>
		<rect id="rect3970" x="607.2" y="36.3" class="st5" width="4.2" height="0.7"/>
		<rect id="rect3972" x="607.5" y="37.2" class="st5" width="3.5" height="0.7"/>
		<rect id="rect4000" x="607.2" y="36.3" class="st5" width="4.2" height="0.7"/>
		<rect id="rect4002" x="607.5" y="37.2" class="st5" width="3.5" height="0.7"/>
		<path id="path3976" class="st5" d="M595.8,38.1h3.1l0.2,26h-3.6L595.8,38.1z"/>
		<rect id="rect3978" x="595" y="64.4" class="st5" width="4.7" height="1.3"/>
		<rect id="rect3980" x="595.3" y="36.3" class="st5" width="4.2" height="0.7"/>
		<rect id="rect3982" x="595.7" y="37.2" class="st5" width="3.5" height="0.7"/>
		<rect id="rect4010" x="595.3" y="36.3" class="st5" width="4.2" height="0.7"/>
		<rect id="rect4012" x="595.7" y="37.2" class="st5" width="3.5" height="0.7"/>
		<path id="path3986" class="st5" d="M619.2,38.1h3.1l0.2,26H619L619.2,38.1z"/>
		<rect id="rect3988" x="618.4" y="64.4" class="st5" width="4.7" height="1.3"/>
		<rect id="rect3990" x="618.7" y="36.3" class="st5" width="4.2" height="0.7"/>
		<rect id="rect3992" x="619" y="37.2" class="st5" width="3.5" height="0.7"/>
		<rect id="rect4020" x="618.7" y="36.3" class="st5" width="4.2" height="0.7"/>
		<rect id="rect4022" x="619" y="37.2" class="st5" width="3.5" height="0.7"/>
		<rect id="rect4117" x="578.5" y="23.2" class="st5" width="21.4" height="1.3"/>
		<rect id="rect4119" x="600.1" y="23.2" class="st5" width="22.5" height="1.3"/>
		<rect id="rect4121" x="555.5" y="23.2" class="st5" width="22.7" height="1.3"/>
		<rect id="rect4123" x="579.5" y="24.8" width="19.4" height="4.7"/>
		<path id="rect4127" class="st5" d="M556.8,24.7v3.7h22.4V28h-14.7v-0.1h14.7v-0.4h-12.4v-0.1h12.4V27H569v-0.2h10.2v-0.4h-7.9
			v-0.1h7.9v-0.4h-5.6v-0.1h5.6v-0.4h-3.3v-0.1h3.3v-0.4L556.8,24.7L556.8,24.7z"/>
		<rect id="rect4129" x="599.1" y="28.6" class="st5" width="23.5" height="0.9"/>
		<rect id="rect4131" x="555.7" y="28.6" class="st5" width="23.5" height="0.9"/>
	</g>
</g>
<g id="Layer_6">
	<g>
		<polygon class="st23" points="306.4,31.5 306.3,29.5 304.8,29.5 304.7,31.5 		"/>
		<polygon class="st23" points="306.3,27.7 306.3,26.9 304.8,26.9 304.8,27.7 		"/>
		<polygon class="st23" points="306.8,65.3 306.4,31.9 304.7,31.9 304.2,65.3 		"/>
		<path class="st23" d="M304.9,23.5V25h1.4v-1.6c-0.2,0-0.4,0-0.7,0C305.3,23.5,305.1,23.5,304.9,23.5z"/>
		<path class="st24" d="M305.5,11.5h-0.5l-0.1,3.8c0.2,0,0.4,0,0.6,0c0.2,0,0.4,0,0.6,0l-0.1-3.8H305.5z"/>
		<path class="st25" d="M309.3,19.4c0-2.1-1.7-3.8-3.8-3.8c-2.1,0-3.8,1.7-3.8,3.8c0,2.1,1.7,3.8,3.8,3.8
			C307.6,23.2,309.3,21.4,309.3,19.4z"/>
		<path class="st24" d="M307.6,25.4h-4.1c-0.3,0-0.5,0.2-0.5,0.5v0c0,0.3,0.2,0.5,0.5,0.5h4.1c0.3,0,0.5-0.2,0.5-0.5v0
			C308.1,25.6,307.9,25.4,307.6,25.4z"/>
		<path class="st24" d="M307.6,28h-4.1c-0.3,0-0.5,0.2-0.5,0.5v0c0,0.3,0.2,0.5,0.5,0.5h4.1c0.3,0,0.5-0.2,0.5-0.5v0
			C308.1,28.3,307.9,28,307.6,28z"/>
		<path d="M309.7,19.4c0-2-1.4-3.6-3.2-4l-0.1-4.1c0-0.1-0.1-0.1-0.1-0.1h-0.4V3.9c0-0.1-0.1-0.1-0.1-0.1c-0.1,0-0.1,0.1-0.1,0.1
			v7.2h-0.4c-0.1,0-0.1,0.1-0.1,0.1l-0.1,4.1c-1.8,0.4-3.2,2.1-3.2,4c0,1.9,1.3,3.6,3.1,4V25h-1c-0.5,0-0.9,0.4-0.9,0.9v0
			c0,0.5,0.4,0.9,0.9,0.9h1v0.8h-1c-0.5,0-0.9,0.4-0.9,0.9v0c0,0.5,0.4,0.9,0.9,0.9h0.9l0,2H303c-0.1,0-0.1,0.1-0.1,0.1
			c0,0.1,0.1,0.1,0.1,0.1h1.6l-0.5,33.6c0,0,0,0.1,0,0.1c0,0,0.1,0,0.1,0h2.9c0,0,0.1,0,0.1,0c0,0,0-0.1,0-0.1l-0.5-33.6h1.6
			c0.1,0,0.1-0.1,0.1-0.1c0-0.1-0.1-0.1-0.1-0.1h-1.7l0-2h0.9c0.5,0,0.9-0.4,0.9-0.9v0c0-0.5-0.4-0.9-0.9-0.9h-1v-0.8h1
			c0.5,0,0.9-0.4,0.9-0.9v0c0-0.5-0.4-0.9-0.9-0.9h-1v-1.6C308.4,22.9,309.7,21.3,309.7,19.4z"/>
		<path class="st16" d="M305.1,11.5h0.5h0.5l0.1,3.8c-0.2,0-0.4,0-0.6,0c-0.2,0-0.4,0-0.6,0L305.1,11.5z"/>
		<polygon class="st6" points="306.8,65.3 304.2,65.3 304.7,31.9 306.4,31.9 		"/>
		<polygon class="st5" points="306.4,31.5 304.7,31.5 304.8,29.5 306.3,29.5 		"/>
		<path class="st6" d="M307.6,28c0.3,0,0.5,0.2,0.5,0.5v0c0,0.3-0.2,0.5-0.5,0.5h-4.1c-0.3,0-0.5-0.2-0.5-0.5v0
			c0-0.3,0.2-0.5,0.5-0.5H307.6z"/>
		<polygon class="st5" points="306.3,27.7 304.8,27.7 304.8,26.9 306.3,26.9 		"/>
		<path class="st6" d="M307.6,25.4c0.3,0,0.5,0.2,0.5,0.5v0c0,0.3-0.2,0.5-0.5,0.5h-4.1c-0.3,0-0.5-0.2-0.5-0.5v0
			c0-0.3,0.2-0.5,0.5-0.5H307.6z"/>
		<path class="st5" d="M306.3,25h-1.4v-1.6c0.2,0,0.4,0,0.7,0s0.5,0,0.7,0L306.3,25z"/>
		<path class="st16" d="M305.5,23.2c-2.1,0-3.8-1.7-3.8-3.8c0-2.1,1.7-3.8,3.8-3.8c2.1,0,3.8,1.7,3.8,3.8S307.6,23.2,305.5,23.2z"/>
	</g>
</g>
<g id="Layer_7">
	<g>
		
			<linearGradient id="SVGID_5_" gradientUnits="userSpaceOnUse" x1="155.0819" y1="99.694" x2="155.0819" y2="81.8024" gradientTransform="matrix(1 0 0 -1 0 113.5)">
			<stop  offset="0" style="stop-color:#000000"/>
			<stop  offset="0.1406" style="stop-color:#040000"/>
			<stop  offset="0.2682" style="stop-color:#0F0000"/>
			<stop  offset="0.3908" style="stop-color:#210000"/>
			<stop  offset="0.5103" style="stop-color:#3B0000"/>
			<stop  offset="0.6276" style="stop-color:#5D0000"/>
			<stop  offset="0.7433" style="stop-color:#860000"/>
			<stop  offset="0.8575" style="stop-color:#B70000"/>
			<stop  offset="0.968" style="stop-color:#EE0000"/>
			<stop  offset="1" style="stop-color:#FF0000"/>
		</linearGradient>
		<path class="st26" d="M145.6,13.8h8.9c3.2,0,5.7,0.9,7.4,2.6c1.7,1.8,2.6,3.9,2.6,6.3c0,1.6-0.4,3.1-1.2,4.5
			c-0.8,1.4-1.9,2.5-3.5,3.3c-1.6,0.8-3.4,1.2-5.6,1.2h-8.7L145.6,13.8L145.6,13.8z M153.7,20.7v4.2h0.2c1,0,1.6-0.1,2.1-0.5
			c0.4-0.3,0.6-0.9,0.6-1.6c0-1.4-0.8-2.1-2.4-2.1H153.7z"/>
		
			<linearGradient id="SVGID_6_" gradientUnits="userSpaceOnUse" x1="173.7538" y1="96.2118" x2="173.7538" y2="81.5914" gradientTransform="matrix(1 0 0 -1 0 113.5)">
			<stop  offset="0" style="stop-color:#000000"/>
			<stop  offset="0.1406" style="stop-color:#040000"/>
			<stop  offset="0.2682" style="stop-color:#0F0000"/>
			<stop  offset="0.3908" style="stop-color:#210000"/>
			<stop  offset="0.5103" style="stop-color:#3B0000"/>
			<stop  offset="0.6276" style="stop-color:#5D0000"/>
			<stop  offset="0.7433" style="stop-color:#860000"/>
			<stop  offset="0.8575" style="stop-color:#B70000"/>
			<stop  offset="0.968" style="stop-color:#EE0000"/>
			<stop  offset="1" style="stop-color:#FF0000"/>
		</linearGradient>
		<path class="st27" d="M181.3,26.3v2.5c-1.6,2.1-3.9,3.1-6.9,3.1c-2.5,0-4.5-0.7-6-2.1c-1.5-1.3-2.3-3.2-2.3-5.4
			c0-2.1,0.7-3.8,2.1-5.2s3.2-2,5.4-2c1.1,0,2.2,0.2,3.2,0.6s1.8,0.9,2.5,1.6c0.7,0.7,1.2,1.6,1.6,2.5s0.5,2.1,0.5,3.5h-7.5
			c0.3,0.7,0.7,1.3,1.4,1.7c0.6,0.4,1.4,0.6,2.2,0.6C179,27.8,180.4,27.3,181.3,26.3z M173.4,23.1h3.4c0-0.7-0.2-1.2-0.5-1.6
			c-0.3-0.4-0.7-0.6-1.3-0.6c-0.4,0-0.8,0.2-1.2,0.6C173.6,21.8,173.4,22.4,173.4,23.1z"/>
		
			<linearGradient id="SVGID_7_" gradientUnits="userSpaceOnUse" x1="191.771" y1="95.9187" x2="191.771" y2="81.6852" gradientTransform="matrix(1 0 0 -1 0 113.5)">
			<stop  offset="0" style="stop-color:#000000"/>
			<stop  offset="0.1406" style="stop-color:#040000"/>
			<stop  offset="0.2682" style="stop-color:#0F0000"/>
			<stop  offset="0.3908" style="stop-color:#210000"/>
			<stop  offset="0.5103" style="stop-color:#3B0000"/>
			<stop  offset="0.6276" style="stop-color:#5D0000"/>
			<stop  offset="0.7433" style="stop-color:#860000"/>
			<stop  offset="0.8575" style="stop-color:#B70000"/>
			<stop  offset="0.968" style="stop-color:#EE0000"/>
			<stop  offset="1" style="stop-color:#FF0000"/>
		</linearGradient>
		<path class="st28" d="M200.2,17.6v14.1h-7v-2.5h0c-0.7,0.9-1.5,1.5-2.2,2c-0.7,0.4-1.6,0.6-2.7,0.6c-1.5,0-2.7-0.4-3.6-1.3
			c-0.9-0.9-1.4-2.1-1.4-3.7v-9.2h6.9v7.6c0,1.3,0.4,1.9,1.3,1.9c0.6,0,1-0.2,1.4-0.8v-8.7H200.2z"/>
		
			<linearGradient id="SVGID_8_" gradientUnits="userSpaceOnUse" x1="207.8725" y1="99.9341" x2="207.8725" y2="81.6852" gradientTransform="matrix(1 0 0 -1 0 113.5)">
			<stop  offset="0" style="stop-color:#000000"/>
			<stop  offset="0.1406" style="stop-color:#040000"/>
			<stop  offset="0.2682" style="stop-color:#0F0000"/>
			<stop  offset="0.3908" style="stop-color:#210000"/>
			<stop  offset="0.5103" style="stop-color:#3B0000"/>
			<stop  offset="0.6276" style="stop-color:#5D0000"/>
			<stop  offset="0.7433" style="stop-color:#860000"/>
			<stop  offset="0.8575" style="stop-color:#B70000"/>
			<stop  offset="0.968" style="stop-color:#EE0000"/>
			<stop  offset="1" style="stop-color:#FF0000"/>
		</linearGradient>
		<path class="st29" d="M214.5,17.6v4h-3.1v3c0,1,0.5,1.5,1.4,1.5c0.7,0,1.3-0.3,1.7-1v5.6c-1.2,0.8-2.6,1.1-4.2,1.1
			c-1.7,0-3.2-0.5-4.5-1.5c-1.2-1.1-1.8-2.4-1.8-4.3v-4.4h-3l10.3-8v4H214.5z"/>
		
			<linearGradient id="SVGID_9_" gradientUnits="userSpaceOnUse" x1="222.5918" y1="96.2118" x2="222.5918" y2="81.5914" gradientTransform="matrix(1 0 0 -1 0 113.5)">
			<stop  offset="0" style="stop-color:#000000"/>
			<stop  offset="0.1406" style="stop-color:#040000"/>
			<stop  offset="0.2682" style="stop-color:#0F0000"/>
			<stop  offset="0.3908" style="stop-color:#210000"/>
			<stop  offset="0.5103" style="stop-color:#3B0000"/>
			<stop  offset="0.6276" style="stop-color:#5D0000"/>
			<stop  offset="0.7433" style="stop-color:#860000"/>
			<stop  offset="0.8575" style="stop-color:#B70000"/>
			<stop  offset="0.968" style="stop-color:#EE0000"/>
			<stop  offset="1" style="stop-color:#FF0000"/>
		</linearGradient>
		<path class="st30" d="M215.5,30.3l1.6-4c0.5,0.7,1.1,1.2,1.8,1.6c0.7,0.4,1.4,0.6,2.1,0.6c0.4,0,0.8-0.1,1-0.3s0.4-0.4,0.4-0.7
			s-0.1-0.5-0.3-0.8c-0.2-0.2-0.8-0.4-1.7-0.7c-0.9-0.3-1.7-0.6-2.3-0.9c-0.6-0.3-1.1-0.8-1.5-1.4c-0.4-0.6-0.6-1.3-0.6-2
			c0-1.4,0.6-2.5,1.8-3.3c1.2-0.8,2.9-1.2,5.1-1.2c2.5,0,4.6,0.4,6.4,1.2l-1.7,3.6c-1.2-1-2.3-1.5-3.3-1.5c-0.3,0-0.6,0.1-0.9,0.2
			s-0.3,0.3-0.3,0.6c0,0.3,0.1,0.5,0.3,0.8c0.2,0.2,0.8,0.4,1.8,0.7c1,0.2,1.8,0.5,2.4,0.8c0.6,0.3,1.2,0.8,1.6,1.4
			c0.4,0.6,0.6,1.3,0.6,2.2c0,1.4-0.6,2.6-1.8,3.5c-1.2,0.9-2.7,1.2-4.6,1.2C220.8,31.9,218.2,31.4,215.5,30.3z"/>
		
			<linearGradient id="SVGID_10_" gradientUnits="userSpaceOnUse" x1="238.087" y1="96.2118" x2="238.087" y2="81.5914" gradientTransform="matrix(1 0 0 -1 0 113.5)">
			<stop  offset="0" style="stop-color:#000000"/>
			<stop  offset="0.1406" style="stop-color:#040000"/>
			<stop  offset="0.2682" style="stop-color:#0F0000"/>
			<stop  offset="0.3908" style="stop-color:#210000"/>
			<stop  offset="0.5103" style="stop-color:#3B0000"/>
			<stop  offset="0.6276" style="stop-color:#5D0000"/>
			<stop  offset="0.7433" style="stop-color:#860000"/>
			<stop  offset="0.8575" style="stop-color:#B70000"/>
			<stop  offset="0.968" style="stop-color:#EE0000"/>
			<stop  offset="1" style="stop-color:#FF0000"/>
		</linearGradient>
		<path class="st31" d="M244.9,18.1v6.2c-1.5-0.7-2.8-1-4-1c-0.7,0-1.3,0.1-1.6,0.3c-0.4,0.2-0.6,0.5-0.6,0.9c0,0.9,0.8,1.3,2.5,1.3
			c1.5,0,2.7-0.2,3.7-0.7v6.1c-1.4,0.4-3,0.6-4.6,0.6c-2.9,0-5-0.7-6.6-2c-1.6-1.3-2.3-3.1-2.3-5.2s0.7-3.8,2.2-5.3
			c1.5-1.4,3.5-2.1,6-2.1C241.3,17.3,243.1,17.6,244.9,18.1z"/>
		
			<linearGradient id="SVGID_11_" gradientUnits="userSpaceOnUse" x1="255.8618" y1="99.694" x2="255.8618" y2="81.8024" gradientTransform="matrix(1 0 0 -1 0 113.5)">
			<stop  offset="0" style="stop-color:#000000"/>
			<stop  offset="0.1406" style="stop-color:#040000"/>
			<stop  offset="0.2682" style="stop-color:#0F0000"/>
			<stop  offset="0.3908" style="stop-color:#210000"/>
			<stop  offset="0.5103" style="stop-color:#3B0000"/>
			<stop  offset="0.6276" style="stop-color:#5D0000"/>
			<stop  offset="0.7433" style="stop-color:#860000"/>
			<stop  offset="0.8575" style="stop-color:#B70000"/>
			<stop  offset="0.968" style="stop-color:#EE0000"/>
			<stop  offset="1" style="stop-color:#FF0000"/>
		</linearGradient>
		<path class="st32" d="M254.8,13.8v5.6c1.1-1.3,2.6-2,4.3-2c1.6,0,2.9,0.5,3.8,1.4c0.9,1,1.4,2.3,1.4,3.9v8.9h-6.9v-8.2
			c0-1.2-0.5-1.8-1.4-1.8c-0.4,0-0.8,0.2-1.3,0.5v9.4h-7.3V13.8H254.8z"/>
	</g>
	<g>
		
			<linearGradient id="SVGID_12_" gradientUnits="userSpaceOnUse" x1="119.8235" y1="57.4976" x2="119.8235" y2="75.9637" gradientTransform="matrix(1 0 0 -1 0 113.5)">
			<stop  offset="2.835052e-02" style="stop-color:#FFFF00"/>
			<stop  offset="0.4235" style="stop-color:#FF9200"/>
			<stop  offset="0.8216" style="stop-color:#FF2A00"/>
			<stop  offset="1" style="stop-color:#FF0000"/>
		</linearGradient>
		<path class="st33" d="M128,38.7l-2,5.6c-1.3-1.7-2.8-2.6-4.5-2.6c-0.9,0-1.4,0.3-1.4,1.1c0,0.2,0.1,0.4,0.4,0.7
			c0.3,0.2,1.1,0.6,2.3,1.1c1.4,0.5,2.4,1,3.2,1.5c0.7,0.4,1.3,1,1.7,1.7s0.5,1.5,0.5,2.4c0,1.9-0.7,3.4-2.2,4.4s-3.6,1.5-6.5,1.5
			c-3.2,0-6-0.4-8.2-1.3l1.9-6c0.6,0.9,1.3,1.6,2.1,2.1c0.8,0.5,1.6,0.8,2.4,0.8c0.4,0,0.7-0.1,1-0.3c0.2-0.2,0.4-0.4,0.4-0.7
			s-0.1-0.5-0.4-0.8s-0.9-0.6-2-1c-1-0.4-1.7-0.8-2.4-1.1c-0.6-0.4-1.2-0.9-1.6-1.5c-0.5-0.7-0.7-1.5-0.7-2.5c0-2,0.7-3.5,2.2-4.5
			s3.6-1.5,6.5-1.5C123.3,37.5,125.8,37.9,128,38.7z"/>
		
			<linearGradient id="SVGID_13_" gradientUnits="userSpaceOnUse" x1="134.8822" y1="57.6735" x2="134.8822" y2="75.9224" gradientTransform="matrix(1 0 0 -1 0 113.5)">
			<stop  offset="2.835052e-02" style="stop-color:#FFFF00"/>
			<stop  offset="0.4235" style="stop-color:#FF9200"/>
			<stop  offset="0.8216" style="stop-color:#FF2A00"/>
			<stop  offset="1" style="stop-color:#FF0000"/>
		</linearGradient>
		<path class="st34" d="M141.5,41.6v4h-3.1v3c0,1,0.5,1.5,1.4,1.5c0.7,0,1.3-0.3,1.7-1v5.6c-1.2,0.8-2.6,1.1-4.2,1.1
			c-1.7,0-3.2-0.5-4.5-1.5c-1.2-1.1-1.8-2.4-1.8-4.3v-4.4h-3l10.3-8v4L141.5,41.6L141.5,41.6z"/>
		
			<linearGradient id="SVGID_14_" gradientUnits="userSpaceOnUse" x1="150.814" y1="57.5775" x2="150.814" y2="72.1978" gradientTransform="matrix(1 0 0 -1 0 113.5)">
			<stop  offset="2.835052e-02" style="stop-color:#FFFF00"/>
			<stop  offset="0.4235" style="stop-color:#FF9200"/>
			<stop  offset="0.8216" style="stop-color:#FF2A00"/>
			<stop  offset="1" style="stop-color:#FF0000"/>
		</linearGradient>
		<path class="st35" d="M158.4,50.3v2.5c-1.6,2.1-3.9,3.1-6.9,3.1c-2.5,0-4.5-0.7-6-2.1c-1.5-1.3-2.3-3.2-2.3-5.4
			c0-2.1,0.7-3.8,2.1-5.2c1.4-1.3,3.2-2,5.4-2c1.1,0,2.2,0.2,3.2,0.6c1,0.4,1.8,0.9,2.5,1.6c0.7,0.7,1.2,1.6,1.6,2.5
			s0.5,2.1,0.5,3.5h-7.5c0.3,0.7,0.7,1.3,1.4,1.7c0.6,0.4,1.4,0.6,2.2,0.6C156.1,51.8,157.4,51.4,158.4,50.3z M150.5,47.1h3.4
			c0-0.7-0.2-1.2-0.5-1.6c-0.3-0.4-0.7-0.6-1.3-0.6c-0.4,0-0.8,0.2-1.2,0.6C150.6,45.8,150.5,46.4,150.5,47.1z"/>
		
			<linearGradient id="SVGID_15_" gradientUnits="userSpaceOnUse" x1="169.292" y1="53.8316" x2="169.292" y2="72.0325" gradientTransform="matrix(1 0 0 -1 0 113.5)">
			<stop  offset="2.835052e-02" style="stop-color:#FFFF00"/>
			<stop  offset="0.4235" style="stop-color:#FF9200"/>
			<stop  offset="0.8216" style="stop-color:#FF2A00"/>
			<stop  offset="1" style="stop-color:#FF0000"/>
		</linearGradient>
		<path class="st36" d="M168.1,41.6v1.1c1.1-0.8,2.3-1.2,3.5-1.2c1.8,0,3.3,0.7,4.5,2c1.2,1.3,1.8,3,1.8,5c0,2.2-0.6,3.9-1.9,5.3
			c-1.3,1.4-2.9,2.1-4.9,2.1c-1,0-2-0.2-3-0.6v4.5h-7.3V41.6H168.1z M168.1,47.8v2.5c0.4,0.2,0.8,0.3,1.3,0.3s0.8-0.1,1.1-0.5
			c0.3-0.3,0.4-0.8,0.4-1.3c0-0.5-0.1-1-0.4-1.3c-0.3-0.3-0.6-0.5-1.1-0.5C168.8,47.1,168.4,47.4,168.1,47.8z"/>
		
			<linearGradient id="SVGID_16_" gradientUnits="userSpaceOnUse" x1="196.6936" y1="57.7907" x2="196.6936" y2="75.6823" gradientTransform="matrix(1 0 0 -1 0 113.5)">
			<stop  offset="2.835052e-02" style="stop-color:#FFFF00"/>
			<stop  offset="0.4235" style="stop-color:#FF9200"/>
			<stop  offset="0.8216" style="stop-color:#FF2A00"/>
			<stop  offset="1" style="stop-color:#FF0000"/>
		</linearGradient>
		<path class="st37" d="M195.5,37.8V42c0.9-0.4,1.8-0.5,2.8-0.5c2,0,3.7,0.7,5,2c1.4,1.3,2,3,2,5c0,2-0.7,3.7-2.1,5.1
			c-1.4,1.4-3.3,2.1-5.9,2.1h-9.1V37.8H195.5z M195.5,50.6h0.1c0.6,0,1.1,0,1.5-0.1c0.3,0,0.6-0.2,0.8-0.5c0.2-0.2,0.3-0.7,0.3-1.2
			c0-0.5-0.1-1-0.4-1.2c-0.3-0.3-0.7-0.5-1.2-0.5c-0.4,0-0.8,0.1-1.2,0.3L195.5,50.6L195.5,50.6z"/>
		
			<linearGradient id="SVGID_17_" gradientUnits="userSpaceOnUse" x1="213.6196" y1="53.8316" x2="213.6196" y2="71.9108" gradientTransform="matrix(1 0 0 -1 0 113.5)">
			<stop  offset="2.835052e-02" style="stop-color:#FFFF00"/>
			<stop  offset="0.4235" style="stop-color:#FF9200"/>
			<stop  offset="0.8216" style="stop-color:#FF2A00"/>
			<stop  offset="1" style="stop-color:#FF0000"/>
		</linearGradient>
		<path class="st38" d="M214.8,59.7h-8l3-6.9l-5-11.2h7.3l1.7,3.7l1.6-3.7h7.1L214.8,59.7z"/>
		
			<linearGradient id="SVGID_18_" gradientUnits="userSpaceOnUse" x1="239.4693" y1="57.4976" x2="239.4693" y2="75.9637" gradientTransform="matrix(1 0 0 -1 0 113.5)">
			<stop  offset="2.835052e-02" style="stop-color:#FFFF00"/>
			<stop  offset="0.4235" style="stop-color:#FF9200"/>
			<stop  offset="0.8216" style="stop-color:#FF2A00"/>
			<stop  offset="1" style="stop-color:#FF0000"/>
		</linearGradient>
		<path class="st39" d="M247.6,38.7l-2,5.6c-1.3-1.7-2.8-2.6-4.5-2.6c-0.9,0-1.4,0.3-1.4,1.1c0,0.2,0.1,0.4,0.4,0.7s1.1,0.6,2.3,1.1
			c1.4,0.5,2.4,1,3.2,1.5c0.7,0.4,1.3,1,1.7,1.7s0.5,1.5,0.5,2.4c0,1.9-0.7,3.4-2.2,4.4c-1.5,1-3.6,1.5-6.5,1.5
			c-3.2,0-6-0.4-8.2-1.3l1.9-6c0.6,0.9,1.3,1.6,2.1,2.1c0.8,0.5,1.6,0.8,2.4,0.8c0.4,0,0.7-0.1,1-0.3c0.2-0.2,0.4-0.4,0.4-0.7
			s-0.1-0.5-0.4-0.8s-0.9-0.6-2-1c-1-0.4-1.7-0.8-2.4-1.1c-0.6-0.4-1.2-0.9-1.6-1.5c-0.5-0.7-0.7-1.5-0.7-2.5c0-2,0.7-3.5,2.2-4.5
			c1.5-1,3.6-1.5,6.5-1.5C243,37.5,245.4,37.9,247.6,38.7z"/>
		
			<linearGradient id="SVGID_19_" gradientUnits="userSpaceOnUse" x1="254.5766" y1="57.6735" x2="254.5766" y2="75.9224" gradientTransform="matrix(1 0 0 -1 0 113.5)">
			<stop  offset="2.835052e-02" style="stop-color:#FFFF00"/>
			<stop  offset="0.4235" style="stop-color:#FF9200"/>
			<stop  offset="0.8216" style="stop-color:#FF2A00"/>
			<stop  offset="1" style="stop-color:#FF0000"/>
		</linearGradient>
		<path class="st40" d="M261.2,41.6v4h-3.1v3c0,1,0.5,1.5,1.4,1.5c0.7,0,1.3-0.3,1.7-1v5.6c-1.2,0.8-2.6,1.1-4.2,1.1
			c-1.7,0-3.2-0.5-4.5-1.5c-1.2-1.1-1.8-2.4-1.8-4.3v-4.4h-3l10.3-8v4L261.2,41.6L261.2,41.6z"/>
		
			<linearGradient id="SVGID_20_" gradientUnits="userSpaceOnUse" x1="270.5082" y1="57.5775" x2="270.5082" y2="72.1978" gradientTransform="matrix(1 0 0 -1 0 113.5)">
			<stop  offset="2.835052e-02" style="stop-color:#FFFF00"/>
			<stop  offset="0.4235" style="stop-color:#FF9200"/>
			<stop  offset="0.8216" style="stop-color:#FF2A00"/>
			<stop  offset="1" style="stop-color:#FF0000"/>
		</linearGradient>
		<path class="st41" d="M278.1,50.3v2.5c-1.6,2.1-3.9,3.1-6.9,3.1c-2.5,0-4.5-0.7-6-2.1c-1.5-1.3-2.3-3.2-2.3-5.4
			c0-2.1,0.7-3.8,2.1-5.2c1.4-1.3,3.2-2,5.4-2c1.1,0,2.2,0.2,3.2,0.6c1,0.4,1.8,0.9,2.5,1.6c0.7,0.7,1.2,1.6,1.6,2.5
			c0.3,1,0.5,2.1,0.5,3.5h-7.5c0.3,0.7,0.7,1.3,1.4,1.7c0.6,0.4,1.4,0.6,2.2,0.6C275.8,51.8,277.1,51.4,278.1,50.3z M270.2,47.1h3.4
			c0-0.7-0.2-1.2-0.5-1.6s-0.7-0.6-1.3-0.6c-0.4,0-0.8,0.2-1.2,0.6C270.3,45.8,270.2,46.4,270.2,47.1z"/>
		
			<linearGradient id="SVGID_21_" gradientUnits="userSpaceOnUse" x1="288.9862" y1="53.8316" x2="288.9862" y2="72.0325" gradientTransform="matrix(1 0 0 -1 0 113.5)">
			<stop  offset="2.835052e-02" style="stop-color:#FFFF00"/>
			<stop  offset="0.4235" style="stop-color:#FF9200"/>
			<stop  offset="0.8216" style="stop-color:#FF2A00"/>
			<stop  offset="1" style="stop-color:#FF0000"/>
		</linearGradient>
		<path class="st42" d="M287.7,41.6v1.1c1.1-0.8,2.3-1.2,3.5-1.2c1.8,0,3.3,0.7,4.5,2c1.2,1.3,1.8,3,1.8,5c0,2.2-0.6,3.9-1.9,5.3
			c-1.3,1.4-2.9,2.1-4.9,2.1c-1,0-2-0.2-3-0.6v4.5h-7.3V41.6H287.7z M287.7,47.8v2.5c0.4,0.2,0.8,0.3,1.3,0.3s0.8-0.1,1.1-0.5
			c0.3-0.3,0.4-0.8,0.4-1.3c0-0.5-0.1-1-0.4-1.3c-0.3-0.3-0.6-0.5-1.1-0.5C288.5,47.1,288.1,47.4,287.7,47.8z"/>
	</g>
	<g>
		<g class="st18">
			
				<linearGradient id="SVGID_22_" gradientUnits="userSpaceOnUse" x1="683.71" y1="607.7269" x2="1092.0673" y2="607.7269" gradientTransform="matrix(-1 0 0 1 1333.42 -592)">
				<stop  offset="0" style="stop-color:#000000"/>
				<stop  offset="0.2023" style="stop-color:#030303;stop-opacity:0.7977"/>
				<stop  offset="0.3369" style="stop-color:#0C0C0C;stop-opacity:0.6631"/>
				<stop  offset="0.4518" style="stop-color:#1B1B1B;stop-opacity:0.5482"/>
				<stop  offset="0.5556" style="stop-color:#303030;stop-opacity:0.4444"/>
				<stop  offset="0.652" style="stop-color:#4C4C4C;stop-opacity:0.348"/>
				<stop  offset="0.7428" style="stop-color:#6E6E6E;stop-opacity:0.2572"/>
				<stop  offset="0.8295" style="stop-color:#969696;stop-opacity:0.1705"/>
				<stop  offset="0.9126" style="stop-color:#C5C5C5;stop-opacity:8.738375e-02"/>
				<stop  offset="0.9904" style="stop-color:#F8F8F8;stop-opacity:9.625316e-03"/>
				<stop  offset="1" style="stop-color:#FFFFFF;stop-opacity:0"/>
			</linearGradient>
			<rect x="241.4" y="6.1" class="st43" width="408.4" height="19.2"/>
		</g>
		<g class="st18">
			
				<linearGradient id="SVGID_23_" gradientUnits="userSpaceOnUse" x1="683.71" y1="627.4166" x2="1092.0673" y2="627.4166" gradientTransform="matrix(-1 0 0 1 1333.42 -592)">
				<stop  offset="0" style="stop-color:#FF0000"/>
				<stop  offset="0.2023" style="stop-color:#FF0303;stop-opacity:0.7977"/>
				<stop  offset="0.3369" style="stop-color:#FF0C0C;stop-opacity:0.6631"/>
				<stop  offset="0.4518" style="stop-color:#FF1B1B;stop-opacity:0.5482"/>
				<stop  offset="0.5556" style="stop-color:#FF3030;stop-opacity:0.4444"/>
				<stop  offset="0.652" style="stop-color:#FF4C4C;stop-opacity:0.348"/>
				<stop  offset="0.7428" style="stop-color:#FF6E6E;stop-opacity:0.2572"/>
				<stop  offset="0.8295" style="stop-color:#FF9696;stop-opacity:0.1705"/>
				<stop  offset="0.9126" style="stop-color:#FFC5C5;stop-opacity:8.738375e-02"/>
				<stop  offset="0.9904" style="stop-color:#FFF8F8;stop-opacity:9.625316e-03"/>
				<stop  offset="1" style="stop-color:#FFFFFF;stop-opacity:0"/>
			</linearGradient>
			<rect x="241.4" y="25.3" class="st44" width="408.4" height="20.2"/>
		</g>
		<g class="st18">
			
				<linearGradient id="SVGID_24_" gradientUnits="userSpaceOnUse" x1="683.71" y1="647.1061" x2="1092.0673" y2="647.1061" gradientTransform="matrix(-1 0 0 1 1333.42 -592)">
				<stop  offset="0" style="stop-color:#FFFF00"/>
				<stop  offset="0.2023" style="stop-color:#FFFF03;stop-opacity:0.7977"/>
				<stop  offset="0.3369" style="stop-color:#FFFF0C;stop-opacity:0.6631"/>
				<stop  offset="0.4518" style="stop-color:#FFFF1B;stop-opacity:0.5482"/>
				<stop  offset="0.5556" style="stop-color:#FFFF30;stop-opacity:0.4444"/>
				<stop  offset="0.652" style="stop-color:#FFFF4C;stop-opacity:0.348"/>
				<stop  offset="0.7428" style="stop-color:#FFFF6E;stop-opacity:0.2572"/>
				<stop  offset="0.8295" style="stop-color:#FFFF96;stop-opacity:0.1705"/>
				<stop  offset="0.9126" style="stop-color:#FFFFC5;stop-opacity:8.738375e-02"/>
				<stop  offset="0.9904" style="stop-color:#FFFFF8;stop-opacity:9.625316e-03"/>
				<stop  offset="1" style="stop-color:#FFFFFF;stop-opacity:0"/>
			</linearGradient>
			<rect x="241.4" y="45.5" class="st45" width="408.4" height="19.2"/>
		</g>
	</g>
</g>
</svg>
