<?xml version="1.0" encoding="UTF-8" standalone="no"?>
<svg
   xmlns:dc="http://purl.org/dc/elements/1.1/"
   xmlns:cc="http://creativecommons.org/ns#"
   xmlns:rdf="http://www.w3.org/1999/02/22-rdf-syntax-ns#"
   xmlns:svg="http://www.w3.org/2000/svg"
   xmlns="http://www.w3.org/2000/svg"
   xmlns:sodipodi="http://sodipodi.sourceforge.net/DTD/sodipodi-0.dtd"
   xmlns:inkscape="http://www.inkscape.org/namespaces/inkscape"
   viewBox="0 0 461.78763 461.89426"
   height="461.89426"
   width="461.78763"
   xml:space="preserve"
   version="1.1"
   id="svg8937"
   sodipodi:docname="blue rectangle.svg"
   inkscape:version="0.92.3 (2405546, 2018-03-11)"><sodipodi:namedview
     pagecolor="#ffffff"
     bordercolor="#666666"
     borderopacity="1"
     objecttolerance="10"
     gridtolerance="10"
     guidetolerance="10"
     inkscape:pageopacity="0"
     inkscape:pageshadow="2"
     inkscape:window-width="1366"
     inkscape:window-height="715"
     id="namedview3855"
     showgrid="false"
     inkscape:zoom="0.51093946"
     inkscape:cx="230.89381"
     inkscape:cy="230.94713"
     inkscape:window-x="-8"
     inkscape:window-y="-8"
     inkscape:window-maximized="1"
     inkscape:current-layer="g8947" /><metadata
     id="metadata8943"><rdf:RDF><cc:Work
         rdf:about=""><dc:format>image/svg+xml</dc:format><dc:type
           rdf:resource="http://purl.org/dc/dcmitype/StillImage" /><dc:title></dc:title></cc:Work></rdf:RDF></metadata><defs
     id="defs8941" /><g
     transform="matrix(1.25,0,0,-1.25,0,461.89426)"
     id="g8945"><g
       id="g8947"><path
         id="path8949"
         style="fill:#ffffff;fill-opacity:1;fill-rule:evenodd;stroke:#000000;stroke-width:0.60535198;stroke-linecap:butt;stroke-linejoin:miter;stroke-miterlimit:4;stroke-dasharray:none;stroke-opacity:1"
         d="M 360.621,0.304 C 270.754,0.304 101.207,0.332 9.672,0.32 4.711,0.316 0.383,4.953 0.32,8.41 L 0.301,359.797 c 0,4.285 3.637,9.367 9.269,9.367 l 349.864,0.051 c 5.496,0 9.668,-4.5 9.668,-9.883 L 369.129,8.488 c 0,-3.976 -4.789,-8.184 -8.508,-8.184 z" /><path
         id="path8951"
         style="fill:#154889;fill-opacity:1;fill-rule:evenodd;stroke:none"
         d="M 360.012,6.719 9.422,6.734 C 8.34,6.734 6.801,7.972 6.801,8.965 L 6.785,360.137 c 0,1.003 1.024,2.507 2.11,2.507 l 351.628,-0.011 c 1.133,0 2.129,-1.461 2.129,-2.551 L 362.676,9.316 c 0,-1.199 -1.774,-2.597 -2.664,-2.597 z" /></g></g></svg>