<?xml version="1.0" encoding="utf-8"?>
<!-- Generator: Adobe Illustrator 23.0.1, SVG Export Plug-In . SVG Version: 6.00 Build 0)  -->
<svg version="1.1" id="Layer_1" xmlns="http://www.w3.org/2000/svg" xmlns:xlink="http://www.w3.org/1999/xlink" x="0px" y="0px"
	 viewBox="0 0 385 225" style="enable-background:new 0 0 385 225;" xml:space="preserve">
<style type="text/css">
	.st0{fill:#FFFFFF;stroke:#000000;stroke-width:2;stroke-miterlimit:10;}
	.st1{font-family:'Arial-BoldMT';}
	.st2{font-size:120px;}
	.st3{font-size:80px;}
	.st4{font-size:100px;}
</style>
<path class="st0" d="M27,224c-14.3,0-26-11.7-26-26V27C1,12.7,12.7,1,27,1h331c14.3,0,26,11.7,26,26v171c0,14.3-11.7,26-26,26H27z"
	/>
<path class="st0" d="M358,210H27c-6.6,0-12-5.4-12-12V27c0-6.6,5.4-12,12-12h331c6.6,0,12,5.4,12,12v171
	C370,204.6,364.6,210,358,210z"/>
<text transform="matrix(1 0 0 1 49.4714 152.8438)"><tspan x="0" y="0" class="st1 st2">226</tspan><tspan x="200.2" y="0" class="st1 st3">,</tspan><tspan x="222.4" y="0" class="st1 st4">3</tspan></text>
</svg>
