<?xml version="1.0" encoding="utf-8"?>
<!-- Generator: Adobe Illustrator 23.0.1, SVG Export Plug-In . SVG Version: 6.00 Build 0)  -->
<svg version="1.1"
	 id="svg6064" xmlns:cc="http://creativecommons.org/ns#" xmlns:dc="http://purl.org/dc/elements/1.1/" xmlns:rdf="http://www.w3.org/1999/02/22-rdf-syntax-ns#" xmlns:svg="http://www.w3.org/2000/svg"
	 xmlns="http://www.w3.org/2000/svg" xmlns:xlink="http://www.w3.org/1999/xlink" x="0px" y="0px" viewBox="0 0 441 222.9"
	 style="enable-background:new 0 0 441 222.9;" xml:space="preserve">
<style type="text/css">
	.st0{fill-rule:evenodd;clip-rule:evenodd;fill:#FFFFFF;stroke:#000000;stroke-miterlimit:10;}
	.st1{fill-rule:evenodd;clip-rule:evenodd;fill:#154889;}
	.st2{enable-background:new    ;}
	.st3{fill:#FFFFFF;}
</style>
<path class="st0" d="M22,222.9c-12.1,0-22-9.9-22-22V22C0,9.9,9.9,0,22,0h397c12.1,0,22,9.9,22,22v178.9c0,12.1-9.9,22-22,22H22z"/>
<path class="st1" d="M419,212.9H22c-6.6,0-12-5.4-12-12V22c0-6.6,5.4-12,12-12h397c6.6,0,12,5.4,12,12v178.9
	C431,207.5,425.6,212.9,419,212.9z"/>
<g class="st2">
	<path class="st3" d="M76.4,78.7h-0.3l-17.8,9l-3.1-14L78.9,62h15.5v97.5h-18V78.7z"/>
	<path class="st3" d="M196.7,110.2c0,31.3-12.3,51-35.5,51c-22.5,0-34.5-20.4-34.6-50.1c0-30.3,12.9-50.7,35.7-50.7
		C185.7,60.4,196.7,81.4,196.7,110.2z M145.1,111.1c-0.2,23.7,6.4,36,16.6,36c10.8,0,16.5-13.2,16.5-36.6c0-22.6-5.4-36-16.5-36
		C151.8,74.5,145,86.7,145.1,111.1z"/>
	<path class="st3" d="M270.2,77.4h-37.5l-2.8,19.5c2.3-0.3,4.2-0.5,7-0.5c8.5,0,17.1,2,23.7,6.3c7.3,4.6,12.7,12.9,12.7,24.7
		c0,18.6-15.4,33.7-39.4,33.7c-11.3,0-20.7-2.9-25.8-5.7l3.8-13.9c4.2,2.3,12.6,5.1,21.4,5.1c10.8,0,21.1-6.1,21.1-17.8
		c0-11.1-8.2-18.4-27.7-18.4c-5.4,0-9.4,0.3-13.3,0.9l6.5-49.2h50.4v15.3H270.2z"/>
	<path class="st3" d="M283.4,177.7c4-11.4,8.1-27.1,10-39.6l19.3-1.5c-4.2,14.1-10.9,30.3-16.8,39.9L283.4,177.7z"/>
	<path class="st3" d="M386,77.4h-37.5l-2.8,19.5c2.3-0.3,4.2-0.5,7-0.5c8.5,0,17.1,2,23.7,6.3c7.3,4.6,12.7,12.9,12.7,24.7
		c0,18.6-15.4,33.7-39.4,33.7c-11.3,0-20.7-2.9-25.8-5.7l3.8-13.9c4.2,2.3,12.6,5.1,21.4,5.1c10.8,0,21.1-6.1,21.1-17.8
		c0-11.1-8.2-18.4-27.7-18.4c-5.4,0-9.4,0.3-13.3,0.9l6.5-49.2H386V77.4z"/>
</g>
</svg>
