<?xml version="1.0" encoding="UTF-8" standalone="no"?>
<svg
   xmlns:dc="http://purl.org/dc/elements/1.1/"
   xmlns:cc="http://creativecommons.org/ns#"
   xmlns:rdf="http://www.w3.org/1999/02/22-rdf-syntax-ns#"
   xmlns:svg="http://www.w3.org/2000/svg"
   xmlns="http://www.w3.org/2000/svg"
   viewBox="0 0 181.60278 420.32422"
   height="420.32422"
   width="181.60278"
   xml:space="preserve"
   version="1.1"
   id="svg15591"><metadata
     id="metadata15597"><rdf:RDF><cc:Work
         rdf:about=""><dc:format>image/svg+xml</dc:format><dc:type
           rdf:resource="http://purl.org/dc/dcmitype/StillImage" /><dc:title></dc:title></cc:Work></rdf:RDF></metadata><defs
     id="defs15595" /><g
     transform="matrix(1.25,0,0,-1.25,0,420.32421)"
     id="g15599"><g
       id="g15601"><path
         id="path15603"
         style="fill:none;stroke:#ffffff;stroke-width:1;stroke-linecap:butt;stroke-linejoin:miter;stroke-miterlimit:4;stroke-dasharray:none;stroke-opacity:1"
         d="M 26.434,158.556 54.512,109.65 26.566,60.982 53.168,45.064 72.777,78.056 92.164,45.037 l 26.805,15.593 -28.485,49.059 28.547,49.305 -26.832,15.48 -19.453,-33.64 -19.332,33.187 -26.98,-15.465 z" /><path
         id="path15605"
         style="fill:#ffffff;fill-opacity:1;fill-rule:nonzero;stroke:#000000;stroke-width:0.80000001;stroke-linecap:butt;stroke-linejoin:miter;stroke-miterlimit:4;stroke-dasharray:none;stroke-opacity:1"
         d="M 26.434,158.556 54.512,109.65 26.566,60.982 53.168,45.064 72.777,78.056 92.164,45.037 l 26.805,15.593 -28.485,49.059 28.547,49.305 -26.832,15.48 -19.453,-33.64 -19.332,33.187 -26.98,-15.465 z" /><path
         id="path15607"
         style="fill:#ab2524;fill-opacity:1;fill-rule:evenodd;stroke:none"
         d="M 26.434,158.017 53.969,173.658 27.566,219.439 0.16,203.537 26.434,158.017 Z" /><path
         id="path15609"
         style="fill:#ab2524;fill-opacity:1;fill-rule:evenodd;stroke:none"
         d="M 117.75,0.002 145.281,15.642 118.883,61.423 91.473,45.521 117.75,0.002 Z" /><path
         id="path15611"
         style="fill:#ab2524;fill-opacity:1;fill-rule:evenodd;stroke:none"
         d="M 27.531,0.002 0,15.642 26.402,61.423 53.805,45.521 27.531,0.002 Z" /><path
         id="path15613"
         style="fill:#ab2524;fill-opacity:1;fill-rule:evenodd;stroke:none"
         d="m 118.781,157.927 -27.535,15.641 26.406,45.785 27.407,-15.902 -26.278,-45.524 z" /><path
         id="path15615"
         style="fill:#ffffff;fill-opacity:1;fill-rule:nonzero;stroke:#000000;stroke-width:0.80000001;stroke-linecap:butt;stroke-linejoin:miter;stroke-miterlimit:4;stroke-dasharray:none;stroke-opacity:1"
         d="m 44.266,335.38 c -5.778,0 -9.883,-3.511 -9.918,-9.918 -0.02,-19.503 -0.008,-27.199 -0.004,-44.308 -0.024,-22.004 0.004,-39.067 0.004,-58.711 0.035,-6.406 4.14,-9.918 9.918,-9.914 0.015,0 0.027,0 0.043,0.004 18.847,0 37.703,-0.004 56.55,0 0.016,-0.004 0.032,-0.004 0.047,-0.004 5.778,-0.004 9.879,3.508 9.914,9.914 0.055,34.234 -0.011,75.93 0,103.019 -0.035,6.407 -4.136,9.918 -9.914,9.918 -0.015,0 -0.031,-0.003 -0.047,-0.003 -18.847,0.003 -37.703,0 -56.55,0 -0.016,0 -0.028,0.003 -0.043,0.003 z" /><path
         id="path15617"
         style="fill:#000000;fill-opacity:1;fill-rule:nonzero;stroke:none"
         d="m 48.094,326.564 c -2.68,0.004 -4.852,-2.172 -4.852,-4.852 0,-0.05 0,-0.101 0.004,-0.152 l -0.008,0 0,-95.406 0.008,0 0,-0.024 c -0.004,-2.679 2.168,-4.851 4.848,-4.851 l 48.133,0 c 2.679,0 4.855,2.172 4.855,4.851 -0.004,0.051 -0.004,0.102 -0.008,0.157 l 0.008,0 0,95.402 -0.008,0 0.004,0.023 c 0,2.68 -2.172,4.852 -4.851,4.852 l -48.133,0 z" /><path
         id="path15619"
         style="fill:none;stroke:#000000;stroke-width:0.632056;stroke-linecap:butt;stroke-linejoin:miter;stroke-miterlimit:4;stroke-dasharray:none;stroke-opacity:1"
         d="m 86.543,297.607 c 0,-7.926 -6.426,-14.352 -14.352,-14.352 -7.925,0 -14.355,6.426 -14.355,14.352 0,7.926 6.43,14.352 14.355,14.352 7.926,0 14.352,-6.426 14.352,-14.352 z" /><path
         id="path15621"
         style="fill:#ff0000;fill-opacity:1;fill-rule:nonzero;stroke:#808080;stroke-width:0.331824;stroke-linecap:butt;stroke-linejoin:miter;stroke-miterlimit:4;stroke-dasharray:none;stroke-opacity:1"
         d="m 89.715,297.607 c 0,-9.68 -7.844,-17.523 -17.524,-17.523 -9.679,0 -17.523,7.843 -17.523,17.523 0,9.68 7.844,17.523 17.523,17.523 9.68,0 17.524,-7.843 17.524,-17.523 z" /><path
         id="path15623"
         style="fill:none;stroke:#808080;stroke-width:0.41477999;stroke-linecap:butt;stroke-linejoin:miter;stroke-miterlimit:4;stroke-dasharray:none;stroke-opacity:1"
         d="m 86.543,297.607 c 0,-7.926 -6.426,-14.352 -14.352,-14.352 -7.925,0 -14.355,6.426 -14.355,14.352" /><path
         id="path15625"
         style="fill:none;stroke:#808080;stroke-width:1.70920503;stroke-linecap:butt;stroke-linejoin:miter;stroke-miterlimit:4;stroke-dasharray:none;stroke-opacity:1"
         d="m 52.535,293.181 0.02,4.426 c 0,10.848 8.789,19.637 19.636,19.637 10.844,0 19.637,-8.789 19.637,-19.637 l -0.004,-4.426" /><path
         id="path15627"
         style="fill:none;stroke:#808080;stroke-width:0.34526801;stroke-linecap:butt;stroke-linejoin:miter;stroke-miterlimit:4;stroke-dasharray:none;stroke-opacity:1"
         d="m 84.762,297.607 c 0,-6.941 -5.629,-12.57 -12.571,-12.57 -6.941,0 -12.57,5.629 -12.57,12.57" /><path
         id="path15629"
         style="fill:none;stroke:#808080;stroke-width:0.34526801;stroke-linecap:butt;stroke-linejoin:miter;stroke-miterlimit:4;stroke-dasharray:none;stroke-opacity:1"
         d="m 83.059,296.326 c 0,-5.528 -5.34,-10.008 -10.868,-10.008 -5.527,0 -11.062,4.48 -11.062,10.008" /><path
         id="path15631"
         style="fill:none;stroke:#808080;stroke-width:0.34507999;stroke-linecap:butt;stroke-linejoin:miter;stroke-miterlimit:4;stroke-dasharray:none;stroke-opacity:1"
         d="m 81.262,295.111 c 0,-4.184 -4.91,-7.578 -9.094,-7.578 -4.184,0 -9.234,3.394 -9.234,7.578" /><path
         id="path15633"
         style="fill:none;stroke:#808080;stroke-width:0.34507999;stroke-linecap:butt;stroke-linejoin:miter;stroke-miterlimit:4;stroke-dasharray:none;stroke-opacity:1"
         d="m 79.492,294.025 c 0,-2.984 -4.363,-5.402 -7.347,-5.402 -2.981,0 -7.442,2.418 -7.442,5.402" /><path
         id="path15635"
         style="fill:none;stroke:#808080;stroke-width:0.34509701;stroke-linecap:butt;stroke-linejoin:miter;stroke-miterlimit:4;stroke-dasharray:none;stroke-opacity:1"
         d="m 77.723,293.494 c 0,-1.922 -3.668,-3.481 -5.594,-3.481 -1.922,0 -5.66,1.559 -5.66,3.481" /><path
         id="path15637"
         style="fill:none;stroke:#000000;stroke-width:0.632056;stroke-linecap:butt;stroke-linejoin:miter;stroke-miterlimit:4;stroke-dasharray:none;stroke-opacity:1"
         d="m 86.543,247.65 c 0,-7.926 -6.426,-14.352 -14.352,-14.352 -7.925,0 -14.355,6.426 -14.355,14.352 0,7.926 6.43,14.352 14.355,14.352 7.926,0 14.352,-6.426 14.352,-14.352 z" /><path
         id="path15639"
         style="fill:#ffe82a;fill-opacity:1;fill-rule:nonzero;stroke:#808080;stroke-width:0.331824;stroke-linecap:butt;stroke-linejoin:miter;stroke-miterlimit:4;stroke-dasharray:none;stroke-opacity:1"
         d="m 89.715,247.65 c 0,-9.68 -7.844,-17.523 -17.524,-17.523 -9.679,0 -17.523,7.843 -17.523,17.523 0,9.68 7.844,17.523 17.523,17.523 9.68,0 17.524,-7.843 17.524,-17.523 z" /><path
         id="path15641"
         style="fill:none;stroke:#808080;stroke-width:0.41477999;stroke-linecap:butt;stroke-linejoin:miter;stroke-miterlimit:4;stroke-dasharray:none;stroke-opacity:1"
         d="m 86.543,247.65 c 0,-7.926 -6.426,-14.352 -14.352,-14.352 -7.925,0 -14.355,6.426 -14.355,14.352" /><path
         id="path15643"
         style="fill:none;stroke:#808080;stroke-width:1.70920503;stroke-linecap:butt;stroke-linejoin:miter;stroke-miterlimit:4;stroke-dasharray:none;stroke-opacity:1"
         d="m 52.535,243.224 0.02,4.426 c 0,10.848 8.789,19.637 19.636,19.637 10.844,0 19.637,-8.789 19.637,-19.637 l -0.004,-4.426" /><path
         id="path15645"
         style="fill:none;stroke:#808080;stroke-width:0.34526801;stroke-linecap:butt;stroke-linejoin:miter;stroke-miterlimit:4;stroke-dasharray:none;stroke-opacity:1"
         d="m 84.762,247.65 c 0,-6.941 -5.629,-12.57 -12.571,-12.57 -6.941,0 -12.57,5.629 -12.57,12.57" /><path
         id="path15647"
         style="fill:none;stroke:#808080;stroke-width:0.34526801;stroke-linecap:butt;stroke-linejoin:miter;stroke-miterlimit:4;stroke-dasharray:none;stroke-opacity:1"
         d="m 83.059,246.369 c 0,-5.528 -5.34,-10.008 -10.868,-10.008 -5.527,0 -11.062,4.48 -11.062,10.008" /><path
         id="path15649"
         style="fill:none;stroke:#808080;stroke-width:0.34507999;stroke-linecap:butt;stroke-linejoin:miter;stroke-miterlimit:4;stroke-dasharray:none;stroke-opacity:1"
         d="m 81.262,245.154 c 0,-4.188 -4.91,-7.578 -9.094,-7.578 -4.184,0 -9.234,3.39 -9.234,7.578" /><path
         id="path15651"
         style="fill:none;stroke:#808080;stroke-width:0.34507999;stroke-linecap:butt;stroke-linejoin:miter;stroke-miterlimit:4;stroke-dasharray:none;stroke-opacity:1"
         d="m 79.492,244.068 c 0,-2.984 -4.363,-5.402 -7.347,-5.402 -2.981,0 -7.442,2.418 -7.442,5.402" /><path
         id="path15653"
         style="fill:none;stroke:#808080;stroke-width:0.34509701;stroke-linecap:butt;stroke-linejoin:miter;stroke-miterlimit:4;stroke-dasharray:none;stroke-opacity:1"
         d="m 77.723,243.537 c 0,-1.926 -3.668,-3.485 -5.594,-3.485 -1.922,0 -5.66,1.559 -5.66,3.485" /></g></g></svg>