<?xml version="1.0" encoding="utf-8"?>
<!-- Generator: Adobe Illustrator 22.0.1, SVG Export Plug-In . SVG Version: 6.00 Build 0)  -->
<svg version="1.1" id="Layer_1" xmlns="http://www.w3.org/2000/svg" xmlns:xlink="http://www.w3.org/1999/xlink" x="0px" y="0px"
	 viewBox="0 0 248.9 456.7" style="enable-background:new 0 0 248.9 456.7;" xml:space="preserve">
<style type="text/css">
	.st0{fill:url(#SVGID_1_);}
	.st1{fill:#FFFFFF;}
	.st2{fill:#020203;}
	.st3{fill:#F7BA11;}
	.st4{fill:#231F20;}
</style>
<linearGradient id="SVGID_1_" gradientUnits="userSpaceOnUse" x1="110.9315" y1="330.8086" x2="137.9315" y2="330.8086">
	<stop  offset="0" style="stop-color:#EEEBE9"/>
	<stop  offset="0" style="stop-color:#E0DBD7"/>
	<stop  offset="0" style="stop-color:#D7D2CD"/>
	<stop  offset="6.786538e-02" style="stop-color:#C9C4BF"/>
	<stop  offset="0.1461" style="stop-color:#B3AFAB"/>
	<stop  offset="0.5225" style="stop-color:#E7E7E7"/>
	<stop  offset="0.6579" style="stop-color:#D7D5D4"/>
	<stop  offset="0.8764" style="stop-color:#B3AFAB"/>
	<stop  offset="1" style="stop-color:#DADADA"/>
	<stop  offset="1" style="stop-color:#B2B2B2"/>
</linearGradient>
<polygon class="st0" points="137.9,456.7 131.6,451.7 125,456.7 117.5,451.7 110.9,456.7 110.9,204.9 137.9,204.9 "/>
<g id="g3492" transform="matrix(1.25,0,0,-1.25,0,600)">
	<g id="g3494">
		<path id="path3496" class="st1" d="M92.8,284L2.7,374.1c-4.1,4.1-2.8,10.2,0.1,13.3L92.5,477c4.6,4.6,10.9,3,13.9,0l89.3-89.1
			c4.3-4.3,4.4-10,0.2-14.2L106.2,284C99.5,277.3,92.8,284,92.8,284z"/>
		<path id="path3498" class="st1" d="M195.7,387.9c4.3-4.3,4.4-10,0.2-14.2c-29.9-29.9-59.8-59.8-89.7-89.8c-6.8-6.8-13.4,0-13.4,0
			L2.7,374.1c-4.1,4.1-2.8,10.2,0.1,13.3L92.5,477c4.6,4.6,10.9,3,13.9,0L195.7,387.9z"/>
		<path id="path3500" class="st1" d="M195.7,387.9c4.3-4.3,4.4-10,0.2-14.2c-29.9-29.9-59.8-59.8-89.7-89.8c-6.8-6.8-13.4,0-13.4,0
			L2.7,374.1c-4.1,4.1-2.8,10.2,0.1,13.3L92.5,477c4.6,4.6,10.9,3,13.9,0L195.7,387.9z"/>
		<path id="path3502" class="st2" d="M103.9,474.9l90-90c4.4-4.4,0.1-8.5,0.1-8.5l-90.1-90.1c0,0-4.1-4.3-8.5,0.1l-90,89.9
			c-4.4,4.4,0,8.6,0,8.6c30,30,60,60,90,90C95.3,474.9,99.4,479.3,103.9,474.9z M101.3,472.3c-1.7,1.7-3.5,0-3.5,0
			c-30-30-60-59.9-90-89.9c0,0-1.8-1.7,0-3.5l90-89.9c1.9-1.8,3.4,0,3.4,0c30,29.9,60,59.9,90,89.9c0,0,1.8,1.5,0,3.4L101.3,472.3z"
			/>
		<path id="path3504" class="st3" d="M99.5,325.6l55.2,55.1l-55.2,55.1l-55.2-55.1L99.5,325.6z"/>
		<path id="path3506" class="st2" d="M99.5,323.8l-0.9,0.9l-56,56l56.9,56.8l56.9-56.8L99.5,323.8z M99.5,327.3l53.4,53.4
			l-53.4,53.4l-53.4-53.4L99.5,327.3z"/>
		<path id="path3508" class="st2" d="M195.8,388c2.2-2.2,3.3-4.7,3.3-7.2c0-2.5-1-5-3.1-7.1c-29.9-29.9-59.8-59.8-89.7-89.8
			c-3.4-3.4-6.8-3.4-9.4-2.6c-2.5,0.9-4.2,2.6-4.2,2.6L2.6,374c-2.1,2.1-2.8,4.7-2.6,7.1c0.2,2.4,1.3,4.8,2.7,6.3l0,0l89.7,89.6
			c2.3,2.3,5.1,3.1,7.7,2.9c2.6-0.2,4.9-1.4,6.4-2.8L195.8,388z M195.7,387.9L106.4,477c-2.9,2.9-9.3,4.6-13.9,0L2.8,387.4
			c-2.9-3-4.2-9.1-0.1-13.3L92.8,284c0,0,6.7-6.8,13.4,0c29.9,29.9,59.8,59.8,89.7,89.8C200.1,377.9,200,383.7,195.7,387.9
			L195.7,387.9z"/>
	</g>
</g>
<g id="g3387" transform="matrix(1.25,0,0,-1.25,0,600.99804)">
	<g id="g3389">
		<path id="path3391" class="st1" d="M154.4,261.3H44.7c-4.7,0-8.4-3.8-8.4-8.4V143.2c0-4.7,3.8-8.4,8.4-8.4h109.6
			c4.7,0,8.4,3.8,8.4,8.4v109.6C162.8,257.5,159,261.3,154.4,261.3"/>
		<path id="path3393" class="st2" d="M44.7,261.4c-4.7,0-8.5-3.8-8.5-8.5V143.2c0-4.7,3.8-8.5,8.5-8.5h109.6c4.7,0,8.5,3.8,8.5,8.5
			v109.6c0,4.7-3.8,8.5-8.5,8.5H44.7L44.7,261.4z M44.7,261.3h109.6c4.7,0,8.4-3.8,8.4-8.4V143.2c0-4.7-3.8-8.4-8.4-8.4H44.7
			c-4.7,0-8.4,3.8-8.4,8.4v109.6C36.3,257.5,40.1,261.3,44.7,261.3z"/>
		<path id="path3395" class="st4" d="M44.7,259.2c-3.5,0-6.3-2.8-6.3-6.3V143.2c0-3.5,2.8-6.3,6.3-6.3h109.6c3.5,0,6.3,2.8,6.3,6.3
			v109.6c0,3.5-2.8,6.3-6.3,6.3C154.4,259.2,44.7,259.2,44.7,259.2z M44.7,256h109.6c1.7,0,3.2-1.4,3.2-3.2V143.2
			c0-1.7-1.4-3.2-3.2-3.2H44.7c-1.7,0-3.2,1.4-3.2,3.2v109.6C41.6,254.6,43,256,44.7,256z"/>
		<path id="path3397" class="st4" d="M89,150.6V177c0,5.8-4.7,10.5-10.5,10.5H52.1v21.1h26.3c17.5,0,31.6-14.2,31.6-31.6v-26.4"/>
		<path id="path3399" class="st4" d="M94.3,245.5h10.5v-31.6H94.3V245.5z"/>
	</g>
</g>
</svg>
