<?xml version="1.0" encoding="utf-8"?>
<!-- Generator: Adobe Illustrator 22.0.1, SVG Export Plug-In . SVG Version: 6.00 Build 0)  -->
<svg version="1.1" xmlns="http://www.w3.org/2000/svg" xmlns:xlink="http://www.w3.org/1999/xlink" x="0px" y="0px"
	 viewBox="0 0 235.4 429.7" style="enable-background:new 0 0 235.4 429.7;" xml:space="preserve">
<style type="text/css">
	.st0{fill:none;}
	.st1{clip-path:url(#SVGID_2_);}
	.st2{fill:#154889;}
	.st3{fill:#FFFFFF;}
	.st4{fill:#231F20;}
	.st5{fill:url(#SVGID_3_);}
	.st6{filter:url(#Adobe_OpacityMaskFilter);}
	.st7{clip-path:url(#SVGID_5_);fill-opacity:0.8516;}
	.st8{mask:url(#mask5022_2_);}
	.st9{clip-path:url(#SVGID_7_);}
	.st10{fill:url(#path5070_1_);}
	.st11{opacity:0.8516;}
	.st12{display:none;}
</style>
<pattern  x="0.9" y="601" width="482" height="265" patternUnits="userSpaceOnUse" id="pattern5042" viewBox="0 -265 482 265" style="overflow:visible;">
	<g>
		<rect y="-265" class="st0" width="482" height="265"/>
		<g id="g5044_1_">
		</g>
		<g id="g5046_1_">
			<g>
				<defs>
					<rect id="SVGID_1_" y="-265" width="482" height="265"/>
				</defs>
				<clipPath id="SVGID_2_">
					<use xlink:href="#SVGID_1_"  style="overflow:visible;"/>
				</clipPath>
				<g id="g5048_1_" class="st1">
					<g id="g5050_1_">
						<path id="path5052_1_" class="st2" d="M316.2-154.3v-74.1h54.4v74.1H316.2z"/>
						<path id="path5054_1_" class="st3" d="M335.8-197.4l-9.5,7.9c4.2,5,10.5,7.9,17,7.9c6.6,0,12.8-2.9,17-7.9l-9.5-7.9
							c-1.9,2.2-4.6,3.5-7.6,3.5C340.5-193.9,337.7-195.2,335.8-197.4z"/>
						<path id="path5056_1_" class="st4" d="M338-194.9l0.4,0.2l-0.7,1.3l-0.4-0.2L338-194.9z M333.9-189.9l0.7,0.4l-0.1,0.2
							c0,0.1-0.1,0.1-0.1,0.2c0,0.2,0.2,0.4,0.4,0.4c0.2,0,0.3-0.1,0.4-0.2l0.7-1.2c0-0.1,0.1-0.1,0.1-0.2c0-0.2-0.2-0.4-0.4-0.4
							c-0.1,0-0.2,0-0.3,0.1l-0.7-0.4l1.6-2.8l2.1,1.2l-0.4,0.7l-1.5-0.8l-0.8,1.4c0.1,0,0.2,0,0.2,0c0.6,0,1,0.4,1,1
							c0,0.2,0,0.4-0.1,0.5l-0.8,1.4c-0.2,0.4-0.6,0.6-1.1,0.6c-0.7,0-1.3-0.6-1.3-1.3c0-0.2,0.1-0.4,0.2-0.6L333.9-189.9z
							 M332.6-187.2l0.1-0.3l0.4,0l0.2,0.1l-1,1.7l-0.2-0.1l0.8-1.5L332.6-187.2z M332.8-185.3l1.4-1.1l-0.5-0.3l-0.1,0.2l-0.2-0.1
							l0.3-0.5l1,0.6l-0.1,0.2l-1.4,1.1L332.8-185.3L332.8-185.3z M343.1-193.4h0.5v1.5h-0.5V-193.4z M343.4-191.4h1l-1,2.5
							c0.1,0,0.2-0.1,0.3-0.1c0.5,0,1,0.4,1,1v1.3c0,0.7-0.6,1.3-1.3,1.3s-1.3-0.6-1.3-1.3v-1.1c0-0.2,0-0.3,0.1-0.4L343.4-191.4z
							 M343-186.7c0,0.2,0.2,0.4,0.4,0.4c0.2,0,0.4-0.2,0.4-0.4v-1.1c0-0.2-0.2-0.4-0.4-0.4c-0.2,0-0.4,0.2-0.4,0.4V-186.7z
							 M342.3-184v-0.3l0.3-0.2h0.3v2h-0.3v-1.7L342.3-184z M343.5-183.5c-0.1-0.1-0.2-0.2-0.2-0.4c0-0.3,0.3-0.6,0.6-0.6
							c0.3,0,0.6,0.3,0.6,0.6c0,0.2-0.1,0.3-0.2,0.4c0.1,0.1,0.2,0.3,0.2,0.4c0,0.3-0.3,0.6-0.6,0.6s-0.6-0.3-0.6-0.6
							C343.3-183.3,343.4-183.4,343.5-183.5z M343.6-183.1c0-0.2,0.1-0.3,0.3-0.3s0.3,0.1,0.3,0.3c0,0.2-0.1,0.3-0.3,0.3
							S343.6-182.9,343.6-183.1z M343.6-183.9c0-0.2,0.1-0.3,0.3-0.3s0.3,0.1,0.3,0.3c0,0.2-0.1,0.3-0.3,0.3
							S343.6-183.8,343.6-183.9z M348.4-194.7l0.4-0.2l0.7,1.3l-0.4,0.2L348.4-194.7z M349.2-191.1l-0.7-1.3l2.2-1.3l0.4,0.7
							l1.3,5.2l-0.8,0.4l-1.3-5.2l-0.8,0.5l0.3,0.6L349.2-191.1L349.2-191.1z M352.4-186.1l-0.2-0.3l0.1-0.3l0.2-0.1l1,1.7l-0.2,0.1
							l-0.8-1.5L352.4-186.1z M354.4-185.6l-0.3,0.2l-0.1-0.9c-0.1,0.1-0.2,0.2-0.4,0.2c-0.2,0-0.3-0.1-0.4-0.2l-0.1-0.1
							c0-0.1-0.1-0.2-0.1-0.3c0-0.3,0.3-0.6,0.6-0.6c0.2,0,0.4,0.1,0.5,0.3l0,0.1c0,0.1,0.1,0.2,0.1,0.3L354.4-185.6L354.4-185.6z
							 M353.5-186.7L353.5-186.7c0.1,0.2,0.2,0.2,0.3,0.2c0.2,0,0.3-0.1,0.3-0.3c0-0.1,0-0.1,0-0.1l0-0.1c-0.1-0.1-0.1-0.1-0.2-0.1
							c-0.2,0-0.3,0.1-0.3,0.3C353.4-186.8,353.5-186.7,353.5-186.7L353.5-186.7z M345.9-193.7l0.2-0.1l0.4,1.4l-0.2,0.1
							L345.9-193.7z M350.6-196.3l0.2-0.2l1,1l-0.2,0.2L350.6-196.3z M336-196.5l0.2,0.2l-1,1.1l-0.2-0.2L336-196.5z M340.6-193.8
							l0.2,0.1l-0.4,1.4l-0.2-0.1L340.6-193.8"/>
						<path id="path5058_1_" class="st3" d="M331.3-218.6l0.9-2.5h0.3l0.9,2.5H333l-0.2-0.6h-1l-0.2,0.6H331.3z M332-219.5h0.7
							l-0.4-1.1L332-219.5z M333.8-218.6v-2.5h0.4l1.1,1.8v-1.8h0.4v2.5h-0.4l-1.1-1.8v1.8H333.8z M336.2-218.6v-2.5h0.4v1.3l1-1.3
							h0.4l-0.8,1l0.9,1.5h-0.4l-0.7-1.2l-0.4,0.5v0.8H336.2z M338.3-221.1h0.4v1.6c0,0.3,0.2,0.5,0.5,0.5c0.3,0,0.5-0.2,0.5-0.5
							v-1.6h0.4v1.6c0,0.5-0.4,0.9-0.9,0.9c-0.5,0-0.9-0.4-0.9-0.9V-221.1z M340.6-218.6v-2.5h0.4l1.1,1.8v-1.8h0.4v2.5h-0.4
							l-1.1-1.8v1.8H340.6z M343.1-218.6v-2.5h1.6v0.4h-1.2v0.7h1v0.3h-1v1.1H343.1z M345.6-218.6v-2.1h-0.7v-0.3h1.7v0.3h-0.7v2.1
							H345.6z M346.7-218.9l0.2-0.3c0.2,0.2,0.4,0.3,0.7,0.3c0.1,0,0.2,0,0.3,0c0.1,0,0.3-0.2,0.3-0.3c0-0.2-0.1-0.3-0.3-0.3
							l-0.4-0.1c-0.4,0-0.6-0.3-0.6-0.7c0-0.4,0.3-0.7,0.6-0.7c0.1,0,0.1,0,0.2,0c0.3,0,0.6,0.1,0.8,0.3l-0.2,0.3
							c-0.2-0.1-0.4-0.2-0.6-0.2c0,0-0.1,0-0.1,0c-0.2,0-0.3,0.2-0.3,0.3c0,0.2,0.1,0.3,0.3,0.3l0.4,0.1c0.4,0,0.6,0.3,0.6,0.7
							c0,0.3-0.2,0.6-0.5,0.7c-0.1,0-0.2,0-0.4,0C347.3-218.6,347-218.7,346.7-218.9L346.7-218.9z M348.9-218.6v-0.3l1.1-1.8h-1.1
							v-0.3h1.5v0.3l-1.1,1.8h1.1v0.4H348.9z M350.9-218.6v-2.5h1.6v0.4h-1.2v0.7h1v0.3h-1v0.7h1.2v0.4H350.9z M353-218.6v-2.5h0.4
							v2.5H353z M354.4-218.6v-2.1h-0.7v-0.3h1.7v0.3h-0.7v2.1H354.4"/>
						<path id="path5060_1_" class="st3" d="M343.4-196.4l-4.3-16.1h8.6L343.4-196.4"/>
						<path id="path5062_1_" class="st3" d="M334.8-159.3c-0.7,0-1.3-0.6-1.3-1.3v-17.1c0-0.7,0.6-1.3,1.3-1.3h17.1
							c0.7,0,1.3,0.6,1.3,1.3v17.1c0,0.7-0.6,1.3-1.3,1.3H334.8z M334.8-159.8h17.1c0.5,0,0.8-0.4,0.8-0.8v-17.1
							c0-0.5-0.4-0.8-0.8-0.8h-17.1c-0.5,0-0.8,0.4-0.8,0.8v17.1C334-160.1,334.4-159.8,334.8-159.8z M338.6-162.3v-13.8h5.4
							c2.3,0,4.2,1.9,4.2,4.2c0,2.3-1.9,4.2-4.2,4.2h-3.3v5.4L338.6-162.3L338.6-162.3z M340.7-169.7h3.2c1.2,0,2.2-1,2.2-2.2
							c0-1.2-1-2.2-2.2-2.2h-3.2V-169.7"/>
					</g>
				</g>
			</g>
		</g>
	</g>
</pattern>
<g id="svg3666" xmlns:cc="http://creativecommons.org/ns#" xmlns:dc="http://purl.org/dc/elements/1.1/" xmlns:rdf="http://www.w3.org/1999/02/22-rdf-syntax-ns#" xmlns:svg="http://www.w3.org/2000/svg">
	<linearGradient id="SVGID_3_" gradientUnits="userSpaceOnUse" x1="104.1892" y1="278.5083" x2="131.1892" y2="278.5083">
		<stop  offset="0" style="stop-color:#EDEBE9"/>
		<stop  offset="0" style="stop-color:#E1DEDA"/>
		<stop  offset="0" style="stop-color:#D6D1CC"/>
		<stop  offset="6.975419e-02" style="stop-color:#C7C3BE"/>
		<stop  offset="0.1461" style="stop-color:#B2AEAA"/>
		<stop  offset="0.5225" style="stop-color:#E6E6E6"/>
		<stop  offset="0.633" style="stop-color:#D9D8D7"/>
		<stop  offset="0.8443" style="stop-color:#B8B4B0"/>
		<stop  offset="0.8764" style="stop-color:#B2AEAA"/>
		<stop  offset="1" style="stop-color:#D9D9D9"/>
		<stop  offset="1" style="stop-color:#B1B1B1"/>
	</linearGradient>
	<polygon class="st5" points="131.2,429.7 124.8,423.7 118.3,429.7 110.8,423.7 104.2,429.7 104.2,127.3 131.2,127.3 	"/>
	<g id="g3674" transform="matrix(1.25,0,0,-1.25,0,601.00159)">
		<g id="g3676">
			<path id="path3678" class="st3" d="M11.8,480.6c-11.3,0-11.2-11.2-11.2-11.2V304.7c0,0,0-11.2,11.2-11.2h164.7
				c11.3,0,11.2,11.2,11.2,11.2v164.7c0,0,0.1,11.3-11.2,11.2C176.5,480.6,11.8,480.6,11.8,480.6z"/>
			<path id="path3680" class="st2" d="M11.8,476.9c-4.1,0-7.5-3.4-7.5-7.5V304.7c0-4.1,3.4-7.5,7.5-7.5h164.7c4.1,0,7.5,3.4,7.5,7.5
				v164.7c0,4.1-3.4,7.5-7.5,7.5H11.8L11.8,476.9z"/>
			<path id="path3682" d="M11.8,480.8c-5.7,0-8.6-2.9-10-5.7c-1.4-2.8-1.4-5.7-1.4-5.7V304.7c0,0,0-2.8,1.4-5.7
				c1.4-2.8,4.3-5.7,10-5.7h164.7c5.7,0,8.6,2.9,10,5.7c1.4,2.8,1.4,5.7,1.4,5.7v164.7c0,0,0,2.9-1.4,5.7c-1.4,2.9-4.3,5.7-10,5.7
				H11.8L11.8,480.8z M11.8,480.6h164.7c11.3,0,11.2-11.2,11.2-11.2V304.7c0,0,0.1-11.2-11.2-11.2H11.8c-11.3,0-11.2,11.2-11.2,11.2
				v164.7C0.6,469.4,0.5,480.7,11.8,480.6L11.8,480.6z"/>
			<path id="path3684" class="st3" d="M98.4,433.7H68.3v-41.6h30.8c7.1,0,12.5,2.2,16,6.5c3.5,4.4,5.3,9.1,5.3,14.2
				c0,7.8-2.8,13.5-8.3,17.2C108.5,432.5,104,433.7,98.4,433.7L98.4,433.7z M67.9,321.5H48l0.2,131l49.2,0.1c5,0,9.8-0.5,14.5-1.6
				c4.6-1.1,9.5-3.6,14.5-7.5c3.9-3,7.2-7.2,9.9-12.6c2.7-5.3,4.1-11.5,4.1-18.5c0-9.3-3.4-18.2-10.2-26.5
				c-6.8-8.4-16.8-12.6-29.9-12.6H68.3L67.9,321.5L67.9,321.5z"/>
		</g>
	</g>
	<g id="g4994" transform="matrix(1.25,0,0,-1.25,0,330.57625)">
		<path id="path4998" class="st3" d="M14.5,50.8c-6.7,0-12.1-5.4-12.1-12v-76.6c0-6.6,5.4-12,12.1-12h159.2c6.7,0,12.1,5.4,12.1,12
			v76.6c0,6.6-5.4,12-12.1,12C173.8,50.8,14.5,50.8,14.5,50.8z"/>
		<path id="path5000" d="M14.5-42.5h159.2c2.5,0,4.6,2,4.6,4.5v76.7c0,2.5-2,4.5-4.6,4.5H14.5c-2.5,0-4.6-2-4.6-4.5v-76.7
			C10-40.4,12-42.5,14.5-42.5z M14.7-46.8c-5,0-9.1,4.1-9.1,9.1v76.3c0,5,4.1,9.1,9.1,9.1h158.9c5,0,9.1-4.1,9.1-9.1v-76.3
			c0-5-4.1-9.1-9.1-9.1"/>
		<path id="path5002" d="M14.5,51C7.8,51,2.3,45.5,2.3,38.8v-76.6C2.3-44.5,7.8-50,14.5-50h159.2c6.7,0,12.2,5.5,12.2,12.2v76.6
			c0,6.7-5.5,12.2-12.2,12.2C173.8,51,14.5,51,14.5,51z M14.5,50.8h159.2c6.7,0,12.1-5.4,12.1-12v-76.6c0-6.6-5.4-12-12.1-12H14.5
			c-6.7,0-12.1,5.4-12.1,12v76.6C2.4,45.4,7.9,50.8,14.5,50.8L14.5,50.8z"/>
		<path id="path5004" d="M24.9,12.9v18.6h4.4c0.5,0,1.1-0.1,1.6-0.3c0.5-0.2,1-0.5,1.4-0.9c0.4-0.4,0.7-0.8,0.9-1.3
			c0.3-0.5,0.4-1,0.4-1.5v-2.7c0-0.7-0.1-1.3-0.3-1.8c-0.2-0.5-0.5-1-1-1.5c-0.5-0.5-0.9-0.8-1.5-1c-0.5-0.2-1.1-0.3-1.9-0.3h-1.4
			v-7.3L24.9,12.9L24.9,12.9z M30.5,23.3c0.2,0.2,0.3,0.3,0.3,0.5c0,0.2,0.1,0.4,0.1,0.7v2.8c0,0.5-0.2,0.9-0.5,1.3
			c-0.3,0.3-0.7,0.5-1.3,0.5h-1.6v-6.3h1.4c0.4,0,0.7,0,0.9,0.1C30,22.9,30.3,23,30.5,23.3z M35.2,14.3c-0.1,0.2-0.2,0.5-0.3,0.7
			c0,0.3-0.1,0.6-0.1,0.9v1.5c0,1,0.2,1.7,0.7,2.2c0.5,0.5,0.9,0.8,1.3,1c0.4,0.2,0.9,0.3,1.4,0.3h1.8V22c0,0.3,0,0.5,0,0.6
			c0,0.2-0.1,0.4-0.3,0.6c-0.2,0.3-0.5,0.4-0.8,0.4c-0.4,0-0.7-0.1-0.9-0.4c-0.3-0.2-0.4-0.6-0.5-1h-2.7c0,1.1,0.4,2,1.2,2.8
			c0.8,0.8,1.7,1.2,2.8,1.2c1.1,0,2-0.4,2.8-1.1c0.8-0.8,1.2-1.7,1.2-2.8v-9.5h-2.7v1.3c-0.3-0.5-0.6-0.8-1-1.1
			c-0.4-0.3-0.9-0.4-1.4-0.4C36.6,12.7,35.7,13.2,35.2,14.3z M37.6,17.5v-0.7c0-0.4,0.1-0.7,0.4-1c0.3-0.3,0.6-0.4,1-0.4
			c0.2,0,0.4,0.1,0.6,0.2c0.2,0.1,0.3,0.3,0.4,0.5c0.1,0.2,0.2,0.4,0.2,0.8c0,0.3,0,0.5,0,0.7v1.3h-1c-0.5,0-0.9-0.1-1.2-0.3
			C37.7,18.3,37.6,17.9,37.6,17.5L37.6,17.5z M51.3,26.3v-2.7c-0.1,0-0.3,0.1-0.4,0.1c-0.1,0-0.3,0-0.4,0c-0.9,0-1.5-0.3-2-0.9
			c-0.5-0.6-0.7-1.3-0.7-2.2v-7.8h-2.7v13.3h2.7v-1.4c0.5,0.6,1,1,1.7,1.2C50.3,26.2,50.8,26.3,51.3,26.3z M53,12.9v18.6h2.7V20.4
			l3.3,5.8h2.7l-3.2-5.3l3.8-8h-3L57,18.6l-1.3-2v-3.7L53,12.9L53,12.9z M67.3,15.4c0.4,0,0.7,0.1,0.9,0.4c0.2,0.2,0.4,0.6,0.4,1
			h2.7v-0.3c0-0.4-0.1-0.8-0.3-1.2c-0.2-0.4-0.5-0.9-1.1-1.5c-0.6-0.6-1.4-0.9-2.6-0.9c-0.8,0-1.5,0.2-2.1,0.6
			c-0.6,0.4-1.1,0.9-1.3,1.4c-0.2,0.5-0.4,0.9-0.5,1.3c-0.1,0.4-0.1,0.8-0.1,1.2v5.1c0,1.1,0.4,2.1,1.2,2.9c0.8,0.8,1.7,1.2,2.8,1.2
			c1.1,0,2.1-0.4,2.8-1.2c0.8-0.8,1.1-1.8,1.1-2.9v-3.7h-5.3v-2c0-0.3,0.1-0.5,0.4-0.8C66.7,15.6,67,15.4,67.3,15.4L67.3,15.4z
			 M67.4,23.7c-0.4,0-0.7-0.1-0.9-0.4c-0.3-0.2-0.4-0.7-0.4-1.3v-1.3h2.6v1.3c0,0.5-0.1,0.9-0.3,1.2C68.2,23.6,67.8,23.7,67.4,23.7z
			 M81,25c0.1-0.2,0.3-0.5,0.3-0.8c0.1-0.3,0.1-0.6,0.1-0.9V12.9h-2.7v9.4c0,1-0.4,1.5-1.3,1.5c-0.4,0-0.7-0.1-0.9-0.4
			c-0.2-0.3-0.4-0.6-0.4-1v-9.4h-2.7v13.3h2.7v-1.3c0.6,1,1.4,1.5,2.5,1.5C79.7,26.3,80.5,25.9,81,25L81,25z"/>
		<path id="path5006" d="M98.6,25.2c0.4,0.4,0.7,0.8,1.2,1s0.9,0.3,1.5,0.3c0.9,0,1.7-0.3,2.2-1c0.6-0.6,0.9-1.4,0.9-2.3V13.1h-2.7
			v9.4c0,0.4-0.1,0.8-0.3,1c-0.2,0.3-0.5,0.4-1,0.4c-0.4,0-0.7-0.1-0.9-0.4c-0.3-0.3-0.4-0.6-0.4-1v-9.4h-2.7v9.4
			c0,0.4-0.1,0.8-0.4,1c-0.2,0.3-0.6,0.4-1,0.4c-0.4,0-0.7-0.1-0.9-0.4c-0.3-0.3-0.4-0.6-0.4-1v-9.4H91v13.3h2.7v-1.2
			c0.6,0.9,1.5,1.4,2.5,1.4c0.5,0,1-0.1,1.4-0.3C98,26,98.3,25.7,98.6,25.2L98.6,25.2z M106.7,13.1v13.3h2.7V13.1H106.7z
			 M106.7,29.1v2.6h2.7v-2.6H106.7z M115.7,15.7h0.6v-2.5h-0.8c-0.5,0-0.9,0.1-1.3,0.2c-0.4,0.1-0.8,0.3-1.1,0.6
			c-0.4,0.3-0.6,0.7-0.8,1c-0.1,0.4-0.2,0.9-0.2,1.4v8h-1.3v2.1h1.3v4h2.7v-4h1.6v-2.1h-1.6v-7.5c0-0.4,0.1-0.8,0.2-0.9
			C115,15.8,115.3,15.7,115.7,15.7L115.7,15.7z"/>
		<path id="path5008" d="M150.4,13.1v13.3h2.7V13.1H150.4z M150.4,29.1v2.6h2.7v-2.6H150.4z M163,25.2c0.1-0.2,0.3-0.5,0.3-0.8
			c0.1-0.3,0.1-0.6,0.1-0.9V13.1h-2.7v9.4c0,1-0.4,1.5-1.3,1.5c-0.4,0-0.7-0.1-0.9-0.4c-0.2-0.3-0.4-0.6-0.4-1v-9.4h-2.7v13.3h2.7
			v-1.3c0.6,1,1.4,1.5,2.5,1.5C161.6,26.6,162.5,26.1,163,25.2L163,25.2z"/>
		<path id="path5010" d="M26.9-15.1c-0.4-0.6-0.8-1-1.4-1.3c-0.6-0.3-1.2-0.5-1.8-0.5c-1.1,0-2.1,0.4-2.9,1.2
			c-0.8,0.8-1.2,1.7-1.2,2.9h2.7c0-0.4,0.1-0.7,0.4-1c0.2-0.3,0.6-0.4,0.9-0.4c0.6,0,1,0.3,1.2,0.8c0.1,0.2,0.1,0.5,0.1,0.9v2.5
			c-0.3-0.4-0.6-0.8-1.1-1.1c-0.4-0.3-0.9-0.4-1.4-0.4c-0.5,0-1,0.1-1.5,0.4c-0.5,0.3-0.8,0.6-1,1c-0.2,0.4-0.3,0.7-0.3,0.9
			c0,0.2,0,0.6,0,1v7.4c0,0.3,0,0.6,0.1,0.9c0.1,0.3,0.3,0.7,0.7,1.2c0.4,0.5,1,0.8,2,0.8c0.5,0,1-0.1,1.4-0.4
			c0.4-0.3,0.8-0.6,1.1-1v1.2h2.7v-14.4c0-0.5,0-1-0.1-1.4C27.3-14.3,27.2-14.7,26.9-15.1L26.9-15.1z M24.6-1.1
			c-0.3,0.4-0.6,0.6-1.1,0.6c-0.5,0-0.9-0.2-1-0.5c-0.2-0.3-0.2-0.5-0.3-0.7c0-0.2,0-0.3,0-0.5v-5.1c0-0.3,0-0.5,0-0.6
			c0-0.2,0.1-0.4,0.3-0.6c0.2-0.3,0.5-0.4,1-0.4c0.6,0,0.9,0.2,1.1,0.5c0.1,0.3,0.2,0.6,0.2,0.7c0,0.2,0,0.3,0,0.4v5.1
			c0,0.3,0,0.5,0,0.6C24.8-1.4,24.7-1.3,24.6-1.1z M33.6-8.9c0.4,0,0.7,0.1,0.9,0.4C34.8-8.3,34.9-8,35-7.6h2.7v-0.3
			c0-0.4-0.1-0.8-0.3-1.2c-0.2-0.4-0.5-0.9-1.1-1.5c-0.6-0.6-1.4-0.9-2.6-0.9c-0.8,0-1.5,0.2-2.1,0.6c-0.6,0.4-1.1,0.9-1.3,1.4
			c-0.2,0.5-0.4,0.9-0.5,1.3c-0.1,0.4-0.1,0.8-0.1,1.2v5.1c0,1.1,0.4,2.1,1.2,2.9C31.7,1.6,32.6,2,33.7,2c1.1,0,2.1-0.4,2.8-1.2
			c0.8-0.8,1.1-1.8,1.1-2.9v-3.7h-5.3v-2c0-0.3,0.1-0.5,0.4-0.8C33-8.8,33.3-8.9,33.6-8.9z M33.7-0.6c-0.4,0-0.7-0.1-0.9-0.4
			c-0.3-0.2-0.4-0.7-0.4-1.3v-1.3H35v1.3c0,0.5-0.1,0.9-0.3,1.2C34.5-0.8,34.1-0.6,33.7-0.6z M39.8-11.5V7.2h2.7V-3.9l3.3,5.8h2.7
			l-3.2-5.3l3.8-8h-3l-2.3,5.7l-1.3-2v-3.7C42.4-11.5,39.8-11.5,39.8-11.5z M54.1-8.9c0.4,0,0.7,0.1,0.9,0.4
			c0.2,0.2,0.4,0.6,0.4,0.9h2.7v-0.3c0-0.4-0.1-0.8-0.3-1.2c-0.2-0.4-0.5-0.9-1.1-1.5c-0.6-0.6-1.4-0.9-2.6-0.9
			c-0.8,0-1.5,0.2-2.1,0.6c-0.6,0.4-1.1,0.9-1.3,1.4c-0.2,0.5-0.4,0.9-0.5,1.3c-0.1,0.4-0.1,0.8-0.1,1.2v5.1c0,1.1,0.4,2.1,1.2,2.9
			C52.2,1.6,53.1,2,54.2,2c1.1,0,2.1-0.4,2.8-1.2c0.8-0.8,1.1-1.8,1.1-2.9v-3.7h-5.3v-2c0-0.3,0.1-0.5,0.4-0.8
			C53.5-8.8,53.8-8.9,54.1-8.9L54.1-8.9z M54.2-0.6c-0.4,0-0.7-0.1-0.9-0.4c-0.3-0.2-0.4-0.7-0.4-1.3v-1.3h2.6v1.3
			c0,0.5-0.1,0.9-0.3,1.2C55-0.8,54.6-0.6,54.2-0.6z M67.8,0.6c0.1-0.2,0.3-0.5,0.3-0.8c0.1-0.3,0.1-0.6,0.1-0.9v-10.3h-2.7v9.4
			c0,1-0.4,1.5-1.3,1.5c-0.4,0-0.7-0.1-0.9-0.4c-0.2-0.3-0.4-0.6-0.4-1v-9.4h-2.7V1.8h2.7V0.6c0.6,1,1.4,1.5,2.5,1.5
			C66.5,2,67.3,1.5,67.8,0.6L67.8,0.6z M78.1,0.6c0.1-0.2,0.3-0.5,0.3-0.8c0.1-0.3,0.1-0.6,0.1-0.9v-10.3h-2.7v9.4
			c0,1-0.4,1.5-1.3,1.5c-0.4,0-0.7-0.1-0.9-0.4c-0.2-0.3-0.4-0.6-0.4-1v-9.4h-2.7V1.8h2.7V0.6c0.6,1,1.4,1.5,2.5,1.5
			C76.8,2,77.6,1.5,78.1,0.6L78.1,0.6z M80.3-11.5v2.2l4.3,8.8h-4v2.3h7v-1.9l-4.3-8.8h4.3v-2.5C87.6-11.5,80.3-11.5,80.3-11.5z
			 M93.1-8.9c0.4,0,0.7,0.1,0.9,0.4c0.2,0.2,0.4,0.6,0.4,0.9h2.7v-0.3c0-0.4-0.1-0.8-0.3-1.2c-0.2-0.4-0.5-0.9-1.1-1.5
			c-0.6-0.6-1.4-0.9-2.6-0.9c-0.8,0-1.5,0.2-2.1,0.6c-0.6,0.4-1.1,0.9-1.3,1.4c-0.2,0.5-0.4,0.9-0.5,1.3c-0.1,0.4-0.1,0.8-0.1,1.2
			v5.1c0,1.1,0.4,2.1,1.2,2.9C91.1,1.6,92.1,2,93.2,2c1.1,0,2.1-0.4,2.8-1.2c0.8-0.8,1.1-1.8,1.1-2.9v-3.7h-5.3v-2
			c0-0.3,0.1-0.5,0.4-0.8C92.5-8.8,92.8-8.9,93.1-8.9L93.1-8.9z M93.1-0.6c-0.4,0-0.7-0.1-0.9-0.4c-0.3-0.2-0.4-0.7-0.4-1.3v-1.3
			h2.6v1.3c0,0.5-0.1,0.9-0.3,1.2C93.9-0.8,93.6-0.6,93.1-0.6L93.1-0.6z M99.2-11.5V1.8h2.7v-13.3H99.2L99.2-11.5z M99.2,4.5v2.6
			h2.7V4.5H99.2L99.2,4.5z M112-7.6c0-1.1-0.4-2-1.2-2.8c-0.8-0.8-1.8-1.2-2.8-1.2c-0.6,0-1.2,0.2-1.8,0.5c-0.6,0.3-1,0.7-1.3,1.1
			c-0.3,0.4-0.5,0.9-0.6,1.3c-0.1,0.4-0.2,0.9-0.2,1.4v5.2c0,1.1,0.4,2.1,1.1,2.9C106,1.6,106.9,2,108,2c1.2,0,2.1-0.4,2.9-1.2
			c0.8-0.8,1.1-1.8,1.1-3h-2.7c0,0.4-0.1,0.8-0.3,1.1c-0.2,0.3-0.6,0.5-1,0.5c-0.2,0-0.5-0.1-0.6-0.2c-0.2-0.1-0.3-0.3-0.5-0.5
			c-0.1-0.2-0.2-0.5-0.2-0.9v-5.2c0-0.5,0.1-0.9,0.3-1.1c0.2-0.3,0.5-0.4,1-0.4c0.4,0,0.7,0.1,0.9,0.4c0.2,0.3,0.3,0.6,0.3,1h2.7
			L112-7.6L112-7.6z M119.1,2c0.5,0,0.9-0.1,1.4-0.4c0.4-0.3,0.7-0.6,0.9-0.9c0.2-0.3,0.3-0.6,0.3-0.9s0.1-0.6,0.1-0.9v-10.3h-2.7
			v9.3c0,0.4-0.1,0.8-0.3,1.1c-0.2,0.3-0.5,0.4-1,0.4c-0.4,0-0.7-0.2-1-0.5c-0.3-0.3-0.4-0.7-0.4-1v-9.3h-2.7V7.2h2.7V0.6
			C117.2,1.5,118,2,119.1,2L119.1,2z M131.8,0.6c0.2-0.2,0.3-0.5,0.3-0.8c0.1-0.3,0.1-0.6,0.1-0.9v-10.3h-2.7v9.4
			c0,1-0.4,1.5-1.3,1.5c-0.4,0-0.7-0.1-0.9-0.4c-0.2-0.3-0.4-0.6-0.4-1v-9.4h-2.7V1.8h2.7V0.6c0.6,1,1.4,1.5,2.5,1.5
			C130.4,2,131.2,1.5,131.8,0.6z M138.2-8.9c0.4,0,0.7,0.1,0.9,0.4c0.2,0.2,0.4,0.6,0.4,0.9h2.7v-0.3c0-0.4-0.1-0.8-0.3-1.2
			c-0.2-0.4-0.5-0.9-1.1-1.5c-0.6-0.6-1.4-0.9-2.6-0.9c-0.8,0-1.5,0.2-2.1,0.6c-0.6,0.4-1.1,0.9-1.3,1.4c-0.2,0.5-0.4,0.9-0.5,1.3
			c-0.1,0.4-0.1,0.8-0.1,1.2v5.1c0,1.1,0.4,2.1,1.2,2.9c0.8,0.8,1.7,1.2,2.8,1.2c1.1,0,2.1-0.4,2.8-1.2c0.8-0.8,1.1-1.8,1.1-2.9
			v-3.7H137v-2c0-0.3,0.1-0.5,0.4-0.8C137.7-8.8,137.9-8.9,138.2-8.9L138.2-8.9z M138.3-0.6c-0.4,0-0.7-0.1-0.9-0.4
			c-0.3-0.2-0.4-0.7-0.4-1.3v-1.3h2.6v1.3c0,0.5-0.1,0.9-0.3,1.2C139.1-0.8,138.8-0.6,138.3-0.6z M148.4-8.9h0.6v-2.5h-0.8
			c-0.5,0-1,0.1-1.3,0.2c-0.4,0.1-0.8,0.3-1.1,0.6c-0.4,0.3-0.6,0.7-0.8,1c-0.1,0.4-0.2,0.9-0.2,1.4v8h-1.3v2.1h1.3v4h2.7v-4h1.6
			v-2.1h-1.6v-7.5c0-0.4,0.1-0.8,0.2-0.9C147.7-8.8,147.9-8.9,148.4-8.9z M154.7-8.9c0.4,0,0.7,0.1,1,0.4c0.2,0.2,0.4,0.6,0.4,0.9
			h2.7v-0.3c0-0.4-0.1-0.8-0.3-1.2c-0.2-0.4-0.5-0.9-1.1-1.5c-0.6-0.6-1.4-0.9-2.6-0.9c-0.8,0-1.5,0.2-2.1,0.6
			c-0.6,0.4-1.1,0.9-1.3,1.4c-0.2,0.5-0.4,0.9-0.5,1.3c-0.1,0.4-0.1,0.8-0.1,1.2v5.1c0,1.1,0.4,2.1,1.2,2.9c0.8,0.8,1.7,1.2,2.8,1.2
			c1.1,0,2.1-0.4,2.8-1.2c0.8-0.8,1.1-1.8,1.1-2.9v-3.7h-5.3v-2c0-0.3,0.1-0.5,0.4-0.8C154.1-8.8,154.4-8.9,154.7-8.9L154.7-8.9z
			 M154.8-0.6c-0.4,0-0.7-0.1-0.9-0.4c-0.3-0.2-0.4-0.7-0.4-1.3v-1.3h2.6v1.3c0,0.5-0.1,0.9-0.3,1.2C155.6-0.8,155.2-0.6,154.8-0.6
			L154.8-0.6z M168.4,0.6c0.1-0.2,0.3-0.5,0.3-0.8c0.1-0.3,0.1-0.6,0.1-0.9v-10.3h-2.7v9.4c0,1-0.4,1.5-1.3,1.5
			c-0.4,0-0.7-0.1-0.9-0.4c-0.2-0.3-0.4-0.6-0.4-1v-9.4h-2.7V1.8h2.7V0.6c0.6,1,1.4,1.5,2.5,1.5C167.1,2,167.9,1.5,168.4,0.6
			L168.4,0.6z"/>
		<path id="path5012" d="M33.8-36v18.6h7.9v-2.5h-5.3v-5.6h4.7v-2.5h-4.7v-8C36.5-36,33.8-36,33.8-36z M46.5-17.3v-14.8
			c0-0.4,0.1-0.8,0.2-1c0.1-0.2,0.4-0.3,0.9-0.3h0.2V-36h-0.6c-0.4,0-0.8,0-1.2,0.1c-0.4,0.1-0.7,0.3-1.1,0.6
			c-0.4,0.3-0.6,0.7-0.8,1.1c-0.2,0.5-0.3,0.9-0.3,1.5v15.3C43.8-17.3,46.5-17.3,46.5-17.3z M49.5-34.6c-0.1,0.2-0.2,0.5-0.3,0.7
			c0,0.3-0.1,0.6-0.1,0.9v1.5c0,1,0.2,1.7,0.7,2.2c0.5,0.5,0.9,0.8,1.3,1c0.4,0.2,0.9,0.3,1.4,0.3h1.8v1.1c0,0.3,0,0.5,0,0.6
			c0,0.2-0.1,0.4-0.3,0.6c-0.2,0.3-0.5,0.4-0.8,0.4c-0.4,0-0.7-0.1-1-0.4c-0.3-0.2-0.4-0.6-0.5-0.9h-2.7c0,1.1,0.4,2,1.2,2.8
			c0.8,0.8,1.7,1.2,2.8,1.2c1.1,0,2-0.4,2.8-1.1c0.8-0.8,1.2-1.7,1.2-2.8V-36h-2.7v1.3c-0.3-0.5-0.6-0.8-1-1.1
			C53-36,52.6-36.1,52-36.1C50.9-36.1,50-35.6,49.5-34.6z M51.9-31.4v-0.7c0-0.4,0.1-0.7,0.4-1c0.3-0.3,0.6-0.4,1-0.4
			c0.2,0,0.4,0.1,0.6,0.2c0.2,0.1,0.3,0.3,0.4,0.5c0.1,0.2,0.2,0.4,0.2,0.8c0,0.3,0,0.5,0,0.7v1.3h-1c-0.5,0-0.9-0.1-1.2-0.3
			C52-30.6,51.9-30.9,51.9-31.4z M54.7-20.2v3.1h2.3v-3.1H54.7z M49.7-20.2v3.1H52v-3.1H49.7z M67.3-32.1c0-1.1-0.4-2-1.2-2.8
			c-0.8-0.8-1.8-1.2-2.8-1.2c-0.6,0-1.2,0.2-1.8,0.5s-1,0.7-1.3,1.1c-0.3,0.4-0.5,0.9-0.6,1.3c-0.1,0.4-0.2,0.9-0.2,1.4v5.2
			c0,1.1,0.4,2.1,1.1,2.9c0.8,0.8,1.7,1.3,2.8,1.3c1.2,0,2.1-0.4,2.9-1.2c0.8-0.8,1.1-1.8,1.1-3h-2.7c0,0.4-0.1,0.8-0.3,1.1
			c-0.2,0.3-0.6,0.5-1,0.5c-0.2,0-0.5-0.1-0.6-0.2c-0.2-0.1-0.3-0.3-0.5-0.5C62.1-26,62-26.3,62-26.7v-5.2c0-0.5,0.1-0.9,0.3-1.1
			c0.2-0.3,0.5-0.4,1-0.4c0.4,0,0.7,0.1,0.9,0.4c0.2,0.3,0.3,0.6,0.3,1h2.7V-32.1L67.3-32.1z M74.4-22.5c0.5,0,0.9-0.1,1.4-0.4
			c0.4-0.3,0.7-0.6,0.9-0.9c0.2-0.3,0.3-0.6,0.3-0.9c0-0.2,0.1-0.6,0.1-0.9V-36h-2.7v9.3c0,0.4-0.1,0.8-0.3,1.1
			c-0.2,0.3-0.5,0.4-1,0.4c-0.4,0-0.7-0.2-1-0.5c-0.3-0.3-0.4-0.7-0.4-1V-36h-2.7v18.6h2.7V-24C72.4-23,73.3-22.5,74.4-22.5z
			 M83.2-33.4c0.4,0,0.7,0.1,0.9,0.4c0.2,0.2,0.4,0.6,0.4,0.9h2.7v-0.3c0-0.4-0.1-0.8-0.3-1.2c-0.2-0.4-0.5-0.9-1.1-1.6
			c-0.6-0.6-1.4-0.9-2.6-0.9c-0.8,0-1.5,0.2-2.1,0.6c-0.6,0.4-1.1,0.9-1.3,1.4c-0.2,0.5-0.4,0.9-0.5,1.3c-0.1,0.4-0.1,0.8-0.1,1.2
			v5.1c0,1.1,0.4,2.1,1.2,2.9c0.8,0.8,1.7,1.2,2.8,1.2c1.1,0,2.1-0.4,2.8-1.2c0.8-0.8,1.1-1.8,1.1-2.9v-3.7h-5.3v-2
			c0-0.3,0.1-0.5,0.4-0.8C82.6-33.3,82.9-33.4,83.2-33.4L83.2-33.4z M83.2-25.1c-0.4,0-0.7-0.1-0.9-0.4c-0.3-0.2-0.4-0.7-0.4-1.3
			v-1.3h2.6v1.3c0,0.5-0.1,0.9-0.3,1.2C84-25.3,83.7-25.1,83.2-25.1z M96.9-23.9c0.1-0.2,0.3-0.5,0.3-0.8c0.1-0.3,0.1-0.6,0.1-0.9
			V-36h-2.7v9.4c0,1-0.4,1.5-1.3,1.5c-0.4,0-0.7-0.1-0.9-0.4c-0.2-0.3-0.4-0.6-0.4-1V-36h-2.7v13.3H92V-24c0.6,1,1.4,1.5,2.5,1.5
			C95.5-22.5,96.4-23,96.9-23.9L96.9-23.9z M117.3-36h-7.9v2.5l4.9,9.6c0.2,0.4,0.3,0.9,0.3,1.4v1.4c0,0.4-0.1,0.7-0.4,1
			c-0.3,0.3-0.6,0.4-0.9,0.4c-0.3,0-0.6-0.1-0.9-0.3c-0.3-0.2-0.4-0.5-0.4-0.9v-1.6h-2.7v1.3c0,0.7,0.3,1.6,0.8,2.6
			c0.5,1,1.7,1.5,3.3,1.5c1,0,1.9-0.4,2.7-1.2c0.8-0.8,1.1-1.7,1.1-2.8v-1.7c0-0.4-0.1-0.8-0.2-1.1c-0.1-0.4-0.3-0.8-0.5-1.1
			l-4.2-8.2h4.8C117.3-33.3,117.3-36,117.3-36z M126.4-31.3c0-0.4,0-0.6,0-0.8c0-0.2,0.2-0.4,0.4-0.8c0.3-0.4,0.7-0.5,1.4-0.5
			c0.4,0,0.7,0.1,1,0.2c0.3,0.2,0.5,0.4,0.7,0.6c0.1,0.3,0.2,0.5,0.2,0.8c0,0.3,0,0.5,0,0.5v1.3c0,0.4,0,0.7,0,0.8
			c0,0.2-0.1,0.4-0.3,0.6c-0.2,0.2-0.5,0.4-0.8,0.6c-0.4,0.2-1,0.4-1.9,0.8c-0.9,0.3-1.7,0.9-2.3,1.6c-0.6,0.7-0.9,1.7-0.9,2.9v0.8
			c0,1.3,0.4,2.4,1.3,3.3s1.9,1.4,3.2,1.4c1.3,0,2.4-0.5,3.2-1.4c0.9-0.9,1.3-2,1.3-3.3v-0.8h-2.7v0.8c0,0.3,0,0.5-0.1,0.7
			c0,0.2-0.2,0.5-0.4,0.8c-0.3,0.4-0.7,0.5-1.3,0.5c-0.5,0-1-0.2-1.3-0.6c-0.3-0.4-0.5-0.9-0.5-1.4v-0.8c0-0.4,0-0.6,0-0.8
			c0-0.2,0.1-0.3,0.3-0.5c0.2-0.2,0.4-0.4,0.7-0.5c0.3-0.1,0.9-0.4,1.8-0.7c0.9-0.3,1.7-0.9,2.4-1.6c0.7-0.7,1-1.7,1-3v-1.5
			c0-0.6-0.1-1.2-0.2-1.6c-0.1-0.5-0.5-1.1-1.1-1.9c-0.6-0.8-1.7-1.2-3.3-1.2c-1.6,0-2.8,0.5-3.5,1.6c-0.7,1.1-1.1,2.1-1.1,3.2v0.7
			h2.7L126.4-31.3L126.4-31.3z M139-33.4h0.6V-36h-0.8c-0.5,0-0.9,0.1-1.3,0.2c-0.4,0.1-0.8,0.3-1.1,0.6c-0.4,0.3-0.6,0.7-0.8,1
			c-0.1,0.4-0.2,0.9-0.2,1.4v8h-1.3v2.1h1.3v4h2.7v-4h1.6v-2.1h-1.6v-7.5c0-0.4,0.1-0.8,0.2-0.9C138.2-33.3,138.5-33.4,139-33.4
			L139-33.4z M146.8-36v1.4c-0.3-0.4-0.6-0.8-1-1.1c-0.4-0.3-0.9-0.4-1.4-0.4c-1.2,0-2,0.3-2.3,1c-0.3,0.7-0.5,1.1-0.5,1.4
			c0,0.3,0,0.7,0,1.2v7.2c0,0.8,0.3,1.5,0.8,2c0.5,0.6,1.2,0.8,2,0.8c0.5,0,1-0.1,1.4-0.4c0.4-0.3,0.8-0.6,1-1v6.6h2.7V-36H146.8z
			 M146.6-25.8c-0.3,0.4-0.6,0.7-1.1,0.7c-0.3,0-0.5-0.1-0.7-0.2c-0.2-0.1-0.4-0.3-0.4-0.5c-0.1-0.2-0.1-0.4-0.1-0.6
			c0-0.2,0-0.4,0-0.5v-4.8c0-0.2,0-0.4,0-0.6c0-0.2,0.1-0.4,0.3-0.7c0.2-0.3,0.5-0.4,1-0.4c0.5,0,0.9,0.1,1.1,0.4
			c0.2,0.3,0.3,0.6,0.3,0.9v5.2c0,0.2,0,0.4,0,0.6C146.8-26.1,146.7-26,146.6-25.8z M151.9-36v2.7h2.7V-36H151.9z"/>
		<g id="g5014">
			<g id="g5016">
			</g>
			<defs>
				<filter id="Adobe_OpacityMaskFilter" filterUnits="userSpaceOnUse" x="2.3" y="-51" width="183.7" height="100.9">
					<feColorMatrix  type="matrix" values="1 0 0 0 0  0 1 0 0 0  0 0 1 0 0  0 0 0 1 0"/>
				</filter>
			</defs>
			<mask maskUnits="userSpaceOnUse" x="2.3" y="-51" width="183.7" height="100.9" id="mask5022_2_">
				<g id="g5024_2_" class="st6">
					<g>
						<defs>
							<rect id="SVGID_4_" x="-16.1" y="-39.9" width="183.7" height="100.9"/>
						</defs>
						<clipPath id="SVGID_5_">
							<use xlink:href="#SVGID_4_"  style="overflow:visible;"/>
						</clipPath>
						<g id="g5026_2_">
							<path id="path5028_3_" class="st7" d="M2.3,51h147v-80.8H2.3V51z"/>
						</g>
					</g>
				</g>
			</mask>
			<g id="g5030" class="st8">
				<g id="g5032">
				</g>
				<g id="g5064">
					<g>
						<defs>
							<rect id="SVGID_6_" x="-20.7" y="-62.6" width="229.6" height="126.2"/>
						</defs>
						<clipPath id="SVGID_7_">
							<use xlink:href="#SVGID_6_"  style="overflow:visible;"/>
						</clipPath>
						<g id="g5066" class="st9">
							<g id="g5068">
								<pattern  id="path5070_1_" xlink:href="#pattern5042" patternTransform="matrix(0.4771 0 0 0.4771 -3799.6223 -4545.0601)">
								</pattern>
								<path id="path5070" class="st10" d="M2.3-50H186V51H2.3V-50z"/>
							</g>
						</g>
					</g>
				</g>
			</g>
		</g>
		<g id="g2826" transform="matrix(0.08495609,0,0,0.08495609,316.11089,153.71608)" class="st11">
			<g id="g3657" transform="matrix(2.0525389,0,0,2.0525389,-1.0523742,-1.0523742)">
				<path id="path2834" class="st2" d="M-1107-830.9v162.3h119v-162.3C-988-830.9-1107-830.9-1107-830.9z"/>
				<path id="path2830" class="st3" d="M-1064.1-736.6l-20.7-17.4c9.3-11,22.9-17.4,37.3-17.4c14.4,0,28.1,6.4,37.3,17.4l-20.7,17.4
					c-4.1-4.9-10.2-7.7-16.6-7.7C-1053.9-744.3-1060-741.5-1064.1-736.6z"/>
				<path id="path2832" class="st4" d="M-1059.3-742.1l0.9-0.5l-1.6-2.8l-0.9,0.5C-1060.9-744.9-1059.3-742.1-1059.3-742.1z
					 M-1068.3-753.2l1.6-0.9l-0.3-0.5c-0.1-0.1-0.1-0.3-0.1-0.5c0-0.5,0.4-0.9,0.9-0.9c0.3,0,0.6,0.2,0.8,0.5l1.6,2.7
					c0.1,0.1,0.1,0.3,0.1,0.5c0,0.5-0.4,0.9-0.9,0.9c-0.3,0-0.5-0.1-0.7-0.3l-1.4,0.8l3.5,6l4.6-2.7l-0.9-1.5l-3.2,1.9l-1.7-3
					c0.2,0,0.3,0.1,0.5,0.1c1.2,0,2.2-1,2.2-2.2c0-0.4-0.1-0.8-0.3-1.1l-1.7-3c-0.5-0.9-1.4-1.4-2.4-1.4c-1.5,0-2.8,1.2-2.8,2.8
					c0,0.5,0.1,1,0.4,1.4C-1068.6-753.7-1068.3-753.2-1068.3-753.2z M-1071.2-759.1l0.3,0.6l0.8,0.1l0.5-0.3l-2.2-3.7l-0.5,0.3
					l1.8,3.2C-1070.4-759-1071.2-759.1-1071.2-759.1z M-1070.6-763.1l3.1,2.5l-1,0.6l-0.3-0.5l-0.5,0.3l0.6,1.1l2.1-1.2l-0.3-0.5
					l-3.1-2.5C-1070-763.4-1070.6-763.1-1070.6-763.1z M-1048-745.4h1.1v-3.2h-1.1V-745.4z M-1047.5-749.8h2.1l-2.1-5.5
					c0.2,0.1,0.5,0.1,0.7,0.1c1.2,0,2.1-0.9,2.1-2.1l0-2.9c0-1.5-1.2-2.8-2.8-2.8s-2.8,1.2-2.8,2.8v2.4c0,0.3,0.1,0.7,0.2,1
					L-1047.5-749.8L-1047.5-749.8z M-1048.4-760.1c0-0.5,0.4-0.9,0.9-0.9s0.9,0.4,0.9,0.9v2.4c0,0.5-0.4,0.9-0.9,0.9
					s-0.9-0.4-0.9-0.9V-760.1z M-1049.9-766v0.7l0.6,0.5h0.6v-4.3h-0.6v3.7L-1049.9-766z M-1047.2-767c-0.3,0.2-0.4,0.5-0.4,0.9l0,0
					c0,0.7,0.6,1.2,1.2,1.2c0.7,0,1.2-0.6,1.2-1.2l0,0c0-0.3-0.2-0.7-0.4-0.9l0,0c0.3-0.2,0.5-0.6,0.5-1l0,0c0-0.7-0.6-1.3-1.3-1.3
					c-0.7,0-1.3,0.6-1.3,1.3C-1047.7-767.6-1047.5-767.2-1047.2-767z M-1047.1-768c0,0.4,0.3,0.7,0.7,0.7c0.4,0,0.7-0.3,0.7-0.7
					c0-0.4-0.3-0.7-0.7-0.7C-1046.8-768.7-1047.1-768.3-1047.1-768z M-1047-766.1c0,0.3,0.3,0.6,0.6,0.6c0.3,0,0.6-0.3,0.6-0.6
					s-0.3-0.6-0.6-0.6C-1046.7-766.7-1047-766.4-1047-766.1z M-1036.6-742.7l0.9,0.5l1.6-2.8l-0.9-0.5
					C-1035-745.5-1036.6-742.7-1036.6-742.7z M-1034.8-750.3l-1.6,2.8l4.8,2.8l0.9-1.5l2.9-11.3l-1.7-1l-2.8,11.4l-1.8-1l0.8-1.3
					L-1034.8-750.3z M-1027.8-761.4l-0.3,0.6l0.3,0.7l0.5,0.3l2.2-3.7l-0.5-0.3l-1.8,3.2C-1027.5-760.7-1027.8-761.4-1027.8-761.4z
					 M-1023.4-762.5l-0.6-0.3l-0.1,2.1c-0.2-0.2-0.5-0.4-0.8-0.4c-0.4,0-0.7,0.2-0.9,0.5l-0.2,0.3c-0.1,0.2-0.2,0.4-0.2,0.6
					c0,0.7,0.6,1.2,1.2,1.2c0.4,0,0.8-0.2,1.1-0.6l0.1-0.2c0.1-0.2,0.2-0.3,0.2-0.5C-1023.5-759.8-1023.4-762.5-1023.4-762.5z
					 M-1025.4-760.1l0.1-0.2c0.1-0.2,0.3-0.3,0.5-0.3c0.3,0,0.6,0.3,0.6,0.6c0,0.1,0,0.2-0.1,0.3l-0.1,0.2c-0.1,0.2-0.3,0.3-0.5,0.3
					c-0.3,0-0.6-0.3-0.6-0.6C-1025.5-759.9-1025.4-760-1025.4-760.1z M-1041.9-744.7l0.5,0.1l0.8-3.1l-0.5-0.1
					C-1041-747.9-1041.9-744.7-1041.9-744.7z M-1031.6-739l0.4,0.4l2.3-2.3l-0.4-0.4L-1031.6-739z M-1063.7-738.6l0.4-0.4l-2.3-2.3
					l-0.4,0.4L-1063.7-738.6z M-1053.6-744.6l0.5-0.1l-0.8-3.1l-0.5,0.1L-1053.6-744.6"/>
				<path id="path2836" class="st3" d="M-1074-690.2l2,5.4h0.7l2-5.4h-0.9l-0.4,1.2h-2.1l-0.4-1.2
					C-1073.1-690.2-1074-690.2-1074-690.2z M-1072.5-688.3h1.6l-0.8,2.4L-1072.5-688.3z M-1068.6-690.2v5.4h0.8l2.5-3.9v3.9h0.8
					v-5.4h-0.8l-2.5,3.9v-3.9H-1068.6z M-1063.3-690.2v5.4h0.8v-2.8l2.3,2.8h1l-1.7-2.1l1.9-3.3h-1l-1.5,2.7l-1-1v-1.6H-1063.3z
					 M-1058.5-684.8h0.8v-3.5c0-0.6,0.5-1.1,1.1-1.1c0.6,0,1.1,0.5,1.1,1.1v3.5h0.8v-3.5c0-1.1-0.9-1.9-1.9-1.9
					c-1.1,0-1.9,0.9-1.9,1.9C-1058.5-688.4-1058.5-684.8-1058.5-684.8z M-1053.5-690.2v5.4h0.8l2.5-3.9v3.9h0.8v-5.4h-0.8l-2.5,3.9
					v-3.9C-1052.7-690.2-1053.5-690.2-1053.5-690.2z M-1048.2-690.2v5.4h3.5v-0.8h-2.7v-1.6h2.3v-0.7h-2.3v-2.3
					C-1047.4-690.2-1048.2-690.2-1048.2-690.2z M-1042.7-690.2v4.7h-1.5v0.7h3.8v-0.7h-1.5v-4.7
					C-1041.9-690.2-1042.7-690.2-1042.7-690.2z M-1040.1-689.5l0.5,0.6c0.4-0.4,0.9-0.5,1.5-0.5c0.2,0,0.4,0,0.6,0.1l0,0
					c0.3,0.1,0.5,0.4,0.5,0.7c0,0.4-0.3,0.7-0.6,0.7l-0.9,0.1c-0.8,0.1-1.3,0.8-1.3,1.5c0,0.8,0.6,1.4,1.4,1.5l0,0
					c0.1,0,0.3,0,0.4,0c0.6,0,1.3-0.2,1.8-0.6l-0.5-0.7c-0.4,0.3-0.8,0.4-1.3,0.4c-0.1,0-0.2,0-0.3,0l0,0c-0.4,0-0.6-0.4-0.6-0.7
					c0-0.4,0.3-0.7,0.6-0.7l0.9-0.1c0.8-0.1,1.3-0.8,1.3-1.5c0-0.7-0.5-1.3-1.2-1.5l0,0c-0.2-0.1-0.5-0.1-0.8-0.1
					C-1038.8-690.3-1039.6-690-1040.1-689.5z M-1035.5-690.2v0.7l2.5,4h-2.4v0.7h3.4v-0.6l-2.5-4h2.5v-0.8
					C-1032-690.2-1035.5-690.2-1035.5-690.2z M-1030.9-690.2v5.4h3.5v-0.8h-2.7v-1.5h2.3v-0.7h-2.3v-1.6h2.7v-0.8
					C-1027.5-690.2-1030.9-690.2-1030.9-690.2z M-1026.4-690.2v5.4h0.8v-5.4H-1026.4z M-1023.3-690.2v4.7h-1.5v0.7h3.8v-0.7h-1.5
					v-4.7H-1023.3"/>
				<path id="path2838" class="st3" d="M-1047.5-738.9l-9.4,35.2h18.8L-1047.5-738.9"/>
				<path id="path2840" class="st3" d="M-1066.2-820.1c-1.6,0-2.9,1.3-2.9,2.9v37.5c0,1.6,1.3,2.9,2.9,2.9h37.5
					c1.6,0,2.9-1.3,2.9-2.9v-37.5c0-1.6-1.3-2.9-2.9-2.9C-1028.7-820.1-1066.2-820.1-1066.2-820.1z M-1066.2-819h37.5
					c1,0,1.8,0.8,1.8,1.8v37.5c0,1-0.8,1.8-1.8,1.8h-37.5c-1,0-1.8-0.8-1.8-1.8v-37.5C-1068-818.2-1067.2-819-1066.2-819z
					 M-1057.9-813.6v30.3h11.9c5.1,0,9.2-4.1,9.2-9.2c0-5.1-4.1-9.2-9.2-9.2h-7.3v-11.9C-1053.4-813.6-1057.9-813.6-1057.9-813.6z
					 M-1053.4-797.4h7c2.7,0,4.9,2.2,4.9,4.9c0,2.7-2.2,4.9-4.9,4.9h-7V-797.4"/>
			</g>
		</g>
	</g>
</g>
<g id="Layer_2" class="st12">
</g>
</svg>
