<?xml version="1.0" encoding="utf-8"?>
<!-- Generator: Adobe Illustrator 22.0.1, SVG Export Plug-In . SVG Version: 6.00 Build 0)  -->
<svg version="1.1" xmlns="http://www.w3.org/2000/svg" xmlns:xlink="http://www.w3.org/1999/xlink" x="0px" y="0px"
	 viewBox="0 0 235.4 429.7" style="enable-background:new 0 0 235.4 429.7;" xml:space="preserve">
<style type="text/css">
	.st0{fill:url(#SVGID_1_);}
	.st1{fill:#FFFFFF;}
	.st2{fill:#154889;}
	.st3{clip-path:url(#SVGID_3_);}
</style>
<g id="svg3666" xmlns:cc="http://creativecommons.org/ns#" xmlns:dc="http://purl.org/dc/elements/1.1/" xmlns:rdf="http://www.w3.org/1999/02/22-rdf-syntax-ns#" xmlns:svg="http://www.w3.org/2000/svg">
	<linearGradient id="SVGID_1_" gradientUnits="userSpaceOnUse" x1="104.1892" y1="278.5083" x2="131.1892" y2="278.5083">
		<stop  offset="0" style="stop-color:#EDEBE9"/>
		<stop  offset="0" style="stop-color:#E1DEDA"/>
		<stop  offset="0" style="stop-color:#D6D1CC"/>
		<stop  offset="6.975419e-02" style="stop-color:#C7C3BE"/>
		<stop  offset="0.1461" style="stop-color:#B2AEAA"/>
		<stop  offset="0.5225" style="stop-color:#E6E6E6"/>
		<stop  offset="0.633" style="stop-color:#D9D8D7"/>
		<stop  offset="0.8443" style="stop-color:#B8B4B0"/>
		<stop  offset="0.8764" style="stop-color:#B2AEAA"/>
		<stop  offset="1" style="stop-color:#D9D9D9"/>
		<stop  offset="1" style="stop-color:#B1B1B1"/>
	</linearGradient>
	<polygon class="st0" points="131.2,429.7 124.8,423.7 118.3,429.7 110.8,423.7 104.2,429.7 104.2,127.3 131.2,127.3 	"/>
	<g id="g3674" transform="matrix(1.25,0,0,-1.25,0,601.00159)">
		<g id="g3676">
			<path id="path3678" class="st1" d="M11.8,480.6c-11.3,0-11.2-11.2-11.2-11.2V304.7c0,0,0-11.2,11.2-11.2h164.7
				c11.3,0,11.2,11.2,11.2,11.2v164.7c0,0,0.1,11.3-11.2,11.2C176.5,480.6,11.8,480.6,11.8,480.6z"/>
			<path id="path3680" class="st2" d="M11.8,476.9c-4.1,0-7.5-3.4-7.5-7.5V304.7c0-4.1,3.4-7.5,7.5-7.5h164.7c4.1,0,7.5,3.4,7.5,7.5
				v164.7c0,4.1-3.4,7.5-7.5,7.5H11.8L11.8,476.9z"/>
			<path id="path3682" d="M11.8,480.8c-5.7,0-8.6-2.9-10-5.7c-1.4-2.8-1.4-5.7-1.4-5.7V304.7c0,0,0-2.8,1.4-5.7
				c1.4-2.8,4.3-5.7,10-5.7h164.7c5.7,0,8.6,2.9,10,5.7c1.4,2.8,1.4,5.7,1.4,5.7v164.7c0,0,0,2.9-1.4,5.7c-1.4,2.9-4.3,5.7-10,5.7
				H11.8L11.8,480.8z M11.8,480.6h164.7c11.3,0,11.2-11.2,11.2-11.2V304.7c0,0,0.1-11.2-11.2-11.2H11.8c-11.3,0-11.2,11.2-11.2,11.2
				v164.7C0.6,469.4,0.5,480.7,11.8,480.6L11.8,480.6z"/>
			<path id="path3684" class="st1" d="M98.4,433.7H68.3v-41.6h30.8c7.1,0,12.5,2.2,16,6.5c3.5,4.4,5.3,9.1,5.3,14.2
				c0,7.8-2.8,13.5-8.3,17.2C108.5,432.5,104,433.7,98.4,433.7L98.4,433.7z M67.9,321.5H48l0.2,131l49.2,0.1c5,0,9.8-0.5,14.5-1.6
				c4.6-1.1,9.5-3.6,14.5-7.5c3.9-3,7.2-7.2,9.9-12.6c2.7-5.3,4.1-11.5,4.1-18.5c0-9.3-3.4-18.2-10.2-26.5
				c-6.8-8.4-16.8-12.6-29.9-12.6H68.3L67.9,321.5L67.9,321.5z"/>
		</g>
	</g>
	<g id="g6177" transform="matrix(1.25,0,0,-1.25,0,330)">
		<g id="g6179">
			<g id="g6181">
				<g id="g6183">
					<g>
						<defs>
							<rect id="SVGID_2_" x="-23.1" y="-65.5" width="234.9" height="129.2"/>
						</defs>
						<clipPath id="SVGID_3_">
							<use xlink:href="#SVGID_2_"  style="overflow:visible;"/>
						</clipPath>
						<g id="g6185" class="st3">
							<g id="g6191">
								<path id="path6193" class="st1" d="M12.9,50.7c-6.9,0-12.4-5.6-12.4-12.4v-78.3c0-6.9,5.6-12.4,12.4-12.4h162.9
									c6.9,0,12.4,5.6,12.4,12.4v78.3c0,6.9-5.6,12.4-12.4,12.4"/>
								<path id="path6195" d="M12.9-52.4c-6.8,0-12.3,5.5-12.3,12.3v78.3c0,6.8,5.5,12.3,12.3,12.3h162.9c6.8,0,12.3-5.5,12.3-12.3
									v-78.3c0-6.8-5.5-12.3-12.3-12.3C175.8-52.4,12.9-52.4,12.9-52.4z M175.8,50.8H12.9C6,50.8,0.4,45.2,0.4,38.2v-78.3
									C0.4-47,6-52.6,12.9-52.6h162.9c6.9,0,12.5,5.6,12.5,12.5v78.3C188.3,45.2,182.7,50.8,175.8,50.8"/>
							</g>
						</g>
					</g>
				</g>
			</g>
			<path id="path6197" d="M12.9-44.8h162.9c2.6,0,4.7,2.1,4.7,4.7v78.3c0,2.6-2.1,4.7-4.7,4.7H12.9c-2.6,0-4.7-2.1-4.7-4.7v-78.3
				C8.2-42.7,10.3-44.8,12.9-44.8z M12.9-49.5c-5.2,0-9.4,4.2-9.4,9.4v78.3c0,5.2,4.2,9.4,9.4,9.4h162.9c5.2,0,9.4-4.2,9.4-9.4
				v-78.3c0-5.2-4.2-9.4-9.4-9.4"/>
			<path id="path6199" d="M105.2,29.7c0-3.4-2.8-6.2-6.2-6.2c-3.4,0-6.2,2.8-6.2,6.2c0,3.4,2.8,6.2,6.2,6.2
				C102.4,35.9,105.2,33.1,105.2,29.7z M94.3-3.6V1H78.9c0,3,2.4,5.4,5.4,5.4h10.1v9.3c0,3,2.4,5.4,5.4,5.4c3,0,5.4-2.4,5.4-5.4
				V-5.2c0-3-2.4-5.4-5.4-5.4H82.2c-0.7,0-1.3-0.5-1.5-1.2L75.3-33c-0.8-3.2-4-5.2-7.3-4.5l6.3,29.1c0.6,2.9,3.1,4.9,6.1,4.9H94.3z
				 M84.3-13.7h3.3c-3-8,1.1-16.9,9.1-19.9c8-3,16.9,1.1,19.9,9.1c2.9,7.7-0.8,16.3-8.3,19.6v3.3c9.7-3.4,14.8-14,11.3-23.7
				c-3.4-9.7-14.1-14.8-23.7-11.3C86.5-33.3,81.4-23.2,84.3-13.7"/>
		</g>
	</g>
</g>
<g id="Layer_2">
</g>
</svg>
