<?xml version="1.0" encoding="utf-8"?>
<!-- Generator: Adobe Illustrator 22.0.1, SVG Export Plug-In . SVG Version: 6.00 Build 0)  -->
<svg version="1.1" xmlns="http://www.w3.org/2000/svg" xmlns:xlink="http://www.w3.org/1999/xlink" x="0px" y="0px"
	 viewBox="0 0 234.4 449.7" style="enable-background:new 0 0 234.4 449.7;" xml:space="preserve">
<style type="text/css">
	.st0{fill:url(#SVGID_1_);}
	.st1{fill:#FFFFFF;}
	.st2{fill:#154889;}
</style>
<g id="svg3666" xmlns:cc="http://creativecommons.org/ns#" xmlns:dc="http://purl.org/dc/elements/1.1/" xmlns:rdf="http://www.w3.org/1999/02/22-rdf-syntax-ns#" xmlns:svg="http://www.w3.org/2000/svg">
	<linearGradient id="SVGID_1_" gradientUnits="userSpaceOnUse" x1="103.6953" y1="298.5083" x2="130.6953" y2="298.5083">
		<stop  offset="0" style="stop-color:#EDEBE9"/>
		<stop  offset="0" style="stop-color:#E1DEDA"/>
		<stop  offset="0" style="stop-color:#D6D1CC"/>
		<stop  offset="6.975419e-02" style="stop-color:#C7C3BE"/>
		<stop  offset="0.1461" style="stop-color:#B2AEAA"/>
		<stop  offset="0.5225" style="stop-color:#E6E6E6"/>
		<stop  offset="0.633" style="stop-color:#D9D8D7"/>
		<stop  offset="0.8443" style="stop-color:#B8B4B0"/>
		<stop  offset="0.8764" style="stop-color:#B2AEAA"/>
		<stop  offset="1" style="stop-color:#D9D9D9"/>
		<stop  offset="1" style="stop-color:#B1B1B1"/>
	</linearGradient>
	<polygon class="st0" points="130.7,449.7 124.3,443.7 117.8,449.7 110.3,443.7 103.7,449.7 103.7,147.3 130.7,147.3 	"/>
	<g id="g3674" transform="matrix(1.25,0,0,-1.25,0,601.00159)">
		<g id="g3676">
			<path id="path3678" class="st1" d="M11.4,480.6c-11.3,0-11.2-11.2-11.2-11.2V304.7c0,0,0-11.2,11.2-11.2h164.7
				c11.3,0,11.2,11.2,11.2,11.2v164.7c0,0,0.1,11.3-11.2,11.2C176.1,480.6,11.4,480.6,11.4,480.6z"/>
			<path id="path3680" class="st2" d="M11.4,476.9c-4.1,0-7.5-3.4-7.5-7.5V304.7c0-4.1,3.4-7.5,7.5-7.5h164.7c4.1,0,7.5,3.4,7.5,7.5
				v164.7c0,4.1-3.4,7.5-7.5,7.5H11.4L11.4,476.9z"/>
			<path id="path3682" d="M11.4,480.8c-5.7,0-8.6-2.9-10-5.7C0,472.3,0,469.4,0,469.4V304.7c0,0,0-2.8,1.4-5.7
				c1.4-2.8,4.3-5.7,10-5.7h164.7c5.7,0,8.6,2.9,10,5.7c1.4,2.8,1.4,5.7,1.4,5.7v164.7c0,0,0,2.9-1.4,5.7c-1.4,2.9-4.3,5.7-10,5.7
				H11.4L11.4,480.8z M11.4,480.6h164.7c11.3,0,11.2-11.2,11.2-11.2V304.7c0,0,0.1-11.2-11.2-11.2H11.4c-11.3,0-11.2,11.2-11.2,11.2
				v164.7C0.2,469.4,0.1,480.7,11.4,480.6L11.4,480.6z"/>
			<path id="path3684" class="st1" d="M98,433.7H67.9v-41.6h30.8c7.1,0,12.5,2.2,16,6.5c3.5,4.4,5.3,9.1,5.3,14.2
				c0,7.8-2.8,13.5-8.3,17.2C108.2,432.5,103.6,433.7,98,433.7L98,433.7z M67.5,321.5H47.6l0.2,131l49.2,0.1c5,0,9.8-0.5,14.5-1.6
				c4.6-1.1,9.5-3.6,14.5-7.5c3.9-3,7.2-7.2,9.9-12.6c2.7-5.3,4.1-11.5,4.1-18.5c0-9.3-3.4-18.2-10.2-26.5
				c-6.8-8.4-16.8-12.6-29.9-12.6H67.9L67.5,321.5L67.5,321.5z"/>
		</g>
	</g>
	<g id="g4185" transform="matrix(1.25,0,0,-1.25,0,600.99628)">
		<g id="g4187">
			<path id="path4189" class="st1" d="M37.5,268c-4.7,0-8.6-3.9-8.6-8.6V147c0-4.7,3.8-8.6,8.6-8.6H150c4.7,0,8.6,3.8,8.6,8.6v112.4
				c0,4.7-3.9,8.6-8.6,8.6C150,268,37.5,268,37.5,268z"/>
			<path id="path4191" d="M37.5,268.1c-4.8,0-8.7-3.9-8.7-8.7V147c0-4.8,3.9-8.7,8.7-8.7H150c4.8,0,8.7,3.9,8.7,8.7v112.4
				c0,4.8-3.9,8.7-8.7,8.7C150,268.1,37.5,268.1,37.5,268.1z M37.5,268H150c4.7,0,8.6-3.9,8.6-8.6V147c0-4.7-3.9-8.6-8.6-8.6H37.5
				c-4.7,0-8.6,3.8-8.6,8.6v112.4C29,264.1,32.8,268,37.5,268z"/>
			<path id="path4193" d="M37.5,265.9c-3.6,0-6.5-2.9-6.5-6.5V147c0-3.6,2.9-6.5,6.5-6.5H150c3.6,0,6.5,2.9,6.5,6.5v112.4
				c0,3.6-2.9,6.5-6.5,6.5C150,265.9,37.5,265.9,37.5,265.9z M37.5,262.7H150c1.8,0,3.2-1.4,3.2-3.2V147c0-1.8-1.5-3.2-3.2-3.2H37.5
				c-1.8,0-3.2,1.5-3.2,3.2v112.4C34.3,261.2,35.8,262.7,37.5,262.7z"/>
			<path id="path4195" d="M44.9,250.7v-95h97.6v4.3H49.3v25.9h93.3v4.3H49.3v25.9h93.3v4.3H49.3v25.9h93.3v4.3H44.9L44.9,250.7z"/>
		</g>
	</g>
</g>
<g id="Layer_2">
</g>
</svg>
