<?xml version="1.0" encoding="utf-8"?>
<!-- Generator: Adobe Illustrator 22.0.1, SVG Export Plug-In . SVG Version: 6.00 Build 0)  -->
<svg version="1.1" xmlns="http://www.w3.org/2000/svg" xmlns:xlink="http://www.w3.org/1999/xlink" x="0px" y="0px"
	 viewBox="0 0 235.4 429.7" style="enable-background:new 0 0 235.4 429.7;" xml:space="preserve">
<style type="text/css">
	.st0{fill:url(#SVGID_1_);}
	.st1{fill:#FFFFFF;}
	.st2{fill:#154889;}
	.st3{fill:#231F20;}
	.st4{display:none;}
</style>
<g id="svg3666" xmlns:cc="http://creativecommons.org/ns#" xmlns:dc="http://purl.org/dc/elements/1.1/" xmlns:rdf="http://www.w3.org/1999/02/22-rdf-syntax-ns#" xmlns:svg="http://www.w3.org/2000/svg">
	<linearGradient id="SVGID_1_" gradientUnits="userSpaceOnUse" x1="104.1892" y1="278.5083" x2="131.1892" y2="278.5083">
		<stop  offset="0" style="stop-color:#EDEBE9"/>
		<stop  offset="0" style="stop-color:#E1DEDA"/>
		<stop  offset="0" style="stop-color:#D6D1CC"/>
		<stop  offset="6.975419e-02" style="stop-color:#C7C3BE"/>
		<stop  offset="0.1461" style="stop-color:#B2AEAA"/>
		<stop  offset="0.5225" style="stop-color:#E6E6E6"/>
		<stop  offset="0.633" style="stop-color:#D9D8D7"/>
		<stop  offset="0.8443" style="stop-color:#B8B4B0"/>
		<stop  offset="0.8764" style="stop-color:#B2AEAA"/>
		<stop  offset="1" style="stop-color:#D9D9D9"/>
		<stop  offset="1" style="stop-color:#B1B1B1"/>
	</linearGradient>
	<polygon class="st0" points="131.2,429.7 124.8,423.7 118.3,429.7 110.8,423.7 104.2,429.7 104.2,127.3 131.2,127.3 	"/>
	<g id="g3674" transform="matrix(1.25,0,0,-1.25,0,601.00159)">
		<g id="g3676">
			<path id="path3678" class="st1" d="M11.8,480.6c-11.3,0-11.2-11.2-11.2-11.2V304.7c0,0,0-11.2,11.2-11.2h164.7
				c11.3,0,11.2,11.2,11.2,11.2v164.7c0,0,0.1,11.3-11.2,11.2C176.5,480.6,11.8,480.6,11.8,480.6z"/>
			<path id="path3680" class="st2" d="M11.8,476.9c-4.1,0-7.5-3.4-7.5-7.5V304.7c0-4.1,3.4-7.5,7.5-7.5h164.7c4.1,0,7.5,3.4,7.5,7.5
				v164.7c0,4.1-3.4,7.5-7.5,7.5H11.8L11.8,476.9z"/>
			<path id="path3682" d="M11.8,480.8c-5.7,0-8.6-2.9-10-5.7c-1.4-2.8-1.4-5.7-1.4-5.7V304.7c0,0,0-2.8,1.4-5.7
				c1.4-2.8,4.3-5.7,10-5.7h164.7c5.7,0,8.6,2.9,10,5.7c1.4,2.8,1.4,5.7,1.4,5.7v164.7c0,0,0,2.9-1.4,5.7c-1.4,2.9-4.3,5.7-10,5.7
				H11.8L11.8,480.8z M11.8,480.6h164.7c11.3,0,11.2-11.2,11.2-11.2V304.7c0,0,0.1-11.2-11.2-11.2H11.8c-11.3,0-11.2,11.2-11.2,11.2
				v164.7C0.6,469.4,0.5,480.7,11.8,480.6L11.8,480.6z"/>
			<path id="path3684" class="st1" d="M98.4,433.7H68.3v-41.6h30.8c7.1,0,12.5,2.2,16,6.5c3.5,4.4,5.3,9.1,5.3,14.2
				c0,7.8-2.8,13.5-8.3,17.2C108.5,432.5,104,433.7,98.4,433.7L98.4,433.7z M67.9,321.5H48l0.2,131l49.2,0.1c5,0,9.8-0.5,14.5-1.6
				c4.6-1.1,9.5-3.6,14.5-7.5c3.9-3,7.2-7.2,9.9-12.6c2.7-5.3,4.1-11.5,4.1-18.5c0-9.3-3.4-18.2-10.2-26.5
				c-6.8-8.4-16.8-12.6-29.9-12.6H68.3L67.9,321.5L67.9,321.5z"/>
		</g>
	</g>
	<g id="g3428" transform="matrix(1.25,0,0,-1.25,0,330.57625)">
		<g id="g3430">
			<path id="path3432" class="st1" d="M13.6,50.5C6.9,50.5,1.4,45,1.4,38.3v-77.6c0-6.7,5.5-12.2,12.2-12.2h161.1
				c6.7,0,12.2,5.5,12.2,12.2v77.6c0,6.7-5.5,12.2-12.2,12.2C174.7,50.5,13.6,50.5,13.6,50.5z"/>
			<path id="path3434" d="M13.6-43.9h161.1c2.6,0,4.6,2.1,4.6,4.6v77.6c0,2.5-2.1,4.6-4.6,4.6H13.6C11,42.9,9,40.9,9,38.3v-77.6
				C9-41.8,11-43.9,13.6-43.9z M13.8-48.3c-5.1,0-9.2,4.1-9.2,9.2v77.2c0,5.1,4.1,9.2,9.2,9.2h160.7c5.1,0,9.2-4.1,9.2-9.2v-77.2
				c0-5.1-4.1-9.2-9.2-9.2"/>
			<path id="path3436" d="M13.6,50.6c-6.8,0-12.4-5.5-12.4-12.3v-77.5c0-6.8,5.6-12.3,12.4-12.3h161.1c6.8,0,12.4,5.5,12.4,12.3
				v77.5c0,6.8-5.5,12.3-12.4,12.3C174.7,50.6,13.6,50.6,13.6,50.6z M13.6,50.5h161.1c6.7,0,12.2-5.5,12.2-12.2v-77.5
				c0-6.7-5.5-12.2-12.2-12.2H13.6c-6.7,0-12.2,5.5-12.2,12.2v77.5C1.4,45,6.9,50.5,13.6,50.5L13.6,50.5z"/>
			<path id="path3438" d="M81.1-13.4v3.5L91.2,2.7c0.4,0.5,0.6,1,0.8,1.4c0.1,0.4,0.2,0.8,0.2,1.2c0,0.9-0.3,1.7-1,2.5
				C90.5,8.6,89.7,9,88.6,9c-1,0-1.9-0.3-2.6-1c-0.7-0.7-1.1-1.6-1.2-2.7h-3.7c0,2.1,0.7,3.9,2.1,5.3c1.4,1.4,3.1,2.2,5.1,2.2
				c2.1,0,3.9-0.7,5.4-2.2c1.4-1.4,2.2-3.2,2.2-5.2c0-1.7-0.5-3.3-1.5-4.5L86-9.7h9.9v-3.7H81.1z M106.5-10.1l2.6,2.9
				c1-0.8,2.1-1.4,3.3-1.9c1.3-0.5,2.6-0.7,4-0.7c1.6,0,2.8,0.3,3.8,1c0.9,0.7,1.4,1.5,1.4,2.6c0,2-1.1,3.2-3.4,3.5
				c-0.6,0.1-1.1,0.1-1.6,0.2c-0.5,0.1-1.1,0.2-1.8,0.2c-2.2,0.3-3.9,1.1-5.1,2.5c-1.2,1.3-1.8,2.9-1.8,4.8c0,2.2,0.7,4,2.2,5.4
				c1.5,1.4,3.5,2.1,6.2,2.1c1.6,0,3.1-0.3,4.5-0.8c1.4-0.5,2.7-1.2,3.9-1.9l-2.2-3.2c-0.9,0.6-2,1.1-3,1.4
				c-1.1,0.4-2.2,0.5-3.3,0.5c-1.2,0-2.2-0.3-3.1-0.9c-0.8-0.6-1.3-1.5-1.3-2.8c0-0.7,0.3-1.4,0.8-2.1c0.6-0.6,1.5-1.1,2.8-1.3
				c0.3-0.1,0.8-0.1,1.2-0.2c0.5-0.1,1-0.1,1.7-0.2c2.4-0.3,4.2-1.2,5.3-2.6c1.2-1.5,1.7-3.1,1.7-4.8c0-2.4-0.8-4.2-2.5-5.5
				c-1.6-1.3-3.8-2-6.6-2C112.5-13.6,109.2-12.4,106.5-10.1L106.5-10.1z M130.1,5v5.6h3.7V5h2.7V2.2h-2.7V-8.5
				c0-0.9,0.4-1.4,1.3-1.4h1.4v-3.5h-1.9c-1.3,0-2.4,0.4-3.2,1.2c-0.8,0.8-1.3,1.9-1.3,3.3v11h-1.8V5H130.1L130.1,5z M152.2-13.4
				v1.9c-1.3-1.4-2.9-2.1-4.7-2.1c-1.1,0-2.1,0.2-2.9,0.7c-0.8,0.4-1.5,1-2,1.7c-0.5,0.6-0.9,1.4-1,2.3c-0.2,0.9-0.3,2.5-0.3,4.7
				c0,2.2,0.1,3.8,0.3,4.7c0.2,0.9,0.5,1.7,1,2.3c0.5,0.7,1.2,1.3,2,1.7c0.8,0.5,1.8,0.7,2.9,0.7c0.9,0,1.8-0.2,2.6-0.6
				c0.8-0.4,1.5-0.9,2.2-1.6v9.4h3.7v-25.8C155.9-13.4,152.2-13.4,152.2-13.4z M148.6,1.5c-1.7,0-2.8-0.6-3.1-1.8
				c-0.3-1.2-0.5-2.5-0.5-3.9c0-1.4,0.2-2.8,0.5-4c0.3-1.2,1.4-1.8,3.1-1.8c1.7,0,2.7,0.6,3.1,1.9c0.3,1.2,0.5,2.5,0.5,3.9
				c0,1.3-0.2,2.6-0.5,3.8C151.3,0.9,150.3,1.5,148.6,1.5z M160.2-13.4v3.7h3.7v-3.7H160.2z"/>
			<path id="path3440" class="st2" d="M21.4,30.4v-61.8h45.3v61.8C66.7,30.4,21.4,30.4,21.4,30.4z M47.6,24.3c0.2,0,0.5-0.1,0.7-0.2
				l-0.2-0.3C48,23.9,47.8,24,47.6,24c0,0-0.1,0-0.1,0c-0.1,0-0.2-0.1-0.2-0.3c0-0.1,0.1-0.3,0.2-0.3l0.3,0c0.3,0,0.5-0.3,0.5-0.6
				c0-0.3-0.2-0.5-0.4-0.6c-0.1,0-0.2,0-0.3,0c-0.3,0-0.6,0.1-0.8,0.3l0.2,0.2c0.2-0.1,0.4-0.2,0.6-0.2c0.1,0,0.1,0,0.2,0
				c0.1,0,0.2,0.1,0.2,0.3c0,0.1-0.1,0.3-0.2,0.3l-0.3,0c-0.3,0-0.5,0.3-0.5,0.6c0,0.3,0.2,0.5,0.5,0.6
				C47.5,24.3,47.6,24.3,47.6,24.3z M34.7,24.2H35l0.8-2.1h-0.3l-0.2,0.5h-0.8l-0.2-0.5h-0.3L34.7,24.2z M36,24.2h0.3l0.9-1.5v1.5
				h0.3v-2.1h-0.3l-0.9,1.5v-1.5H36V24.2z M38,24.2h0.3v-1.1l0.9,1.1h0.4l-0.7-0.8l0.7-1.3h-0.4l-0.6,1l-0.4-0.4v-0.6H38V24.2
				L38,24.2z M39.8,24.2h0.3v-1.3c0-0.2,0.2-0.4,0.4-0.4c0.2,0,0.4,0.2,0.4,0.4v1.3h0.3v-1.3c0-0.4-0.3-0.7-0.7-0.7
				c-0.4,0-0.7,0.3-0.7,0.7V24.2z M41.7,24.2H42l0.9-1.5v1.5h0.3v-2.1H43L42,23.7v-1.5h-0.3V24.2z M43.8,24.2h1.3v-0.3h-1v-0.6h0.9
				v-0.3h-0.9v-0.9h-0.3V24.2z M45.3,24.2h1.5V24h-0.6v-1.8h-0.3V24h-0.6V24.2z M48.6,24.2h1.3V24L49,22.5h0.9v-0.3h-1.3v0.3
				l0.9,1.5h-0.9V24.2z M50.3,24.2h1.3v-0.3h-1v-0.6h0.9v-0.3h-0.9v-0.6h1v-0.3h-1.3V24.2z M52.1,24.2h0.3v-2.1h-0.3V24.2z
				 M52.7,24.2h1.5V24h-0.6v-1.8h-0.3V24h-0.6L52.7,24.2L52.7,24.2z M34.8,23.8l-0.3-0.9h0.6C35.1,22.9,34.8,23.8,34.8,23.8z
				 M40.4,17h7.2L44,3.6L40.4,17z M37.7,4.5c1.6-1.9,3.9-2.9,6.3-2.9c2.4,0,4.7,1.1,6.3,2.9l7.9-6.6C54.7-6.3,49.5-8.7,44-8.7
				c-5.5,0-10.7,2.4-14.2,6.6L37.7,4.5z M36.9-10.8h14.3c0.6,0,1.1-0.5,1.1-1.1v-14.3c0-0.6-0.5-1.1-1.1-1.1H36.9
				c-0.6,0-1.1,0.5-1.1,1.1v14.3C35.8-11.3,36.3-10.8,36.9-10.8z M36.9-11.2c-0.4,0-0.7-0.3-0.7-0.7v-14.3c0-0.4,0.3-0.7,0.7-0.7
				h14.3c0.4,0,0.7,0.3,0.7,0.7v14.3c0,0.4-0.3,0.7-0.7,0.7C51.2-11.2,36.9-11.2,36.9-11.2z M40-13.2h4.5c1.9,0,3.5-1.6,3.5-3.5
				s-1.6-3.5-3.5-3.5h-2.8v-4.5H40V-13.2z M41.8-14.9v-3.7h2.7c1,0,1.9,0.8,1.9,1.9c0,1-0.8,1.9-1.9,1.9H41.8z"/>
			<path id="path3442" class="st3" d="M39.5,2.4l0.4-0.2l-0.6-1.1l-0.4,0.2L39.5,2.4z M36.1-1.8l0.6-0.4l-0.1-0.2c0-0.1,0-0.1,0-0.2
				c0-0.2,0.2-0.4,0.4-0.4c0.1,0,0.2,0.1,0.3,0.2l0.6,1c0,0.1,0,0.1,0,0.2c0,0.2-0.2,0.4-0.4,0.4c-0.1,0-0.2,0-0.3-0.1l-0.5,0.3
				L38,1.4l1.8-1l-0.3-0.6l-1.2,0.7l-0.7-1.2c0.1,0,0.1,0,0.2,0c0.5,0,0.8-0.4,0.8-0.8c0-0.1,0-0.3-0.1-0.4L37.8-3
				c-0.2-0.3-0.5-0.5-0.9-0.5c-0.6,0-1.1,0.5-1.1,1.1c0,0.2,0,0.4,0.1,0.5L36.1-1.8L36.1-1.8z M35-4l0.1,0.2l0.3,0l0.2-0.1l-0.8-1.4
				l-0.2,0.1L35.3-4C35.3-4,35-4,35-4z M35.2-5.5l1.2,0.9L36-4.4l-0.1-0.2l-0.2,0.1l0.2,0.4l0.8-0.5l-0.1-0.2l-1.2-1L35.2-5.5z
				 M43.8,1.2h0.4v-1.2h-0.4V1.2z M44-0.5h0.8L44-2.6c0.1,0,0.2,0.1,0.3,0.1c0.4,0,0.8-0.4,0.8-0.8v-1.1c0-0.6-0.5-1.1-1.1-1.1
				C43.4-5.5,43-5,43-4.4v0.9c0,0.1,0,0.3,0.1,0.4C43-3.1,44-0.5,44-0.5z M43.7-4.4c0-0.2,0.2-0.4,0.4-0.4c0.2,0,0.4,0.2,0.4,0.4
				v0.9c0,0.2-0.2,0.4-0.4,0.4c-0.2,0-0.4-0.2-0.4-0.4V-4.4z M43.1-6.7v0.3l0.2,0.2h0.2v-1.6h-0.2v1.4C43.3-6.5,43.1-6.7,43.1-6.7z
				 M44.1-7C44-7,44-6.8,44-6.7c0,0.3,0.2,0.5,0.5,0.5c0.3,0,0.5-0.2,0.5-0.5c0-0.1-0.1-0.3-0.2-0.3c0.1-0.1,0.2-0.2,0.2-0.4
				c0-0.3-0.2-0.5-0.5-0.5c-0.3,0-0.5,0.2-0.5,0.5C43.9-7.3,44-7.1,44.1-7L44.1-7z M44.2-7.4c0,0.1,0.1,0.3,0.3,0.3
				c0.1,0,0.3-0.1,0.3-0.3c0-0.1-0.1-0.3-0.3-0.3S44.2-7.6,44.2-7.4z M44.2-6.7c0,0.1,0.1,0.2,0.2,0.2s0.2-0.1,0.2-0.2
				c0-0.1-0.1-0.2-0.2-0.2S44.2-6.8,44.2-6.7z M48.2,2.2l0.4,0.2l0.6-1.1l-0.4-0.2C48.8,1.2,48.2,2.2,48.2,2.2z M48.9-0.7l-0.6,1.1
				l1.8,1.1l0.3-0.6l1.1-4.3l-0.7-0.4l-1.1,4.3l-0.7-0.4l0.3-0.5L48.9-0.7z M51.5-4.9l-0.1,0.2l0.1,0.3l0.2,0.1l0.8-1.4l-0.2-0.1
				l-0.7,1.2L51.5-4.9L51.5-4.9z M53.2-5.3L53-5.5l0,0.8c-0.1-0.1-0.2-0.1-0.3-0.1c-0.1,0-0.3,0.1-0.3,0.2l-0.1,0.1
				c0,0.1-0.1,0.2-0.1,0.2c0,0.3,0.2,0.5,0.5,0.5c0.2,0,0.3-0.1,0.4-0.2l0-0.1c0-0.1,0.1-0.1,0.1-0.2L53.2-5.3L53.2-5.3z M52.4-4.4
				L52.4-4.4c0.1-0.1,0.2-0.2,0.2-0.2c0.1,0,0.2,0.1,0.2,0.2c0,0,0,0.1,0,0.1l0,0.1c0,0.1-0.1,0.1-0.2,0.1c-0.1,0-0.2-0.1-0.2-0.2
				C52.4-4.3,52.4-4.4,52.4-4.4L52.4-4.4z M46.2,1.4l0.2,0.1l0.3-1.2l-0.2-0.1L46.2,1.4z M50.1,3.6l0.1,0.1l0.9-0.9l-0.1-0.1
				C50.9,2.8,50.1,3.6,50.1,3.6z M37.8,3.8L38,3.6l-0.9-0.9L37,2.9L37.8,3.8z M41.7,1.5l0.2-0.1l-0.3-1.2l-0.2,0.1L41.7,1.5"/>
		</g>
	</g>
</g>
<g id="Layer_2" class="st4">
</g>
</svg>
