<?xml version="1.0" encoding="utf-8"?>
<!-- Generator: Adobe Illustrator 22.0.1, SVG Export Plug-In . SVG Version: 6.00 Build 0)  -->
<svg version="1.1"
	 id="svg3636" xmlns:cc="http://creativecommons.org/ns#" xmlns:dc="http://purl.org/dc/elements/1.1/" xmlns:rdf="http://www.w3.org/1999/02/22-rdf-syntax-ns#" xmlns:svg="http://www.w3.org/2000/svg"
	 xmlns="http://www.w3.org/2000/svg" xmlns:xlink="http://www.w3.org/1999/xlink" x="0px" y="0px" viewBox="0 0 240.7 432.2"
	 style="enable-background:new 0 0 240.7 432.2;" xml:space="preserve">
<style type="text/css">
	.st0{fill:url(#SVGID_1_);}
	.st1{fill:#FFFFFF;}
	.st2{fill:none;stroke:#C1121C;stroke-width:25.7267;}
</style>
<linearGradient id="SVGID_1_" gradientUnits="userSpaceOnUse" x1="106.8272" y1="306.325" x2="133.8272" y2="306.325">
	<stop  offset="0" style="stop-color:#EDEBE9"/>
	<stop  offset="0" style="stop-color:#E1DEDA"/>
	<stop  offset="0" style="stop-color:#D6D1CC"/>
	<stop  offset="6.975419e-02" style="stop-color:#C7C3BE"/>
	<stop  offset="0.1461" style="stop-color:#B2AEAA"/>
	<stop  offset="0.5225" style="stop-color:#E6E6E6"/>
	<stop  offset="0.633" style="stop-color:#D9D8D7"/>
	<stop  offset="0.8443" style="stop-color:#B8B4B0"/>
	<stop  offset="0.8764" style="stop-color:#B2AEAA"/>
	<stop  offset="1" style="stop-color:#D9D9D9"/>
	<stop  offset="1" style="stop-color:#B1B1B1"/>
</linearGradient>
<polygon class="st0" points="133.8,432.2 127.5,427.2 120.9,432.2 113.4,427.2 106.8,432.2 106.8,180.4 133.8,180.4 "/>
<g id="g3644" transform="matrix(1.25,0,0,-1.25,0,600.99499)">
	<g id="g3646">
		<path id="path3648" class="st1" d="M192.3,384.6c0-53-43-96-96-96c-53,0-96,43-96,96c0,53,43,96,96,96
			C149.3,480.6,192.3,437.7,192.3,384.6L192.3,384.6z"/>
		<path id="path3650" d="M96.3,480.8c-53.1,0-96.2-43.1-96.2-96.2c0-53.1,43.1-96.2,96.2-96.2c53.1,0,96.2,43.1,96.2,96.2
			C192.4,437.7,149.4,480.8,96.3,480.8z M96.3,480.6c53,0,96-43,96-96c0-53-43-96-96-96c-53,0-96,43-96,96
			C0.3,437.7,43.2,480.6,96.3,480.6L96.3,480.6z"/>
		<path id="path3652" class="st2" d="M176.2,384.6c0-44.1-35.8-79.9-79.9-79.9c-44.1,0-79.9,35.8-79.9,79.9
			c0,44.1,35.8,79.9,79.9,79.9C140.4,464.6,176.2,428.8,176.2,384.6z"/>
		<path id="path3654" d="M9.6,471.1L9.6,471.1L9.6,471.1L9.6,471.1z"/>
		<path id="path3656" d="M9.6,471.1L9.6,471.1L9.6,471.1L9.6,471.1L9.6,471.1z"/>
		<path id="path3658" d="M9.6,471.1L9.6,471.1L9.6,471.1L9.6,471.1z M9.6,471.1L9.6,471.1L9.6,471.1L9.6,471.1z"/>
		<path id="path3660" d="M9.6,471.1L9.6,471.1L9.6,471.1L9.6,471.1C9.6,471.1,9.6,471.1,9.6,471.1z"/>
		<path id="path3662" d="M9.6,471.1L9.6,471.1L9.6,471.1L9.6,471.1L9.6,471.1z"/>
		<path id="path3664" d="M9.6,471.1L9.6,471.1L9.6,471.1L9.6,471.1L9.6,471.1z"/>
		<path id="path3666" d="M9.6,471.1L9.6,471.1L9.6,471.1L9.6,471.1z"/>
		<path id="path3668" d="M9.6,471.1L9.6,471.1L9.6,471.1L9.6,471.1L9.6,471.1z"/>
		<path id="path3670" d="M9.6,471.1L9.6,471.1L9.6,471.1L9.6,471.1z M9.6,471.1L9.6,471.1L9.6,471.1L9.6,471.1z"/>
		<path id="path3672" d="M9.6,471.1L9.6,471.1L9.6,471.1L9.6,471.1C9.6,471.1,9.6,471.1,9.6,471.1z"/>
		<path id="path3674" d="M9.6,471.1L9.6,471.1L9.6,471.1L9.6,471.1L9.6,471.1z"/>
		<path id="path3676" d="M9.6,471.1L9.6,471.1L9.6,471.1L9.6,471.1L9.6,471.1z"/>
		<path id="path3678" d="M9.6,471.1L9.6,471.1L9.6,471.1L9.6,471.1z"/>
		<path id="path3680" d="M9.6,471.1L9.6,471.1L9.6,471.1L9.6,471.1L9.6,471.1z"/>
		<path id="path3682" d="M9.6,471.1L9.6,471.1L9.6,471.1L9.6,471.1z M9.6,471.1L9.6,471.1L9.6,471.1L9.6,471.1z"/>
		<path id="path3684" d="M9.6,471.1L9.6,471.1L9.6,471.1L9.6,471.1C9.6,471.1,9.6,471.1,9.6,471.1z"/>
		<path id="path3686" d="M9.6,471.1L9.6,471.1L9.6,471.1L9.6,471.1L9.6,471.1z"/>
		<path id="path3688" d="M9.6,471.1L9.6,471.1L9.6,471.1L9.6,471.1L9.6,471.1z"/>
		<path id="path3690" d="M9.6,471.1L9.6,471.1L9.6,471.1L9.6,471.1z"/>
		<path id="path3692" d="M9.6,471.1L9.6,471.1L9.6,471.1L9.6,471.1L9.6,471.1z"/>
		<path id="path3694" d="M9.6,471.1L9.6,471.1L9.6,471.1L9.6,471.1z M9.6,471.1L9.6,471.1L9.6,471.1L9.6,471.1z"/>
		<path id="path3696" d="M9.6,471.1L9.6,471.1L9.6,471.1L9.6,471.1C9.6,471.1,9.6,471.1,9.6,471.1z"/>
		<path id="path3698" d="M9.6,471.1L9.6,471.1L9.6,471.1L9.6,471.1L9.6,471.1z"/>
		<path id="path3700" d="M9.6,471.1L9.6,471.1L9.6,471.1L9.6,471.1L9.6,471.1z"/>
	</g>
</g>
<g id="g5361" transform="matrix(1.25,0,0,-1.25,0,330.57625)">
	<g id="g5363">
		<path id="path5365" class="st1" d="M12.8,50.8c-7,0-12.7-5.7-12.7-12.6v-80.3c0-7,5.7-12.6,12.7-12.6h166.9
			c7,0,12.7,5.7,12.7,12.6v80.3c0,7-5.7,12.6-12.7,12.6C179.7,50.8,12.8,50.8,12.8,50.8z"/>
		<path id="path5367" d="M12.8-47h166.9c2.6,0,4.8,2.1,4.8,4.8v80.4c0,2.6-2.1,4.8-4.8,4.8H12.8C10.2,43,8,40.8,8,38.2v-80.4
			C8-44.9,10.2-47,12.8-47z M13-51.5c-5.3,0-9.6,4.3-9.6,9.5v80c0,5.3,4.3,9.5,9.6,9.5h166.5c5.3,0,9.6-4.3,9.6-9.5v-80
			c0-5.3-4.3-9.5-9.6-9.5"/>
		<path id="path5369" d="M12.8,50.9C5.8,50.9,0,45.2,0,38.1v-80.2c0-7,5.8-12.8,12.8-12.8h166.9c7.1,0,12.8,5.7,12.8,12.8v80.2
			c0,7-5.7,12.8-12.8,12.8C179.7,50.9,12.8,50.9,12.8,50.9z M12.8,50.8h166.9c7,0,12.7-5.7,12.7-12.6v-80.2c0-7-5.7-12.6-12.7-12.6
			H12.8c-7,0-12.7,5.7-12.7,12.6v80.2C0.2,45.1,5.8,50.8,12.8,50.8L12.8,50.8z"/>
		<path id="path5371" d="M155,3.8V23h3.9v-2.2c2.3,2.8,6.3,3.2,9.1,1c0,0,0,0,0,0l-2.7-3.4c-1.6,1.4-4,1.3-5.4-0.3
			c-0.6-0.7-1-1.6-1-2.6V3.8H155L155,3.8z M137.7,15.3h8.2c0,2.3-1.8,4.1-4.1,4.1C139.5,19.4,137.7,17.6,137.7,15.3z M149.7,11.9
			h-12v-0.5c0-1.7,1-3.2,2.6-3.8c2.1-0.9,4.6-0.3,6.1,1.5l2.9-2.5c-2.6-3-6.8-4-10.4-2.6c-3,1.2-5,4.1-5,7.4v3.9
			c0,4.4,3.6,7.9,7.9,7.9c4.4,0,7.9-3.6,7.9-7.9L149.7,11.9L149.7,11.9z M124.7,11.2v4.3c0,2.1-1.7,3.8-3.9,3.8
			c-2.1,0-3.9-1.7-3.9-3.8v-4.3c0-2.1,1.7-3.9,3.9-3.9C122.9,7.4,124.7,9.1,124.7,11.2z M128.5,23V3.5c0-2.9-1.6-5.6-4.3-6.9
			c-3.7-1.8-8.1-0.9-10.7,2.3l3,2.4c1.5-1.8,4-2.3,6-1.3c1.3,0.7,2.1,2,2.1,3.4v2.4c-2.3-2.8-6.3-3.2-9.1-1
			c-1.5,1.2-2.4,3.1-2.4,5.1v6.7c0,3.6,2.9,6.5,6.5,6.5c2,0,3.8-0.9,5.1-2.4V23L128.5,23L128.5,23z M96.3,15.3h8.2
			c0,2.3-1.8,4.1-4.1,4.1C98.1,19.4,96.3,17.6,96.3,15.3z M108.3,11.9h-12v-0.5c0-1.7,1-3.2,2.6-3.8c2.1-0.9,4.6-0.3,6.1,1.5
			l2.9-2.5c-2.6-3-6.8-4-10.4-2.6c-3,1.2-5,4.1-5,7.4v3.9c0,4.4,3.6,7.9,7.9,7.9c4.4,0,7.9-3.6,7.9-7.9V11.9L108.3,11.9z M87.1,26.9
			h-3.9v3.8h3.9V26.9z M87.1,3.8h-3.9V23h3.9V3.8z M78.4,3.8H76c-2.4,0-4.3,1.9-4.3,4.3v22.6h3.8V8.6c0-0.7,0.5-1.2,1.2-1.2h1.7V3.8
			z M51,3.8V23h3.8v-2.2c2.3,2.8,6.4,3.2,9.1,1c1.5-1.2,2.4-3.1,2.4-5.1v-13h-3.9v11.8c0,2.1-1.7,3.8-3.8,3.8
			c-2.1,0-3.9-1.7-3.9-3.8V3.8H51z M32.1,13.4h7.9l-4,11.8L32.1,13.4z M24.5,3.8l9.9,27h3.4l9.9-27h-4.3l-2,6H30.9l-2-6"/>
		<path id="path5373" d="M123.2-11.6h-3.9v3.8h3.9V-11.6z M123.2-34.7h-3.9v19.3h3.9C123.2-15.5,123.2-34.7,123.2-34.7z M102-23.2
			h8.2c0,2.3-1.8,4.1-4.1,4.1C103.9-19.1,102-20.9,102-23.2L102-23.2z M114.1-26.6h-12V-27c0-1.7,1-3.2,2.6-3.8
			c2.1-0.9,4.6-0.3,6.1,1.5l2.9-2.5c-2.6-3-6.8-4-10.4-2.6c-3,1.2-5,4.1-5,7.4v3.9c0,4.4,3.6,7.9,7.9,7.9c4.4,0,7.9-3.6,7.9-7.9
			C114.1-23.2,114.1-26.6,114.1-26.6z M83.3-34.7v19.3h3.9v-2.2c2.3,2.8,6.3,3.2,9.1,1c0,0,0,0,0,0l-2.7-3.4c-1.6,1.4-4,1.3-5.4-0.3
			c-0.6-0.7-1-1.6-1-2.6v-11.8H83.3L83.3-34.7z M71.2-34.7v16.1h-1.9v3.1h1.9v2.9c0,2.7,2.2,4.8,4.8,4.8h2.9v-3.6h-2.6
			c-0.7,0-1.2-0.5-1.2-1.2v-2.9h3.9v-3.1h-3.9v-16.1"/>
	</g>
</g>
</svg>
