<?xml version="1.0" encoding="utf-8"?>
<!-- Generator: Adobe Illustrator 22.0.1, SVG Export Plug-In . SVG Version: 6.00 Build 0)  -->
<svg version="1.1" id="Layer_1" xmlns="http://www.w3.org/2000/svg" xmlns:xlink="http://www.w3.org/1999/xlink" x="0px" y="0px"
	 viewBox="0 0 235.8 429.7" style="enable-background:new 0 0 235.8 429.7;" xml:space="preserve">
<style type="text/css">
	.st0{fill:url(#SVGID_1_);}
	.st1{fill:#FFFFFF;}
	.st2{fill:#154889;}
	.st3{clip-path:url(#SVGID_3_);}
	.st4{display:none;}
</style>
<g id="svg3666" xmlns:cc="http://creativecommons.org/ns#" xmlns:dc="http://purl.org/dc/elements/1.1/" xmlns:rdf="http://www.w3.org/1999/02/22-rdf-syntax-ns#" xmlns:svg="http://www.w3.org/2000/svg">
	
		<linearGradient id="SVGID_1_" gradientUnits="userSpaceOnUse" x1="105.2" y1="242.774" x2="132.2" y2="242.774" gradientTransform="matrix(1 0 0 -1 0 521.2725)">
		<stop  offset="0" style="stop-color:#EDEBE9"/>
		<stop  offset="0" style="stop-color:#E1DEDA"/>
		<stop  offset="0" style="stop-color:#D6D1CC"/>
		<stop  offset="6.975419e-02" style="stop-color:#C7C3BE"/>
		<stop  offset="0.1461" style="stop-color:#B2AEAA"/>
		<stop  offset="0.5225" style="stop-color:#E6E6E6"/>
		<stop  offset="0.633" style="stop-color:#D9D8D7"/>
		<stop  offset="0.8443" style="stop-color:#B8B4B0"/>
		<stop  offset="0.8764" style="stop-color:#B2AEAA"/>
		<stop  offset="1" style="stop-color:#D9D9D9"/>
		<stop  offset="1" style="stop-color:#B1B1B1"/>
	</linearGradient>
	<polygon class="st0" points="132.2,429.7 125.8,423.7 119.3,429.7 111.8,423.7 105.2,429.7 105.2,127.3 132.2,127.3 	"/>
	<g id="g3674" transform="matrix(1.25,0,0,-1.25,0,601.00159)">
		<g id="g3676">
			<path id="path3678" class="st1" d="M12.6,480.6c-11.3,0-11.2-11.2-11.2-11.2V304.7c0,0,0-11.2,11.2-11.2h164.7
				c11.3,0,11.2,11.2,11.2,11.2v164.7c0,0,0.1,11.3-11.2,11.2C177.3,480.6,12.6,480.6,12.6,480.6z"/>
			<path id="path3680" class="st2" d="M12.6,476.9c-4.1,0-7.5-3.4-7.5-7.5V304.7c0-4.1,3.4-7.5,7.5-7.5h164.7c4.1,0,7.5,3.4,7.5,7.5
				v164.7c0,4.1-3.4,7.5-7.5,7.5L12.6,476.9L12.6,476.9z"/>
			<path id="path3682" d="M12.6,480.8c-5.7,0-8.6-2.9-10-5.7c-1.4-2.8-1.4-5.7-1.4-5.7V304.7c0,0,0-2.8,1.4-5.7
				c1.4-2.8,4.3-5.7,10-5.7h164.7c5.7,0,8.6,2.9,10,5.7c1.4,2.8,1.4,5.7,1.4,5.7v164.7c0,0,0,2.9-1.4,5.7c-1.4,2.9-4.3,5.7-10,5.7
				L12.6,480.8L12.6,480.8z M12.6,480.6h164.7c11.3,0,11.2-11.2,11.2-11.2V304.7c0,0,0.1-11.2-11.2-11.2H12.6
				c-11.3,0-11.2,11.2-11.2,11.2v164.7C1.4,469.4,1.3,480.7,12.6,480.6L12.6,480.6z"/>
			<path id="path3684" class="st1" d="M99.2,433.7H69.1v-41.6h30.8c7.1,0,12.5,2.2,16,6.5c3.5,4.4,5.3,9.1,5.3,14.2
				c0,7.8-2.8,13.5-8.3,17.2C109.4,432.5,104.8,433.7,99.2,433.7L99.2,433.7z M68.7,321.5H48.8l0.2,131l49.2,0.1
				c5,0,9.8-0.5,14.5-1.6c4.6-1.1,9.5-3.6,14.5-7.5c3.9-3,7.2-7.2,9.9-12.6c2.7-5.3,4.1-11.5,4.1-18.5c0-9.3-3.4-18.2-10.2-26.5
				c-6.8-8.4-16.8-12.6-29.9-12.6h-32L68.7,321.5L68.7,321.5z"/>
		</g>
	</g>
	<g id="g10523" transform="matrix(1.25,0,0,-1.25,0,330)">
		<g id="g10525">
			<g id="g10527">
				<g id="g10529">
				</g>
				<g id="g10535">
					<g>
						<g>
							<defs>
								<rect id="SVGID_2_" x="-48.7" y="-80.1" width="287.4" height="158"/>
							</defs>
							<clipPath id="SVGID_3_">
								<use xlink:href="#SVGID_2_"  style="overflow:visible;"/>
							</clipPath>
							<g id="g10537" class="st3">
								<g id="g10539">
									<path id="path10541" class="st1" d="M15.3,49.4c-6.7,0-12.2-5.5-12.2-12.2v-76.6c0-6.7,5.5-12.2,12.2-12.2h159.4
										c6.7,0,12.2,5.5,12.2,12.2v76.6c0,6.7-5.5,12.2-12.2,12.2"/>
									<path id="path10543" d="M15.3-51.5c-6.7,0-12.1,5.4-12.1,12.1v76.6c0,6.7,5.4,12.1,12.1,12.1h159.4
										c6.7,0,12.1-5.4,12.1-12.1v-76.6c0-6.7-5.4-12.1-12.1-12.1H15.3L15.3-51.5z M174.6,49.4H15.3C8.5,49.4,3,44,3,37.2v-76.6
										c0-6.8,5.5-12.3,12.3-12.3h159.4c6.8,0,12.3,5.5,12.3,12.3v76.6C186.9,44,181.4,49.4,174.6,49.4"/>
								</g>
							</g>
						</g>
					</g>
				</g>
			</g>
		</g>
		<g id="g10545">
			<path id="path10547" d="M15.3-44h159.4c2.5,0,4.6,2.1,4.6,4.6v76.6c0,2.5-2.1,4.6-4.6,4.6H15.3c-2.5,0-4.6-2.1-4.6-4.6v-76.6
				C10.7-42,12.7-44,15.3-44z M15.3-48.6c-5.1,0-9.2,4.1-9.2,9.2v76.6c0,5.1,4.1,9.2,9.2,9.2h159.4c5.1,0,9.2-4.1,9.2-9.2v-76.6
				c0-5.1-4.1-9.2-9.2-9.2"/>
			<path id="path10549" d="M55.7,32.2v-6.6h1.7c1,0,1.9,0.9,1.9,1.9v2.8c0,1-0.8,1.9-1.9,1.9H55.7L55.7,32.2z M53,15.5v19.3h4.5
				c2.5,0,4.5-2,4.5-4.5v-2.8c0-2.5-2-4.5-4.5-4.5h-1.7v-7.6"/>
			<path id="path10551" d="M68.8,21.5h-1.4c-0.8,0-1.4-0.6-1.4-1.4v-0.7c0-0.8,0.6-1.4,1.4-1.4s1.4,0.6,1.4,1.4V21.5L68.8,21.5z
				 M71.6,15.5h-2.8v1.4c-0.8-1.4-2.5-2-4-1.2c-1,0.5-1.6,1.5-1.6,2.6v2.1c0,1.9,1.5,3.4,3.4,3.4h2.1v1.6c0,0.8-0.6,1.4-1.4,1.4
				s-1.4-0.6-1.4-1.4h-2.8c0,2.3,1.9,4.1,4.1,4.1c2.3,0,4.1-1.9,4.1-4.1"/>
			<path id="path10553" d="M74.4,15.5v13.8h2.8v-1.6c0.9,1.1,2.2,1.7,3.6,1.7v-2.9c-1.4,0.5-3-0.3-3.5-1.8c-0.1-0.3-0.1-0.6-0.1-0.9
				v-8.4"/>
			<path id="path10555" d="M82.5,15.5v19.3h2.7V23.3l3.4,6h2.8l-3.3-5.5l4-8.3H89l-2.4,5.9l-1.4-2.1v-3.8"/>
			<path id="path10557" d="M95.9,23.6h2.8v1.7c0,0.8-0.6,1.4-1.4,1.4s-1.4-0.6-1.4-1.4V23.6z M101.4,19.5c0-2.3-1.9-4.1-4.1-4.1
				c-2.3,0-4.1,1.9-4.1,4.1v5.9c0,2.3,1.9,4.1,4.1,4.1c2.3,0,4.1-1.9,4.1-4.1v-4h-5.5v-1.9c0-0.8,0.6-1.4,1.4-1.4s1.4,0.6,1.4,1.4"
				/>
			<path id="path10559" d="M103.8,15.5v13.8h2.8v-1.4c0.8,1.4,2.5,2,4,1.2c1-0.5,1.6-1.5,1.6-2.6v-11h-2.8v9.8
				c0,0.8-0.6,1.4-1.4,1.4s-1.4-0.6-1.4-1.4v-9.8"/>
			<path id="path10561" d="M125.9,32.1h-2.8v2.8h2.8V32.1z M123.1,15.5v13.8h2.8V15.5"/>
			<path id="path10563" d="M128.7,15.5v13.8h2.8v-1.4c0.8,1.4,2.5,2,4,1.2c1-0.5,1.6-1.5,1.6-2.6v-11h-2.9v9.8
				c0,0.8-0.6,1.4-1.4,1.4c-0.8,0-1.4-0.6-1.4-1.4v-9.8"/>
			<path id="path10565" d="M21.7-6.8V-1c0,0.8-0.6,1.4-1.4,1.4S18.9-0.2,18.9-1v-5.9c0-0.8,0.6-1.4,1.4-1.4
				C21.1-8.2,21.7-7.6,21.7-6.8z M18.9-12.3c0-0.8,0.6-1.4,1.4-1.4s1.4,0.6,1.4,1.4v2.9c-0.8-1.4-2.5-2-4-1.2
				c-0.9,0.5-1.5,1.5-1.5,2.6v8.3c0,1.6,1.3,2.9,2.9,2.9c1.1,0,2.1-0.6,2.6-1.6V3h2.8v-15.3c0-2.3-1.9-4.1-4.1-4.1
				c-2.3,0-4.1,1.9-4.1,4.1"/>
			<path id="path10567" d="M30-2.7h2.8V-1c0,0.8-0.6,1.4-1.4,1.4C30.6,0.4,30-0.2,30-1V-2.7z M35.5-6.8c0-2.3-1.9-4.1-4.1-4.1
				c-2.3-0.1-4.2,1.8-4.2,4.1V-1c0,2.3,1.9,4.1,4.1,4.1c2.3,0,4.1-1.9,4.1-4.1v-4h-5.5v-1.9c0-0.8,0.6-1.4,1.4-1.4
				c0.8,0,1.4,0.6,1.4,1.4"/>
			<path id="path10569" d="M37.9-10.8V8.5h2.8V-3l3.4,6h2.8l-3.3-5.5l4-8.3h-3.1l-2.4,5.9L40.6-7v-3.8"/>
			<path id="path10571" d="M51.3-2.7h2.8V-1c0,0.8-0.6,1.4-1.4,1.4c-0.8,0-1.4-0.6-1.4-1.4C51.3-1,51.3-2.7,51.3-2.7z M56.9-6.8
				c0-2.3-1.9-4.1-4.1-4.1c-2.3,0-4.1,1.9-4.1,4.1V-1c0,2.3,1.9,4.1,4.1,4.1c2.3,0,4.1-1.9,4.1-4.1v-4h-5.5v-1.9
				c0-0.8,0.6-1.4,1.4-1.4c0.8,0,1.4,0.6,1.4,1.4"/>
			<path id="path10573" d="M59.3-10.8V3h2.8V1.6c0.8,1.4,2.5,2,4,1.2c1-0.5,1.6-1.5,1.6-2.6v-11h-2.8V-1c0,0.8-0.6,1.4-1.4,1.4
				c-0.8,0-1.4-0.6-1.4-1.4v-9.8"/>
			<path id="path10575" d="M70.3-10.8V3h2.8V1.6c0.8,1.4,2.5,2,4,1.2c1-0.5,1.6-1.5,1.6-2.6v-11h-2.8V-1c0,0.8-0.6,1.4-1.4,1.4
				S73.1-0.2,73.1-1v-9.8"/>
			<path id="path10577" d="M80.3-10.8v2.2l4.5,9.1h-4.1V3h7.2V0.9l-4.5-9.1h4.5v-2.6"/>
			<path id="path10579" d="M92.4-2.7h2.8V-1c0,0.8-0.6,1.4-1.4,1.4S92.4-0.2,92.4-1V-2.7z M97.9-6.8c0-2.3-1.9-4.1-4.1-4.1
				c-2.3,0-4.1,1.9-4.1,4.1V-1c0,2.3,1.9,4.1,4.1,4.1c2.3,0,4.1-1.9,4.1-4.1v-4h-5.5v-1.9c0-0.8,0.6-1.4,1.4-1.4s1.4,0.6,1.4,1.4"/>
			<path id="path10581" d="M103.1,5.8h-2.8v2.8h2.8V5.8z M100.3-10.8V3h2.8v-13.8"/>
			<path id="path10583" d="M114.1-6.6v-0.2c0-2.3-1.9-4.1-4.1-4.1c-2.3,0-4.1,1.9-4.1,4.1V-1c0,2.3,1.9,4.1,4.1,4.1
				c2.3,0,4.1-1.9,4.1-4.1v-0.2h-2.8V-1c0,0.8-0.6,1.4-1.4,1.4s-1.4-0.6-1.4-1.4v-5.9c0-0.8,0.6-1.4,1.4-1.4s1.4,0.6,1.4,1.4v0.2"/>
			<path id="path10585" d="M115.8-10.8V8.5h2.8V1.6c0.8,1.4,2.5,2,4,1.2c1-0.5,1.6-1.5,1.6-2.6v-11h-2.8V-1c0,0.8-0.6,1.4-1.4,1.4
				s-1.4-0.6-1.4-1.4v-9.8"/>
			<path id="path10587" d="M126.8-10.8V3h2.8V1.6c0.8,1.4,2.5,2,4,1.2c1-0.5,1.6-1.5,1.6-2.6v-11h-2.8V-1c0,0.8-0.6,1.4-1.4,1.4
				c-0.8,0-1.4-0.6-1.4-1.4v-9.8"/>
			<path id="path10589" d="M140.3-2.7h2.8V-1c0,0.8-0.6,1.4-1.4,1.4c-0.8,0-1.4-0.6-1.4-1.4L140.3-2.7L140.3-2.7z M145.8-6.8
				c0-2.3-1.9-4.1-4.1-4.1c-2.3,0-4.1,1.9-4.1,4.1V-1c0,2.3,1.9,4.1,4.1,4.1c2.3,0,4.1-1.9,4.1-4.1v-4h-5.5v-1.9
				c0-0.8,0.6-1.4,1.4-1.4c0.8,0,1.4,0.6,1.4,1.4"/>
			<path id="path10591" d="M153.1-10.8h-1.4c-1.7,0-3.1,1.4-3.1,3.1v8.4h-1.4V3h1.4v4.1h2.8V3h1.7V0.8h-1.7v-8.1
				c0-0.5,0.4-0.9,0.9-0.9h0.9"/>
			<path id="path10593" d="M157.5-2.7h2.8V-1c0,0.8-0.6,1.4-1.4,1.4c-0.8,0-1.4-0.6-1.4-1.4L157.5-2.7L157.5-2.7z M163.1-6.8
				c0-2.3-1.9-4.1-4.1-4.1c-2.3,0-4.1,1.9-4.1,4.1V-1c0,2.3,1.9,4.1,4.1,4.1c2.3,0,4.1-1.9,4.1-4.1v-4h-5.5v-1.9
				c0-0.8,0.6-1.4,1.4-1.4c0.8,0,1.4,0.6,1.4,1.4"/>
			<path id="path10595" d="M165.5-10.8V3h2.8V1.6c0.8,1.4,2.5,2,4,1.2c1-0.5,1.6-1.5,1.6-2.6v-11h-2.8V-1c0,0.8-0.6,1.4-1.4,1.4
				c-0.8,0-1.4-0.6-1.4-1.4v-9.8"/>
			<path id="path10597" d="M25-37.1v19.3h8.3v-2.6h-5.5v-5.9h4.8v-2.6h-4.8v-8.3"/>
			<path id="path10599" d="M39.5-37.1h-1c-1.7,0-3.1,1.4-3.1,3.1v16.2h2.8v-15.9c0-0.5,0.4-0.9,0.9-0.9h0.5"/>
			<path id="path10601" d="M48.8-20.5H46v2.8h2.8V-20.5z M44.7-20.5h-2.8v2.8h2.8V-20.5z M46.8-31h-1.4c-0.8,0-1.4-0.6-1.4-1.4v-0.7
				c0-0.8,0.6-1.4,1.4-1.4s1.4,0.6,1.4,1.4V-31z M49.5-37.1h-2.8v1.4c-0.8-1.4-2.5-2-4-1.2c-1,0.5-1.6,1.5-1.6,2.6v2.1
				c0,1.9,1.5,3.4,3.4,3.4h2.1v1.6c0,0.8-0.6,1.4-1.4,1.4s-1.4-0.6-1.4-1.4H41c0,2.3,1.9,4.1,4.1,4.1s4.1-1.9,4.1-4.1"/>
			<path id="path10603" d="M60.2-32.9v-0.2c0-2.3-1.9-4.1-4.1-4.1c-2.3,0-4.1,1.9-4.1,4.1v5.9c0,2.3,1.9,4.1,4.1,4.1
				c2.3,0,4.1-1.9,4.1-4.1v-0.2h-2.8v0.2c0,0.8-0.6,1.4-1.4,1.4c-0.8,0-1.4-0.6-1.4-1.4v-5.9c0-0.8,0.6-1.4,1.4-1.4
				c0.8,0,1.4,0.6,1.4,1.4v0.2"/>
			<path id="path10605" d="M61.9-37.1v19.3h2.8v-6.9c0.8,1.4,2.5,2,4,1.2c1-0.5,1.6-1.5,1.6-2.6v-11h-2.8v9.8c0,0.8-0.6,1.4-1.4,1.4
				s-1.4-0.6-1.4-1.4v-9.8"/>
			<path id="path10607" d="M75.4-29h2.8v1.7c0,0.8-0.6,1.4-1.4,1.4s-1.4-0.6-1.4-1.4C75.4-27.2,75.4-29,75.4-29z M80.9-33.1
				c0-2.3-1.9-4.1-4.1-4.1c-2.3,0-4.1,1.9-4.1,4.1v5.9c0,2.3,1.9,4.1,4.1,4.1c2.3,0,4.1-1.9,4.1-4.1v-4h-5.5v-1.9
				c0-0.8,0.6-1.4,1.4-1.4s1.4,0.6,1.4,1.4"/>
			<path id="path10609" d="M83.3-37.1v13.8h2.8v-1.4c0.8,1.4,2.5,2,4,1.2c1-0.5,1.6-1.5,1.6-2.6v-11h-2.8v9.8c0,0.8-0.6,1.4-1.4,1.4
				s-1.4-0.6-1.4-1.4v-9.8"/>
			<path id="path10611" d="M105.4-29h2.8v1.7c0,0.8-0.6,1.4-1.4,1.4s-1.4-0.6-1.4-1.4V-29L105.4-29z M110.9-33.1
				c0-2.3-1.9-4.1-4.1-4.1c-2.3,0-4.1,1.9-4.1,4.1v5.9c0,2.3,1.9,4.1,4.1,4.1c2.3,0,4.1-1.9,4.1-4.1v-4h-5.5v-1.9
				c0-0.8,0.6-1.4,1.4-1.4s1.4,0.6,1.4,1.4"/>
			<path id="path10613" d="M113.3-37.1v13.8h2.8v-1.6c0.9,1.1,2.2,1.7,3.6,1.7V-26c-1.5,0.5-3-0.3-3.5-1.8c-0.1-0.3-0.1-0.6-0.1-0.9
				v-8.4"/>
			<path id="path10615" d="M125.2-37.1h-1c-1.7,0-3.1,1.4-3.1,3.1v16.2h2.8v-15.9c0-0.5,0.4-0.9,0.9-0.9h0.5"/>
			<path id="path10617" d="M132.5-31h-1.4c-0.8,0-1.4-0.6-1.4-1.4v-0.7c0-0.8,0.6-1.4,1.4-1.4c0.8,0,1.4,0.6,1.4,1.4V-31z
				 M135.2-37.1h-2.8v1.4c-0.8-1.4-2.5-2-4-1.2c-1,0.5-1.5,1.5-1.5,2.6v2.1c0,1.9,1.5,3.4,3.4,3.4h2.1v1.6c0,0.8-0.6,1.4-1.4,1.4
				c-0.8,0-1.4-0.6-1.4-1.4h-2.8c0,2.3,1.8,4.1,4.1,4.1s4.1-1.9,4.1-4.1"/>
			<path id="path10619" d="M146.2-37.1h-2.8v1.4c-0.8-1.4-2.5-2-4-1.2c-1,0.5-1.6,1.5-1.6,2.6v11h2.8v-9.8c0-0.8,0.6-1.4,1.4-1.4
				c0.8,0,1.4,0.6,1.4,1.4v9.8h2.8"/>
			<path id="path10621" d="M151.8-33.1c0-0.8,0.6-1.4,1.4-1.4c0.8,0,1.4,0.6,1.4,1.4v5.9c0,0.8-0.6,1.4-1.4,1.4
				c-0.8,0-1.4-0.6-1.4-1.4C151.8-27.2,151.8-33.1,151.8-33.1z M149-37.1v19.3h2.8v-6.9c0.8,1.4,2.5,2,4,1.2c1-0.5,1.6-1.5,1.6-2.6
				v-8.3c0-1.6-1.3-2.9-2.9-2.9c-1.1,0-2.1,0.6-2.6,1.6v-1.4"/>
			<path id="path10623" d="M164.9-37.1h-1.4c-1.7,0-3.1,1.4-3.1,3.1v8.4H159v2.2h1.4v4.1h2.8v-4.1h1.7v-2.2h-1.7v-8.1
				c0-0.5,0.4-0.9,0.9-0.9h0.9"/>
		</g>
	</g>
</g>
<g id="Layer_2_1_" class="st4">
</g>
</svg>
