<?xml version="1.0" encoding="utf-8"?>
<!-- Generator: Adobe Illustrator 22.0.1, SVG Export Plug-In . SVG Version: 6.00 Build 0)  -->
<svg version="1.1" xmlns="http://www.w3.org/2000/svg" xmlns:xlink="http://www.w3.org/1999/xlink" x="0px" y="0px"
	 viewBox="0 0 235.4 429.7" style="enable-background:new 0 0 235.4 429.7;" xml:space="preserve">
<style type="text/css">
	.st0{fill:url(#SVGID_1_);}
	.st1{fill:#FFFFFF;}
	.st2{fill:#154889;}
	.st3{clip-path:url(#SVGID_3_);}
	.st4{display:none;}
</style>
<g id="svg3666" xmlns:cc="http://creativecommons.org/ns#" xmlns:dc="http://purl.org/dc/elements/1.1/" xmlns:rdf="http://www.w3.org/1999/02/22-rdf-syntax-ns#" xmlns:svg="http://www.w3.org/2000/svg">
	<linearGradient id="SVGID_1_" gradientUnits="userSpaceOnUse" x1="104.1892" y1="278.5083" x2="131.1892" y2="278.5083">
		<stop  offset="0" style="stop-color:#EDEBE9"/>
		<stop  offset="0" style="stop-color:#E1DEDA"/>
		<stop  offset="0" style="stop-color:#D6D1CC"/>
		<stop  offset="6.975419e-02" style="stop-color:#C7C3BE"/>
		<stop  offset="0.1461" style="stop-color:#B2AEAA"/>
		<stop  offset="0.5225" style="stop-color:#E6E6E6"/>
		<stop  offset="0.633" style="stop-color:#D9D8D7"/>
		<stop  offset="0.8443" style="stop-color:#B8B4B0"/>
		<stop  offset="0.8764" style="stop-color:#B2AEAA"/>
		<stop  offset="1" style="stop-color:#D9D9D9"/>
		<stop  offset="1" style="stop-color:#B1B1B1"/>
	</linearGradient>
	<polygon class="st0" points="131.2,429.7 124.8,423.7 118.3,429.7 110.8,423.7 104.2,429.7 104.2,127.3 131.2,127.3 	"/>
	<g id="g3674" transform="matrix(1.25,0,0,-1.25,0,601.00159)">
		<g id="g3676">
			<path id="path3678" class="st1" d="M11.8,480.6c-11.3,0-11.2-11.2-11.2-11.2V304.7c0,0,0-11.2,11.2-11.2h164.7
				c11.3,0,11.2,11.2,11.2,11.2v164.7c0,0,0.1,11.3-11.2,11.2C176.5,480.6,11.8,480.6,11.8,480.6z"/>
			<path id="path3680" class="st2" d="M11.8,476.9c-4.1,0-7.5-3.4-7.5-7.5V304.7c0-4.1,3.4-7.5,7.5-7.5h164.7c4.1,0,7.5,3.4,7.5,7.5
				v164.7c0,4.1-3.4,7.5-7.5,7.5H11.8L11.8,476.9z"/>
			<path id="path3682" d="M11.8,480.8c-5.7,0-8.6-2.9-10-5.7c-1.4-2.8-1.4-5.7-1.4-5.7V304.7c0,0,0-2.8,1.4-5.7
				c1.4-2.8,4.3-5.7,10-5.7h164.7c5.7,0,8.6,2.9,10,5.7c1.4,2.8,1.4,5.7,1.4,5.7v164.7c0,0,0,2.9-1.4,5.7c-1.4,2.9-4.3,5.7-10,5.7
				H11.8L11.8,480.8z M11.8,480.6h164.7c11.3,0,11.2-11.2,11.2-11.2V304.7c0,0,0.1-11.2-11.2-11.2H11.8c-11.3,0-11.2,11.2-11.2,11.2
				v164.7C0.6,469.4,0.5,480.7,11.8,480.6L11.8,480.6z"/>
			<path id="path3684" class="st1" d="M98.4,433.7H68.3v-41.6h30.8c7.1,0,12.5,2.2,16,6.5c3.5,4.4,5.3,9.1,5.3,14.2
				c0,7.8-2.8,13.5-8.3,17.2C108.5,432.5,104,433.7,98.4,433.7L98.4,433.7z M67.9,321.5H48l0.2,131l49.2,0.1c5,0,9.8-0.5,14.5-1.6
				c4.6-1.1,9.5-3.6,14.5-7.5c3.9-3,7.2-7.2,9.9-12.6c2.7-5.3,4.1-11.5,4.1-18.5c0-9.3-3.4-18.2-10.2-26.5
				c-6.8-8.4-16.8-12.6-29.9-12.6H68.3L67.9,321.5L67.9,321.5z"/>
		</g>
	</g>
	<g id="g4568" transform="matrix(1.25,0,0,-1.25,0,330)">
		<g id="g4570">
			<g id="g4572">
				<g id="g4574">
				</g>
				<g id="g4580">
					<g>
						<defs>
							<rect id="SVGID_2_" x="-23.5" y="-65.3" width="235.4" height="129.5"/>
						</defs>
						<clipPath id="SVGID_3_">
							<use xlink:href="#SVGID_2_"  style="overflow:visible;"/>
						</clipPath>
						<g id="g4582" class="st3">
							<g id="g4584">
								<path id="path4586" class="st1" d="M12.6,51.1c-6.9,0-12.5-5.6-12.5-12.5v-78.5c0-6.9,5.6-12.5,12.5-12.5h163.2
									c6.9,0,12.5,5.6,12.5,12.5v78.5c0,6.9-5.6,12.5-12.5,12.5"/>
								<path id="path4588" d="M12.6-52.2c-6.8,0-12.4,5.5-12.4,12.4v78.5C0.2,45.4,5.7,51,12.6,51h163.2c6.8,0,12.4-5.5,12.4-12.4
									v-78.5c0-6.8-5.5-12.4-12.4-12.4L12.6-52.2L12.6-52.2z M175.8,51.2H12.6C5.6,51.2,0,45.5,0,38.6v-78.5
									c0-6.9,5.6-12.6,12.6-12.6h163.2c6.9,0,12.6,5.6,12.6,12.6v78.5C188.3,45.5,182.7,51.2,175.8,51.2"/>
							</g>
						</g>
					</g>
				</g>
			</g>
		</g>
		<g id="g4590">
			<path id="path4592" d="M12.6-44.6h163.2c2.6,0,4.7,2.1,4.7,4.7v78.5c0,2.6-2.1,4.7-4.7,4.7H12.6c-2.6,0-4.7-2.1-4.7-4.7v-78.5
				C7.8-42.4,10-44.6,12.6-44.6z M12.6-49.3c-5.2,0-9.4,4.2-9.4,9.4v78.5c0,5.2,4.2,9.4,9.4,9.4h163.2c5.2,0,9.4-4.2,9.4-9.4v-78.5
				c0-5.2-4.2-9.4-9.4-9.4"/>
			<path id="path4594" d="M33-20.1h-6.8c-1.5,0-2.7,1.2-2.7,2.7v12.6c0,1.3,1,2.5,2.3,2.7l38.5,6.4l18.2,18.2
				c0.5,0.5,1.2,0.8,1.9,0.8h52.2c0.6,0,1.2-0.2,1.7-0.6l25.4-20.3c0.6-0.5,1-1.3,1-2.1v-17.7c0-1.5-1.2-2.7-2.7-2.7h-5.4
				c0,7.5-6.1,13.6-13.6,13.6c-7.5,0-13.6-6.1-13.6-13.6H60.2c0,7.5-6.1,13.6-13.6,13.6C39.1-6.5,33-12.6,33-20.1L33-20.1z
				 M153.9-20.1c0-6-4.9-10.9-10.9-10.9s-10.9,4.9-10.9,10.9S137-9.2,143-9.2S153.9-14.1,153.9-20.1L153.9-20.1z M57.5-20.1
				c0-6-4.9-10.9-10.9-10.9c-6,0-10.9,4.9-10.9,10.9S40.6-9.2,46.6-9.2C52.6-9.2,57.5-14.1,57.5-20.1"/>
			<path id="path4596" class="st1" d="M111.8,1.7V18H131c0.7,0,1.4-0.3,1.9-0.8l10.9-10.9c1.1-1.1,1.1-2.8,0-3.8
				c-0.5-0.5-1.2-0.8-1.9-0.8L111.8,1.7L111.8,1.7z M107.7,1.7H70.3c-0.8,0-1.4,0.6-1.4,1.4c0,0.4,0.1,0.7,0.4,1l13.2,13.2
				c0.5,0.5,1.2,0.8,1.9,0.8h23.3"/>
		</g>
	</g>
</g>
<g id="Layer_2" class="st4">
</g>
</svg>
