<?xml version="1.0" encoding="utf-8"?>
<!-- Generator: Adobe Illustrator 22.0.1, SVG Export Plug-In . SVG Version: 6.00 Build 0)  -->
<svg version="1.1" xmlns="http://www.w3.org/2000/svg" xmlns:xlink="http://www.w3.org/1999/xlink" x="0px" y="0px"
	 viewBox="0 0 235.4 429.7" style="enable-background:new 0 0 235.4 429.7;" xml:space="preserve">
<style type="text/css">
	.st0{fill:url(#SVGID_1_);}
	.st1{fill:#FFFFFF;}
	.st2{fill:#154889;}
	.st3{fill:none;stroke:#000000;stroke-miterlimit:10;}
	.st4{display:none;}
</style>
<g id="svg3666" xmlns:cc="http://creativecommons.org/ns#" xmlns:dc="http://purl.org/dc/elements/1.1/" xmlns:rdf="http://www.w3.org/1999/02/22-rdf-syntax-ns#" xmlns:svg="http://www.w3.org/2000/svg">
	<linearGradient id="SVGID_1_" gradientUnits="userSpaceOnUse" x1="104.1892" y1="278.5083" x2="131.1892" y2="278.5083">
		<stop  offset="0" style="stop-color:#EDEBE9"/>
		<stop  offset="0" style="stop-color:#E1DEDA"/>
		<stop  offset="0" style="stop-color:#D6D1CC"/>
		<stop  offset="6.975419e-02" style="stop-color:#C7C3BE"/>
		<stop  offset="0.1461" style="stop-color:#B2AEAA"/>
		<stop  offset="0.5225" style="stop-color:#E6E6E6"/>
		<stop  offset="0.633" style="stop-color:#D9D8D7"/>
		<stop  offset="0.8443" style="stop-color:#B8B4B0"/>
		<stop  offset="0.8764" style="stop-color:#B2AEAA"/>
		<stop  offset="1" style="stop-color:#D9D9D9"/>
		<stop  offset="1" style="stop-color:#B1B1B1"/>
	</linearGradient>
	<polygon class="st0" points="131.2,429.7 124.8,423.7 118.3,429.7 110.8,423.7 104.2,429.7 104.2,127.3 131.2,127.3 	"/>
	<g id="g3674" transform="matrix(1.25,0,0,-1.25,0,601.00159)">
		<g id="g3676">
			<path id="path3678" class="st1" d="M11.8,480.6c-11.3,0-11.2-11.2-11.2-11.2V304.7c0,0,0-11.2,11.2-11.2h164.7
				c11.3,0,11.2,11.2,11.2,11.2v164.7c0,0,0.1,11.3-11.2,11.2C176.5,480.6,11.8,480.6,11.8,480.6z"/>
			<path id="path3680" class="st2" d="M11.8,476.9c-4.1,0-7.5-3.4-7.5-7.5V304.7c0-4.1,3.4-7.5,7.5-7.5h164.7c4.1,0,7.5,3.4,7.5,7.5
				v164.7c0,4.1-3.4,7.5-7.5,7.5H11.8L11.8,476.9z"/>
			<path id="path3682" d="M11.8,480.8c-5.7,0-8.6-2.9-10-5.7c-1.4-2.8-1.4-5.7-1.4-5.7V304.7c0,0,0-2.8,1.4-5.7
				c1.4-2.8,4.3-5.7,10-5.7h164.7c5.7,0,8.6,2.9,10,5.7c1.4,2.8,1.4,5.7,1.4,5.7v164.7c0,0,0,2.9-1.4,5.7c-1.4,2.9-4.3,5.7-10,5.7
				H11.8L11.8,480.8z M11.8,480.6h164.7c11.3,0,11.2-11.2,11.2-11.2V304.7c0,0,0.1-11.2-11.2-11.2H11.8c-11.3,0-11.2,11.2-11.2,11.2
				v164.7C0.6,469.4,0.5,480.7,11.8,480.6L11.8,480.6z"/>
			<path id="path3684" class="st1" d="M98.4,433.7H68.3v-41.6h30.8c7.1,0,12.5,2.2,16,6.5c3.5,4.4,5.3,9.1,5.3,14.2
				c0,7.8-2.8,13.5-8.3,17.2C108.5,432.5,104,433.7,98.4,433.7L98.4,433.7z M67.9,321.5H48l0.2,131l49.2,0.1c5,0,9.8-0.5,14.5-1.6
				c4.6-1.1,9.5-3.6,14.5-7.5c3.9-3,7.2-7.2,9.9-12.6c2.7-5.3,4.1-11.5,4.1-18.5c0-9.3-3.4-18.2-10.2-26.5
				c-6.8-8.4-16.8-12.6-29.9-12.6H68.3L67.9,321.5L67.9,321.5z"/>
		</g>
	</g>
	<g id="g8646" transform="matrix(1.25,0,0,-1.25,0,330)">
		<g id="g8648">
			<g id="path8650">
				<path class="st1" d="M-0.1-39.4c0-7.1,5.7-12.8,12.8-12.8H175c7.1,0,12.8,5.7,12.8,12.8v77.7c0,7.1-5.7,12.8-12.8,12.8H12.7
					c-7.1,0-12.8-5.7-12.8-12.8V-39.4z"/>
				<path class="st3" d="M-0.1-39.4c0-7.1,5.7-12.8,12.8-12.8H175c7.1,0,12.8,5.7,12.8,12.8v77.7c0,7.1-5.7,12.8-12.8,12.8H12.7
					c-7.1,0-12.8-5.7-12.8-12.8V-39.4z"/>
			</g>
			<path id="path8652" d="M12.4-44.4h162.8c2.6,0,4.7,2.1,4.7,4.7v78.3c0,2.6-2.1,4.7-4.7,4.7H12.4c-2.6,0-4.7-2.1-4.7-4.7v-78.3
				C7.7-42.3,9.8-44.4,12.4-44.4z M12.4-49.1c-5.2,0-9.4,4.2-9.4,9.4v78.3c0,5.2,4.2,9.4,9.4,9.4h162.8c5.2,0,9.4-4.2,9.4-9.4v-78.3
				c0-5.2-4.2-9.4-9.4-9.4"/>
			<path id="path8654" d="M57.4,29.2c-1.1,0-2-0.8-2.2-1.9l-4.6-26c-0.1-0.3,0-0.6,0-0.9l4.9-23.4H37v-4.5h54.4
				c0,6.3,5.1,11.3,11.3,11.3c6.3,0,11.3-5.1,11.3-11.3h29.8c1.1,0,2,0.8,2.2,1.9l4.6,26.1c0,0.3,0,0.5,0,0.8l-4.6,26.1
				c-0.2,1.1-1.1,1.9-2.2,1.9H57.4L57.4,29.2z M66.4,20.1h18.1c0.6,0,1.1-0.5,1.1-1.1v-40.8c0-0.6-0.5-1.1-1.1-1.1H66.4
				c-0.6,0-1.1,0.5-1.1,1.1V19C65.3,19.6,65.8,20.1,66.4,20.1z M111.8,20.1h26.1c0.6,0,1.1-0.5,1.1-1.1V6.5c0-0.6-0.5-1.1-1.1-1.1
				h-26.1c-0.6,0-1.1,0.5-1.1,1.1V19C110.6,19.6,111.1,20.1,111.8,20.1z M102.7-18.4c-5,0-9.1-4.1-9.1-9.1c0-5,4.1-9.1,9.1-9.1
				c5,0,9.1,4.1,9.1,9.1C111.8-22.5,107.7-18.4,102.7-18.4z"/>
		</g>
	</g>
</g>
<g id="Layer_2" class="st4">
</g>
</svg>
