<?xml version="1.0" encoding="utf-8"?>
<!-- Generator: Adobe Illustrator 22.0.1, SVG Export Plug-In . SVG Version: 6.00 Build 0)  -->
<svg version="1.1" xmlns="http://www.w3.org/2000/svg" xmlns:xlink="http://www.w3.org/1999/xlink" x="0px" y="0px"
	 viewBox="0 0 235.4 429.7" style="enable-background:new 0 0 235.4 429.7;" xml:space="preserve">
<style type="text/css">
	.st0{fill:url(#SVGID_1_);}
	.st1{fill:#FFFFFF;}
	.st2{fill:#154889;}
	.st3{clip-path:url(#SVGID_3_);}
</style>
<g id="svg3666" xmlns:cc="http://creativecommons.org/ns#" xmlns:dc="http://purl.org/dc/elements/1.1/" xmlns:rdf="http://www.w3.org/1999/02/22-rdf-syntax-ns#" xmlns:svg="http://www.w3.org/2000/svg">
	<linearGradient id="SVGID_1_" gradientUnits="userSpaceOnUse" x1="104.1892" y1="278.5083" x2="131.1892" y2="278.5083">
		<stop  offset="0" style="stop-color:#EDEBE9"/>
		<stop  offset="0" style="stop-color:#E1DEDA"/>
		<stop  offset="0" style="stop-color:#D6D1CC"/>
		<stop  offset="6.975419e-02" style="stop-color:#C7C3BE"/>
		<stop  offset="0.1461" style="stop-color:#B2AEAA"/>
		<stop  offset="0.5225" style="stop-color:#E6E6E6"/>
		<stop  offset="0.633" style="stop-color:#D9D8D7"/>
		<stop  offset="0.8443" style="stop-color:#B8B4B0"/>
		<stop  offset="0.8764" style="stop-color:#B2AEAA"/>
		<stop  offset="1" style="stop-color:#D9D9D9"/>
		<stop  offset="1" style="stop-color:#B1B1B1"/>
	</linearGradient>
	<polygon class="st0" points="131.2,429.7 124.8,423.7 118.3,429.7 110.8,423.7 104.2,429.7 104.2,127.3 131.2,127.3 	"/>
	<g id="g3674" transform="matrix(1.25,0,0,-1.25,0,601.00159)">
		<g id="g3676">
			<path id="path3678" class="st1" d="M11.8,480.6c-11.3,0-11.2-11.2-11.2-11.2V304.7c0,0,0-11.2,11.2-11.2h164.7
				c11.3,0,11.2,11.2,11.2,11.2v164.7c0,0,0.1,11.3-11.2,11.2C176.5,480.6,11.8,480.6,11.8,480.6z"/>
			<path id="path3680" class="st2" d="M11.8,476.9c-4.1,0-7.5-3.4-7.5-7.5V304.7c0-4.1,3.4-7.5,7.5-7.5h164.7c4.1,0,7.5,3.4,7.5,7.5
				v164.7c0,4.1-3.4,7.5-7.5,7.5H11.8L11.8,476.9z"/>
			<path id="path3682" d="M11.8,480.8c-5.7,0-8.6-2.9-10-5.7c-1.4-2.8-1.4-5.7-1.4-5.7V304.7c0,0,0-2.8,1.4-5.7
				c1.4-2.8,4.3-5.7,10-5.7h164.7c5.7,0,8.6,2.9,10,5.7c1.4,2.8,1.4,5.7,1.4,5.7v164.7c0,0,0,2.9-1.4,5.7c-1.4,2.9-4.3,5.7-10,5.7
				H11.8L11.8,480.8z M11.8,480.6h164.7c11.3,0,11.2-11.2,11.2-11.2V304.7c0,0,0.1-11.2-11.2-11.2H11.8c-11.3,0-11.2,11.2-11.2,11.2
				v164.7C0.6,469.4,0.5,480.7,11.8,480.6L11.8,480.6z"/>
			<path id="path3684" class="st1" d="M98.4,433.7H68.3v-41.6h30.8c7.1,0,12.5,2.2,16,6.5c3.5,4.4,5.3,9.1,5.3,14.2
				c0,7.8-2.8,13.5-8.3,17.2C108.5,432.5,104,433.7,98.4,433.7L98.4,433.7z M67.9,321.5H48l0.2,131l49.2,0.1c5,0,9.8-0.5,14.5-1.6
				c4.6-1.1,9.5-3.6,14.5-7.5c3.9-3,7.2-7.2,9.9-12.6c2.7-5.3,4.1-11.5,4.1-18.5c0-9.3-3.4-18.2-10.2-26.5
				c-6.8-8.4-16.8-12.6-29.9-12.6H68.3L67.9,321.5L67.9,321.5z"/>
		</g>
	</g>
	<g id="g6316" transform="matrix(1.25,0,0,-1.25,0,330)">
		<g id="g6318">
			<g id="g6320">
				<g id="g6322">
					<g>
						<defs>
							<rect id="SVGID_2_" x="-23.5" y="-65.4" width="235.3" height="129.4"/>
						</defs>
						<clipPath id="SVGID_3_">
							<use xlink:href="#SVGID_2_"  style="overflow:visible;"/>
						</clipPath>
						<g id="g6324" class="st3">
							<g id="g6330">
								<path id="path6332" class="st1" d="M12.6,51C5.7,51,0.2,45.4,0.2,38.5v-78.4c0-6.9,5.6-12.5,12.5-12.5h163.1
									c6.9,0,12.5,5.6,12.5,12.5v78.4c0,6.9-5.6,12.5-12.5,12.5"/>
								<path id="path6334" d="M12.6-52.3c-6.8,0-12.4,5.5-12.4,12.4v78.4c0,6.8,5.5,12.4,12.4,12.4h163.1c6.8,0,12.4-5.5,12.4-12.4
									v-78.4c0-6.8-5.5-12.4-12.4-12.4L12.6-52.3L12.6-52.3z M175.8,51.1H12.6c-6.9,0-12.5-5.6-12.5-12.6v-78.4
									c0-6.9,5.6-12.5,12.5-12.5h163.1c6.9,0,12.5,5.6,12.5,12.5v78.4C188.3,45.5,182.7,51.1,175.8,51.1"/>
							</g>
						</g>
					</g>
				</g>
			</g>
			<path id="path6336" d="M12.6-44.6h163.1c2.6,0,4.7,2.1,4.7,4.7v78.4c0,2.6-2.1,4.7-4.7,4.7H12.6c-2.6,0-4.7-2.1-4.7-4.7v-78.4
				C7.9-42.5,10-44.6,12.6-44.6z M12.6-49.3c-5.2,0-9.4,4.2-9.4,9.4v78.4c0,5.2,4.2,9.4,9.4,9.4h163.1c5.2,0,9.4-4.2,9.4-9.4v-78.4
				c0-5.2-4.2-9.4-9.4-9.4"/>
			<path id="path6338" d="M145.3-13.3l1.1,1.1c0.9-0.9,2.3-1.2,3.5-0.8c0.4,0.2,0.6,0.6,0.5,1c-0.1,0.3-0.4,0.5-0.7,0.5l-1.7,0.1
				c-1.3,0.1-2.3,1.2-2.2,2.5c0.1,1,0.8,1.9,1.8,2.1c1.5,0.3,3,0,4.2-0.9l-1-1.2c-0.8,0.6-1.8,0.9-2.8,0.6c-0.4-0.1-0.7-0.5-0.6-0.9
				c0.1-0.3,0.4-0.6,0.7-0.6l1.7-0.1c1.3-0.1,2.3-1.2,2.2-2.5c-0.1-0.9-0.7-1.7-1.5-2.1C148.6-15.1,146.6-14.6,145.3-13.3
				L145.3-13.3z M143.3-5.1h-1.6v1.6h1.6V-5.1z M143.3-14.5h-1.6v7.8h1.6V-14.5z M134.7-9.8h3.3c0,0.9-0.7,1.7-1.7,1.7
				C135.4-8.2,134.7-8.9,134.7-9.8z M139.6-11.2h-4.9v-0.2c0-0.7,0.4-1.3,1-1.5c0.9-0.3,1.9-0.1,2.5,0.6l1.2-1
				c-1.1-1.2-2.8-1.6-4.3-1c-1.2,0.5-2,1.7-2,3v1.6c0,1.8,1.4,3.2,3.2,3.2c1.8,0,3.2-1.4,3.2-3.2V-11.2z M123.4-14.5l-2.5,7.8h1.7
				l1.5-5.5l1.8,5.5h1.2l1.8-5.5l1.5,5.5h1.7l-2.4-7.8h-1.4l-1.7,5.5l-1.7-5.5H123.4z M113.1-13.3l1.1,1.1c0.9-0.9,2.3-1.2,3.5-0.8
				c0.4,0.2,0.6,0.6,0.5,1c-0.1,0.3-0.4,0.5-0.7,0.5l-1.7,0.1c-1.3,0.1-2.3,1.2-2.2,2.5c0.1,1,0.8,1.9,1.8,2.1c1.5,0.3,3,0,4.2-0.9
				l-1-1.2c-0.8,0.6-1.8,0.9-2.8,0.6c-0.4-0.1-0.7-0.5-0.6-0.9c0.1-0.3,0.4-0.6,0.7-0.6l1.7-0.1c1.3-0.1,2.3-1.2,2.2-2.5
				c-0.1-0.9-0.7-1.7-1.5-2.1C116.5-15.1,114.5-14.6,113.1-13.3L113.1-13.3z M111.1-14.5h-1.6v0.9c-0.9-1.1-2.6-1.3-3.7-0.4
				c-0.6,0.5-1,1.3-1,2.1v5.3h1.6v-4.8c0-0.9,0.7-1.6,1.6-1.6c0.9,0,1.6,0.7,1.6,1.6v4.8h1.6C111.1-6.7,111.1-14.5,111.1-14.5z
				 M101.1-11.1h-2.3c-0.5,0-1-0.4-1-1s0.4-1,1-1h1.3c0.5,0,1,0.4,1,1V-11.1z M102.7-14.5h-1.6v0.8c-0.3-0.5-0.8-0.8-1.4-0.8h-1
				c-1.3,0-2.4,1.1-2.4,2.3c0,1.3,1.1,2.4,2.4,2.4h2.4v0.8c0,0.4-0.3,0.8-0.7,0.9c-0.6,0.1-1.1,0.1-1.7,0c-0.3,0-0.5-0.2-0.6-0.5
				l-1.2,1c0.4,0.6,1,0.9,1.6,1c0.7,0.1,1.5,0.1,2.2,0c1.2-0.2,2-1.2,2-2.4C102.7-9.1,102.7-14.5,102.7-14.5z M88.6-14.5v11h1.6
				v-6.9l3,3.7h1.9l-2.6-3l3-4.8h-2l-2.1,3.6l-1.3-1.4v-2.3H88.6z M82.1-14.5v7.8h1.6v-0.9c0.9,1.1,2.6,1.3,3.7,0.4v0l-1.1-1.4
				C85.7-8,84.7-8,84.1-8.7c-0.3-0.3-0.4-0.7-0.4-1v-4.8L82.1-14.5L82.1-14.5z M78.2-11.1H76c-0.5,0-1-0.4-1-1s0.4-1,1-1h1.3
				c0.5,0,1,0.4,1,1V-11.1z M79.8-14.5h-1.6v0.8c-0.3-0.5-0.8-0.8-1.4-0.8h-1c-1.3,0-2.3,1.1-2.3,2.3c0,1.3,1.1,2.4,2.3,2.4h2.4v0.8
				c0,0.4-0.3,0.8-0.7,0.9c-0.6,0.1-1.1,0.1-1.7,0c-0.3,0-0.5-0.2-0.6-0.5l-1.2,1c0.4,0.6,1,0.9,1.6,1c0.7,0.1,1.5,0.1,2.2,0
				c1.2-0.2,2-1.2,2-2.4L79.8-14.5L79.8-14.5z M66.5-8.7h2.5c1,0,1.8,0.8,1.8,1.8c0,1-0.8,1.8-1.8,1.8h-2.5
				C66.5-5.1,66.5-8.7,66.5-8.7z M64.9-14.5v11h4.3c1.8,0,3.3-1.5,3.3-3.3c0-1.8-1.5-3.3-3.3-3.3h-2.6v-4.3
				C66.5-14.5,64.9-14.5,64.9-14.5z M57-14.5h-1c-1,0-1.8,0.8-1.8,1.8V-8h-0.8v1.3h0.8v2.4h1.6v-2.4H57V-8h-1.2v-4.6
				c0-0.3,0.2-0.5,0.5-0.5H57V-14.5z M51.3-5.1h-1.6v1.6h1.6V-5.1z M51.3-14.5h-1.6v7.8h1.6V-14.5z M36.4-14.5v7.8H38v-0.9
				c0.9,1.1,2.6,1.3,3.7,0.4c0.2-0.1,0.3-0.3,0.5-0.5c1,1.3,2.9,1.4,4.1,0.4c0.7-0.6,1.1-1.4,1.1-2.3v-5h-1.6v4.8
				c0,0.9-0.7,1.6-1.6,1.6c-0.9,0-1.6-0.7-1.6-1.6v-4.8h-1.6v4.8c0,0.9-0.7,1.6-1.6,1.6c-0.9,0-1.6-0.7-1.6-1.6v-4.8"/>
			<path id="path6340" d="M126.7-31.8h-1.7v11h1.7C126.7-20.8,126.7-31.8,126.7-31.8z M122.5-31.8h-1.7v11h1.7
				C122.5-20.8,122.5-31.8,122.5-31.8z M118.3-31.8h-1.7v11h1.7C118.3-20.8,118.3-31.8,118.3-31.8z M114.1-31.8h-1.7v11h1.7
				C114.1-20.8,114.1-31.8,114.1-31.8z M109.9-31.8h-1.7v11h1.7C109.9-20.8,109.9-31.8,109.9-31.8z M105.7-31.8H104v11h1.7
				C105.7-20.8,105.7-31.8,105.7-31.8z M101.4-31.8h-1.7v11h1.7C101.4-20.8,101.4-31.8,101.4-31.8z M97.2-31.8h-1.7v11h1.7
				C97.2-20.8,97.2-31.8,97.2-31.8z M93-31.8h-1.7v11H93C93-20.8,93-31.8,93-31.8z M88.8-31.8h-1.7v11h1.7
				C88.8-20.8,88.8-31.8,88.8-31.8z M79.3-31.8h-1.6v1.6h1.6V-31.8z M72.4-31.8v7.8H74v-0.9c0.9,1.1,2.6,1.3,3.7,0.4h0l-1.1-1.4
				c-0.6,0.6-1.6,0.5-2.2-0.1c-0.3-0.3-0.4-0.7-0.4-1v-4.8L72.4-31.8C72.4-31.8,72.4-31.8,72.4-31.8z M61.6-31.8v11h1.6l5-7.8v7.8
				h1.7v-11h-1.6l-5,7.8v-7.8"/>
			<path id="path6342" d="M25,8.5v22h9c3.3,0,5.9-2.6,5.9-5.9c0-1.9-0.9-3.7-2.5-4.8c1.8-1.1,2.9-3.1,2.9-5.2c0-3.4-2.7-6.1-6.1-6.1
				C34.2,8.5,25,8.5,25,8.5z M28.3,11.7h5.5c1.8,0,3.3,1.5,3.3,3.3c0,1.8-1.5,3.3-3.3,3.3h-5.5V11.7z M28.3,21.3h5.3
				c1.7,0,3.1,1.4,3.1,3.1c0,1.7-1.4,3.1-3.1,3.1h-5.3V21.3z M57.1,15.2h-9.8v-0.4c0-1.4,0.8-2.6,2.1-3.1c0.5-0.2,1.1-0.3,1.6-0.3
				c1.3,0,2.5,0.6,3.3,1.5l2.4-2c-1.4-1.7-3.5-2.6-5.7-2.6c-1,0-1.9,0.2-2.8,0.5c-2.5,1-4.1,3.4-4.1,6V18c0,3.6,2.9,6.5,6.5,6.5
				s6.5-2.9,6.5-6.5V15.2L57.1,15.2z M47.3,18H54c0,1.8-1.5,3.3-3.3,3.3C48.8,21.3,47.3,19.8,47.3,18z M64.4,8.5l-4.9,15.7h3.3
				l2.9-11l3.5,11h2.4l3.5-11l2.9,11h3.3L76.6,8.5h-2.7l-3.3,11l-3.3-11L64.4,8.5L64.4,8.5z M83.8,14.8V18c0,3.6,2.9,6.5,6.5,6.5
				c3.6,0,6.5-2.9,6.5-6.5v-3.1c0-3.6-2.9-6.5-6.5-6.5C86.7,8.3,83.8,11.2,83.8,14.8z M86.9,14.8c0-1.8,1.5-3.3,3.3-3.3
				c1.8,0,3.3,1.5,3.3,3.3V18c0,1.8-1.5,3.3-3.3,3.3c-1.8,0-3.3-1.5-3.3-3.3V14.8z M101.1,8.5v22h3.1v-8c1,1.2,2.5,2,4.1,2
				c2.9,0,5.3-2.4,5.3-5.3V8.5h-3.1v9.6c0,1.7-1.4,3.1-3.1,3.1c-1.7,0-3.1-1.4-3.1-3.1V8.5H101.1z M118.3,8.5v15.7h3.1v-1.8
				c1,1.2,2.5,2,4.1,2c2.9,0,5.3-2.4,5.3-5.3V8.5h-3.1v9.6c0,1.7-1.4,3.1-3.1,3.1c-1.7,0-3.1-1.4-3.1-3.1V8.5H118.3z M148.1,15.2
				h-9.8v-0.4c0-1.4,0.8-2.6,2.1-3.1c0.5-0.2,1.1-0.3,1.6-0.3c1.3,0,2.5,0.6,3.3,1.5l2.4-2c-1.4-1.7-3.5-2.6-5.7-2.6
				c-1,0-1.9,0.2-2.8,0.5c-2.5,1-4.1,3.4-4.1,6V18c0,3.6,2.9,6.5,6.5,6.5c3.6,0,6.5-2.9,6.5-6.5V15.2L148.1,15.2z M138.3,18h6.7
				c0,1.8-1.5,3.3-3.3,3.3C139.8,21.3,138.3,19.8,138.3,18z M152.4,8.5v15.7h3.1v-1.8c1,1.2,2.5,2,4.1,2c1.2,0,2.4-0.4,3.3-1.2
				l-2.2-2.7c-0.6,0.5-1.3,0.8-2.1,0.8c-1.7,0-3.1-1.4-3.1-3.1V8.5L152.4,8.5"/>
		</g>
	</g>
</g>
<g id="Layer_2">
</g>
</svg>
