<?xml version="1.0" encoding="utf-8"?>
<!-- Generator: Adobe Illustrator 22.0.1, SVG Export Plug-In . SVG Version: 6.00 Build 0)  -->
<svg version="1.1" id="Layer_1" xmlns="http://www.w3.org/2000/svg" xmlns:xlink="http://www.w3.org/1999/xlink" x="0px" y="0px"
	 viewBox="0 0 235.4 429.7" style="enable-background:new 0 0 235.4 429.7;" xml:space="preserve">
<style type="text/css">
	.st0{fill:url(#SVGID_1_);}
	.st1{fill:#FFFFFF;}
	.st2{fill:#154889;}
	.st3{clip-path:url(#SVGID_3_);}
	.st4{clip-path:url(#SVGID_5_);}
	.st5{clip-path:url(#SVGID_7_);}
	.st6{fill:none;stroke:#FFFFFF;stroke-width:0.1956;stroke-miterlimit:10;}
	.st7{fill:none;stroke:#000000;stroke-width:9.778032e-02;stroke-miterlimit:10;}
</style>
<linearGradient id="SVGID_1_" gradientUnits="userSpaceOnUse" x1="104.2" y1="152.7756" x2="131.2" y2="152.7756" gradientTransform="matrix(1 0 0 -1 0 431.2756)">
	<stop  offset="0" style="stop-color:#EDEBE9"/>
	<stop  offset="0" style="stop-color:#E1DEDA"/>
	<stop  offset="0" style="stop-color:#D6D1CC"/>
	<stop  offset="6.975419e-02" style="stop-color:#C7C3BE"/>
	<stop  offset="0.1461" style="stop-color:#B2AEAA"/>
	<stop  offset="0.5225" style="stop-color:#E6E6E6"/>
	<stop  offset="0.633" style="stop-color:#D9D8D7"/>
	<stop  offset="0.8443" style="stop-color:#B8B4B0"/>
	<stop  offset="0.8764" style="stop-color:#B2AEAA"/>
	<stop  offset="1" style="stop-color:#D9D9D9"/>
	<stop  offset="1" style="stop-color:#B1B1B1"/>
</linearGradient>
<polygon class="st0" points="131.2,429.7 124.8,423.7 118.3,429.7 110.8,423.7 104.2,429.7 104.2,127.3 131.2,127.3 "/>
<g id="g3674" transform="matrix(1.25,0,0,-1.25,0,601.00159)">
	<g id="g3676">
		<path id="path3678" class="st1" d="M11.8,480.6c-11.3,0-11.2-11.2-11.2-11.2V304.7c0,0,0-11.2,11.2-11.2h164.7
			c11.3,0,11.2,11.2,11.2,11.2v164.7c0,0,0.1,11.3-11.2,11.2C176.5,480.6,11.8,480.6,11.8,480.6z"/>
		<path id="path3680" class="st2" d="M11.8,476.9c-4.1,0-7.5-3.4-7.5-7.5V304.7c0-4.1,3.4-7.5,7.5-7.5h164.7c4.1,0,7.5,3.4,7.5,7.5
			v164.7c0,4.1-3.4,7.5-7.5,7.5L11.8,476.9L11.8,476.9z"/>
		<path id="path3682" d="M11.8,480.8c-5.7,0-8.6-2.9-10-5.7c-1.4-2.8-1.4-5.7-1.4-5.7V304.7c0,0,0-2.8,1.4-5.7
			c1.4-2.8,4.3-5.7,10-5.7h164.7c5.7,0,8.6,2.9,10,5.7c1.4,2.8,1.4,5.7,1.4,5.7v164.7c0,0,0,2.9-1.4,5.7c-1.4,2.9-4.3,5.7-10,5.7
			L11.8,480.8L11.8,480.8z M11.8,480.6h164.7c11.3,0,11.2-11.2,11.2-11.2V304.7c0,0,0.1-11.2-11.2-11.2H11.8
			c-11.3,0-11.2,11.2-11.2,11.2v164.7C0.6,469.4,0.5,480.7,11.8,480.6L11.8,480.6z"/>
		<path id="path3684" class="st1" d="M98.4,433.7H68.3v-41.6h30.8c7.1,0,12.5,2.2,16,6.5c3.5,4.4,5.3,9.1,5.3,14.2
			c0,7.8-2.8,13.5-8.3,17.2C108.5,432.5,104,433.7,98.4,433.7L98.4,433.7z M67.9,321.5H48l0.2,131l49.2,0.1c5,0,9.8-0.5,14.5-1.6
			c4.6-1.1,9.5-3.6,14.5-7.5c3.9-3,7.2-7.2,9.9-12.6c2.7-5.3,4.1-11.5,4.1-18.5c0-9.3-3.4-18.2-10.2-26.5
			c-6.8-8.4-16.8-12.6-29.9-12.6h-32L67.9,321.5L67.9,321.5z"/>
	</g>
</g>
<g>
	<g id="g6335">
		<g id="g6337">
			<g>
				<g>
					<defs>
						<rect id="SVGID_2_" x="-29" y="251.3" width="292.7" height="161"/>
					</defs>
					<clipPath id="SVGID_3_">
						<use xlink:href="#SVGID_2_"  style="overflow:visible;"/>
					</clipPath>
					<g id="g6339" class="st3">
						<g id="g6345">
							<path id="path6347" class="st1" d="M218.8,267.6c8.5,0,15.5,7,15.5,15.5v97.5c0,8.5-7,15.5-15.5,15.5H15.9
								c-8.5,0-15.5-7-15.5-15.5v-97.5c0-8.5,7-15.5,15.5-15.5"/>
							<path id="path6349" d="M218.8,395.9c8.5,0,15.3-6.9,15.3-15.3v-97.5c0-8.5-6.9-15.3-15.3-15.3H15.9
								c-8.5,0-15.3,6.9-15.3,15.3v97.5c0,8.5,6.9,15.3,15.3,15.3H218.8L218.8,395.9z M15.9,267.5h202.9c8.6,0,15.6,7,15.6,15.6
								v97.5c0,8.6-7,15.6-15.6,15.6H15.9c-8.6,0-15.6-7-15.6-15.6v-97.5C0.4,274.5,7.3,267.5,15.9,267.5"/>
						</g>
					</g>
				</g>
			</g>
		</g>
	</g>
	<path id="path6351" d="M218.8,386.5H15.9c-3.2,0-5.9-2.6-5.9-5.9v-97.5c0-3.2,2.6-5.9,5.9-5.9h202.9c3.2,0,5.9,2.6,5.9,5.9v97.5
		C224.7,383.8,222.1,386.5,218.8,386.5z M218.8,392.3c6.5,0,11.7-5.2,11.7-11.7v-97.5c0-6.5-5.2-11.7-11.7-11.7H15.9
		c-6.5,0-11.7,5.2-11.7,11.7v97.5c0,6.5,5.2,11.7,11.7,11.7"/>
	<path id="path6353" d="M144,296.7v49.6H41.1v-49.6H144L144,296.7z M151.1,309.1l30.7,1.9c1.4,0.1,2.6,1,3.1,2.2l7.9,21
		c0.6,1.6,0.9,3.2,0.9,5v19.6c0,2-1.6,3.5-3.5,3.5h-1.7c0-8.9-7.1-16-16-16s-16,7.1-16,16H92.6c0-4.9-2.1-9.4-6-12.5h64.5V309.1z
		 M163.5,315.4v17.7l23.6,2.7c0.1,0,0.1,0,0.2,0c1,0,1.7-0.7,1.7-1.7c0-0.2,0-0.4-0.1-0.6l-6-15.8c-0.2-0.6-0.9-1.1-1.5-1.1
		L163.5,315.4z M172.4,349.9c6.9,0,12.5,5.6,12.5,12.5c0,6.9-5.6,12.5-12.5,12.5s-12.5-5.6-12.5-12.5
		C160,355.5,165.6,349.9,172.4,349.9z M76.5,349.9c6.9,0,12.5,5.6,12.5,12.5c0,6.9-5.6,12.5-12.5,12.5s-12.5-5.6-12.5-12.5
		C64.2,355.5,69.8,349.9,76.5,349.9z M66.6,349.9c-3.7,3-6,7.6-6,12.5h-8.9l-10.6-3.5V350h25.4V349.9z"/>
</g>
<g>
	<g>
		<defs>
			<rect id="SVGID_4_" x="177.3" y="-90.7" width="1.9" height="161.4"/>
		</defs>
		<clipPath id="SVGID_5_">
			<use xlink:href="#SVGID_4_"  style="overflow:visible;"/>
		</clipPath>
		<g id="g6331" transform="matrix(1.25,0,0,-1.25,0,330)" class="st4">
			<g id="g6355">
				<g id="g6357">
					<g id="g6363">
						<g id="g6365">
							<defs>
								<rect id="SVGID_6_" x="160.8" y="-90.7" width="22" height="161.4"/>
							</defs>
							<clipPath id="SVGID_7_">
								<use xlink:href="#SVGID_6_"  style="overflow:visible;"/>
							</clipPath>
							<g id="g6367" class="st5">
								<g id="g6373">
									<path id="path6375" class="st6" d="M177.6,145.8v4.4 M174.2,142.4h-4.4 M410.4,145.8v4.4 M413.7,142.4h4.4 M177.6-190.2
										v-4.4 M174.2-186.8h-4.4 M410.4-190.2v-4.4 M413.7-186.8h4.4"/>
									<path id="path6377" class="st7" d="M177.6,145.8v4.4 M174.2,142.4h-4.4 M410.4,145.8v4.4 M413.7,142.4h4.4 M177.6-190.2
										v-4.4 M174.2-186.8h-4.4 M410.4-190.2v-4.4 M413.7-186.8h4.4"/>
									<path id="path6379" class="st6" d="M284.6,150.5h18.8 M284.6-194.9h18.8 M169.5-12.8v-18.8 M418.4-12.8v-18.8 M294,155.2
										v-9.4 M294-190.2v-9.4 M164.8-22.2h9.4 M413.7-22.2h9.4 M294,150.5h2.3c0-1.3-1.1-2.3-2.3-2.3c-1.3,0-2.3,1.1-2.3,2.3
										c0,1.3,1,2.3,2.3,2.3s2.3-1.1,2.3-2.3 M294-194.9h2.3c0-1.3-1.1-2.3-2.3-2.3c-1.3,0-2.3,1.1-2.3,2.3c0,1.3,1,2.3,2.3,2.3
										s2.3-1.1,2.3-2.3 M169.5-22.2h2.3c0-1.3-1-2.3-2.3-2.3s-2.3,1.1-2.3,2.3c0,1.3,1.1,2.3,2.3,2.3c1.3,0,2.3-1.1,2.3-2.3
										 M418.4-22.2h2.3c0-1.3-1.1-2.3-2.3-2.3c-1.3,0-2.3,1.1-2.3,2.3c0,1.3,1.1,2.3,2.3,2.3c1.3,0,2.3-1.1,2.3-2.3"/>
									<path id="path6381" class="st7" d="M284.6,150.5h18.8 M284.6-194.9h18.8 M169.5-12.8v-18.8 M418.4-12.8v-18.8 M294,155.2
										v-9.4 M294-190.2v-9.4 M164.8-22.2h9.4 M413.7-22.2h9.4 M294,150.5h2.3c0-1.3-1.1-2.3-2.3-2.3c-1.3,0-2.3,1.1-2.3,2.3
										c0,1.3,1,2.3,2.3,2.3s2.3-1.1,2.3-2.3 M294-194.9h2.3c0-1.3-1.1-2.3-2.3-2.3c-1.3,0-2.3,1.1-2.3,2.3c0,1.3,1,2.3,2.3,2.3
										s2.3-1.1,2.3-2.3 M169.5-22.2h2.3c0-1.3-1-2.3-2.3-2.3s-2.3,1.1-2.3,2.3c0,1.3,1.1,2.3,2.3,2.3c1.3,0,2.3-1.1,2.3-2.3
										 M418.4-22.2h2.3c0-1.3-1.1-2.3-2.3-2.3c-1.3,0-2.3,1.1-2.3,2.3c0,1.3,1.1,2.3,2.3,2.3c1.3,0,2.3-1.1,2.3-2.3"/>
								</g>
							</g>
						</g>
					</g>
				</g>
			</g>
		</g>
	</g>
</g>
</svg>
