<?xml version="1.0" encoding="utf-8"?>
<!-- Generator: Adobe Illustrator 22.0.1, SVG Export Plug-In . SVG Version: 6.00 Build 0)  -->
<svg version="1.1" id="Layer_1" xmlns="http://www.w3.org/2000/svg" xmlns:xlink="http://www.w3.org/1999/xlink" x="0px" y="0px"
	 viewBox="0 0 234.4 449.7" style="enable-background:new 0 0 234.4 449.7;" xml:space="preserve">
<style type="text/css">
	.st0{fill:url(#SVGID_1_);}
	.st1{fill:#FFFFFF;}
	.st2{fill:#154889;}
</style>
<linearGradient id="SVGID_1_" gradientUnits="userSpaceOnUse" x1="103.7" y1="152.7756" x2="130.7" y2="152.7756" gradientTransform="matrix(1 0 0 -1 0 451.2756)">
	<stop  offset="0" style="stop-color:#EDEBE9"/>
	<stop  offset="0" style="stop-color:#E1DEDA"/>
	<stop  offset="0" style="stop-color:#D6D1CC"/>
	<stop  offset="6.975419e-02" style="stop-color:#C7C3BE"/>
	<stop  offset="0.1461" style="stop-color:#B2AEAA"/>
	<stop  offset="0.5225" style="stop-color:#E6E6E6"/>
	<stop  offset="0.633" style="stop-color:#D9D8D7"/>
	<stop  offset="0.8443" style="stop-color:#B8B4B0"/>
	<stop  offset="0.8764" style="stop-color:#B2AEAA"/>
	<stop  offset="1" style="stop-color:#D9D9D9"/>
	<stop  offset="1" style="stop-color:#B1B1B1"/>
</linearGradient>
<polygon class="st0" points="130.7,449.7 124.3,443.7 117.8,449.7 110.3,443.7 103.7,449.7 103.7,147.3 130.7,147.3 "/>
<g id="g3674" transform="matrix(1.25,0,0,-1.25,0,601.00159)">
	<g id="g3676">
		<path id="path3678" class="st1" d="M11.4,480.6c-11.3,0-11.2-11.2-11.2-11.2V304.7c0,0,0-11.2,11.2-11.2h164.7
			c11.3,0,11.2,11.2,11.2,11.2v164.7c0,0,0.1,11.3-11.2,11.2C176.1,480.6,11.4,480.6,11.4,480.6z"/>
		<path id="path3680" class="st2" d="M11.4,476.9c-4.1,0-7.5-3.4-7.5-7.5V304.7c0-4.1,3.4-7.5,7.5-7.5h164.7c4.1,0,7.5,3.4,7.5,7.5
			v164.7c0,4.1-3.4,7.5-7.5,7.5L11.4,476.9L11.4,476.9z"/>
		<path id="path3682" d="M11.4,480.8c-5.7,0-8.6-2.9-10-5.7C0,472.3,0,469.4,0,469.4V304.7c0,0,0-2.8,1.4-5.7
			c1.4-2.8,4.3-5.7,10-5.7h164.7c5.7,0,8.6,2.9,10,5.7c1.4,2.8,1.4,5.7,1.4,5.7v164.7c0,0,0,2.9-1.4,5.7c-1.4,2.9-4.3,5.7-10,5.7
			L11.4,480.8L11.4,480.8z M11.4,480.6h164.7c11.3,0,11.2-11.2,11.2-11.2V304.7c0,0,0.1-11.2-11.2-11.2H11.4
			c-11.3,0-11.2,11.2-11.2,11.2v164.7C0.2,469.4,0.1,480.7,11.4,480.6L11.4,480.6z"/>
		<path id="path3684" class="st1" d="M98,433.7H67.9v-41.6h30.8c7.1,0,12.5,2.2,16,6.5c3.5,4.4,5.3,9.1,5.3,14.2
			c0,7.8-2.8,13.5-8.3,17.2C108.2,432.5,103.6,433.7,98,433.7L98,433.7z M67.5,321.5H47.6l0.2,131l49.2,0.1c5,0,9.8-0.5,14.5-1.6
			c4.6-1.1,9.5-3.6,14.5-7.5c3.9-3,7.2-7.2,9.9-12.6c2.7-5.3,4.1-11.5,4.1-18.5c0-9.3-3.4-18.2-10.2-26.5
			c-6.8-8.4-16.8-12.6-29.9-12.6h-32L67.5,321.5L67.5,321.5z"/>
	</g>
</g>
<g id="Layer_2_1_">
</g>
<g id="g3997" transform="matrix(1.25,0,0,-1.25,0,600.99628)">
	<g id="g3999">
		<path id="path4001" class="st1" d="M31.3,277.2c-5.3,0-9.5-4.3-9.5-9.5V142.7c0-5.3,4.3-9.5,9.5-9.5h124.9c5.3,0,9.5,4.3,9.5,9.5
			v124.9c0,5.3-4.3,9.5-9.5,9.5C156.2,277.2,31.3,277.2,31.3,277.2z"/>
		<path id="path4003" d="M31.3,277.3c-5.3,0-9.7-4.3-9.7-9.7V142.7c0-5.3,4.3-9.7,9.7-9.7h124.9c5.3,0,9.7,4.3,9.7,9.7v124.9
			c0,5.3-4.3,9.7-9.7,9.7C156.2,277.3,31.3,277.3,31.3,277.3z M31.3,277.2h124.9c5.3,0,9.5-4.3,9.5-9.5V142.7c0-5.3-4.3-9.5-9.5-9.5
			H31.3c-5.3,0-9.5,4.3-9.5,9.5v124.9C21.8,272.9,26,277.2,31.3,277.2z"/>
		<path id="path4005" d="M31.3,274.9c-4,0-7.2-3.2-7.2-7.2V142.7c0-4,3.2-7.2,7.2-7.2h124.9c4,0,7.2,3.2,7.2,7.2v124.9
			c0,4-3.2,7.2-7.2,7.2C156.2,274.9,31.3,274.9,31.3,274.9z M31.3,271.3h124.9c2,0,3.6-1.6,3.6-3.6V142.7c0-2-1.6-3.6-3.6-3.6H31.3
			c-2,0-3.6,1.6-3.6,3.6v124.9C27.7,269.7,29.3,271.3,31.3,271.3z"/>
		<path id="path4007" d="M40.8,241h2.7v9.1c0,1.2,0.3,1.9,1.4,1.9c0.9,0,1.3-0.6,1.3-1.6V241H49v10.4c0,2.4-1.4,3.3-2.8,3.3
			c-1.3,0-2-0.6-2.6-1.5h-0.1v1.3h-2.7V241L40.8,241z"/>
		<path id="path4009" d="M58.9,254.6h-2.7v-9.1c0-1.2-0.3-1.9-1.4-1.9c-0.9,0-1.3,0.6-1.3,1.6v9.4h-2.7v-10.4c0-2.4,1.4-3.3,2.8-3.3
			c1.3,0,2,0.6,2.6,1.5h0.1V241h2.7L58.9,254.6L58.9,254.6z"/>
		<path id="path4011" d="M60.7,241h2.7v8c0,2.2,1.6,2.9,2.8,2.9c0.3,0,0.6-0.1,0.8-0.2v2.9c-1.6,0-2.5-0.6-3.6-1.6v1.4h-2.7V241
			L60.7,241z"/>
		<path id="path4013" d="M72.6,241h2.7v13.6h-2.7V241z M72.6,257.3h2.7v2.7h-2.7V257.3z"/>
		<path id="path4015" d="M77.5,241h2.7v9.1c0,1.2,0.3,1.9,1.4,1.9c0.9,0,1.3-0.6,1.3-1.6V241h2.7v10.4c0,2.4-1.4,3.3-2.8,3.3
			c-1.3,0-2-0.6-2.6-1.5h-0.1v1.3h-2.7V241L77.5,241z"/>
		<path id="path4017" d="M87.9,241h2.7v9.1c0,1.2,0.3,1.9,1.4,1.9c0.9,0,1.3-0.6,1.3-1.6V241h2.7v10.4c0,2.4-1.4,3.3-2.8,3.3
			c-1.3,0-2-0.6-2.6-1.5h-0.1v1.3h-2.7V241L87.9,241z"/>
		<path id="path4019" d="M106.2,246.8v3.7c0,2.4-1.6,4.2-4.1,4.2c-1.7,0-2.9-0.8-3.6-2c-0.4-0.7-0.5-1.7-0.5-2.8v-4.5
			c0-1.1,0.1-2.1,0.5-2.8c0.6-1.2,1.9-2,3.6-2c1.3,0,2.2,0.5,3,1.2c0.7,0.7,1.1,1.8,1.1,2.9h-2.7c-0.1-0.6-0.3-1.4-1.3-1.4
			c-0.8,0-1.3,0.5-1.3,1.3v1.8H106.2L106.2,246.8z M100.8,250.5c0,1,0.5,1.6,1.3,1.6c0.8,0,1.3-0.5,1.3-1.6v-1.6h-2.7V250.5z"/>
		<path id="path4021" d="M107.3,241h2.7v8c0,2.2,1.6,2.9,2.8,2.9c0.3,0,0.6-0.1,0.8-0.2v2.9c-1.6,0-2.5-0.6-3.6-1.6v1.4h-2.7
			L107.3,241L107.3,241z"/>
		<path id="path4023" d="M114.2,241h2.7v9.1c0,1.2,0.3,1.9,1.4,1.9c0.9,0,1.3-0.6,1.3-1.6V241h2.7v10.4c0,2.4-1.4,3.3-2.8,3.3
			c-1.3,0-2-0.6-2.6-1.5h-0.1v6.8h-2.7V241z"/>
		<path id="path4025" d="M129.3,241h2.7v9.4c0,2.8-1.8,4.3-4.1,4.3c-1.2,0-2.2-0.4-3-1.1c-0.7-0.7-1.1-1.7-1.2-2.9h2.6
			c0.2,0.9,0.9,1.4,1.6,1.4c1,0,1.4-0.7,1.4-1.6V249c-0.6,0-0.9,0.1-1.3,0.1c-3.4,0-4.3-1.5-4.3-4.6c0-3,1.7-3.6,2.9-3.6
			c1.3,0,1.9,0.6,2.6,1.6h0.1L129.3,241L129.3,241z M129.3,245c0-1.1-0.6-1.7-1.5-1.7c-0.9,0-1.4,0.7-1.4,1.7c0,1.4,1,1.9,2.1,1.9
			c0.2,0,0.5,0,0.7-0.1L129.3,245L129.3,245z"/>
		<path id="path4027" d="M133.9,244.7c0-3.2,1.6-3.8,4.1-3.8v2.6c-1,0.1-1.3,0.4-1.3,1.4v15.2h-2.7V244.7L133.9,244.7z"/>
		<path id="path4029" d="M138.5,241h2.7v1.2c0.7-0.8,1.2-1.4,2.6-1.4c1.1,0,1.9,0.4,2.4,1.3c0.3,0.6,0.5,1.4,0.5,2.9v5.2
			c0,2-0.1,2.7-0.4,3.3c-0.5,0.7-1.1,1.2-2.4,1.2c-1.1,0-1.9-0.5-2.5-1.4h-0.1v6.7h-2.7V241L138.5,241z M143.9,245.4
			c0-1.1-0.4-1.8-1.3-1.8c-0.8,0-1.4,0.7-1.4,1.7v5.3c0,0.9,0.6,1.5,1.4,1.5c1,0,1.3-0.7,1.3-1.6V245.4z"/>
		<path id="path4031" d="M60.2,213.5c0.3-3.1,2.4-4.1,4.1-4.1c2.9,0,4.1,2.1,4.1,4v15.2h-2.7v-1.2c-0.7,0.8-1.2,1.4-2.6,1.4
			c-1.3,0-2-0.5-2.4-1.2c-0.3-0.6-0.4-1.3-0.4-3.3v-5.2c0-1.5,0.1-2.3,0.5-2.9c0.5-0.9,1.3-1.3,2.4-1.3c1.1,0,2,0.5,2.5,1.4h0.1
			v-2.7c0-0.9-0.4-1.5-1.3-1.5c-0.9,0-1.4,0.7-1.4,1.3L60.2,213.5L60.2,213.5z M62.9,224.2c0,1.1,0.4,1.8,1.3,1.8
			c0.8,0,1.4-0.7,1.4-1.7v-5.3c0-0.9-0.6-1.5-1.4-1.5c-1,0-1.3,0.7-1.3,1.6V224.2z"/>
		<path id="path4033" d="M78,220.9v3.7c0,2.4-1.6,4.2-4.1,4.2c-1.7,0-2.9-0.8-3.6-2c-0.4-0.7-0.5-1.7-0.5-2.8v-4.5
			c0-1.1,0.1-2.1,0.5-2.8c0.6-1.2,1.9-2,3.6-2c1.3,0,2.2,0.5,3,1.2c0.7,0.7,1.1,1.8,1.1,2.9h-2.7c-0.1-0.6-0.3-1.4-1.3-1.4
			c-0.8,0-1.3,0.5-1.3,1.3v1.8H78L78,220.9z M72.6,224.5c0,1,0.5,1.6,1.3,1.6c0.8,0,1.3-0.5,1.3-1.6V223h-2.7V224.5z"/>
		<path id="path4035" d="M80.1,215.1h2.7v3.8l1.3,2.1l2.5-5.9h3l-3.9,8l3.2,5.5h-2.7l-3.3-5.9h-0.1v11.4h-2.7L80.1,215.1L80.1,215.1
			z"/>
		<path id="path4037" d="M98.3,220.9v3.7c0,2.4-1.6,4.2-4.1,4.2c-1.7,0-2.9-0.8-3.6-2c-0.4-0.7-0.5-1.7-0.5-2.8v-4.5
			c0-1.1,0.1-2.1,0.5-2.8c0.6-1.2,1.9-2,3.6-2c1.3,0,2.2,0.5,3,1.2c0.7,0.7,1.1,1.8,1.1,2.9h-2.7c-0.1-0.6-0.3-1.4-1.3-1.4
			c-0.8,0-1.3,0.5-1.3,1.3v1.8H98.3L98.3,220.9z M92.9,224.5c0,1,0.5,1.6,1.3,1.6c0.8,0,1.3-0.5,1.3-1.6V223h-2.7V224.5z"/>
		<path id="path4039" d="M99.8,215.1h2.7v9.1c0,1.2,0.3,1.9,1.4,1.9c0.9,0,1.3-0.6,1.3-1.6v-9.4h2.7v10.4c0,2.4-1.4,3.3-2.8,3.3
			c-1.3,0-2-0.6-2.6-1.5h-0.1v1.3h-2.7V215.1z"/>
		<path id="path4041" d="M109.3,215.1h2.7v9.1c0,1.2,0.3,1.9,1.4,1.9c0.9,0,1.3-0.6,1.3-1.6v-9.4h2.7v10.4c0,2.4-1.4,3.3-2.8,3.3
			c-1.3,0-2-0.6-2.6-1.5H112v1.3h-2.7V215.1z"/>
		<path id="path4043" d="M120.2,223.9h7.1v-2.7h-7.1V223.9z"/>
		<path id="path4045" d="M52.4,184.9H60v2.6h-4.4l4.4,8.8v2.2h-7.2V196h4.1l-4.4-9V184.9z"/>
		<path id="path4047" d="M69,190.6v3.7c0,2.4-1.6,4.2-4.1,4.2c-1.7,0-2.9-0.8-3.6-2c-0.4-0.7-0.5-1.7-0.5-2.8v-4.5
			c0-1.1,0.1-2.1,0.5-2.8c0.6-1.2,1.9-2,3.6-2c1.3,0,2.2,0.5,3,1.2c0.7,0.7,1.1,1.8,1.1,2.9h-2.7c-0.1-0.6-0.3-1.4-1.3-1.4
			c-0.8,0-1.3,0.5-1.3,1.3v1.8H69z M63.6,194.3c0,1,0.5,1.6,1.3,1.6c0.8,0,1.3-0.5,1.3-1.6v-1.6h-2.7V194.3z"/>
		<path id="path4049" d="M70.5,184.9h2.7v13.6h-2.7V184.9z M70.5,201.2h2.7v2.7h-2.7V201.2z"/>
		<path id="path4051" d="M77.9,194.3c0,1,0.5,1.6,1.3,1.6c0.8,0,1.3-0.5,1.3-1.6h2.7c0,2.5-1.6,4.3-4.1,4.3c-1.7,0-2.9-0.8-3.6-2
			c-0.4-0.7-0.5-1.7-0.5-2.8v-4.5c0-1.1,0.1-2.1,0.5-2.8c0.6-1.2,1.9-2,3.6-2c1.3,0,2.2,0.5,3,1.2c0.7,0.7,1.1,1.8,1.1,2.9h-2.7
			c-0.1-0.6-0.3-1.4-1.3-1.4c-0.8,0-1.3,0.5-1.3,1.3V194.3z"/>
		<path id="path4053" d="M84.9,184.9h2.7v9.1c0,1.2,0.3,1.9,1.4,1.9c0.9,0,1.3-0.6,1.3-1.6v-9.4h2.7v10.4c0,2.4-1.4,3.3-2.8,3.3
			c-1.3,0-2-0.6-2.6-1.5h-0.1v6.8h-2.7L84.9,184.9L84.9,184.9z"/>
		<path id="path4055" d="M94.9,184.9h2.7v9.1c0,1.2,0.3,1.9,1.4,1.9c0.9,0,1.3-0.6,1.3-1.6v-9.4h2.7v10.4c0,2.4-1.4,3.3-2.8,3.3
			c-1.3,0-2-0.6-2.6-1.5h-0.1v1.3h-2.7L94.9,184.9L94.9,184.9z"/>
		<path id="path4057" d="M112.2,190.6v3.7c0,2.4-1.6,4.2-4.1,4.2c-1.7,0-2.9-0.8-3.6-2c-0.4-0.7-0.5-1.7-0.5-2.8v-4.5
			c0-1.1,0.1-2.1,0.5-2.8c0.6-1.2,1.9-2,3.6-2c1.3,0,2.2,0.5,3,1.2c0.7,0.7,1.1,1.8,1.1,2.9h-2.7c-0.1-0.6-0.3-1.4-1.3-1.4
			c-0.8,0-1.3,0.5-1.3,1.3v1.8H112.2z M106.8,194.3c0,1,0.5,1.6,1.3,1.6s1.3-0.5,1.3-1.6v-1.6h-2.7V194.3z"/>
		<path id="path4059" d="M114.2,198.4h-1.4v-2.1h1.4V188c0-1.4,0.8-3.2,3.3-3.2h1.1v2.6c-1.2,0-1.7,0.1-1.7,1.3v7.5h1.7v2.1h-1.7
			v4.1h-2.7V198.4z"/>
		<path id="path4061" d="M127.2,190.6v3.7c0,2.4-1.6,4.2-4.1,4.2c-1.7,0-2.9-0.8-3.6-2c-0.4-0.7-0.5-1.7-0.5-2.8v-4.5
			c0-1.1,0.1-2.1,0.5-2.8c0.6-1.2,1.9-2,3.6-2c1.3,0,2.2,0.5,3,1.2c0.7,0.7,1.1,1.8,1.1,2.9h-2.7c-0.1-0.6-0.3-1.4-1.3-1.4
			c-0.8,0-1.3,0.5-1.3,1.3v1.8H127.2L127.2,190.6z M121.8,194.3c0,1,0.5,1.6,1.3,1.6c0.8,0,1.3-0.5,1.3-1.6v-1.6h-2.7V194.3z"/>
		<path id="path4063" d="M128.7,184.9h2.7v8c0,2.2,1.6,2.9,2.8,2.9c0.3,0,0.6-0.1,0.8-0.2v2.9c-1.6,0-2.5-0.6-3.6-1.6v1.4h-2.7
			V184.9L128.7,184.9z"/>
		<path id="path4065" d="M47.1,156.1h2.7v7.4h1.4c2,0,3.2,0.7,4,2c0.6,1,0.8,2.2,0.8,3.8c0,2.3-0.3,3.5-1.2,4.5
			c-0.9,1-2,1.3-3.5,1.3h-4.1C47.1,175.1,47.1,156.1,47.1,156.1z M49.8,172.5h1.4c2.1,0,2.1-1.5,2.1-3.3c0-1.9,0-3.2-2.2-3.2h-1.3
			C49.8,166.1,49.8,172.5,49.8,172.5z"/>
		<path id="path4067" d="M62.5,156.1h2.7v9.4c0,2.8-1.8,4.3-4.1,4.3c-1.2,0-2.2-0.4-3-1.1c-0.7-0.7-1.2-1.7-1.2-2.9h2.6
			c0.2,0.9,0.9,1.4,1.6,1.4c1,0,1.4-0.7,1.4-1.6V164c-0.6,0-0.9,0.1-1.3,0.1c-3.4,0-4.3-1.5-4.3-4.6c0-3,1.7-3.6,2.9-3.6
			c1.3,0,1.9,0.6,2.6,1.6h0.1V156.1z M62.5,160c0-1.1-0.6-1.7-1.5-1.7c-0.9,0-1.4,0.7-1.4,1.7c0,1.4,1,1.9,2.1,1.9
			c0.2,0,0.5,0,0.7-0.1V160z"/>
		<path id="path4069" d="M66.8,156.1h2.7v8c0,2.2,1.6,2.9,2.8,2.9c0.3,0,0.6-0.1,0.8-0.2v2.9c-1.6,0-2.5-0.6-3.6-1.6v1.4h-2.7V156.1
			z"/>
		<path id="path4071" d="M73.7,156.1h2.7v3.8l1.3,2.1l2.5-5.9h3l-3.9,8l3.2,5.5h-2.7l-3.3-5.9h-0.1v11.4h-2.7V156.1L73.7,156.1z"/>
		<path id="path4073" d="M84.4,156.1h2.7v11.4h2v2.1h-2v2c0,0.6,0.3,0.9,0.8,0.9h1.2v2.6h-1.3c-1.8,0-3.5-1-3.5-3.6v-1.8h-1.3v-2.1
			h1.3C84.4,167.5,84.4,156.1,84.4,156.1z"/>
		<path id="path4075" d="M89.9,159.7c0-3.2,1.6-3.8,4.1-3.8v2.6c-1,0.1-1.3,0.4-1.3,1.4v15.2h-2.7C89.9,175.1,89.9,159.7,89.9,159.7
			z"/>
		<path id="path4077" d="M100.1,156.1h2.7v9.4c0,2.8-1.8,4.3-4.1,4.3c-1.2,0-2.2-0.4-3-1.1c-0.7-0.7-1.1-1.7-1.2-2.9h2.6
			c0.2,0.9,0.9,1.4,1.6,1.4c1,0,1.4-0.7,1.4-1.6V164c-0.6,0-0.9,0.1-1.3,0.1c-3.4,0-4.3-1.5-4.3-4.6c0-3,1.7-3.6,2.9-3.6
			c1.3,0,1.9,0.6,2.6,1.6h0.1V156.1z M100.1,160c0-1.1-0.6-1.7-1.5-1.7c-0.9,0-1.4,0.7-1.4,1.7c0,1.4,1,1.9,2.1,1.9
			c0.2,0,0.5,0,0.7-0.1L100.1,160L100.1,160z M95.4,171.7h2.4v2.7h-2.4V171.7z M99.8,171.7h2.4v2.7h-2.4V171.7z"/>
		<path id="path4079" d="M106.8,165.5c0,1,0.5,1.6,1.3,1.6c0.8,0,1.3-0.5,1.3-1.6h2.7c0,2.5-1.6,4.3-4.1,4.3c-1.7,0-2.9-0.8-3.6-2
			c-0.4-0.7-0.5-1.7-0.5-2.8v-4.5c0-1.1,0.1-2.1,0.5-2.8c0.6-1.2,1.9-2,3.6-2c1.3,0,2.2,0.5,3,1.2c0.7,0.7,1.1,1.8,1.1,2.9h-2.7
			c-0.1-0.6-0.3-1.4-1.3-1.4c-0.8,0-1.3,0.5-1.3,1.3V165.5L106.8,165.5z"/>
		<path id="path4081" d="M112.9,156.1h2.7v9.1c0,1.2,0.3,1.9,1.4,1.9c0.9,0,1.3-0.6,1.3-1.6v-9.4h2.7v10.4c0,2.4-1.4,3.3-2.8,3.3
			c-1.3,0-2-0.6-2.6-1.5h-0.1v6.8h-2.7C112.9,175.1,112.9,156.1,112.9,156.1z"/>
		<path id="path4083" d="M130.7,161.8v3.7c0,2.4-1.6,4.2-4.1,4.2c-1.7,0-2.9-0.8-3.6-2c-0.4-0.7-0.5-1.7-0.5-2.8v-4.5
			c0-1.1,0.1-2.1,0.5-2.8c0.6-1.2,1.9-2,3.6-2c1.3,0,2.2,0.5,3,1.2c0.7,0.7,1.1,1.8,1.1,2.9H128c-0.1-0.6-0.3-1.4-1.3-1.4
			c-0.8,0-1.3,0.5-1.3,1.3v1.8H130.7z M125.3,165.5c0,1,0.5,1.6,1.3,1.6c0.8,0,1.3-0.5,1.3-1.6V164h-2.7V165.5z"/>
		<path id="path4085" d="M132.3,156.1h2.7v9.1c0,1.2,0.3,1.9,1.4,1.9c0.9,0,1.3-0.6,1.3-1.6v-9.4h2.7v10.4c0,2.4-1.4,3.3-2.8,3.3
			c-1.3,0-2-0.6-2.6-1.5H135v1.3h-2.7V156.1L132.3,156.1z"/>
	</g>
</g>
</svg>
