<?xml version="1.0" encoding="utf-8"?>
<!-- Generator: Adobe Illustrator 22.0.1, SVG Export Plug-In . SVG Version: 6.00 Build 0)  -->
<svg version="1.1" xmlns="http://www.w3.org/2000/svg" xmlns:xlink="http://www.w3.org/1999/xlink" x="0px" y="0px"
	 viewBox="0 0 235.4 429.7" style="enable-background:new 0 0 235.4 429.7;" xml:space="preserve">
<style type="text/css">
	.st0{fill:url(#SVGID_1_);}
	.st1{fill:#FFFFFF;}
	.st2{fill:#154889;}
	.st3{clip-path:url(#SVGID_3_);}
	.st4{display:none;}
</style>
<g id="svg3666" xmlns:cc="http://creativecommons.org/ns#" xmlns:dc="http://purl.org/dc/elements/1.1/" xmlns:rdf="http://www.w3.org/1999/02/22-rdf-syntax-ns#" xmlns:svg="http://www.w3.org/2000/svg">
	<linearGradient id="SVGID_1_" gradientUnits="userSpaceOnUse" x1="104.1892" y1="278.5083" x2="131.1892" y2="278.5083">
		<stop  offset="0" style="stop-color:#EDEBE9"/>
		<stop  offset="0" style="stop-color:#E1DEDA"/>
		<stop  offset="0" style="stop-color:#D6D1CC"/>
		<stop  offset="6.975419e-02" style="stop-color:#C7C3BE"/>
		<stop  offset="0.1461" style="stop-color:#B2AEAA"/>
		<stop  offset="0.5225" style="stop-color:#E6E6E6"/>
		<stop  offset="0.633" style="stop-color:#D9D8D7"/>
		<stop  offset="0.8443" style="stop-color:#B8B4B0"/>
		<stop  offset="0.8764" style="stop-color:#B2AEAA"/>
		<stop  offset="1" style="stop-color:#D9D9D9"/>
		<stop  offset="1" style="stop-color:#B1B1B1"/>
	</linearGradient>
	<polygon class="st0" points="131.2,429.7 124.8,423.7 118.3,429.7 110.8,423.7 104.2,429.7 104.2,127.3 131.2,127.3 	"/>
	<g id="g3674" transform="matrix(1.25,0,0,-1.25,0,601.00159)">
		<g id="g3676">
			<path id="path3678" class="st1" d="M11.8,480.6c-11.3,0-11.2-11.2-11.2-11.2V304.7c0,0,0-11.2,11.2-11.2h164.7
				c11.3,0,11.2,11.2,11.2,11.2v164.7c0,0,0.1,11.3-11.2,11.2C176.5,480.6,11.8,480.6,11.8,480.6z"/>
			<path id="path3680" class="st2" d="M11.8,476.9c-4.1,0-7.5-3.4-7.5-7.5V304.7c0-4.1,3.4-7.5,7.5-7.5h164.7c4.1,0,7.5,3.4,7.5,7.5
				v164.7c0,4.1-3.4,7.5-7.5,7.5H11.8L11.8,476.9z"/>
			<path id="path3682" d="M11.8,480.8c-5.7,0-8.6-2.9-10-5.7c-1.4-2.8-1.4-5.7-1.4-5.7V304.7c0,0,0-2.8,1.4-5.7
				c1.4-2.8,4.3-5.7,10-5.7h164.7c5.7,0,8.6,2.9,10,5.7c1.4,2.8,1.4,5.7,1.4,5.7v164.7c0,0,0,2.9-1.4,5.7c-1.4,2.9-4.3,5.7-10,5.7
				H11.8L11.8,480.8z M11.8,480.6h164.7c11.3,0,11.2-11.2,11.2-11.2V304.7c0,0,0.1-11.2-11.2-11.2H11.8c-11.3,0-11.2,11.2-11.2,11.2
				v164.7C0.6,469.4,0.5,480.7,11.8,480.6L11.8,480.6z"/>
			<path id="path3684" class="st1" d="M98.4,433.7H68.3v-41.6h30.8c7.1,0,12.5,2.2,16,6.5c3.5,4.4,5.3,9.1,5.3,14.2
				c0,7.8-2.8,13.5-8.3,17.2C108.5,432.5,104,433.7,98.4,433.7L98.4,433.7z M67.9,321.5H48l0.2,131l49.2,0.1c5,0,9.8-0.5,14.5-1.6
				c4.6-1.1,9.5-3.6,14.5-7.5c3.9-3,7.2-7.2,9.9-12.6c2.7-5.3,4.1-11.5,4.1-18.5c0-9.3-3.4-18.2-10.2-26.5
				c-6.8-8.4-16.8-12.6-29.9-12.6H68.3L67.9,321.5L67.9,321.5z"/>
		</g>
	</g>
	<g id="g4949" transform="matrix(1.25,0,0,-1.25,0,330)">
		<g id="g4951">
			<g id="g4953">
				<g id="g4955">
				</g>
				<g id="g4961">
					<g>
						<defs>
							<rect id="SVGID_2_" x="-23.5" y="-67.3" width="235.4" height="129.5"/>
						</defs>
						<clipPath id="SVGID_3_">
							<use xlink:href="#SVGID_2_"  style="overflow:visible;"/>
						</clipPath>
						<g id="g4963" class="st3">
							<g id="g4965">
								<path id="path4967" class="st1" d="M12.6,49.1c-6.9,0-12.5-5.6-12.5-12.5v-78.5c0-6.9,5.6-12.5,12.5-12.5h163.2
									c6.9,0,12.5,5.6,12.5,12.5v78.5c0,6.9-5.6,12.5-12.5,12.5"/>
								<path id="path4969" d="M12.6-54.2c-6.8,0-12.4,5.5-12.4,12.4v78.5C0.2,43.4,5.7,49,12.6,49h163.2c6.8,0,12.4-5.5,12.4-12.4
									v-78.5c0-6.8-5.5-12.4-12.4-12.4L12.6-54.2L12.6-54.2z M175.8,49.2H12.6C5.6,49.2,0,43.5,0,36.6v-78.5
									c0-6.9,5.6-12.6,12.6-12.6h163.2c6.9,0,12.6,5.6,12.6,12.6v78.5C188.3,43.5,182.7,49.2,175.8,49.2"/>
							</g>
						</g>
					</g>
				</g>
			</g>
		</g>
		<g id="g4971">
			<path id="path4973" d="M12.6-46.6h163.2c2.6,0,4.7,2.1,4.7,4.7v78.5c0,2.6-2.1,4.7-4.7,4.7H12.6c-2.6,0-4.7-2.1-4.7-4.7v-78.5
				C7.8-44.4,10-46.6,12.6-46.6z M12.6-51.3c-5.2,0-9.4,4.2-9.4,9.4v78.5c0,5.2,4.2,9.4,9.4,9.4h163.2c5.2,0,9.4-4.2,9.4-9.4v-78.5
				c0-5.2-4.2-9.4-9.4-9.4"/>
			<path id="path4975" d="M22.2-11v-7.5h5.3c1.3,0,2.3,0.4,2.9,1.2c0.6,0.8,1,1.7,1,2.6c0,1.4-0.5,2.4-1.5,3.1
				c-0.7,0.4-1.5,0.7-2.5,0.7C27.4-11,22.2-11,22.2-11z M18.7-31v23.3h8.5c0.9,0,1.8-0.1,2.6-0.3c0.8-0.2,1.7-0.6,2.6-1.3
				c0.7-0.5,1.3-1.3,1.8-2.3c0.5-1,0.7-2.1,0.7-3.3c0-1.7-0.6-3.3-1.9-4.8c-1.2-1.5-3.1-2.3-5.5-2.3h-5.4V-31
				C22.2-31,18.7-31,18.7-31z M46.6-31v1.5h-0.1c-0.7-1.1-2-1.7-4.1-1.7c-1.9,0-3.3,0.5-4.3,1.4c-1,1-1.5,2.2-1.5,3.6
				c0,1.3,0.5,2.5,1.4,3.4c0.9,1,2.3,1.5,4.1,1.5h4.6v1.7c0,1.4-1.1,2.1-3.4,2.1c-1.6,0-2.6-0.4-3.2-1.3l-2.6,2
				c1.2,1.6,3,2.4,5.6,2.4c2.1,0,3.7-0.4,5-1.2c1.3-0.8,1.9-2.2,1.9-4.3V-31H46.6z M46.6-25.2v1.2h-4c-1.9,0-2.9-0.7-2.9-2
				c0-0.6,0.2-1.1,0.7-1.5c0.5-0.4,1.3-0.6,2.4-0.6c1.4,0,2.4,0.2,2.9,0.5C46.3-27.3,46.6-26.5,46.6-25.2z M54.3-31v16.6h3.4v-1.8
				h0.1c1,1.3,2.5,2,4.3,2c1.2,0,2.4-0.4,3.5-1.3l-2.4-2.9c-0.7,0.5-1.5,0.8-2.2,0.8c-0.8,0-1.6-0.3-2.2-0.8c-0.7-0.6-1-1.4-1-2.7
				v-10L54.3-31L54.3-31z M67-31v23.3h3.3v-14.5h0.1l6.4,7.8h4l-5.7-6.5L81.6-31h-4.2L73-23.2l-2.6-3V-31L67-31L67-31z M82.3-28.2
				l2.3,2.3c1.5-1.4,3.2-2.1,5.2-2.1c1,0,1.7,0.2,2.4,0.5c0.6,0.4,0.9,0.9,0.9,1.6c0,1-0.7,1.5-2,1.6L88.1-24
				c-1.4,0.1-2.5,0.6-3.4,1.4c-0.9,0.8-1.4,1.9-1.4,3.3c0,1.7,0.6,3,1.8,3.8c1.2,0.9,2.7,1.3,4.4,1.3c1.5,0,2.7-0.2,3.7-0.6
				c1-0.4,2-1,2.8-1.6L94-18.9c-0.7,0.4-1.3,0.8-2.1,1.1c-0.7,0.3-1.5,0.4-2.4,0.4c-1.1,0-1.8-0.2-2.2-0.6c-0.4-0.4-0.6-0.9-0.6-1.4
				c0-0.4,0.2-0.7,0.5-1c0.3-0.3,0.9-0.5,1.7-0.6l2.8-0.2c1.7-0.1,3-0.6,3.7-1.6c0.7-0.9,1.1-2.1,1.1-3.4c0-1.6-0.7-2.9-2-3.8
				c-1.3-0.9-3-1.3-4.9-1.3C86.8-31.2,84.4-30.2,82.3-28.2z M109.6-26.1l2.5-2.2c-0.7-0.8-1.6-1.5-2.6-2.1c-1-0.5-2.1-0.8-3.4-0.8
				c-1.9,0-3.7,0.7-5.2,2c-1.6,1.3-2.3,3.5-2.3,6.5c0,3,0.8,5.2,2.3,6.5c1.6,1.3,3.3,2,5.2,2c1.3,0,2.4-0.3,3.4-0.8
				c1-0.5,1.9-1.2,2.6-2.1l-2.5-2.2c-0.9,1.2-2.1,1.7-3.4,1.7c-2.9,0-4.3-1.7-4.3-5.2c0-3.4,1.4-5.2,4.3-5.2
				C107.6-27.9,108.7-27.3,109.6-26.1z M114.4-31v23.3h3.3v-8.5h0.1c1,1.3,2.5,2,4.3,2c1.3,0,2.5-0.5,3.7-1.5c1.2-1,1.8-2.4,1.8-4.3
				V-31h-3.3v9.9c0,1.1-0.3,2-0.9,2.6c-0.6,0.6-1.4,0.9-2.3,0.9c-1,0-1.8-0.3-2.4-0.9c-0.6-0.6-0.9-1.5-0.9-2.6V-31H114.4z
				 M144.9-23.9h-10.4c0-1.4,0.4-2.4,1.1-3.1c0.7-0.7,1.7-1,2.8-1c1.4,0,2.6,0.5,3.7,1.6l2.4-2.1c-0.8-1-1.7-1.6-2.8-2.1
				c-1-0.4-2.1-0.6-3.2-0.6c-1.7,0-3.4,0.6-5,1.7c-1.6,1.1-2.4,3.4-2.4,6.8c0,3.2,0.7,5.5,2.2,6.7c1.5,1.2,3,1.9,4.6,1.9
				c1.8,0,3.4-0.6,4.8-1.9c1.4-1.3,2.1-3,2.1-5.1L144.9-23.9L144.9-23.9z M134.6-21.2h7c-0.1,1.2-0.4,2.2-1.1,2.9
				c-0.7,0.7-1.5,1-2.5,1c-1,0-1.8-0.3-2.5-1C134.9-19,134.6-19.9,134.6-21.2z M148.5-31v16.6h3.3V-31C151.9-31,148.5-31,148.5-31z
				 M148.5-11v3.3h3.3V-11H148.5z M156.3-31v16.6h3.3v-1.8h0.1c1,1.3,2.5,2,4.3,2c1.3,0,2.5-0.5,3.7-1.5c1.2-1,1.8-2.4,1.8-4.3V-31
				h-3.3v9.9c0,1.1-0.3,2-0.9,2.6c-0.6,0.6-1.4,0.9-2.3,0.9c-1,0-1.8-0.3-2.4-0.9c-0.6-0.6-0.9-1.5-0.9-2.6V-31
				C159.7-31,156.3-31,156.3-31z"/>
			<path id="path4977" d="M75.5,2.4v16.8h3.4v-1.8H79c1.1,1.3,2.5,2,4.4,2c1.2,0,2.1-0.2,2.8-0.6c0.7-0.4,1.3-0.9,1.9-1.6
				c1.3,1.5,3.1,2.2,5.3,2.2c1.3,0,2.6-0.5,3.8-1.5c1.2-1,1.8-2.4,1.8-4.3V2.4h-3.4v10c0,1.1-0.3,2-1,2.6c-0.6,0.6-1.4,1-2.4,1
				c-1,0-1.8-0.3-2.4-1c-0.6-0.6-0.9-1.5-0.9-2.6v-10h-3.4v10c0,1.1-0.3,2-1,2.6c-0.6,0.6-1.4,1-2.4,1c-1,0-1.8-0.3-2.4-1
				c-0.6-0.6-0.9-1.5-0.9-2.6v-10L75.5,2.4L75.5,2.4z M103.6,2.4v16.8h3.4V2.4H103.6z M103.6,22.6V26h3.4v-3.4H103.6z M111.7,19.2
				v5.1h3.4v-5.1h2.5v-2.6H115V6.8c0-0.8,0.4-1.3,1.2-1.3h1.3V2.4h-1.8c-1.2,0-2.1,0.4-2.9,1.1c-0.8,0.7-1.2,1.7-1.2,3.1v10.1H110
				v2.6H111.7z"/>
		</g>
	</g>
</g>
<g id="Layer_2" class="st4">
</g>
</svg>
