<?xml version="1.0" encoding="utf-8"?>
<!-- Generator: Adobe Illustrator 22.0.1, SVG Export Plug-In . SVG Version: 6.00 Build 0)  -->
<svg version="1.1"
	 id="svg5531" xmlns:cc="http://creativecommons.org/ns#" xmlns:dc="http://purl.org/dc/elements/1.1/" xmlns:rdf="http://www.w3.org/1999/02/22-rdf-syntax-ns#" xmlns:svg="http://www.w3.org/2000/svg"
	 xmlns="http://www.w3.org/2000/svg" xmlns:xlink="http://www.w3.org/1999/xlink" x="0px" y="0px" viewBox="0 0 847.2 1776.2"
	 style="enable-background:new 0 0 847.2 1776.2;" xml:space="preserve">
<style type="text/css">
	.st0{fill:#FFFFFF;}
	.st1{fill:#C1121C;}
</style>
<g id="g5539" transform="matrix(1.25,0,0,-1.25,0,743.62267)">
	<g id="g5541">
		<path id="path5543" class="st0" d="M338.9,594.5c7.5,0,15-2.9,20.8-8.6c1.9-1.9,3.4-4,4.7-6.2l15.2-26.2h0.1l293.1-508
			c0.1-0.1,0.1-0.2,0.2-0.3c1.5-2.4,2.7-5,3.4-7.9c4.2-15.7-5.1-31.8-20.8-35.9c-2.6-0.7-5.2-1-7.7-1H29.8
			C13.5,0.4,0.4,13.5,0.4,29.8c0,5.3,1.4,10.3,3.9,14.6c0,0,0,0.1,0.1,0.1l304.4,528.4c3.9,6.7,5.7,9.3,9.4,13.1
			C323.8,591.6,331.3,594.5,338.9,594.5L338.9,594.5z"/>
		<path id="path5545" class="st1" d="M338.9,587.1c7.1,0.1,15-3.6,18.8-10.4L666.9,40.8c1.8-3.6,2.5-6.8,2.6-10.4
			c0-6.5-2.9-12.7-7.8-16.8c-4.4-3.4-8.5-5.2-14.1-5.2h-618c-3.8,0-7.5,0.9-11,3.1C12.2,15.4,8.2,22.4,8.2,30
			c0.2,3.9,1.1,8,2.9,10.9l309.1,536l0.1,0.1l0.1,0.1c1.1,1.8,2.5,3.3,4,4.6c3.6,3.1,8.1,5,12.8,5.3
			C337.8,587.1,338.3,587.1,338.9,587.1z M647.5,8.4h1.5H647.5L647.5,8.4z M339.2,480.9L103.5,72.4h471.7L339.2,480.9L339.2,480.9z"
			/>
		<path id="path5547" d="M338.9,594.9c7.6,0,15.2-2.9,21-8.7c1.9-1.9,3.5-4,4.8-6.2l15.1-26h0.1L673.1,45.8c0.1-0.1,0.1-0.2,0.2-0.3
			c1.5-2.4,2.7-5.1,3.5-8c4.3-15.9-5.2-32.2-21-36.4c-2.6-0.7-5.3-1-7.8-1H29.8C13.3,0,0,13.3,0,29.8c0,5.4,1.4,10.4,3.9,14.8v0.1
			L308.3,573c3.9,6.7,5.7,9.4,9.5,13.1C323.6,592,331.2,594.9,338.9,594.9L338.9,594.9z M338.9,594.5c-7.5,0-15-2.9-20.8-8.6
			c-3.8-3.8-5.5-6.4-9.4-13.1L4.3,44.4c0,0,0-0.1-0.1-0.1C1.8,40,0.4,35.1,0.4,29.8c0-16.2,13.1-29.4,29.4-29.4h618.1
			c2.6,0,5.2,0.3,7.7,1c15.7,4.2,25,20.3,20.8,35.9c-0.8,2.9-1.9,5.5-3.4,7.9c-0.1,0.1-0.1,0.2-0.2,0.3l-293.1,508h-0.1l-15.2,26.2
			c-1.3,2.2-2.8,4.3-4.7,6.2C353.9,591.6,346.4,594.5,338.9,594.5L338.9,594.5z"/>
		<path id="path5549" d="M263,121.2c-17.9,0-32.4,14.5-32.4,32.4v0.4l0.6,53c0,2.6,0.3,5.2,0.8,7.8l3.3,17c0.5,2.7,1.3,5.3,2.3,7.8
			l15.8,39.2c1.6,4.1,5.6,6.8,10,6.8h47.4c-2.9,11-11.9,19.5-23.1,21.6h-14.3c-1.8,0-3.3,1.5-3.3,3.3s1.4,3.2,3.3,3.2h86.5
			c1.8,0,3.3-1.5,3.3-3.2c0-1.8-1.5-3.3-3.3-3.3h-14.3c-11.2-2.2-20.2-10.6-23.1-21.6h26.6c10.6,0,20.1-6.1,24.5-15.7l5.1-11.1
			c23.7-51.3,72.3-86.6,128.4-93.2l0.8-0.1c1.9-0.2,3.3-1.9,3.3-3.8v-35.1c0-3-2.4-5.4-5.4-5.4L263,121.2L263,121.2z M230.1,88.7
			v16.2h21.6v10.8h32.4v-10.8h48.7v10.8h178.4v-10.8c-58.1,0-110.6-6.4-133.8-16.2"/>
		<path id="path5551" class="st0" d="M303.5,307.2c6.3-4.6,10.9-11.1,13.2-18.5c2.3,7.4,6.9,13.9,13.2,18.5H303.5z M497.2,161.3
			c2.9-0.4,5.8-0.8,8.7-1.1v-19.3c-2.9,0.2-5.8,0.4-8.7,0.7V161.3z M481,164.5c3.6-0.9,7.2-1.6,10.8-2.3v-20.1
			c-3.6,0.4-7.2,0.9-10.8,1.5V164.5z M461.5,170.4c4.3-1.6,8.6-3,13-4.2v-21.5c-4.3,0.8-8.7,1.7-13,2.6V170.4L461.5,170.4z
			 M438.8,180.4c4.9-2.6,10-5,15.1-7.1v-24.2c-5.1,1.3-10.2,2.7-15.1,4.3V180.4z M412.9,197.1c5.5-4.2,11.3-8.2,17.3-11.8v-29
			c-5.9,2.1-11.7,4.4-17.3,6.8V197.1z M383.7,225.6c5.9-7.3,12.4-14.2,19.5-20.5v-37.5c-5.8,2.9-11.5,5.9-17,9.1L383.7,225.6
			L383.7,225.6z M256.9,268.6c1,2.4,3.4,4,6,4h83.7c2.6,0,5-1.6,6-4l12.5-30.3c1.4-3.3-0.2-7.1-3.5-8.5c-0.8-0.3-1.6-0.5-2.5-0.5
			H250.4c-3.6,0-6.5,2.9-6.5,6.5c0,0.9,0.2,1.7,0.5,2.5L256.9,268.6L256.9,268.6z M354.5,175.2c0-6-4.9-10.8-10.8-10.8
			c-6,0-10.8,4.8-10.8,10.8s4.8,10.8,10.8,10.8C349.7,186.1,354.5,181.2,354.5,175.2z M268,175.2c0-6-4.9-10.8-10.8-10.8
			c-6,0-10.8,4.8-10.8,10.8s4.8,10.8,10.8,10.8C263.1,186.1,268,181.2,268,175.2"/>
	</g>
</g>
<g id="g29717" transform="matrix(1.25,0,0,-1.25,0,1001.0051)">
	<g id="g29719">
		<path id="path29721" class="st0" d="M250.9-605.2c-17.7,0-32,14.3-32,32v736c0,17.7,14.3,32,32,32h176c17.7,0,32-14.3,32-32v-736
			c0-17.7-14.3-32-32-32"/>
		<path id="path29723" d="M250.9,195.2c-17.9,0-32.4-14.5-32.4-32.4v-736c0-17.9,14.5-32.4,32.4-32.4h176
			c17.9,0,32.4,14.5,32.4,32.4v736c0,17.9-14.5,32.4-32.4,32.4L250.9,195.2L250.9,195.2z M250.9,194.8h176c17.7,0,32-14.3,32-32
			v-736c0-17.7-14.3-32-32-32h-176c-17.7,0-32,14.3-32,32v736C218.9,180.5,233.3,194.8,250.9,194.8z"/>
		<path id="path29725" class="st1" d="M237.1-288.7l203.7,115.5v-100L237.1-388.7C237.1-388.7,237.1-288.7,237.1-288.7z"/>
		<path id="path29727" d="M438.9-573.2c0-6.6-5.4-12-12-12h-176c-6.6,0-12,5.4-12,12v736c0,6.6,5.4,12,12,12h176c6.6,0,12-5.4,12-12
			V-573.2L438.9-573.2z M426.9,186.8h-176c-13.2,0-24-10.8-24-24v-736c0-13.3,10.8-24,24-24h176c13.3,0,24,10.7,24,24v736
			C450.9,176.1,440.2,186.8,426.9,186.8"/>
	</g>
</g>
</svg>
