<?xml version="1.0" encoding="utf-8"?>
<!-- Generator: Adobe Illustrator 22.0.1, SVG Export Plug-In . SVG Version: 6.00 Build 0)  -->
<svg version="1.1"
	 id="svg3636" xmlns:cc="http://creativecommons.org/ns#" xmlns:dc="http://purl.org/dc/elements/1.1/" xmlns:rdf="http://www.w3.org/1999/02/22-rdf-syntax-ns#" xmlns:svg="http://www.w3.org/2000/svg"
	 xmlns="http://www.w3.org/2000/svg" xmlns:xlink="http://www.w3.org/1999/xlink" x="0px" y="0px" viewBox="0 0 241.8 536.2"
	 style="enable-background:new 0 0 241.8 536.2;" xml:space="preserve">
<style type="text/css">
	.st0{fill:url(#SVGID_1_);}
	.st1{fill:#FFFFFF;}
	.st2{fill:none;stroke:#C1121C;stroke-width:25.7267;}
	.st3{clip-path:url(#SVGID_3_);}
</style>
<linearGradient id="SVGID_1_" gradientUnits="userSpaceOnUse" x1="108.0916" y1="341.6074" x2="135.0916" y2="341.6074">
	<stop  offset="0" style="stop-color:#EDEBE9"/>
	<stop  offset="0" style="stop-color:#E1DEDA"/>
	<stop  offset="0" style="stop-color:#D6D1CC"/>
	<stop  offset="6.975419e-02" style="stop-color:#C7C3BE"/>
	<stop  offset="0.1461" style="stop-color:#B2AEAA"/>
	<stop  offset="0.5225" style="stop-color:#E6E6E6"/>
	<stop  offset="0.633" style="stop-color:#D9D8D7"/>
	<stop  offset="0.8443" style="stop-color:#B8B4B0"/>
	<stop  offset="0.8764" style="stop-color:#B2AEAA"/>
	<stop  offset="1" style="stop-color:#D9D9D9"/>
	<stop  offset="1" style="stop-color:#B1B1B1"/>
</linearGradient>
<polygon class="st0" points="135.1,536.2 128.7,528.5 122.2,536.2 114.7,528.5 108.1,536.2 108.1,147 135.1,147 "/>
<g id="g3644" transform="matrix(1.25,0,0,-1.25,0,600.99499)">
	<g id="g3646">
		<path id="path3648" class="st1" d="M193.3,384.6c0-53-43-96-96-96c-53,0-96,43-96,96c0,53,43,96,96,96
			C150.3,480.6,193.3,437.7,193.3,384.6L193.3,384.6z"/>
		<path id="path3650" d="M97.3,480.8c-53.1,0-96.2-43.1-96.2-96.2c0-53.1,43.1-96.2,96.2-96.2c53.1,0,96.2,43.1,96.2,96.2
			C193.4,437.7,150.4,480.8,97.3,480.8z M97.3,480.6c53,0,96-43,96-96c0-53-43-96-96-96c-53,0-96,43-96,96
			C1.3,437.7,44.3,480.6,97.3,480.6L97.3,480.6z"/>
		<path id="path3652" class="st2" d="M177.2,384.6c0-44.1-35.8-79.9-79.9-79.9c-44.1,0-79.9,35.8-79.9,79.9
			c0,44.1,35.8,79.9,79.9,79.9C141.4,464.6,177.2,428.8,177.2,384.6z"/>
		<path id="path3654" d="M10.6,471.1L10.6,471.1L10.6,471.1L10.6,471.1z"/>
		<path id="path3656" d="M10.6,471.1L10.6,471.1L10.6,471.1L10.6,471.1L10.6,471.1z"/>
		<path id="path3658" d="M10.6,471.1L10.6,471.1L10.6,471.1L10.6,471.1z M10.6,471.1L10.6,471.1L10.6,471.1L10.6,471.1z"/>
		<path id="path3660" d="M10.7,471.1L10.7,471.1L10.7,471.1L10.7,471.1C10.6,471.1,10.7,471.1,10.7,471.1z"/>
		<path id="path3662" d="M10.6,471.1L10.6,471.1L10.6,471.1L10.6,471.1L10.6,471.1z"/>
		<path id="path3664" d="M10.6,471.1L10.6,471.1L10.6,471.1L10.6,471.1L10.6,471.1z"/>
		<path id="path3666" d="M10.7,471.1L10.7,471.1L10.7,471.1L10.7,471.1z"/>
		<path id="path3668" d="M10.6,471.1L10.6,471.1L10.6,471.1L10.6,471.1L10.6,471.1z"/>
		<path id="path3670" d="M10.6,471.1L10.6,471.1L10.6,471.1L10.6,471.1z M10.7,471.1L10.7,471.1L10.7,471.1L10.7,471.1z"/>
		<path id="path3672" d="M10.7,471.1L10.7,471.1L10.7,471.1L10.7,471.1C10.6,471.1,10.7,471.1,10.7,471.1z"/>
		<path id="path3674" d="M10.6,471.1L10.6,471.1L10.6,471.1L10.6,471.1L10.6,471.1z"/>
		<path id="path3676" d="M10.6,471.1L10.6,471.1L10.6,471.1L10.6,471.1L10.6,471.1z"/>
		<path id="path3678" d="M10.7,471.1L10.7,471.1L10.7,471.1L10.7,471.1z"/>
		<path id="path3680" d="M10.6,471.1L10.6,471.1L10.6,471.1L10.6,471.1L10.6,471.1z"/>
		<path id="path3682" d="M10.6,471.1L10.6,471.1L10.6,471.1L10.6,471.1z M10.7,471.1L10.7,471.1L10.7,471.1L10.7,471.1z"/>
		<path id="path3684" d="M10.7,471.1L10.7,471.1L10.7,471.1L10.7,471.1C10.6,471.1,10.7,471.1,10.7,471.1z"/>
		<path id="path3686" d="M10.6,471.1L10.6,471.1L10.6,471.1L10.6,471.1L10.6,471.1z"/>
		<path id="path3688" d="M10.6,471.1L10.6,471.1L10.6,471.1L10.6,471.1L10.6,471.1z"/>
		<path id="path3690" d="M10.7,471.1L10.7,471.1L10.7,471.1L10.7,471.1z"/>
		<path id="path3692" d="M10.6,471.1L10.6,471.1L10.6,471.1L10.6,471.1L10.6,471.1z"/>
		<path id="path3694" d="M10.6,471.1L10.6,471.1L10.6,471.1L10.6,471.1z M10.7,471.1L10.7,471.1L10.7,471.1L10.7,471.1z"/>
		<path id="path3696" d="M10.7,471.1L10.7,471.1L10.7,471.1L10.7,471.1C10.6,471.1,10.7,471.1,10.7,471.1z"/>
		<path id="path3698" d="M10.6,471.1L10.6,471.1L10.6,471.1L10.6,471.1L10.6,471.1z"/>
		<path id="path3700" d="M10.6,471.1L10.6,471.1L10.6,471.1L10.6,471.1L10.6,471.1z"/>
	</g>
</g>
<g id="g14174" transform="matrix(1.25,0,0,-1.25,0,600.99628)">
	<g id="g14176">
		<path id="path14178" class="st1" d="M12.9,265.8c-7,0-12.7-5.7-12.7-12.7V86.6c0-7,5.7-12.7,12.7-12.7h166.6
			c7,0,12.7,5.7,12.7,12.7v166.6c0,7-5.7,12.7-12.7,12.7C179.4,265.8,12.9,265.8,12.9,265.8z"/>
		<path id="path14180" d="M12.9,266C5.8,266,0,260.2,0,253.1V86.6c0-7.1,5.8-12.9,12.9-12.9h166.6c7.1,0,12.9,5.8,12.9,12.9v166.6
			c0,7.1-5.8,12.9-12.9,12.9C179.4,266,12.9,266,12.9,266z M12.9,265.8h166.6c7,0,12.7-5.7,12.7-12.7V86.6c0-7-5.7-12.7-12.7-12.7
			H12.9c-7,0-12.7,5.7-12.7,12.7v166.6C0.2,260.1,5.9,265.8,12.9,265.8z"/>
		<path id="path14182" d="M12.9,262.7c-5.3,0-9.6-4.3-9.6-9.6V86.6c0-5.3,4.3-9.6,9.6-9.6h166.6c5.3,0,9.6,4.3,9.6,9.6v166.6
			c0,5.3-4.3,9.6-9.6,9.6C179.4,262.7,12.9,262.7,12.9,262.7z M12.9,257.9h166.6c2.7,0,4.8-2.1,4.8-4.8V86.6c0-2.7-2.2-4.8-4.8-4.8
			H12.9c-2.7,0-4.8,2.1-4.8,4.8v166.6C8.1,255.8,10.2,257.9,12.9,257.9z"/>
		<g id="g14184" transform="translate(0,-0.202972)">
			<g id="g14186">
				<g>
					<defs>
						<rect id="SVGID_2_" x="36" y="75.8" width="120.5" height="192"/>
					</defs>
					<clipPath id="SVGID_3_">
						<use xlink:href="#SVGID_2_"  style="overflow:visible;"/>
					</clipPath>
					<g id="g14188" class="st3">
						<g id="g14194">
							<path id="path14196" class="st1" d="M74.9,180.5h35.5L100,152.6L74.9,180.5z"/>
							<path id="path14198" class="st1" d="M66.9,168.2L62.2,153c-0.1-0.2-0.1-0.4-0.1-0.6c0-1.1,0.9-2,2-2c0.9,0,1.7,0.6,1.9,1.4
								l4.7,15.2c5.7-2.6,9.4-8.3,9.4-14.6c0-8.8-7.2-16-16-16c-8.8,0-16,7.2-16,16c0,8.9,7.2,16,16,16
								C65.1,168.4,66,168.4,66.9,168.2L66.9,168.2z"/>
							<path id="path14200" class="st1" d="M104.2,152.4l10,26.7l4.1-9.3c-6.3-3.6-10.2-10.2-10.2-17.4H104.2z"/>
							<path id="path14202" class="st1" d="M112.2,152.4c0,5.6,3,10.9,7.8,13.7l6.1-13.7H112.2z"/>
							<path id="path14204" class="st1" d="M112.7,148.4h16.5c1.1,0,2,0.9,2,2c0,0.3-0.1,0.6-0.2,0.8l-7.4,16.5
								c1.5,0.4,3,0.7,4.6,0.7c8.9,0,16-7.2,16-16c0-8.8-7.2-16-16-16C120.9,136.4,114.5,141.3,112.7,148.4"/>
							<path id="path14206" d="M119.2,122.3h3.8v-3.8h-3.8V122.3z M119.2,114.6h3.8V95.4h-3.8V114.6z M101.9,106.9h8.2
								c0,2.3-1.8,4.1-4.1,4.1C103.8,111,101.9,109.2,101.9,106.9 M113.9,103.6h-12v-0.5c0-1.7,1-3.2,2.6-3.8c0.6-0.3,1.3-0.4,2-0.4
								c1.6,0,3.1,0.7,4.1,1.9l2.9-2.5c-1.7-2-4.3-3.2-7-3.2c-1.2,0-2.3,0.2-3.4,0.7c-3,1.2-5,4.1-5,7.4v3.8c0,4.4,3.5,7.9,7.9,7.9
								c4.4,0,7.9-3.5,7.9-7.9C113.9,106.9,113.9,103.6,113.9,103.6z M83.2,95.4v19.2H87v-2.2c1.2,1.5,3.1,2.4,5,2.4
								c1.5,0,2.9-0.5,4.1-1.4l-2.7-3.4c-0.7,0.6-1.6,1-2.6,1c-2.1,0-3.8-1.7-3.8-3.8V95.4C87,95.4,83.2,95.4,83.2,95.4z M71.2,95.4
								v16.1h-1.9v3.1h1.9v2.9c0,2.7,2.1,4.8,4.8,4.8h2.9v-3.6h-2.6c-0.7,0-1.2-0.5-1.2-1.2v-2.9h3.8v-3.1H75V95.4
								C75,95.4,71.2,95.4,71.2,95.4z"/>
							<path id="path14208" d="M83,184.3c-2.9,0-5.5-1.7-6.5-4.4l-5.5-13.6c-1.3,0.3-2.5,0.5-3.8,0.5c-8.7,0-15.8-7.1-15.8-15.8
								c0-8.7,7.1-15.8,15.8-15.8c8.7,0,15.8,7.1,15.8,15.8c0,5.7-3,10.9-7.9,13.7l2.3,5.6L89,153.4c2.6-3.8,6.9-6,11.5-6l9.2,0
								c1.6-7.2,8-12.3,15.4-12.3c8.7,0,15.8,7.1,15.8,15.8c0,8.7-7.1,15.8-15.8,15.8c-8.2,0-15-6.2-15.8-14.3l-10.3-0.6
								c-0.1,0-0.2,0-0.3,0c-2.9,0-5.3,2.4-5.3,5.3c0,0.5,0.1,0.9,0.2,1.4l0.6,2.2c0.1,0.3,0.1,0.6,0.1,0.9c0,0.7-0.2,1.4-0.6,2
								l-5.5,7.9c-0.7,0.9-1.7,1.5-2.9,1.5l-7.1,0l2.1,5.4c0.4,1,1.4,1.6,2.5,1.6h7v4.4L83,184.3L83,184.3L83,184.3z M67.1,162.3
								c0.7,0,1.4-0.1,2.1-0.2l0,0l-4.2-10.4c-0.1-0.3-0.2-0.5-0.2-0.8c0-1.2,1-2.2,2.2-2.2c0.9,0,1.7,0.5,2,1.4l4.2,10.4
								c3.2-2.1,5.2-5.7,5.2-9.6c0-6.3-5.1-11.4-11.4-11.4c-6.3,0-11.4,5.1-11.4,11.4C55.7,157.2,60.8,162.3,67.1,162.3L67.1,162.3z
								 M125.2,162.3c6.3,0,11.4-5.1,11.4-11.4c0-6.3-5.1-11.4-11.4-11.4c-5,0-9.4,3.2-10.9,7.9h14.4v6.2l-14.8-0.9
								C114.8,158.2,119.6,162.3,125.2,162.3L125.2,162.3z"/>
							<path id="path14210" d="M137.5,172.9v-4.4l-12.3,0c-3.6,0-7.1-1.1-10.1-3.2l-6.7,4.4c-0.5,0.3-0.8,0.9-0.8,1.4
								c0,1,0.8,1.8,1.8,1.8L137.5,172.9z"/>
							<path id="path14212" d="M83.6,248.5c-3,0-5.7-2-6.6-4.9l-5-16.2c-1.1,0.2-2.3,0.3-3.4,0.3c-9.5,0-17.3-7.7-17.3-17.3
								c0-9.5,7.7-17.3,17.3-17.3c9.5,0,17.3,7.7,17.3,17.3c0,6.9-4.2,13.2-10.5,15.9l1.4,4.4L97,208.3c0.7-0.7,1.6-1.1,2.6-1.1
								l7.3,0c1.6-8,8.7-13.8,16.9-13.8c9.5,0,17.3,7.7,17.3,17.3c0,9.5-7.7,17.3-17.3,17.3c-1.8,0-3.6-0.3-5.3-0.9l-5,11.2l1.3,3.5
								h3.9v3.5h-14.7c-0.5,0-0.9-0.4-0.9-0.9c0-0.4,0.3-0.7,0.7-0.8l7.3-1.7l-1.3-3.5H78.9l1.4,4.5c0.4,1.4,1.8,2.4,3.3,2.4h5.7
								v3.4L83.6,248.5z M77.8,234.7h30.6l-9-24L77.8,234.7z M68.6,224.4c0.8,0,1.6-0.1,2.4-0.2v0l-4.1-13.1
								c-0.1-0.2-0.1-0.3-0.1-0.5c0-1,0.8-1.7,1.7-1.7c0.8,0,1.4,0.5,1.7,1.2l4,13.1c4.9-2.2,8.1-7.2,8.1-12.6
								c0-7.6-6.2-13.8-13.8-13.8c-7.6,0-13.8,6.2-13.8,13.8C54.7,218.2,60.9,224.4,68.6,224.4L68.6,224.4L68.6,224.4z M123.8,224.4
								c7.6,0,13.8-6.2,13.8-13.8c0-7.6-6.2-13.8-13.8-13.8c-6.3,0-11.8,4.3-13.4,10.4h0l14.2,0c1,0,1.7,0.8,1.7,1.7
								c0,0.2,0,0.5-0.2,0.7l-6.4,14.3C121.1,224.2,122.4,224.4,123.8,224.4L123.8,224.4L123.8,224.4z"/>
							<path id="path14214" class="st1" d="M103.1,210.6l8.6,23l3.6-8c-5.4-3.1-8.8-8.8-8.8-15L103.1,210.6L103.1,210.6z"/>
							<path id="path14216" class="st1" d="M110,210.6c0,4.9,2.6,9.4,6.7,11.9l5.3-11.9H110"/>
						</g>
					</g>
				</g>
			</g>
		</g>
	</g>
</g>
</svg>
