<svg xmlns:dc="http://purl.org/dc/elements/1.1/" xmlns:cc="http://creativecommons.org/ns#" xmlns:rdf="http://www.w3.org/1999/02/22-rdf-syntax-ns#" xmlns:svg="http://www.w3.org/2000/svg" xmlns="http://www.w3.org/2000/svg" viewBox="0 0 847.15851 743.62274" height="743.62274" width="847.15851" id="svg3571"><defs id="defs3575" /><g transform="matrix(1.25,0,0,-1.25,0,743.62274)" id="g3579"><g id="g3581"><path id="path3583" style="fill:#fff;fill-opacity:1;fill-rule:nonzero;stroke:none" d="m338.867 594.5c-7.512.0-15.023-2.867-20.758-8.598-1.879-1.879-3.445-3.953-4.707-6.152l-15.246-26.156h-.07L4.984 45.551C4.93 45.457 4.887 45.359 4.832 45.261 3.348 42.871 2.176 40.219 1.402 37.351-2.789 21.695 6.504 5.597 22.164 1.402c2.586-.695 5.188-1.012 7.734-1h618.075c16.211.0 29.351 13.141 29.351 29.356.0 5.3-1.414 10.281-3.879 14.578-.019.035-.039.062-.05.097L369.023 572.844c-3.859 6.664-5.648 9.304-9.402 13.058-5.73 5.731-13.242 8.598-20.754 8.598z" /><path id="path3585" style="fill:#c1121c;fill-opacity:1;fill-rule:nonzero;stroke:none" d="m338.867 587.144c-7.125.051-14.949-3.593-18.781-10.402L10.793 40.847C9.008 37.199 8.258 34.027 8.234 30.398c0-6.496 2.875-12.66 7.848-16.844 4.387-3.39 8.535-5.156 14.121-5.156h617.906c3.77-.035 7.547.871 10.981 3.133 6.445 3.895 10.398 10.883 10.406 18.426-.183 3.894-1.144 8-2.879 10.89L357.504 576.828c-.027.047-.059.094-.09.141-.031.046-.062.089-.094.144-1.093 1.758-2.468 3.305-4.043 4.633-3.586 3.109-8.082 4.976-12.82 5.312-.531.051-1.062.082-1.59.086zM30.203 8.398H28.68h1.554-.031zM338.547 480.929 574.25 72.398H102.512l236.035 408.531z" /><path id="path3587" style="fill:#000;fill-opacity:1;fill-rule:nonzero;stroke:none" d="m338.867 594.898c-7.617.0-15.23-2.906-21.039-8.719-1.906-1.898-3.492-4.007-4.773-6.23l-15.129-25.957h-.071L4.641 45.754C4.574 45.636 4.523 45.535 4.48 45.453 2.977 43.031 1.797 40.351 1.02 37.457-3.23 21.586 6.191 5.269 22.059 1.015 24.68.312 27.316-.008 29.898.0h618.075c16.425.0 29.754 13.328 29.754 29.758.0 5.375-1.438 10.414-3.934 14.773-.016.016-.027.051-.051.098L369.379 573.043c-3.871 6.668-5.695 9.363-9.469 13.136-5.808 5.813-13.426 8.719-21.039 8.719h-.004zm0-.398c7.512.0 15.024-2.867 20.754-8.598 3.754-3.754 5.543-6.394 9.402-13.058L673.391 44.433c.015-.035.035-.062.054-.097 2.465-4.297 3.879-9.278 3.879-14.578.0-16.215-13.14-29.356-29.351-29.356h-618.075C27.352.39 24.75.707 22.164 1.402 6.504 5.597-2.789 21.695 1.402 37.351c.77 2.868 1.946 5.52 3.43 7.91.055.098.098.196.152.29l293.102 508.043h.07l15.246 26.156c1.262 2.199 2.828 4.273 4.707 6.152 5.735 5.731 13.243 8.598 20.758 8.598z" /><path id="path3589" style="fill:#000;fill-opacity:1;fill-rule:nonzero;stroke:none" d="m387.91 179.98c-2.445-8.746 2.66-17.82 11.406-20.269 8.747-2.446 17.821 2.66 20.27 11.406 2.445 8.75-2.66 17.824-11.406 20.269-8.75 2.446-17.825-2.66-20.27-11.406z" /><path id="path3591" style="fill:#000;fill-opacity:1;fill-rule:evenodd;stroke:none" d="m370.145 250.164c-.571 1.215-1.297 2.32-3.102 2.707l-76.613 21.437-46.535-19.582c-.672-.769-1.075-1.39-1.34-1.937l-7.641-26.75c.277-1.731.742-3.278 2.191-3.828l8.836-2.473c7.329 26.191 46.067 15.414 38.723-10.832l99.492-27.836c7.297 26.09 46.344 15.274 39.016-10.918l10.781-3.016c1.039.176 1.754-.457 3.832 2.29l5.512 19.234c-.137 1.93-.734 2.816-1.324 3.715l-53.399 24.969-18.429 32.82z" /><path id="path3593" style="fill:#000;fill-opacity:1;fill-rule:nonzero;stroke:none" d="m249.621 218.676c-2.445-8.747 2.66-17.821 11.406-20.266 8.746-2.449 17.821 2.66 20.27 11.406 2.445 8.746-2.66 17.82-11.406 20.266-8.746 2.449-17.821-2.66-20.27-11.406z" /><path id="path3595" style="fill:#fff;fill-opacity:1;fill-rule:evenodd;stroke:none" d="m380.645 219.242-13.817 24.172c-.328.484-.523 1.082-1.301 1.18l-33.937 9.496-6.453-23.067 53.082-14.851c2.246.234 2.855 1.363 2.426 3.07z" /><path id="path3597" style="fill:#fff;fill-opacity:1;fill-rule:evenodd;stroke:none" d="m274.047 251.609 20.961 11.895c.531.246 1.012.652 1.73.332l28.547-7.985-6.453-23.066-48.656 13.613c-2.172 1.102 1.726 3.36 3.871 5.211z" /><path id="path3599" style="fill:#000;fill-opacity:1;fill-rule:evenodd;stroke:none" d="m259.25 189.515v-108.273H116.852l62.586 108.281 79.812-.004v-.004z" /><path id="path3601" style="fill:#000;fill-opacity:1;fill-rule:evenodd;stroke:none" d="m282.957 128.554c-6.66-.015-11.57-2.253-16.402-4.871l-.219-13.484c9.508 3.973 19.074 7.883 34.676.0 9.34-3.297 18.582-6.875 31.535.0 11.316 5.516 22.976 8.512 36.297.0 8.91-3.891 18.101-6.879 30.492.0 5.598 2.531 11.215 4.195 16.812 4.543 4.926.023 10.481-1.172 17.145-4.543 9.344-3.297 18.586-6.875 31.539.0 11.313 5.516 23.004 8.512 36.324.0 8.91-3.891 18.102-6.879 30.492.0.887-.215 5.477 2.207 8.391 3.746.586.309-3.851 7.531-5.586 10.922-11.879-4.402-23.59-6.535-34.125-1.184-12.219 6.653-23.578 5.461-34.453.0-10.797-4.589-21.043-4.297-30.848-.109v.109c-.82.313-1.613.59-2.422.883-17.003 6.926-25.496 3.582-33.738-.883v-.191c-10.637-3.41-21.484-4.566-30.847.191-12.223 6.653-23.582 5.461-34.454.0-10.898-4.632-21.238-4.297-31.125.0-8.078 3.559-14.304 4.887-19.484 4.871z" /><path id="path3603" style="fill:#000;fill-opacity:1;fill-rule:evenodd;stroke:none" d="m283.316 104.082c-6.66-.016-11.574-2.254-16.402-4.871l-.223-13.485c9.512 3.973 19.075 7.879 34.676.0 9.344-3.297 18.586-6.875 31.535.0 11.317 5.512 22.981 8.508 36.301.0 8.906-3.894 18.098-6.882 30.488.0 5.602 2.528 11.215 4.196 16.817 4.543 4.922.02 10.476-1.175 17.144-4.543 9.34-3.297 18.582-6.875 31.536.0 11.316 5.512 23.007 8.508 36.324.0 8.91-3.894 18.101-6.882 30.492.0.887-.218 5.262 2.719 8.394 3.743 6.942 2.273 14.981-1.02 13.125 1.804-1.843 2.809-5.296 10.238-6.89 11.996-1.07 1.184-9.094-2.203-11.82-2.875-11.883-4.402-23.59-6.539-34.125-1.183-12.219 6.652-23.579 5.461-34.454.0-10.8-4.59-21.043-4.297-30.851-.11v.11c-.82.308-1.613.59-2.418.883-17.008 6.925-25.496 3.582-33.738-.883v-.192c-10.641-3.41-21.489-4.566-30.852.192-12.219 6.652-23.578 5.461-34.453.0-10.899-4.633-21.234-4.297-31.125.0-8.078 3.554-14.305 4.883-19.481 4.871z" /></g></g></svg>