<svg xmlns:dc="http://purl.org/dc/elements/1.1/" xmlns:cc="http://creativecommons.org/ns#" xmlns:rdf="http://www.w3.org/1999/02/22-rdf-syntax-ns#" xmlns:svg="http://www.w3.org/2000/svg" xmlns="http://www.w3.org/2000/svg" viewBox="0 0 847.15851 743.62268" height="743.62268" width="847.15851" id="svg5531"><defs id="defs5535" /><g transform="matrix(1.25,0,0,-1.25,0,743.62267)" id="g5539"><g id="g5541"><path id="path5543" style="fill:#fff;fill-opacity:1;fill-rule:nonzero;stroke:none" d="m338.859 594.5c7.512.0 15.028-2.867 20.758-8.598 1.879-1.879 3.445-3.953 4.707-6.152l15.246-26.157h.071l293.101-508.039c.055-.097.098-.195.153-.293 1.488-2.394 2.656-5.043 3.425-7.91 4.196-15.656-5.097-31.754-20.758-35.949-2.585-.695-5.183-1.012-7.738-1h-618.066c-16.215.0-29.356 13.141-29.356 29.356.0 5.304 1.414 10.281 3.879 14.578.02.031.035.062.051.097l304.367 528.41c3.863 6.665 5.653 9.305 9.406 13.059 5.731 5.731 13.243 8.598 20.754 8.598z" /><path id="path5545" style="fill:#c1121c;fill-opacity:1;fill-rule:nonzero;stroke:none" d="m338.859 587.144c7.125.051 14.95-3.59 18.782-10.406L666.934 40.847c1.785-3.648 2.535-6.82 2.558-10.449.0-6.496-2.875-12.66-7.847-16.84-4.383-3.394-8.536-5.16-14.122-5.16h-617.906C25.848 8.363 22.07 9.269 18.641 11.531 12.188 15.429 8.238 22.414 8.23 29.957c.184 3.894 1.145 8 2.879 10.89l309.114 535.981c.027.047.058.094.089.14.032.047.063.094.094.145 1.098 1.754 2.473 3.305 4.039 4.633 3.59 3.109 8.086 4.976 12.825 5.316.531.047 1.062.078 1.589.082zM647.523 8.398h1.524-1.555.031zM339.18 480.933 103.477 72.398h471.738l-236.035 408.535z" /><path id="path5547" style="fill:#000;fill-opacity:1;fill-rule:nonzero;stroke:none" d="m338.859 594.898c7.618.0 15.231-2.906 21.039-8.715 1.907-1.902 3.493-4.008 4.774-6.234l15.129-25.957h.07l293.215-508.238c.066-.118.113-.219.16-.301 1.504-2.422 2.684-5.102 3.461-7.996C680.957 21.586 671.535 5.269 655.668 1.015 653.047.312 650.41-.008 647.824.0H29.758C13.328.0.0 13.328.0 29.758c0 5.375 1.438 10.417 3.934 14.773.011.019.027.051.05.098l304.364 528.414c3.871 6.668 5.695 9.363 9.468 13.14 5.809 5.809 13.426 8.715 21.039 8.715h.004zm0-.398c-7.511.0-15.023-2.867-20.754-8.598-3.753-3.754-5.543-6.394-9.406-13.059L4.336 44.433C4.316 44.398 4.301 44.367 4.281 44.336 1.816 40.039.402 35.062.402 29.758.402 13.543 13.543.402 29.758.402h618.066c2.555-.012 5.153.305 7.738 1 15.661 4.195 24.954 20.293 20.758 35.949-.765 2.867-1.937 5.516-3.425 7.91-.055.098-.098.196-.153.293l-293.101 508.039h-.071l-15.246 26.157c-1.262 2.199-2.828 4.273-4.707 6.152-5.73 5.731-13.242 8.598-20.758 8.598z" /><path id="path5549" style="fill:#000;fill-opacity:1;fill-rule:nonzero;stroke:none" d="m262.961 121.168c-17.906.0-32.434 14.547-32.434 32.449v.387l.629 53.004c.032 2.621.309 5.21.817 7.765l3.312 16.996c.527 2.684 1.297 5.317 2.328 7.828l15.75 39.172c1.649 4.098 5.606 6.778 10.028 6.778h47.398c-2.894 11.046-11.894 19.461-23.113 21.617h-14.281c-1.805.0-3.254 1.465-3.254 3.269.0 1.77 1.449 3.235 3.254 3.235h86.503c1.786.0 3.25-1.465 3.25-3.235.0-1.804-1.464-3.269-3.25-3.269h-14.3c-11.219-2.156-20.2-10.571-23.114-21.617h26.598c10.555.0 20.137-6.133 24.543-15.715l5.133-11.098c23.652-51.277 72.297-86.578 128.387-93.16l.816-.09c1.91-.234 3.344-1.851 3.344-3.762v-35.148c0-2.988-2.438-5.406-5.41-5.406H262.961zm-32.836-32.453v16.226h21.633v10.832h32.437v-10.832h48.66v10.832h178.45v-10.832c-58.063.0-110.59-6.363-133.813-16.226" /><path id="path5551" style="fill:#fff;fill-opacity:1;fill-rule:nonzero;stroke:none" d="m303.484 307.164c6.258-4.574 10.864-11.063 13.161-18.457 2.296 7.394 6.902 13.883 13.16 18.457h-26.321zm193.75-145.903c2.883-.449 5.75-.816 8.661-1.125v-19.308c-2.895.199-5.778.449-8.661.711v19.722zm-16.222 3.235c3.574-.879 7.195-1.649 10.832-2.313v-20.062c-3.621.418-7.227.91-10.832 1.465v20.91zm-19.465 5.902c4.269-1.558 8.601-2.957 12.976-4.207v-21.527c-4.347.789-8.675 1.664-12.976 2.621v23.113zm-22.711 10.047c4.93-2.59 9.984-4.961 15.148-7.105v-24.239c-5.117 1.313-10.156 2.746-15.148 4.332v27.012zm-25.949 16.641c5.515-4.239 11.297-8.168 17.304-11.774v-28.984c-5.886 2.097-11.664 4.363-17.304 6.812v33.946zm-29.215 28.535c5.902-7.301 12.406-14.16 19.476-20.461v-37.535c-5.824 2.851-11.507 5.886-17.011 9.105l-2.465 48.891zm-126.75 42.976c1.016 2.418 3.359 3.977 5.976 3.977h83.7c2.621.0 4.98-1.559 5.98-3.977l12.543-30.277c1.387-3.297-.168-7.105-3.469-8.492-.785-.336-1.648-.524-2.511-.524h-108.786c-3.589.0-6.484 2.914-6.484 6.489.0.879.168 1.726.508 2.527l12.543 30.277zm97.582-93.359c0-5.965-4.852-10.805-10.832-10.805-5.965.0-10.801 4.84-10.801 10.805.0 5.977 4.836 10.816 10.801 10.816 5.98.0 10.832-4.839 10.832-10.816zm-86.52.0c0-5.965-4.855-10.805-10.816-10.805-5.98.0-10.816 4.84-10.816 10.805.0 5.977 4.836 10.816 10.816 10.816 5.961.0 10.816-4.839 10.816-10.816" /></g></g></svg>