<svg xmlns:dc="http://purl.org/dc/elements/1.1/" xmlns:cc="http://creativecommons.org/ns#" xmlns:rdf="http://www.w3.org/1999/02/22-rdf-syntax-ns#" xmlns:svg="http://www.w3.org/2000/svg" xmlns="http://www.w3.org/2000/svg" viewBox="0 0 300.99625 1001.0051" height="1001.0051" width="300.99625" id="svg29397"><defs id="defs29401" /><g transform="matrix(1.25,0,0,-1.25,0,1001.0051)" id="g29405"><g id="g29407"><path id="path29409" style="fill:#fff;fill-opacity:1;fill-rule:nonzero;stroke:none" d="M32.402.39C14.734.39.387 14.706.387 32.394v735.992c0 17.692 14.347 32.004 32.015 32.004h176.004c17.668.0 32.004-14.312 32.004-32.004v-735.992C240.41 14.706 226.074.39 208.406.39" /><path id="path29411" style="fill:#000;fill-opacity:1;fill-rule:nonzero;stroke:none" d="M32.402 800.804C14.539 800.804.0 786.269.0 768.386V32.394C0 14.531 14.539-.001 32.402-.001h176.004c17.864.0 32.391 14.532 32.391 32.395v735.992c0 17.883-14.527 32.418-32.391 32.418h-176.004zm0-.414h176.004c17.668.0 32.004-14.312 32.004-32.004v-735.992C240.41 14.706 226.074.39 208.406.39h-176.004C14.734.39.387 14.706.387 32.394v735.992c0 17.692 14.347 32.004 32.015 32.004z" /><path id="path29413" style="fill:#000;fill-opacity:1;fill-rule:nonzero;stroke:none" d="m220.414 32.394c0-6.621-5.375-12-12.008-12h-176.004c-6.632.0-11.992 5.379-11.992 12v735.992c0 6.637 5.36 12.016 11.992 12.016h176.004c6.633.0 12.008-5.379 12.008-12.016v-735.992zm-12.008 760.008h-176.004c-13.246.0-24.004-10.75-24.004-24.016v-735.992C8.398 19.14 19.156 8.402 32.402 8.402h176.004c13.254.0 23.992 10.738 23.992 23.992v735.992c0 13.266-10.738 24.016-23.992 24.016" /><path id="path29415" style="fill:#c1121c;fill-opacity:1;fill-rule:nonzero;stroke:none" d="m20.41 400.917v84.008l200.004 115.473v-84.004L20.41 400.917zm0-175.996v84.004l200.004 115.457v-83.988L20.41 224.921zm0-176v84l200.004 115.481v-84.012" /><path id="path29417" style="fill:#000;fill-opacity:1;fill-rule:nonzero;stroke:none" d="m88.195 611.535v46.011h9.207v-5.203c5.375 6.676 15.157 7.703 21.832 2.324 1.051-.847 1.977-1.824 2.778-2.898 6.004 7.402 16.883 8.476 24.261 2.476 4-3.3 6.329-8.203 6.329-13.378v-29.332h-9.18v28.183c0 5.074-4.102 9.199-9.203 9.199-5.106.0-9.207-4.125-9.207-9.199v-28.183h-9.203v28.183c0 5.074-4.125 9.199-9.204 9.199-5.078.0-9.203-4.125-9.203-9.199v-28.183h-9.207zM152 701.828c0-5.102 4.125-9.204 9.203-9.204 5.078.0 9.18 4.102 9.18 9.204v28.73c0 5.102-4.102 9.203-9.18 9.203-5.078.0-9.203-4.101-9.203-9.203v-28.73zm-9.203.0v28.73c0 10.176 8.226 18.402 18.406 18.402 10.156.0 18.383-8.226 18.383-18.402v-28.73c0-10.176-8.227-18.403-18.383-18.403-10.18.0-18.406 8.227-18.406 18.403m-47.172 12.054v34.504h34.516v-9.199h-25.887v-14.531c7.226 5.726 17.707 4.504 23.434-2.723 2.351-2.926 3.601-6.578 3.601-10.352v-9.753c0-10.176-8.25-18.403-18.406-18.403-9.481.0-17.434 7.227-18.309 16.653h9.281c.95-4.977 5.75-8.25 10.754-7.301 4.352.824 7.477 4.625 7.477 9.051v8.05c0 5.078-4.102 9.18-9.203 9.18-3.528.0-6.727-2.004-8.278-5.176h-8.98zm-34.414 17.828v9.774l9.203 6.902h9.203v-64.387h-9.203v54.61l-9.203-6.899z" /></g></g></svg>