<svg xmlns:dc="http://purl.org/dc/elements/1.1/" xmlns:cc="http://creativecommons.org/ns#" xmlns:rdf="http://www.w3.org/1999/02/22-rdf-syntax-ns#" xmlns:svg="http://www.w3.org/2000/svg" xmlns="http://www.w3.org/2000/svg" viewBox="0 0 300.99631 1001.0051" height="1001.0051" width="300.99631" id="svg28759"><defs id="defs28763" /><g transform="matrix(1.25,0,0,-1.25,0,1001.0051)" id="g28767"><g id="g28769"><path id="path28771" style="fill:#fff;fill-opacity:1;fill-rule:nonzero;stroke:none" d="m208.395.39c17.667.0 32.015 14.316 32.015 32.004v735.992c0 17.692-14.348 32.004-32.015 32.004h-176.004c-17.668.0-32.004-14.312-32.004-32.004v-735.992C.387 14.706 14.723.39 32.391.39" /><path id="path28773" style="fill:#000;fill-opacity:1;fill-rule:nonzero;stroke:none" d="m208.395 800.804c17.863.0 32.402-14.535 32.402-32.418v-735.992c0-17.863-14.539-32.395-32.402-32.395h-176.004C14.527-.001.0 14.531.0 32.394v735.992c0 17.883 14.527 32.418 32.391 32.418h176.004zm0-.414h-176.004c-17.668.0-32.004-14.312-32.004-32.004v-735.992C.387 14.706 14.723.39 32.391.39h176.004c17.667.0 32.015 14.316 32.015 32.004v735.992c0 17.692-14.348 32.004-32.015 32.004z" /><path id="path28775" style="fill:#000;fill-opacity:1;fill-rule:nonzero;stroke:none" d="m20.383 32.394c0-6.621 5.375-12 12.008-12h176.004c6.632.0 11.992 5.379 11.992 12v735.992c0 6.637-5.36 12.016-11.992 12.016h-176.004c-6.633.0-12.008-5.379-12.008-12.016v-735.992zm12.008 760.008h176.004c13.246.0 24.003-10.75 24.003-24.016v-735.992c0-13.254-10.757-23.992-24.003-23.992h-176.004C19.137 8.402 8.398 19.14 8.398 32.394v735.992c0 13.266 10.739 24.016 23.993 24.016" /><path id="path28777" style="fill:#c1121c;fill-opacity:1;fill-rule:nonzero;stroke:none" d="m220.387 400.917v84.008l-200.004 115.473v-84.004l200.004-115.477zm0-175.996v84.004l-200.004 115.457v-83.988l200.004-115.473zm0-176v84l-200.004 115.481v-84.012" /></g></g></svg>