<svg xmlns:dc="http://purl.org/dc/elements/1.1/" xmlns:cc="http://creativecommons.org/ns#" xmlns:rdf="http://www.w3.org/1999/02/22-rdf-syntax-ns#" xmlns:svg="http://www.w3.org/2000/svg" xmlns="http://www.w3.org/2000/svg" viewBox="0 0 847.15851 1758.1235" height="1758.1235" width="847.15851" id="svg32794"><defs id="defs32798" /><g transform="matrix(1.25,0,0,-1.25,0,1758.1235)" id="g32802"><g id="g32804"><path id="path32806" style="fill:#fff;fill-opacity:1;fill-rule:nonzero;stroke:none" d="m338.859 1406.1c7.512.0 15.028-2.867 20.758-8.597 1.879-1.879 3.445-3.953 4.707-6.153l15.246-26.156h.071l293.101-508.039c.055-.098.098-.195.153-.293 1.488-2.394 2.656-5.043 3.425-7.91 4.196-15.656-5.097-31.754-20.758-35.949-2.585-.696-5.183-1.012-7.738-1h-618.066c-16.215.0-29.356 13.14-29.356 29.355.0 5.305 1.414 10.281 3.879 14.578.02.032.035.063.051.098l304.367 528.41c3.863 6.664 5.653 9.305 9.406 13.059 5.731 5.73 13.243 8.597 20.754 8.597z" /><path id="path32808" style="fill:#c1121c;fill-opacity:1;fill-rule:nonzero;stroke:none" d="m338.859 1398.745c7.125.051 14.95-3.59 18.782-10.406L666.934 852.448c1.785-3.648 2.535-6.82 2.558-10.449.0-6.496-2.875-12.66-7.847-16.84-4.383-3.395-8.536-5.16-14.122-5.16h-617.906c-3.769-.035-7.547.871-10.976 3.133-6.453 3.898-10.403 10.882-10.411 18.425.184 3.895 1.145 8 2.879 10.891l309.114 535.98c.027.047.058.094.089.141.032.047.063.094.094.145 1.098 1.754 2.473 3.304 4.039 4.632 3.59 3.11 8.086 4.977 12.825 5.317.531.047 1.062.078 1.589.082zm308.664-578.746h1.524-1.555.031zM339.18 1292.534 103.477 883.999h471.738l-236.035 408.535z" /><path id="path32810" style="fill:#000;fill-opacity:1;fill-rule:nonzero;stroke:none" d="m338.859 1406.499c7.618.0 15.231-2.906 21.039-8.715 1.907-1.902 3.493-4.008 4.774-6.234l15.129-25.957h.07l293.215-508.239c.066-.117.113-.219.16-.301 1.504-2.421 2.684-5.101 3.461-7.996 4.25-15.871-5.172-32.187-21.039-36.441-2.621-.703-5.258-1.023-7.844-1.016h-618.066C13.328 811.6.0 824.928.0 841.358c0 5.375 1.438 10.418 3.934 14.774.011.019.027.05.05.097l304.364 528.414c3.871 6.668 5.695 9.364 9.468 13.141 5.809 5.809 13.426 8.715 21.039 8.715h.004zm0-.399c-7.511.0-15.023-2.867-20.754-8.597-3.753-3.754-5.543-6.395-9.406-13.059L4.336 856.034c-.02-.035-.035-.066-.055-.098-2.465-4.297-3.879-9.273-3.879-14.578.0-16.215 13.141-29.355 29.356-29.355h618.066c2.555-.012 5.153.304 7.738 1 15.661 4.195 24.954 20.293 20.758 35.949-.765 2.867-1.937 5.516-3.425 7.91-.055.098-.098.195-.153.293l-293.101 508.039h-.071l-15.246 26.156c-1.262 2.2-2.828 4.274-4.707 6.153-5.73 5.73-13.242 8.597-20.758 8.597z" /><path id="path32812" style="fill:#000;fill-opacity:1;fill-rule:nonzero;stroke:none" d="m262.961 932.768c-17.906.0-32.434 14.547-32.434 32.45v.386l.629 53.004c.032 2.621.309 5.211.817 7.766l3.312 16.996c.527 2.683 1.297 5.316 2.328 7.828l15.75 39.172c1.649 4.098 5.606 6.777 10.028 6.777h47.398c-2.894 11.047-11.894 19.461-23.113 21.617h-14.281c-1.805.0-3.254 1.465-3.254 3.27.0 1.769 1.449 3.234 3.254 3.234h86.503c1.786.0 3.25-1.465 3.25-3.234.0-1.805-1.464-3.27-3.25-3.27h-14.3c-11.219-2.156-20.2-10.57-23.114-21.617h26.598c10.555.0 20.137-6.133 24.543-15.715l5.133-11.097c23.652-51.278 72.297-86.578 128.387-93.16l.816-.09c1.91-.235 3.344-1.852 3.344-3.762v-35.148c0-2.989-2.438-5.407-5.41-5.407H262.961zm-32.836-32.453v16.227h21.633v10.832h32.437v-10.832h48.66v10.832h178.45v-10.832c-58.063.0-110.59-6.364-133.813-16.227" /><path id="path32814" style="fill:#fff;fill-opacity:1;fill-rule:nonzero;stroke:none" d="m303.484 1118.764c6.258-4.574 10.864-11.062 13.161-18.457 2.296 7.395 6.902 13.883 13.16 18.457h-26.321zm193.75-145.902c2.883-.449 5.75-.816 8.661-1.125v-19.309c-2.895.2-5.778.45-8.661.711v19.723zm-16.222 3.234c3.574-.878 7.195-1.648 10.832-2.312v-20.063c-3.621.418-7.227.911-10.832 1.465v20.91zm-19.465 5.903c4.269-1.559 8.601-2.957 12.976-4.207v-21.528c-4.347.789-8.675 1.664-12.976 2.621v23.114zm-22.711 10.047c4.93-2.59 9.984-4.961 15.148-7.106v-24.238c-5.117 1.312-10.156 2.746-15.148 4.332v27.012zm-25.949 16.64c5.515-4.238 11.297-8.168 17.304-11.773v-28.985c-5.886 2.098-11.664 4.364-17.304 6.813v33.945zm-29.215 28.535c5.902-7.3 12.406-14.16 19.476-20.461v-37.535c-5.824 2.852-11.507 5.887-17.011 9.106l-2.465 48.89zm-126.75 42.977c1.016 2.418 3.359 3.977 5.976 3.977h83.7c2.621.0 4.98-1.559 5.98-3.977l12.543-30.277c1.387-3.297-.168-7.106-3.469-8.493-.785-.335-1.648-.523-2.511-.523h-108.786c-3.589.0-6.484 2.914-6.484 6.488.0.879.168 1.727.508 2.528l12.543 30.277zm97.582-93.359c0-5.965-4.852-10.805-10.832-10.805-5.965.0-10.801 4.84-10.801 10.805.0 5.976 4.836 10.816 10.801 10.816 5.98.0 10.832-4.84 10.832-10.816zm-86.52.0c0-5.965-4.855-10.805-10.816-10.805-5.98.0-10.816 4.84-10.816 10.805.0 5.976 4.836 10.816 10.816 10.816 5.961.0 10.816-4.84 10.816-10.816" /><path id="path32816" style="fill:#fff;fill-opacity:1;fill-rule:nonzero;stroke:none" d="m250.867.389c-17.668.0-32.015 14.317-32.015 32.004v735.992c0 17.692 14.347 32.004 32.015 32.004h176.004c17.668.0 32.004-14.312 32.004-32.004v-735.992c0-17.687-14.336-32.004-32.004-32.004" /><path id="path32818" style="fill:#000;fill-opacity:1;fill-rule:nonzero;stroke:none" d="m250.867 800.803c-17.863.0-32.402-14.535-32.402-32.418v-735.992c0-17.863 14.539-32.394 32.402-32.394h176.004c17.863.0 32.391 14.531 32.391 32.394v735.992c0 17.883-14.528 32.418-32.391 32.418H250.867zm0-.414h176.004c17.668.0 32.004-14.312 32.004-32.004v-735.992c0-17.687-14.336-32.004-32.004-32.004H250.867c-17.668.0-32.015 14.317-32.015 32.004v735.992c0 17.692 14.347 32.004 32.015 32.004z" /><path id="path32820" style="fill:#000;fill-opacity:1;fill-rule:nonzero;stroke:none" d="m438.879 32.393c0-6.621-5.375-12-12.008-12h-176.004c-6.633.0-11.992 5.379-11.992 12v735.992c0 6.637 5.359 12.016 11.992 12.016h176.004c6.633.0 12.008-5.379 12.008-12.016v-735.992zm-12.008 760.008h-176.004c-13.246.0-24.004-10.75-24.004-24.016v-735.992c0-13.254 10.758-23.992 24.004-23.992h176.004c13.254.0 23.992 10.738 23.992 23.992v735.992c0 13.266-10.738 24.016-23.992 24.016" /><path id="path32822" style="fill:#c1121c;fill-opacity:1;fill-rule:nonzero;stroke:none" d="m238.875 400.917v84.008l200.004 115.472v-84.004l-200.004-115.476zm0-175.996v84.004l200.004 115.457v-83.989l-200.004-115.472zm0-176v84l200.004 115.48v-84.012" /></g></g></svg>