<svg xmlns:dc="http://purl.org/dc/elements/1.1/" xmlns:cc="http://creativecommons.org/ns#" xmlns:rdf="http://www.w3.org/1999/02/22-rdf-syntax-ns#" xmlns:svg="http://www.w3.org/2000/svg" xmlns="http://www.w3.org/2000/svg" viewBox="0 0 847.15863 743.62268" height="743.62268" width="847.15863" id="svg7269"><defs id="defs7273" /><g transform="matrix(1.25,0,0,-1.25,0,743.62267)" id="g7277"><g id="g7279"><path id="path7281" style="fill:#fff;fill-opacity:1;fill-rule:nonzero;stroke:none" d="m338.859 594.5c7.512.0 15.028-2.867 20.758-8.598 1.879-1.879 3.446-3.953 4.707-6.152l15.246-26.157h.071l293.101-508.039c.055-.097.098-.195.153-.293 1.488-2.394 2.656-5.043 3.425-7.91 4.196-15.656-5.097-31.754-20.757-35.949-2.586-.695-5.184-1.012-7.739-1h-618.066c-16.215.0-29.356 13.141-29.356 29.356.0 5.304 1.414 10.281 3.879 14.578.02.031.035.062.051.097l304.367 528.41c3.864 6.665 5.653 9.305 9.406 13.059 5.731 5.731 13.243 8.598 20.754 8.598z" /><path id="path7283" style="fill:#c1121c;fill-opacity:1;fill-rule:nonzero;stroke:none" d="m338.859 587.144c7.125.051 14.95-3.59 18.782-10.406L666.934 40.847c1.785-3.648 2.535-6.82 2.558-10.449.0-6.496-2.875-12.66-7.847-16.84-4.383-3.394-8.536-5.16-14.122-5.16h-617.906C25.848 8.363 22.07 9.269 18.641 11.531 12.188 15.429 8.238 22.414 8.23 29.957c.184 3.894 1.145 8 2.879 10.89l309.114 535.981c.027.047.058.094.09.14.031.047.062.094.093.145 1.098 1.754 2.473 3.305 4.039 4.633 3.59 3.109 8.086 4.976 12.825 5.316.531.047 1.062.078 1.589.082zM647.523 8.398h1.524-1.555.031zM339.18 480.933 103.477 72.398h471.738l-236.035 408.535z" /><path id="path7285" style="fill:#000;fill-opacity:1;fill-rule:nonzero;stroke:none" d="m338.859 594.898c7.618.0 15.231-2.906 21.039-8.715 1.907-1.902 3.493-4.008 4.774-6.234l15.129-25.957h.07l293.215-508.238c.066-.118.113-.219.16-.301 1.504-2.422 2.684-5.102 3.461-7.996C680.957 21.586 671.535 5.269 655.668 1.015 653.047.312 650.41-.008 647.824.0H29.758C13.328.0.0 13.328.0 29.758c0 5.375 1.438 10.417 3.934 14.773.011.019.027.051.05.098l304.364 528.414c3.871 6.668 5.695 9.363 9.468 13.14 5.809 5.809 13.426 8.715 21.039 8.715h.004zm0-.398c-7.511.0-15.023-2.867-20.754-8.598-3.753-3.754-5.542-6.394-9.406-13.059L4.336 44.433C4.316 44.398 4.301 44.367 4.281 44.336 1.816 40.039.402 35.062.402 29.758.402 13.543 13.543.402 29.758.402h618.066c2.555-.012 5.153.305 7.739 1 15.66 4.195 24.953 20.293 20.757 35.949-.765 2.867-1.937 5.516-3.425 7.91-.055.098-.098.196-.153.293l-293.101 508.039h-.071l-15.246 26.157c-1.261 2.199-2.828 4.273-4.707 6.152-5.73 5.731-13.242 8.598-20.758 8.598z" /><path id="path7287" style="fill:#000;fill-opacity:1;fill-rule:nonzero;stroke:none" d="m318.879 366.82c0-13.164 10.66-23.84 23.84-23.84 13.16.0 23.836 10.676 23.836 23.84.0 13.176-10.676 23.852-23.836 23.852-13.18.0-23.84-10.676-23.84-23.852zm-11.926-70.914v-69.148h47.692v57.191l30.96-47.688c6.27-9.656 19.204-12.406 28.856-6.136l-58.672 90.347c-8.961 13.809-27.406 17.735-41.219 8.758-1.035-.648-1.992-1.375-2.922-2.16L271.621 293.5c-4.047-3.403-6.379-8.422-6.379-13.692v-29.195c0-11.543 9.332-20.871 20.856-20.871v48.664l20.855 17.5zm23.84-87.113 56.293-103.68c6.273-11.57 20.75-15.863 32.32-9.563l-63.324 116.625c-.941 1.747-1.437 3.708-1.437 5.684v2.938h-47.692v-2.938c0-1.976-.492-3.937-1.453-5.684L258.18 124.98c-6.285-11.586-2.008-26.047 9.566-32.316" /></g></g></svg>