<svg xmlns:dc="http://purl.org/dc/elements/1.1/" xmlns:cc="http://creativecommons.org/ns#" xmlns:rdf="http://www.w3.org/1999/02/22-rdf-syntax-ns#" xmlns:svg="http://www.w3.org/2000/svg" xmlns="http://www.w3.org/2000/svg" viewBox="0 0 847.1546 743.62537" height="743.62537" width="847.1546" id="svg21339"><defs id="defs21343" /><g transform="matrix(1.25,0,0,-1.25,0,743.62534)" id="g21347"><g id="g21349"><path id="path21351" style="fill:#fff;fill-opacity:1;fill-rule:nonzero;stroke:none" d="m338.867 594.502c-7.512.0-15.023-2.867-20.758-8.598-1.882-1.879-3.449-3.953-4.711-6.152l-15.246-26.156h-.066L4.98 45.553C4.93 45.459 4.887 45.365 4.832 45.264 3.348 42.873 2.176 40.221 1.398 37.353-2.789 21.697 6.504 5.599 22.16 1.404c2.59-.695 5.188-1.012 7.738-1h618.075c16.211.0 29.351 13.141 29.351 29.356.0 5.297-1.418 10.281-3.879 14.578-.019.035-.043.062-.05.097L369.023 572.846c-3.863 6.664-5.648 9.304-9.402 13.058-5.73 5.731-13.242 8.598-20.754 8.598z" /><path id="path21353" style="fill:#c1121c;fill-opacity:1;fill-rule:nonzero;stroke:none" d="m338.867 587.146c-7.125.051-14.953-3.593-18.781-10.398L10.789 40.849C9.008 37.201 8.258 34.029 8.234 30.4 8.234 23.904 11.105 17.74 16.082 13.553 20.469 10.166 24.617 8.4 30.203 8.4h617.906c3.77-.035 7.543.871 10.981 3.133 6.441 3.895 10.398 10.883 10.406 18.426-.184 3.894-1.148 8-2.879 10.89L357.504 576.83c-.031.047-.059.094-.094.141-.027.046-.062.086-.09.144-1.097 1.758-2.472 3.305-4.047 4.633-3.582 3.109-8.078 4.976-12.816 5.309-.531.054-1.062.085-1.59.089zM30.203 8.4H28.68h1.554-.031zM338.547 480.928 574.25 72.4H102.512l236.035 408.528z" /><path id="path21355" style="fill:#000;fill-opacity:1;fill-rule:nonzero;stroke:none" d="m338.867 594.9c-7.617.0-15.23-2.906-21.039-8.722-1.906-1.895-3.492-4.004-4.773-6.227l-15.129-25.957h-.074L4.641 45.756C4.574 45.639 4.523 45.537 4.477 45.455 2.973 43.033 1.797 40.353 1.02 37.459-3.23 21.588 6.191 5.271 22.059 1.017 24.68.314 27.316-.006 29.898.002h618.075c16.425.0 29.75 13.328 29.75 29.758.0 5.375-1.438 10.414-3.934 14.773-.016.016-.023.051-.047.098L369.379 573.045c-3.871 6.668-5.695 9.363-9.473 13.133-5.808 5.816-13.426 8.722-21.035 8.722h-.004zm0-.398c7.512.0 15.024-2.867 20.754-8.598 3.754-3.754 5.539-6.394 9.402-13.058L673.391 44.435c.011-.035.035-.062.054-.097 2.461-4.297 3.879-9.281 3.879-14.578.0-16.215-13.14-29.356-29.351-29.356h-618.075C27.348.392 24.75.709 22.16 1.404 6.504 5.599-2.789 21.697 1.398 37.353c.77 2.868 1.95 5.52 3.434 7.911.055.101.098.195.148.289l293.106 508.043h.066l15.246 26.156c1.262 2.199 2.829 4.273 4.711 6.152 5.735 5.731 13.239 8.598 20.758 8.598z" /><path id="path21357" style="fill:#000;fill-opacity:1;fill-rule:nonzero;stroke:none" d="m350.898 149.381c0 2.394.79 4.746 2.227 6.664l2.203 2.957c1.563 2.062 2.871 4.312 3.891 6.687l14.629 33.637c1.476 3.395 4.804 5.563 8.468 5.563h92.426c3.684.0 7.012-2.168 8.488-5.563l14.61-33.637c1.039-2.375 2.351-4.625 3.89-6.687l2.227-2.957c1.434-1.918 2.227-4.27 2.227-6.664v-24.059c0-5.101-4.141-9.246-9.262-9.246h-136.785c-5.098.0-9.239 4.145-9.239 9.246v24.059zm17.559 14.808h120.164l-12.715 29.223c-.582 1.352-1.914 2.227-3.39 2.227h-87.954c-1.476.0-2.808-.875-3.39-2.227l-12.715-29.223zm-8.32-51.82h22.179V92.017c0-3.058-2.476-5.539-5.535-5.539h-11.09c-3.058.0-5.554 2.481-5.554 5.539v20.352zm114.605.0h22.18V92.017c0-3.058-2.473-5.539-5.535-5.539h-11.09c-3.059.0-5.555 2.481-5.555 5.539v20.352z" /><path id="path21359" style="fill:#000;fill-opacity:1;fill-rule:nonzero;stroke:none" d="m285.898 200.342c0 2.043.668 4.043 1.895 5.687l1.895 2.52c1.308 1.769 2.433 3.664 3.308 5.707l12.461 28.66c1.25 2.875 4.102 4.746 7.223 4.746h78.797c3.14.0 5.972-1.871 7.218-4.746l12.465-28.66c.895-2.043 1.996-3.938 3.328-5.707l.938-1.25h-33.106c-4.64.0-8.82-2.75-10.675-7l-12.317-28.344h-65.543c-4.347.0-7.887 3.519-7.887 7.891v20.496zm14.961 12.621h102.434l-10.84 24.91c-.5 1.148-1.621 1.898-2.891 1.898h-74.968c-1.25.0-2.395-.75-2.895-1.898l-10.84-24.91zm-7.074-44.176h18.895v-17.348c0-2.605-2.102-4.73-4.727-4.73h-9.445c-2.621.0-4.723 2.125-4.723 4.73v17.348z" /><path id="path21361" style="fill:#000;fill-opacity:1;fill-rule:nonzero;stroke:none" d="m228.125 245.642c0 1.727.559 3.415 1.602 4.809l1.601 2.125c1.125 1.5 2.059 3.125 2.809 4.832l10.551 24.266c1.058 2.437 3.453 4 6.093 4h66.668c2.664.0 5.055-1.563 6.117-4l10.551-24.266c.746-1.707 1.684-3.332 2.809-4.832l1.601-2.125.25-.375h-26.093c-4.098.0-7.801-2.434-9.426-6.184l-9.676-22.285h-58.801c-3.66.0-6.656 2.996-6.656 6.684v17.351zm12.672 10.684h86.66l-9.176 21.078c-.414.981-1.371 1.606-2.433 1.606h-63.442c-1.062.0-2.019-.625-2.457-1.606l-9.152-21.078zm-6.016-37.387h16v-14.683c0-2.207-1.789-4-3.992-4h-7.992c-2.203.0-4.016 1.793-4.016 4v14.683z" /></g></g></svg>