<svg xmlns:dc="http://purl.org/dc/elements/1.1/" xmlns:cc="http://creativecommons.org/ns#" xmlns:rdf="http://www.w3.org/1999/02/22-rdf-syntax-ns#" xmlns:svg="http://www.w3.org/2000/svg" xmlns="http://www.w3.org/2000/svg" viewBox="0 0 300.99631 1001.0051" height="1001.0051" width="300.99631" id="svg29589"><defs id="defs29593" /><g transform="matrix(1.25,0,0,-1.25,0,1001.0051)" id="g29597"><g id="g29599"><path id="path29601" style="fill:#fff;fill-opacity:1;fill-rule:nonzero;stroke:none" d="M32.402.39C14.734.39.387 14.706.387 32.394v735.988c0 17.696 14.347 32.004 32.015 32.004h176.004c17.668.0 32.004-14.308 32.004-32.004v-735.988C240.41 14.706 226.074.39 208.406.39" /><path id="path29603" style="fill:#000;fill-opacity:1;fill-rule:nonzero;stroke:none" d="M32.402 800.804C14.539 800.804.0 786.269.0 768.386V32.394C0 14.531 14.539-.001 32.402-.001h176.004c17.864.0 32.391 14.532 32.391 32.395v735.992c0 17.883-14.527 32.418-32.391 32.418h-176.004zm0-.414h176.004c17.668.0 32.004-14.312 32.004-32.004v-735.992C240.41 14.706 226.074.39 208.406.39h-176.004C14.734.39.387 14.706.387 32.394v735.992c0 17.692 14.347 32.004 32.015 32.004z" /><path id="path29605" style="fill:#000;fill-opacity:1;fill-rule:nonzero;stroke:none" d="m220.414 32.394c0-6.621-5.375-12-12.008-12h-176.004c-6.632.0-11.992 5.379-11.992 12v735.992c0 6.637 5.36 12.016 11.992 12.016h176.004c6.633.0 12.008-5.379 12.008-12.016v-735.992zm-12.008 760.008h-176.004c-13.246.0-24.004-10.75-24.004-24.016v-735.992C8.398 19.14 19.156 8.402 32.402 8.402h176.004c13.254.0 23.992 10.738 23.992 23.992v735.992c0 13.266-10.738 24.016-23.992 24.016" /><path id="path29607" style="fill:#c1121c;fill-opacity:1;fill-rule:nonzero;stroke:none" d="m20.625 407.886 199.547 115.77v-92.239l-199.547-114.832v91.301zm0-192.019 199.547 115.777v-92.246L20.625 124.566" /><path id="path29609" style="fill:#000;fill-opacity:1;fill-rule:nonzero;stroke:none" d="m88.82 611.535v46.007h9.188v-5.203c5.367 6.684 15.152 7.707 21.808 2.317 1.075-.836 2.004-1.789 2.793-2.887 6.016 7.394 16.871 8.492 24.246 2.457 4.008-3.27 6.348-8.184 6.348-13.363v-29.328h-9.187v28.183c0 5.082-4.106 9.188-9.211 9.188-5.082.0-9.188-4.106-9.188-9.188v-28.183h-9.211v28.183c0 5.082-4.129 9.188-9.211 9.188-5.058.0-9.187-4.106-9.187-9.188v-28.183h-9.188zm64.383 90.273c0-5.082 4.125-9.188 9.188-9.188 5.105.0 9.211 4.106 9.211 9.188v28.754c0 5.082-4.106 9.211-9.211 9.211-5.063.0-9.188-4.129-9.188-9.211v-28.754zm-9.187.0v28.754c0 10.164 8.23 18.398 18.375 18.398 10.187.0 18.421-8.234 18.421-18.398v-28.754c0-10.164-8.234-18.398-18.421-18.398-10.145.0-18.375 8.234-18.375 18.398.0.0.0-10.164.0.0m-40.258.0c0-5.082 4.105-9.188 9.187-9.188 5.082.0 9.188 4.106 9.188 9.188v28.754c0 5.082-4.106 9.211-9.188 9.211-5.082.0-9.187-4.129-9.187-9.211v-28.754zm-9.211.0v28.754c0 10.164 8.258 18.398 18.398 18.398 10.164.0 18.399-8.234 18.399-18.398v-28.754c0-10.164-8.235-18.398-18.399-18.398-10.14.0-18.398 8.234-18.398 18.398m-33.336 29.922v9.762l9.211 6.894h9.187v-64.402h-9.187v54.621l-9.211-6.875z" /></g></g></svg>