<svg xmlns:dc="http://purl.org/dc/elements/1.1/" xmlns:cc="http://creativecommons.org/ns#" xmlns:rdf="http://www.w3.org/1999/02/22-rdf-syntax-ns#" xmlns:svg="http://www.w3.org/2000/svg" xmlns="http://www.w3.org/2000/svg" viewBox="0 0 847.15851 743.62274" height="743.62274" width="847.15851" id="svg3519"><defs id="defs3523" /><g transform="matrix(1.25,0,0,-1.25,0,743.62274)" id="g3527"><g id="g3529"><path id="path3531" style="fill:#fff;fill-opacity:1;fill-rule:nonzero;stroke:none" d="m338.867 594.5c-7.512.0-15.023-2.867-20.758-8.598-1.879-1.879-3.445-3.953-4.707-6.152l-15.246-26.156h-.07L4.984 45.551C4.93 45.457 4.887 45.359 4.832 45.261 3.348 42.871 2.176 40.219 1.402 37.351-2.789 21.695 6.504 5.597 22.164 1.402c2.586-.695 5.188-1.012 7.734-1h618.075c16.211.0 29.351 13.141 29.351 29.356.0 5.3-1.414 10.281-3.879 14.578-.019.035-.039.062-.05.097L369.023 572.844c-3.859 6.664-5.648 9.304-9.402 13.058-5.73 5.731-13.242 8.598-20.754 8.598z" /><path id="path3533" style="fill:#c1121c;fill-opacity:1;fill-rule:nonzero;stroke:none" d="m338.867 587.144c-7.125.051-14.949-3.593-18.781-10.402L10.793 40.847C9.008 37.199 8.258 34.027 8.234 30.398c0-6.496 2.875-12.66 7.848-16.844 4.387-3.39 8.535-5.156 14.121-5.156h617.906c3.77-.035 7.547.871 10.981 3.133 6.445 3.895 10.398 10.883 10.406 18.426-.183 3.894-1.144 8-2.879 10.89L357.504 576.828c-.027.047-.059.094-.09.141-.031.046-.062.089-.094.144-1.093 1.758-2.468 3.305-4.043 4.633-3.586 3.109-8.082 4.976-12.82 5.312-.531.051-1.062.082-1.59.086zM30.203 8.398H28.68h1.554-.031zM338.547 480.929 574.25 72.398H102.512l236.035 408.531z" /><path id="path3535" style="fill:#000;fill-opacity:1;fill-rule:nonzero;stroke:none" d="m338.867 594.898c-7.617.0-15.23-2.906-21.039-8.719-1.906-1.898-3.492-4.007-4.773-6.23l-15.129-25.957h-.071L4.641 45.754C4.574 45.636 4.523 45.535 4.48 45.453 2.977 43.031 1.797 40.351 1.02 37.457-3.23 21.586 6.191 5.269 22.059 1.015 24.68.312 27.316-.008 29.898.0h618.075c16.425.0 29.754 13.328 29.754 29.758.0 5.375-1.438 10.414-3.934 14.773-.016.016-.027.051-.051.098L369.379 573.043c-3.871 6.668-5.695 9.363-9.469 13.136-5.808 5.813-13.426 8.719-21.039 8.719h-.004zm0-.398c7.512.0 15.024-2.867 20.754-8.598 3.754-3.754 5.543-6.394 9.402-13.058L673.391 44.433c.015-.035.035-.062.054-.097 2.465-4.297 3.879-9.278 3.879-14.578.0-16.215-13.14-29.356-29.351-29.356h-618.075C27.352.39 24.75.707 22.164 1.402 6.504 5.597-2.789 21.695 1.402 37.351c.77 2.868 1.946 5.52 3.43 7.91.055.098.098.196.152.29l293.102 508.043h.07l15.246 26.156c1.262 2.199 2.828 4.273 4.707 6.152 5.735 5.731 13.243 8.598 20.758 8.598z" /><path id="path3537" style="fill:#000;fill-opacity:1;fill-rule:nonzero;stroke:none" d="m338.855 323.527 13.215-7.641v-13.367l11.59 6.676 13.199-7.609v-15.25l-24.789-14.305v-40.113l34.739 20.043v28.633l13.199 7.625 13.215-7.625v-13.383l11.574 6.707 13.215-7.641v-15.25l-11.574-6.676 11.574-6.691v-15.25l-13.215-7.641-24.789 14.332-34.719-20.074 34.719-20.058 24.789 14.316 13.215-7.625v-15.25l-11.574-6.676 11.574-6.707v-15.234l-13.215-7.625-11.574 6.676v-13.368l-13.215-7.609-13.199 7.609v28.618l-34.739 20.058v-40.101l24.789-14.317v-15.25l-13.199-7.64-11.59 6.675v-13.363l-13.215-7.613-13.207 7.613v13.363l-11.574-6.675-13.211 7.64v15.25l24.785 14.317v40.101l-34.722-20.058v-28.618l-13.207-7.609-13.223 7.609v13.368l-11.574-6.676-13.207 7.625v15.234l11.57 6.707-11.57 6.676v15.25l13.207 7.625 24.797-14.316 34.719 20.058-34.719 20.074-24.797-14.332-13.207 7.641v15.25l11.57 6.691-11.57 6.676v15.25l13.207 7.641 11.574-6.707v13.383l13.223 7.625 13.207-7.625v-28.633l34.722-20.043v40.113l-24.785 14.305v15.25l13.211 7.609 11.574-6.676v13.367" /></g></g></svg>