<svg xmlns:dc="http://purl.org/dc/elements/1.1/" xmlns:cc="http://creativecommons.org/ns#" xmlns:rdf="http://www.w3.org/1999/02/22-rdf-syntax-ns#" xmlns:svg="http://www.w3.org/2000/svg" xmlns="http://www.w3.org/2000/svg" viewBox="0 0 847.15851 743.62274" height="743.62274" width="847.15851" id="svg3439"><defs id="defs3443" /><g transform="matrix(1.25,0,0,-1.25,0,743.62274)" id="g3447"><g id="g3449"><path id="path3451" style="fill:#fff;fill-opacity:1;fill-rule:nonzero;stroke:none" d="m338.867 594.5c-7.512.0-15.023-2.867-20.758-8.598-1.879-1.879-3.445-3.953-4.707-6.152l-15.246-26.156h-.07L4.984 45.551C4.93 45.457 4.887 45.359 4.832 45.261 3.348 42.871 2.176 40.219 1.402 37.351-2.789 21.695 6.504 5.597 22.164 1.402c2.586-.695 5.188-1.012 7.734-1h618.075c16.211.0 29.351 13.141 29.351 29.356.0 5.3-1.414 10.281-3.879 14.578-.019.035-.039.062-.05.097L369.023 572.844c-3.859 6.664-5.648 9.304-9.402 13.058-5.73 5.731-13.242 8.598-20.754 8.598z" /><path id="path3453" style="fill:#c1121c;fill-opacity:1;fill-rule:nonzero;stroke:none" d="m338.867 587.144c-7.125.051-14.949-3.593-18.781-10.402L10.793 40.847C9.008 37.199 8.258 34.027 8.234 30.398c0-6.496 2.875-12.66 7.848-16.844 4.387-3.39 8.535-5.156 14.121-5.156h617.906c3.77-.035 7.547.871 10.981 3.133 6.445 3.895 10.398 10.883 10.406 18.426-.183 3.894-1.144 8-2.879 10.89L357.504 576.828c-.027.047-.059.094-.09.141-.031.046-.062.089-.094.144-1.093 1.758-2.468 3.305-4.043 4.633-3.586 3.109-8.082 4.976-12.82 5.312-.531.051-1.062.082-1.59.086zM30.203 8.398H28.68h1.554-.031zM338.547 480.929 574.25 72.398H102.512l236.035 408.531z" /><path id="path3455" style="fill:#000;fill-opacity:1;fill-rule:nonzero;stroke:none" d="m338.867 594.898c-7.617.0-15.23-2.906-21.039-8.719-1.906-1.898-3.492-4.007-4.773-6.23l-15.129-25.957h-.071L4.641 45.754C4.574 45.636 4.523 45.535 4.48 45.453 2.977 43.031 1.797 40.351 1.02 37.457-3.23 21.586 6.191 5.269 22.059 1.015 24.68.312 27.316-.008 29.898.0h618.075c16.425.0 29.754 13.328 29.754 29.758.0 5.375-1.438 10.414-3.934 14.773-.016.016-.027.051-.051.098L369.379 573.043c-3.871 6.668-5.695 9.363-9.469 13.136-5.808 5.813-13.426 8.719-21.039 8.719h-.004zm0-.398c7.512.0 15.024-2.867 20.754-8.598 3.754-3.754 5.543-6.394 9.402-13.058L673.391 44.433c.015-.035.035-.062.054-.097 2.465-4.297 3.879-9.278 3.879-14.578.0-16.215-13.14-29.356-29.351-29.356h-618.075C27.352.39 24.75.707 22.164 1.402 6.504 5.597-2.789 21.695 1.402 37.351c.77 2.868 1.946 5.52 3.43 7.91.055.098.098.196.152.29l293.102 508.043h.07l15.246 26.156c1.262 2.199 2.828 4.273 4.707 6.152 5.735 5.731 13.243 8.598 20.758 8.598z" /><path id="path3457" style="fill:#000;fill-opacity:1;fill-rule:evenodd;stroke:none" d="m210.059 209.308c1.308 3.313 25.203 27.012 38.972 39.586l-23.957 12.25 31.543.059 9.41-10.031 8.278 8.226c3.254-3.129 3.23-10.531.121-18.492l41.156-5.648 134.441.082c2.829-1.547 10.149-.172 13.493-14.493l.07-54.812 4.082-5.106c-2.215-6.558-4.281-13.304-7.117-19.089-2.891 5.14-5.004 12.05-5.438 21.453l-.086 58.593c-2.652 4.032-5.785 6.532-10.394 4.375 1.918-3.257 3.621-6.625 3.437-11.011L448.133 90.488 432.77 90.426c7.472 18.804 2.781 37.543-12.008 54.875l-23.528-54.911h-14.593c4.996 8.145 10.808 14.981 11.898 29.371-.238 14.356-2.137 27.571-11.144 35.918l-43.594-7.613 4.582-57.617-14.817-.043c5.45 16.996-.461 38.234-10.871 50.395l-6.613-50.411-15.359.036c20.84 53.652-10.899 80.351-34.239 108.171l-41.5.047c-5.324 1.309-8.355 5.68-10.925 10.664z" /></g></g></svg>