<svg xmlns:dc="http://purl.org/dc/elements/1.1/" xmlns:cc="http://creativecommons.org/ns#" xmlns:rdf="http://www.w3.org/1999/02/22-rdf-syntax-ns#" xmlns:svg="http://www.w3.org/2000/svg" xmlns="http://www.w3.org/2000/svg" xmlns:sodipodi="http://sodipodi.sourceforge.net/DTD/sodipodi-0.dtd" xmlns:inkscape="http://www.inkscape.org/namespaces/inkscape" viewBox="0 0 847.15851 743.62268" height="743.62268" width="847.15851" id="svg9640" sodipodi:docname="Zeichen_145_-_Kraftomnibusse,_StVO_1992.svg" inkscape:version="0.92.0 r15299"><sodipodi:namedview pagecolor="#ffffff" bordercolor="#666666" borderopacity="1" objecttolerance="10" gridtolerance="10" guidetolerance="10" inkscape:pageopacity="0" inkscape:pageshadow="2" inkscape:window-width="1179" inkscape:window-height="928" id="namedview4537" showgrid="false" inkscape:zoom=".28924023" inkscape:cx="446.18021" inkscape:cy="461.61323" inkscape:window-x="0" inkscape:window-y="0" inkscape:window-maximized="0" inkscape:current-layer="svg9640" /><defs id="defs9644" /><path id="path9652" style="fill:#fff;fill-opacity:1;fill-rule:nonzero;stroke:none;stroke-width:1.25" d="m423.57375.49767c9.39.0 18.785 3.58375 25.9475 10.7475 2.34875 2.34875 4.30625 4.94125 5.88375 7.69l19.0575 32.69625h.0888l366.3762 635.04875c.0688.12125.1225.24375.19125.36625 1.86 2.9925 3.32 6.30375 4.28125 9.8875 5.245 19.57-6.37125 39.6925-25.9475 44.93625-3.23125.86875-6.47875 1.265-9.6725 1.25H37.1975c-20.26875.0-36.695-16.42625-36.695-36.695.0-6.63 1.7675-12.85125 4.84875-18.2225.025-.0388.04375-.0775.06375-.12125L385.87375 27.56892C390.7025 19.23767 392.94 15.93767 397.63125 11.24517 404.795 4.08142 414.185.49767 423.57375.49767z" inkscape:connector-curvature="0" /><path id="path9656" style="fill:#c1121c;fill-opacity:1;fill-rule:nonzero;stroke:none;stroke-width:1.25" d="m423.57375 9.69267c8.90625-.06375 18.6875 4.4875 23.4775 13.0075L833.6675 692.56392c2.23125 4.56 3.16875 8.525 3.1975 13.06125.0 8.12-3.59375 15.825-9.80875 21.05-5.47875 4.2425-10.67 6.45-17.6525 6.45H37.02125c-4.71125.0437-9.43375-1.08875-13.72-3.91625-8.06625-4.8725-13.00375-13.60375-13.01375-23.0325.23-4.8675 1.43125-10 3.59875-13.6125L400.27875 22.58767c.0337-.05875.0725-.1175.11125-.175.04-.05875.0788-.1175.1175-.18125 1.3725-2.1925 3.09125-4.13125 5.04875-5.79125 4.4875-3.88625 10.1075-6.22 16.03125-6.645.66375-.05875 1.3275-.0975 1.98625-.1025zm385.83 723.4325h1.905-1.94375zM423.975 142.45642 129.34625 653.12517h589.6725z" inkscape:connector-curvature="0" /><path id="path9658" style="fill:#000;fill-opacity:1;fill-rule:nonzero;stroke:none;stroke-width:1.25" d="m423.57375 17e-5c9.5225.0 19.03875 3.6325 26.29875 10.89375 2.38375 2.3775 4.36625 5.01 5.9675 7.7925l18.91125 32.44625h.0875l366.51875 635.2975c.0825.1475.14125.27375.2.37625 1.88 3.0275 3.355 6.3775 4.32625 9.995 5.3125 19.83875-6.465 40.235-26.29875 45.5525-3.27625.87875-6.5725 1.27875-9.805 1.26875H37.1975C16.66 743.62267.0 726.96267.0 706.42517c0-6.71875 1.7975-13.02125 4.9175-18.46625.01375-.0238.03375-.0638.0625-.1225L385.435 27.31892c4.83875-8.335 7.11875-11.70375 11.835-16.425C404.53125 3.63267 414.0525 17e-5 423.56875 17e-5zm0 .4975c-9.38875.0-18.77875 3.58375-25.9425 10.7475-4.69125 4.6925-6.92875 7.9925-11.7575 16.32375L5.42 688.08142c-.025.0438-.04375.0825-.06875.12125-3.08125 5.37125-4.84875 11.5925-4.84875 18.2225.0 20.26875 16.42625 36.695 36.695 36.695H809.78c3.19375.015 6.44125-.38125 9.6725-1.25 19.57625-5.24375 31.1925-25.36625 25.9475-44.93625-.95625-3.58375-2.42125-6.895-4.28125-9.8875-.0688-.1225-.1225-.245-.19125-.36625L474.55125 51.63142h-.0888L455.405 18.93517c-1.5775-2.74875-3.535-5.34125-5.88375-7.69-7.1625-7.16375-16.5525-10.7475-25.9475-10.7475z" inkscape:connector-curvature="0" /><g id="g4609" transform="translate(833.83964,20.576192)"><g id="g1875" transform="matrix(1.254776,0,0,1.254776,-883.25819,-71.138046)" /><g id="g4595"><path inkscape:connector-curvature="0" d="m-391.22556 240.38307a28.273295 28.273295.0 1 1-56.54659.0 28.273295 28.273295.0 1 1 56.54659.0z" style="opacity:1;fill:#000;fill-opacity:1;fill-rule:nonzero;stroke:none;stroke-width:9.06116104;stroke-linecap:round;stroke-linejoin:round;stroke-miterlimit:4;stroke-dasharray:none;stroke-dashoffset:0;stroke-opacity:1" id="path5663" /><path inkscape:connector-curvature="0" d="m-644.5729 606.40573h62.44203l44.37344-100.41724h-46.98112z" style="fill:#000;fill-opacity:1;fill-rule:evenodd;stroke:none;stroke-width:1.12220645px;stroke-linecap:butt;stroke-linejoin:miter;stroke-opacity:1" id="path5645" /><path inkscape:connector-curvature="0" d="m-543.69964 606.86175h61.80081l9.56151-51.14207c-19.91505 11.68613-33.42178 7.36671-46.06908.1852l27.58728-50.00202h-19.12302z" style="fill:#000;fill-opacity:1;fill-rule:evenodd;stroke:none;stroke-width:1.12220645px;stroke-linecap:butt;stroke-linejoin:miter;stroke-opacity:1" id="path5647" /><path inkscape:connector-curvature="0" d="m-442.22798 606.40573h63.49646l-9.5615-100.64525h-45.19986z" style="fill:#000;fill-opacity:1;fill-rule:evenodd;stroke:none;stroke-width:1.12220645px;stroke-linecap:butt;stroke-linejoin:miter;stroke-opacity:1" id="path5649" /><path inkscape:connector-curvature="0" d="m-340.85589 606.59093 62.95482.45602-35.22514-101.7853-6.99663.91204c9.1102 19.22466 18.50862 40.3875-15.4181 59.34945l-15.6944-29.46086-2.10337-1.61729z" style="fill:#000;fill-opacity:1;fill-rule:evenodd;stroke:none;stroke-width:1.12220645px;stroke-linecap:butt;stroke-linejoin:miter;stroke-opacity:1" id="path5651" /><path inkscape:connector-curvature="0" d="m-238.51498 607.04695h61.90037l-61.48717-101.74249-45.88389.45602z" style="fill:#000;fill-opacity:1;fill-rule:evenodd;stroke:none;stroke-width:1.12220645px;stroke-linecap:butt;stroke-linejoin:miter;stroke-opacity:1" id="path5653" /><path inkscape:connector-curvature="0" d="m-433.49288 408.33239h56.1855l.25975 5.05724 59.63874 111.7108c1.16714 18.26114-7.14814 25.26192-15.47786 32.24554l-72.23004-132.85168-69.65041 124.46785c-19.6829 12.45863-26.92043 7.23173-35.4701 3.86945l76.21277-138.4409z" style="fill:#000;fill-opacity:1;fill-rule:evenodd;stroke:none;stroke-width:1.12220645px;stroke-linecap:butt;stroke-linejoin:miter;stroke-opacity:1" id="path5659" /><path inkscape:connector-curvature="0" d="m-503.86258 396.57038 70.45524-105.79688c8.58853-11.40035 21.53851-16.98543 42.86598-11.40052l55.63456 45.6021 5.92828 10.9445v43.77802c-5.39178 11.44561-13.09964 19.22407-25.76519 19.15288v-56.31859l-22.11703-19.60891v79.11965h-57.23063v-63.38692l-39.44582 57.68665c-11.36594 6.36337-21.98137 8.97422-30.32539.22802z" style="fill:#000;fill-opacity:1;fill-rule:evenodd;stroke:none;stroke-width:1.12220645px;stroke-linecap:butt;stroke-linejoin:miter;stroke-opacity:1" id="path5661" /></g></g></svg>