<svg xmlns:dc="http://purl.org/dc/elements/1.1/" xmlns:cc="http://creativecommons.org/ns#" xmlns:rdf="http://www.w3.org/1999/02/22-rdf-syntax-ns#" xmlns:svg="http://www.w3.org/2000/svg" xmlns="http://www.w3.org/2000/svg" viewBox="0 0 847.15863 743.62268" height="743.62268" width="847.15863" id="svg7249"><defs id="defs7253" /><g transform="matrix(1.25,0,0,-1.25,0,743.62267)" id="g7257"><g id="g7259"><path id="path7261" style="fill:#fff;fill-opacity:1;fill-rule:nonzero;stroke:none" d="m338.867 594.5c-7.512.0-15.027-2.867-20.758-8.598-1.879-1.879-3.445-3.953-4.707-6.152l-15.246-26.157h-.07L4.984 45.554C4.93 45.457 4.887 45.359 4.832 45.261 3.344 42.867 2.176 40.218 1.406 37.351-2.789 21.695 6.504 5.597 22.164 1.402c2.586-.695 5.184-1.012 7.738-1h618.067c16.215.0 29.355 13.141 29.355 29.356.0 5.304-1.414 10.281-3.879 14.578-.019.031-.035.062-.05.097l-304.368 528.41c-3.863 6.665-5.652 9.305-9.406 13.059-5.73 5.731-13.242 8.598-20.754 8.598z" /><path id="path7263" style="fill:#c1121c;fill-opacity:1;fill-rule:nonzero;stroke:none" d="m338.867 587.144c-7.125.051-14.949-3.59-18.781-10.406L10.793 40.847C9.008 37.199 8.258 34.027 8.234 30.398c0-6.496 2.875-12.66 7.848-16.84 4.383-3.394 8.535-5.16 14.121-5.16h617.906c3.77-.035 7.547.871 10.977 3.133 6.453 3.898 10.402 10.883 10.41 18.426-.183 3.894-1.144 8-2.879 10.89L357.504 576.828c-.027.047-.059.094-.09.14-.031.047-.062.094-.094.145-1.097 1.754-2.472 3.305-4.039 4.633-3.59 3.109-8.086 4.976-12.824 5.316-.531.047-1.062.078-1.59.082zM30.203 8.398H28.68h1.554-.031zM338.547 480.933 574.25 72.398H102.512l236.035 408.535z" /><path id="path7265" style="fill:#000;fill-opacity:1;fill-rule:nonzero;stroke:none" d="m338.867 594.898c-7.617.0-15.23-2.906-21.039-8.715-1.906-1.902-3.492-4.008-4.773-6.234l-15.129-25.957h-.071L4.641 45.754C4.574 45.636 4.527 45.535 4.48 45.453 2.977 43.031 1.797 40.351 1.02 37.457-3.23 21.586 6.191 5.269 22.059 1.015 24.68.312 27.316-.008 29.902.0h618.067c16.429.0 29.758 13.328 29.758 29.758.0 5.375-1.438 10.417-3.934 14.773-.012.019-.027.051-.051.098L369.379 573.043c-3.871 6.668-5.695 9.363-9.469 13.14-5.808 5.809-13.426 8.715-21.039 8.715h-.004zm0-.398c7.512.0 15.024-2.867 20.754-8.598 3.754-3.754 5.543-6.394 9.406-13.059L673.391 44.433c.019-.035.035-.066.054-.097 2.465-4.297 3.879-9.274 3.879-14.578.0-16.215-13.14-29.356-29.355-29.356h-618.067C27.348.39 24.75.707 22.164 1.402 6.504 5.597-2.789 21.695 1.406 37.351c.766 2.867 1.938 5.516 3.426 7.91.055.098.098.196.152.293l293.102 508.039h.07l15.246 26.157c1.262 2.199 2.828 4.273 4.707 6.152 5.731 5.731 13.243 8.598 20.758 8.598z" /><path id="path7267" style="fill:#000;fill-opacity:1;fill-rule:nonzero;stroke:none" d="m358.848 366.82c0-13.164-10.66-23.84-23.84-23.84-13.16.0-23.836 10.676-23.836 23.84.0 13.176 10.676 23.852 23.836 23.852 13.18.0 23.84-10.676 23.84-23.852zm11.925-70.914v-69.148h-47.691v57.191l-30.957-47.688c-6.273-9.656-19.203-12.406-28.859-6.136l58.675 90.347c8.957 13.809 27.407 17.735 41.215 8.758 1.035-.648 1.992-1.375 2.922-2.16l40.027-33.57c4.047-3.403 6.379-8.422 6.379-13.692v-29.195c0-11.543-9.332-20.871-20.855-20.871v48.664l-20.856 17.5zM346.938 208.793 290.641 105.113C284.367 93.543 269.891 89.25 258.32 95.55l63.325 116.625c.941 1.747 1.437 3.708 1.437 5.684v2.938h47.691v-2.938c0-1.976.497-3.937 1.454-5.684l47.32-87.195c6.285-11.586 2.008-26.047-9.563-32.316" /></g></g></svg>