<svg xmlns:dc="http://purl.org/dc/elements/1.1/" xmlns:cc="http://creativecommons.org/ns#" xmlns:rdf="http://www.w3.org/1999/02/22-rdf-syntax-ns#" xmlns:svg="http://www.w3.org/2000/svg" xmlns="http://www.w3.org/2000/svg" viewBox="0 0 847.15857 743.62268" height="743.62268" width="847.15857" id="svg17110"><defs id="defs17114" /><g transform="matrix(1.25,0,0,-1.25,0,743.62267)" id="g17118"><g id="g17120"><path id="path17122" style="fill:#fff;fill-opacity:1;fill-rule:nonzero;stroke:none" d="m338.867 594.5c-7.512.0-15.027-2.867-20.758-8.598-1.879-1.879-3.445-3.953-4.707-6.152l-15.246-26.157h-.07L4.984 45.554C4.93 45.457 4.887 45.359 4.832 45.261 3.344 42.867 2.176 40.218 1.406 37.351-2.789 21.695 6.504 5.597 22.164 1.402c2.586-.695 5.184-1.012 7.738-1h618.067c16.215.0 29.355 13.141 29.355 29.356.0 5.304-1.414 10.281-3.879 14.578-.019.031-.035.062-.05.097l-304.368 528.41c-3.863 6.665-5.652 9.305-9.406 13.059-5.73 5.731-13.242 8.598-20.754 8.598z" /><path id="path17124" style="fill:#c1121c;fill-opacity:1;fill-rule:nonzero;stroke:none" d="m338.867 587.144c-7.125.051-14.949-3.59-18.781-10.406L10.793 40.847C9.008 37.199 8.258 34.027 8.234 30.398c0-6.496 2.875-12.66 7.848-16.84 4.383-3.394 8.535-5.16 14.121-5.16h617.906c3.77-.035 7.547.871 10.977 3.133 6.453 3.898 10.402 10.883 10.41 18.426-.184 3.894-1.144 8-2.879 10.89L357.504 576.828c-.027.047-.059.094-.09.14-.031.047-.062.094-.094.145-1.097 1.754-2.472 3.305-4.039 4.633-3.59 3.109-8.086 4.976-12.824 5.316-.531.047-1.062.078-1.59.082zM30.203 8.398H28.68h1.554-.031zM338.547 480.933 574.25 72.398H102.512l236.035 408.535z" /><path id="path17126" style="fill:#000;fill-opacity:1;fill-rule:nonzero;stroke:none" d="m338.867 594.898c-7.617.0-15.23-2.906-21.039-8.715-1.906-1.902-3.492-4.008-4.773-6.234l-15.129-25.957h-.071L4.641 45.754C4.574 45.636 4.527 45.535 4.48 45.453 2.977 43.031 1.797 40.351 1.02 37.457-3.23 21.586 6.191 5.269 22.059 1.015 24.68.312 27.316-.008 29.902.0h618.067c16.429.0 29.758 13.328 29.758 29.758.0 5.375-1.438 10.417-3.934 14.773-.012.019-.027.051-.051.098L369.379 573.043c-3.871 6.668-5.695 9.363-9.469 13.14-5.808 5.809-13.426 8.715-21.039 8.715h-.004zm0-.398c7.512.0 15.024-2.867 20.754-8.598 3.754-3.754 5.543-6.394 9.406-13.059L673.391 44.433c.019-.035.035-.066.054-.097 2.465-4.297 3.879-9.274 3.879-14.578.0-16.215-13.14-29.356-29.355-29.356h-618.067C27.348.39 24.75.707 22.164 1.402 6.504 5.597-2.789 21.695 1.406 37.351c.766 2.867 1.938 5.516 3.426 7.91.055.098.098.196.152.293l293.102 508.039h.07l15.246 26.157c1.262 2.199 2.828 4.273 4.707 6.152 5.731 5.731 13.243 8.598 20.758 8.598z" /><path id="path17128" style="fill:#000;fill-opacity:1;fill-rule:nonzero;stroke:none" d="m305.652 170.91c2.211.0 4.02-.906 4.02-2.004.0-1.004-1.457-1.859-3.402-1.996l-8.918-.692c-50.668-3.921-84.336-14.121-84.336-25.511.0-3.563 3.742-6.836 9.847-8.664L224 131.711c1.707-.512 2.676-2.289 2.164-4.008-.336-1.18-1.34-2.055-2.547-2.266l-1.758-.285c-13.968-2.32-28.332 2.762-32.105 11.375-.606 1.359-.895 2.762-.895 4.18-.007 16.687 52.278 30.203 116.793 30.203m-72.5-82.555c-7.234.0-14.449.723-21.539 2.141-3.804.785-6.273 4.496-5.496 8.312.766 3.817 4.477 6.274 8.293 5.508.168-.031.328-.074.477-.125l3.371-.918c6.816-1.883 13.859-2.851 20.933-2.851 24.473.0 44.305 7.23 44.305 16.097.0 3.051-3.379 5.914-9.004 7.559l-7.418 2.234c-7.289 2.156-11.769 6.125-11.769 10.379.0 13.879 42.375 25.168 94.644 25.168 2.223.0 4.031-.91 4.031-2.027.0-.992-1.421-1.821-3.382-1.969l-6.414-.531c-40.231-3.321-66.723-11.512-66.723-20.641.0-3.047 3.379-5.867 8.996-7.558l7.41-2.215c7.305-2.176 11.785-6.114 11.785-10.399.0-15.539-32.457-28.164-72.5-28.164zm138.946 64.434c1.507.0 2.742-.621 2.742-1.375.0-.469-.481-.903-1.297-1.141l-2.762-.879c-6.625-2.082-10.761-6.199-10.761-10.695.0-10.168 18.168-18.742 42.371-19.988l45.558-2.36c23.571-1.218 40.918-7.98 40.918-15.933.0-6.664-11.703-12.067-26.16-12.067-.449.0-.797.364-.797.817.0.207.09.437.238.586l1.649 1.492c1.902 1.765 2.926 3.926 2.926 6.172.0 6.187-10.953 11.39-25.348 12.007l-51.023 2.208c-28.684 1.25-50.485 11.175-50.485 23.035.0 9.992 14.434 18.121 32.231 18.121zM248.543 273.535c.734 2.773 2.359 5.219 4.602 6.996l3.476 2.703c2.418 1.914 4.617 4.121 6.543 6.535l27.227 34.199c2.73 3.426 7.246 4.903 11.476 3.786l106.5-28.555c4.254-1.137 7.422-4.664 8.071-8.992l6.472-43.258c.469-3.063 1.266-6.035 2.414-8.899l1.66-4.089c1.055-2.661 1.235-5.598.481-8.375l-7.406-27.672c-1.582-5.883-7.618-9.383-13.5-7.797l-157.645 42.215c-5.887 1.597-9.379 7.633-7.801 13.531l7.43 27.672zm24.793 11.629 138.469-37.098-5.641 37.582c-.242 1.719-1.508 3.137-3.215 3.621L301.594 316.41c-1.703.453-3.492-.137-4.594-1.508l-23.664-29.738zm-25.57-57.074-6.27-23.43c-.945-3.531 1.137-7.164 4.676-8.102l12.781-3.441c3.52-.934 7.152 1.164 8.09 4.695l6.293 23.43-25.57 6.848zm132.086-35.391 25.554-6.856-6.273-23.425c-.949-3.532-4.586-5.629-8.117-4.692l-12.766 3.438c-3.527.937-5.641 4.574-4.676 8.101l6.278 23.434z" /></g></g></svg>