<svg xmlns:dc="http://purl.org/dc/elements/1.1/" xmlns:cc="http://creativecommons.org/ns#" xmlns:rdf="http://www.w3.org/1999/02/22-rdf-syntax-ns#" xmlns:svg="http://www.w3.org/2000/svg" xmlns="http://www.w3.org/2000/svg" viewBox="0 0 300.99631 1001.0051" height="1001.0051" width="300.99631" id="svg30029"><defs id="defs30033" /><g transform="matrix(1.25,0,0,-1.25,0,1001.0051)" id="g30037"><g id="g30039"><path id="path30041" style="fill:#fff;fill-opacity:1;fill-rule:nonzero;stroke:none" d="m208.395.39c17.667.0 32.015 14.316 32.015 32.004v735.988c0 17.696-14.348 32.004-32.015 32.004h-176.004c-17.668.0-32.004-14.308-32.004-32.004v-735.988C.387 14.706 14.723.39 32.391.39" /><path id="path30043" style="fill:#000;fill-opacity:1;fill-rule:nonzero;stroke:none" d="m208.395 800.804c17.863.0 32.402-14.535 32.402-32.418v-735.992c0-17.863-14.539-32.395-32.402-32.395h-176.004C14.527-.001.0 14.531.0 32.394v735.992c0 17.883 14.527 32.418 32.391 32.418h176.004zm0-.414h-176.004c-17.668.0-32.004-14.312-32.004-32.004v-735.992C.387 14.706 14.723.39 32.391.39h176.004c17.667.0 32.015 14.316 32.015 32.004v735.992c0 17.692-14.348 32.004-32.015 32.004z" /><path id="path30045" style="fill:#c1121c;fill-opacity:1;fill-rule:nonzero;stroke:none" d="m18.547 316.933L222.25 432.402v-99.996l-203.703-115.469v99.996z" /><path id="path30047" style="fill:#000;fill-opacity:1;fill-rule:nonzero;stroke:none" d="m20.383 32.394c0-6.621 5.375-12 12.008-12h176.004c6.632.0 11.992 5.379 11.992 12v735.992c0 6.637-5.36 12.016-11.992 12.016h-176.004c-6.633.0-12.008-5.379-12.008-12.016v-735.992zm12.008 760.008h176.004c13.246.0 24.003-10.75 24.003-24.016v-735.992c0-13.254-10.757-23.992-24.003-23.992h-176.004C19.137 8.402 8.398 19.14 8.398 32.394v735.992c0 13.266 10.739 24.016 23.993 24.016" /><path id="path30049" style="fill:#000;fill-opacity:1;fill-rule:nonzero;stroke:none" d="m78.258 713.878v34.496h35.078v-9.207H87.027v-14.519c7.36 5.722 18.012 4.508 23.809-2.731 2.379-2.922 3.668-6.578 3.668-10.328v-9.793c0-10.16-8.375-18.394-18.707-18.394-9.66.0-17.711 7.234-18.629 16.687h9.437c.969-4.992 5.872-8.281 10.95-7.332 4.41.828 7.609 4.629 7.609 9.039v8.063c0 5.066-4.187 9.211-9.367 9.211-3.567.0-6.836-2.024-8.399-5.192h-9.14zm47.937-12.082v28.746c0 10.184 8.399 18.418 18.731 18.418 10.328.0 18.703-8.234 18.703-18.418v-28.746c0-10.16-8.375-18.394-18.703-18.394-10.332.0-18.731 8.234-18.731 18.394m9.364.0c0-5.066 4.187-9.183 9.367-9.183 5.152.0 9.34 4.117 9.34 9.183v28.746c0 5.09-4.188 9.207-9.34 9.207-5.18.0-9.367-4.117-9.367-9.207v-28.746zm-47.911-90.261v45.996h9.364v-5.192c5.476 6.676 15.41 7.699 22.199 2.317 1.062-.852 2.004-1.805 2.797-2.875 6.144 7.359 17.195 8.453 24.699 2.437 4.063-3.265 6.441-8.187 6.441-13.351v-29.332h-9.363v28.164c0 5.089-4.187 9.207-9.34 9.207-5.179.0-9.363-4.118-9.363-9.207v-28.164h-9.367v28.164c0 5.089-4.188 9.207-9.34 9.207-5.176.0-9.363-4.118-9.363-9.207v-28.164h-9.364z" /></g></g></svg>