<svg xmlns:dc="http://purl.org/dc/elements/1.1/" xmlns:cc="http://creativecommons.org/ns#" xmlns:rdf="http://www.w3.org/1999/02/22-rdf-syntax-ns#" xmlns:svg="http://www.w3.org/2000/svg" xmlns="http://www.w3.org/2000/svg" viewBox="0 0 847.15851 743.62274" height="743.62274" width="847.15851" id="svg3434"><defs id="defs3438" /><g transform="matrix(1.25,0,0,-1.25,0,743.62274)" id="g3442"><g id="g3444"><path id="path3446" style="fill:#fff;fill-opacity:1;fill-rule:nonzero;stroke:none" d="m338.859 594.5c7.512.0 15.024-2.867 20.758-8.598 1.879-1.879 3.445-3.953 4.707-6.152l15.246-26.156h.067l293.105-508.043c.055-.094.098-.192.153-.29 1.484-2.39 2.656-5.042 3.425-7.91 4.192-15.656-5.097-31.754-20.758-35.949-2.585-.695-5.187-1.012-7.738-1h-618.07c-16.211.0-29.352 13.141-29.352 29.356.0 5.3 1.414 10.281 3.879 14.578.02.035.035.062.047.097l304.371 528.411c3.863 6.664 5.653 9.304 9.406 13.058 5.731 5.731 13.243 8.598 20.754 8.598z" /><path id="path3448" style="fill:#c1121c;fill-opacity:1;fill-rule:nonzero;stroke:none" d="m338.859 587.144c7.125.051 14.95-3.593 18.778-10.402L666.934 40.847c1.785-3.648 2.535-6.82 2.558-10.449.0-6.496-2.875-12.66-7.847-16.844-4.387-3.39-8.536-5.156-14.122-5.156h-617.906C25.848 8.363 22.07 9.269 18.637 11.531 12.188 15.426 8.238 22.414 8.23 29.957c.184 3.894 1.145 8 2.879 10.89l309.114 535.981c.027.047.058.094.089.141.032.046.063.089.094.144 1.094 1.758 2.469 3.305 4.039 4.633 3.59 3.109 8.086 4.976 12.821 5.312.535.051 1.062.082 1.593.086zM647.523 8.398h1.524-1.555.031zM339.18 480.929 103.477 72.398h471.738l-236.035 408.531z" /><path id="path3450" style="fill:#000;fill-opacity:1;fill-rule:nonzero;stroke:none" d="m338.859 594.898c7.618.0 15.231-2.906 21.039-8.719 1.907-1.898 3.493-4.007 4.774-6.23l15.129-25.957h.07l293.211-508.238c.07-.118.117-.219.164-.301 1.504-2.422 2.684-5.102 3.457-7.996C680.953 21.586 671.535 5.269 655.668 1.015 653.047.312 650.41-.008 647.824.0H29.754C13.324.0.0 13.328.0 29.758c0 5.375 1.438 10.414 3.934 14.773.011.016.027.051.05.098l304.364 528.414c3.871 6.668 5.695 9.363 9.468 13.136 5.809 5.813 13.426 8.719 21.039 8.719h.004zm0-.398c-7.511.0-15.023-2.867-20.754-8.598-3.753-3.754-5.543-6.394-9.406-13.058L4.332 44.433C4.316 44.398 4.301 44.371 4.281 44.336 1.816 40.039.402 35.058.402 29.758.402 13.543 13.543.402 29.754.402h618.07c2.551-.012 5.153.305 7.738 1 15.661 4.195 24.95 20.293 20.758 35.949-.765 2.868-1.941 5.52-3.425 7.91-.055.098-.098.196-.153.29l-293.105 508.043h-.067l-15.246 26.156c-1.262 2.199-2.828 4.273-4.707 6.152-5.734 5.731-13.242 8.598-20.758 8.598z" /><path id="path3452" style="fill:#000;fill-opacity:1;fill-rule:nonzero;stroke:none" d="m375.133 102.574-18.438-10.633-12.636 107.078-64.336-33.437-3.532-36.481-11.066-6.402-11.789 37.465-26.559 28.969 11.067 6.386 33.363-15.183 61.117 38.976-86.41 64.504 18.441 10.633 110.903-48.281c10.492 6.308 21.051 12.547 31.652 18.668 13.238 7.64 27.082 8.488 30.91 1.871 3.828-6.656-3.828-18.215-17.07-25.852-10.621-6.125-21.266-12.16-31.992-18.07" /></g></g></svg>