<svg xmlns:dc="http://purl.org/dc/elements/1.1/" xmlns:cc="http://creativecommons.org/ns#" xmlns:rdf="http://www.w3.org/1999/02/22-rdf-syntax-ns#" xmlns:svg="http://www.w3.org/2000/svg" xmlns="http://www.w3.org/2000/svg" viewBox="0 0 847.15851 743.62274" height="743.62274" width="847.15851" id="svg4600"><defs id="defs4604" /><g transform="matrix(1.25,0,0,-1.25,0,743.62274)" id="g4608"><g id="g4610"><path id="path4612" style="fill:#fff;fill-opacity:1;fill-rule:nonzero;stroke:none" d="m338.867 594.5c-7.512.0-15.023-2.867-20.758-8.598-1.879-1.879-3.445-3.953-4.707-6.152l-15.246-26.156h-.07L4.984 45.551C4.93 45.457 4.887 45.359 4.832 45.261 3.348 42.871 2.176 40.219 1.402 37.351-2.789 21.695 6.504 5.597 22.164 1.402c2.586-.695 5.188-1.012 7.734-1h618.075c16.211.0 29.351 13.141 29.351 29.356.0 5.3-1.414 10.281-3.879 14.578-.019.035-.039.062-.05.097L369.023 572.844c-3.859 6.664-5.648 9.304-9.402 13.058-5.73 5.731-13.242 8.598-20.754 8.598z" /><path id="path4614" style="fill:#c1121c;fill-opacity:1;fill-rule:nonzero;stroke:none" d="m338.867 587.144c-7.125.051-14.949-3.593-18.781-10.402L10.793 40.847C9.008 37.199 8.258 34.027 8.234 30.398c0-6.496 2.875-12.66 7.848-16.844 4.387-3.39 8.535-5.156 14.121-5.156h617.906c3.77-.035 7.547.871 10.981 3.133 6.445 3.895 10.398 10.883 10.406 18.426-.183 3.894-1.144 8-2.879 10.89L357.504 576.828c-.027.047-.059.094-.09.141-.031.046-.062.089-.094.144-1.093 1.758-2.468 3.305-4.043 4.633-3.586 3.109-8.082 4.976-12.82 5.312-.531.051-1.062.082-1.59.086zM30.203 8.398H28.68h1.554-.031zM338.547 480.929 574.25 72.398H102.512l236.035 408.531z" /><path id="path4616" style="fill:#000;fill-opacity:1;fill-rule:nonzero;stroke:none" d="m338.867 594.898c-7.617.0-15.23-2.906-21.039-8.719-1.906-1.898-3.492-4.007-4.773-6.23l-15.129-25.957h-.071L4.641 45.754C4.574 45.636 4.523 45.535 4.48 45.453 2.977 43.031 1.797 40.351 1.02 37.457-3.23 21.586 6.191 5.269 22.059 1.015 24.68.312 27.316-.008 29.898.0h618.075c16.425.0 29.754 13.328 29.754 29.758.0 5.375-1.438 10.414-3.934 14.773-.016.016-.027.051-.051.098L369.379 573.043c-3.871 6.668-5.695 9.363-9.469 13.136-5.808 5.813-13.426 8.719-21.039 8.719h-.004zm0-.398c7.512.0 15.024-2.867 20.754-8.598 3.754-3.754 5.543-6.394 9.402-13.058L673.391 44.433c.015-.035.035-.062.054-.097 2.465-4.297 3.879-9.278 3.879-14.578.0-16.215-13.14-29.356-29.351-29.356h-618.075C27.352.39 24.75.707 22.164 1.402 6.504 5.597-2.789 21.695 1.402 37.351c.77 2.868 1.946 5.52 3.43 7.91.055.098.098.196.152.29l293.102 508.043h.07l15.246 26.156c1.262 2.199 2.828 4.273 4.707 6.152 5.735 5.731 13.243 8.598 20.758 8.598z" /><path id="path4618" style="fill:#000;fill-opacity:1;fill-rule:nonzero;stroke:none" d="M116.582 80.508 227.961 273.304 561.922 80.508" /><path id="path4620" style="fill:#000;fill-opacity:1;fill-rule:nonzero;stroke:none" d="m267.914 271.367 36.137 62.129-14.863-1.555 6.476 11.133 14.832 1.504 10.531-6.125-42.582-73.211-10.531 6.125z" /><path id="path4622" style="fill:#000;fill-opacity:1;fill-rule:nonzero;stroke:none" d="m338.098 258.933 18.054 31.043c2.039 3.508 2.684 6.805 1.922 9.887-.722 3.059-2.625 5.484-5.699 7.273-3.109 1.809-6.172 2.27-9.191 1.387-3.02-.883-5.551-3.078-7.594-6.59l-18.055-31.039c-2.058-3.543-2.726-6.847-2.004-9.91.746-3.027 2.672-5.445 5.782-7.254 3.074-1.789 6.113-2.258 9.113-1.406 3.051.863 5.609 3.066 7.672 6.609zm-31.391 17.453 18.754 32.247c3.906 6.718 9.027 10.675 15.359 11.867 6.352 1.23 12.235.269 17.653-2.883 5.379-3.129 9.109-7.758 11.183-13.887 2.125-6.113 1.235-12.531-2.676-19.25l-18.753-32.242c-3.911-6.723-9.047-10.668-15.411-11.844-6.332-1.191-12.187-.222-17.57 2.907-5.418 3.152-9.172 7.773-11.266 13.867-2.089 6.093-1.183 12.5 2.727 19.218z" /><path id="path4624" style="fill:#000;fill-opacity:1;fill-rule:nonzero;stroke:none" d="m354.605 221.14 76.899 53.164 7.133-4.152-76.813-53.164-7.219 4.152zm50.364 44.95c-2.887-5.055-9.387-6.77-14.442-3.879-5.054 2.886-6.769 9.386-3.882 14.441l5.328 9.117c2.886 5.055 9.386 6.86 14.441 3.879 5.055-2.887 6.77-9.387 3.789-14.441l-5.234-9.117zm-5.235 3.07 5.325 9.117c1.171 2.164.453 4.965-1.715 6.137-2.168 1.262-4.875.543-6.137-1.625l-5.324-9.117c-1.266-2.164-.453-4.965 1.715-6.227 2.164-1.266 4.871-.543 6.136 1.715zm-11.375-43.957-5.324-9.117c-2.887-5.055-1.172-11.551 3.883-14.442 5.055-2.976 11.551-1.172 14.441 3.883l5.235 9.117c2.976 5.055 1.172 11.461-3.883 14.442-4.965 2.886-11.461 1.172-14.352-3.883zm5.239-2.977c1.172 2.075 3.968 2.887 6.136 1.625 2.164-1.265 2.887-4.062 1.625-6.14l-5.234-9.207c-1.266-2.164-4.062-2.887-6.23-1.621-2.165 1.261-2.887 3.968-1.625 6.136l5.328 9.207z" /><path id="path4626" style="fill:#000;fill-opacity:1;fill-rule:nonzero;stroke:none" d="m354.605 221.14 76.899 53.164 7.133-4.152-76.813-53.164-7.219 4.152zm50.364 44.95c-2.887-5.055-9.387-6.77-14.442-3.879-5.054 2.886-6.769 9.386-3.882 14.441l5.328 9.117c2.886 5.055 9.386 6.86 14.441 3.879 5.055-2.887 6.77-9.387 3.789-14.441l-5.234-9.117zm-5.235 3.07 5.325 9.117c1.171 2.164.453 4.965-1.715 6.137-2.168 1.262-4.875.543-6.137-1.625l-5.324-9.117c-1.266-2.164-.453-4.965 1.715-6.227 2.164-1.266 4.871-.543 6.136 1.715zm-11.375-43.957-5.324-9.117c-2.887-5.055-1.172-11.551 3.883-14.442 5.055-2.976 11.551-1.172 14.441 3.883l5.235 9.117c2.976 5.055 1.172 11.461-3.883 14.442-4.965 2.886-11.461 1.172-14.352-3.883zm5.239-2.977c1.172 2.075 3.968 2.887 6.136 1.625 2.164-1.265 2.887-4.062 1.625-6.14l-5.234-9.207c-1.266-2.164-4.062-2.887-6.23-1.621-2.165 1.261-2.887 3.968-1.625 6.136l5.328 9.207z" /></g></g></svg>