<svg xmlns:dc="http://purl.org/dc/elements/1.1/" xmlns:cc="http://creativecommons.org/ns#" xmlns:rdf="http://www.w3.org/1999/02/22-rdf-syntax-ns#" xmlns:svg="http://www.w3.org/2000/svg" xmlns="http://www.w3.org/2000/svg" viewBox="0 0 300.99631 1001.0051" height="1001.0051" width="300.99631" id="svg28682"><defs id="defs28686" /><g transform="matrix(1.25,0,0,-1.25,0,1001.0051)" id="g28690"><g id="g28692"><path id="path28694" style="fill:#fff;fill-opacity:1;fill-rule:nonzero;stroke:none" d="M32.402.39C14.734.39.387 14.706.387 32.394v735.992c0 17.692 14.347 32.004 32.015 32.004h176.004c17.668.0 32.004-14.312 32.004-32.004v-735.992C240.41 14.706 226.074.39 208.406.39" /><path id="path28696" style="fill:#000;fill-opacity:1;fill-rule:nonzero;stroke:none" d="M32.402 800.804C14.539 800.804.0 786.269.0 768.386V32.394C0 14.531 14.539-.001 32.402-.001h176.004c17.864.0 32.391 14.532 32.391 32.395v735.992c0 17.883-14.527 32.418-32.391 32.418h-176.004zm0-.414h176.004c17.668.0 32.004-14.312 32.004-32.004v-735.992C240.41 14.706 226.074.39 208.406.39h-176.004C14.734.39.387 14.706.387 32.394v735.992c0 17.692 14.347 32.004 32.015 32.004z" /><path id="path28698" style="fill:#000;fill-opacity:1;fill-rule:nonzero;stroke:none" d="m220.414 32.394c0-6.621-5.375-12-12.008-12h-176.004c-6.632.0-11.992 5.379-11.992 12v735.992c0 6.637 5.36 12.016 11.992 12.016h176.004c6.633.0 12.008-5.379 12.008-12.016v-735.992zm-12.008 760.008h-176.004c-13.246.0-24.004-10.75-24.004-24.016v-735.992C8.398 19.14 19.156 8.402 32.402 8.402h176.004c13.254.0 23.992 10.738 23.992 23.992v735.992c0 13.266-10.738 24.016-23.992 24.016" /><path id="path28700" style="fill:#c1121c;fill-opacity:1;fill-rule:nonzero;stroke:none" d="m20.41 400.917v84.008l200.004 115.473v-84.004L20.41 400.917zm0-175.996v84.004l200.004 115.457v-83.988L20.41 224.921zm0-176v84l200.004 115.481v-84.012" /></g></g></svg>