<svg xmlns:dc="http://purl.org/dc/elements/1.1/" xmlns:cc="http://creativecommons.org/ns#" xmlns:rdf="http://www.w3.org/1999/02/22-rdf-syntax-ns#" xmlns:svg="http://www.w3.org/2000/svg" xmlns="http://www.w3.org/2000/svg" viewBox="0 0 847.15649 743.62152" height="743.62152" width="847.15649" id="svg8442"><defs id="defs8446" /><g transform="matrix(1.25,0,0,-1.25,0,743.62152)" id="g8450"><g id="g8452"><path id="path8454" style="fill:#fff;fill-opacity:1;fill-rule:nonzero;stroke:none" d="m338.867 594.499c-7.515.0-15.027-2.867-20.758-8.598-1.879-1.879-3.445-3.953-4.707-6.152l-15.246-26.156h-.07L4.984 45.553C4.93 45.456 4.887 45.358 4.832 45.26 3.344 42.866 2.176 40.218 1.406 37.35-2.789 21.694 6.504 5.596 22.164 1.401c2.586-.695 5.184-1.012 7.738-1h618.067c16.215.0 29.355 13.141 29.355 29.356.0 5.304-1.414 10.281-3.879 14.578-.019.031-.035.062-.054.097L369.027 572.843c-3.863 6.664-5.652 9.304-9.406 13.058-5.73 5.731-13.242 8.598-20.754 8.598z" /><path id="path8456" style="fill:#c1121c;fill-opacity:1;fill-rule:nonzero;stroke:none" d="m338.867 587.143c-7.125.051-14.949-3.59-18.781-10.406L10.793 40.846C9.008 37.198 8.258 34.026 8.234 30.397c0-6.496 2.875-12.66 7.848-16.84 4.383-3.394 8.535-5.16 14.121-5.16h617.906c3.77-.035 7.547.871 10.977 3.133 6.453 3.898 10.402 10.883 10.41 18.426-.184 3.894-1.144 8-2.879 10.89L357.504 576.827c-.027.047-.063.094-.09.141-.031.046-.062.093-.094.144-1.097 1.754-2.472 3.305-4.039 4.633-3.59 3.109-8.086 4.976-12.824 5.316-.531.047-1.062.078-1.59.082zM30.203 8.397H28.68h1.554-.031zM338.547 480.932 574.25 72.397H102.512l236.035 408.535z" /><path id="path8458" style="fill:#000;fill-opacity:1;fill-rule:nonzero;stroke:none" d="m338.867 594.897c-7.617.0-15.23-2.906-21.039-8.715-1.906-1.902-3.492-4.007-4.773-6.234l-15.129-25.957h-.071L4.641 45.753C4.574 45.635 4.527 45.534 4.48 45.452 2.977 43.03 1.797 40.35 1.02 37.456-3.23 21.585 6.191 5.264 22.059 1.014 24.68.311 27.316-.009 29.902-.001h618.067c16.429.0 29.758 13.328 29.758 29.758.0 5.375-1.438 10.418-3.934 14.773-.012.023-.027.055-.055.102L369.375 573.046c-3.871 6.664-5.695 9.363-9.469 13.136-5.808 5.809-13.426 8.715-21.039 8.715zm0-.398c7.512.0 15.024-2.867 20.754-8.598 3.754-3.754 5.543-6.394 9.406-13.058L673.391 44.432c.019-.035.035-.066.054-.097 2.465-4.297 3.879-9.274 3.879-14.578.0-16.215-13.14-29.356-29.355-29.356h-618.067C27.348.389 24.75.706 22.164 1.401 6.504 5.596-2.789 21.694 1.406 37.35c.77 2.868 1.938 5.516 3.426 7.91.055.098.098.196.152.293l293.102 508.04h.07l15.246 26.156c1.262 2.199 2.828 4.273 4.707 6.152 5.731 5.731 13.243 8.598 20.758 8.598z" /><path id="path8460" style="fill:#000;fill-opacity:1;fill-rule:evenodd;stroke:none" d="m382.867 140.698c0 33.871-36.668 55.043-66 38.105-29.336-16.933-29.336-59.273.0-76.207 29.332-16.937 66 4.231 66 38.102z" /><path id="path8462" style="fill:#008754;fill-opacity:1;fill-rule:evenodd;stroke:none" d="m378.867 140.698c0 30.793-33.336 50.039-60 34.645-26.668-15.399-26.668-53.887.0-69.286 26.664-15.394 60 3.852 60 34.641z" /><path id="path8464" style="fill:#000;fill-opacity:1;fill-rule:evenodd;stroke:none" d="m382.867 241.128c0 33.871-36.668 55.039-66 38.105-29.336-16.937-29.336-59.277.0-76.211 29.332-16.937 66 4.235 66 38.106z" /><path id="path8466" style="fill:#f0ca00;fill-opacity:1;fill-rule:evenodd;stroke:none" d="m378.867 241.128c0 30.789-33.336 50.035-60 34.64-26.668-15.398-26.668-53.886.0-69.281 26.664-15.398 60 3.848 60 34.641z" /><path id="path8468" style="fill:#000;fill-opacity:1;fill-rule:evenodd;stroke:none" d="m382.867 341.553c0 33.872-36.668 55.04-66 38.106-29.336-16.938-29.336-59.277.0-76.211 29.332-16.938 66 4.234 66 38.105z" /><path id="path8470" style="fill:#c1121c;fill-opacity:1;fill-rule:evenodd;stroke:none" d="m378.867 341.553c0 30.793-33.336 50.036-60 34.641-26.668-15.394-26.668-53.887.0-69.281 26.664-15.399 60 3.847 60 34.64z" /></g></g></svg>