<svg xmlns:dc="http://purl.org/dc/elements/1.1/" xmlns:cc="http://creativecommons.org/ns#" xmlns:rdf="http://www.w3.org/1999/02/22-rdf-syntax-ns#" xmlns:svg="http://www.w3.org/2000/svg" xmlns="http://www.w3.org/2000/svg" viewBox="0 0 847.15851 743.62274" height="743.62274" width="847.15851" id="svg4553"><defs id="defs4557" /><g transform="matrix(1.25,0,0,-1.25,0,743.62274)" id="g4561"><g id="g4563"><path id="path4565" style="fill:#fff;fill-opacity:1;fill-rule:nonzero;stroke:none" d="m338.867 594.5c-7.512.0-15.023-2.867-20.758-8.598-1.879-1.879-3.445-3.953-4.707-6.152l-15.246-26.156h-.07L4.984 45.551C4.93 45.457 4.887 45.359 4.832 45.261 3.348 42.871 2.176 40.219 1.402 37.351-2.789 21.695 6.504 5.597 22.164 1.402c2.586-.695 5.188-1.012 7.734-1h618.075c16.211.0 29.351 13.141 29.351 29.356.0 5.3-1.414 10.281-3.879 14.578-.019.035-.039.062-.05.097L369.023 572.844c-3.859 6.664-5.648 9.304-9.402 13.058-5.73 5.731-13.242 8.598-20.754 8.598z" /><path id="path4567" style="fill:#c1121c;fill-opacity:1;fill-rule:nonzero;stroke:none" d="m338.867 587.144c-7.125.051-14.949-3.593-18.781-10.402L10.793 40.847C9.008 37.199 8.258 34.027 8.234 30.398c0-6.496 2.875-12.66 7.848-16.844 4.387-3.39 8.535-5.156 14.121-5.156h617.906c3.77-.035 7.547.871 10.981 3.133 6.445 3.895 10.398 10.883 10.406 18.426-.183 3.894-1.144 8-2.879 10.89L357.504 576.828c-.027.047-.059.094-.09.141-.031.046-.062.089-.094.144-1.093 1.758-2.468 3.305-4.043 4.633-3.586 3.109-8.082 4.976-12.82 5.312-.531.051-1.062.082-1.59.086zM30.203 8.398H28.68h1.554-.031zM338.547 480.929 574.25 72.398H102.512l236.035 408.531z" /><path id="path4569" style="fill:#000;fill-opacity:1;fill-rule:nonzero;stroke:none" d="m338.867 594.898c-7.617.0-15.23-2.906-21.039-8.719-1.906-1.898-3.492-4.007-4.773-6.23l-15.129-25.957h-.071L4.641 45.754C4.574 45.636 4.523 45.535 4.48 45.453 2.977 43.031 1.797 40.351 1.02 37.457-3.23 21.586 6.191 5.269 22.059 1.015 24.68.312 27.316-.008 29.898.0h618.075c16.425.0 29.754 13.328 29.754 29.758.0 5.375-1.438 10.414-3.934 14.773-.016.016-.027.051-.051.098L369.379 573.043c-3.871 6.668-5.695 9.363-9.469 13.136-5.808 5.813-13.426 8.719-21.039 8.719h-.004zm0-.398c7.512.0 15.024-2.867 20.754-8.598 3.754-3.754 5.543-6.394 9.402-13.058L673.391 44.433c.015-.035.035-.062.054-.097 2.465-4.297 3.879-9.278 3.879-14.578.0-16.215-13.14-29.356-29.351-29.356h-618.075C27.352.39 24.75.707 22.164 1.402 6.504 5.597-2.789 21.695 1.402 37.351c.77 2.868 1.946 5.52 3.43 7.91.055.098.098.196.152.29l293.102 508.043h.07l15.246 26.156c1.262 2.199 2.828 4.273 4.707 6.152 5.735 5.731 13.243 8.598 20.758 8.598z" /><path id="path4571" style="fill:#000;fill-opacity:1;fill-rule:nonzero;stroke:none" d="m246.672 106.566v51.344l37.363 24.449-1.957 4.52c-2.387 5.519-3.621 11.468-3.621 17.484.0 4.488.688 8.953 2.039 13.234l-14.262 25.887-34.23-7.336-7.336 7.336 29.34 34.227v14.672l9.781-9.782c16.629.0 32.121-8.453 41.121-22.437l9.59-14.906 21.031 10.543-1.406 2.503c-1.23 2.192-1.879 4.668-1.879 7.184.0 8.102 6.57 14.668 14.672 14.668 5.301.0 10.191-2.863 12.789-7.488l19.895-35.426c1.027-1.828 1.562-3.887 1.562-5.984.0-3.875-1.836-7.524-4.953-9.829l17.703 3.122c2.242.394 4.512.593 6.793.593 7.703.0 15.234-2.273 21.648-6.539l6.504 6.504c5.5 5.504 12.965 8.594 20.746 8.594 13.27.0 24.891-8.91 28.333-21.731l4.675-17.39-18.34-9.778-3.906 22.301c-1.332 7.602-7.933 13.149-15.652 13.149-4.215.0-8.258-1.672-11.238-4.653l-3.559-3.558c6.383-7.164 9.906-16.422 9.906-26.016.0-4.523-.785-9.012-2.316-13.266l19.43-32.097-7.333-46.457-13.878-4.758 7.336 46.457-34.614 27.004 4.481-34.34-22.004-41.562h-14.668l22.004 41.562-21.684 38.356c-11.312-2.743-22.91-4.129-34.551-4.129-11.058.0-22.078 1.254-32.851 3.726l23.07-67.293-2.445-12.222h-12.223l2.445 12.222-29.339 67.778-31.786-18.879v-34.227l-12.226-7.336zm83.129 114.91 19.512 9.782-7.79 13.871-20.371-10.211 8.649-13.442zm19.562 75.793c0-8.101-6.57-14.668-14.672-14.668-8.101.0-14.668 6.567-14.668 14.668.0 8.102 6.567 14.672 14.668 14.672 8.102.0 14.672-6.57 14.672-14.672" /></g></g></svg>