<svg xmlns:dc="http://purl.org/dc/elements/1.1/" xmlns:cc="http://creativecommons.org/ns#" xmlns:rdf="http://www.w3.org/1999/02/22-rdf-syntax-ns#" xmlns:svg="http://www.w3.org/2000/svg" xmlns="http://www.w3.org/2000/svg" viewBox="0 0 847.15863 743.62268" height="743.62268" width="847.15863" id="svg7417"><defs id="defs7421" /><g transform="matrix(1.25,0,0,-1.25,0,743.62267)" id="g7425"><g id="g7427"><path id="path7429" style="fill:#fff;fill-opacity:1;fill-rule:nonzero;stroke:none" d="m338.867 594.5c-7.512.0-15.027-2.867-20.758-8.598-1.879-1.879-3.445-3.953-4.707-6.152l-15.246-26.157h-.07L4.984 45.554C4.93 45.457 4.887 45.359 4.832 45.261 3.344 42.867 2.176 40.218 1.406 37.351-2.789 21.695 6.504 5.597 22.164 1.402c2.586-.695 5.184-1.012 7.738-1h618.067c16.215.0 29.355 13.141 29.355 29.356.0 5.304-1.414 10.281-3.879 14.578-.019.031-.035.062-.05.097l-304.368 528.41c-3.863 6.665-5.652 9.305-9.406 13.059-5.73 5.731-13.242 8.598-20.754 8.598z" /><path id="path7431" style="fill:#c1121c;fill-opacity:1;fill-rule:nonzero;stroke:none" d="m338.867 587.144c-7.125.051-14.949-3.59-18.781-10.406L10.793 40.847C9.008 37.199 8.258 34.027 8.234 30.398c0-6.496 2.875-12.66 7.848-16.84 4.383-3.394 8.535-5.16 14.121-5.16h617.906c3.77-.035 7.547.871 10.977 3.133 6.453 3.898 10.402 10.883 10.41 18.426-.183 3.894-1.144 8-2.879 10.89L357.504 576.828c-.027.047-.059.094-.09.14-.031.047-.062.094-.094.145-1.097 1.754-2.472 3.305-4.039 4.633-3.59 3.109-8.086 4.976-12.824 5.316-.531.047-1.062.078-1.59.082zM30.203 8.398H28.68h1.554-.031zM338.547 480.933 574.25 72.398H102.512l236.035 408.535z" /><path id="path7433" style="fill:#000;fill-opacity:1;fill-rule:nonzero;stroke:none" d="m338.867 594.898c-7.617.0-15.23-2.906-21.039-8.715-1.906-1.902-3.492-4.008-4.773-6.234l-15.129-25.957h-.071L4.641 45.754C4.574 45.636 4.527 45.535 4.48 45.453 2.977 43.031 1.797 40.351 1.02 37.457-3.23 21.586 6.191 5.269 22.059 1.015 24.68.312 27.316-.008 29.902.0h618.067c16.429.0 29.758 13.328 29.758 29.758.0 5.375-1.438 10.417-3.934 14.773-.012.019-.027.051-.051.098L369.379 573.043c-3.871 6.668-5.695 9.363-9.469 13.14-5.808 5.809-13.426 8.715-21.039 8.715h-.004zm0-.398c7.512.0 15.024-2.867 20.754-8.598 3.754-3.754 5.543-6.394 9.406-13.059L673.391 44.433c.019-.035.035-.066.054-.097 2.465-4.297 3.879-9.274 3.879-14.578.0-16.215-13.14-29.356-29.355-29.356h-618.067C27.348.39 24.75.707 22.164 1.402 6.504 5.597-2.789 21.695 1.406 37.351c.766 2.867 1.938 5.516 3.426 7.91.055.098.098.196.152.293l293.102 508.039h.07l15.246 26.157c1.262 2.199 2.828 4.273 4.707 6.152 5.731 5.731 13.243 8.598 20.758 8.598z" /><path id="path7435" style="fill:#000;fill-opacity:1;fill-rule:nonzero;stroke:none" d="m446.473 105.968c-25.481-6.589-51.481 8.75-58.055 34.227h49.117c.848.0 1.668.152 2.438.508 2.996 1.344 4.351 4.879 2.996 7.871l-21.977 49.211c.543.156 1.098.308 1.653.449 25.476 6.602 51.48-8.734 58.054-34.23 6.59-25.477-8.75-51.461-34.226-58.036zm-36.391 87.016 18.273-40.891h-41.449c0 16.774 8.813 32.282 23.176 40.891zm-35.09-40.891h-11.914l29.785 79.442 12.344-27.61c-18.672-10.57-30.215-30.367-30.215-51.832zm-24.398.633-74.594 82.758h105.629l-31.035-82.758zm-63.239-20.308c-10.863-23.95-39.101-34.598-63.082-23.735-23.964 10.879-34.597 39.106-23.718 63.086 8.98 19.828 30.261 31.047 51.679 27.266l-13.98-45.184c-.973-3.133.785-6.465 3.934-7.437 3.148-.973 6.484.785 7.457 3.918l13.98 45.168c23.98-10.864 34.598-39.102 23.73-63.082zm203.836 38.144c-10.183 31.281-43.808 48.363-75.089 38.164l-17.282 38.672 4.457 11.926h13.411v11.914h-50.629c-1.375.0-2.563-.957-2.887-2.281-.402-1.59.601-3.211 2.191-3.614l25.2-6.019-4.461-11.926h-106.414l4.785 15.445c1.543 4.985 6.156 8.395 11.371 8.395h19.582v11.898h-19.582c-10.446.0-19.66-6.804-22.762-16.757l-17.297-55.895c-27.762 5.617-55.648-9.074-66.695-35.168-12.824-30.293 1.344-65.258 31.633-78.066 30.308-12.825 65.261 1.328 78.086 31.617 12.824 30.324-1.344 65.262-31.637 78.101l4.723 15.278 70.429-78.117c2.254-2.5 5.477-3.934 8.86-3.934h25.011c.465-2.223 1.035-4.414 1.731-6.559 10.199-31.281 43.808-48.378 75.09-38.16 31.277 10.184 48.359 43.809 38.175 75.086" /></g></g></svg>