<svg xmlns:dc="http://purl.org/dc/elements/1.1/" xmlns:cc="http://creativecommons.org/ns#" xmlns:rdf="http://www.w3.org/1999/02/22-rdf-syntax-ns#" xmlns:svg="http://www.w3.org/2000/svg" xmlns="http://www.w3.org/2000/svg" viewBox="0 0 847.15851 743.62268" height="743.62268" width="847.15851" id="svg3796"><defs id="defs3800" /><g transform="matrix(1.25,0,0,-1.25,0,743.62267)" id="g3804"><g id="g3806"><path id="path3808" style="fill:#fff;fill-opacity:1;fill-rule:nonzero;stroke:none" d="m338.867 594.5c-7.512.0-15.027-2.867-20.758-8.598-1.879-1.879-3.445-3.953-4.707-6.152l-15.246-26.157h-.07L4.984 45.554C4.93 45.457 4.887 45.359 4.832 45.261 3.344 42.867 2.176 40.218 1.406 37.351-2.789 21.695 6.504 5.597 22.164 1.402c2.586-.695 5.184-1.012 7.738-1h618.067c16.215.0 29.355 13.141 29.355 29.356.0 5.304-1.414 10.281-3.879 14.578-.019.031-.035.062-.05.097l-304.368 528.41c-3.863 6.665-5.652 9.305-9.406 13.059-5.73 5.731-13.242 8.598-20.754 8.598z" /><path id="path3810" style="fill:#c1121c;fill-opacity:1;fill-rule:nonzero;stroke:none" d="m338.867 587.144c-7.125.051-14.949-3.59-18.781-10.406L10.793 40.847C9.008 37.199 8.258 34.027 8.234 30.398c0-6.496 2.875-12.66 7.848-16.84 4.383-3.394 8.535-5.16 14.121-5.16h617.906c3.77-.035 7.547.871 10.977 3.133 6.453 3.898 10.402 10.883 10.41 18.426-.184 3.894-1.144 8-2.879 10.89L357.504 576.828c-.027.047-.059.094-.09.14-.031.047-.062.094-.094.145-1.097 1.754-2.472 3.305-4.039 4.633-3.59 3.109-8.086 4.976-12.824 5.316-.531.047-1.062.078-1.59.082zM30.203 8.398H28.68h1.554-.031zM338.547 480.933 574.25 72.398H102.512l236.035 408.535z" /><path id="path3812" style="fill:#000;fill-opacity:1;fill-rule:nonzero;stroke:none" d="m338.867 594.898c-7.617.0-15.23-2.906-21.039-8.715-1.906-1.902-3.492-4.008-4.773-6.234l-15.129-25.957h-.071L4.641 45.754C4.574 45.636 4.527 45.535 4.48 45.453 2.977 43.031 1.797 40.351 1.02 37.457-3.23 21.586 6.191 5.269 22.059 1.015 24.68.312 27.316-.008 29.902.0h618.067c16.429.0 29.758 13.328 29.758 29.758.0 5.375-1.438 10.417-3.934 14.773-.012.019-.027.051-.051.098L369.379 573.043c-3.871 6.668-5.695 9.363-9.469 13.14-5.808 5.809-13.426 8.715-21.039 8.715h-.004zm0-.398c7.512.0 15.024-2.867 20.754-8.598 3.754-3.754 5.543-6.394 9.406-13.059L673.391 44.433c.019-.035.035-.066.054-.097 2.465-4.297 3.879-9.274 3.879-14.578.0-16.215-13.14-29.356-29.355-29.356h-618.067C27.348.39 24.75.707 22.164 1.402 6.504 5.597-2.789 21.695 1.406 37.351c.766 2.867 1.938 5.516 3.426 7.91.055.098.098.196.152.293l293.102 508.039h.07l15.246 26.157c1.262 2.199 2.828 4.273 4.707 6.152 5.731 5.731 13.243 8.598 20.758 8.598z" /><path id="path3814" style="fill:#000;fill-opacity:1;fill-rule:nonzero;stroke:none" d="m365.328 162.402 9.137 15.137c6.836-3.317 15.078-.449 18.39 6.402.016.02.032.031.032.063l5.496 11.449-45.465-12.387-1.512 5.567c-26.543-10.926-54.949-16.555-83.652-16.602-5.246-16.699-18.133-29.906-34.692-35.586l-15.632-5.371c-8.516-2.899-15.938-8.379-21.262-15.633L184.625 99.703c-5.414-7.426-13.039-12.949-21.773-15.82l2.761 16.625c4.567-.575 9.012 1.738 11.145 5.816l17.773 34.039 11.094 7.824c13.551 7.039 20.527 22.453 16.867 37.27l-1.465 5.984c-1.172 4.738.911 9.676 5.125 12.129l13.657 8.012c2.253 1.308 4.644 2.359 7.14 3.117l74.66 22.594c14.258 4.304 25.383 15.519 29.551 29.843l10.051 34.364c-7.301.0-14.137 3.625-18.246 9.644l22.363 1.371-28.023 16.02c-8.137 4.648-13.348 13.105-13.856 22.453-.051 1.066.77 1.961 1.836 2.023.91.047 1.742-.558 1.957-1.453l.356-1.328c1.57-6.14 5.711-11.293 11.359-14.164l1.586-.816c.82-.418 1.805-.078 2.227.726.179.352.23.754.136 1.137l-2.609 10.836c-.203.879.34 1.773 1.234 1.988.742.188 1.516-.183 1.856-.859l8.976-18.012c.789-1.586 2.067-2.867 3.66-3.672l3.782-1.929c.816-.415 1.82-.094 2.238.722.168.34.23.742.117 1.129l-3.945 16.5c-.219.891.32 1.789 1.219 1.988.738.184 1.527-.171 1.867-.863l9.797-19.676c2.363-4.738 6.578-8.304 11.636-9.843l32.161-9.789v-9.629l-28.922-8.286-8.547-64.902c-.848-6.605-3.688-12.762-8.133-17.734l42.207 6.851c2.238.34 4.367-1.172 4.734-3.425.141-.922-.027-1.836-.464-2.668l-15.29-27.809c-4.324-7.84-12.207-13.113-21.125-14.106" /></g></g></svg>