<svg xmlns:dc="http://purl.org/dc/elements/1.1/" xmlns:cc="http://creativecommons.org/ns#" xmlns:rdf="http://www.w3.org/1999/02/22-rdf-syntax-ns#" xmlns:svg="http://www.w3.org/2000/svg" xmlns="http://www.w3.org/2000/svg" viewBox="0 0 847.15863 743.62268" height="743.62268" width="847.15863" id="svg7541"><defs id="defs7545" /><g transform="matrix(1.25,0,0,-1.25,0,743.62267)" id="g7549"><g id="g7551"><path id="path7553" style="fill:#fff;fill-opacity:1;fill-rule:nonzero;stroke:none" d="m338.859 594.5c7.512.0 15.028-2.867 20.758-8.598 1.879-1.879 3.446-3.953 4.707-6.152l15.246-26.157h.071l293.101-508.039c.055-.097.098-.195.153-.293 1.488-2.394 2.656-5.043 3.425-7.91 4.196-15.656-5.097-31.754-20.757-35.949-2.586-.695-5.184-1.012-7.739-1h-618.066c-16.215.0-29.356 13.141-29.356 29.356.0 5.304 1.414 10.281 3.879 14.578.02.031.035.062.051.097l304.367 528.41c3.864 6.665 5.653 9.305 9.406 13.059 5.731 5.731 13.243 8.598 20.754 8.598z" /><path id="path7555" style="fill:#c1121c;fill-opacity:1;fill-rule:nonzero;stroke:none" d="m338.859 587.144c7.125.051 14.95-3.59 18.782-10.406L666.934 40.847c1.785-3.648 2.535-6.82 2.558-10.449.0-6.496-2.875-12.66-7.847-16.84-4.383-3.394-8.536-5.16-14.122-5.16h-617.906C25.848 8.363 22.07 9.269 18.641 11.531 12.188 15.429 8.238 22.414 8.23 29.957c.184 3.894 1.145 8 2.879 10.89l309.114 535.981c.027.047.058.094.09.14.031.047.062.094.093.145 1.098 1.754 2.473 3.305 4.039 4.633 3.59 3.109 8.086 4.976 12.825 5.316.531.047 1.062.078 1.589.082zM647.523 8.398h1.524-1.555.031zM339.18 480.933 103.477 72.398h471.738l-236.035 408.535z" /><path id="path7557" style="fill:#000;fill-opacity:1;fill-rule:nonzero;stroke:none" d="m338.859 594.898c7.618.0 15.231-2.906 21.039-8.715 1.907-1.902 3.493-4.008 4.774-6.234l15.129-25.957h.07l293.215-508.238c.066-.118.113-.219.16-.301 1.504-2.422 2.684-5.102 3.461-7.996C680.957 21.586 671.535 5.269 655.668 1.015 653.047.312 650.41-.008 647.824.0H29.758C13.328.0.0 13.328.0 29.758c0 5.375 1.438 10.417 3.934 14.773.011.019.027.051.05.098l304.364 528.414c3.871 6.668 5.695 9.363 9.468 13.14 5.809 5.809 13.426 8.715 21.039 8.715h.004zm0-.398c-7.511.0-15.023-2.867-20.754-8.598-3.753-3.754-5.542-6.394-9.406-13.059L4.336 44.433C4.316 44.398 4.301 44.367 4.281 44.336 1.816 40.039.402 35.062.402 29.758.402 13.543 13.543.402 29.758.402h618.066c2.555-.012 5.153.305 7.739 1 15.66 4.195 24.953 20.293 20.757 35.949-.765 2.867-1.937 5.516-3.425 7.91-.055.098-.098.196-.153.293l-293.101 508.039h-.071l-15.246 26.157c-1.261 2.199-2.828 4.273-4.707 6.152-5.73 5.731-13.242 8.598-20.758 8.598z" /><path id="path7559" style="fill:#000;fill-opacity:1;fill-rule:nonzero;stroke:none" d="m323.824 386.082c0-12.157 9.856-22.012 22.016-22.012 12.156.0 22.015 9.855 22.015 22.012.0 12.16-9.859 22.015-22.015 22.015-12.16.0-22.016-9.855-22.016-22.015zm-11.015-65.473v-63.863h44.031v52.804l28.594-44.031c5.793-8.914 17.718-11.461 26.648-5.652l-54.176 83.422c-8.281 12.746-25.324 16.359-38.066 8.082-.945-.606-1.84-1.27-2.703-1.996L280.18 318.371c-3.739-3.137-5.883-7.77-5.883-12.653v-26.957c0-10.628 8.617-19.265 19.246-19.265v44.941l19.266 16.172zm22.015-80.457 51.969-95.719c5.809-10.691 19.172-14.648 29.863-8.84l-58.488 107.696c-.867 1.59-1.328 3.398-1.328 5.254v2.703h-44.031v-2.703c0-1.856-.465-3.664-1.329-5.254l-43.718-80.535c-5.793-10.676-1.84-24.055 8.851-29.832l58.211 107.23zM201.918 92.648l35.578 80.535h-35.781l-48.106-80.535h48.309zm80.566.0 10.504 57.746-13.949-25.676-5.316 2.891c-13.625 7.383-18.66 24.406-11.278 38.035l4.094 7.539h-5.191l-27.203-80.535h48.339zm80.536.0-6.29 80.535h-35.765l-6.27-80.535h48.325zm80.55.0-27.207 80.535h-13.254l21.735-40.047-5.313-2.855c-10.273-5.594-22.941-4.219-31.765 3.461l7.464-41.094h48.34zm80.535.0-48.109 80.535h-35.781l35.566-80.535" /></g></g></svg>