<svg xmlns:dc="http://purl.org/dc/elements/1.1/" xmlns:cc="http://creativecommons.org/ns#" xmlns:rdf="http://www.w3.org/1999/02/22-rdf-syntax-ns#" xmlns:svg="http://www.w3.org/2000/svg" xmlns="http://www.w3.org/2000/svg" viewBox="0 0 847.15851 743.62274" height="743.62274" width="847.15851" id="svg3683"><defs id="defs3687" /><g transform="matrix(1.25,0,0,-1.25,0,743.62274)" id="g3691"><g id="g3693"><path id="path3695" style="fill:#fff;fill-opacity:1;fill-rule:nonzero;stroke:none" d="m338.867 594.5c-7.512.0-15.023-2.867-20.758-8.598-1.879-1.879-3.445-3.953-4.707-6.152l-15.246-26.156h-.07L4.984 45.551C4.93 45.457 4.887 45.359 4.832 45.261 3.348 42.871 2.176 40.219 1.402 37.351-2.789 21.695 6.504 5.597 22.164 1.402c2.586-.695 5.188-1.012 7.734-1h618.075c16.211.0 29.351 13.141 29.351 29.356.0 5.3-1.414 10.281-3.879 14.578-.019.035-.039.062-.05.097L369.023 572.844c-3.859 6.664-5.648 9.304-9.402 13.058-5.73 5.731-13.242 8.598-20.754 8.598z" /><path id="path3697" style="fill:#c1121c;fill-opacity:1;fill-rule:nonzero;stroke:none" d="m338.867 587.144c-7.125.051-14.949-3.593-18.781-10.402L10.793 40.847C9.008 37.199 8.258 34.027 8.234 30.398c0-6.496 2.875-12.66 7.848-16.844 4.387-3.39 8.535-5.156 14.121-5.156h617.906c3.77-.035 7.547.871 10.981 3.133 6.445 3.895 10.398 10.883 10.406 18.426-.183 3.894-1.144 8-2.879 10.89L357.504 576.828c-.027.047-.059.094-.09.141-.031.046-.062.089-.094.144-1.093 1.758-2.468 3.305-4.043 4.633-3.586 3.109-8.082 4.976-12.82 5.312-.531.051-1.062.082-1.59.086zM30.203 8.398H28.68h1.554-.031zM338.547 480.929 574.25 72.398H102.512l236.035 408.531z" /><path id="path3699" style="fill:#000;fill-opacity:1;fill-rule:nonzero;stroke:none" d="m338.867 594.898c-7.617.0-15.23-2.906-21.039-8.719-1.906-1.898-3.492-4.007-4.773-6.23l-15.129-25.957h-.071L4.641 45.754C4.574 45.636 4.523 45.535 4.48 45.453 2.977 43.031 1.797 40.351 1.02 37.457-3.23 21.586 6.191 5.269 22.059 1.015 24.68.312 27.316-.008 29.898.0h618.075c16.425.0 29.754 13.328 29.754 29.758.0 5.375-1.438 10.414-3.934 14.773-.016.016-.027.051-.051.098L369.379 573.043c-3.871 6.668-5.695 9.363-9.469 13.136-5.808 5.813-13.426 8.719-21.039 8.719h-.004zm0-.398c7.512.0 15.024-2.867 20.754-8.598 3.754-3.754 5.543-6.394 9.402-13.058L673.391 44.433c.015-.035.035-.062.054-.097 2.465-4.297 3.879-9.278 3.879-14.578.0-16.215-13.14-29.356-29.351-29.356h-618.075C27.352.39 24.75.707 22.164 1.402 6.504 5.597-2.789 21.695 1.402 37.351c.77 2.868 1.946 5.52 3.43 7.91.055.098.098.196.152.29l293.102 508.043h.07l15.246 26.156c1.262 2.199 2.828 4.273 4.707 6.152 5.735 5.731 13.243 8.598 20.758 8.598z" /><path id="path3701" style="fill:#000;fill-opacity:1;fill-rule:nonzero;stroke:none" d="m118.887 84.484 6.961 12.086h126c-4.153.0-7.547 3.379-7.547 7.527v27.657h30.183v-27.657c0-4.148-3.379-7.527-7.546-7.527h285.714l6.977-12.086" /><path id="path3703" style="fill:#000;fill-opacity:1;fill-rule:nonzero;stroke:none" d="m274.484 174.496c0 8.336-6.757 15.094-15.093 15.094-8.332.0-15.09-6.758-15.09-15.094.0-8.332 6.758-15.074 15.09-15.074 8.336.0 15.093 6.742 15.093 15.074zm-55.738 82.976h35.613c5.016.0 9.539-2.976 11.528-7.546l19.894-45.707c1.403-3.243 3.176-6.297 5.293-9.106l3.008-4.012c1.961-2.621 3.023-5.8 3.023-9.058v-32.684c0-6.961-5.632-12.562-12.558-12.562h-135.477l37.746 65.355h86.403l-17.285 39.719c-.801 1.836-2.606 3.023-4.614 3.023h-39.828" /><path id="path3705" style="fill:#000;fill-opacity:1;fill-rule:nonzero;stroke:none" d="m300.734 100.582-.679 4.797 136.23 19.136.676-4.769" /><path id="path3707" style="fill:#000;fill-opacity:1;fill-rule:nonzero;stroke:none" d="m324.867 115.07-1.804 4.461 127.558 51.555 1.805-4.473" /><path id="path3709" style="fill:#000;fill-opacity:1;fill-rule:nonzero;stroke:none" d="m300.734 109.347-2.64 4.055 87.715 56.961 2.636-4.043" /><path id="path3711" style="fill:#000;fill-opacity:1;fill-rule:nonzero;stroke:none" d="m406.918 181.039-9.66 4.508 4.504 9.675 12.285 4.473 9.676-4.519-4.524-9.661" /><path id="path3713" style="fill:#000;fill-opacity:1;fill-rule:nonzero;stroke:none" d="m445.543 184.265-4.953 4.954 4.953 4.953h8.578l4.969-4.953-4.969-4.954" /><path id="path3715" style="fill:#000;fill-opacity:1;fill-rule:nonzero;stroke:none" d="m463.645 148.867-4.954 4.937 4.954 4.954h8.593l4.953-4.954-4.953-4.937" /><path id="path3717" style="fill:#000;fill-opacity:1;fill-rule:nonzero;stroke:none" d="m421.406 129.144-8.285 3.86 3.859 8.3 10.54 3.829 8.269-3.875-3.855-8.27" /><path id="path3719" style="fill:#000;fill-opacity:1;fill-rule:nonzero;stroke:none" d="m453.582 106.215-5.387 5.382 5.387 5.403h9.336l5.402-5.403-5.402-5.382" /><path id="path3721" style="fill:#000;fill-opacity:1;fill-rule:nonzero;stroke:none" d="m488.98 104.625-6.355 2.945 2.977 6.344 8.07 2.93 6.359-2.946-2.98-6.359" /><path id="path3723" style="fill:#000;fill-opacity:1;fill-rule:nonzero;stroke:none" d="m472.887 120.703-9.66 4.508 4.507 9.66 12.297 4.488 9.66-4.519-4.503-9.661" /></g></g></svg>