<svg xmlns:dc="http://purl.org/dc/elements/1.1/" xmlns:cc="http://creativecommons.org/ns#" xmlns:rdf="http://www.w3.org/1999/02/22-rdf-syntax-ns#" xmlns:svg="http://www.w3.org/2000/svg" xmlns="http://www.w3.org/2000/svg" id="svg9640" width="847.15851" height="743.62268" viewBox="0 0 847.15851 743.62268"><defs id="defs9644"><clipPath id="clipPath5301" clipPathUnits="userSpaceOnUse"><path id="path5303" d="M0 0H639V561H0V0z" /></clipPath><clipPath id="clipPath4917" clipPathUnits="userSpaceOnUse"><path id="path4919" d="M0 0H639V561H0V0z" /></clipPath></defs><g transform="matrix(-1,0,0,1,847.15851,0)" id="g3846"><g id="g3571" transform="matrix(-1,0,0,1,847.15851,0)"><g id="g9648" transform="matrix(1.25,0,0,-1.25,0,743.62267)"><g id="g9650"><path d="m338.859 594.5c7.512.0 15.028-2.867 20.758-8.598 1.879-1.879 3.445-3.953 4.707-6.152l15.246-26.157h.071l293.101-508.039c.055-.097.098-.195.153-.293 1.488-2.394 2.656-5.043 3.425-7.91 4.196-15.656-5.097-31.754-20.758-35.949-2.585-.695-5.183-1.012-7.738-1h-618.066c-16.215.0-29.356 13.141-29.356 29.356.0 5.304 1.414 10.281 3.879 14.578.02.031.035.062.051.097l304.367 528.41c3.863 6.665 5.653 9.305 9.406 13.059 5.731 5.731 13.243 8.598 20.754 8.598z" style="fill:#fff;fill-opacity:1;fill-rule:nonzero;stroke:none" id="path9652" /><path d="m338.859 587.144c7.125.051 14.95-3.59 18.782-10.406L666.934 40.847c1.785-3.648 2.535-6.82 2.558-10.449.0-6.496-2.875-12.66-7.847-16.84-4.383-3.394-8.536-5.16-14.122-5.16h-617.906C25.848 8.363 22.07 9.269 18.641 11.531 12.188 15.429 8.238 22.414 8.23 29.957c.184 3.894 1.145 8 2.879 10.89l309.114 535.981c.027.047.058.094.089.14.032.047.063.094.094.145 1.098 1.754 2.473 3.305 4.039 4.633 3.59 3.109 8.086 4.976 12.825 5.316.531.047 1.062.078 1.589.082zM647.523 8.398h1.524-1.555.031zM339.18 480.933 103.477 72.398h471.738l-236.035 408.535z" style="fill:#c1121c;fill-opacity:1;fill-rule:nonzero;stroke:none" id="path9656" /><path d="m338.859 594.898c7.618.0 15.231-2.906 21.039-8.715 1.907-1.902 3.493-4.008 4.774-6.234l15.129-25.957h.07l293.215-508.238c.066-.118.113-.219.16-.301 1.504-2.422 2.684-5.102 3.461-7.996C680.957 21.586 671.535 5.269 655.668 1.015 653.047.312 650.41-.008 647.824.0H29.758C13.328.0.0 13.328.0 29.758c0 5.375 1.438 10.417 3.934 14.773.011.019.027.051.05.098l304.364 528.414c3.871 6.668 5.695 9.363 9.468 13.14 5.809 5.809 13.426 8.715 21.039 8.715h.004zm0-.398c-7.511.0-15.023-2.867-20.754-8.598-3.753-3.754-5.543-6.394-9.406-13.059L4.336 44.433C4.316 44.398 4.301 44.367 4.281 44.336 1.816 40.039.402 35.062.402 29.758.402 13.543 13.543.402 29.758.402h618.066c2.555-.012 5.153.305 7.738 1 15.661 4.195 24.954 20.293 20.758 35.949-.765 2.867-1.937 5.516-3.425 7.91-.055.098-.098.196-.153.293l-293.101 508.039h-.071l-15.246 26.157c-1.262 2.199-2.828 4.273-4.707 6.152-5.73 5.731-13.242 8.598-20.758 8.598z" style="fill:#000;fill-opacity:1;fill-rule:nonzero;stroke:none" id="path9658" /></g></g><g transform="matrix(1.3258361,0,0,-1.3258361,-0.73583904,744.37356)" id="g5289"><g id="g5291" /><g id="g5293"><g transform="translate(0,-0.128784)" id="g5295"><g id="g5297"><g clip-path="url(#clipPath5301)" id="g5299"><g id="g5305" /></g></g></g></g></g></g><g id="g4907" transform="matrix(1.3258361,0,0,-1.3258361,1.700791,744.39478)"><g id="g4909"><g id="g4911" transform="translate(0,-0.128784)"><g id="g4913"><g id="g4915" clip-path="url(#clipPath4917)"><g id="g4921" /></g></g></g><path d="m343.148 153.695 8.614 14.27c6.445-3.125 14.215-.422 17.34 6.039.015.016.031.027.031.059l5.179 10.793-42.863-11.68-1.426 5.25C305 168.125 278.219 162.817 251.156 162.774 246.211 147.031 234.062 134.578 218.449 129.223l-14.738-5.063c-8.031-2.734-15.027-7.902-20.047-14.738l-10.883-14.84c-5.105-7-12.293-12.207-20.527-14.914l2.605 15.672c4.305-.539 8.496 1.641 10.504 5.484l16.758 32.094 10.461 7.375c12.773 6.637 19.352 21.168 15.902 35.137l-1.382 5.644c-1.106 4.465.859 9.121 4.832 11.434l12.875 7.555c2.125 1.234 4.379 2.222 6.734 2.937l70.387 21.301c13.445 4.058 23.933 14.633 27.863 28.137l9.473 32.398c-6.883.0-13.328 3.418-17.2 9.094l21.082 1.293-26.421 15.101c-7.668 4.383-12.582 12.356-13.063 21.172-.047 1.004.727 1.848 1.731 1.906.859.043 1.644-.527 1.847-1.371l.336-1.25c1.481-5.789 5.383-10.648 10.707-13.355l1.496-.77c.774-.394 1.703-.074 2.098.684.172.332.219.711.129 1.074l-2.457 10.215c-.192.828.32 1.672 1.164 1.875.699.176 1.426-.172 1.746-.812l8.465-16.981c.742-1.496 1.949-2.703 3.449-3.461l3.566-1.82c.77-.391 1.715-.086 2.11.683.16.321.219.7.113 1.063l-3.723 15.555c-.203.843.305 1.687 1.149 1.875.699.175 1.441-.161 1.762-.813l9.238-18.551c2.226-4.468 6.199-7.828 10.969-9.281l30.32-9.227v-9.078l-27.266-7.812-8.058-61.192c-.801-6.226-3.477-12.031-7.668-16.718l39.793 6.461c2.109.32 4.117-1.106 4.465-3.231.132-.871-.028-1.73-.438-2.515L376.289 168.43c-4.074-7.391-11.508-12.363-19.914-13.297" style="fill:#000;fill-opacity:1;fill-rule:nonzero;stroke:none" id="path4929" /></g></g></g></svg>