<svg xmlns:dc="http://purl.org/dc/elements/1.1/" xmlns:cc="http://creativecommons.org/ns#" xmlns:rdf="http://www.w3.org/1999/02/22-rdf-syntax-ns#" xmlns:svg="http://www.w3.org/2000/svg" xmlns="http://www.w3.org/2000/svg" viewBox="0 0 847.15851 743.62274" height="743.62274" width="847.15851" id="svg3485"><defs id="defs3489" /><g transform="matrix(1.25,0,0,-1.25,0,743.62274)" id="g3493"><g id="g3495"><path id="path3497" style="fill:#fff;fill-opacity:1;fill-rule:nonzero;stroke:none" d="m338.867 594.5c-7.512.0-15.023-2.867-20.758-8.598-1.879-1.879-3.445-3.953-4.707-6.152l-15.246-26.156h-.07L4.984 45.551C4.93 45.457 4.887 45.359 4.832 45.261 3.348 42.871 2.176 40.219 1.402 37.351-2.789 21.695 6.504 5.597 22.164 1.402c2.586-.695 5.188-1.012 7.734-1h618.075c16.211.0 29.351 13.141 29.351 29.356.0 5.3-1.414 10.281-3.879 14.578-.019.035-.039.062-.05.097L369.023 572.844c-3.859 6.664-5.648 9.304-9.402 13.058-5.73 5.731-13.242 8.598-20.754 8.598z" /><path id="path3499" style="fill:#c1121c;fill-opacity:1;fill-rule:nonzero;stroke:none" d="m338.867 587.144c-7.125.051-14.949-3.593-18.781-10.402L10.793 40.847C9.008 37.199 8.258 34.027 8.234 30.398c0-6.496 2.875-12.66 7.848-16.844 4.387-3.39 8.535-5.156 14.121-5.156h617.906c3.77-.035 7.547.871 10.981 3.133 6.445 3.895 10.398 10.883 10.406 18.426-.183 3.894-1.144 8-2.879 10.89L357.504 576.828c-.027.047-.059.094-.09.141-.031.046-.062.089-.094.144-1.093 1.758-2.468 3.305-4.043 4.633-3.586 3.109-8.082 4.976-12.82 5.312-.531.051-1.062.082-1.59.086zM30.203 8.398H28.68h1.554-.031zM338.547 480.929 574.25 72.398H102.512l236.035 408.531z" /><path id="path3501" style="fill:#000;fill-opacity:1;fill-rule:nonzero;stroke:none" d="m338.867 594.898c-7.617.0-15.23-2.906-21.039-8.719-1.906-1.898-3.492-4.007-4.773-6.23l-15.129-25.957h-.071L4.641 45.754C4.574 45.636 4.523 45.535 4.48 45.453 2.977 43.031 1.797 40.351 1.02 37.457-3.23 21.586 6.191 5.269 22.059 1.015 24.68.312 27.316-.008 29.898.0h618.075c16.425.0 29.754 13.328 29.754 29.758.0 5.375-1.438 10.414-3.934 14.773-.016.016-.027.051-.051.098L369.379 573.043c-3.871 6.668-5.695 9.363-9.469 13.136-5.808 5.813-13.426 8.719-21.039 8.719h-.004zm0-.398c7.512.0 15.024-2.867 20.754-8.598 3.754-3.754 5.543-6.394 9.402-13.058L673.391 44.433c.015-.035.035-.062.054-.097 2.465-4.297 3.879-9.278 3.879-14.578.0-16.215-13.14-29.356-29.351-29.356h-618.075C27.352.39 24.75.707 22.164 1.402 6.504 5.597-2.789 21.695 1.402 37.351c.77 2.868 1.946 5.52 3.43 7.91.055.098.098.196.152.29l293.102 508.043h.07l15.246 26.156c1.262 2.199 2.828 4.273 4.707 6.152 5.735 5.731 13.243 8.598 20.758 8.598z" /><path id="path3503" style="fill:#040404;fill-opacity:1;fill-rule:nonzero;stroke:none" d="m304.453 279.773c-6.355.0-17.254-1.816-29.969-6.359-8.175-2.727-16.351-5.449-19.984-5.449-14.531-1.817-19.98-5.45-19.98-13.625.0-4.539 4.543-13.621 9.082-17.258 5.449-5.449 22.707-19.071 27.25-21.797 1.816-1.816 4.539-3.633 4.539-3.633.0-.906 7.265-5.449 16.347-11.808 14.535-9.083 18.168-13.622 13.625-13.622-3.633.0-39.054 24.524-56.312 39.055-7.266 6.356-9.082 5.449-4.539-3.633 5.449-12.715 26.34-29.972 53.586-42.687 8.175-4.543 9.082-4.543 9.992-9.082 1.816-9.992.906-10.903-6.36-10.903-3.632-.906-9.992-1.816-14.531-3.632l-7.265-2.723-7.266 2.723c-5.453 1.816-9.086 4.543-12.719 8.175-2.722 2.727-5.449 5.45-7.265 5.45-2.723.0-8.172-4.543-8.172-8.176.0-3.633 4.539-7.266 9.082-7.266 1.816.0 3.633-.906 3.633-1.816.0-1.817-2.727-3.633-7.266-2.723-7.266.906-11.809-4.543-7.266-9.082 1.817-2.726 6.356-2.726 9.989-.91 1.816.91 2.726.91 3.632-1.816 1.817-1.817.911-4.54-1.816-4.54-4.539.0-7.266-8.175-3.633-12.718 4.543-6.356 14.531-1.817 14.531 6.359.0.906 1.817.906 4.543.906 11.809-2.722 29.063.0 42.688 6.36l8.176 3.633 5.449-2.723c3.633-1.817 7.266-2.727 13.621-3.633 8.176-.91 9.086-.91 9.992-3.637.91-3.632.91-3.632-.906-3.632-3.633.0-7.27-3.633-6.359-6.356.0-.91.91-1.816 1.816-1.816.0.0 1.816-.91 2.727-1.817 1.816-1.816 1.816-1.816.0-5.449-1.817-3.633-1.817-3.633.0-5.449 1.816-.91 3.632-1.817 4.539-1.817 2.726.907 3.632-.91 1.816-1.816-1.816-.91-.906-4.543.91-6.359 1.817-1.817 2.723-1.817 7.266 2.726 2.722 1.817 8.172 4.539 14.531 7.266 19.074 6.355 37.238 14.531 49.047 20.887 6.355 3.632 16.348 9.085 21.797 12.718 6.355 2.723 11.808 6.356 12.715 7.266 2.726 3.633.91 8.172-3.633 10.898-5.449 3.633-4.543 4.539 2.726 4.539 10.899.0 16.348 4.543 16.348 13.625.0 3.633-1.816 5.45-11.809 15.442-21.796 19.98-42.687 36.328-48.136 36.328-1.817.0-4.543 1.816-7.266 3.633-4.543 5.449-7.266 6.359-14.531 8.176-7.266.906-12.715 2.722-48.137 19.98-25.433 12.715-29.973 14.531-31.789 19.074-1.816 1.817-3.633 4.543-5.449 4.543h-3.637zm-24.519-22.707h1.816c1.816-.91 1.816-1.816-.91-2.726-5.449-2.723-7.266-11.805-2.723-18.164l1.817-3.633c-2.727.906-9.082 4.539-10.899 6.355-4.543 7.27-2.726 13.625 5.449 17.258 1.817.91 3.633.91 5.45.91zm30.879-.91c1.816.0 5.449-1.816 14.531-9.082 29.972-24.523 60.855-45.414 91.734-62.668 4.543-2.727 7.266-4.543 7.266-6.359.0-4.539-1.817-3.633-29.063 12.714-36.332 21.801-88.101 60.856-86.285 64.489.91.906.91.906 1.817.906zm-22.708.0c.911.0 1.817.0 2.727-.906 5.449-2.727 9.082-7.266 9.082-10.899.0-5.453-.91-8.175-4.543-9.992-4.539-1.816-8.172-2.726-10.898-1.816-1.817.906-1.817.906-.907.906.907.0 3.633 1.816 5.45 4.543 3.632 4.543 3.632 10.898.906 15.441-1.817 1.817-2.723 2.723-1.817 2.723zm125.34-32.695c.907.0 1.817-2.727 2.723-8.176.91-7.266 8.176-16.348 19.984-26.34 17.254-15.437 19.075-16.348 19.075-19.07.0-2.727-3.637-3.633-4.543.0.0.906-5.45 6.355-11.809 11.804-14.531 10.899-18.164 14.532-21.797 20.891-3.633 6.359-6.359 18.164-4.543 19.981.0.0.0.91.91.91zM303.547 209.836c.906.0 2.726-.907 5.449-2.723 4.543-2.727 9.082-7.269 18.164-20.891 14.531-20.89 19.074-24.523 30.883-24.523 7.266.0 9.988.906 16.348 4.543 7.265 3.633 8.175 3.633 11.808 1.816 6.356-2.726 5.449-4.543-.91-3.636-4.539.91-6.359.0-10.898-2.723-4.543-2.727-7.266-2.727-13.625-3.633-16.348-.91-20.891 2.723-40.871 31.789-5.45 6.356-9.989 11.805-12.715 13.625l-5.45 3.633c-.91.906.0.906.907 1.816.0.907.0.907.91.907zm115.348-51.77h4.543c16.347.0 19.98-.91 19.98-2.726.0-1.817-3.633-1.817-15.441-1.817-16.348.91-21.797.0-47.227-6.355-19.074-5.449-23.617-8.176-21.801-13.625 1.817-5.449 10.899-9.082 18.164-8.176 13.625.91 23.617 1.816 27.25.91 6.356-2.726 2.723-3.633-8.175-3.633-6.356.0-14.532-.91-19.075-.91-7.265-.906-9.082.0-13.621 1.817-10.898 4.543-11.808 17.257-.91 21.8 1.816.907 13.625 4.539 25.434 7.266 17.254 4.539 20.886 5.449 30.879 5.449z" /></g></g></svg>