<svg xmlns:dc="http://purl.org/dc/elements/1.1/" xmlns:cc="http://creativecommons.org/ns#" xmlns:rdf="http://www.w3.org/1999/02/22-rdf-syntax-ns#" xmlns:svg="http://www.w3.org/2000/svg" xmlns="http://www.w3.org/2000/svg" viewBox="0 0 847.15851 743.62274" height="743.62274" width="847.15851" id="svg3889"><defs id="defs3893" /><g transform="matrix(1.25,0,0,-1.25,0,743.62274)" id="g3897"><g id="g3899"><path id="path3901" style="fill:#fff;fill-opacity:1;fill-rule:nonzero;stroke:none" d="m338.859 594.5c7.512.0 15.024-2.867 20.758-8.598 1.879-1.879 3.445-3.953 4.707-6.152l15.246-26.156h.071l293.101-508.043c.055-.094.098-.192.153-.29 1.484-2.39 2.656-5.042 3.429-7.91 4.192-15.656-5.101-31.754-20.762-35.949-2.585-.695-5.187-1.012-7.734-1h-618.074c-16.211.0-29.352 13.141-29.352 29.356.0 5.3 1.414 10.281 3.879 14.578.02.035.039.062.051.097l304.371 528.411c3.859 6.664 5.649 9.304 9.402 13.058 5.731 5.731 13.243 8.598 20.754 8.598z" /><path id="path3903" style="fill:#c1121c;fill-opacity:1;fill-rule:nonzero;stroke:none" d="m338.859 587.144c7.125.051 14.95-3.593 18.782-10.402L666.934 40.847c1.785-3.648 2.535-6.82 2.558-10.449.0-6.496-2.875-12.66-7.847-16.844-4.387-3.39-8.536-5.156-14.122-5.156h-617.906C25.848 8.363 22.07 9.269 18.637 11.531 12.191 15.426 8.238 22.414 8.23 29.957c.184 3.894 1.145 8 2.879 10.89l309.114 535.981c.027.047.058.094.089.141.032.046.063.089.094.144 1.094 1.758 2.469 3.305 4.043 4.633 3.586 3.109 8.082 4.976 12.821 5.312.531.051 1.062.082 1.589.086zM647.523 8.398h1.524-1.555.031zM339.18 480.929 103.477 72.398h471.738l-236.035 408.531z" /><path id="path3905" style="fill:#000;fill-opacity:1;fill-rule:nonzero;stroke:none" d="m338.859 594.898c7.618.0 15.231-2.906 21.039-8.719 1.907-1.898 3.493-4.007 4.774-6.23l15.129-25.957h.07l293.215-508.238c.066-.118.117-.219.16-.301 1.504-2.422 2.684-5.102 3.461-7.996C680.957 21.586 671.535 5.269 655.668 1.015 653.047.312 650.41-.008 647.828.0H29.754C13.328.0.0 13.328.0 29.758c0 5.375 1.438 10.414 3.934 14.773.015.016.027.051.05.098l304.364 528.414c3.871 6.668 5.695 9.363 9.468 13.136 5.809 5.813 13.426 8.719 21.039 8.719h.004zm0-.398c-7.511.0-15.023-2.867-20.754-8.598-3.753-3.754-5.543-6.394-9.402-13.058L4.336 44.433C4.32 44.398 4.301 44.371 4.281 44.336 1.816 40.039.402 35.058.402 29.758.402 13.543 13.543.402 29.754.402h618.074c2.547-.012 5.149.305 7.734 1 15.661 4.195 24.954 20.293 20.762 35.949-.769 2.868-1.945 5.52-3.429 7.91-.055.098-.098.196-.153.29l-293.101 508.043h-.071l-15.246 26.156c-1.262 2.199-2.828 4.273-4.707 6.152-5.734 5.731-13.242 8.598-20.758 8.598z" /><path id="path3907" style="fill:#040404;fill-opacity:1;fill-rule:nonzero;stroke:none" d="m373.273 279.773c6.356.0 17.254-1.816 29.969-6.359 8.176-2.727 16.352-5.449 19.985-5.449 14.531-1.817 19.98-5.45 19.98-13.625.0-4.539-4.543-13.621-9.082-17.258-5.449-5.449-22.707-19.071-27.25-21.797-1.816-1.816-4.539-3.633-4.539-3.633.0-.906-7.266-5.449-16.348-11.808-14.535-9.083-18.168-13.622-13.625-13.622 3.633.0 39.055 24.524 56.313 39.055 7.265 6.356 9.082 5.449 4.539-3.633-5.449-12.715-26.34-29.972-53.586-42.687-8.176-4.543-9.082-4.543-9.992-9.082-1.817-9.992-.907-10.903 6.359-10.903 3.633-.906 9.992-1.816 14.531-3.632l7.266-2.723 7.266 2.723c5.453 1.816 9.086 4.543 12.718 8.175 2.723 2.727 5.45 5.45 7.266 5.45 2.723.0 8.172-4.543 8.172-8.176.0-3.633-4.539-7.266-9.082-7.266-1.817.0-3.633-.906-3.633-1.816.0-1.817 2.727-3.633 7.266-2.723 7.265.906 11.808-4.543 7.265-9.082-1.816-2.726-6.355-2.726-9.988-.91-1.816.91-2.727.91-3.633-1.816-1.816-1.817-.91-4.54 1.817-4.54 4.539.0 7.265-8.175 3.632-12.718-4.543-6.356-14.531-1.817-14.531 6.359.0.906-1.816.906-4.543.906-11.808-2.722-29.062.0-42.687 6.36l-8.176 3.633-5.449-2.723c-3.633-1.817-7.266-2.727-13.621-3.633-8.176-.91-9.086-.91-9.993-3.637-.91-3.632-.91-3.632.907-3.632 3.632.0 7.269-3.633 6.359-6.356.0-.91-.91-1.816-1.816-1.816.0.0-1.817-.91-2.727-1.817-1.816-1.816-1.816-1.816.0-5.449 1.816-3.633 1.816-3.633.0-5.449-1.816-.91-3.633-1.817-4.539-1.817-2.727.907-3.633-.91-1.816-1.816 1.816-.91.906-4.543-.911-6.359-1.816-1.817-2.722-1.817-7.265 2.726-2.723 1.817-8.172 4.539-14.531 7.266-19.075 6.355-37.239 14.531-49.047 20.887-6.356 3.632-16.348 9.085-21.797 12.718-6.356 2.723-11.809 6.356-12.715 7.266-2.727 3.633-.91 8.172 3.633 10.898 5.449 3.633 4.543 4.539-2.727 4.539-10.898.0-16.347 4.543-16.347 13.625.0 3.633 1.816 5.45 11.808 15.442 21.797 19.98 42.688 36.328 48.137 36.328 1.816.0 4.543 1.816 7.265 3.633 4.543 5.449 7.266 6.359 14.532 8.176 7.265.906 12.715 2.722 48.136 19.98 25.434 12.715 29.973 14.531 31.79 19.074 1.816 1.817 3.632 4.543 5.449 4.543h3.636zm24.52-22.707h-1.816c-1.817-.91-1.817-1.816.91-2.726 5.449-2.723 7.265-11.805 2.722-18.164l-1.816-3.633c2.727.906 9.082 4.539 10.898 6.355 4.543 7.27 2.727 13.625-5.449 17.258-1.816.91-3.633.91-5.449.91zm-30.879-.91c-1.816.0-5.449-1.816-14.531-9.082-29.973-24.523-60.856-45.414-91.735-62.668-4.543-2.727-7.265-4.543-7.265-6.359.0-4.539 1.816-3.633 29.062 12.714 36.332 21.801 88.102 60.856 86.285 64.489-.91.906-.91.906-1.816.906zm22.707.0c-.91.0-1.816.0-2.726-.906-5.45-2.727-9.083-7.266-9.083-10.899.0-5.453.911-8.175 4.543-9.992 4.54-1.816 8.172-2.726 10.899-1.816 1.816.906 1.816.906.906.906-.906.0-3.633 1.816-5.449 4.543-3.633 4.543-3.633 10.898-.906 15.441 1.816 1.817 2.722 2.723 1.816 2.723zm-125.34-32.695c-.906.0-1.816-2.727-2.722-8.176-.911-7.266-8.176-16.348-19.985-26.34-17.254-15.437-19.074-16.348-19.074-19.07.0-2.727 3.637-3.633 4.543.0.0.906 5.449 6.355 11.809 11.804 14.531 10.899 18.164 14.532 21.796 20.891 3.633 6.359 6.36 18.164 4.543 19.981.0.0.0.91-.91.91zM374.18 209.836c-.907.0-2.727-.907-5.45-2.723-4.542-2.727-9.082-7.269-18.164-20.891-14.531-20.89-19.074-24.523-30.882-24.523-7.266.0-9.989.906-16.348 4.543-7.266 3.633-8.176 3.633-11.809 1.816-6.355-2.726-5.449-4.543.911-3.636 4.539.91 6.359.0 10.898-2.723 4.543-2.727 7.266-2.727 13.625-3.633 16.348-.91 20.891 2.723 40.871 31.789 5.449 6.356 9.988 11.805 12.715 13.625l5.449 3.633c.91.906.0.906-.906 1.816.0.907.0.907-.91.907zm-115.348-51.77h-4.543c-16.348.0-19.98-.91-19.98-2.726.0-1.817 3.632-1.817 15.441-1.817 16.348.91 21.797.0 47.227-6.355 19.074-5.449 23.617-8.176 21.8-13.625-1.816-5.449-10.898-9.082-18.164-8.176-13.625.91-23.617 1.816-27.25.91-6.355-2.726-2.722-3.633 8.176-3.633 6.356.0 14.531-.91 19.074-.91 7.266-.906 9.082.0 13.621 1.817 10.899 4.543 11.809 17.257.911 21.8-1.817.907-13.625 4.539-25.434 7.266-17.254 4.539-20.887 5.449-30.879 5.449z" /></g></g></svg>