<svg xmlns:dc="http://purl.org/dc/elements/1.1/" xmlns:cc="http://creativecommons.org/ns#" xmlns:rdf="http://www.w3.org/1999/02/22-rdf-syntax-ns#" xmlns:svg="http://www.w3.org/2000/svg" xmlns="http://www.w3.org/2000/svg" id="svg7283" width="847.15857" height="743.62268" viewBox="0 0 847.15857 743.62268"><defs id="defs7287"><clipPath clipPathUnits="userSpaceOnUse" id="clipEmfPath1"><path d="m0 48.2246h54.8246V0H0V48.2246z" id="path3344" /></clipPath><pattern id="EMFhbasepattern" patternUnits="userSpaceOnUse" width="6" height="6" x="0" y="0" /></defs><g id="g7291" transform="matrix(1.25,0,0,-1.25,0,743.62267)"><g id="g7293"><path d="m338.859 594.5c7.512.0 15.028-2.867 20.758-8.598 1.879-1.879 3.445-3.953 4.707-6.152l15.246-26.157h.071l293.101-508.039c.055-.097.098-.195.153-.293 1.488-2.394 2.656-5.043 3.425-7.91 4.196-15.656-5.097-31.754-20.758-35.949-2.585-.695-5.183-1.012-7.738-1h-618.066c-16.215.0-29.356 13.141-29.356 29.356.0 5.304 1.414 10.281 3.879 14.578.02.031.035.062.051.097l304.367 528.41c3.863 6.665 5.653 9.305 9.406 13.059 5.731 5.731 13.243 8.598 20.754 8.598z" style="fill:#fff;fill-opacity:1;fill-rule:nonzero;stroke:none" id="path7295" /><path d="m338.859 587.144c7.125.051 14.95-3.59 18.782-10.406L666.934 40.847c1.785-3.648 2.535-6.82 2.558-10.449.0-6.496-2.875-12.66-7.847-16.84-4.383-3.394-8.536-5.16-14.122-5.16h-617.906C25.848 8.363 22.07 9.269 18.641 11.531 12.188 15.429 8.238 22.414 8.23 29.957c.184 3.894 1.145 8 2.879 10.89l309.114 535.981c.027.047.058.094.089.14.032.047.063.094.094.145 1.098 1.754 2.473 3.305 4.039 4.633 3.59 3.109 8.086 4.976 12.825 5.316.531.047 1.062.078 1.589.082zM647.523 8.398h1.524-1.555.031zM339.18 480.933 103.477 72.398h471.738l-236.035 408.535z" style="fill:#c1121c;fill-opacity:1;fill-rule:nonzero;stroke:none" id="path7297" /><path d="m338.859 594.898c7.618.0 15.231-2.906 21.039-8.715 1.907-1.902 3.493-4.008 4.774-6.234l15.129-25.957h.07l293.215-508.238c.066-.118.113-.219.16-.301 1.504-2.422 2.684-5.102 3.461-7.996C680.957 21.586 671.535 5.269 655.668 1.015 653.047.312 650.41-.008 647.824.0H29.758C13.328.0.0 13.328.0 29.758c0 5.375 1.438 10.417 3.934 14.773.011.019.027.051.05.098l304.364 528.414c3.871 6.668 5.695 9.363 9.468 13.14 5.809 5.809 13.426 8.715 21.039 8.715h.004zm0-.398c-7.511.0-15.023-2.867-20.754-8.598-3.753-3.754-5.543-6.394-9.406-13.059L4.336 44.433C4.316 44.398 4.301 44.367 4.281 44.336 1.816 40.039.402 35.062.402 29.758.402 13.543 13.543.402 29.758.402h618.066c2.555-.012 5.153.305 7.738 1 15.661 4.195 24.954 20.293 20.758 35.949-.765 2.867-1.937 5.516-3.425 7.91-.055.098-.098.196-.153.293l-293.101 508.039h-.071l-15.246 26.157c-1.262 2.199-2.828 4.273-4.707 6.152-5.73 5.731-13.242 8.598-20.758 8.598z" style="fill:#000;fill-opacity:1;fill-rule:nonzero;stroke:none" id="path7299" /></g></g><g transform="matrix(54.637771,0,0,54.637771,13508.661,-8580.5364)" id="g3369"><path id="path3347" clip-path="url(#clipEmfPath1)" style="fill:none;stroke:none" transform="translate(-247.20807,157.04404)" /><path id="path3355" d="m-239.39763 168.30462.762-.91017c.0423-.0212.0847-.0635.127-.0635l.14817-.0635c.0847-.0212.16933-.0847.23283-.14816l.52914-.61381c.23283-.29633.65617-.3175.93133-.0847.0423.0212.0847.0635.10584.10584l1.37583 1.77797c.0423.0635.0423.14817-.0212.1905-.0212.0212-.0635.0423-.0847.0423h-4.00047c-.0847.0-.127-.0635-.127-.14817.0-.0212.0-.0635.0212-.0847zm1.016-5.1223c0 .27516-.23283.508-.508.508-.27516.0-.508-.23284-.508-.508.0-.27517.23284-.48681.508-.48681.27517.0.508.21164.508.48681zm-2.75166 2.13783.74083-1.397h-.52917l-.3175.59267.3175.27516-.10583.1905-.3175-.254-.14814.27517c-.23283-.127-.3175-.42333-.1905-.635l.38097-.74083c.0635-.10584.16934-.16934.29634-.16934h1.18533c.29633.0.52917.23284.52917.52917.0.0212.0.0212.0.0423l-.127 1.98967 1.24883 1.0583c-.0423.0423-.10583.0847-.1905.127l-1.0795-.91014-.0212.23284c-.254-.0212-.4445-.23284-.42333-.48684v-.10583l-.3175-.254.10583-.1905.23284.16933.0423-.8255-.48683.93134-.8255-.4445zm1.37583 3.2173c-.29633.0-.55033-.23283-.55033-.52916l-.0423-1.12184-.55033-.84663-1.33347 2.49763c-.254-.14816-.35984-.46566-.21167-.74083l1.24881-2.34947.8255.42333.52916.82547c0 .0212.0212.0423.0212.0635" style="fill:#000;fill-opacity:1;fill-rule:nonzero;stroke:none" /></g></svg>