<svg xmlns:dc="http://purl.org/dc/elements/1.1/" xmlns:cc="http://creativecommons.org/ns#" xmlns:rdf="http://www.w3.org/1999/02/22-rdf-syntax-ns#" xmlns:svg="http://www.w3.org/2000/svg" xmlns="http://www.w3.org/2000/svg" viewBox="0 0 847.15857 1758.125" height="1758.125" width="847.15857" id="svg28407"><defs id="defs28411" /><g transform="matrix(1.25,0,0,-1.25,0,1758.125)" id="g28415"><g id="g28417"><path id="path28419" style="fill:#fff;fill-opacity:1;fill-rule:nonzero;stroke:none" d="m338.859 1406.102c7.512.0 15.028-2.868 20.758-8.598 1.879-1.879 3.445-3.953 4.707-6.152l15.246-26.157h.071l293.101-508.039c.055-.097.098-.195.153-.293 1.488-2.394 2.656-5.043 3.425-7.91 4.196-15.656-5.097-31.754-20.758-35.949-2.585-.695-5.183-1.012-7.738-1h-618.066c-16.215.0-29.356 13.141-29.356 29.355.0 5.305 1.414 10.282 3.879 14.579.02.031.035.062.051.097l304.367 528.41c3.863 6.664 5.653 9.305 9.406 13.059 5.731 5.73 13.243 8.598 20.754 8.598z" /><path id="path28421" style="fill:#c1121c;fill-opacity:1;fill-rule:nonzero;stroke:none" d="m338.859 1398.746c7.125.051 14.95-3.59 18.782-10.406L666.934 852.449c1.785-3.648 2.535-6.82 2.558-10.449.0-6.496-2.875-12.66-7.847-16.84-4.383-3.394-8.536-5.16-14.122-5.16h-617.906c-3.769-.035-7.547.871-10.976 3.133-6.453 3.898-10.403 10.883-10.411 18.426.184 3.894 1.145 8 2.879 10.89l309.114 535.981c.027.047.058.093.089.14.032.047.063.094.094.145 1.098 1.754 2.473 3.305 4.039 4.633 3.59 3.109 8.086 4.976 12.825 5.316.531.047 1.062.078 1.589.082zM647.523 820h1.524-1.555.031zM339.18 1292.535 103.477 884H575.215L339.18 1292.535z" /><path id="path28423" style="fill:#000;fill-opacity:1;fill-rule:nonzero;stroke:none" d="m338.859 1406.5c7.618.0 15.231-2.906 21.039-8.715 1.907-1.902 3.493-4.008 4.774-6.234l15.129-25.957h.07l293.215-508.239c.066-.117.113-.218.16-.3 1.504-2.422 2.684-5.102 3.461-7.996 4.25-15.871-5.172-32.188-21.039-36.442-2.621-.703-5.258-1.023-7.844-1.015h-618.066C13.328 811.602.0 824.93.0 841.359c0 5.375 1.438 10.418 3.934 14.774.011.019.027.051.05.097l304.364 528.415c3.871 6.667 5.695 9.363 9.468 13.14 5.809 5.809 13.426 8.715 21.039 8.715h.008-.004zm0-.398c-7.511.0-15.023-2.868-20.754-8.598-3.753-3.754-5.543-6.395-9.406-13.059L4.336 856.035C4.316 856 4.301 855.969 4.281 855.938 1.816 851.641.402 846.664.402 841.359c0-16.214 13.141-29.355 29.356-29.355h618.066c2.555-.012 5.153.305 7.738 1 15.661 4.195 24.954 20.293 20.758 35.949-.765 2.867-1.937 5.516-3.425 7.91-.055.098-.098.196-.153.293l-293.101 508.039h-.071l-15.246 26.157c-1.262 2.199-2.828 4.273-4.707 6.152-5.73 5.73-13.242 8.598-20.758 8.598z" /><path id="path28425" style="fill:#000;fill-opacity:1;fill-rule:nonzero;stroke:none" d="m262.961 932.77c-17.906.0-32.434 14.546-32.434 32.449v.386l.629 53.004c.032 2.621.309 5.211.817 7.766l3.312 16.996c.527 2.684 1.297 5.317 2.328 7.828l15.75 39.172c1.649 4.098 5.606 6.777 10.028 6.777h47.398c-2.894 11.047-11.894 19.461-23.113 21.618h-14.281c-1.805.0-3.254 1.464-3.254 3.269.0 1.77 1.449 3.235 3.254 3.235h86.503c1.786.0 3.25-1.465 3.25-3.235.0-1.805-1.464-3.269-3.25-3.269h-14.3c-11.219-2.157-20.2-10.571-23.114-21.618h26.598c10.555.0 20.137-6.132 24.543-15.714l5.133-11.098c23.652-51.277 72.297-86.578 128.387-93.16l.816-.09c1.91-.234 3.344-1.852 3.344-3.762v-35.148c0-2.988-2.438-5.406-5.41-5.406H262.961zm-32.836-32.454v16.227h21.633v10.832h32.437v-10.832h48.66v10.832h178.45v-10.832c-58.063.0-110.59-6.363-133.813-16.227" /><path id="path28427" style="fill:#fff;fill-opacity:1;fill-rule:nonzero;stroke:none" d="m303.484 1118.766c6.258-4.575 10.864-11.063 13.161-18.457 2.296 7.394 6.902 13.882 13.16 18.457h-26.321zm193.75-145.903c2.883-.449 5.75-.816 8.661-1.125v-19.308c-2.895.199-5.778.449-8.661.711v19.722zm-16.222 3.235c3.574-.879 7.195-1.649 10.832-2.313v-20.062c-3.621.418-7.227.91-10.832 1.465v20.91zM461.547 982c4.269-1.559 8.601-2.957 12.976-4.207v-21.527c-4.347.789-8.675 1.664-12.976 2.621V982zm-22.711 10.047c4.93-2.59 9.984-4.961 15.148-7.106v-24.238c-5.117 1.313-10.156 2.746-15.148 4.332v27.012zm-25.949 16.641c5.515-4.239 11.297-8.168 17.304-11.774V967.93c-5.886 2.097-11.664 4.363-17.304 6.812v33.946zm-29.215 28.535c5.902-7.301 12.406-14.161 19.476-20.461v-37.535c-5.824 2.851-11.507 5.886-17.011 9.105l-2.465 48.891zm-126.75 42.976c1.016 2.418 3.359 3.977 5.976 3.977h83.7c2.621.0 4.98-1.559 5.98-3.977l12.543-30.277c1.387-3.297-.168-7.106-3.469-8.492-.785-.336-1.648-.524-2.511-.524h-108.786c-3.589.0-6.484 2.914-6.484 6.489.0.878.168 1.726.508 2.527l12.543 30.277zm97.582-93.359c0-5.965-4.852-10.805-10.832-10.805-5.965.0-10.801 4.84-10.801 10.805.0 5.976 4.836 10.816 10.801 10.816 5.98.0 10.832-4.84 10.832-10.816zm-86.52.0c0-5.965-4.855-10.805-10.816-10.805-5.98.0-10.816 4.84-10.816 10.805.0 5.976 4.836 10.816 10.816 10.816 5.961.0 10.816-4.84 10.816-10.816" /><path id="path28429" style="fill:#fff;fill-opacity:1;fill-rule:nonzero;stroke:none" d="m426.859.391c17.668.0 32.016 14.316 32.016 32.004v735.992c0 17.691-14.348 32.004-32.016 32.004H250.855c-17.667.0-32.003-14.313-32.003-32.004v-735.992c0-17.688 14.336-32.004 32.003-32.004" /><path id="path28431" style="fill:#000;fill-opacity:1;fill-rule:nonzero;stroke:none" d="m426.859 800.805c17.864.0 32.403-14.535 32.403-32.418v-735.992C459.262 14.531 444.723.0 426.859.0H250.855c-17.863.0-32.39 14.531-32.39 32.395v735.992c0 17.883 14.527 32.418 32.39 32.418h176.004zm0-.414H250.855c-17.667.0-32.003-14.313-32.003-32.004v-735.992c0-17.688 14.336-32.004 32.003-32.004h176.004c17.668.0 32.016 14.316 32.016 32.004v735.992c0 17.691-14.348 32.004-32.016 32.004z" /><path id="path28433" style="fill:#000;fill-opacity:1;fill-rule:nonzero;stroke:none" d="m238.848 32.395c0-6.622 5.375-12 12.007-12h176.004c6.633.0 11.993 5.378 11.993 12v735.992c0 6.636-5.36 12.015-11.993 12.015h-176.004c-6.632.0-12.007-5.379-12.007-12.015v-735.992zm12.007 760.007h176.004c13.246.0 24.004-10.75 24.004-24.015v-735.992c0-13.254-10.758-23.993-24.004-23.993h-176.004c-13.253.0-23.992 10.739-23.992 23.993v735.992c0 13.265 10.739 24.015 23.992 24.015" /><path id="path28435" style="fill:#c1121c;fill-opacity:1;fill-rule:nonzero;stroke:none" d="m438.852 400.918v84.008l-200.004 115.472v-84.003l200.004-115.477zm0-175.996v84.004l-200.004 115.457v-83.988l200.004-115.473zm0-176v84l-200.004 115.48v-84.011" /></g></g></svg>