<svg xmlns:dc="http://purl.org/dc/elements/1.1/" xmlns:cc="http://creativecommons.org/ns#" xmlns:rdf="http://www.w3.org/1999/02/22-rdf-syntax-ns#" xmlns:svg="http://www.w3.org/2000/svg" xmlns="http://www.w3.org/2000/svg" viewBox="0 0 847.15851 743.62274" height="743.62274" width="847.15851" id="svg4494"><defs id="defs4498" /><g transform="matrix(1.25,0,0,-1.25,0,743.62274)" id="g4502"><g id="g4504"><path id="path4506" style="fill:#fff;fill-opacity:1;fill-rule:nonzero;stroke:none" d="m338.867 594.5c-7.512.0-15.023-2.867-20.758-8.598-1.879-1.879-3.445-3.953-4.707-6.152l-15.246-26.156h-.07L4.984 45.551C4.93 45.457 4.887 45.359 4.832 45.261 3.348 42.871 2.176 40.219 1.402 37.351-2.789 21.695 6.504 5.597 22.164 1.402c2.586-.695 5.188-1.012 7.734-1h618.075c16.211.0 29.351 13.141 29.351 29.356.0 5.3-1.414 10.281-3.879 14.578-.019.035-.039.062-.05.097L369.023 572.844c-3.859 6.664-5.648 9.304-9.402 13.058-5.73 5.731-13.242 8.598-20.754 8.598z" /><path id="path4508" style="fill:#c1121c;fill-opacity:1;fill-rule:nonzero;stroke:none" d="m338.867 587.144c-7.125.051-14.949-3.593-18.781-10.402L10.793 40.847C9.008 37.199 8.258 34.027 8.234 30.398c0-6.496 2.875-12.66 7.848-16.844 4.387-3.39 8.535-5.156 14.121-5.156h617.906c3.77-.035 7.547.871 10.981 3.133 6.445 3.895 10.398 10.883 10.406 18.426-.183 3.894-1.144 8-2.879 10.89L357.504 576.828c-.027.047-.059.094-.09.141-.031.046-.062.089-.094.144-1.093 1.758-2.468 3.305-4.043 4.633-3.586 3.109-8.082 4.976-12.82 5.312-.531.051-1.062.082-1.59.086zM30.203 8.398H28.68h1.554-.031zM338.547 480.929 574.25 72.398H102.512l236.035 408.531z" /><path id="path4510" style="fill:#000;fill-opacity:1;fill-rule:nonzero;stroke:none" d="m338.867 594.898c-7.617.0-15.23-2.906-21.039-8.719-1.906-1.898-3.492-4.007-4.773-6.23l-15.129-25.957h-.071L4.641 45.754C4.574 45.636 4.523 45.535 4.48 45.453 2.977 43.031 1.797 40.351 1.02 37.457-3.23 21.586 6.191 5.269 22.059 1.015 24.68.312 27.316-.008 29.898.0h618.075c16.425.0 29.754 13.328 29.754 29.758.0 5.375-1.438 10.414-3.934 14.773-.016.016-.027.051-.051.098L369.379 573.043c-3.871 6.668-5.695 9.363-9.469 13.136-5.808 5.813-13.426 8.719-21.039 8.719h-.004zm0-.398c7.512.0 15.024-2.867 20.754-8.598 3.754-3.754 5.543-6.394 9.402-13.058L673.391 44.433c.015-.035.035-.062.054-.097 2.465-4.297 3.879-9.278 3.879-14.578.0-16.215-13.14-29.356-29.351-29.356h-618.075C27.352.39 24.75.707 22.164 1.402 6.504 5.597-2.789 21.695 1.402 37.351c.77 2.868 1.946 5.52 3.43 7.91.055.098.098.196.152.29l293.102 508.043h.07l15.246 26.156c1.262 2.199 2.828 4.273 4.707 6.152 5.735 5.731 13.243 8.598 20.758 8.598z" /><path id="path4512" style="fill:#000;fill-opacity:1;fill-rule:evenodd;stroke:none" d="m231.332 146.562h96.109l.036 87.098c0 3.035-4.356 8.043-7.899 8.043l-80.34-.074c-3.675.0-7.84-4.543-7.84-7.668l-.066-87.399z" /><path id="path4514" style="fill:#000;fill-opacity:1;fill-rule:evenodd;stroke:none" d="m232.793 144.855h10.992l1.328-2.008.039-28.214-2.058-2.004-9.926-.125-1.703 1.711.082 29.25 1.246 1.39z" /><path id="path4516" style="fill:#000;fill-opacity:1;fill-rule:evenodd;stroke:none" d="m248.824 144.66-1.25-1.387-.086-29.25 1.711-1.715 9.922.121 2.07 2.008-.015 9.239 1.133 1.187 7.828.043.011-.367 1.094.023c.031-.781 4.375-4.765 8.375-4.765v.027c4 .008 8.321 3.969 8.352 4.754l1.097-.027.024.375 7.832-.047 1.078-1.129-.023-9.727 1.703-1.715 9.922.121 2.062 2.008-.047 28.215-1.328 2.008h-10.988l-1.254-1.387-.02-9.242-1.57-1.613-7.379.023.012.375-1.192.016c0 1.121-4.281 4.691-8.293 4.691v-.015c-4.003-.004-8.277-3.582-8.277-4.704h-1.191v-.386l-7.383-.012-1.606 1.652-.007 8.594-1.328 2.008h-10.989z" /><path id="path4518" style="fill:#000;fill-opacity:1;fill-rule:evenodd;stroke:none" d="m315.203 144.89h10.996l1.328-2.007.039-28.211-2.062-2.008-9.926-.125-1.699 1.711.082 29.254 1.242 1.386z" /><path id="path4520" style="fill:#000;fill-opacity:1;fill-rule:nonzero;stroke:none" d="m272.488 247.949c-3.047 8.746 2.321 13.328 7.91 17.801-4.441 11.98.04 20.211 13.352 24.726-3.543 10.836-2.273 20.02 12.738 24.457.754 12.438 6.254 22.871 27.809 16.586 4.844 22.629 31.715 18.18 35.605-1.484 5.426 5.641 24.18 1.547 23.735-15.824 6.023-.821 13.222-4.371 15.328-16.317 8.816-.449 24.867-4.867 17.308-29.175 10.731-2.997 24.563-22.243.493-34.122 5.246-15.937-.489-25.593-17.801-26.207-3.758-14.101-15.047-17.839-28.68-11.867-.695-4.031-3.707-6.168-8.402-6.922l12.855-72.695h-25.715l.989 73.188c-4.473 1.367-8.121 3.304-7.914 7.914-6.59-1.645-13.184-2.278-19.778 1.48v37.582c0 5.336-6.691 10.629-10.632 10.629l-49.2.25z" /><path id="path4522" style="fill:#000;fill-opacity:1;fill-rule:nonzero;stroke:none" d="m211.418 112.566h133.055v-6.699H211.418v6.699z" /><path id="path4524" style="fill:#000;fill-opacity:1;fill-rule:nonzero;stroke:none" d="m347.629 112.586h9.301v-6.7h-9.336l.035 6.7z" /><path id="path4526" style="fill:#000;fill-opacity:1;fill-rule:nonzero;stroke:none" d="m360.02 112.586h9.304v-6.7h-9.336l.032 6.7z" /><path id="path4528" style="fill:#000;fill-opacity:1;fill-rule:nonzero;stroke:none" d="m372.488 112.586h9.305v-6.7h-9.336l.031 6.7z" /><path id="path4530" style="fill:#000;fill-opacity:1;fill-rule:nonzero;stroke:none" d="m384.953 112.586h9.305v-6.7h-9.336l.031 6.7z" /><path id="path4532" style="fill:#000;fill-opacity:1;fill-rule:nonzero;stroke:none" d="m397.422 112.586h9.305v-6.7h-9.336l.031 6.7z" /><path id="path4534" style="fill:#000;fill-opacity:1;fill-rule:nonzero;stroke:none" d="m422.387 112.586h9.308v-6.7h-9.336l.028 6.7z" /><path id="path4536" style="fill:#000;fill-opacity:1;fill-rule:nonzero;stroke:none" d="m409.867 112.586h9.309v-6.7h-9.336l.027 6.7z" /></g></g></svg>