<svg xmlns:dc="http://purl.org/dc/elements/1.1/" xmlns:cc="http://creativecommons.org/ns#" xmlns:rdf="http://www.w3.org/1999/02/22-rdf-syntax-ns#" xmlns:svg="http://www.w3.org/2000/svg" xmlns="http://www.w3.org/2000/svg" viewBox="0 0 847.15851 743.62274" height="743.62274" width="847.15851" id="svg3615"><defs id="defs3619" /><g transform="matrix(1.25,0,0,-1.25,0,743.62274)" id="g3623"><g id="g3625"><path id="path3627" style="fill:#fff;fill-opacity:1;fill-rule:nonzero;stroke:none" d="m338.859 594.5c7.512.0 15.024-2.867 20.758-8.598 1.879-1.879 3.445-3.953 4.707-6.152l15.246-26.156h.071l293.101-508.043c.055-.094.098-.192.153-.29 1.484-2.39 2.656-5.042 3.429-7.91 4.192-15.656-5.101-31.754-20.762-35.949-2.585-.695-5.187-1.012-7.734-1h-618.074c-16.211.0-29.352 13.141-29.352 29.356.0 5.3 1.414 10.281 3.879 14.578.02.035.039.062.051.097l304.371 528.411c3.859 6.664 5.649 9.304 9.402 13.058 5.731 5.731 13.243 8.598 20.754 8.598z" /><path id="path3629" style="fill:#c1121c;fill-opacity:1;fill-rule:nonzero;stroke:none" d="m338.859 587.144c7.125.051 14.95-3.593 18.782-10.402L666.934 40.847c1.785-3.648 2.535-6.82 2.558-10.449.0-6.496-2.875-12.66-7.847-16.844-4.387-3.39-8.536-5.156-14.122-5.156h-617.906C25.848 8.363 22.07 9.269 18.637 11.531 12.191 15.426 8.238 22.414 8.23 29.957c.184 3.894 1.145 8 2.879 10.89l309.114 535.981c.027.047.058.094.089.141.032.046.063.089.094.144 1.094 1.758 2.469 3.305 4.043 4.633 3.586 3.109 8.082 4.976 12.821 5.312.531.051 1.062.082 1.589.086zM647.523 8.398h1.524-1.555.031zM339.18 480.929 103.477 72.398h471.738l-236.035 408.531z" /><path id="path3631" style="fill:#000;fill-opacity:1;fill-rule:nonzero;stroke:none" d="m338.859 594.898c7.618.0 15.231-2.906 21.039-8.719 1.907-1.898 3.493-4.007 4.774-6.23l15.129-25.957h.07l293.215-508.238c.066-.118.117-.219.16-.301 1.504-2.422 2.684-5.102 3.461-7.996C680.957 21.586 671.535 5.269 655.668 1.015 653.047.312 650.41-.008 647.828.0H29.754C13.328.0.0 13.328.0 29.758c0 5.375 1.438 10.414 3.934 14.773.015.016.027.051.05.098l304.364 528.414c3.871 6.668 5.695 9.363 9.468 13.136 5.809 5.813 13.426 8.719 21.039 8.719h.004zm0-.398c-7.511.0-15.023-2.867-20.754-8.598-3.753-3.754-5.543-6.394-9.402-13.058L4.336 44.433C4.32 44.398 4.301 44.371 4.281 44.336 1.816 40.039.402 35.058.402 29.758.402 13.543 13.543.402 29.754.402h618.074c2.547-.012 5.149.305 7.734 1 15.661 4.195 24.954 20.293 20.762 35.949-.769 2.868-1.945 5.52-3.429 7.91-.055.098-.098.196-.153.29l-293.101 508.043h-.071l-15.246 26.156c-1.262 2.199-2.828 4.273-4.707 6.152-5.734 5.731-13.242 8.598-20.758 8.598z" /><path id="path3633" style="fill:#000;fill-opacity:1;fill-rule:evenodd;stroke:none" d="m467.668 209.308c-1.309 3.313-25.203 27.012-38.973 39.586l23.957 12.25-31.543.059-9.41-10.031-8.277 8.226c-3.254-3.129-3.231-10.531-.121-18.492l-41.156-5.648-134.442.082c-2.828-1.547-10.148-.172-13.492-14.493l-.07-54.812-4.082-5.106c2.214-6.558 4.281-13.304 7.117-19.089 2.89 5.14 5.004 12.05 5.437 21.453l.086 58.593c2.653 4.032 5.785 6.532 10.395 4.375-1.918-3.257-3.621-6.625-3.438-11.011l-.062-124.762 15.363-.062c-7.473 18.804-2.781 37.543 12.008 54.875l23.527-54.911h14.594c-4.996 8.145-10.809 14.981-11.898 29.371.238 14.356 2.136 27.571 11.144 35.918l43.594-7.613-4.582-57.617 14.816-.043c-5.449 16.996.461 38.234 10.871 50.395l6.614-50.411 15.359.036c-20.84 53.652 10.898 80.351 34.238 108.171l41.5.047c5.324 1.309 8.356 5.68 10.926 10.664z" /></g></g></svg>