<svg xmlns:dc="http://purl.org/dc/elements/1.1/" xmlns:cc="http://creativecommons.org/ns#" xmlns:rdf="http://www.w3.org/1999/02/22-rdf-syntax-ns#" xmlns:svg="http://www.w3.org/2000/svg" xmlns="http://www.w3.org/2000/svg" viewBox="0 0 847.15851 743.62274" height="743.62274" width="847.15851" id="svg4622"><defs id="defs4626" /><g transform="matrix(1.3333333,0,0,-1.3333333,0,743.62272)" id="g4630"><g id="g4632"><path id="path4634" style="fill:#fff;fill-opacity:1;fill-rule:nonzero;stroke:none" d="m317.688 557.342c-7.043.0-14.086-2.687-19.461-8.059-1.762-1.761-3.231-3.707-4.414-5.769l-14.293-24.52h-.063L4.672 42.705C4.621 42.615 4.582 42.526 4.531 42.432 3.137 40.19 2.039 37.705 1.316 35.018-2.613 20.338 6.098 5.248 20.777 1.315 23.203.662 25.641.365 28.031.377h579.442c15.199.0 27.519 12.321 27.519 27.52.0 4.972-1.328 9.64-3.637 13.668-.019.031-.035.058-.046.09L345.961 537.041c-3.621 6.246-5.297 8.723-8.816 12.242-5.372 5.372-12.415 8.059-19.457 8.059z" /><path id="path4636" style="fill:#c1121c;fill-opacity:1;fill-rule:nonzero;stroke:none" d="m317.688 550.448c-6.68.046-14.016-3.368-17.606-9.754L10.117 38.295C8.445 34.873 7.742 31.901 7.719 28.498c0-6.09 2.695-11.867 7.359-15.789 4.11-3.179 8-4.836 13.238-4.836h579.286c3.535-.031 7.074.817 10.293 2.938 6.046 3.652 9.75 10.203 9.757 17.273-.172 3.653-1.074 7.5-2.699 10.211L335.16 540.776c-.027.043-.055.089-.086.132-.027.043-.058.086-.086.137-1.027 1.645-2.316 3.098-3.789 4.34-3.363 2.918-7.578 4.668-12.019 4.984-.5.047-.996.075-1.492.079zM28.316 7.873h-1.429 1.457zm289.071 443 220.972-383H96.105z" /><path id="path4638" style="fill:#000;fill-opacity:1;fill-rule:nonzero;stroke:none" d="m317.688 557.717c-7.141.0-14.278-2.723-19.723-8.172-1.789-1.781-3.274-3.758-4.477-5.844l-14.183-24.332h-.067L4.352 42.893C4.289 42.783 4.242 42.69 4.199 42.612 2.789 40.342 1.684 37.83.957 35.115-3.027 20.237 5.805 4.94 20.68.951c2.457-.66 4.929-.957 7.351-.953h579.442c15.402.0 27.894 12.496 27.894 27.899.0 5.039-1.347 9.765-3.687 13.851-.012.016-.024.047-.047.09l-285.34 495.391c-3.629 6.25-5.34 8.777-8.879 12.316-5.445 5.449-12.586 8.172-19.723 8.172zm0-.375c7.042.0 14.085-2.687 19.457-8.059 3.519-3.519 5.195-5.996 8.816-12.242L631.305 41.655c.015-.032.031-.059.05-.09 2.309-4.028 3.637-8.696 3.637-13.668.0-15.199-12.32-27.52-27.519-27.52H28.031C25.641.365 23.203.662 20.777 1.315 6.098 5.248-2.613 20.338 1.316 35.018c.719 2.687 1.821 5.172 3.215 7.414.051.094.09.183.141.273l274.785 476.289h.063l14.293 24.52c1.183 2.062 2.652 4.008 4.414 5.769 5.375 5.372 12.414 8.059 19.461 8.059z" /><path id="path4640" style="fill:#000;fill-opacity:1;fill-rule:nonzero;stroke:none" d="m283.68 96.162 17.285-9.968 11.848 100.386 60.316-31.347 3.309-34.2 10.375-6.003 11.054 35.125 24.899 27.156-10.375 5.988-31.278-14.234-57.3 36.539 81.011 60.472-17.289 9.969-103.972-45.262c-9.836 5.915-19.735 11.762-29.672 17.5-12.411 7.165-25.391 7.957-28.981 1.754-3.586-6.238 3.59-17.074 16.004-24.234 9.957-5.742 19.938-11.402 29.992-16.941" /></g></g></svg>