<?xml version="1.0" encoding="utf-8"?>
<!-- Generator: Adobe Illustrator 23.0.1, SVG Export Plug-In . SVG Version: 6.00 Build 0)  -->
<svg version="1.1"
	 id="svg15244" xmlns:cc="http://creativecommons.org/ns#" xmlns:dc="http://purl.org/dc/elements/1.1/" xmlns:rdf="http://www.w3.org/1999/02/22-rdf-syntax-ns#" xmlns:svg="http://www.w3.org/2000/svg"
	 xmlns="http://www.w3.org/2000/svg" xmlns:xlink="http://www.w3.org/1999/xlink" x="0px" y="0px" viewBox="0 0 653.8 1502.6"
	 style="enable-background:new 0 0 653.8 1502.6;" xml:space="preserve">
<style type="text/css">
	.st0{clip-path:url(#SVGID_2_);}
	.st1{clip-path:url(#SVGID_4_);fill:#FFFFFF;}
	.st2{clip-path:url(#SVGID_2_);fill:#154889;}
	.st3{clip-path:url(#SVGID_6_);}
	.st4{clip-path:url(#SVGID_8_);}
	.st5{fill:#FFFFFF;}
</style>
<g>
	<defs>
		<rect id="SVGID_1_" x="1.3" y="0.1" width="651.3" height="1501.3"/>
	</defs>
	<clipPath id="SVGID_2_">
		<use xlink:href="#SVGID_1_"  style="overflow:visible;"/>
	</clipPath>
	<g class="st0">
		<defs>
			<rect id="SVGID_3_" x="1.3" y="0.1" width="651.3" height="1501.3"/>
		</defs>
		<clipPath id="SVGID_4_">
			<use xlink:href="#SVGID_3_"  style="overflow:visible;"/>
		</clipPath>
		<path id="path15312" class="st1" d="M64.4,0.7c-34.5,0-62.5,28-62.5,62.5v1375c0,34.5,28,62.5,62.5,62.5h528.1
			c34.5,0,59.4-28,59.4-62.5V63.2c0-34.5-24.9-62.5-59.4-62.5H64.4L64.4,0.7z"/>
	</g>
	<path id="path15314" class="st2" d="M64.4,25.7c-19.4,0-37.5,18.1-37.5,37.5v641.1l600-346.4V63.2c0-19.4-15-37.5-34.4-37.5H64.4
		L64.4,25.7z M626.9,1050.7c-200,115.4-400,230.9-600,346.4v41.1c0,19.4,18.1,37.5,37.5,37.5h528.1c19.4,0,34.4-18.1,34.4-37.5
		V1050.7z"/>
	<path id="path15316" class="st2" d="M626.5,773.8L26.9,1120v138.6l599.7-346.2V773.8z"/>
	<path id="path15318" class="st2" d="M626.5,496.7L26.9,842.9v138.6l599.7-346.2V496.7L626.5,496.7z"/>
</g>
<g>
	<defs>
		<rect id="SVGID_5_" y="0.1" width="653.8" height="1502.5"/>
	</defs>
	<clipPath id="SVGID_6_">
		<use xlink:href="#SVGID_5_"  style="overflow:visible;"/>
	</clipPath>
	<g class="st3">
		<defs>
			<rect id="SVGID_7_" y="0.1" width="653.8" height="1502.5"/>
		</defs>
		<clipPath id="SVGID_8_">
			<use xlink:href="#SVGID_7_"  style="overflow:visible;"/>
		</clipPath>
		<path id="path15340" class="st4" d="M64.4,0C29.4,0,1.1,28.3,1.1,63.2v1375c0,34.9,28.3,63.2,63.2,63.2h528.1
			c34.9,0,60.1-28.4,60.1-63.2V63.2c0-34.9-25.2-63.2-60.1-63.2H64.4L64.4,0z M64.4,0.7h528.1c34.5,0,59.4,28,59.4,62.5v1375
			c0,34.5-24.9,62.5-59.4,62.5H64.4c-34.5,0-62.5-28-62.5-62.5V63.2C1.9,28.7,29.8,0.7,64.4,0.7L64.4,0.7z"/>
	</g>
</g>
<path id="path15474" class="st5" d="M395.2,452.5v-63.2c0-11.1-2.9-20.5-10.5-27.9c-5.8-5.6-14.8-9-25-9c-13.1,0-23,4.7-31,14.4
	c-6.2-9.6-15.8-14.4-28.1-14.4c-9.9,0-19.7,3.9-26.3,11.1v-9.9h-19.5v98.8h19.9v-60.2c0-15.2,9.4-22,20.5-22
	c11.1,0,19.9,6.6,19.9,22v60.2H335v-61.2c0-14.2,9.7-21,20.5-21c11.1,0,19.9,6.6,19.9,22v60.2H395.2L395.2,452.5z"/>
<path id="path15476" class="st5" d="M381.7,234.4c0,7.1-1.4,13.9-4.2,20.3c-2.8,6.2-6.5,11.7-11.2,16.4c-4.7,4.7-10.2,8.4-16.7,11.2
	c-6.2,2.8-12.9,4.2-20,4.2c-7.3,0-14.1-1.4-20.6-4.2c-6.2-2.8-11.7-6.5-16.4-11.2c-4.7-4.7-8.4-10.2-11.2-16.4
	c-2.6-6.4-3.9-13.2-3.9-20.3v-85.9c0-7.1,1.3-13.8,3.9-20c2.8-6.4,6.5-12,11.2-16.7c4.7-4.7,10.2-8.4,16.4-11.2
	c6.4-2.8,13.3-4.2,20.6-4.2c7.1,0,13.8,1.4,20,4.2c6.4,2.8,12,6.5,16.7,11.2c4.7,4.7,8.4,10.2,11.2,16.7c2.8,6.2,4.2,12.9,4.2,20
	V234.4z M329.7,122.5c-7.3,0-13.4,2.5-18.5,7.5c-5,5-7.5,11.2-7.5,18.5v85.9c0,7.3,2.5,13.4,7.5,18.5c5,5,11.2,7.5,18.5,7.5
	c7.3,0,13.4-2.5,18.5-7.5c5-5,7.5-11.2,7.5-18.5v-85.9c0-7.3-2.5-13.4-7.5-18.5C343.1,125,337,122.5,329.7,122.5z"/>
<path id="path15478" class="st5" d="M512.4,234.4c0,7.1-1.4,13.9-4.2,20.3c-2.8,6.2-6.5,11.7-11.2,16.4c-4.7,4.7-10.2,8.4-16.7,11.2
	c-6.2,2.8-12.9,4.2-20,4.2c-7.3,0-14.1-1.4-20.6-4.2c-6.2-2.8-11.7-6.5-16.4-11.2c-4.7-4.7-8.4-10.2-11.2-16.4
	c-2.6-6.4-3.9-13.2-3.9-20.3v-85.9c0-7.1,1.3-13.8,3.9-20c2.8-6.4,6.5-12,11.2-16.7c4.7-4.7,10.2-8.4,16.4-11.2
	c6.4-2.8,13.3-4.2,20.6-4.2c7.1,0,13.8,1.4,20,4.2c6.4,2.8,12,6.5,16.7,11.2c4.7,4.7,8.4,10.2,11.2,16.7c2.8,6.2,4.2,12.9,4.2,20
	V234.4z M460.3,122.5c-7.3,0-13.4,2.5-18.5,7.5c-5,5-7.5,11.2-7.5,18.5v85.9c0,7.3,2.5,13.4,7.5,18.5c5,5,11.2,7.5,18.5,7.5
	c7.3,0,13.4-2.5,18.5-7.5c5-5,7.5-11.2,7.5-18.5v-85.9c0-7.3-2.5-13.4-7.5-18.5C473.8,125,467.6,122.5,460.3,122.5z"/>
<path id="path15480" class="st5" d="M184,177.1h9.2c8.9,0,15.9-2.4,20.9-7.3c5.2-5.1,7.9-11.4,7.9-19.1c0-3.8-0.7-7.3-2.1-10.5
	c-1.4-3.3-3.4-6.2-6-8.6c-2.4-2.4-5.3-4.4-8.6-5.8c-3.3-1.4-6.8-2.1-10.5-2.1c-5.6,0-10.9,1.8-16,5.5c-5.1,3.7-8.3,9.3-9.7,17h-26.7
	c0.5-6.6,2.3-12.9,5.2-18.8c3-5.9,6.7-11.2,11.3-15.7c4.7-4.5,10-8.1,16-10.7c5.9-2.6,12.2-3.9,18.8-3.9c8.4,0,15.9,1.5,22.5,4.4
	c6.8,3,12.6,7,17.3,12c4.9,4.9,8.6,10.6,11.3,17c2.6,6.3,3.9,12.8,3.9,19.6c0,7.2-1.4,14.1-4.2,20.9c-2.6,6.6-7.9,12.5-15.7,17.5
	c7.9,5.1,13.4,11.3,16.7,18.6c3.5,7.2,5.2,14.6,5.2,22.2c0,8.7-1.5,16.6-4.4,23.5c-2.8,7-6.8,13-12,18.1
	c-5.1,4.9-11.1,8.7-18.1,11.5c-6.8,2.6-14.1,3.9-22,3.9c-6.3,0-12.4-1-18.3-3.1c-5.8-2.1-11-5.1-15.7-9.2c-4.7-4-8.7-9-12-14.9
	c-3.3-5.9-5.6-12.8-6.8-20.7H168c2.4,6.5,5.8,11.6,9.9,15.4c4.2,3.8,10.1,5.8,17.8,5.8c3.7,0,7.2-0.7,10.5-2.1
	c3.5-1.4,6.5-3.3,9.2-5.8c2.6-2.6,4.7-5.8,6.3-9.4c1.6-3.7,2.4-7.8,2.4-12.3c0-9.4-2.9-16.7-8.6-21.7c-5.6-5.2-12.3-7.9-20.2-7.9
	H184L184,177.1L184,177.1z"/>
</svg>
