<?xml version="1.0" encoding="utf-8"?>
<!-- Generator: Adobe Illustrator 22.0.1, SVG Export Plug-In . SVG Version: 6.00 Build 0)  -->
<svg version="1.1"
	 id="svg19708" xmlns:cc="http://creativecommons.org/ns#" xmlns:dc="http://purl.org/dc/elements/1.1/" xmlns:rdf="http://www.w3.org/1999/02/22-rdf-syntax-ns#" xmlns:svg="http://www.w3.org/2000/svg"
	 xmlns="http://www.w3.org/2000/svg" xmlns:xlink="http://www.w3.org/1999/xlink" x="0px" y="0px" viewBox="0 0 651.3 1501.3"
	 style="enable-background:new 0 0 651.3 1501.3;" xml:space="preserve">
<style type="text/css">
	.st0{fill:none;}
	.st1{clip-path:url(#SVGID_2_);fill:#F0C900;}
</style>
<g id="g19718">
</g>
<rect y="0" class="st0" width="651.3" height="1501.3"/>
<g id="g19730">
	<defs>
		<rect id="SVGID_1_" width="651.3" height="1501.3"/>
	</defs>
	<clipPath id="SVGID_2_">
		<use xlink:href="#SVGID_1_"  style="overflow:visible;"/>
	</clipPath>
	<path id="path19740" class="st1" d="M63.1,0.7c-34.5,0-62.5,28-62.5,62.5v1375c0,34.5,28,62.5,62.5,62.5h528.1
		c34.5,0,59.4-28,59.4-62.5V63.2c0-34.5-24.9-62.5-59.4-62.5H63.1L63.1,0.7z"/>
</g>
<path id="path19742" d="M625.3,358L25.6,704.3v138.6l599.7-346.2l0,0V358z M625.3,635.2L25.6,981.4v138.5l599.7-346.2v0l0,0
	C625.3,666.4,625.3,635.2,625.3,635.2L625.3,635.2z M625.3,912.3l-3.7,2.2l-596,344.1v138.6c0,0,399.8-230.8,599.7-346.2V912.3
	L625.3,912.3z"/>
<path id="path19894" d="M394,452.5v-63.2c0-11.1-2.9-20.5-10.5-27.9c-5.8-5.6-14.8-9-25-9c-13.1,0-23,4.7-31,14.4
	c-6.2-9.6-15.8-14.4-28.1-14.4c-9.9,0-19.7,3.9-26.3,11.1v-9.9h-19.5v98.8h19.9v-60.2c0-15.2,9.4-22,20.5-22
	c11.1,0,19.9,6.6,19.9,22v60.2h19.9v-61.2c0-14.2,9.7-21,20.5-21c11.1,0,19.9,6.6,19.9,22v60.2H394L394,452.5z"/>
<path id="path19896" d="M380.5,234.3c0,7.1-1.4,13.9-4.2,20.3c-2.8,6.2-6.5,11.7-11.2,16.4c-4.7,4.7-10.2,8.4-16.7,11.2
	c-6.2,2.8-12.9,4.2-20,4.2c-7.3,0-14.1-1.4-20.6-4.2c-6.2-2.8-11.7-6.5-16.4-11.2c-4.7-4.7-8.4-10.2-11.2-16.4
	c-2.6-6.4-3.9-13.2-3.9-20.3v-85.9c0-7.1,1.3-13.8,3.9-20c2.8-6.4,6.5-12,11.2-16.7c4.7-4.7,10.2-8.4,16.4-11.2
	c6.4-2.8,13.3-4.2,20.6-4.2c7.1,0,13.8,1.4,20,4.2c6.4,2.8,12,6.5,16.7,11.2c4.7,4.7,8.4,10.2,11.2,16.7c2.8,6.2,4.2,12.9,4.2,20
	V234.3z M328.4,122.4c-7.3,0-13.4,2.5-18.5,7.5c-5,5-7.5,11.2-7.5,18.5v85.9c0,7.3,2.5,13.4,7.5,18.5c5,5,11.2,7.5,18.5,7.5
	c7.3,0,13.4-2.5,18.5-7.5c5-5,7.5-11.2,7.5-18.5v-85.9c0-7.3-2.5-13.4-7.5-18.5C341.9,124.9,335.7,122.4,328.4,122.4z"/>
<path id="path19898" d="M511.1,234.3c0,7.1-1.4,13.9-4.2,20.3c-2.8,6.2-6.5,11.7-11.2,16.4c-4.7,4.7-10.2,8.4-16.7,11.2
	c-6.2,2.8-12.9,4.2-20,4.2c-7.3,0-14.1-1.4-20.6-4.2c-6.2-2.8-11.7-6.5-16.4-11.2c-4.7-4.7-8.4-10.2-11.2-16.4
	c-2.6-6.4-3.9-13.2-3.9-20.3v-85.9c0-7.1,1.3-13.8,3.9-20c2.8-6.4,6.5-12,11.2-16.7c4.7-4.7,10.2-8.4,16.4-11.2
	c6.4-2.8,13.3-4.2,20.6-4.2c7.1,0,13.8,1.4,20,4.2c6.4,2.8,12,6.5,16.7,11.2c4.7,4.7,8.4,10.2,11.2,16.7c2.8,6.2,4.2,12.9,4.2,20
	V234.3z M459.1,122.4c-7.3,0-13.4,2.5-18.5,7.5c-5,5-7.5,11.2-7.5,18.5v85.9c0,7.3,2.5,13.4,7.5,18.5c5,5,11.2,7.5,18.5,7.5
	c7.3,0,13.4-2.5,18.5-7.5c5-5,7.5-11.2,7.5-18.5v-85.9c0-7.3-2.5-13.4-7.5-18.5C472.5,124.9,466.4,122.4,459.1,122.4z"/>
<path id="path19900" d="M182.7,177h9.2c8.9,0,15.9-2.4,20.9-7.3c5.2-5.1,7.9-11.4,7.9-19.1c0-3.8-0.7-7.3-2.1-10.5
	c-1.4-3.3-3.4-6.2-6-8.6c-2.4-2.4-5.3-4.4-8.6-5.8c-3.3-1.4-6.8-2.1-10.5-2.1c-5.6,0-10.9,1.8-16,5.5c-5.1,3.7-8.3,9.3-9.7,17h-26.7
	c0.5-6.6,2.3-12.9,5.2-18.8c3-5.9,6.7-11.2,11.3-15.7c4.7-4.5,10-8.1,16-10.7c5.9-2.6,12.2-3.9,18.8-3.9c8.4,0,15.9,1.5,22.5,4.4
	c6.8,3,12.6,7,17.3,12c4.9,4.9,8.6,10.6,11.3,17c2.6,6.3,3.9,12.8,3.9,19.6c0,7.2-1.4,14.1-4.2,20.9c-2.6,6.6-7.9,12.5-15.7,17.5
	c7.9,5.1,13.4,11.3,16.7,18.6c3.5,7.2,5.2,14.6,5.2,22.2c0,8.7-1.5,16.6-4.4,23.5c-2.8,7-6.8,13-12,18.1
	c-5.1,4.9-11.1,8.7-18.1,11.5c-6.8,2.6-14.1,3.9-22,3.9c-6.3,0-12.4-1-18.3-3.1c-5.8-2.1-11-5.1-15.7-9.2c-4.7-4-8.7-9-12-14.9
	c-3.3-5.9-5.6-12.8-6.8-20.7h26.7c2.4,6.5,5.8,11.6,9.9,15.4c4.2,3.8,10.1,5.8,17.8,5.8c3.7,0,7.2-0.7,10.5-2.1
	c3.5-1.4,6.5-3.3,9.2-5.8c2.6-2.6,4.7-5.8,6.3-9.4c1.6-3.7,2.4-7.8,2.4-12.3c0-9.4-2.9-16.7-8.6-21.7c-5.6-5.2-12.3-7.9-20.2-7.9
	h-11.3L182.7,177L182.7,177z"/>
<path id="path19902" d="M62.6,11.5c-27.6,0-52,24.4-52,52v1374.4c0,27.6,24.4,52,52,52h526c27.6,0,52-24.4,52-52V63.5
	c0-27.6-22.3-52-50-52H62.6L62.6,11.5z M66.6,36.5h518.3c18.7,0,30.9,14.7,30.9,33.7l-0.5,681.5l0.5,681.5c0,19-14.2,31.6-32.9,31.6
	H66.6c-18.7,0-30.8-12.6-30.8-31.6l-0.5-340.4L35.9,70.2C35.9,51.2,48,36.5,66.6,36.5L66.6,36.5z"/>
</svg>
