<?xml version="1.0" encoding="UTF-8" standalone="no"?>
<svg
   xmlns:dc="http://purl.org/dc/elements/1.1/"
   xmlns:cc="http://creativecommons.org/ns#"
   xmlns:rdf="http://www.w3.org/1999/02/22-rdf-syntax-ns#"
   xmlns:svg="http://www.w3.org/2000/svg"
   xmlns="http://www.w3.org/2000/svg"
   viewBox="0 0 968.81702 242.45401"
   height="242.45401"
   width="968.81702"
   xml:space="preserve"
   version="1.1"
   id="svg4813"><metadata
     id="metadata4819"><rdf:RDF><cc:Work
         rdf:about=""><dc:format>image/svg+xml</dc:format><dc:type
           rdf:resource="http://purl.org/dc/dcmitype/StillImage" /><dc:title></dc:title></cc:Work></rdf:RDF></metadata><defs
     id="defs4817"><clipPath
       id="clipPath4829"
       clipPathUnits="userSpaceOnUse"><path
         id="path4831"
         d="M 0,0 776,0 776,194 0,194 0,0 Z" /></clipPath></defs><g
     transform="matrix(1.25,0,0,-1.25,0,242.45401)"
     id="g4821"><g
       id="g4823"><g
         transform="translate(0,-0.0367889)"
         id="g4825"><g
           id="g4827" /><g
           id="g4833"><g
             id="g4835"
             clip-path="url(#clipPath4829)"><g
               id="g4837"><path
                 id="path4839"
                 style="fill:#f0c900;fill-opacity:1;fill-rule:nonzero;stroke:none"
                 d="m 23.25,193.605 c -12.609,0 -22.855,-10.261 -22.855,-22.882 l 0,-147.41 C 0.395,10.691 10.641,0.414 23.25,0.414 l 588.563,0 c 12.156,0 24.16,3.211 34.691,9.313 l 116.73,67.457 c 3.477,2.007 6.364,4.91 8.371,8.386 3.055,5.301 3.868,11.469 2.286,17.371 -1.586,5.907 -5.356,10.84 -10.657,13.899 l -116.73,67.473 c -10.531,6.082 -22.535,9.292 -34.691,9.292" /><path
                 id="path4841"
                 style="fill:#000000;fill-opacity:1;fill-rule:nonzero;stroke:none"
                 d="M 23.25,0.793 C 10.852,0.793 0.77,10.902 0.77,23.301 l 0,147.422 c 0,12.394 10.082,22.507 22.48,22.507 l 588.563,0 c 12.085,0 24.003,-3.21 34.48,-9.269 L 763.035,116.5 c 5.203,-3.012 8.918,-7.863 10.477,-13.668 1.554,-5.805 0.769,-11.863 -2.242,-17.082 -1.981,-3.418 -4.825,-6.266 -8.235,-8.23 L 646.293,10.047 C 635.816,4.004 623.898,0.793 611.813,0.793 l -588.563,0 z M 611.813,194 23.25,194 C 10.402,194 0,183.582 0,170.723 L 0,23.301 C 0,10.453 10.402,0.035 23.25,0.035 l 588.563,0 c 12.242,0 24.269,3.227 34.886,9.34 L 763.43,76.848 c 3.547,2.047 6.465,4.992 8.511,8.527 2.102,3.645 3.114,7.641 3.125,11.566 0.016,8.063 -4.164,15.914 -11.636,20.219 L 646.699,184.633 C 636.082,190.762 624.055,194 611.813,194" /></g></g></g></g></g><g
       id="g4843"><path
         id="path4845"
         style="fill:#000000;fill-opacity:1;fill-rule:nonzero;stroke:none"
         d="m 23.25,188.143 c -9.621,0 -17.43,-7.809 -17.43,-17.457 l 0,-147.41 c 0,-9.645 7.809,-17.457 17.43,-17.457 l 588.563,0 c 11.23,0 22.25,2.957 31.968,8.566 l 116.746,67.473 c 2.649,1.531 4.852,3.73 6.379,6.394 4.809,8.344 1.949,19.028 -6.379,23.84 l -116.746,67.469 c -9.718,5.625 -20.738,8.582 -31.968,8.582 l -588.563,0 z m 0,-9.703 588.563,0 c 9.519,0 18.886,-2.508 27.132,-7.278 L 755.688,103.69 c 3.703,-2.145 4.98,-6.883 2.835,-10.586 -0.687,-1.176 -1.656,-2.16 -2.835,-2.848 L 638.945,22.799 c -8.246,-4.781 -17.613,-7.293 -27.132,-7.293 l -588.563,0 c -4.277,0 -7.758,3.481 -7.758,7.77 l 0,147.41 c 0,4.277 3.481,7.754 7.758,7.754 z" /><path
         id="path4847"
         style="fill:#000000;fill-opacity:1;fill-rule:nonzero;stroke:none"
         d="m 391.234,143.92 0,-71.976 -113.617,0 c 6.606,-5.356 10.446,-13.403 10.446,-21.914 l 112.554,0 c 0,15.562 12.606,28.171 28.141,28.171 15.551,0 28.14,-12.609 28.14,-28.171 l 3.129,0 c 3.45,0 6.254,2.804 6.254,6.265 l 0,34.578 c 0,3.004 -0.535,5.977 -1.586,8.793 l -13.797,36.821 c -0.871,2.312 -3,3.898 -5.468,4.054 l -54.196,3.379 z m 21.891,-10.953 31.602,-1.976 c 1.234,-0.067 2.3,-0.868 2.734,-2.02 l 10.477,-27.988 c 0.601,-1.61 -0.211,-3.418 -1.825,-4.024 -0.476,-0.168 -0.965,-0.238 -1.472,-0.179 l -41.516,4.89 0,31.297 z" /><path
         id="path4849"
         style="fill:#000000;fill-opacity:1;fill-rule:nonzero;stroke:none"
         d="m 238.035,50.03 c 0,12.101 9.801,21.918 21.887,21.918 12.086,0 21.887,-9.817 21.887,-21.918 0,-12.102 -9.801,-21.903 -21.887,-21.903 -12.086,0 -21.887,9.801 -21.887,21.903 z m 168.836,0 c 0,12.101 9.801,21.918 21.887,21.918 12.086,0 21.887,-9.817 21.887,-21.918 0,-12.102 -9.801,-21.903 -21.887,-21.903 -12.086,0 -21.887,9.801 -21.887,21.903 z m -28.129,28.168 -181.359,0 0,87.636 181.359,0 0,-87.636 z M 216.145,50.03 l -18.762,6.269 0,15.649 44.855,0 C 235.621,66.588 231.781,58.541 231.781,50.03" /></g></g></svg>