<?xml version="1.0" encoding="utf-8"?>
<!-- Generator: Adobe Illustrator 23.0.1, SVG Export Plug-In . SVG Version: 6.00 Build 0)  -->
<svg version="1.1"
	 id="svg4484" xmlns:cc="http://creativecommons.org/ns#" xmlns:dc="http://purl.org/dc/elements/1.1/" xmlns:rdf="http://www.w3.org/1999/02/22-rdf-syntax-ns#" xmlns:svg="http://www.w3.org/2000/svg"
	 xmlns="http://www.w3.org/2000/svg" xmlns:xlink="http://www.w3.org/1999/xlink" x="0px" y="0px" viewBox="0 0 4021 4357.1"
	 style="enable-background:new 0 0 4021 4357.1;" xml:space="preserve">
<style type="text/css">
	.st0{fill:#FFFFFF;}
	.st1{fill-rule:evenodd;clip-rule:evenodd;fill:#154889;}
	.st2{fill-rule:evenodd;clip-rule:evenodd;fill:#FFFFFF;}
	.st3{fill:#154889;}
</style>
<g>
	<path id="path4726" class="st0" d="M0.5,129.7l1,4096.7C1.1,4357.2,131,4356.6,131,4356.6l3758.3-0.7
		c134,0.7,131.2-129.6,131.2-129.6V109.2c0-58.2-59.5-108.7-121.6-108.7H130.3C0.1,0.9,0.5,129.7,0.5,129.7z"/>
	<path id="path4728" class="st1" d="M130.3,59.7C92,60.1,61,91.3,61,129.7v4096.7c0,38.7,31.3,70,70,70h3758.3c38.7,0,70-31.3,70-70
		V129.7c0-38.7-31.3-70-70-70H130.3L130.3,59.7z"/>
	<path id="path4730" class="st2" d="M735.2,989.8L500.4,1342c-10.7,18.3-0.9,58.3,37.9,54.2l118.3-31h9.8v2681.2H817v-362.1
		c49.8-252.5,138.5-309.5,219.6-389l526.3-354.6l3.5,5.5l38.5,115.9c15.1,27.6,49.4,27,66.2,2.4l166.9-387.8l-422.5-6.1
		c-21.2,1-49.5,31-25,61.3l86.9,79l-508.1,345.8c-51.4,30.3-153.8,143.8-150.9,153.8l-2-1944.7l115.9,30
		c31.4,2.3,49.5-26.6,38.1-54.1L735.2,989.8L735.2,989.8z"/>
	<path id="path4732" class="st0" d="M370.2,309.7c-22.1,0-40,17.9-40,40v400c0,22.1,17.9,40,40,40h720c22.1,0,40-17.9,40-40v-400
		c0-22.1-17.9-40-40-40H370.2L370.2,309.7z"/>
	<path id="path4734" class="st3" d="M730.2,328.6c-48-0.3-350.5,54.1-350.5,54.1c-13,1.9-22.6,12.9-22.8,26l0,0v280.7l0,0
		c0.2,13.1,9.8,24.1,22.8,26c0,0,302.5,54.4,350.5,54.1c46.3-0.1,350.5-54.1,350.5-54.1c13-1.9,22.6-12.9,22.8-26l0,0V408.8l0,0
		c-0.2-13.1-9.8-24.1-22.8-26C1080.7,382.7,776.5,328.6,730.2,328.6z"/>
	<path id="path4744" d="M130.3,0C65,0.2,32.4,32.7,16.1,65C-0.1,97.4,0,129.7,0,129.7l1,4096.7c-0.2,65.6,32.4,98.3,64.9,114.6
		c32.6,16.3,65.1,16.1,65.1,16.1l3758.3-0.7c67.2,0.3,100.2-32.2,116.3-64.8c16.1-32.6,15.4-65.2,15.4-65.3V109.2
		C4021,50.6,3961.3,0,3898.9,0L130.3,0L130.3,0z M130.3,0.5h3768.6c62.1,0,121.6,50.4,121.6,108.7v4117.2c0,0,2.8,130.2-131.2,129.6
		L131,4356.6c0,0-129.9,0.6-129.5-130.2l-1-4096.7C0.5,129.7,0.1,0.9,130.3,0.5z"/>
	<path id="path4746" class="st2" d="M729.9,644.3c21.7,0,39.5-17.7,39.5-39.5v-4.7c0-21.7-17.7-39.5-39.5-39.5h-16.2v-32.4h16.2
		c20.5,0,37.1-16.7,37.1-37.1c0-20.6-16.7-37.1-37.1-37.1c-17.8,0-33.1,12.6-36.5,30.1H656c3.6-38.1,35.6-67.2,73.9-67.2
		c41,0,74.2,33.2,74.2,74.2c0,21.1-10.3,40.9-27.6,53.1c18.7,12.4,29.9,33.4,29.9,55.9v4.7c0,42.2-34.3,76.6-76.6,76.6
		c-38.7,0-71.3-28.8-76-67.3h37.6C695.8,631.7,711.6,644.3,729.9,644.3"/>
	<path id="path4748" class="st2" d="M3568.1,508.4v27.8c15.8-19.6,39.7-31,65-31c19.3,0,37.8,6.6,52.7,18.7l-35.1,43.4
		c-9.2-8-20.8-12.5-33-12.5c-27.4,0-49.6,22.2-49.6,49.5v151.7h-49.6V508.4H3568.1z M3394.8,728.1c-16,19.7-39.7,31.1-65.1,31.1
		c-46.1,0-83.6-37.5-83.6-83.7V508.4h49.6V660c0,27.4,22.1,49.6,49.5,49.6c27.4,0,49.6-22.2,49.6-49.6V508.4h49.5v247.6h-49.5
		L3394.8,728.1L3394.8,728.1z M3085.1,756.1h-30.9c-41.1,0-74.4-33.3-74.4-74.3c0-41.1,33.3-74.3,74.4-74.3h74.3v-24.8
		c0-13.6-9.7-25.1-23.1-27.5c-8.7-1.5-17.6-2.3-26.4-2.3c-9,0-17.8,0.8-26.6,2.3c-8.6,1.6-16.2,7.1-20.2,15l-39.2-30.9
		c11.8-17.4,30.1-29.3,50.8-32.9c11.5-1.9,23.3-2.9,35.1-2.9c11.7,0,23.4,1,35,2.9c37,6.6,64.1,38.7,64.1,76.3v173.4h-49.6v-25.5
		C3119.7,746.3,3103.1,756.1,3085.1,756.1L3085.1,756.1z M3097.5,709.7h-40.3c-17.1,0-31-13.8-31-31c0-17,13.9-30.9,31-30.9h71.2
		v30.9C3128.4,695.8,3114.5,709.7,3097.5,709.7z M2775.5,536.3c15.8-19.6,39.8-31,65-31c46.1,0,83.6,37.5,83.6,83.6v86.7
		c0,46.2-37.5,83.7-83.6,83.7c-25.2,0-49.2-11.4-65-31.1v28h-49.6V409.2h49.6V536.3L2775.5,536.3z M2775.5,604.3V660
		c0,27.4,22.1,49.6,49.5,49.6c27.4,0,49.6-22.2,49.6-49.6v-55.7c0-27.3-22.2-49.5-49.6-49.5C2797.6,554.9,2775.5,577,2775.5,604.3z
		 M2558.7,756.1h-30.9c-41.1,0-74.4-33.3-74.4-74.3c0-41.1,33.3-74.3,74.4-74.3h74.3v-24.8c0-13.6-9.7-25.1-23.1-27.5
		c-8.7-1.5-17.5-2.3-26.5-2.3c-8.8,0-17.7,0.8-26.4,2.3c-8.8,1.6-16.3,7.1-20.2,15l-39.2-30.9c11.8-17.4,30-29.3,50.7-32.9
		c11.5-1.9,23.3-2.9,35-2.9c11.8,0,23.6,1,35.1,2.9c37,6.6,64.1,38.7,64.1,76.3v173.4H2602v-25.5
		C2593.3,746.3,2576.7,756.1,2558.7,756.1L2558.7,756.1z M2571,709.7h-40.2c-17.1,0-30.9-13.8-30.9-31c0-17,13.8-30.9,30.9-30.9
		h71.2v30.9C2602,695.8,2588.2,709.7,2571,709.7z M2372.8,756.1c-30.7,0-55.7-24.9-55.7-55.7V548.6h-24.8v-40.2h24.8V434h49.6v74.4
		h37.1v40.2h-37.1v145.5c0,8.6,6.9,15.5,15.4,15.5h21.7v46.4H2372.8z M2088.1,508.4v27.8c15.9-19.6,39.8-31,65-31
		c46.1,0,83.6,37.5,83.6,83.6v167.2h-49.5V604.3c0-27.3-22.2-49.5-49.6-49.5c-27.4,0-49.5,22.2-49.5,49.5v151.7h-49.6V508.4H2088.1
		L2088.1,508.4z M1766.1,607.5V657c0,56.4,45.6,102.3,102.1,102.3c56.4,0,102.3-45.9,102.3-102.3v-49.5
		c0-56.5-45.8-102.3-102.3-102.3C1811.7,505.3,1766.1,551,1766.1,607.5z M1815.5,607.5V657c0,29.1,23.6,52.7,52.6,52.7
		c29.1,0,52.7-23.6,52.7-52.7v-49.5c0-29.1-23.6-52.6-52.7-52.6C1839.1,554.9,1815.5,578.4,1815.5,607.5z M1400.7,409.2h49.5
		l99.1,226.1l99.1-226.1h49.6v346.8h-52.7V536.3L1571,706.6h-43.4l-74.3-170.3v219.8h-52.6L1400.7,409.2"/>
	<path id="path4750" class="st2" d="M2079.7,1911.3l123.5-163.5h-117.3v-43.2h179v37l-123.5,163.6h123.5v46.4h-185.2V1911.3
		L2079.7,1911.3z M1915.1,1901.4c8.1,3.3,16.8,5,25.6,5c20.2,0,39.3-8.8,52.5-24.1l37.5,32.2c-22.5,26.2-55.4,41.3-89.9,41.3
		c-15,0-30-2.9-44-8.5c-38.6-15.4-64-52.9-64-94.6v-49.4c0-56.2,45.6-101.8,101.9-101.8c56.2,0,101.8,45.6,101.8,101.8v43.2H1882
		v6.2C1882,1874.2,1895.1,1893.5,1915.1,1901.4L1915.1,1901.4z M1934.6,1750.8c-29,0-52.6,23.5-52.6,52.5h105.1
		C1987.1,1774.3,1963.5,1750.8,1934.6,1750.8z M1715.4,1704.6h49.4v247h-49.4V1704.6z M1715.4,1605.8h49.4v49.3h-49.4V1605.8z
		 M1400.7,1605.8H1524c68.3,0,123.5,55.3,123.5,123.5v98.8c0,68.2-55.2,123.5-123.5,123.5h-123.4V1605.8z M1453.1,1655.1h70.9
		c39.3,0,71,31.8,71,71.1v104.8c0,39.3-31.7,71-71,71h-70.9V1655.1"/>
	<path id="path4752" class="st2" d="M3598.4,2474.8v27.1h48.1v-336.3h-48.1v123.2c-15.4-19-38.5-30.1-63-30.1
		c-44.8,0-81.1,36.2-81.1,81v84.1c0,44.7,36.3,81,81.1,81C3559.8,2504.9,3583,2493.8,3598.4,2474.8z M3502.3,2354.8
		c0-26.6,21.5-48.1,48.1-48.1c26.5,0,48,21.5,48,48.1v54c0,26.6-21.5,48-48,48c-26.6,0-48.1-21.4-48.1-48V2354.8z M3196.1,2357.7
		v48.1c0,54.7,44.3,99,99,99c54.8,0,99-44.4,99-99v-48.1c0-54.8-44.2-99-99-99C3240.5,2258.7,3196.1,2303,3196.1,2357.7z
		 M3244.1,2357.7v48.1c0,28.1,22.8,51,51.1,51c28.2,0,51.1-22.8,51.1-51v-48.1c0-28.2-22.8-51-51.1-51
		C3266.9,2306.7,3244.1,2329.5,3244.1,2357.7z M3058,2261.7v27.1c15.4-19,38.5-30.1,63-30.1c18.6,0,36.6,6.3,51.1,18l-34.1,42.2
		c-8.8-7.9-20.1-12.2-32-12.2c-26.4,0-48,21.5-48,48.1v147.1h-48.1v-240.2H3058L3058,2261.7z M2825.9,2453.1
		c7.9,3.2,16.4,4.8,24.9,4.8c19.6,0,38.2-8.6,51-23.4l36.6,31.3c-21.9,25.5-53.9,40.2-87.5,40.2c-14.7,0-29.2-2.9-42.8-8.3
		c-37.7-14.9-62.3-51.4-62.3-91.9v-48.1c0-54.8,44.4-99,99-99c54.8,0,99.2,44.3,99.2,99v42.1h-150.2v6
		C2793.7,2426.7,2806.4,2445.4,2825.9,2453.1L2825.9,2453.1z M2844.8,2306.7c-28.1,0-51,22.8-51,51h102.1
		C2895.8,2329.5,2873,2306.7,2844.8,2306.7L2844.8,2306.7z M2391.4,2288.8c15.4-19,38.5-30.1,63-30.1c25.8,0,50.1,12.3,65.3,33
		c17.1-21,42.8-33,69.8-33c49.7,0,90,40.3,90,90v153.1h-48.1v-147.1c0-26.6-21.4-48.1-48-48.1c-26.6,0-48.1,21.5-48.1,48.1v147.1
		h-48v-147.1c0-26.6-21.5-48.1-48.1-48.1c-26.5,0-48,21.5-48,48.1v147.1h-48.1v-240.2h48.1L2391.4,2288.8L2391.4,2288.8z
		 M2259.3,2501.9c-29.9,0-54.1-24.2-54.1-54.1v-282.2h48.1v276.2c0,8.2,6.7,14.9,15,14.9h21v45.1L2259.3,2501.9L2259.3,2501.9z
		 M2115.2,2501.9c-29.9,0-54-24.2-54-54.1v-282.2h48v276.2c0,8.2,6.8,14.9,15,14.9h21.1v45.1L2115.2,2501.9L2115.2,2501.9z
		 M1905.1,2501.9H1875c-39.7,0-72-32.3-72-72.1c0-39.8,32.3-72,72-72h72.2v-24c0-13.1-9.4-24.3-22.4-26.6c-8.5-1.5-17-2.3-25.7-2.3
		c-8.6,0-17.2,0.8-25.7,2.3c-8.5,1.4-15.7,6.9-19.5,14.6l-38-30.1c11.4-16.8,29.2-28.3,49.3-31.8c11.2-2,22.5-2.9,33.9-2.9
		c11.4,0,22.7,1,33.9,2.9c35.9,6.3,62.1,37.4,62.1,73.9v168.2h-48v-24.8C1938.5,2492.4,1922.5,2501.9,1905.1,2501.9L1905.1,2501.9z
		 M1917,2456.8h-39.1c-16.5,0-30-13.4-30-30c0-16.6,13.5-30,30-30h69.2v30C1947.1,2443.4,1933.6,2456.8,1917,2456.8z M1400.7,2165.6
		h54l54,240.2l66.1-240.2h36l66,240.2l54.1-240.2h54l-84.1,336.3h-45l-63-243.2l-63.1,243.2h-45L1400.7,2165.6"/>
	<path id="path4754" class="st2" d="M1921.9,3794.6v153.6c0,54.2,44.1,98.2,98.3,98.2c54.2,0,98.2-44,98.2-98.2v-153.6
		c0-54.2-44-98.2-98.2-98.2C1966.1,3696.4,1921.9,3740.4,1921.9,3794.6L1921.9,3794.6z M1971.1,3794.6v153.6c0,27.1,22,49,49.2,49
		c27.1,0,49.1-22,49.1-49v-153.6c0-27.1-22-49.1-49.1-49.1C1993.1,3745.6,1971.1,3767.6,1971.1,3794.6z M1658.1,3794.6v153.6
		c0,54.2,44,98.2,98.2,98.2c54.2,0,98.2-44,98.2-98.2v-153.6c0-54.2-44-98.2-98.2-98.2C1702,3696.4,1658.1,3740.4,1658.1,3794.6z
		 M1707.2,3794.6v153.6c0,27.1,21.9,49,49.1,49c27.1,0,49.2-22,49.2-49v-153.6c0-27.1-22-49.1-49.2-49.1
		C1729.1,3745.6,1707.2,3767.6,1707.2,3794.6z M1590.5,3748.6h-138.1v77.6c15.7-12.5,35.1-19.2,55.2-19.2c49.2,0,89,39.8,89,89v52.2
		c0,54.2-44,98.2-98.2,98.2c-50.7,0-93-38.6-97.8-89h49.5c4.4,23.1,24.7,39.8,48.3,39.8c27.2,0,49.1-22,49.1-49v-43
		c0-27.2-21.9-49.2-49.1-49.2c-18.9,0-35.9,10.8-44.1,27.7h-48v-184.2h184.2L1590.5,3748.6"/>
	<path id="path4756" class="st2" d="M2274.5,3824.4c15.8-19.5,39.6-31,64.8-31c26.5,0,51.4,12.6,67.2,34.1
		c17.5-21.5,43.8-34.1,71.6-34.1c51.1,0,92.5,41.5,92.5,92.6v157.4h-49.3v-151.2c0-27.3-22.1-49.4-49.4-49.4
		c-27.2,0-49.3,22.1-49.3,49.4v151.2h-49.4v-151.2c0-27.3-22.1-49.4-49.4-49.4c-27.2,0-49.3,22.1-49.3,49.4v151.2h-49.4v-246.8h49.4
		V3824.4"/>
</g>
</svg>
