<?xml version="1.0" encoding="utf-8"?>
<!-- Generator: Adobe Illustrator 23.0.1, SVG Export Plug-In . SVG Version: 6.00 Build 0)  -->
<svg version="1.1" id="Layer_2" xmlns="http://www.w3.org/2000/svg" xmlns:xlink="http://www.w3.org/1999/xlink" x="0px" y="0px"
	 viewBox="0 0 98.29 58.87" style="enable-background:new 0 0 98.29 58.87;" xml:space="preserve">
<g>
	<path d="M91.08,20.28c-0.56,0-1.12,0-1.67,0h-7.4v-2.43c0-0.68-0.55-1.23-1.23-1.23h-19.1c-0.68,0-1.23,0.55-1.23,1.23v3.42H44.9
		c-2.3-4.92-8.17-7.33-17.47-7.12c-0.44,0.01-0.84,0.25-1.05,0.63l-3.33,6c-0.2,0.35-0.21,0.78-0.03,1.14
		c0.18,0.36,0.52,0.61,0.92,0.67c8.23,1.24,17.18,14.43,19.38,24.96c0.12,0.57,0.62,0.98,1.21,0.98h14.77c0.6,0,1.12-0.44,1.21-1.03
		c3.6-22.1,10.47-24.68,28.74-24.76h1.82c0.68,0,1.23-0.55,1.23-1.23C92.31,20.84,91.76,20.28,91.08,20.28z"/>
	<path d="M40.82,0.29c-0.28-0.23-0.65-0.33-1.01-0.27L29.57,1.89c-4.06,0.37-7.28,2.7-9.59,6.93l-5.2,0.09
		c-0.67,0.01-1.21,0.56-1.21,1.23v5.23c0,0.68,0.55,1.23,1.23,1.23h1.69l-0.01,0.14c-6.47-0.25-11.05,2.1-14.02,7.11
		c-0.31,0.52-0.19,1.18,0.26,1.57c0.46,0.39,1.13,0.39,1.59,0c4.35-3.66,9.63-5.03,16.12-4.19L16.3,39.91
		c-0.14,0.64,0.24,1.28,0.87,1.45c0.11,0.03,0.22,0.04,0.33,0.04c0.52,0,1-0.33,1.17-0.84l9.99-29.94c0-0.01,0.35-1.33,1.23-2.37
		c0.65-0.77,1.07-1.31,1.31-1.63l9.21-2.94c0.51-0.16,0.86-0.64,0.86-1.17V1.23C41.26,0.87,41.1,0.52,40.82,0.29z"/>
	<path d="M17.5,58.87C7.85,58.87,0,51.02,0,41.37s7.85-17.5,17.5-17.5S35,31.72,35,41.37S27.15,58.87,17.5,58.87z M17.5,28.79
		c-6.93,0-12.58,5.64-12.58,12.58c0,6.93,5.64,12.58,12.58,12.58s12.58-5.64,12.58-12.58C30.08,34.43,24.44,28.79,17.5,28.79z"/>
	<path d="M80.79,58.87c-9.65,0-17.5-7.85-17.5-17.5s7.85-17.5,17.5-17.5s17.5,7.85,17.5,17.5S90.44,58.87,80.79,58.87z M80.79,28.79
		c-6.93,0-12.58,5.64-12.58,12.58c0,6.93,5.64,12.58,12.58,12.58c6.93,0,12.58-5.64,12.58-12.58
		C93.37,34.43,87.73,28.79,80.79,28.79z"/>
	<circle cx="17.5" cy="40.18" r="3.83"/>
	<circle cx="80.79" cy="40.18" r="3.83"/>
</g>
</svg>
