<?xml version="1.0" encoding="utf-8"?>
<!-- Generator: Adobe Illustrator 23.0.1, SVG Export Plug-In . SVG Version: 6.00 Build 0)  -->
<svg version="1.1" id="Layer_1" xmlns="http://www.w3.org/2000/svg" xmlns:xlink="http://www.w3.org/1999/xlink" x="0px" y="0px"
	 viewBox="0 0 1000 500" style="enable-background:new 0 0 1000 500;" xml:space="preserve">
<style type="text/css">
	.st0{fill-rule:evenodd;clip-rule:evenodd;}
	.st1{fill-rule:evenodd;clip-rule:evenodd;fill:#FFFFFF;}
</style>
<path class="st0" d="M285.78,86.82v248.27l331.93,0.32c-23,18.79-37.36,44.69-37.17,78.69l-329.07-0.23
	c-3.73-131.88-190.84-131.43-194.9-0.76c-28.1-0.21-32-6.59-32.27-32.48l0-99c-0.35-44.24-5.88-15.04,26.87-98.93
	c33.7-89.43,24.41-81.17,54.89-83.48L285.78,86.82z"/>
<path class="st1" d="M207.94,233.2l1.55-105.48l-100.05,6.2c-18.24,1.22-18.39,1.34-24.82,22.49l-25.59,68.25
	c-8.6,20.93-7.23,27.1,16.29,24.04L207.94,233.2z"/>
<path class="st0" d="M856.63,335.59l0.19,55.78l-24.61,22.87l-56.73-0.04c0.23-32.34-13.21-59.54-37.04-78.65L856.63,335.59z"/>
<rect x="305.83" y="12.16" width="551.32" height="301.7"/>
<circle cx="164" cy="412" r="77"/>
<circle cx="678" cy="412" r="77"/>
</svg>
