<?xml version="1.0" encoding="utf-8"?>
<!-- Generator: Adobe Illustrator 23.0.1, SVG Export Plug-In . SVG Version: 6.00 Build 0)  -->
<svg version="1.1" id="Layer_1" xmlns="http://www.w3.org/2000/svg" xmlns:xlink="http://www.w3.org/1999/xlink" x="0px" y="0px"
	 viewBox="0 0 693.79 211.03" style="enable-background:new 0 0 693.79 211.03;" xml:space="preserve">
<style type="text/css">
	.st0{fill-rule:evenodd;clip-rule:evenodd;}
	.st1{fill-rule:evenodd;clip-rule:evenodd;fill:#FFFFFF;}
</style>
<g>
	<path class="st0" d="M115.97,33.04v109.87l146.9,0.14c-10.18,8.32-16.53,19.78-16.45,34.82l-145.63-0.1
		c-1.65-58.37-84.46-58.17-86.25-0.34c-12.44-0.09-14.16-2.92-14.28-14.37l0-43.81c-0.16-19.58-2.6-6.65,11.89-43.78
		c14.91-39.58,10.8-35.92,24.29-36.94L115.97,33.04z"/>
	<path class="st1" d="M81.52,97.82l0.69-46.68l-44.28,2.75c-8.07,0.54-8.14,0.59-10.98,9.95l-11.33,30.2
		c-3.81,9.26-3.2,11.99,7.21,10.64L81.52,97.82z"/>
	<path class="st0" d="M368.6,143.14l0.08,24.68l-10.89,10.12l-25.1-0.02c0.1-14.31-5.85-26.35-16.39-34.81L368.6,143.14z"/>
	<rect x="124.84" width="243.99" height="133.52"/>
	<circle cx="62.07" cy="176.95" r="34.08"/>
	<circle cx="289.54" cy="176.95" r="34.08"/>
</g>
<g>
	<path id="path11867" class="st0" d="M693.75,141.66v24.02h-34.23c-2.3-8.7-6.29-16.95-14.85-24.02H693.75z"/>
	<path id="path10968" class="st0" d="M406.84,4.69h286.96v128.07H406.84V4.69z"/>
	<path id="path10970" d="M651.7,174.02c0.01,17.78-14.38,32.2-32.16,32.21c-17.78,0.01-32.2-14.38-32.21-32.16c0-0.02,0-0.03,0-0.05
		c-0.01-17.78,14.38-32.2,32.16-32.21c17.78-0.01,32.2,14.38,32.21,32.16C651.7,173.99,651.7,174,651.7,174.02z"/>
	<path id="path10972" d="M494.64,173.99c0.01,17.78-14.38,32.2-32.16,32.21c-17.78,0.01-32.2-14.38-32.21-32.16
		c0-0.02,0-0.03,0-0.05c-0.01-17.78,14.38-32.2,32.16-32.21c17.78-0.01,32.2,14.38,32.21,32.16
		C494.64,173.95,494.64,173.97,494.64,173.99z"/>
	<path id="path10980" class="st0" d="M388.18,141.51v24.02h34.23c2.3-8.7,6.29-16.95,14.85-24.02H388.18z"/>
	<path id="path11871" class="st0" d="M488.32,141.66c8.62,7.35,11.23,15.35,14.08,24.02h76.99c2.3-8.7,6.29-16.95,14.85-24.02
		H488.32z"/>
</g>
</svg>
