<?xml version="1.0" encoding="utf-8"?>
<!-- Generator: Adobe Illustrator 23.0.1, SVG Export Plug-In . SVG Version: 6.00 Build 0)  -->
<svg version="1.1" id="svg2" xmlns:svg="http://www.w3.org/2000/svg"
	 xmlns="http://www.w3.org/2000/svg" xmlns:xlink="http://www.w3.org/1999/xlink" x="0px" y="0px" viewBox="0 0 927.03 571.61"
	 style="enable-background:new 0 0 927.03 571.61;" xml:space="preserve">
<style type="text/css">
	.st0{fill-rule:evenodd;clip-rule:evenodd;}
	.st1{fill-rule:evenodd;clip-rule:evenodd;fill:#FFFFFF;}
</style>
<g id="layer1">
	<path id="path11867" class="st0" d="M926.97,488.56v30.89h-44.02c-2.95-11.18-8.09-21.8-19.1-30.89H926.97z"/>
	<path id="path10968" class="st0" d="M557.96,312.4h369.06v164.72H557.96V312.4z"/>
	<path id="path10970" d="M872.89,530.18c0.02,22.86-18.5,41.41-41.36,41.43c-22.86,0.02-41.41-18.5-41.43-41.36
		c0-0.02,0-0.04,0-0.06c-0.02-22.86,18.5-41.41,41.36-41.43c22.86-0.02,41.41,18.5,41.43,41.36
		C872.89,530.14,872.89,530.16,872.89,530.18z"/>
	<path id="path10972" d="M670.89,530.14c0.02,22.86-18.5,41.41-41.36,41.43c-22.86,0.02-41.41-18.5-41.43-41.36
		c0-0.02,0-0.04,0-0.06c-0.02-22.86,18.5-41.41,41.36-41.43c22.86-0.02,41.41,18.5,41.43,41.36
		C670.89,530.1,670.89,530.12,670.89,530.14z"/>
	<path id="path10980" class="st0" d="M533.98,488.37v30.89H578c2.95-11.18,8.09-21.8,19.1-30.89H533.98z"/>
	<path id="path11871" class="st0" d="M662.76,488.56c11.09,9.45,14.44,19.75,18.11,30.89h99.02c2.95-11.18,8.09-21.8,19.1-30.89
		H662.76z"/>
	<g>
		<path id="path10081" class="st0" d="M165.81,312.52h345.25v164.72H165.81V312.52z"/>
		<path id="path10974" d="M433.73,530.02c0.02,22.86-18.5,41.41-41.36,41.43c-22.86,0.02-41.41-18.5-41.43-41.36
			c0-0.02,0-0.04,0-0.06c-0.02-22.86,18.5-41.41,41.36-41.43c22.86-0.02,41.41,18.5,41.43,41.36
			C433.73,529.98,433.73,530,433.73,530.02z"/>
		<path id="path10976" d="M113.15,530.14c0.02,22.86-18.5,41.41-41.36,41.43c-22.86,0.02-41.41-18.5-41.43-41.36
			c0-0.02,0-0.04,0-0.06c-0.02-22.86,18.5-41.41,41.36-41.43c22.86-0.02,41.41,18.5,41.43,41.36
			C113.15,530.1,113.15,530.12,113.15,530.14z"/>
		<path id="path11875" class="st0" d="M511.07,488.23l0.16,31.53l-34.26,10.59l-32.03,0.07c1.46-12.65-8-33.49-20.69-42.03
			L511.07,488.23z"/>
		<path id="path11879" class="st0" d="M142.77,353.89l-103.81,5.43c-4.34,1.34-8,3.3-9.65,7.03L1.09,440.38L0,448.15l0.01,72.27
			c0.88,6.62,5.24,8.77,10.28,10.05h8.5c0-68.83,106.72-68.66,106.72,0H339.8c-1.46-12.65,8-33.49,20.69-42.03l-217.48-0.03
			L142.77,353.89z"/>
		<path id="path11883" class="st1" d="M100.97,433.72v-59.16l-59.83,4.05c-2.18,0.37-3.74,1.81-4.72,4.27L17.3,433.72
			c-0.32,1.8-1.09,3.6,0,5.4c0.7,1.65,2.01,2.47,3.6,2.92L100.97,433.72z"/>
	</g>
</g>
<g>
	<g>
		<path class="st0" d="M123.36,35.15v116.87l156.26,0.15c-10.83,8.85-17.59,21.04-17.5,37.04l-154.91-0.11
			c-1.75-62.09-89.84-61.87-91.75-0.36c-13.23-0.1-15.06-3.1-15.19-15.29l0-46.61c-0.17-20.83-2.77-7.08,12.65-46.57
			c15.86-42.1,11.49-38.21,25.84-39.3L123.36,35.15z"/>
		<path class="st1" d="M86.71,104.06l0.73-49.66l-47.1,2.92c-8.59,0.58-8.66,0.63-11.68,10.59l-12.05,32.13
			c-4.05,9.85-3.4,12.76,7.67,11.32L86.71,104.06z"/>
		<path class="st0" d="M392.09,152.26l0.09,26.26l-11.58,10.77l-26.7-0.02c0.11-15.23-6.22-28.03-17.44-37.03L392.09,152.26z"/>
		<rect x="172.79" width="749.54" height="142.03"/>
		<circle cx="66.03" cy="188.23" r="36.25"/>
		<circle cx="308" cy="188.23" r="36.25"/>
	</g>
	<path id="path11867_1_" class="st0" d="M920.56,153.41v30.89h-44.02c-2.95-11.18-8.09-21.8-19.1-30.89H920.56z"/>
	<path id="path10968_1_" class="st0" d="M920.62,141.96H551.55"/>
	<path id="path10980_1_" class="st0" d="M407.56,153.22v30.89h244.02c2.95-11.18,8.09-21.8,19.1-30.89H407.56z"/>
	<path id="path11871_1_" class="st0" d="M736.35,153.41c11.09,9.45,14.44,19.75,18.11,30.89h19.02c2.95-11.18,8.09-21.8,19.1-30.89
		H736.35z"/>
	<circle cx="821.18" cy="189.28" r="36.25"/>
	<circle cx="706.25" cy="189.28" r="36.25"/>
</g>
</svg>
