<?xml version="1.0" encoding="utf-8"?>
<!-- Generator: Adobe Illustrator 23.0.1, SVG Export Plug-In . SVG Version: 6.00 Build 0)  -->
<svg version="1.1" id="svg2" xmlns:svg="http://www.w3.org/2000/svg"
	 xmlns="http://www.w3.org/2000/svg" xmlns:xlink="http://www.w3.org/1999/xlink" x="0px" y="0px" viewBox="0 0 550.36 266.31"
	 style="enable-background:new 0 0 550.36 266.31;" xml:space="preserve">
<style type="text/css">
	.st0{fill-rule:evenodd;clip-rule:evenodd;}
	.st1{fill-rule:evenodd;clip-rule:evenodd;fill:#FFFFFF;}
</style>
<path id="path1966" class="st0" d="M27.12,24.24L26.66,3.34c0.45-1.4,0.69-3.02,2.6-2.95L504.07,0
	c26.98,5.37,32.33,75.58,46.29,114.77v85c-6.8,15.98-14.14,17.28-21.43,20l-18.57-0.71c0-77.23-117.14-76.8-117.14,0H145.36
	c0-76.95-114.29-76.97-114.29,0H8.93c-3.89-1.14-6.55-4.76-8.93-8.93l0.95-76.21L35.73,33.53C36.94,26.86,29.99,27.33,27.12,24.24z"
	/>
<path id="path2856" d="M498.57,219.32c0.02,25.78-20.87,46.7-46.65,46.72c-25.78,0.02-46.7-20.87-46.72-46.65c0-0.02,0-0.04,0-0.07
	c-0.02-25.78,20.87-46.7,46.65-46.72c25.78-0.02,46.7,20.87,46.72,46.65C498.57,219.27,498.57,219.3,498.57,219.32z"/>
<path id="path3745" d="M135.32,219.59c0.02,25.78-20.87,46.7-46.65,46.72c-25.78,0.02-46.7-20.87-46.72-46.65c0-0.02,0-0.04,0-0.07
	c-0.02-25.78,20.87-46.7,46.65-46.72c25.78-0.02,46.7,20.87,46.72,46.65C135.32,219.54,135.32,219.57,135.32,219.59z"/>
<path id="path3747" class="st1" d="M426.97,38.34l20.53,69.97c1.21,2.85,2.39,5.72,5.74,6.92l71.16-0.17
	c2.84-2.47,5.76-4.79,6.21-9.89l-20.16-69.96c-1.65-5.52-3.92-7.09-6.29-8.04l-72.52,0.09C428.11,29.37,426.86,33.31,426.97,38.34z"
	/>
<path id="path4634" class="st1" d="M326.17,38.46l20.53,69.97c1.21,2.85,2.39,5.72,5.74,6.92l71.16-0.17
	c2.84-2.47,5.76-4.79,6.21-9.89l-20.16-69.96c-1.65-5.52-3.92-7.09-6.29-8.04l-72.52,0.09C327.3,29.49,326.06,33.43,326.17,38.46z"
	/>
<path id="path4638" class="st1" d="M222.53,38.21l20.53,69.97c1.21,2.85,2.39,5.72,5.74,6.92l71.16-0.17
	c2.84-2.47,5.76-4.79,6.21-9.89L306,35.08c-1.65-5.52-3.92-7.09-6.29-8.04l-72.52,0.09C223.66,29.24,222.42,33.18,222.53,38.21z"/>
<path id="path4640" class="st1" d="M137.87,33.32l-0.01,75.27c1.21,2.85,3.31,5.54,6.65,6.73l73.9-0.27
	c2.84-2.47,5.76-4.79,6.21-9.89l-20.16-69.96c-1.65-5.52-3.92-7.09-6.29-8.04l-54.81-0.09C139.82,29.18,139.04,29.2,137.87,33.32z"
	/>
<path id="path4642" class="st1" d="M120.18,35.62l-0.13,72.81c-1.21,2.85-2.39,5.72-5.74,6.92l-83.68-0.43
	c-2.84-2.47-5.76-4.79-6.21-9.89l25.07-69.7c1.65-5.52,3.92-7.09,6.29-8.04l59.74,0.22C119.04,29.62,120.29,30.59,120.18,35.62z"/>
</svg>
