<?xml version="1.0" encoding="utf-8"?>
<!-- Generator: Adobe Illustrator 23.0.1, SVG Export Plug-In . SVG Version: 6.00 Build 0)  -->
<svg version="1.1" id="svg2" xmlns:svg="http://www.w3.org/2000/svg"
	 xmlns="http://www.w3.org/2000/svg" xmlns:xlink="http://www.w3.org/1999/xlink" x="0px" y="0px" viewBox="0 0 1068.41 266.31"
	 style="enable-background:new 0 0 1068.41 266.31;" xml:space="preserve">
<style type="text/css">
	.st0{fill-rule:evenodd;clip-rule:evenodd;}
	.st1{fill-rule:evenodd;clip-rule:evenodd;fill:#FFFFFF;}
</style>
<g id="layer1">
	<path id="path1966" class="st0" d="M27.12,24.24L26.66,3.34c0.45-1.4,0.69-3.02,2.6-2.95L624.07,0
		c26.98,5.37,32.33,75.58,46.29,114.77v85c-6.8,15.98-14.14,17.28-21.43,20l-88.57-0.71c0-77.23-117.14-76.8-117.14,0H205.36
		c0-76.95-114.29-76.97-114.29,0H8.93c-3.89-1.14-6.55-4.76-8.93-8.93l0.95-76.21L35.73,33.53C36.94,26.86,29.99,27.33,27.12,24.24z
		"/>
	<path id="path2856" d="M548.57,219.32c0.02,25.78-20.87,46.7-46.65,46.72c-25.78,0.02-46.7-20.87-46.72-46.65c0-0.02,0-0.04,0-0.07
		c-0.02-25.78,20.87-46.7,46.65-46.72c25.78-0.02,46.7,20.87,46.72,46.65C548.57,219.27,548.57,219.3,548.57,219.32z"/>
	<path id="path3745" d="M195.32,219.59c0.02,25.78-20.87,46.7-46.65,46.72c-25.78,0.02-46.7-20.87-46.72-46.65c0-0.02,0-0.04,0-0.07
		c-0.02-25.78,20.87-46.7,46.65-46.72c25.78-0.02,46.7,20.87,46.72,46.65C195.32,219.54,195.32,219.57,195.32,219.59z"/>
	<path id="path3747" class="st1" d="M526.97,38.34l20.53,69.97c1.21,2.85,2.39,5.72,5.74,6.92l71.16-0.17
		c2.84-2.47,5.76-4.79,6.21-9.89l-20.16-69.96c-1.65-5.52-3.92-7.09-6.29-8.04l-72.52,0.09C528.11,29.37,526.86,33.31,526.97,38.34z
		"/>
	<path id="path4634" class="st1" d="M424.75,38.21l20.53,69.97c1.21,2.85,2.39,5.72,5.74,6.92l71.16-0.17
		c2.84-2.47,5.76-4.79,6.21-9.89l-20.16-69.96c-1.65-5.52-3.92-7.09-6.29-8.04l-72.52,0.09C425.89,29.24,424.64,33.18,424.75,38.21z
		"/>
	<path id="path4636" class="st1" d="M323.35,38.21l20.53,69.97c1.21,2.85,2.39,5.72,5.74,6.92l71.16-0.17
		c2.84-2.47,5.76-4.79,6.21-9.89l-20.16-69.96c-1.65-5.52-3.92-7.09-6.29-8.04l-72.52,0.09C324.48,29.24,323.24,33.18,323.35,38.21z
		"/>
	<path id="path4638" class="st1" d="M222.53,38.21l20.53,69.97c1.21,2.85,2.39,5.72,5.74,6.92l71.16-0.17
		c2.84-2.47,5.76-4.79,6.21-9.89L306,35.08c-1.65-5.52-3.92-7.09-6.29-8.04l-72.52,0.09C223.66,29.24,222.42,33.18,222.53,38.21z"/>
	<path id="path4640" class="st1" d="M137.87,33.32l-0.01,75.27c1.21,2.85,3.31,5.54,6.65,6.73l73.9-0.27
		c2.84-2.47,5.76-4.79,6.21-9.89l-20.16-69.96c-1.65-5.52-3.92-7.09-6.29-8.04l-54.81-0.09C139.82,29.18,139.04,29.2,137.87,33.32z"
		/>
	<path id="path4642" class="st1" d="M120.18,35.62l-0.13,72.81c-1.21,2.85-2.39,5.72-5.74,6.92l-83.68-0.43
		c-2.84-2.47-5.76-4.79-6.21-9.89l25.07-69.7c1.65-5.52,3.92-7.09,6.29-8.04l59.74,0.22C119.04,29.62,120.29,30.59,120.18,35.62z"/>
</g>
<g>
	<path id="path11867" class="st0" d="M1068.35,179.18v30.89h-44.03c-2.95-11.18-8.09-21.8-19.1-30.89H1068.35z"/>
	<path id="path10968" class="st0" d="M699.34,3.02h369.06v164.72H699.34V3.02z"/>
	<path id="path10970" d="M1014.27,220.8c0.02,22.86-18.5,41.41-41.36,41.43s-41.41-18.5-41.43-41.36c0-0.02,0-0.04,0-0.06
		c-0.02-22.86,18.5-41.41,41.36-41.43c22.86-0.02,41.41,18.5,41.43,41.36C1014.27,220.76,1014.27,220.78,1014.27,220.8z"/>
	<path id="path10972" d="M812.27,220.76c0.02,22.86-18.5,41.41-41.36,41.43c-22.86,0.02-41.41-18.5-41.43-41.36
		c0-0.02,0-0.04,0-0.06c-0.02-22.86,18.5-41.41,41.36-41.43c22.86-0.02,41.41,18.5,41.43,41.36
		C812.27,220.72,812.27,220.74,812.27,220.76z"/>
	<path id="path10980" class="st0" d="M675.36,178.99v30.89h44.02c2.95-11.18,8.09-21.8,19.1-30.89H675.36z"/>
	<path id="path11871" class="st0" d="M804.14,179.18c11.09,9.45,14.44,19.75,18.11,30.89h99.02c2.95-11.18,8.09-21.8,19.1-30.89
		H804.14z"/>
</g>
</svg>
