<?xml version="1.0" encoding="utf-8"?>
<!-- Generator: Adobe Illustrator 23.0.1, SVG Export Plug-In . SVG Version: 6.00 Build 0)  -->
<svg version="1.1" id="svg2" xmlns:svg="http://www.w3.org/2000/svg"
	 xmlns="http://www.w3.org/2000/svg" xmlns:xlink="http://www.w3.org/1999/xlink" x="0px" y="0px" viewBox="0 0 501.93 356.78"
	 style="enable-background:new 0 0 501.93 356.78;" xml:space="preserve">
<style type="text/css">
	.st0{fill-rule:evenodd;clip-rule:evenodd;}
	.st1{fill:none;stroke:#000000;stroke-width:50;stroke-linecap:round;stroke-linejoin:round;}
</style>
<g>
	<path id="path1882" class="st0" d="M336.36,2.44c-15.28,2.61-22.93,10.06-29,18.53l-17.78,107.69H18.52
		c-22.63,3.42-18.16,13.7-18.16,21.97l17.16,105.06h15.12c11.92-39.65,92.74-38.22,105.31,0h150.69
		c-4.38-69.29,95.27-166.91,195.97-71.75v-56.91h0.25V2.44H336.36z M330.36,30.03h110.38l0.31,97.38l-129.84,1.06l15.94-92.94
		C327.7,33.64,327.98,31.73,330.36,30.03z"/>
	<path id="path1887" class="st1" d="M476.93,254.4c0,42.62-34.55,77.17-77.17,77.17s-77.17-34.55-77.17-77.17
		s34.55-77.17,77.17-77.17S476.93,211.78,476.93,254.4z"/>
	<path id="path2776" class="st1" d="M131.01,286.12c0,25.21-20.44,45.65-45.65,45.65S39.7,311.34,39.7,286.12
		c0-25.21,20.44-45.65,45.65-45.65S131.01,260.91,131.01,286.12z"/>
	<g>
		<rect x="186.36" y="75" width="34.05" height="90"/>
		<rect x="197.36" width="11" height="85.75"/>
	</g>
</g>
</svg>
