<?xml version="1.0" encoding="utf-8"?>
<!-- Generator: Adobe Illustrator 23.0.1, SVG Export Plug-In . SVG Version: 6.00 Build 0)  -->
<!DOCTYPE svg PUBLIC "-//W3C//DTD SVG 1.1//EN" "http://www.w3.org/Graphics/SVG/1.1/DTD/svg11.dtd" [
	<!ENTITY ns_extend "http://ns.adobe.com/Extensibility/1.0/">
	<!ENTITY ns_ai "http://ns.adobe.com/AdobeIllustrator/10.0/">
	<!ENTITY ns_graphs "http://ns.adobe.com/Graphs/1.0/">
	<!ENTITY ns_vars "http://ns.adobe.com/Variables/1.0/">
	<!ENTITY ns_imrep "http://ns.adobe.com/ImageReplacement/1.0/">
	<!ENTITY ns_sfw "http://ns.adobe.com/SaveForWeb/1.0/">
	<!ENTITY ns_custom "http://ns.adobe.com/GenericCustomNamespace/1.0/">
	<!ENTITY ns_adobe_xpath "http://ns.adobe.com/XPath/1.0/">
]>
<svg version="1.1"
	 id="svg2" xmlns:x="&ns_extend;" xmlns:i="&ns_ai;" xmlns:graph="&ns_graphs;" xmlns:svg="http://www.w3.org/2000/svg"
	 xmlns="http://www.w3.org/2000/svg" xmlns:xlink="http://www.w3.org/1999/xlink" x="0px" y="0px" viewBox="0 0 675.7 369"
	 style="enable-background:new 0 0 675.7 369;" xml:space="preserve">
<style type="text/css">
	.st0{fill:none;stroke:#000000;stroke-width:39.3856;stroke-linecap:round;stroke-linejoin:round;}
	.st1{fill-rule:evenodd;clip-rule:evenodd;}
</style>
<metadata>
	<sfw  xmlns="&ns_sfw;">
		<slices></slices>
		<sliceSourceBounds  bottomLeftOrigin="true" height="369" width="675.7" x="2.1" y="8.9"></sliceSourceBounds>
	</sfw>
</metadata>
<g id="layer1">
	<path id="path15475" class="st0" d="M222.7,247.4c0,56.1-45.5,101.5-101.5,101.5S19.7,303.5,19.7,247.4s45.5-101.5,101.5-101.5
		S222.7,191.4,222.7,247.4z"/>
	<path id="path12814" class="st1" d="M646.9,84.6H433.7c-8,3.1-13.8,8.2-9.2,22.3l55,35.6c23.5-17.6,47.9-20.5,72.2-24.2l95.7-0.3
		L646.9,84.6z"/>
	<path id="path13701" class="st1" d="M580.9,273.7L359,273.5c-46.3-1.4-72.8-39.8-101.6-81.3c-50.3-72.7-57.6-73.5-67.9-107.2
		l73.9,0.1c4.9,1.5,9.8,2.2,14.8,8.3l44.5,63.3c3.7,15.7,0.6,28.3-3.3,41.8c-4.5,15.5,13.3,43.1,41.2,42l220.8-12.9L580.9,273.7z"/>
	<path id="path14588" class="st1" d="M106.6,239.6c1.8-5.4,85.7-209.9,85.7-209.9C202.5,11.4,216.8,1.3,235.5,0h57.6l-0.3,33.8
		h-55.5c-6.8-0.6-11.9,3.6-16.1,15.7l-83.7,204.2C129.3,272.7,98.3,266,106.6,239.6z"/>
	<path id="path17247" class="st0" d="M656,247.8c0,56.1-45.5,101.5-101.5,101.5S453,303.9,453,247.8s45.5-101.5,101.5-101.5
		S656,191.7,656,247.8z"/>
</g>
</svg>
