<?xml version="1.0" encoding="utf-8"?>
<!-- Generator: Adobe Illustrator 23.0.1, SVG Export Plug-In . SVG Version: 6.00 Build 0)  -->
<svg version="1.1"
	 id="svg6283" xmlns:cc="http://creativecommons.org/ns#" xmlns:dc="http://purl.org/dc/elements/1.1/" xmlns:rdf="http://www.w3.org/1999/02/22-rdf-syntax-ns#" xmlns:svg="http://www.w3.org/2000/svg"
	 xmlns="http://www.w3.org/2000/svg" xmlns:xlink="http://www.w3.org/1999/xlink" x="0px" y="0px" viewBox="0 0 417.1 1144.7"
	 style="enable-background:new 0 0 417.1 1144.7;" xml:space="preserve">
<style type="text/css">
	.st0{fill:#FFFFFF;}
	.st1{fill-rule:evenodd;clip-rule:evenodd;}
</style>
<path id="path6379" class="st0" d="M175.6,35.4c-8.2,0-14.9,6.7-14.9,15v997l119.3-9.9c-1.6-317.3,2.2-632.7,0-949.9
	c0-1.9-1.1-3.7-2.9-4.5l-75.5-46.7c-0.2-0.2-0.5-0.3-0.8-0.5c-0.7-0.3-1.4-0.5-2.1-0.5l0,0L175.6,35.4L175.6,35.4L175.6,35.4z"/>
<path id="path6381" d="M199,32.9l-23.4,0c-9.6,0-17.4,7.9-17.4,17.5v999.7l124.3-10.3l0-2.3c-1.6-317.2,2.2-632.6,0-949.9v0
	c0-2.8-1.6-5.5-4.3-6.8l0.3,0.1l-75.5-46.7l0.1,0.1c-0.4-0.3-0.8-0.5-1.2-0.7c-1-0.5-2.1-0.7-3.1-0.7l0.6,0.1L199,32.9L199,32.9
	L199,32.9z M175.6,37.9h22.8l0,0h0.3c0.4,0,0.7,0.1,1,0.2c0.1,0.1,0.3,0.1,0.4,0.2l0.1,0.1l75.7,46.8l0.1,0.1
	c0.9,0.4,1.4,1.3,1.4,2.3c2.2,316.5-1.5,631.1,0,947.6l-114.3,9.5V50.4C163.2,43.5,168.7,37.9,175.6,37.9L175.6,37.9z"/>
<path id="path6383" class="st1" d="M160.7,215.4v250l119.6,69.1c0.2-83.2,0.4-166.4,0.4-249.8L160.7,215.4z"/>
<path id="path6385" class="st0" d="M250.7,455c0-16.6-13.4-30-30-30s-30,13.4-30,30s13.4,30,30,30S250.7,471.5,250.7,455z"/>
<path id="path6409" class="st0" d="M250.7,295c0,16.6-13.4,30-30,30s-30-13.4-30-30c0-16.6,13.4-30,30-30S250.7,278.4,250.7,295z"/>
<path id="path6461" d="M340.2,1036.9l20.3,31l-3.3,2.2l-20.3-31L340.2,1036.9L340.2,1036.9z"/>
<path id="path6463" d="M329.7,1038.6l20.3,31l-3.3,2.2l-20.3-31L329.7,1038.6z"/>
<path id="path6465" d="M351.7,1037.3l20.3,31l-3.3,2.2l-20.3-31L351.7,1037.3L351.7,1037.3z"/>
<path id="path6467" d="M374,1036.3l20.3,31l-3.3,2.2l-20.3-31L374,1036.3L374,1036.3z"/>
<path id="path6469" d="M385.5,1037.3l20.3,31l-3.4,2.2l-20.3-31C382.1,1039.5,385.5,1037.3,385.5,1037.3z"/>
<path id="path6471" d="M396.7,1037.3l20.3,31l-3.4,2.2l-20.3-31C393.4,1039.5,396.7,1037.3,396.7,1037.3z"/>
<path id="path6473" class="st1" d="M331.9,1031.5l-263.2,20.3l0.8,10l262.8-20.3h68.5v-10H331.9z"/>
<path id="path6475" d="M189.5,1048.7l-3.2,2.5l22.8,29.3l3.2-2.5L189.5,1048.7L189.5,1048.7z"/>
<path id="path6477" d="M200.7,1047.8l-3.2,2.5l22.8,29.3l3.2-2.5L200.7,1047.8L200.7,1047.8z"/>
<path id="path6479" d="M212,1046.9l-3.2,2.5l22.8,29.3l3.2-2.5L212,1046.9z"/>
<path id="path6481" d="M234.4,1045l-3.2,2.5l22.8,29.3l3.2-2.5L234.4,1045z"/>
<path id="path6483" d="M245.6,1044.1l-3.2,2.5l22.8,29.3l3.2-2.5L245.6,1044.1L245.6,1044.1z"/>
<path id="path6485" d="M256.8,1043.2l-3.2,2.5l22.8,29.3l3.2-2.5L256.8,1043.2L256.8,1043.2z"/>
<path id="path6487" d="M281.5,1041.2l-3.2,2.5l22.8,29.3l3.2-2.5L281.5,1041.2z"/>
<path id="path6489" d="M292.7,1040.3l-3.2,2.5l22.8,29.3l3.2-2.5L292.7,1040.3z"/>
<path id="path6491" d="M303.9,1039.4l-3.2,2.5l22.8,29.3l3.2-2.5L303.9,1039.4z"/>
<path id="path6493" d="M72.3,1058l20.5,26.4h-5.1l-18.6-23.9C69.2,1060.4,72.3,1058,72.3,1058z"/>
<path id="path6495" d="M103.3,1072.2l2.9,3.1l-3.4,5.9h-4.6C98.2,1081.3,103.3,1072.2,103.3,1072.2z"/>
<path id="path6497" d="M97,1064.1l-9.1,16.7l2.8,3.2l9-16.4C99.6,1067.7,97,1064.1,97,1064.1z"/>
<path id="path6499" d="M90.7,1056l-9.4,17.2l3.1,3.3l9.3-17L90.7,1056L90.7,1056C90.7,1056,90.7,1056,90.7,1056z"/>
<path id="path6501" d="M94.8,1056.2l21.5,27.6h-5.1l-19.5-25.1L94.8,1056.2z"/>
<path id="path6503" d="M106,1055.3l20.3,26h-5.1l-18.3-23.6C102.8,1057.7,106,1055.3,106,1055.3z"/>
<path id="path6505" d="M117.2,1054.3l21,26.9h-5.1l-19-24.5C114,1056.8,117.2,1054.3,117.2,1054.3z"/>
<path id="path6507" d="M141.9,1052.4l22.5,28.9h-5.1l-20.6-26.5L141.9,1052.4z"/>
<path id="path6509" d="M153.1,1051.4l22.8,29.3l-0.8,0.6h-3.9l-21.3-27.4C149.9,1053.9,153.1,1051.4,153.1,1051.4z"/>
<path id="path6511" d="M164.3,1050.5l22.8,29.3l-1.9,1.5h-2l-22-28.3L164.3,1050.5L164.3,1050.5z"/>
<path id="path6513" d="M138.1,1052.8l-10.4,18.7l3.5,1.9l10.4-18.7C141.6,1054.7,138.1,1052.8,138.1,1052.8z"/>
<path id="path6515" d="M144.6,1060.6l-10.4,18.7l3.5,1.9l10.4-18.7C148,1062.5,144.6,1060.6,144.6,1060.6z"/>
<path id="path6517" d="M150.9,1068.5l-8.4,15l3.5,1.9l8.4-15L150.9,1068.5z"/>
<path id="path6519" d="M184.4,1050.2l-10.4,18.7l3.5,1.9l10.4-18.7L184.4,1050.2z"/>
<path id="path6521" d="M191.3,1056.9l-10.4,18.7l3.5,1.9l10.4-18.7C194.8,1058.8,191.3,1056.9,191.3,1056.9z"/>
<path id="path6523" d="M197.9,1064.7l-8.4,15l3.5,1.9l8.4-15C201.4,1066.7,197.9,1064.7,197.9,1064.7z"/>
<path id="path6525" d="M230.8,1045.2l-10.4,18.7l3.5,1.9l10.4-18.7L230.8,1045.2z"/>
<path id="path6527" d="M237.7,1051.8l-10.4,18.7l3.5,1.9l10.4-18.7C241.1,1053.8,237.7,1051.8,237.7,1051.8z"/>
<path id="path6529" d="M244.3,1059.7l-8.4,15l3.5,1.9l8-14.2L244.3,1059.7z"/>
<path id="path6531" d="M277.3,1042.4l-10.4,18.7l3.5,1.9l10.4-18.7L277.3,1042.4z"/>
<path id="path6533" d="M284.1,1049.1l-10.4,18.7l3.5,1.9l10.4-18.7L284.1,1049.1z"/>
<path id="path6535" d="M290.8,1056.9l-8.4,15l3.5,1.9l8-14.2L290.8,1056.9z"/>
<path id="path6537" d="M324.4,1038.2l-10.4,18.7l3.5,1.9l10.4-18.7C327.9,1040.2,324.4,1038.2,324.4,1038.2z"/>
<path id="path6539" d="M331.2,1044.9l-10.4,18.7l3.5,1.9l10.4-18.7C334.7,1046.8,331.2,1044.9,331.2,1044.9z"/>
<path id="path6541" d="M337.8,1052.7l-8.4,15l3.5,1.9l8-14.2L337.8,1052.7z"/>
<path id="path6543" d="M370.3,1036.9l-11.7,17.9l3.4,2.2l11.7-17.9L370.3,1036.9z"/>
<path id="path6545" d="M376.8,1044.4l-11.7,17.9l3.3,2.2l11.7-17.9L376.8,1044.4L376.8,1044.4z"/>
<path id="path6547" d="M382.8,1052.7l-10.5,15.7l3.3,2.2l10-14.9L382.8,1052.7z"/>
</svg>
