<?xml version="1.0" encoding="utf-8"?>
<!-- Generator: Adobe Illustrator 23.0.1, SVG Export Plug-In . SVG Version: 6.00 Build 0)  -->
<svg version="1.1"
	 id="svg5479" xmlns:cc="http://creativecommons.org/ns#" xmlns:dc="http://purl.org/dc/elements/1.1/" xmlns:rdf="http://www.w3.org/1999/02/22-rdf-syntax-ns#" xmlns:svg="http://www.w3.org/2000/svg"
	 xmlns="http://www.w3.org/2000/svg" xmlns:xlink="http://www.w3.org/1999/xlink" x="0px" y="0px" viewBox="0 0 348.4 1052.6"
	 style="enable-background:new 0 0 348.4 1052.6;" xml:space="preserve">
<style type="text/css">
	.st0{fill:#FFFFFF;}
	.st1{fill-rule:evenodd;clip-rule:evenodd;}
</style>
<path id="path5517" class="st0" d="M241.5,2.5c8.2,0,14.9,6.7,14.9,15v997l-119.3-9.9c1.6-317.3-2.2-632.7,0-949.9
	c0-1.9,1.1-3.7,2.9-4.5l75.5-46.7c0.2-0.2,0.5-0.3,0.8-0.5c0.7-0.3,1.4-0.5,2.1-0.5l0,0H241.5z"/>
<path id="path5519" d="M218.1,0l-0.3,0.1l0.6-0.1c-1,0-2.1,0.2-3.1,0.7c-0.4,0.2-0.8,0.5-1.2,0.7l0.2-0.1l-75.5,46.7l0.2-0.1
	c-2.7,1.3-4.3,4-4.3,6.8c-2.2,317.3,1.6,632.7,0,949.9l0,2.3l124.3,10.3V17.5C258.9,7.9,251,0,241.4,0L218.1,0L218.1,0z M218.7,5
	h22.7c6.9,0,12.4,5.6,12.4,12.5v994.3l-114.3-9.5c1.5-316.5-2.2-631.1,0-947.6c0-0.9,0.5-1.8,1.4-2.3l0.1-0.1l75.7-46.8l0.1-0.1
	c0.1-0.1,0.3-0.2,0.4-0.2h0c0.3-0.2,0.6-0.2,1-0.2L218.7,5L218.7,5z"/>
<path id="path5521" class="st1" d="M256.1,182.5v250l-119.6,69.1c-0.2-83.2-0.4-166.4-0.4-249.8L256.1,182.5z"/>
<path id="path5555" d="M76.8,1004l-20.3,31l3.3,2.2l20.3-31C80.2,1006.2,76.8,1004,76.8,1004z"/>
<path id="path5557" d="M87.4,1005.7l-20.3,31l3.3,2.2l20.3-31L87.4,1005.7z"/>
<path id="path5559" d="M65.4,1004.4l-20.3,31l3.3,2.2l20.3-31L65.4,1004.4z"/>
<path id="path5561" d="M43,1003.4l-20.3,31l3.3,2.2l20.3-31L43,1003.4z"/>
<path id="path5563" d="M31.6,1004.4l-20.3,31l3.4,2.2l20.3-31L31.6,1004.4z"/>
<path id="path5565" d="M20.3,1004.4l-20.3,31l3.4,2.2l20.3-31L20.3,1004.4z"/>
<path id="path5567" class="st1" d="M85.2,998.6l263.2,20.3l-0.9,10l-262.8-20.3H16.3v-10C16.3,998.6,85.2,998.6,85.2,998.6z"/>
<path id="path5569" d="M227.5,1015.8l3.2,2.5l-22.8,29.3l-3.2-2.5L227.5,1015.8L227.5,1015.8z"/>
<path id="path5571" d="M216.3,1014.9l3.2,2.5l-22.8,29.3l-3.2-2.5L216.3,1014.9L216.3,1014.9z"/>
<path id="path5573" d="M205.1,1013.9l3.2,2.5l-22.8,29.3l-3.2-2.5L205.1,1013.9z"/>
<path id="path5575" d="M182.7,1012.1l3.2,2.5l-22.8,29.3l-3.2-2.5L182.7,1012.1L182.7,1012.1z"/>
<path id="path5577" d="M171.5,1011.2l3.2,2.5l-22.8,29.3l-3.2-2.5L171.5,1011.2z"/>
<path id="path5579" d="M160.3,1010.3l3.2,2.5l-22.8,29.3l-3.2-2.5L160.3,1010.3z"/>
<path id="path5581" d="M135.6,1008.3l3.2,2.5L116,1040l-3.2-2.5L135.6,1008.3z"/>
<path id="path5583" d="M124.4,1007.4l3.2,2.5l-22.8,29.3l-3.2-2.5C101.6,1036.7,124.4,1007.4,124.4,1007.4z"/>
<path id="path5585" d="M113.1,1006.5l3.2,2.5l-22.8,29.3l-3.2-2.5L113.1,1006.5z"/>
<path id="path5587" d="M344.8,1025.1l-20.5,26.4h5.1l18.6-23.9L344.8,1025.1z"/>
<path id="path5589" d="M313.8,1039.3l-2.9,3.1l3.4,5.9h4.6C318.9,1048.4,313.8,1039.3,313.8,1039.3z"/>
<path id="path5591" d="M320.1,1031.2l9.1,16.7l-2.8,3.2l-9-16.4L320.1,1031.2L320.1,1031.2z"/>
<path id="path5593" d="M326.4,1023.1l9.4,17.2l-3.1,3.3l-9.3-17L326.4,1023.1L326.4,1023.1L326.4,1023.1z"/>
<path id="path5595" d="M322.3,1023.3l-21.5,27.6h5.1l19.5-25.1L322.3,1023.3z"/>
<path id="path5597" d="M311.1,1022.3l-20.3,26h5.1l18.4-23.6L311.1,1022.3L311.1,1022.3z"/>
<path id="path5599" d="M299.9,1021.4l-21,26.9h5.1l19-24.5L299.9,1021.4L299.9,1021.4z"/>
<path id="path5601" d="M275.2,1019.4l-22.5,28.9h5.1l20.6-26.5L275.2,1019.4L275.2,1019.4z"/>
<path id="path5603" d="M264,1018.5l-22.8,29.3l0.8,0.6h3.9l21.3-27.4L264,1018.5L264,1018.5z"/>
<path id="path5605" d="M252.8,1017.6l-22.8,29.3l1.9,1.5h2l22-28.3L252.8,1017.6L252.8,1017.6z"/>
<path id="path5607" d="M279,1019.9l10.4,18.7l-3.5,1.9l-10.4-18.7C275.5,1021.8,279,1019.9,279,1019.9z"/>
<path id="path5609" d="M272.5,1027.7l10.4,18.7l-3.5,1.9l-10.4-18.7C269,1029.6,272.5,1027.7,272.5,1027.7z"/>
<path id="path5611" d="M266.2,1035.6l8.4,15l-3.5,1.9l-8.4-15L266.2,1035.6z"/>
<path id="path5613" d="M232.7,1017.3l10.4,18.7l-3.5,1.9l-10.4-18.7L232.7,1017.3z"/>
<path id="path5615" d="M225.8,1024l10.4,18.7l-3.5,1.9l-10.4-18.7C222.3,1025.9,225.8,1024,225.8,1024z"/>
<path id="path5617" d="M219.2,1031.8l8.4,15l-3.5,1.9l-8.4-15C215.7,1033.8,219.2,1031.8,219.2,1031.8z"/>
<path id="path5619" d="M186.3,1012.3l10.4,18.7l-3.5,1.9l-10.4-18.7L186.3,1012.3z"/>
<path id="path5621" d="M179.4,1018.9l10.4,18.7l-3.5,1.9l-10.4-18.7C175.9,1020.9,179.4,1018.9,179.4,1018.9z"/>
<path id="path5623" d="M172.8,1026.8l8.4,15l-3.5,1.9l-8-14.2L172.8,1026.8z"/>
<path id="path5625" d="M139.8,1009.5l10.4,18.7l-3.5,1.9l-10.4-18.7L139.8,1009.5z"/>
<path id="path5627" d="M132.9,1016.2l10.4,18.7l-3.5,1.9l-10.4-18.7L132.9,1016.2z"/>
<path id="path5629" d="M126.3,1024l8.4,15l-3.5,1.9l-8-14.2L126.3,1024z"/>
<path id="path5631" d="M92.7,1005.3l10.4,18.7l-3.5,1.9l-10.4-18.7C89.2,1007.3,92.7,1005.3,92.7,1005.3z"/>
<path id="path5633" d="M85.9,1011.9l10.4,18.7l-3.5,1.9l-10.4-18.7C82.4,1013.9,85.9,1011.9,85.9,1011.9z"/>
<path id="path5635" d="M79.2,1019.8l8.4,15l-3.5,1.9l-8-14.2L79.2,1019.8z"/>
<path id="path5637" d="M46.8,1004l11.7,17.9l-3.4,2.2l-11.7-17.9L46.8,1004z"/>
<path id="path5639" d="M40.3,1011.5l11.7,17.9l-3.3,2.2L37,1013.7C37,1013.7,40.3,1011.5,40.3,1011.5z"/>
<path id="path5641" d="M34.3,1019.8l10.4,15.7l-3.3,2.2l-10-14.9C31.4,1022.8,34.3,1019.8,34.3,1019.8z"/>
<path id="path5739" class="st0" d="M176.1,252.7h40v180h-40V252.7z"/>
</svg>
