<?xml version="1.0" encoding="utf-8"?>
<!DOCTYPE svg PUBLIC "-//W3C//DTD SVG 1.0//EN" "http://www.w3.org/TR/2001/REC-SVG-20010904/DTD/svg10.dtd" [
	<!ENTITY ns_svg "http://www.w3.org/2000/svg">
	<!ENTITY ns_xlink "http://www.w3.org/1999/xlink">
]>
<svg  version="1.0" xmlns="&ns_svg;" xmlns:xlink="&ns_xlink;" width="200" height="200" viewBox="0 0 200 200"
	 overflow="visible" enable-background="new 0 0 200 200" xml:space="preserve">
<g id="Blau">
	<rect fill="#003399" width="200" height="200"/>
</g>
<g id="U">
	<g>
		<rect x="38" y="29" fill="#FFFFFF" width="29.249" height="47.5"/>
		<rect x="132.751" y="29" fill="#FFFFFF" width="29.248" height="47.5"/>
		<path fill="#FFFFFF" d="M161.999,100.25c0,0,0,6.875,0,25S150.375,180.25,100,180.25S38,146.5,38,125.25s0-25,0-25H67.25v25
			c0,0-0.25,32.499,32.75,32.499s32.751-32.499,32.751-32.499v-25H161.999z"/>
	</g>
</g>
<g id="stadtbahn">
	<g>
		<g>
			<g>
				<path fill="#FFFFFF" d="M119.772,84.5h-5.749c-2,0-3,2-3,2V80h-4.249V96.25h4.249V94c0,0,1.438,2.25,3,2.25h5.25
					c2.125,0,4-1.75,4-3v-5.5C123.273,86.937,122.211,84.5,119.772,84.5z M118.773,91.5c0,0.875-0.812,1.25-1.5,1.25h-4
					c-0.875,0-2.25-0.875-2.25-1.5V89.5c0-1.063,1.438-1.75,2.25-1.75h4c1.001,0,1.5,1,1.5,1.75V91.5z"/>
			</g>
		</g>
		<g>
			<g>
				<path fill="#FFFFFF" d="M84.774,80v6.5c0,0-1-2-3-2h-5.75c-2.438,0-3.5,2.437-3.5,3.25v5.5c0,1.25,1.875,3,4,3h5.25
					c1.563,0,3-2.25,3-2.25v2.25h4.25V80H84.774z M84.774,91.25c0,0.625-1.375,1.5-2.25,1.5h-4c-0.688,0-1.5-0.375-1.5-1.25v-2
					c0-0.75,0.5-1.75,1.5-1.75h4c0.813,0,2.25,0.687,2.25,1.75V91.25z"/>
			</g>
		</g>
		<path fill="#FFFFFF" d="M37.274,88h-4.25c0,0-0.063-1-1.25-1c-1.188,0-3.313,0-4.251,0c-0.937,0-1,1-1,1s0,0.75,1,0.75
			c1,0,3.813,0,7,0c3.188,0,3.5,2.188,3.5,2.75s0,1.5,0,2c0,0.5-0.688,2.75-3.25,2.75c-2.563,0-3.125,0-8.25,0
			c-5.125,0-4.5-3.5-4.5-3.5h4.25c0,0,0.438,0.75,1.25,0.75c0.813,0,5,0,5,0s1-0.125,1-0.75c0-0.625-1-0.75-1-0.75s-4.813,0-7,0
			s-3.5-1.875-3.5-2.5c0-0.625,0-1.125,0-2c0-0.875,0.688-3,3.5-3s2.75,0,7.5,0S37.274,88,37.274,88z"/>
		<path fill="#FFFFFF" d="M41.024,82h4.5v2.5h6.75v3.25h-6.75v3.5c0,0-0.438,1.75,1.75,1.75s1.75-1.75,1.75-1.75h3.25
			c0,0,0,1.563,0,2.25c0,0.687-0.188,2.75-3,2.75s-3.438,0-5.25,0c-1.813,0-3-2.375-3-3s0-5.5,0-5.5h-2.25V84.5h2.25V82z"/>
		<path fill="#FFFFFF" d="M92.774,82h4.5v2.5h6.75v3.25h-6.75v3.5c0,0-0.438,1.75,1.75,1.75c2.187,0,1.75-1.75,1.75-1.75h3.25
			c0,0,0,1.563,0,2.25c0,0.687-0.188,2.75-3.001,2.75c-2.812,0-3.437,0-5.25,0c-1.813,0-3-2.375-3-3s0-5.5,0-5.5h-2.25V84.5h2.25V82
			z"/>
		<path fill="#FFFFFF" d="M143.773,80h4.5v6.25c0,0,1.688-1.75,3.25-1.75c1.563,0,0.188,0,3.501,0c3.312,0,4.75,2.75,4.75,4
			c0,1.25,0,7.75,0,7.75h-4.501c0,0,0-5.5,0-6c0-0.5-0.249-2-1.75-2c-1.499,0-1.625,0-2.999,0c-1.376,0-2.251,1-2.251,2c0,1,0,6,0,6
			h-4.5V80z"/>
		<path fill="#FFFFFF" d="M162.023,84.5h4.5v1.75c0,0,1.688-1.75,3.25-1.75c1.563,0,0.188,0,3.5,0c3.313,0,4.751,2.75,4.751,4
			c0,1.25,0,7.75,0,7.75h-4.501c0,0,0-5.5,0-6c0-0.5-0.25-2-1.751-2c-1.498,0-1.624,0-2.998,0c-1.376,0-2.251,1-2.251,2c0,1,0,6,0,6
			h-4.5V84.5z"/>
		<g>
			<g>
				<path fill="#FFFFFF" d="M66.273,84.5h-7c-4.417,0-4.5,3.25-4.5,3.25h4c0,0-0.167-0.75,1-0.75h4.5c1.5,0,1.25,2.75,1.25,2.75
					s-1.083-1-2.75-1h-5c-2.25,0-3.25,1.833-3.25,2.5v2c0,0.917,0.917,3,3.25,3h4.75c1.917,0,3-1.75,3-1.75v1.75h4.25
					c0,0,0-5.417,0-8C69.774,85.667,67.857,84.5,66.273,84.5z M63.774,93.25h-4c0,0-1-0.084-1-1c0-0.916,1-1,1-1h4
					c0,0,1.75,0.084,1.75,1C65.524,93.167,63.774,93.25,63.774,93.25z"/>
			</g>
		</g>
		<g>
			<g>
				<path fill="#FFFFFF" d="M137.149,84.5h-7.001c-4.416,0-4.499,3.25-4.499,3.25h4c0,0-0.167-0.75,0.999-0.75h4.501
					c1.499,0,1.25,2.75,1.25,2.75s-1.084-1-2.751-1h-5c-2.249,0-3.249,1.833-3.249,2.5v2c0,0.917,0.916,3,3.249,3h4.751
					c1.916,0,3-1.75,3-1.75v1.75h4.249c0,0,0-5.417,0-8C140.648,85.667,138.732,84.5,137.149,84.5z M134.648,93.25h-4
					c0,0-0.999-0.084-0.999-1c0-0.916,0.999-1,0.999-1h4c0,0,1.751,0.084,1.751,1C136.399,93.167,134.648,93.25,134.648,93.25z"/>
			</g>
		</g>
	</g>
</g>
</svg>
