<?xml version="1.0" encoding="utf-8"?>
<!-- Generator: Adobe Illustrator 23.0.1, SVG Export Plug-In . SVG Version: 6.00 Build 0)  -->
<!DOCTYPE svg PUBLIC "-//W3C//DTD SVG 1.1//EN" "http://www.w3.org/Graphics/SVG/1.1/DTD/svg11.dtd" [
	<!ENTITY ns_extend "http://ns.adobe.com/Extensibility/1.0/">
	<!ENTITY ns_ai "http://ns.adobe.com/AdobeIllustrator/10.0/">
	<!ENTITY ns_graphs "http://ns.adobe.com/Graphs/1.0/">
	<!ENTITY ns_vars "http://ns.adobe.com/Variables/1.0/">
	<!ENTITY ns_imrep "http://ns.adobe.com/ImageReplacement/1.0/">
	<!ENTITY ns_sfw "http://ns.adobe.com/SaveForWeb/1.0/">
	<!ENTITY ns_custom "http://ns.adobe.com/GenericCustomNamespace/1.0/">
	<!ENTITY ns_adobe_xpath "http://ns.adobe.com/XPath/1.0/">
]>
<svg version="1.1" id="Layer_1" xmlns:x="&ns_extend;" xmlns:i="&ns_ai;" xmlns:graph="&ns_graphs;"
	 xmlns="http://www.w3.org/2000/svg" xmlns:xlink="http://www.w3.org/1999/xlink" x="0px" y="0px" viewBox="0 0 573.6 574.7"
	 style="enable-background:new 0 0 573.6 574.7;" xml:space="preserve">
<style type="text/css">
	.st0{fill:#154889;}
	.st1{fill:none;stroke:#C1121C;stroke-width:33.5104;}
	.st2{fill:#C1121C;}
	.st3{fill-rule:evenodd;clip-rule:evenodd;}
	.st4{font-family:'ArialNarrow-BoldItalic';}
	.st5{font-size:82px;}
</style>
<metadata>
	<sfw  xmlns="&ns_sfw;">
		<slices></slices>
		<sliceSourceBounds  bottomLeftOrigin="true" height="564.7" width="564.2" x="410.6" y="147.6"></sliceSourceBounds>
	</sfw>
</metadata>
<g id="g6082" transform="matrix(1.25,0,0,-1.25,0,600.99628)">
	<g id="g6084">
		<path id="path6088" class="st0" d="M319.9,355.3c0-51.5-41.3-93.3-92.3-93.3s-92.3,41.8-92.3,93.3s41.3,93.3,92.3,93.3
			S319.9,406.8,319.9,355.3z"/>
		<path id="path6092" class="st1" d="M331.7,355.3c0-57.5-46.6-104.1-104.1-104.1s-104.1,46.6-104.1,104.1s46.6,104.1,104.1,104.1
			S331.7,412.8,331.7,355.3z"/>
		<path id="path6142" class="st2" d="M164,436.6l-17.7-17.7l63.6-63.5l-63.6-63.6l17.7-17.7l63.6,63.5l63.6-63.5l17.7,17.7
			l-63.6,63.6l63.6,63.5l-17.7,17.7L227.6,373L164,436.6z"/>
	</g>
</g>
<g>
	<path id="path3326" class="st3" d="M378.6,549.9c-7.9-1-13.4-8.5-12.5-16s8.1-13.5,16-12.5s13.5,8.4,12.6,16
		C393.7,544.9,386.6,550.9,378.6,549.9 M485.4,562.9c-7.9-1-13.5-8.5-12.6-16s8.1-13.5,16-12.5s13.4,8.4,12.5,16
		C500.5,557.9,493.3,563.8,485.4,562.9 M363.3,533.5c1.4-9,9.8-15.4,18.9-14.3c9.1,1.1,15.8,9.4,14.9,18.5
		c24.3,2.9,48.4,5.9,72.8,8.8c1.4-9.2,9.9-15.7,19.1-14.6c9.1,1.1,15.7,9.2,14.9,18.4c5.2,0.4,10.4,0.8,15.6,1.1l6.1-16.4l-2.9-17.3
		l-22.8-2.8l-21.2-27.5l-58.7-7.1l-32.8,21.2l-38.8-2.4l-6.8,14.7l6.3,15.9L363.3,533.5L363.3,533.5z M395,502.2l26.8-16.9l19.2,2.3
		l-2.6,19.8L395,502.2L395,502.2z M444.9,488.3l19.4,2.4l11,21l-32.7-4L444.9,488.3z"/>
	<g>
		<path class="st3" d="M296.6,552.6h-15.8c0-8.6-3.9-16.7-10.6-22.1h45.4v15.7L296.6,552.6z M338.5,516.5l-22.3-82.9l-155.2,58
			l16.7,15.8h137.7v13.9H163h-34.1v-13.9v-21.6l192.7-61.1l20,84.2 M169.3,507.4L155,493.8l-8.6,3.2l7.1,10.4H169.3z M274.4,552.6
			c0,12.3-9.9,22.1-22.1,22.1c-12.2,0-22.1-9.9-22.1-22.1c0-12.2,10-22.1,22.1-22.1C264.5,530.5,274.4,540.3,274.4,552.6z
			 M103.7,552.6c0,12.3-9.9,22.1-22.1,22.1c-12.2,0-22.1-9.9-22.1-22.1c0-12.2,10-22.1,22.1-22.1
			C93.8,530.5,103.7,540.3,103.7,552.6z M119.6,457.8v72.7h114.8c-6.7,5.4-10.6,13.5-10.6,22.1H110c0-15.7-12.7-28.5-28.5-28.5
			c-15.7,0-28.5,12.8-28.5,28.5h-3.2c-3.5,0-6.4-2.7-6.4-6.3v-35c0-3.1,0.6-6,1.6-8.8l14-37.1c0.8-2.3,3-4,5.4-4.2L119.6,457.8z
			 M97.4,500.4l-42.1,4.9c-1.7,0.2-3.2-1-3.4-2.7c-0.1-0.5,0-1,0.1-1.4l10.7-28.3c0.4-1.1,1.5-1.9,2.7-2l32-2V500.4L97.4,500.4z
			 M252.2,539.7c7.4,0,13.5,6,13.5,13.5s-6,13.5-13.5,13.5s-13.5-6-13.5-13.5S244.7,539.7,252.2,539.7z M81.1,539.7
			c7.4,0,13.5,6,13.5,13.5s-6,13.5-13.5,13.5s-13.5-6-13.5-13.5S73.7,539.7,81.1,539.7z"/>
	</g>
</g>
<text transform="matrix(1 0 0 1 14.8659 395.0677)" class="st4 st5">No Parking Here! </text>
</svg>
