<?xml version="1.0" encoding="utf-8"?>
<!-- Generator: Adobe Illustrator 22.0.1, SVG Export Plug-In . SVG Version: 6.00 Build 0)  -->
<svg version="1.1" id="svg2" xmlns:svg="http://www.w3.org/2000/svg"
	 xmlns="http://www.w3.org/2000/svg" xmlns:xlink="http://www.w3.org/1999/xlink" x="0px" y="0px" viewBox="0 0 2200 1800"
	 style="enable-background:new 0 0 2200 1800;" xml:space="preserve">
<style type="text/css">
	.st0{fill:#FFFFFF;stroke:#000000;stroke-width:2;}
	.st1{fill:#999999;}
	.st2{fill:#EA8888;}
	.st3{fill:#FFFFFF;stroke:#000000;stroke-width:3;}
	.st4{fill:none;stroke:#000000;stroke-width:3;}
	.st5{fill:none;stroke:#000000;}
	.st6{fill:#FFFFFF;stroke:#000000;}
	.st7{fill:none;stroke:#000000;stroke-width:2;}
</style>
<path id="path14402" class="st0" d="M436.3,339.7l0.1,13h509.3l9.2-13.9L436.3,339.7z"/>
<path id="path15289" class="st0" d="M2187.7,371.2l-0.1,10.3l-387.7,0.4c-12.2,0-13.9,5.1-15.1,9.6l-181.6,1392.7L1774.6,391
	l8.4-18.3L2187.7,371.2z"/>
<path id="path12616" class="st1" d="M455.7,315.9l151.5-163.1l505.5,3.5l41.4-17.1L1236.8,16h552.7l-9.9,126.7
	c3.9,10.2,11.8,16.7,27.2,16l381.9-1.7v178l-410.3-0.1c-20.3,1.3-38.7,6.9-46.1,30.2l-224.6,1432.2l-1419.3,0.3L993,366.6
	c21.8-40.1-15.4-33.4-24.6-51.2L455.7,315.9z"/>
<polygon class="st2" points="1507.8,1797.3 1334.1,1800 1698.2,16 1789.2,17 1791.3,156.6 1765.2,335.4 "/>
<path id="path1882" class="st3" d="M11.2,1783.6h76.1L998.7,342.7c4.3-9.6-14.5-27.4-35.4-27.6l-504.9,0.2l-19.8,21.9l516,1.9
	L11.2,1783.6z"/>
<path id="path5492" class="st4" d="M88.6,1783l0.9,10.1L989.8,371.7c5.8-12.1,12.7-21.9,9.9-31.8L88.6,1783z"/>
<path id="path7265" class="st0" d="M621.4,131.9l-13.9,13.4v7.9l489.8,3.4c35.5,0.4,49.9-10.2,58.9-23l80.2-117.8V7.2h-20.6
	l-72.8,106c-8.7,13.9-31.2,21.8-45.3,21.4L621.4,131.9z"/>
<path id="path9037" class="st5" d="M607.4,145.6l491.4,1.4c25.6,0.5,41.2-4.7,51.8-16.6l85.6-123.5"/>
<path id="path9039" class="st6" d="M1436.5,17L654.8,1797.3h31.4L1461.2,17H1436.5z"/>
<path id="path9041" class="st6" d="M1595.1,406.8L1302.7,1800h31.4l285.7-1393.2H1595.1z"/>
<path id="path9063" class="st3" d="M1508.1,1782.8l224.3-1419.5c9-23.3,30.7-27.4,54.5-28.5h400.4v36.9l-385.1,0.9
	c-15,0-24,4.7-27.1,20.7l-172,1389.8L1508.1,1782.8z"/>
<path id="path9950" class="st0" d="M2187.7,157.7v-24.3l-372,0.1c-10.1-0.3-13.6-2.1-12.7-10.7l7.1-105.6l-20.9-0.2l-9.1,122.1
	c-0.3,4.9,3.7,18.5,18.2,18.5L2187.7,157.7z"/>
<path id="path11728" class="st7" d="M2187.8,147.3h-381c-22.1-0.1-23.8-5.6-26.3-13.8"/>
<path id="path12630" class="st4" d="M1507.8,1797.3v-14.6"/>
<polygon class="st6" points="1623.3,393.5 1598.8,393.5 1607.8,348.9 1632.3,348.9 "/>
<polygon class="st6" points="1634.7,335.6 1610.1,335.6 1619.1,291 1643.7,291 "/>
<polygon class="st6" points="1646,277.7 1621.4,277.7 1630.4,233.1 1655,233.1 "/>
<polygon class="st6" points="1657.3,219.8 1632.8,219.8 1641.8,175.2 1666.3,175.2 "/>
<polygon class="st6" points="1668.7,161.9 1644.1,161.9 1653.1,117.3 1677.7,117.3 "/>
<polygon class="st6" points="1789.7,333.9 1765.2,335.4 1771.3,290.3 1795.8,288.8 "/>
<polygon class="st6" points="1796.7,277.2 1772.2,278.7 1778.3,236.7 1802.8,235.1 "/>
<polygon class="st6" points="1805,226.2 1780.5,227.7 1786.6,185.7 1811.1,184.1 "/>
<path class="st6" d="M1812,175.2l-24.5,1.6l3.8-20.1c8.1,0.8,16.6,1,25.1,1L1812,175.2z"/>
<polygon class="st6" points="1680,104 1655.4,104 1673.7,16 1698.2,16 "/>
</svg>
