<?xml version="1.0" encoding="utf-8"?>
<!-- Generator: Adobe Illustrator 22.0.1, SVG Export Plug-In . SVG Version: 6.00 Build 0)  -->
<svg version="1.1" id="Layer_1" xmlns="http://www.w3.org/2000/svg" xmlns:xlink="http://www.w3.org/1999/xlink" x="0px" y="0px"
	 viewBox="0 0 850.4 850.4" style="enable-background:new 0 0 850.4 850.4;" xml:space="preserve">
<style type="text/css">
	.st0{fill:#9A9B9B;stroke:#000000;stroke-width:1.22;stroke-miterlimit:10;}
	.st1{fill:#363F3E;stroke:#000000;stroke-miterlimit:10;}
	.st2{fill:#177494;}
	.st3{fill:#3587A3;}
	.st4{fill:#304048;}
	.st5{fill:#3C4F58;}
	.st6{fill:#FBFAF9;}
	.st7{fill:#E8E5D9;}
	.st8{fill:#12617C;}
	.st9{fill:#EF7B6F;}
	.st10{fill:none;stroke:#FFFFFF;stroke-width:7;stroke-miterlimit:10;stroke-dasharray:12;}
	.st11{fill:url(#SVGID_1_);}
	.st12{fill:url(#SVGID_2_);}
	.st13{fill:url(#SVGID_3_);}
	.st14{fill:#020203;}
	.st15{fill:#0A9F39;}
	.st16{fill:#4D4D4D;stroke:#4D4D4D;stroke-width:0.5954;stroke-linejoin:round;}
	.st17{fill:#FFFFFF;}
</style>
<path class="st0" d="M850.4,277.6v295.3H599.1c-14.5,0-26.2,11.8-26.2,26.2v251.3H277.6V0h295.3v248.6c0,16,13,29,29,29H850.4z"/>
<path class="st1" d="M850.4,304.2v242H580.3c-18.8,0-34.1,15.3-34.1,34.1v270.1h-242V580.3c0-16.3,0-294,0-310.3V0h242v270.1
	c0,18.8,15.3,34.1,34.1,34.1H850.4z"/>
<g>
	<g>
		<path class="st2" d="M441.4,642.6c-11.2-2.1-22.6-8.3-33.9-8.3c-11.4,0-22.7,6.2-33.9,8.3c-6.7,1.2-11.4,14.6-11.4,24.3
			c0,20.7,1.5,33.2,1.5,33.2v119.5c0.1,0.2,0.2,0.4,0.4,0.6c5.4,9.4,14.8,15.9,25.6,17.3c5.8,0.8,11.9,1.1,17.9,1.1
			c5.9,0,12.1-0.3,17.9-1.1c10.7-1.4,20.2-7.9,25.6-17.3l0.4-0.6V700.1c0,0,1.5-12.4,1.5-33.2C452.8,657.3,448.1,643.9,441.4,642.6z
			"/>
		<path class="st3" d="M407.5,830.3c-6.1,0-11.8-0.3-16.8-1c-7.6-1-14.5-5.5-18.8-12V699.6l-0.1-0.5c0-0.1-1.5-0.7-1.5-20.6
			c0-7.3,3.3-14.8,5.1-16.3c4.9-0.9,9.6-2.5,14.1-4c6.4-2.1,12.4-4.1,17.9-4.1s11.5,2,17.9,4.1c4.5,1.5,9.2,3,14.1,4
			c1.8,1.5,5.1,9,5.1,16.3c0,19.9-1.4,20.5-1.5,20.6l-0.1,0.5v117.7c-4.3,6.6-11.2,11-18.8,12C419.3,830,413.6,830.3,407.5,830.3z"
			/>
		<path class="st4" d="M435.8,795.7h-56.7c0,0-2.1,2.2-4.6,4.8c-2.6,2.7-1,7.3,2.8,7.7c19.8,2.4,40.5,2.4,60.3,0
			c3.8-0.4,5.4-5,2.8-7.7C437.9,798,435.8,795.7,435.8,795.7z"/>
		<path class="st5" d="M407.5,808c-10.1,0-20.1-0.6-29.9-1.8c-1-0.1-1.8-0.7-2.1-1.7c-0.3-0.9-0.1-1.9,0.5-2.6
			c1.7-1.8,3.2-3.4,4-4.2h54.9c0.8,0.8,2.3,2.4,4,4.2c0.7,0.7,0.9,1.7,0.5,2.6c-0.3,0.9-1.1,1.6-2.1,1.7
			C427.6,807.4,417.6,808,407.5,808z"/>
		<path class="st4" d="M435.8,732.2h-56.7c0,0-5-10.9-8.8-18.9c-1.1-2.3,0.2-5,2.6-5.7c22.6-6.4,46.5-6.4,69.1,0
			c2.4,0.7,3.7,3.4,2.6,5.7C440.9,721.2,435.8,732.2,435.8,732.2z"/>
		<path class="st5" d="M380.5,730.1c-1.4-3-5.2-11.3-8.2-17.8c-0.3-0.5-0.3-1.2,0-1.7c0.3-0.6,0.7-0.9,1.3-1.1
			c11.1-3.1,22.5-4.7,34-4.7s22.9,1.6,34,4.7c0.6,0.2,1,0.6,1.3,1.1c0.3,0.6,0.3,1.2,0,1.7c-3,6.4-6.8,14.7-8.2,17.8H380.5z"/>
		<path class="st4" d="M376.3,794.2l-5.8,6.2c-1.4,1.5-3.9,0.5-3.9-1.5v-88.2l9.7,22.3L376.3,794.2L376.3,794.2z"/>
		<path class="st5" d="M368.8,799.1c0,0-0.2,0-0.2-0.2v-78.3l5.6,12.9v59.9L368.8,799.1C368.9,799.1,368.8,799.1,368.8,799.1z"/>
		<path class="st4" d="M438.7,794.2l5.8,6.2c1.4,1.5,3.9,0.5,3.9-1.5v-88.2l-9.7,22.3L438.7,794.2L438.7,794.2z"/>
		<path class="st5" d="M446.2,799.1c0,0-0.1,0-0.1-0.1l-5.3-5.7v-59.9l5.6-12.9v78.3C446.4,799,446.3,799.1,446.2,799.1z"/>
		<path class="st3" d="M441.6,642.7c4.2,4.5,6.9,14.8,6.9,22.7c0,21.2-1.4,33.9-1.4,33.9v115.5c-11.9,2.6-25.3,4-39.6,4
			c-14.2,0-27.7-1.5-39.6-4V699.3c0,0-1.4-12.7-1.4-33.9c0-7.9,2.7-18.2,6.9-22.7c-6.7,1.4-11.2,14.7-11.2,24.3
			c0,20.7,1.5,33.2,1.5,33.2v119.5c0.1,0.2,0.2,0.4,0.4,0.6c0.4,0.6,0.8,1.3,1.2,1.9c0.1,0.2,0.2,0.4,0.4,0.5
			c0.3,0.4,0.6,0.9,0.9,1.3c0.1,0.2,0.3,0.4,0.4,0.6c0.3,0.4,0.6,0.8,1,1.2c0.1,0.2,0.3,0.3,0.4,0.5c0.4,0.4,0.8,0.8,1.2,1.2
			c0.1,0.1,0.2,0.2,0.3,0.3c0.5,0.5,1,1,1.5,1.4c0,0,0,0,0.1,0.1c5.1,4.5,11.4,7.4,18.2,8.3c5.8,0.8,11.9,1.1,17.9,1.1
			c5.9,0,12.1-0.3,17.9-1.1c6.8-0.9,13.1-3.9,18.2-8.3c0,0,0,0,0.1-0.1c0.5-0.5,1-0.9,1.5-1.4c0.1-0.1,0.2-0.2,0.3-0.3
			c0.4-0.4,0.8-0.8,1.2-1.2c0.1-0.2,0.3-0.3,0.4-0.5c0.3-0.4,0.7-0.8,1-1.2c0.1-0.2,0.3-0.4,0.4-0.6c0.3-0.4,0.6-0.8,0.9-1.3
			c0.1-0.2,0.3-0.4,0.4-0.5c0.4-0.6,0.8-1.2,1.2-1.9l0.4-0.6V700.1c0,0,1.5-12.4,1.5-33.2C452.8,657.3,448.2,644.1,441.6,642.7z"/>
		<g>
			<path class="st6" d="M373.2,655.7l2.8-5.5c0.9-1.8,2.5-3.2,4.4-3.8l11.2-3.8c1.2-0.4,2.3,0.7,1.9,1.9l-1,2.9L373.2,655.7z"/>
			<path class="st7" d="M379,650.3c0.9-1.8,2.5-3.2,4.4-3.8l9.8-3.3c-0.4-0.5-1-0.7-1.6-0.5l-11.2,3.8c-1.9,0.6-3.5,2-4.4,3.8
				l-2.8,5.5l3.9-1.7L379,650.3z"/>
		</g>
		<g>
			<path class="st6" d="M441.8,655.7l-2.8-5.5c-0.9-1.8-2.5-3.2-4.4-3.8l-11.2-3.8c-1.2-0.4-2.3,0.7-1.9,1.9l1,2.9L441.8,655.7z"/>
			<path class="st7" d="M435.9,650.3c-0.9-1.8-2.5-3.2-4.4-3.8l-9.8-3.3c0.4-0.5,1-0.7,1.6-0.5l11.2,3.8c1.9,0.6,3.5,2,4.4,3.8
				l2.8,5.5l-3.9-1.7L435.9,650.3z"/>
		</g>
		<path class="st8" d="M407.5,650.1c3.2,0,6.4,0.5,9.7,1.3v-15.7c-3.2-0.8-6.4-1.3-9.7-1.3s-6.4,0.5-9.7,1.3v15.7
			C401,650.6,404.3,650.1,407.5,650.1z"/>
		<g>
			<path class="st8" d="M364,715.8l-5.9,3.3c-1.9,1-3.2,2.8-3.6,4.8L354,726l8.8-3.3l1.8-5.1l3.1-1.1l-0.7-1.8L364,715.8z"/>
			<polygon class="st4" points="362.6,721.9 354.2,725.1 354,725.9 362.8,722.6 364.7,717.5 367.7,716.4 367.5,715.7 364.4,716.8 
							"/>
		</g>
		<g>
			<path class="st8" d="M451,715.8l5.9,3.3c1.9,1,3.2,2.8,3.6,4.8l0.5,2.1l-8.8-3.3l-1.8-5.1l-3.1-1.1l0.7-1.8L451,715.8z"/>
			<polygon class="st4" points="452.4,721.9 460.8,725.1 461,725.9 452.1,722.6 450.3,717.5 447.3,716.4 447.5,715.7 450.6,716.8 
							"/>
		</g>
		<path class="st9" d="M434.3,831.8c-4.1,1.1-7.4,3.3-8.9,5.7c5.7-0.8,11-3,15.6-6.3C439,831,436.7,831.1,434.3,831.8z"/>
		<path class="st9" d="M380.6,831.8c4.1,1.1,7.4,3.3,8.9,5.7c-5.7-0.8-11-3-15.6-6.3C376,831,378.3,831.1,380.6,831.8z"/>
	</g>
</g>
<line class="st10" x1="577.3" y1="312" x2="577.3" y2="546.2"/>
<line class="st10" x1="618.9" y1="312" x2="618.9" y2="546.2"/>
<g>
	<g>
		
			<linearGradient id="SVGID_1_" gradientUnits="userSpaceOnUse" x1="608.9688" y1="645.6318" x2="627.4262" y2="645.6318" gradientTransform="matrix(1 0 0 -1 0 847.8898)">
			<stop  offset="0" style="stop-color:#E4E0DF"/>
			<stop  offset="0" style="stop-color:#DEDBD7"/>
			<stop  offset="4.220345e-02" style="stop-color:#CAC8C6"/>
			<stop  offset="0.1232" style="stop-color:#9A9B9B"/>
			<stop  offset="0.2338" style="stop-color:#585F62"/>
			<stop  offset="0.264" style="stop-color:#475155"/>
			<stop  offset="0.3518" style="stop-color:#75797D"/>
			<stop  offset="0.4523" style="stop-color:#ABACAF"/>
			<stop  offset="0.5294" style="stop-color:#D0D0D2"/>
			<stop  offset="0.573" style="stop-color:#DFDFE0"/>
			<stop  offset="0.6333" style="stop-color:#D4D5D7"/>
			<stop  offset="0.7347" style="stop-color:#BABCBF"/>
			<stop  offset="0.8642" style="stop-color:#8F969B"/>
			<stop  offset="0.8764" style="stop-color:#8B9298"/>
			<stop  offset="1" style="stop-color:#D1D2D4"/>
			<stop  offset="1" style="stop-color:#A7A9AB"/>
		</linearGradient>
		<rect x="612" y="131.7" class="st11" width="11.2" height="141.1"/>
		
			<linearGradient id="SVGID_2_" gradientUnits="userSpaceOnUse" x1="592.572" y1="776.5161" x2="642.585" y2="776.5161" gradientTransform="matrix(1 0 0 -1 0 847.8898)">
			<stop  offset="5.494510e-03" style="stop-color:#020203"/>
			<stop  offset="0.5" style="stop-color:#1A1A1A"/>
			<stop  offset="1" style="stop-color:#020203"/>
		</linearGradient>
		<path class="st12" d="M637.2,134.6h-39.3c-2.9,0-5.3-2.5-5.3-5.3V13.5c0-2.9,2.5-5.3,5.3-5.3h39.3c2.9,0,5.3,2.5,5.3,5.3v115.7
			C642.5,132.3,640.2,134.6,637.2,134.6L637.2,134.6z"/>
		
			<linearGradient id="SVGID_3_" gradientUnits="userSpaceOnUse" x1="644.0486" y1="795.9628" x2="694.0616" y2="795.9628" gradientTransform="matrix(1 0 0 -1 0 847.8898)">
			<stop  offset="5.494510e-03" style="stop-color:#020203"/>
			<stop  offset="0.5" style="stop-color:#1A1A1A"/>
			<stop  offset="1" style="stop-color:#020203"/>
		</linearGradient>
		<path class="st13" d="M688.7,94.9h-39.3c-2.9,0-5.3-1.7-5.3-3.6V12.6c0-2.1,2.5-3.6,5.3-3.6h39.3c2.9,0,5.3,1.7,5.3,3.6v78.7
			C694,93.2,691.7,94.9,688.7,94.9L688.7,94.9z"/>
		<path class="st14" d="M637.2,7.6c3.2,0,5.9,2.7,5.9,5.9v115.7c0,3.2-2.7,5.9-5.9,5.9h-39.3c-3.2,0-5.9-2.7-5.9-5.9V13.5
			c0-3.2,2.7-5.9,5.9-5.9H637.2 M637.2,8.7h-39.3c-2.7,0-4.8,2.1-4.8,4.8v115.7c0,2.7,2.1,4.8,4.8,4.8h39.3c2.7,0,4.8-2.1,4.8-4.8
			V13.5C642,10.8,639.9,8.7,637.2,8.7L637.2,8.7z"/>
		<circle class="st15" cx="617.5" cy="110.9" r="16"/>
		<circle class="st16" cx="617.5" cy="72" r="16"/>
		<circle class="st16" cx="617.5" cy="33.3" r="16"/>
		<circle class="st16" cx="669" cy="33.3" r="16"/>
	</g>
	<g>
		
			<ellipse transform="matrix(4.097298e-02 -0.9992 0.9992 4.097298e-02 569.6727 737.6228)" class="st15" cx="669.1" cy="72.1" rx="16" ry="16"/>
		<g>
			<path class="st17" d="M667.3,61.7c-1.1,0.8-1.5,2.1-0.8,3.1c0.6,1,2.1,1.1,3.1,0.4c1.1-0.8,1.5-2.1,0.8-3.1
				C669.8,61.2,668.3,61,667.3,61.7z"/>
			<path class="st17" d="M674.6,80.6l-3.8-5.9c-0.2,0.2-0.6,0.4-0.8,0.6l-1.1,1l3.6,5.7c0.2,0.4,0.6,0.6,1,0.6c0.2,0,0.4,0,0.6-0.2
				C674.7,82,674.9,81.2,674.6,80.6z"/>
			<path class="st17" d="M664.6,73.6c0.2,0,0.4,0,0.8-0.2l1.3-1.1v-2.7l-2.7,2.3c-0.4,0.4-0.6,1-0.2,1.5
				C664.1,73.4,664.4,73.6,664.6,73.6z"/>
			<path class="st17" d="M670.5,74.5c0.2-0.4,0.4-0.6,0.4-1.1V68l0.2,0.2l0.2,0.2l1,1l-0.2,3.8c0,0.6,0.4,1.1,1,1.1l0,0
				c0.6,0,1-0.4,1-1l0.2-4.4c0-0.4-0.2-0.6-0.4-0.8l-2.7-2.5l-0.2-0.2h-0.2h-0.2l0,0l0,0c-0.6,0-1,0.2-1.3,0.4l-1.9,1.1
				c-0.2,0.2-0.6,0.6-0.6,1v1.1v2.7v2.3l-2.1,1.7c-0.2,0.2-0.4,0.4-0.4,0.8l-1.1,5c-0.2,0.6,0.2,1.3,1,1.5h0.2c0.6,0,1-0.4,1.1-1
				l1.1-4.6l1.9-1.3l1.1-0.8C670,74.9,670.4,74.7,670.5,74.5z"/>
		</g>
	</g>
</g>
<path class="st3" d="M659.3,493l4.7-2.6l4.7-2.5l9.5-5.1c6.4-3.3,12.9-6.5,19.5-9.7c-6-4-12.1-8.2-18.3-12.2L670,455l-4.8-3
	l-4.8-2.8l-0.3,11.6l-5.9-0.1l-3-0.1h-1.5h-0.4h-1h-2h-7.9c-21,0.2-42,1.4-63,4.2c-1.3,0.2-2.6,0.3-3.9,0.5l-3.9,0.6l-7.8,1.3
	c-2.6,0.4-5.2,1-7.8,1.5s-5.2,1-7.8,1.6l-7.8,1.9l-3.9,0.9l-3.8,1.1l-7.7,2.2c-2.6,0.8-5.1,1.7-7.6,2.5c-5.1,1.6-10.1,3.7-15.1,5.5
	c-2.5,1-4.9,2.1-7.4,3.2l-3.7,1.6c-1.2,0.6-2.4,1.2-3.6,1.8c-2.4,1.2-4.8,2.4-7.2,3.7l-7,4.1c-2.4,1.3-4.6,2.9-6.9,4.4
	s-4.6,3-6.7,4.7c-8.9,6.3-17,13.8-24.4,22c-7.3,8.2-13.8,17.3-18.9,27.1c-5.2,9.8-9.1,20.2-12,30.8l-1.8,8l-0.4,2
	c-0.1,0.7-0.2,1.4-0.3,2l-0.6,4.1l-0.6,4.1c-0.2,1.4-0.3,2.7-0.4,4.1l-0.5,6.1c-0.1,1-0.1,2-0.2,3.1l-0.1,3.1l20.6,0.6l0.1-2.7
	c0-0.9,0-1.8,0.1-2.7l0.5-5.4c0.1-1.2,0.2-2.4,0.3-3.6l0.5-3.5l0.5-3.5c0.1-0.6,0.2-1.2,0.3-1.8l0.4-1.7l1.5-7
	c2.5-9.2,5.9-18,10.2-26.3c4.3-8.4,9.8-16.1,16.1-23.1c6.3-7,13.3-13.5,21.1-19.1c1.9-1.5,3.9-2.8,5.9-4.1s4-2.7,6.1-3.9l6.3-3.6
	c2.2-1.1,4.3-2.2,6.5-3.3c1.1-0.5,2.2-1.1,3.3-1.6l3.4-1.5c2.2-1,4.5-2,6.7-2.9c4.6-1.7,9.1-3.6,13.9-5.1c2.4-0.8,4.7-1.6,7-2.3
	l7.2-2l3.6-1l3.6-0.9l7.3-1.7c2.4-0.6,4.9-1,7.3-1.5c2.5-0.5,4.9-1,7.4-1.4l7.4-1.2l3.7-0.6c1.2-0.2,2.5-0.3,3.7-0.5
	c19.9-2.7,40.1-3.9,60.4-4.1h7.6h1.9h1h0.4h1.4l2.9,0.1l5.7,0.1L659.3,493z"/>
</svg>
