<?xml version="1.0" encoding="utf-8"?>
<!-- Generator: Adobe Illustrator 22.0.1, SVG Export Plug-In . SVG Version: 6.00 Build 0)  -->
<svg version="1.1" id="Layer_1" xmlns="http://www.w3.org/2000/svg" xmlns:xlink="http://www.w3.org/1999/xlink" x="0px" y="0px"
	 viewBox="0 0 850.4 850.4" style="enable-background:new 0 0 850.4 850.4;" xml:space="preserve">
<style type="text/css">
	.st0{fill:#9A9B9B;stroke:#000000;stroke-width:1.22;stroke-miterlimit:10;}
	.st1{fill:#363F3E;stroke:#000000;stroke-miterlimit:10;}
	.st2{fill:none;stroke:#FFFFFF;stroke-width:5;stroke-miterlimit:10;}
	.st3{fill:none;stroke:#FFFFFF;stroke-width:5;stroke-miterlimit:10;stroke-dasharray:12.1506,12.1506;}
	.st4{fill:none;stroke:#FFFFFF;stroke-width:5;stroke-miterlimit:10;stroke-dasharray:12;}
	.st5{fill:none;stroke:#FFFFFF;stroke-width:1.2158;}
	.st6{fill:#FFFFFF;}
	.st7{fill:#177494;}
	.st8{fill:#3587A3;}
	.st9{fill:#304048;}
	.st10{fill:#3C4F58;}
	.st11{fill:#FBFAF9;}
	.st12{fill:#E8E5D9;}
	.st13{fill:#12617C;}
	.st14{fill:#EF7B6F;}
	.st15{fill:none;stroke:#20B2B2;stroke-width:18;stroke-miterlimit:10;}
	.st16{fill:#20B2B2;}
</style>
<path class="st0" d="M850.4,277.6v295.3H599.1c-14.5,0-26.2,11.8-26.2,26.2v251.3H277.6V0h295.3v248.6c0,16,13,29,29,29H850.4z"/>
<path class="st1" d="M850.4,304.2v242H580.3c-18.8,0-34.1,15.3-34.1,34.1v270.1h-242V580.3c0-16.3,0-294,0-310.3V0h242v270.1
	c0,18.8,15.3,34.1,34.1,34.1H850.4z"/>
<g>
	<g>
		<line class="st2" x1="508.1" y1="0" x2="508.1" y2="6"/>
		<line class="st3" x1="508.1" y1="18.2" x2="508.1" y2="838.3"/>
		<line class="st2" x1="508.1" y1="844.4" x2="508.1" y2="850.4"/>
	</g>
</g>
<line class="st4" x1="554.7" y1="295.6" x2="554.7" y2="557.1"/>
<g>
	<circle class="st5" cx="519.6" cy="607.6" r="4.9"/>
	<circle class="st5" cx="537" cy="607.5" r="4.9"/>
	<path class="st6" d="M533.7,598.9l0.4-1h1.3v-1.1h-4.8c-0.4,0.6,0.2,0.6,2.3,1.1l-0.4,1.1h-9.6c0.6-2.3,0.3-2.1,3.2-2.1v-1.1
		c-4,0-3.3-0.4-5.5,6.6c-1.8,5.6-1.6,5-1.6,5.3s0.2,0.5,0.5,0.6c0.6-0.1,0.4,0.1,2.6-6.8c8.1,8.6,5.1,7.2,9.4,7.3
		c5.7-0.1,6.2,0.3,6.3-0.5C537.8,607.8,537.7,607.6,533.7,598.9z M529.3,607.3l-6.7-7.3h9.4L529.3,607.3z M530.4,607.5l3-7.3l3,7.3
		H530.4z"/>
</g>
<g>
	<circle class="st5" cx="519.6" cy="247.6" r="4.9"/>
	<circle class="st5" cx="537" cy="247.5" r="4.9"/>
	<path class="st6" d="M533.7,238.9l0.4-1h1.3v-1.1h-4.8c-0.4,0.6,0.2,0.6,2.3,1.1l-0.4,1.1h-9.6c0.6-2.3,0.3-2.1,3.2-2.1v-1.1
		c-4,0-3.3-0.4-5.5,6.6c-1.8,5.6-1.6,5-1.6,5.3s0.2,0.5,0.5,0.6c0.6-0.1,0.4,0.1,2.6-6.8c8.1,8.6,5.1,7.2,9.4,7.3
		c5.7-0.1,6.2,0.3,6.3-0.5C537.8,247.8,537.7,247.6,533.7,238.9z M529.3,247.3l-6.7-7.3h9.4L529.3,247.3z M530.4,247.5l3-7.3l3,7.3
		H530.4z"/>
</g>
<g>
	<g>
		<path class="st7" d="M441.4,642.6c-11.2-2.1-22.6-8.3-33.9-8.3c-11.4,0-22.7,6.2-33.9,8.3c-6.7,1.2-11.4,14.6-11.4,24.3
			c0,20.7,1.5,33.2,1.5,33.2v119.5c0.1,0.2,0.2,0.4,0.4,0.6c5.4,9.4,14.8,15.9,25.6,17.3c5.8,0.8,11.9,1.1,17.9,1.1
			c5.9,0,12.1-0.3,17.9-1.1c10.7-1.4,20.2-7.9,25.6-17.3l0.4-0.6V700.1c0,0,1.5-12.4,1.5-33.2C452.8,657.3,448.1,643.9,441.4,642.6z
			"/>
		<path class="st8" d="M407.5,830.3c-6.1,0-11.8-0.3-16.8-1c-7.6-1-14.5-5.5-18.8-12V699.6l-0.1-0.5c0-0.1-1.5-0.7-1.5-20.6
			c0-7.3,3.3-14.8,5.1-16.3c4.9-0.9,9.6-2.5,14.1-4c6.4-2.1,12.4-4.1,17.9-4.1s11.5,2,17.9,4.1c4.5,1.5,9.2,3,14.1,4
			c1.8,1.5,5.1,9,5.1,16.3c0,19.9-1.4,20.5-1.5,20.6l-0.1,0.5v117.7c-4.3,6.6-11.2,11-18.8,12C419.3,830,413.6,830.3,407.5,830.3z"
			/>
		<path class="st9" d="M435.8,795.7h-56.7c0,0-2.1,2.2-4.6,4.8c-2.6,2.7-1,7.3,2.8,7.7c19.8,2.4,40.5,2.4,60.3,0
			c3.8-0.4,5.4-5,2.8-7.7C437.9,798,435.8,795.7,435.8,795.7z"/>
		<path class="st10" d="M407.5,808c-10.1,0-20.1-0.6-29.9-1.8c-1-0.1-1.8-0.7-2.1-1.7c-0.3-0.9-0.1-1.9,0.5-2.6
			c1.7-1.8,3.2-3.4,4-4.2h54.9c0.8,0.8,2.3,2.4,4,4.2c0.7,0.7,0.9,1.7,0.5,2.6c-0.3,0.9-1.1,1.6-2.1,1.7
			C427.6,807.4,417.6,808,407.5,808z"/>
		<path class="st9" d="M435.8,732.2h-56.7c0,0-5-10.9-8.8-18.9c-1.1-2.3,0.2-5,2.6-5.7c22.6-6.4,46.5-6.4,69.1,0
			c2.4,0.7,3.7,3.4,2.6,5.7C440.9,721.2,435.8,732.2,435.8,732.2z"/>
		<path class="st10" d="M380.5,730.1c-1.4-3-5.2-11.3-8.2-17.8c-0.3-0.5-0.3-1.2,0-1.7c0.3-0.6,0.7-0.9,1.3-1.1
			c11.1-3.1,22.5-4.7,34-4.7s22.9,1.6,34,4.7c0.6,0.2,1,0.6,1.3,1.1c0.3,0.6,0.3,1.2,0,1.7c-3,6.4-6.8,14.7-8.2,17.8H380.5z"/>
		<path class="st9" d="M376.3,794.2l-5.8,6.2c-1.4,1.5-3.9,0.5-3.9-1.5v-88.2l9.7,22.3L376.3,794.2L376.3,794.2z"/>
		<path class="st10" d="M368.8,799.1c0,0-0.2,0-0.2-0.2v-78.3l5.6,12.9v59.9L368.8,799.1C368.9,799.1,368.8,799.1,368.8,799.1z"/>
		<path class="st9" d="M438.7,794.2l5.8,6.2c1.4,1.5,3.9,0.5,3.9-1.5v-88.2l-9.7,22.3L438.7,794.2L438.7,794.2z"/>
		<path class="st10" d="M446.2,799.1c0,0-0.1,0-0.1-0.1l-5.3-5.7v-59.9l5.6-12.9v78.3C446.4,799,446.3,799.1,446.2,799.1z"/>
		<path class="st8" d="M441.6,642.7c4.2,4.5,6.9,14.8,6.9,22.7c0,21.2-1.4,33.9-1.4,33.9v115.5c-11.9,2.6-25.3,4-39.6,4
			c-14.2,0-27.7-1.5-39.6-4V699.3c0,0-1.4-12.7-1.4-33.9c0-7.9,2.7-18.2,6.9-22.7c-6.7,1.4-11.2,14.7-11.2,24.3
			c0,20.7,1.5,33.2,1.5,33.2v119.5c0.1,0.2,0.2,0.4,0.4,0.6c0.4,0.6,0.8,1.3,1.2,1.9c0.1,0.2,0.2,0.4,0.4,0.5
			c0.3,0.4,0.6,0.9,0.9,1.3c0.1,0.2,0.3,0.4,0.4,0.6c0.3,0.4,0.6,0.8,1,1.2c0.1,0.2,0.3,0.3,0.4,0.5c0.4,0.4,0.8,0.8,1.2,1.2
			c0.1,0.1,0.2,0.2,0.3,0.3c0.5,0.5,1,1,1.5,1.4c0,0,0,0,0.1,0.1c5.1,4.5,11.4,7.4,18.2,8.3c5.8,0.8,11.9,1.1,17.9,1.1
			c5.9,0,12.1-0.3,17.9-1.1c6.8-0.9,13.1-3.9,18.2-8.3c0,0,0,0,0.1-0.1c0.5-0.5,1-0.9,1.5-1.4c0.1-0.1,0.2-0.2,0.3-0.3
			c0.4-0.4,0.8-0.8,1.2-1.2c0.1-0.2,0.3-0.3,0.4-0.5c0.3-0.4,0.7-0.8,1-1.2c0.1-0.2,0.3-0.4,0.4-0.6c0.3-0.4,0.6-0.8,0.9-1.3
			c0.1-0.2,0.3-0.4,0.4-0.5c0.4-0.6,0.8-1.2,1.2-1.9l0.4-0.6V700.1c0,0,1.5-12.4,1.5-33.2C452.8,657.3,448.2,644.1,441.6,642.7z"/>
		<g>
			<path class="st11" d="M373.2,655.7l2.8-5.5c0.9-1.8,2.5-3.2,4.4-3.8l11.2-3.8c1.2-0.4,2.3,0.7,1.9,1.9l-1,2.9L373.2,655.7z"/>
			<path class="st12" d="M379,650.3c0.9-1.8,2.5-3.2,4.4-3.8l9.8-3.3c-0.4-0.5-1-0.7-1.6-0.5l-11.2,3.8c-1.9,0.6-3.5,2-4.4,3.8
				l-2.8,5.5l3.9-1.7L379,650.3z"/>
		</g>
		<g>
			<path class="st11" d="M441.8,655.7l-2.8-5.5c-0.9-1.8-2.5-3.2-4.4-3.8l-11.2-3.8c-1.2-0.4-2.3,0.7-1.9,1.9l1,2.9L441.8,655.7z"/>
			<path class="st12" d="M435.9,650.3c-0.9-1.8-2.5-3.2-4.4-3.8l-9.8-3.3c0.4-0.5,1-0.7,1.6-0.5l11.2,3.8c1.9,0.6,3.5,2,4.4,3.8
				l2.8,5.5l-3.9-1.7L435.9,650.3z"/>
		</g>
		<path class="st13" d="M407.5,650.1c3.2,0,6.4,0.5,9.7,1.3v-15.7c-3.2-0.8-6.4-1.3-9.7-1.3s-6.4,0.5-9.7,1.3v15.7
			C401,650.6,404.3,650.1,407.5,650.1z"/>
		<g>
			<path class="st13" d="M364,715.8l-5.9,3.3c-1.9,1-3.2,2.8-3.6,4.8L354,726l8.8-3.3l1.8-5.1l3.1-1.1l-0.7-1.8L364,715.8z"/>
			<polygon class="st9" points="362.6,721.9 354.2,725.1 354,725.9 362.8,722.6 364.7,717.5 367.7,716.4 367.5,715.7 364.4,716.8 
							"/>
		</g>
		<g>
			<path class="st13" d="M451,715.8l5.9,3.3c1.9,1,3.2,2.8,3.6,4.8l0.5,2.1l-8.8-3.3l-1.8-5.1l-3.1-1.1l0.7-1.8L451,715.8z"/>
			<polygon class="st9" points="452.4,721.9 460.8,725.1 461,725.9 452.1,722.6 450.3,717.5 447.3,716.4 447.5,715.7 450.6,716.8 
							"/>
		</g>
		<path class="st14" d="M434.3,831.8c-4.1,1.1-7.4,3.3-8.9,5.7c5.7-0.8,11-3,15.6-6.3C439,831,436.7,831.1,434.3,831.8z"/>
		<path class="st14" d="M380.6,831.8c4.1,1.1,7.4,3.3,8.9,5.7c-5.7-0.8-11-3-15.6-6.3C376,831,378.3,831.1,380.6,831.8z"/>
	</g>
</g>
<g>
	<g>
		<path class="st15" d="M407.4,612.5c0.9-106.4,76.5-143.4,194.5-141.1"/>
		<g>
			<polygon class="st16" points="591.1,502.6 647,474 594.3,439.8 			"/>
		</g>
	</g>
</g>
</svg>
