<!DOCTYPE svg PUBLIC "-//W3C//DTD SVG 1.1//EN" "http://www.w3.org/Graphics/SVG/1.1/DTD/svg11.dtd" [
	<!ENTITY ns_extend "http://ns.adobe.com/Extensibility/1.0/">
	<!ENTITY ns_ai "http://ns.adobe.com/AdobeIllustrator/10.0/">
	<!ENTITY ns_graphs "http://ns.adobe.com/Graphs/1.0/">
	<!ENTITY ns_vars "http://ns.adobe.com/Variables/1.0/">
	<!ENTITY ns_imrep "http://ns.adobe.com/ImageReplacement/1.0/">
	<!ENTITY ns_sfw "http://ns.adobe.com/SaveForWeb/1.0/">
	<!ENTITY ns_custom "http://ns.adobe.com/GenericCustomNamespace/1.0/">
	<!ENTITY ns_adobe_xpath "http://ns.adobe.com/XPath/1.0/">
]><svg id="Layer_1" xmlns:x="&ns_extend;" xmlns:i="&ns_ai;" xmlns:graph="&ns_graphs;" xmlns="http://www.w3.org/2000/svg" xmlns:xlink="http://www.w3.org/1999/xlink" viewBox="0 0 300 300" style="enable-background:new 0 0 300 300"><style>.st0{fill:#9a9c9b;stroke:#020203;stroke-width:.4571;stroke-miterlimit:10}.st1{fill:#373f3e;stroke:#fff;stroke-width:1.1241;stroke-miterlimit:10}.st2{fill:none;stroke:#fff;stroke-width:2;stroke-miterlimit:10}.st3{fill:#fff}.st4{font-family:myriadpro-regular}.st5{font-size:14px}</style><path class="st0" d="M309.6 86.4V197h-94.2c-5.4.0-9.8 4.4-9.8 9.8V301H95v-95.5c0-4.7-3.8-8.5-8.5-8.5H-9V86.4h93.6C90.4 86.4 95 81.7 95 76v-93.6h110.6v93.1c0 6 4.9 10.9 10.9 10.9H309.6z"/><path class="st1" d="M309.6 96.3H208.4c-7.1.0-12.8-5.7-12.8-12.8V-17.6H105V83.6c0 7.1-5.7 12.8-12.8 12.8H-9v90.7H92.2c7.1.0 12.8 5.7 12.8 12.8v101.2h90.7V199.8c0-7.1 5.7-12.8 12.8-12.8h101.2L309.6 96.3v0 0z"/><g><g><g><path class="st2" d="M181.8 17.2V108.6z"/><g><path class="st3" d="M178.4 21.2 181.8 17.8 185.2 21.2V18.3L181.8 14.9 178.4 18.3z"/></g></g></g><g><g><path class="st2" d="M278.3 108.6H180.8z"/><g><path class="st3" d="M274.4 105.3 277.7 108.6 274.4 112H277.2L280.6 108.6 277.2 105.3z"/></g></g></g></g><g><g><g><path class="st2" d="M117.6 17.2V108.6z"/><g><path class="st3" d="M114.2 21.2 117.6 17.8 121 21.2V18.3L117.6 14.9 114.2 18.3z"/></g></g></g><g><g><path class="st2" d="M21.1 108.6h97.5z"/><g><path class="st3" d="M25.1 112 21.7 108.6 25.1 105.3H22.2L18.8 108.6 22.2 112z"/></g></g></g></g><g><g><g><path class="st2" d="M181.8 267.4V175.9z"/><g><path class="st3" d="M185.2 263.4 181.8 266.8 178.4 263.4V266.3L181.8 269.6 185.2 266.3z"/></g></g></g><g><g><path class="st2" d="M278.3 175.9H180.8z"/><g><path class="st3" d="M274.4 172.5 277.7 175.9 274.4 179.3H277.2L280.6 175.9 277.2 172.5z"/></g></g></g></g><g><g><g><path class="st2" d="M117.6 267.4V175.9z"/><g><path class="st3" d="M121 263.4 117.6 266.8 114.2 263.4V266.3L117.6 269.6 121 266.3z"/></g></g></g><g><g><path class="st2" d="M21.1 175.9h97.5z"/><g><path class="st3" d="M25.1 179.3 21.7 175.9 25.1 172.5H22.2L18.8 175.9 22.2 179.3z"/></g></g></g></g><text transform="matrix(1 0 0 1 41 143.3569)" class="st3 st4 st5">5 m</text><text transform="matrix(1 0 0 1 139 54.3569)" class="st3 st4 st5">5 m</text><text transform="matrix(1 0 0 1 139 233.3569)" class="st3 st4 st5">5 m</text><text transform="matrix(1 0 0 1 219 144.3569)" class="st3 st4 st5">5 m</text></svg>