<?xml version="1.0" encoding="utf-8"?>
<!-- Generator: Adobe Illustrator 23.0.1, SVG Export Plug-In . SVG Version: 6.00 Build 0)  -->
<!DOCTYPE svg PUBLIC "-//W3C//DTD SVG 1.1//EN" "http://www.w3.org/Graphics/SVG/1.1/DTD/svg11.dtd" [
	<!ENTITY ns_extend "http://ns.adobe.com/Extensibility/1.0/">
	<!ENTITY ns_ai "http://ns.adobe.com/AdobeIllustrator/10.0/">
	<!ENTITY ns_graphs "http://ns.adobe.com/Graphs/1.0/">
	<!ENTITY ns_vars "http://ns.adobe.com/Variables/1.0/">
	<!ENTITY ns_imrep "http://ns.adobe.com/ImageReplacement/1.0/">
	<!ENTITY ns_sfw "http://ns.adobe.com/SaveForWeb/1.0/">
	<!ENTITY ns_custom "http://ns.adobe.com/GenericCustomNamespace/1.0/">
	<!ENTITY ns_adobe_xpath "http://ns.adobe.com/XPath/1.0/">
]>
<svg version="1.1" id="Layer_1" xmlns:x="&ns_extend;" xmlns:i="&ns_ai;" xmlns:graph="&ns_graphs;"
	 xmlns="http://www.w3.org/2000/svg" xmlns:xlink="http://www.w3.org/1999/xlink" x="0px" y="0px" viewBox="0 0 1366 768"
	 style="enable-background:new 0 0 1366 768;" xml:space="preserve">
<style type="text/css">
	.st0{display:none;fill:#FFFF00;}
	.st1{fill:#FFFFFF;stroke:#F90606;stroke-width:16.4642;stroke-miterlimit:10;}
	.st2{fill:#154889;}
	.st3{fill:none;stroke:#C1121C;stroke-width:33.5104;}
	.st4{fill:#C1121C;}
	.st5{fill-rule:evenodd;clip-rule:evenodd;}
	.st6{fill:none;}
	.st7{font-family:'Arial-BoldMT';}
	.st8{font-size:100px;}
	.st9{font-family:'ArialMT';}
	.st10{font-size:72px;}
</style>
<metadata>
	<sfw  xmlns="&ns_sfw;">
		<slices></slices>
		<sliceSourceBounds  bottomLeftOrigin="true" height="768" width="1366" x="0" y="0"></sliceSourceBounds>
	</sfw>
</metadata>
<path class="st0" d="M0,0h1366v768H0V0z"/>
<path class="st1" d="M1330.7,739H38.3c-6.8,0-12.3-5.6-12.3-12.3V43.3C26,36.6,31.6,31,38.3,31h1292.3c6.8,0,12.3,5.6,12.3,12.3
	v683.3C1343,733.4,1337.4,739,1330.7,739z"/>
<g id="g6082" transform="matrix(1.25,0,0,-1.25,0,600.99628)">
	<g id="g6084">
		<path id="path6088" class="st2" d="M281,320.9c0-51.5-41.3-93.3-92.3-93.3s-92.3,41.8-92.3,93.3s41.3,93.3,92.3,93.3
			S281,372.4,281,320.9z"/>
		<path id="path6092" class="st3" d="M292.8,320.9c0-57.5-46.6-104.1-104.1-104.1S84.6,263.4,84.6,320.9S131.2,425,188.7,425
			S292.8,378.4,292.8,320.9z"/>
		<path id="path6142" class="st4" d="M125.1,402.2l-17.7-17.7L171,321l-63.6-63.6l17.7-17.7l63.6,63.5l63.6-63.5l17.7,17.7
			L206.4,321l63.6,63.5l-17.7,17.7l-63.6-63.6L125.1,402.2z"/>
	</g>
</g>
<g>
	<path id="path3326" class="st5" d="M973.6,514.2c-7.9-1-13.4-8.5-12.5-16s8.1-13.5,16-12.5s13.5,8.4,12.6,16
		C988.7,509.2,981.6,515.2,973.6,514.2 M1080.4,527.2c-7.9-1-13.5-8.5-12.6-16s8.1-13.5,16-12.5s13.4,8.4,12.5,16
		C1095.5,522.2,1088.3,528.1,1080.4,527.2 M958.3,497.8c1.4-9,9.8-15.4,18.9-14.3c9.1,1.1,15.8,9.4,14.9,18.5
		c24.3,2.9,48.4,5.9,72.8,8.8c1.4-9.2,9.9-15.7,19.1-14.6c9.1,1.1,15.7,9.2,14.9,18.4c5.2,0.4,10.4,0.8,15.6,1.1l6.1-16.4l-2.9-17.3
		l-22.8-2.8l-21.2-27.5l-58.7-7.1l-32.8,21.2l-38.8-2.4l-6.8,14.7l6.3,15.9L958.3,497.8L958.3,497.8z M990,466.5l26.8-16.9l19.2,2.3
		l-2.6,19.8L990,466.5L990,466.5z M1039.9,452.6l19.4,2.4l11,21l-32.7-4L1039.9,452.6z"/>
	<g>
		<path class="st5" d="M891.6,516.9h-15.8c0-8.6-3.9-16.7-10.6-22.1h45.4v15.7L891.6,516.9z M933.5,480.8l-22.3-82.9l-155.2,58
			l16.7,15.8h137.7v13.9H758h-34.1v-13.9v-21.6L916.6,389l20,84.2 M764.3,471.7L750,458.1l-8.6,3.2l7.1,10.4H764.3z M869.4,516.9
			c0,12.3-9.9,22.1-22.1,22.1c-12.2,0-22.1-9.9-22.1-22.1c0-12.2,10-22.1,22.1-22.1C859.5,494.8,869.4,504.6,869.4,516.9z
			 M698.7,516.9c0,12.3-9.9,22.1-22.1,22.1c-12.2,0-22.1-9.9-22.1-22.1c0-12.2,10-22.1,22.1-22.1
			C688.8,494.8,698.7,504.6,698.7,516.9z M714.6,422.1v72.7h114.8c-6.7,5.4-10.6,13.5-10.6,22.1H705c0-15.7-12.7-28.5-28.5-28.5
			c-15.7,0-28.5,12.8-28.5,28.5h-3.2c-3.5,0-6.4-2.7-6.4-6.3v-35c0-3.1,0.6-6,1.6-8.8l14-37.1c0.8-2.3,3-4,5.4-4.2L714.6,422.1z
			 M692.4,464.7l-42.1,4.9c-1.7,0.2-3.2-1-3.4-2.7c-0.1-0.5,0-1,0.1-1.4l10.7-28.3c0.4-1.1,1.5-1.9,2.7-2l32-2V464.7L692.4,464.7z
			 M847.2,504c7.4,0,13.5,6,13.5,13.5s-6,13.5-13.5,13.5s-13.5-6-13.5-13.5S839.7,504,847.2,504z M676.1,504c7.4,0,13.5,6,13.5,13.5
			s-6,13.5-13.5,13.5s-13.5-6-13.5-13.5S668.7,504,676.1,504z"/>
	</g>
</g>
<path class="st6" d="M390,76.7h835.7V389H390V76.7z"/>
<text transform="matrix(1 0 0 1 457.8613 147.728)" class="st7 st8">Feuerwehrzufahrt</text>
<text transform="matrix(1 0 0 1 547.2613 252.728)" class="st9 st8">Tag und Nacht</text>
<text transform="matrix(1 0 0 1 636.7613 357.728)" class="st9 st8">freihalten!</text>
<text transform="matrix(1.0119 0 0 1 91.1211 614.3389)" class="st9 st10">Widerrechtlich abgesellte Fahrzeuge</text>
<text transform="matrix(1.0119 0 0 1 90.918 700.7393)" class="st9 st10">werden kosenpfchtig abgeschleppt!</text>
</svg>
