<?xml version="1.0" encoding="utf-8"?>
<!-- Generator: Adobe Illustrator 23.0.1, SVG Export Plug-In . SVG Version: 6.00 Build 0)  -->
<!DOCTYPE svg PUBLIC "-//W3C//DTD SVG 1.1//EN" "http://www.w3.org/Graphics/SVG/1.1/DTD/svg11.dtd" [
	<!ENTITY ns_extend "http://ns.adobe.com/Extensibility/1.0/">
	<!ENTITY ns_ai "http://ns.adobe.com/AdobeIllustrator/10.0/">
	<!ENTITY ns_graphs "http://ns.adobe.com/Graphs/1.0/">
	<!ENTITY ns_vars "http://ns.adobe.com/Variables/1.0/">
	<!ENTITY ns_imrep "http://ns.adobe.com/ImageReplacement/1.0/">
	<!ENTITY ns_sfw "http://ns.adobe.com/SaveForWeb/1.0/">
	<!ENTITY ns_custom "http://ns.adobe.com/GenericCustomNamespace/1.0/">
	<!ENTITY ns_adobe_xpath "http://ns.adobe.com/XPath/1.0/">
]>
<svg version="1.1" id="Layer_1" xmlns:x="&ns_extend;" xmlns:i="&ns_ai;" xmlns:graph="&ns_graphs;"
	 xmlns="http://www.w3.org/2000/svg" xmlns:xlink="http://www.w3.org/1999/xlink" x="0px" y="0px" viewBox="0 0 500 500"
	 style="enable-background:new 0 0 500 500;" xml:space="preserve">
<style type="text/css">
	.st0{fill:#009245;}
	.st1{fill:#4D4D4D;}
	.st2{fill:none;stroke:#FFFFFF;stroke-width:2;stroke-miterlimit:10;}
	.st3{fill:none;stroke:#42210B;stroke-width:2;stroke-miterlimit:10;}
	.st4{fill:url(#SVGID_1_);}
	.st5{fill:#F0C900;}
	.st6{fill:#008754;}
	.st7{fill:none;stroke:#FFFFFF;stroke-width:0.75;stroke-miterlimit:10;}
	.st8{fill:#FFFFFF;}
	.st9{font-family:'MyriadPro-Regular';}
	.st10{font-size:36px;}
</style>
<metadata>
	<sfw  xmlns="&ns_sfw;">
		<slices></slices>
		<sliceSourceBounds  bottomLeftOrigin="true" height="501.5" width="500" x="-0.5" y="-1"></sliceSourceBounds>
	</sfw>
</metadata>
<path class="st0" d="M-0.5-0.5h500v501h-500V-0.5z"/>
<path class="st1" d="M0,0h392v500H0V0z"/>
<g>
	<path class="st2" d="M329,0v501 M10,0v500"/>
</g>
<path class="st3" d="M392,0v500"/>
<g>
	<g>
		<g>
			
				<linearGradient id="SVGID_1_" gradientUnits="userSpaceOnUse" x1="370.4572" y1="-323.6117" x2="381.2351" y2="-323.6117" gradientTransform="matrix(1 0 0 1 0 547.8898)">
				<stop  offset="0" style="stop-color:#E4E0DF"/>
				<stop  offset="0" style="stop-color:#DEDBD7"/>
				<stop  offset="4.220345e-02" style="stop-color:#CAC8C6"/>
				<stop  offset="0.1232" style="stop-color:#9A9B9B"/>
				<stop  offset="0.2338" style="stop-color:#585F62"/>
				<stop  offset="0.264" style="stop-color:#475155"/>
				<stop  offset="0.3518" style="stop-color:#75797D"/>
				<stop  offset="0.4523" style="stop-color:#ABACAF"/>
				<stop  offset="0.5294" style="stop-color:#D0D0D2"/>
				<stop  offset="0.573" style="stop-color:#DFDFE0"/>
				<stop  offset="0.6333" style="stop-color:#D4D5D7"/>
				<stop  offset="0.7347" style="stop-color:#BABCBF"/>
				<stop  offset="0.8642" style="stop-color:#8F969B"/>
				<stop  offset="0.8764" style="stop-color:#8B9298"/>
				<stop  offset="1" style="stop-color:#D1D2D4"/>
				<stop  offset="1" style="stop-color:#A7A9AB"/>
			</linearGradient>
			<rect x="372.2" y="183.1" class="st4" width="6.5" height="82.4"/>
		</g>
	</g>
	<g id="g13363" transform="matrix(1.25,0,0,-1.25,0,883.34)">
		<g id="g13365">
			<path id="path13367" class="st5" d="M277,580.4c0,13.6,11,24.6,24.6,24.6c13.6,0,24.6-11,24.6-24.6c0-13.6-11-24.6-24.6-24.6
				C288.1,555.8,277,566.9,277,580.4"/>
			<path id="path13369" class="st6" d="M301.6,603.8c-12.9,0-23.4-10.5-23.4-23.4c0-12.9,10.5-23.4,23.4-23.4
				c12.9,0,23.4,10.5,23.4,23.4C325,593.3,314.5,603.8,301.6,603.8z M301.6,597.7c9.5,0,17.2-7.7,17.2-17.2
				c0-9.5-7.7-17.2-17.2-17.2c-9.5,0-17.2,7.7-17.2,17.2C284.4,589.9,292.1,597.7,301.6,597.7L301.6,597.7z"/>
			<path id="path13371" class="st6" d="M292.5,567.7v25.5h3.9v-10.9h10.5v10.9h3.9v-25.5h-3.9v11.1h-10.5v-11.1"/>
		</g>
	</g>
</g>
<g>
	<g>
		<line class="st7" x1="286.3" y1="270" x2="286.3" y2="487.3"/>
		<g>
			<polygon class="st8" points="283.5,272.1 286.3,270.9 289,272.1 286.3,265.5 			"/>
		</g>
		<g>
			<polygon class="st8" points="286.3,492.6 283.2,485.1 286.3,486.9 289.3,485.1 			"/>
		</g>
	</g>
</g>
<g>
	<g>
		<line class="st7" x1="286.3" y1="40" x2="286.3" y2="257.3"/>
		<g>
			<polygon class="st8" points="283.5,42.1 286.3,40.9 289,42.1 286.3,35.5 			"/>
		</g>
		<g>
			<polygon class="st8" points="286.3,262.6 283.2,255.1 286.3,256.9 289.3,255.1 			"/>
		</g>
	</g>
</g>
<line class="st7" x1="381.2" y1="265.5" x2="278.9" y2="265.5"/>
<text transform="matrix(1 0 0 1 185.5 157.8931)" class="st8 st9 st10">15 m</text>
<text transform="matrix(1 0 0 1 185.5 387.8931)" class="st8 st9 st10">15 m</text>
</svg>
