<!DOCTYPE svg PUBLIC "-//W3C//DTD SVG 1.1//EN" "http://www.w3.org/Graphics/SVG/1.1/DTD/svg11.dtd" [
	<!ENTITY ns_extend "http://ns.adobe.com/Extensibility/1.0/">
	<!ENTITY ns_ai "http://ns.adobe.com/AdobeIllustrator/10.0/">
	<!ENTITY ns_graphs "http://ns.adobe.com/Graphs/1.0/">
	<!ENTITY ns_vars "http://ns.adobe.com/Variables/1.0/">
	<!ENTITY ns_imrep "http://ns.adobe.com/ImageReplacement/1.0/">
	<!ENTITY ns_sfw "http://ns.adobe.com/SaveForWeb/1.0/">
	<!ENTITY ns_custom "http://ns.adobe.com/GenericCustomNamespace/1.0/">
	<!ENTITY ns_adobe_xpath "http://ns.adobe.com/XPath/1.0/">
]><svg xmlns:x="&ns_extend;" xmlns:i="&ns_ai;" xmlns:graph="&ns_graphs;" xmlns="http://www.w3.org/2000/svg" xmlns:xlink="http://www.w3.org/1999/xlink" viewBox="0 0 300 300" style="enable-background:new 0 0 300 300"><style>.st0{fill:#006838}.st1{fill:#808285}.st2{fill:none;stroke:#fff;stroke-width:3;stroke-miterlimit:10}.st3{fill:#ed1c24}.st4{fill:#ff0}.st5{fill:#fff}.st6{fill:url(#SVGID_1_)}.st7{fill:url(#SVGID_2_)}.st8{fill:url(#SVGID_3_)}.st9{fill:url(#SVGID_4_)}.st10{fill:url(#SVGID_5_)}.st11{fill:url(#SVGID_6_)}.st12{fill:url(#SVGID_7_)}.st13{fill:url(#SVGID_8_)}.st14{fill:url(#SVGID_9_)}.st15{fill:url(#SVGID_10_)}.st16{fill:url(#SVGID_11_)}.st17{fill:#3c2415}.st18{fill:none;stroke:#3c2415;stroke-miterlimit:10}</style><g id="Layer_1"><path class="st0" d="M0 0h3e2v3e2H0z"/></g><g id="Layer_2"><path transform="matrix(6.123234e-17 -1 1 6.123234e-17 0.1856 300.1856)" class="st1" d="M39.9.0h220.6v3e2H39.9z"/><path class="st2" d="M.2 57h299z"/><path class="st2" d="M.2 245.1h299z"/><path class="st2" d="M.9 150h299z"/><g><g><path class="st3" d="M110.8 66.8c.1.1.4.4.5.7-.5-2-.7-4-.7-5.9.0-.6.0-1 0-1.6.0.0.0.0.0-.1.0.0.0.0.0-.1-.1-2.4.2-4.8.9-7.5-.1.1-.4.4-.5.7-.8 2.7-1.2 4.8-1.4 6.9.0.0.0.0.0.1.0.0.0.0.0.1C109.6 62 110 64.3 110.8 66.8z"/><path class="st3" d="M111.3 67.4c-.1-.1-.4-.4-.5-.7-.4-.7-.8-1.3-1-2-.5-1.7-.6-3.2-.6-4.8v-.1c0-.1.0-.1.0-.1h-.8c0 .1.0.1.0.1v.1c.1 1.8.2 3.7.6 5.4.6 1 1.3 2 2 2.8.1.3.4.4.6.7s.6.6.8.9c.8.7 1.5 1.3 2.2 1.7 4.4 2.9 9.9 4.3 16.7 4.2.3.0.4.0.6.0-.5-.1-1-.4-1.5-1-.1.0-.4.0-.5.0-4.7.0-9.3-1.1-13.7-3.1C114.1 70.4 112.4 69 111.3 67.4z"/><path class="st3" d="M114.7 71.5c-.8-.6-1.5-1.1-2.2-1.7.1.4.3.7.4 1.1.6 1.4 1.4 2.7 2.4 4 5.2 1.2 11 1.8 17.2 1.9l-1.3-.9C124.6 75.7 119.1 74.4 114.7 71.5z"/><path class="st3" d="M112.8 70.8c-.1-.4-.3-.7-.4-1.1-.3-.3-.6-.6-.8-.9.1.1.1.4.1.7C112 70.4 112.4 70.8 112.8 70.8z"/><path class="st3" d="M112.8 70.8c-.4.0-.8-.4-1-1.3.6 1.8 1.4 3.5 2.5 5.1.6.9 1.3 1.7 2.2 2.3.4.1.6.0.8-.1-.9-.6-1.5-1.1-2.1-1.7C114.2 73.5 113.3 72.1 112.8 70.8z"/><path class="st4" d="M111.8 69.5c-.1-.1-.1-.4-.1-.7-.3-.1-.4-.4-.6-.7.4 2 1.3 4 2.4 5.8.8 1.1 1.5 2 2.4 2.7.3.1.5.1.8.1-.9-.7-1.7-1.4-2.2-2.3C113.1 72.9 112.3 71.2 111.8 69.5z"/><path class="st5" d="M110.9 68.1c-.8-.9-1.4-1.7-2-2.8.5 2.4 1.2 4.8 2.4 7.1.6 1.8 1.8 3.3 3.6 4 .4.1.6.1.8.1-.9-.7-1.8-1.6-2.4-2.7C112.1 72.1 111.2 70.1 110.9 68.1z"/><path class="st3" d="M109.6 64.9c.4.7.6 1.4 1 2-.7-2.7-1.1-4.8-1.2-6.9.0.0.0.0.0-.1.0.0.0.0.0-.1.2-2 .6-4.2 1.4-6.9-.4.7-.8 1.3-1.1 2-.5 1.5-.7 3.1-.7 4.6.0.1.0.1.0.1s0 0 0 .1c0 0 0 0 0 .1C109 61.6 109.1 63.3 109.6 64.9z"/><path class="st3" d="M109.1 59.6c-.1-1.6.2-3.1.7-4.6.4-.7.7-1.4 1.1-2 .1-.1.4-.4.5-.7 1.3-1.5 3-2.9 5.1-4 4.4-1.9 9.2-2.9 14.2-2.8v0c0 0 .1.0.3.0.4-.4.7-.7 1-.8l.1-.1c-6.7-.2-12.4 1-17 3.9-.8.6-1.6 1.1-2.2 1.7-.3.3-.7.6-.8.8-.1.3-.4.4-.7.7-.8.8-1.4 1.8-2.1 2.8-.4 1.7-.7 3.4-.7 5.1h.5z"/><path class="st3" d="M112 50.5c-.1.1-.1.4-.1.7.3-.3.7-.6.8-.8.1-.4.3-.7.4-1C112.6 49.1 112.2 49.7 112 50.5z"/><path class="st3" d="M111.7 51.1c.1-.1.1-.4.1-.7.7-1.8 1.5-3.5 2.6-5.1.7-.8 1.3-1.7 2.2-2.2-.3.1-.5.1-.8.1-.9.7-1.8 1.5-2.5 2.7-1.2 2-2.1 3.8-2.5 5.8C111.3 51.5 111.6 51.3 111.7 51.1z"/><path class="st4" d="M112 50.5c.4-.8.7-1.3 1.1-1.3.7-1.4 1.5-2.7 2.5-3.9.5-.6 1.2-1.1 2.1-1.7-.1-.1-.4-.3-.8-.1-.9.7-1.7 1.4-2.2 2.2C113.4 47 112.5 48.7 112 50.5z"/><path class="st3" d="M113 49.2c-.1.4-.3.7-.4 1 .8-.7 1.6-1.1 2.2-1.7 4.6-2.8 10.2-4.1 17-3.9l.7-.8c-6.2-.2-11.8.3-17 1.5C114.5 46.6 113.6 47.8 113 49.2z"/><path class="st5" d="M109.1 54.6c.7-1 1.3-2 2.1-2.8.4-2 1.3-3.8 2.5-5.8.8-1.1 1.6-2 2.5-2.7-.3.1-.5.1-.8.1-1.8.7-3.1 1.9-3.7 3.9C110.4 49.8 109.5 52.2 109.1 54.6z"/><path class="st3" d="M117 43.2c.4-.1.6.0.8.1-.9.6-1.6 1.1-2.1 1.7 5.1-1.1 10.8-1.6 17-1.5-.6-.9-1.3-1.4-2.2-1.9v0c-.1.0-.4.0-.5-.1-3.6-.5-6.7-.3-9.2.3-.6.1-1.4.4-2.2.7C118.1 42.9 117.6 43.1 117 43.2z"/><path class="st3" d="M127.4 58.8c.3-.1.4.0.6.3.4.7.6 1.3 1 1.7.0-.3.0-.6.0-.7v-.1c0 0 0 0 0-.1-.1-3.9.6-7.6 1.9-11.4.7-2 1.6-3.1 2.5-3.2.9.0 1.8.2 2.7.2v0c2.1.2 3.9.5 5.3.9 2.1.6 3 1 2.7 1.6-.7 3.9-1 7.9-.9 12 0 0 0 0 0 .1.0.0.0.0.0.1v0c-.2 3.2.1 6.6.4 9.9.3.1.5.1.6.4.0.0.1.1.3.1.1.3.4.6.8.7.1.0.1.0.1.1-.5-3.7-.7-7.3-.7-11 0 0 0 0 0-.1.0.0.0.0.0-.1-.1-3.8.3-7.6.9-11.4.0.0.0.0.0-.1s0-.4.0-.6c0-.8-.5-1.4-1.5-1.6h-.1c-3.1-.7-6.7-1.5-10.7-2.1-.5.0-1-.2-1.6-.2-.1.0-.4.1-.5.1-.4.1-.7.4-1 .8C128.6 49.8 127.5 54.2 127.4 58.8z"/><path class="st3" d="M127.9 59.1c-.1-.3-.4-.4-.6-.3v.1c0 .4.0.7.0 1.1.0.0.0.0.0.1.0.0.0.0.0.1-.3 5.1.7 10 3.1 14.6.4.6.9.9 1.5 1 .5.0 1 0 1.6-.1 4-.5 7.7-1.1 10.8-1.9h.1c1-.1 1.4-.7 1.6-1.5.0-.1.0-.4.0-.6.0.0.0.0.0-.1.0-.1.0-.3-.1-.4-.1.0-.1.0-.1-.1-.4-.1-.6-.4-.8-.7-.1.0-.1.0-.3-.1-.3-.1-.4-.4-.6-.4.1.7.1 1.4.4 2.1.1.6-.8 1-2.7 1.5-1.3.4-3 .7-4.9.8v0c-.9.1-2.1.1-3.1.3-1-.2-1.8-1.1-2.4-3.3-1.1-3.5-1.7-6.9-1.7-10.6C128.7 60.4 128.2 59.8 127.9 59.1z"/><path class="st3" d="M116.4 48.4c-2.2 1.1-3.9 2.5-5.1 4-.7 2.5-1 5.1-.9 7.5.0.0.0.0.0.1.0.0.0.0.0.1.0.6.0 1 0 1.6.0 2 .3 4 .7 5.9 1.3 1.6 2.9 3 5 4.1 4.4 2 9 3 13.7 3.1.1.0.4.0.5.0-2.3-4.5-3.4-9.5-3.1-14.6.0.0.0.0.0-.1.0.0.0.0.0-.1.0-.4.0-.7.0-1.1v-.1c.1-4.7 1.1-9 3.4-13.2-.1.0-.3.0-.3.0v0C125.6 45.5 121 46.6 116.4 48.4z"/><path class="st3" d="M133.3 42.1c-.6.0-1.3.0-2.1-.2l1.4 1.7c.6.0 1.2.0 1.8.0l2.7-.1.1-.6.4-1L133.3 42.1z"/><path class="st3" d="M131.4 42.1c-.4.0-.6-.1-1-.2.8.4 1.5 1 2.2 1.9.1.0.1.0.1.0L131.4 42.1z"/><path class="st3" d="M131.7 44.8c.1-.1.4-.1.5-.1C132.1 44.6 132 44.6 131.7 44.8v0z"/><path class="st3" d="M131.9 44.6c.1.0.3.0.4.0.5.0 1 0 1.6.2 4 .6 7.6 1.2 10.7 2.1h.1c1 .2 1.4.7 1.5 1.6 8.8.8 18.3.9 28.4.6 1.6-1.7 4.7-2.2 9.6-1.6.1-.4.8-.7 1.6-.7-3-1.6-7-2.5-11.8-2.5.4.6.0 1.1-.9 1.7-.4.1-.8.3-1.2.4l-.4.1c-3 .8-7 1.3-11.8 1h-.1c-.4.0-.6.0-.9.0-.1.0-.1.0-.3.0-.3.0-.5.0-.6.0-4.1-.2-8-.5-11.5-1l-6.3-1.2-5-.9c-.6.0-1.2.0-1.8.0-.1.0-.1.0-.1.0L131.9 44.6z"/><path class="st3" d="M137.5 43.1l-.1.6-2.7.1 5 .9-.8-1 16.1.2h.9.4 1.6l15.9.2c.1.4-.1.8-.8 1.3-.4.1-.7.4-1.2.6.4-.1.8-.3 1.2-.4.9-.4 1.3-1 .9-1.7h-.4L156 43.6h-.1l-17.1-.2c.6-.1 1-.7 1.3-1.4l.8-2.2c.1-.3.0-.4-.3-.6l-1.1 3c-.4.7-.8 1.1-1.3 1.3l-.1.6-.6-.1L137.5 43.1v0z"/><radialGradient id="SVGID_1_" cx="258.3507" cy="141.8613" r="2.0038" gradientTransform="matrix(4.908900e-11 -1 1.0934 4.489700e-11 -16.1494 300.0678)" gradientUnits="userSpaceOnUse"><stop offset="0" style="stop-color:#808183"/><stop offset="1" style="stop-color:#293237"/></radialGradient><path class="st6" d="M138.1 44.1l.1-.6c.5-.1 1-.6 1.3-1.3l1.1-3c0 0 0 0-.1.0-.9-.1-1.7.3-2.2 1.4l-.5 1.4-.4 1 .1.3-.1.7L138.1 44.1z"/><path class="st3" d="M136.4 45.8v0 0 0z"/><path class="st3" d="M138.7 43.7l.8 1 6.3 1.2c3.5.5 7.2.8 11.5 1 0-.1-.1-.1-.1-.1v0c-.8-1.1-1.5-2.1-2.3-2.7V44L138.7 43.7z"/><path class="st3" d="M140.1 42c-.4.8-.8 1.4-1.3 1.4l17 .2c-.1-.7-.4-1.1-.8-1.4h-.3-4.9L140.1 42z"/><path class="st3" d="M155.8 43.9h-.9v.1c.8.7 1.5 1.7 2.3 2.7v0h.8C157.5 45.6 156.7 44.7 155.8 43.9z"/><path class="st3" d="M149.8 42.1h4.9c-.4-.4-1.3-.6-2.7-.4C150.7 41.7 150 42 149.8 42.1z"/><path class="st3" d="M155.3 42.2h-.3c.4.4.6.9.8 1.4h.3C155.8 43 155.6 42.5 155.3 42.2z"/><path class="st3" d="M146.1 48.8v0c.1.1.1.1.3.1 8.9.6 18.1.9 27.8.7.0-.1.0-.1.0-.3.1-.1.1-.4.3-.6-10.1.3-19.6.2-28.4-.6C146.1 48.4 146.1 48.6 146.1 48.8z"/><path class="st3" d="M157.8 43.9h-1.6c.8.9 1.5 1.8 2 3h1.2C159.2 45.7 158.5 44.9 157.8 43.9z"/><path class="st3" d="M158 46.8h-.8l.1.1c.3.0.5.0.6.0.1.0.1.0.3.0.4.0.6.0.9.0h.1c0-.1.0-.1-.1-.1H158c-.4-1.1-1.1-2-2-3h-.4C156.7 44.7 157.5 45.6 158 46.8z"/><path class="st3" d="M159.4 46.9c0 .1.0.1.1.1 4.9.2 8.8-.1 11.8-1l.4-.1c.5-.1.8-.4 1.2-.6.7-.4.8-.8.8-1.3l-16.1-.2C158.5 44.9 159.2 45.7 159.4 46.9z"/><path class="st3" d="M155.3 42.2c.3.3.5.9.8 1.4l17.4.2c-.3-.7-.8-1.1-1.3-1.7-.3.0-.5.0-.8.0-.5.0-.9.1-1.3.1H155.3v0z"/><path class="st3" d="M117.4 76.6c-.1.1-.4.3-.8.1.6.1 1.2.4 1.5.6.8.3 1.4.6 2.2.7 2.5.7 5.6.8 9.2.5.3.0.6-.1.9-.1l2.1-1.7c-6.3.1-12-.5-17.2-1.9C115.7 75.5 116.3 75.9 117.4 76.6z"/><path class="st3" d="M130.3 78.4c.1.0.4.0.5.0l2-1.7c-.1.0-.1.0-.4.0L130.3 78.4z"/><path class="st3" d="M131.9 75.6c-.3.0-.4.0-.6.0l1.3.9c.1.0.1.0.4.0.4.0.8.0 1.3.0l5.1-.8 6.4-1.1c3.5-.4 7.3-.6 11.5-.7.3.0.5.0.8.0.1.0.3.0.4.0.3.0.5.0.8.0h.1c4.9-.1 8.8.2 11.8 1.2l.4.1c.4.1.8.3 1.2.4.9.4 1.3 1 .9 1.7 5.1-.4 8.7-1 11-2.4-.4-.1-.6-.4-.8-.7-4.9.4-8.2-.2-9.6-1.8-10.1-.5-19.6-.6-28.4.0.0.8-.5 1.4-1.6 1.5h-.1c-3.1.7-6.8 1.3-10.8 1.9C132.9 75.7 132.4 75.6 131.9 75.6z"/><path class="st3" d="M134.1 76.7c-.4.0-.8.0-1.3.0l-2 1.7c.6.0 1.3-.1 2.1-.1l4.4.2-.4-1.1-.1-.6L134.1 76.7z"/><radialGradient id="SVGID_2_" cx="221.2426" cy="141.645" r="1.9776" gradientTransform="matrix(4.908900e-11 -1 1.0934 4.489700e-11 -16.1494 300.0678)" gradientUnits="userSpaceOnUse"><stop offset="0" style="stop-color:#808183"/><stop offset="1" style="stop-color:#293237"/></radialGradient><path class="st7" d="M137.9 79.8c.5 1.1 1.3 1.6 2.2 1.4h.1l-1-3c-.4-.7-.8-1.1-1.3-1.3l-.1-.6-.6.1.1.7-.1.3.4 1.1L137.9 79.8z"/><path class="st3" d="M140.1 81.1c.3-.1.4-.3.3-.6l-.8-2.3c-.4-.8-.8-1.4-1.3-1.4l17.2.2h.3l17.4.2h.3c.4-.6.0-1.1-.9-1.7-.4-.1-.8-.3-1.2-.4.5.1.8.4 1.2.6.6.4.8.9.8 1.3l-16.1-.2H156h-.4-1.2l-16.2-.2.8-1-5.1.8 2.7.2.1.6.1-.3-.1-.7.6-.1.1.6c.5.1 1 .6 1.3 1.3L140.1 81.1z"/><radialGradient id="SVGID_3_" cx="239.7092" cy="139.7158" r="11.5005" gradientTransform="matrix(4.908900e-11 -1 1.0934 4.489700e-11 -16.1494 300.0678)" gradientUnits="userSpaceOnUse"><stop offset="0" style="stop-color:#808183"/><stop offset="1" style="stop-color:#293237"/></radialGradient><path class="st8" d="M133.5 45.6c-1 .1-1.8 1.1-2.5 3.2-1.3 3.7-2 7.5-1.9 11.4.0.0.0.0.0.1v.1c0 .3.0.6.0.7.0 3.7.6 7.2 1.7 10.6.6 2 1.5 3.1 2.4 3.3 1-.1 2.1-.1 3.1-.3v0c1.9-.1 3.5-.4 4.9-.8 2.1-.5 3-1 2.7-1.5-.1-.7-.2-1.4-.4-2.1-.4-3.2-.6-6.5-.4-9.9.0.0.0.0.0-.1.0.0.0.0.0-.1-.1-3.9.2-8 .9-12 .1-.6-.8-1-2.7-1.6-1.4-.4-3.2-.7-5.3-.9v.1-.1C135.5 45.6 134.6 45.6 133.5 45.6z"/><path class="st3" d="M139.2 75.7l-.8 1 16.2.2v-.1c.8-.7 1.6-1.7 2.4-2.7v0l.1-.1c-4.1.1-8 .3-11.5.7L139.2 75.7z"/><path class="st3" d="M138.2 77c.6.1 1 .7 1.3 1.4l9.8.1h4.9.6c.4-.4.7-1 .7-1.4L138.2 77z"/><path class="st3" d="M145.8 71.8c0 .1.0.4.0.6 8.8-.6 18.3-.5 28.4.0-.1-.3-.3-.6-.4-.8-.3.0-.5.0-.8.0-9.2-.2-17.9-.2-26.4.2C146.3 71.7 146.1 71.7 145.8 71.8v0z"/><path class="st3" d="M154.3 78.7h-4.9c.1.1.9.4 2.2.4C153 79.1 153.9 79 154.3 78.7z"/><path class="st3" d="M154.6 76.8v0l1.2.2c.8-.8 1.6-1.8 2.1-2.9h-.8v0C156.3 75.2 155.5 76.2 154.6 76.8z"/><path class="st3" d="M155.6 77.1c0 .6-.1 1-.7 1.4h.3c.3-.4.5-.8.7-1.4H155.6z"/><path class="st3" d="M158 73.8c-.3.0-.5.0-.8.0.0.1-.1.1-.1.1h.8c-.5 1-1.2 2-2.1 2.9h.4c.8-.8 1.6-1.8 2.1-2.9h1c0-.1.0-.1.1-.1h-.1c-.3.0-.5.0-.8.0s-.5.0-.5.0z"/><path class="st3" d="M156.1 76.9h1.3c.8-.8 1.4-1.8 1.8-2.9h-1C157.6 75 156.9 76 156.1 76.9z"/><path class="st3" d="M159.3 73.8c0 .1.0.1-.1.1-.4 1.1-.9 2-1.8 2.9l16.1.2c.1-.4-.1-.8-.8-1.3-.4-.1-.6-.4-1.2-.6L171 75C167.9 74.2 164 73.7 159.3 73.8z"/><path class="st3" d="M156 77.1c-.1.6-.4 1-.7 1.4l14.4.1c.4.1.8.1 1.3.2.1.0.4.0.5.0.9-.4 1.6-1 1.8-1.7H156v0z"/><path class="st3" d="M173.8 71.5c0 .3.1.6.4.8 1.5 1.7 4.6 2.3 9.6 1.8.4-.1.7-.4.9-.7.4-.3.7-.7.9-1-.1-1.4-.4-2.3-.4-2.4-.5 1.7-1.3 2.5-2.2 2.7-2.1.4-4 .4-5.8-.1-1.8-.4-2.6-1.2-2.2-2.3.7-3.2 1-6.6.9-10 0 0 0 0 0-.1.0.0.0.0.0-.1.2-3.2-.1-6.6-.7-9.9v-.1-.1l-1-1.1c0 .1.0.1.0.3.6 3.5 1 7.1.8 10.9v.1C174.9 64.4 174.6 68 173.8 71.5z"/><path class="st3" d="M145 60.3v0 0c0 3.8.0 7.5.7 11 0 .1.1.3.1.4v0c.3.0.5.0.8.0 8.6-.5 17.5-.5 26.4-.2.3.0.5.0.8.0.7-3.5 1.1-7 1-10.8v-.1c.2-3.8-.2-7.3-.8-10.9-9.6.2-18.9.0-27.8-.7-.1.0-.1.0-.3.0v0C145.4 52.6 145.1 56.3 145 60.3z"/><path class="st3" d="M174.8 70.6c-.4 1.1.4 1.8 2.2 2.3 1.8.4 3.8.5 5.8.1.9-.1 1.7-1.1 2.2-2.7-1.7-8.8-5-15.3-10.1-19.3.6 3.2.8 6.6.7 9.9.0.0.0.0.0.1.0.0.0.0.0.1C176 63.9 175.5 67.2 174.8 70.6z"/><path class="st3" d="M171.4 78.8c.1.0.1.0.3.0.9-.4 1.6-1 1.8-1.7h-.3C172.9 77.9 172.3 78.4 171.4 78.8z"/><path class="st3" d="M173.6 77.3c-.4.7-.9 1.1-1.8 1.7 4.1.2 8.3-.2 12.2-.7C180.2 78.4 176.8 78.2 173.6 77.3z"/><path class="st3" d="M185.3 75c-.3.0-.5-.1-.8-.1-2.3 1.4-6.1 2.2-11 2.4 3.2.9 6.7 1.2 10.5.8.3.0.5-.1.8-.1 1.2-.1 2.3-.4 3.5-.7v0h.1v0c2.2-.4 3.9-1.4 5-2.9v0c-1.3.3-3 .4-4.7.5C187.6 74.9 186.4 74.9 185.3 75z"/><path class="st3" d="M184.5 74.9c.3.1.5.1.8.1 1.2.0 2.3-.1 3.4-.1 2.3-1.2 3.7-2.4 3.9-3.5.3-.8.4-1.5.7-2.4.3-.8.4-1.8.7-2.7-1.4 5.9-4.2 8.7-8.4 8.4-.6.0-.9-.4-.8-.9-.3.3-.7.4-.9.7C183.9 74.4 184.1 74.7 184.5 74.9z"/><path class="st3" d="M184.6 73.6c-.1.6.2.8.8.9 4.1.5 7-2.3 8.4-8.4.4-1.8.6-3.5.6-5.4v-.1c0-2.7-.3-5.5-.9-8.5v-.1.0c-.1-.7-.4-1.1-.5-1.8-.2-1.1-1.5-2.3-3.8-3.6v0c-.1.0-.1.0-.1.0-.4.0-.8.0-1-.2.0.0.0.0-.1.0-1.3.1-1.8.4-1.6 1 1.3 1.4 2.2 3.3 2.7 5.5 1.1 4.8 1.2 9.7.1 14.5-.4 2-1.3 3.5-2.8 4.2-.1.3-.4.7-.5.8C185.3 73.1 185 73.3 184.6 73.6z"/><path class="st3" d="M188.4 77.3v0c1.6.2 2.6-.1 3.2-.5.7-.4 1.2-1.1 1.8-2.4C192.3 75.9 190.6 76.9 188.4 77.3z"/><path class="st3" d="M193.3 74.4c.1.0.1.0.3.0.9-.4 1.6-1 1.8-2 1.2-3.8 1.9-7.6 1.9-11.5v0-.1c0 0 0 0 0-.1.0-1.4-.1-2.7-.2-4 .1 5.4-.2 9.2-1.3 11.4-.4.8-1.3 1.1-2.6.8-.1.8-.4 1.5-.7 2.4-.3 1.1-1.6 2.2-3.9 3.5C190.5 74.8 192 74.7 193.3 74.4z"/><path class="st3" d="M185.2 70.1c.1.4.1 1.1.4 2.4.1-.3.4-.6.5-.8 1.2-2.2 1.9-5.9 2.2-11v-.1c0 0 0 0 0-.1.0-7.6-1.4-12-4.2-13.6-4.9-.5-8.2.1-9.6 1.6-.1.1-.3.4-.3.6l1 1.1c-.2-1 .5-1.7 2.2-2.1 1.8-.4 3.8-.4 5.8.1s3.2 4.5 3.2 12.2c0 0 0 0 0 .1.0.0.0.0.0.1v0C186.3 65 185.9 68.1 185.2 70.1z"/><path class="st3" d="M186.2 71.8c1.6-.8 2.5-2.2 2.8-4.2 1.1-4.8 1-9.7-.1-14.5-.6-2.3-1.5-4.1-2.7-5.5-.3-.4.3-.8 1.6-1-.6.0-1.3.0-2.1-.2-.8.1-1.3.4-1.6.7 2.7 1.4 4.1 5.8 4.2 13.6.0.0.0.0.0.1v.1C188.1 65.7 187.4 69.4 186.2 71.8z"/><path class="st3" d="M193.4 68.9c1.3.3 2.1.0 2.6-.8 1.1-2.2 1.4-6.1 1.3-11.4-.2-2-.6-4-1-5.8.2 1.4.2 2.4.0 3.2-.7.3-1.3.3-1.9.0-.4-.4-.6-1.1-.8-1.8.7 2.8 1 5.6.9 8.5v.1c0 1.7-.2 3.5-.6 5.4C193.7 67.2 193.5 68.1 193.4 68.9z"/><path class="st3" d="M172.6 42.2c-.1.0-.3.0-.4.0.6.4 1 1 1.3 1.7h.5C173.6 43.2 173.1 42.6 172.6 42.2z"/><path class="st3" d="M182 42.7C181.9 42.7 181.9 42.7 182 42.7c-3.1-.5-6.2-.6-9.5-.7.6.4 1 1 1.4 1.7 4.8.2 8.7.9 11.8 2.5.6.0 1.3.0 2.1.2.0.0.0.0.1.0.4.0.8.0 1 .2.1.0.1.0.1.0v0c1.3.0 2.1-.1 2.2-.5C191.4 45.6 188.3 44.6 182 42.7z"/><path class="st3" d="M175.1 50.7v0c5.1 4.3 8.4 10.7 10.1 19.4.7-2 1.1-5.1 1.1-9.3v0c0 0 0 0 0-.1.0.0.0.0.0-.1.0-7.6-1.2-11.7-3.2-12.2-2.1-.4-4-.5-5.8-.1-1.8.4-2.5 1.1-2.2 2.1C175.1 50.5 175.1 50.5 175.1 50.7z"/><path class="st3" d="M196.1 54.1c.3-.7.3-1.8.0-3.2-.1-.6-.4-1.1-.5-1.7-.2-.8-.8-1.4-1.8-2-.1.0-.1.0-.3.0-1.3-.3-3-.5-4.7-.6 2.3 1.3 3.6 2.4 3.8 3.6.1.7.4 1.3.5 1.8v0 .1c.1.7.5 1.4.8 1.8C194.8 54.4 195.4 54.4 196.1 54.1z"/><path class="st3" d="M188.6 44.2v0c-2.2-.6-4.4-.9-6.7-1.2 6.3 1.8 9.4 2.8 9.2 3.2-.1.4-.8.6-2.2.5 1.8.2 3.4.3 4.7.6C192.6 45.6 190.9 44.6 188.6 44.2v0 0z"/></g><g><linearGradient id="SVGID_4_" gradientUnits="userSpaceOnUse" x1="203.5008" y1="103.3396" x2="200.461" y2="103.3396" gradientTransform="matrix(1.410984e-02 -1.3482 -1.1329 -1.185662e-02 262.2724 319.1664)"><stop offset="0" style="stop-color:#272626"/><stop offset="1" style="stop-color:#808183"/></linearGradient><path class="st9" d="M138.7 43.7l.8 1 6.3 1.2c3.5.5 7.2.8 11.5 1-.8-1.3-1.5-2.3-2.4-3v0L138.7 43.7z"/><linearGradient id="SVGID_5_" gradientUnits="userSpaceOnUse" x1="203.5138" y1="87.7308" x2="200.4615" y2="87.7308" gradientTransform="matrix(1.410984e-02 -1.3482 -1.1329 -1.185662e-02 262.2724 319.1664)"><stop offset="0" style="stop-color:#272626"/><stop offset="1" style="stop-color:#808183"/></linearGradient><path class="st10" d="M157.8 43.9c.9.9 1.5 2 1.8 3.1 4.9.2 8.8-.1 11.8-1l.4-.1c.5-.1.8-.4 1.2-.6.7-.4.8-.8.8-1.3L157.8 43.9v0z"/><linearGradient id="SVGID_6_" gradientUnits="userSpaceOnUse" x1="181.0585" y1="103.3655" x2="178.3351" y2="103.3655" gradientTransform="matrix(1.410984e-02 -1.3482 -1.1329 -1.185662e-02 262.2724 319.1664)"><stop offset="0" style="stop-color:#272626"/><stop offset="1" style="stop-color:#808183"/></linearGradient><path class="st11" d="M139.2 75.7l-.8 1 16.2.2v-.1c.8-.7 1.7-1.7 2.5-2.9-4.1.1-8 .3-11.5.7L139.2 75.7z"/><linearGradient id="SVGID_7_" gradientUnits="userSpaceOnUse" x1="181.0616" y1="87.7449" x2="178.35" y2="87.7449" gradientTransform="matrix(1.410984e-02 -1.3482 -1.1329 -1.185662e-02 262.2724 319.1664)"><stop offset="0" style="stop-color:#272626"/><stop offset="1" style="stop-color:#808183"/></linearGradient><path class="st12" d="M159.3 73.8c-.4 1.1-.9 2.2-1.8 3.1l15.9.2c.1-.4-.1-.8-.8-1.3-.4-.1-.6-.4-1.2-.6L171 75C167.9 74.2 164 73.7 159.3 73.8z"/><linearGradient id="SVGID_8_" gradientUnits="userSpaceOnUse" x1="182.5769" y1="80.9401" x2="203.2644" y2="66.7584" gradientTransform="matrix(1.410984e-02 -1.3482 -1.1329 -1.185662e-02 262.2724 319.1664)"><stop offset="0" style="stop-color:#272626"/><stop offset="1" style="stop-color:#808183"/></linearGradient><path class="st13" d="M173.8 71.5c0 .3.1.6.4.8 1.5 1.7 4.6 2.3 9.6 1.8.4-.1.7-.4.9-.7.4-.3.7-.7.9-1-.1-1.4-.4-2.3-.4-2.4-.5 1.7-1.3 2.5-2.2 2.7-2.1.4-4 .4-5.8-.1-1.8-.4-2.6-1.2-2.2-2.3.7-3.2 1-6.6.9-10 0 0 0 0 0-.1.0.0.0.0.0-.1.2-3.2-.1-6.6-.7-9.9v-.1-.1l-1-1.1c0 .1.0.1.0.3.6 3.5 1 7.1.8 10.9v.1C174.9 64.4 174.6 68 173.8 71.5z"/><linearGradient id="SVGID_9_" gradientUnits="userSpaceOnUse" x1="199.3858" y1="69.494" x2="176.5264" y2="84.904" gradientTransform="matrix(1.410984e-02 -1.3482 -1.1329 -1.185662e-02 262.2724 319.1664)"><stop offset="0" style="stop-color:#030405"/><stop offset="1" style="stop-color:#808183"/></linearGradient><path class="st14" d="M185.6 72.5c.1-.3.4-.6.5-.8 1.2-2.2 1.9-5.9 2.2-11v-.1c0 0 0 0 0-.1.0-7.6-1.4-12-4.2-13.6-4.9-.5-8.2.1-9.6 1.6-.1.1-.3.4-.3.6l1 1.1c-.2-1 .5-1.7 2.2-2.1 1.8-.4 3.8-.4 5.8.1s3.2 4.5 3.2 12.2c0 0 0 0 0 .1.0.0.0.0.0.1v0c-.2 4.2-.5 7.3-1.1 9.3C185.2 70.4 185.5 71.2 185.6 72.5z"/><radialGradient id="SVGID_10_" cx="188.3725" cy="77.4725" r="10.9427" gradientTransform="matrix(1.542726e-02 -1.3482 -1.2387 -1.185662e-02 270.4846 319.1664)" gradientUnits="userSpaceOnUse"><stop offset="0" style="stop-color:#808183"/><stop offset="1" style="stop-color:#293237"/></radialGradient><path class="st15" d="M177.4 48.4c-1.8.4-2.5 1.1-2.2 2.1v.1.1c.6 3.2.8 6.6.7 9.9.0.0.0.0.0.1.0.0.0.0.0.1.1 3.2-.2 6.6-.9 10-.4 1.1.4 1.8 2.2 2.3s3.8.5 5.8.1c.9-.1 1.7-1.1 2.2-2.7.7-2 1.1-5.1 1.1-9.3.0.0.0.0.0-.1.0.0.0.0.0-.1.0-7.6-1.2-11.7-3.2-12.2C181.2 48.1 179.2 48 177.4 48.4z"/><linearGradient id="SVGID_11_" gradientUnits="userSpaceOnUse" x1="221.1085" y1="194.4738" x2="242.226" y2="181.2753" gradientTransform="matrix(-0.5346 -0.8451 0.8451 -0.5346 103.223 357.0738)"><stop offset="0" style="stop-color:#363639"/><stop offset=".264" style="stop-color:#040506"/><stop offset=".4382" style="stop-color:#555659"/><stop offset="1" style="stop-color:#030405"/></linearGradient><path class="st16" d="M127.4 58.8v0c0 .4.0.8.0 1.1.0.0.0.0.0.1.0.0.0.0.0.1-.3 5.1.7 10 3.1 14.6.4.6.9.9 1.5 1 .5.0 1 0 1.6-.1 4-.5 7.7-1.1 10.8-1.9h.1c1-.1 1.4-.7 1.6-1.5.0-.1.0-.4.0-.6.0.0.0.0.0-.1.0-.1.0-.3-.1-.4-.5-3.7-.7-7.3-.7-11 0 0 0 0 0-.1.0.0.0.0.0-.1-.1-3.8.3-7.6.9-11.4.0.0.0.0.0-.1s0-.4.0-.6c0-.8-.5-1.4-1.5-1.6h-.1c-3.1-.7-6.7-1.5-10.7-2.1-.5.0-1-.2-1.6-.2-.1.0-.4.1-.5.1-.4.1-.7.4-1 .8C128.6 49.8 127.5 54.2 127.4 58.8zM129.1 60.1v0c-.1-3.9.6-7.7 1.9-11.4.7-2 1.6-3.1 2.5-3.2.9.0 1.8.2 2.7.2v0c2.1.2 3.9.5 5.3.9 2.1.6 3 1 2.7 1.6-.7 3.9-1 7.9-.9 12 0 0 0 0 0 .1.0.0.0.0.0.1v0c-.2 3.2.1 6.6.4 9.9.1.7.1 1.4.4 2.1.1.6-.8 1-2.7 1.5-1.3.4-3 .7-4.9.8v0c-.9.1-2.1.1-3.1.3-1-.2-1.8-1.1-2.4-3.3-1.1-3.5-1.7-6.9-1.7-10.6C129.1 60.7 129.1 60.4 129.1 60.1v0z"/></g></g><g><path class="st17" d="M76 113.4l-1.7 5.1h-2.2l5.5-16.2h2.5l5.5 16.2h-2.2l-1.7-5.1H76zM81.3 111.8l-1.6-4.7c-.4-1.1-.6-2-.8-3h0c-.2 1-.5 1.9-.8 2.9l-1.6 4.7H81.3z"/><path class="st17" d="M90.3 103.6v3.3h3v1.6h-3v6.3c0 1.4.4 2.3 1.6 2.3.6.0 1-.1 1.2-.1l.1 1.6c-.4.2-1.1.3-1.9.3-1 0-1.8-.3-2.3-.9-.6-.6-.8-1.7-.8-3v-6.3h-1.8v-1.6h1.8v-2.8L90.3 103.6z"/><path class="st17" d="M100.8 101.5h2.1v17h-2.1v-17z"/><path class="st17" d="M107.7 113.1c0 2.9 1.9 4 4 4 1.5.0 2.4-.3 3.2-.6l.4 1.5c-.7.3-2 .7-3.9.7-3.6.0-5.7-2.4-5.7-5.9.0-3.5 2.1-6.3 5.4-6.3 3.8.0 4.8 3.3 4.8 5.5.0.4.0.8-.1 1H107.7zM113.9 111.6c0-1.3-.6-3.4-2.9-3.4-2.1.0-3.1 2-3.2 3.4H113.9z"/><path class="st17" d="M124.9 118.5l-.2-1.5h-.1c-.6.9-1.9 1.7-3.6 1.7-2.4.0-3.6-1.7-3.6-3.3.0-2.8 2.5-4.3 7-4.3v-.2c0-1-.3-2.7-2.6-2.7-1.1.0-2.2.3-3 .9l-.5-1.4c1-.6 2.4-1 3.8-1 3.6.0 4.4 2.4 4.4 4.8v4.3c0 1 0 2 .2 2.8H124.9zM124.6 112.6c-2.3.0-4.9.4-4.9 2.6.0 1.4.9 2 2 2 1.5.0 2.5-1 2.8-1.9.1-.2.1-.5.1-.7V112.6z"/><path class="st17" d="M129.8 116.4c.6.4 1.7.8 2.8.8 1.5.0 2.3-.8 2.3-1.7.0-1-.6-1.6-2.2-2.1-2.1-.7-3.1-1.9-3.1-3.3.0-1.9 1.5-3.4 4-3.4 1.2.0 2.2.3 2.9.7l-.5 1.5c-.5-.3-1.3-.7-2.4-.7-1.2.0-1.9.7-1.9 1.6.0 1 .7 1.4 2.2 2 2 .8 3 1.8 3 3.5.0 2-1.6 3.5-4.3 3.5-1.3.0-2.4-.3-3.3-.8L129.8 116.4z"/><path class="st17" d="M142.1 103.6v3.3h3v1.6h-3v6.3c0 1.4.4 2.3 1.6 2.3.6.0 1-.1 1.2-.1l.1 1.6c-.4.2-1.1.3-1.9.3-1 0-1.8-.3-2.3-.9-.6-.6-.8-1.7-.8-3v-6.3h-1.8v-1.6h1.8v-2.8L142.1 103.6z"/><path class="st17" d="M152.4 116.1c.6.4 2 1 3.5 1 2.7.0 3.6-1.7 3.5-3 0-2.2-2-3.1-4-3.1h-1.2v-1.6h1.2c1.5.0 3.5-.8 3.5-2.6.0-1.2-.8-2.4-2.7-2.4-1.2.0-2.4.6-3.1 1l-.6-1.5c.8-.6 2.4-1.2 4.1-1.2 3.1.0 4.5 1.8 4.5 3.7.0 1.6-1 3-2.9 3.7v0c1.9.4 3.5 1.8 3.5 4 0 2.5-1.9 4.7-5.7 4.7-1.8.0-3.3-.6-4.1-1.1L152.4 116.1z"/><path class="st17" d="M164.9 110.1c0-1.2.0-2.2-.1-3.1h1.8l.1 1.9h.1c.6-1.1 1.7-2.1 3.6-2.1 1.6.0 2.8 1 3.3 2.3h0c.4-.6.8-1.2 1.3-1.5.7-.5 1.5-.8 2.6-.8 1.5.0 3.8 1 3.8 5v6.8h-2.1v-6.6c0-2.2-.8-3.6-2.5-3.6-1.2.0-2.1.9-2.5 1.9-.1.3-.2.7-.2 1.1v7.2h-2.1v-7c0-1.8-.8-3.2-2.4-3.2-1.3.0-2.3 1.1-2.6 2.1-.1.3-.2.7-.2 1v7h-2.1V110.1z"/></g><g><g><path class="st18" d="M149.4 86.8V139.9z"/><g><path class="st17" d="M145.6 89.6 149.4 88.1 153.1 89.6 149.4 80.8z"/></g><g><path class="st17" d="M149.4 147 145.3 137.1 149.4 139.4 153.4 137.1z"/></g></g></g></g></svg>