<?xml version="1.0" encoding="utf-8"?>
<!-- Generator: Adobe Illustrator 23.0.1, SVG Export Plug-In . SVG Version: 6.00 Build 0)  -->
<!DOCTYPE svg PUBLIC "-//W3C//DTD SVG 1.1//EN" "http://www.w3.org/Graphics/SVG/1.1/DTD/svg11.dtd" [
	<!ENTITY ns_extend "http://ns.adobe.com/Extensibility/1.0/">
	<!ENTITY ns_ai "http://ns.adobe.com/AdobeIllustrator/10.0/">
	<!ENTITY ns_graphs "http://ns.adobe.com/Graphs/1.0/">
	<!ENTITY ns_vars "http://ns.adobe.com/Variables/1.0/">
	<!ENTITY ns_imrep "http://ns.adobe.com/ImageReplacement/1.0/">
	<!ENTITY ns_sfw "http://ns.adobe.com/SaveForWeb/1.0/">
	<!ENTITY ns_custom "http://ns.adobe.com/GenericCustomNamespace/1.0/">
	<!ENTITY ns_adobe_xpath "http://ns.adobe.com/XPath/1.0/">
]>
<svg version="1.1" id="Layer_1" xmlns:x="&ns_extend;" xmlns:i="&ns_ai;" xmlns:graph="&ns_graphs;"
	 xmlns="http://www.w3.org/2000/svg" xmlns:xlink="http://www.w3.org/1999/xlink" x="0px" y="0px" viewBox="0 0 1366 768"
	 style="enable-background:new 0 0 1366 768;" xml:space="preserve">
<style type="text/css">
	.st0{fill:#F4F4EA;}
	.st1{fill:#EFEFDF;stroke:#FF000D;stroke-width:16.4642;stroke-miterlimit:10;}
	.st2{enable-background:new    ;}
</style>
<metadata>
	<sfw  xmlns="&ns_sfw;">
		<slices></slices>
		<sliceSourceBounds  bottomLeftOrigin="true" height="768" width="1366" x="0" y="0"></sliceSourceBounds>
	</sfw>
</metadata>
<rect class="st0" width="1366" height="768"/>
<path class="st1" d="M1330.7,739H38.3c-6.8,0-12.3-5.6-12.3-12.3V43.3C26,36.6,31.6,31,38.3,31h1292.3c6.8,0,12.3,5.6,12.3,12.3
	v683.3C1343,733.4,1337.4,739,1330.7,739z"/>
<g class="st2">
	<path d="M176.1,327.7V170.6h60.4v26.6h-42.6v37.2h36.9V261h-36.9v66.8H176.1z"/>
	<path d="M288.1,291.6l16.8,5c-2.3,11.4-5.7,19.9-10.5,25.4c-4.7,5.5-10.5,8.3-17.3,8.3c-9.4,0-16.7-4.6-21.9-13.8
		c-6.1-10.7-9.1-25.8-9.1-45.1c0-19,3.1-34.3,9.2-45.7c5.2-9.7,11.9-14.5,20.1-14.5c9.1,0,16.3,4.9,21.5,14.8c6,11.3,8.9,28,8.9,50
		l-0.1,3.4h-42.3c0.1,9,1.5,16,4.1,21c2.7,4.9,5.9,7.4,9.7,7.4C282.6,307.9,286.3,302.5,288.1,291.6z M289,261.1
		c-0.1-8.9-1.4-15.6-3.9-20.1c-2.4-4.5-5.3-6.7-8.7-6.7c-3.6,0-6.6,2.3-9,7c-2.5,4.7-3.7,11.3-3.7,19.8H289z"/>
	<path d="M361.2,327.7v-17c-2.3,6.2-5.4,11-9.2,14.5c-3.8,3.5-7.8,5.2-11.9,5.2c-4.2,0-7.9-1.6-11.3-4.8c-3.3-3.2-5.8-7.8-7.4-13.7
		c-1.6-5.9-2.4-14.5-2.4-25.8v-72.1h16.9v52.3c0,14.9,0.3,24.4,0.8,28.4c0.5,4,1.6,7.2,3.4,9.4c1.8,2.2,3.9,3.3,6.4,3.3
		c2.8,0,5.4-1.4,7.8-4.3c2.4-2.9,4-6.6,4.7-11.1c0.8-4.5,1.1-14.5,1.1-29.9v-48H377v113.8H361.2z"/>
	<path d="M431.6,291.6l16.8,5c-2.3,11.4-5.7,19.9-10.5,25.4c-4.7,5.5-10.5,8.3-17.3,8.3c-9.4,0-16.7-4.6-21.9-13.8
		c-6.1-10.7-9.1-25.8-9.1-45.1c0-19,3.1-34.3,9.2-45.7c5.2-9.7,11.9-14.5,20.1-14.5c9.1,0,16.3,4.9,21.5,14.8c6,11.3,8.9,28,8.9,50
		l-0.1,3.4H407c0.1,9,1.5,16,4.1,21c2.7,4.9,5.9,7.4,9.7,7.4C426.2,307.9,429.8,302.5,431.6,291.6z M432.5,261.1
		c-0.1-8.9-1.4-15.6-3.9-20.1c-2.4-4.5-5.3-6.7-8.7-6.7c-3.6,0-6.6,2.3-9,7c-2.5,4.7-3.7,11.3-3.7,19.8H432.5z"/>
	<path d="M479.2,327.7h-16.9V213.9h15.7v16.2c2.7-7.6,5.1-12.6,7.2-15.1c2.1-2.5,4.6-3.8,7.4-3.8c3.9,0,7.5,1.9,11.1,5.7l-5.3,26.3
		c-2.8-3.3-5.4-4.9-7.9-4.9c-2.3,0-4.4,1.3-6.2,3.8c-1.8,2.5-3.1,7.1-3.8,13.8c-0.8,6.7-1.2,18.9-1.2,36.7V327.7z"/>
	<path d="M522.9,327.7l-20.3-113.8h16.4l12,74.6l11.1-74.6h16.2l10.6,74.6l12.3-74.6h16.6l-20.7,113.8H561l-11-73.2l-10.9,73.2
		H522.9z"/>
	<path d="M643.6,291.6l16.8,5c-2.3,11.4-5.7,19.9-10.5,25.4c-4.7,5.5-10.5,8.3-17.3,8.3c-9.4,0-16.7-4.6-21.9-13.8
		c-6.1-10.7-9.1-25.8-9.1-45.1c0-19,3.1-34.3,9.2-45.7c5.2-9.7,11.9-14.5,20.1-14.5c9.1,0,16.3,4.9,21.5,14.8c6,11.3,8.9,28,8.9,50
		l-0.1,3.4h-42.3c0.1,9,1.5,16,4.1,21c2.7,4.9,5.9,7.4,9.7,7.4C638.2,307.9,641.8,302.5,643.6,291.6z M644.5,261.1
		c-0.1-8.9-1.4-15.6-3.9-20.1c-2.4-4.5-5.3-6.7-8.7-6.7c-3.6,0-6.6,2.3-9,7c-2.5,4.7-3.7,11.3-3.7,19.8H644.5z"/>
	<path d="M691.8,170.6v57.6c2.7-5.7,5.7-10,8.9-12.8c3.2-2.8,6.8-4.2,10.6-4.2c5.1,0,9.3,2,12.7,5.9c3.4,3.9,5.9,9.5,7.3,16.7
		c1.1,5.3,1.6,14.3,1.6,27v66.8H716v-60.2c0-13.9-0.6-22.7-1.8-26.2c-1.7-4.7-4.6-7.1-8.7-7.1c-4.3,0-7.7,2.6-10.1,7.7
		s-3.6,14.7-3.6,28.7v57.1h-16.9V170.6H691.8z"/>
	<path d="M766.3,327.7h-16.9V213.9H765v16.2c2.7-7.6,5.1-12.6,7.2-15.1c2.1-2.5,4.6-3.8,7.4-3.8c3.9,0,7.5,1.9,11.1,5.7l-5.3,26.3
		c-2.8-3.3-5.4-4.9-7.9-4.9c-2.3,0-4.4,1.3-6.2,3.8c-1.8,2.5-3.1,7.1-3.8,13.8c-0.8,6.7-1.2,18.9-1.2,36.7V327.7z"/>
	<path d="M791.1,327.7v-23.5l23.9-49c3.9-8,6.8-13.6,8.7-17c-2,0.2-4.5,0.4-7.8,0.4l-22.5,0.2v-25h52.7v21.3l-24.4,50.1l-8.6,16.6
		c4.7-0.5,7.6-0.8,8.7-0.8h26.1v26.5H791.1z"/>
	<path d="M901.3,327.7v-17c-2.3,6.2-5.4,11-9.2,14.5c-3.8,3.5-7.8,5.2-11.9,5.2c-4.2,0-7.9-1.6-11.3-4.8c-3.3-3.2-5.8-7.8-7.4-13.7
		c-1.6-5.9-2.4-14.5-2.4-25.8v-72.1h16.9v52.3c0,14.9,0.3,24.4,0.8,28.4c0.5,4,1.6,7.2,3.4,9.4c1.8,2.2,3.9,3.3,6.4,3.3
		c2.8,0,5.4-1.4,7.8-4.3c2.4-2.9,4-6.6,4.7-11.1c0.8-4.5,1.1-14.5,1.1-29.9v-48H917v113.8H901.3z"/>
	<path d="M927.2,213.9h9.4v-8.6c0-10.4,0.7-17.9,2-22.5c1.3-4.6,3.5-8.3,6.5-10.9c3-2.6,6.7-4,11.1-4c4.8,0,9.5,1.3,14.1,3.9
		l-2.2,20.9c-2.7-1.1-5.3-1.7-7.8-1.7c-2.4,0-4.1,1-5.2,3c-1.1,2-1.6,6-1.6,11.8v8.1h12.6v23.7h-12.6v90.1h-16.9v-90.1h-9.4V213.9z"
		/>
	<path d="M988.1,248.5l-15.3-4.9c1.9-11.5,4.9-19.8,9.2-24.8s10.4-7.6,18.4-7.6c7.1,0,12.6,1.5,16.3,4.4c3.8,2.9,6.4,6.9,8.1,12
		c1.6,5,2.4,14.2,2.4,27.5l-0.1,35.2c0,9.9,0.3,17.2,0.8,22c0.5,4.8,1.5,10,3,15.4h-16.7l-2.2-12.4c-2.9,5-6,8.8-9.3,11.3
		c-3.3,2.5-6.8,3.8-10.5,3.8c-6.2,0-11.3-3.1-15.2-9.2c-4-6.1-5.9-14.3-5.9-24.4c0-6.4,0.8-12.1,2.4-16.8c1.6-4.8,3.9-8.6,6.8-11.5
		c2.9-2.9,7.6-5.4,14.1-7.6c7.8-2.6,13.3-5.1,16.3-7.4c0-6.3-0.3-10.5-0.9-12.4c-0.6-2-1.7-3.6-3.4-4.8c-1.6-1.3-3.9-1.9-6.9-1.9
		c-3,0-5.4,1-7.1,3C990.6,239.3,989.2,243,988.1,248.5z M1010.7,273.1c-2.1,1.3-5.5,2.8-10,4.5c-5.2,2-8.6,4.2-10.3,6.7
		c-1.6,2.4-2.4,5.6-2.4,9.5c0,4.4,0.9,8,2.7,11c1.8,3,4,4.5,6.7,4.5c2.4,0,4.8-1.2,7.1-3.6s4-5.2,4.9-8.5c0.9-3.3,1.4-9.3,1.4-17.9
		V273.1z"/>
	<path d="M1060.8,170.6v57.6c2.7-5.7,5.7-10,8.9-12.8c3.2-2.8,6.8-4.2,10.6-4.2c5.1,0,9.3,2,12.7,5.9c3.4,3.9,5.9,9.5,7.3,16.7
		c1.1,5.3,1.6,14.3,1.6,27v66.8H1085v-60.2c0-13.9-0.6-22.7-1.8-26.2c-1.7-4.7-4.6-7.1-8.7-7.1c-4.3,0-7.7,2.6-10.1,7.7
		s-3.6,14.7-3.6,28.7v57.1h-16.9V170.6H1060.8z"/>
	<path d="M1135.3,327.7h-16.9V213.9h15.7v16.2c2.7-7.6,5.1-12.6,7.2-15.1c2.1-2.5,4.6-3.8,7.4-3.8c3.9,0,7.5,1.9,11.1,5.7l-5.3,26.3
		c-2.8-3.3-5.4-4.9-7.9-4.9c-2.3,0-4.4,1.3-6.2,3.8c-1.8,2.5-3.1,7.1-3.8,13.8c-0.8,6.7-1.2,18.9-1.2,36.7V327.7z"/>
	<path d="M1196.1,213.9v24h-11.5v45.9c0,9.9,0.2,15.7,0.5,17.3c0.7,2.9,2.1,4.3,4.2,4.3c1.6,0,3.8-1,6.7-2.9l1.5,23.4
		c-3.9,3-8.3,4.5-13.3,4.5c-4.3,0-7.7-1.5-10.3-4.5c-2.6-3-4.3-7.3-5.2-13c-0.7-4.1-1-12.6-1-25.3v-49.7h-7.8v-24h7.8v-22.6
		l16.9-17.6v40.2H1196.1z"/>
</g>
<g class="st2">
	<path d="M253.6,547.2v-105h11.8v41.3h23.3v-41.3h11.8v105h-11.8v-45.9h-23.3v45.9H253.6z"/>
	<path d="M321.1,494.3l-10.2-3.3c1.2-7.7,3.3-13.2,6.1-16.6c2.8-3.4,6.9-5,12.3-5c4.8,0,8.4,1,10.9,2.9c2.5,2,4.3,4.6,5.4,8
		c1.1,3.4,1.6,9.5,1.6,18.4l-0.1,23.5c0,6.6,0.2,11.5,0.5,14.7c0.4,3.2,1,6.7,2,10.3h-11.1l-1.5-8.3c-1.9,3.3-4,5.9-6.2,7.6
		s-4.5,2.5-7,2.5c-4.1,0-7.5-2-10.2-6.1s-4-9.5-4-16.3c0-4.3,0.5-8.1,1.6-11.3s2.6-5.8,4.5-7.7c2-1.9,5.1-3.6,9.4-5.1
		c5.2-1.8,8.8-3.4,10.9-4.9c0-4.2-0.2-7-0.6-8.3c-0.4-1.3-1.2-2.4-2.2-3.2c-1.1-0.8-2.6-1.3-4.6-1.3c-2,0-3.6,0.7-4.8,2
		C322.8,488.1,321.8,490.6,321.1,494.3z M336.2,510.7c-1.4,0.9-3.7,1.9-6.7,3c-3.5,1.3-5.8,2.8-6.8,4.5s-1.6,3.7-1.6,6.3
		c0,2.9,0.6,5.4,1.8,7.4c1.2,2,2.7,3,4.5,3c1.6,0,3.2-0.8,4.7-2.4c1.6-1.6,2.6-3.5,3.2-5.7c0.6-2.2,0.9-6.2,0.9-12V510.7z"/>
	<path d="M358.3,547.2v-105h11.3v105H358.3z"/>
	<path d="M400.6,471.2v16h-7.7v30.7c0,6.6,0.1,10.5,0.3,11.5c0.5,1.9,1.4,2.9,2.8,2.9c1,0,2.5-0.6,4.5-1.9l1,15.6
		c-2.6,2-5.6,3-8.8,3c-2.9,0-5.2-1-6.9-3c-1.7-2-2.9-4.9-3.5-8.7c-0.5-2.8-0.7-8.4-0.7-16.9v-33.2h-5.2v-16h5.2v-15.1l11.3-11.7
		v26.9H400.6z"/>
	<path d="M420.2,547.2l-17.2-76.1h11.8l8,38.8l2.3,13l2.4-13l8.1-38.8h11.5l-16.9,76.1H420.2z"/>
	<path d="M478.7,523.1l11.2,3.4c-1.5,7.6-3.8,13.3-7,17c-3.2,3.7-7,5.5-11.5,5.5c-6.3,0-11.1-3.1-14.6-9.3c-4-7.2-6.1-17.2-6.1-30.1
		c0-12.7,2-22.9,6.1-30.6c3.5-6.5,7.9-9.7,13.4-9.7c6.1,0,10.9,3.3,14.3,9.9c4,7.6,6,18.7,6,33.4l0,2.3h-28.2c0.1,6,1,10.7,2.8,14
		c1.8,3.3,3.9,5,6.4,5C475.1,534,477.5,530.4,478.7,523.1z M479.3,502.7c-0.1-5.9-1-10.4-2.6-13.4c-1.6-3-3.6-4.5-5.8-4.5
		c-2.4,0-4.4,1.6-6,4.7c-1.7,3.2-2.5,7.6-2.4,13.2H479.3z"/>
	<path d="M510.4,547.2h-11.3v-76.1h10.4V482c1.8-5.1,3.4-8.4,4.8-10.1c1.4-1.7,3.1-2.5,4.9-2.5c2.6,0,5,1.3,7.4,3.8l-3.5,17.5
		c-1.9-2.2-3.6-3.3-5.3-3.3c-1.6,0-2.9,0.8-4.1,2.5c-1.2,1.7-2,4.8-2.6,9.2c-0.5,4.4-0.8,12.6-0.8,24.5V547.2z"/>
	<path d="M531,547.2v-105h11.3V480c1.7-3.5,3.6-6.2,5.7-7.9c2.1-1.8,4.3-2.7,6.7-2.7c5,0,9.2,3.3,12.7,10c3.5,6.6,5.2,16.5,5.2,29.4
		c0,12.9-1.8,22.9-5.3,29.8c-3.5,7-7.7,10.4-12.5,10.4c-2.4,0-4.8-1.1-7.2-3.3c-2.4-2.2-4.4-5.4-6-9.6v11.2H531z M542.2,507.6
		c0,6.6,0.4,11.6,1.3,15c0.8,3.4,2.1,6.1,3.6,7.9c1.6,1.8,3.2,2.7,4.9,2.7c2.5,0,4.6-1.9,6.3-5.7c1.8-3.8,2.6-9.8,2.6-18.1
		c0-8.7-0.9-14.9-2.7-18.8c-1.8-3.9-4-5.8-6.8-5.8c-2.6,0-4.8,1.9-6.6,5.6C543.1,494.1,542.2,499.9,542.2,507.6z"/>
	<path d="M579,508.1c0-7.5,1-14.3,3-20.4c2-6.1,4.7-10.7,7.9-13.8c3.3-3.1,6.9-4.6,11-4.6c6.8,0,12.2,3.9,16.1,11.8
		c3.9,7.9,5.9,17.1,5.9,27.6c0,7.8-1,14.9-3.1,21.2c-2,6.3-4.7,11.1-8,14.2c-3.3,3.2-6.9,4.8-10.9,4.8c-6.3,0-11.6-3.5-15.7-10.6
		C581.1,531.3,579,521.2,579,508.1z M590.5,509.2c0,7.7,1,13.5,3.1,17.5c2.1,4,4.5,5.9,7.4,5.9c2.8,0,5.3-2,7.3-6c2-4,3-9.8,3-17.6
		c0-7.6-1-13.3-3.1-17.3c-2.1-4-4.5-6-7.4-6c-2.8,0-5.3,2-7.3,6C591.5,495.7,590.5,501.6,590.5,509.2z"/>
	<path d="M651.1,471.2v16h-7.7v30.7c0,6.6,0.1,10.5,0.3,11.5c0.5,1.9,1.4,2.9,2.8,2.9c1,0,2.5-0.6,4.5-1.9l1,15.6
		c-2.6,2-5.6,3-8.8,3c-2.9,0-5.2-1-6.9-3c-1.7-2-2.9-4.9-3.5-8.7c-0.5-2.8-0.7-8.4-0.7-16.9v-33.2H627v-16h5.2v-15.1l11.3-11.7v26.9
		H651.1z"/>
	<path d="M720.5,547.2h-11.3v-38.9c0-7.8-0.2-13-0.6-15.6c-0.4-2.6-1.2-4.6-2.4-6c-1.2-1.4-2.5-2.1-3.9-2.1c-1.9,0-3.6,0.9-5.1,2.7
		c-1.5,1.8-2.6,4.3-3.2,7.4c-0.6,3.2-0.9,9.1-0.9,17.9v34.5h-11.3v-76.1h10.4v11.1c1.9-4.3,3.9-7.5,6.3-9.7c2.3-2.1,4.9-3.2,7.7-3.2
		c3.3,0,6.1,1.3,8.3,3.8c2.3,2.5,3.8,5.7,4.7,9.7c0.9,3.9,1.3,9.6,1.3,17.1V547.2z"/>
	<path d="M740.3,494.3l-10.2-3.3c1.2-7.7,3.3-13.2,6.1-16.6c2.8-3.4,6.9-5,12.3-5c4.8,0,8.4,1,10.9,2.9c2.5,2,4.3,4.6,5.4,8
		c1.1,3.4,1.6,9.5,1.6,18.4l-0.1,23.5c0,6.6,0.2,11.5,0.5,14.7c0.4,3.2,1,6.7,2,10.3h-11.1l-1.5-8.3c-1.9,3.3-4,5.9-6.2,7.6
		s-4.5,2.5-7,2.5c-4.1,0-7.5-2-10.2-6.1s-4-9.5-4-16.3c0-4.3,0.5-8.1,1.6-11.3s2.6-5.8,4.5-7.7c2-1.9,5.1-3.6,9.4-5.1
		c5.2-1.8,8.8-3.4,10.9-4.9c0-4.2-0.2-7-0.6-8.3c-0.4-1.3-1.2-2.4-2.2-3.2c-1.1-0.8-2.6-1.3-4.6-1.3c-2,0-3.6,0.7-4.8,2
		C742,488.1,741,490.6,740.3,494.3z M755.3,510.7c-1.4,0.9-3.7,1.9-6.7,3c-3.5,1.3-5.8,2.8-6.8,4.5s-1.6,3.7-1.6,6.3
		c0,2.9,0.6,5.4,1.8,7.4c1.2,2,2.7,3,4.5,3c1.6,0,3.2-0.8,4.7-2.4c1.6-1.6,2.6-3.5,3.2-5.7c0.6-2.2,0.9-6.2,0.9-12V510.7z"/>
	<path d="M814.6,493.6l-11.1,3.6c-0.8-8-3.4-12-7.7-12c-2.8,0-5,1.7-6.7,5.2c-1.7,3.4-2.6,9.3-2.6,17.5c0,9.1,0.8,15.4,2.5,19.2
		s4,5.6,6.8,5.6c2.1,0,3.9-1.1,5.2-3.2c1.4-2.1,2.4-5.9,2.9-11.3l11.1,3.4c-2.3,18.3-8.8,27.5-19.7,27.5c-6.9,0-12.1-3.9-15.4-11.6
		c-3.4-7.7-5-17.1-5-28c0-13.1,1.9-23,5.7-29.8c3.8-6.8,8.8-10.2,14.9-10.2c5,0,9.1,1.9,12.2,5.8S813.3,485.2,814.6,493.6z"/>
	<path d="M834.3,442.3v38.5c1.8-3.8,3.8-6.7,5.9-8.6c2.2-1.9,4.5-2.8,7.1-2.8c3.4,0,6.2,1.3,8.5,3.9c2.3,2.6,3.9,6.4,4.9,11.2
		c0.7,3.5,1.1,9.6,1.1,18.1v44.7h-11.3V507c0-9.3-0.4-15.2-1.2-17.5c-1.1-3.2-3.1-4.7-5.8-4.7c-2.9,0-5.1,1.7-6.7,5.1
		c-1.6,3.4-2.4,9.8-2.4,19.2v38.1h-11.3v-105H834.3z"/>
	<path d="M893.1,513l11.6-2c1.3,13.4,5.6,20.1,12.8,20.1c3.6,0,6.4-1.4,8.4-4.1s3.1-6.1,3.1-10.2c0-2.4-0.4-4.4-1.1-6.1
		c-0.7-1.7-1.8-3-3.3-4.1s-5-2.9-10.6-5.4c-5-2.2-8.7-4.7-11.1-7.3c-2.3-2.6-4.2-6.1-5.6-10.3c-1.4-4.3-2.1-8.9-2.1-13.8
		c0-5.7,0.9-10.9,2.7-15.5c1.8-4.6,4.2-8,7.3-10.4s7-3.5,11.6-3.5c6.9,0,12.3,2.7,16.2,8.2c3.9,5.5,5.9,13.3,6.2,23.6l-11.9,0.9
		c-0.5-5.6-1.6-9.6-3.4-11.8c-1.7-2.2-4.2-3.4-7.4-3.4c-3.2,0-5.6,1-7.4,2.9c-1.7,2-2.6,4.4-2.6,7.3c0,2.9,0.8,5.3,2.3,7.2
		c1.6,2,5.2,4.1,10.8,6.4c6,2.5,10.3,5.2,12.9,8s4.7,6.4,6.1,10.8c1.4,4.4,2.1,9.8,2.1,16.1c0,9.1-1.9,16.8-5.7,23
		c-3.8,6.2-9.8,9.3-17.9,9.3C902.7,549,894.7,537,893.1,513z"/>
	<path d="M970.1,471.2v16h-7.7v30.7c0,6.6,0.1,10.5,0.3,11.5c0.5,1.9,1.4,2.9,2.8,2.9c1,0,2.5-0.6,4.5-1.9l1,15.6
		c-2.6,2-5.6,3-8.8,3c-2.9,0-5.2-1-6.9-3c-1.7-2-2.9-4.9-3.5-8.7c-0.5-2.8-0.7-8.4-0.7-16.9v-33.2H946v-16h5.2v-15.1l11.3-11.7v26.9
		H970.1z"/>
	<path d="M993.1,547.2l-21-105h12.8l14.9,77.7l14.4-77.7h12.6l-21,105H993.1z"/>
	<path d="M1030.3,495.4c0-12.5,1.3-22.8,3.8-30.9c2.5-8.1,5.8-14.1,9.9-18.1c4.1-4,9-5.9,14.8-5.9c8.4,0,15.2,4.7,20.5,14.1
		c5.3,9.4,7.9,22.8,7.9,40.2c0,17.6-2.8,31.3-8.4,41.2c-4.9,8.7-11.6,13.1-20,13.1c-8.5,0-15.2-4.3-20.1-13
		C1033.1,526.2,1030.3,512.6,1030.3,495.4z M1042.5,494.7c0,12.1,1.6,21.1,4.7,27.2s7,9.1,11.6,9.1c4.7,0,8.5-3,11.6-9
		c3.1-6,4.6-15.2,4.6-27.6c0-12.2-1.5-21.2-4.5-27c-3-5.8-6.9-8.7-11.7-8.7s-8.8,2.9-11.8,8.8
		C1044.1,473.3,1042.5,482.4,1042.5,494.7z"/>
</g>
</svg>
