<?xml version="1.0" encoding="utf-8"?>
<!-- Generator: Adobe Illustrator 22.0.1, SVG Export Plug-In . SVG Version: 6.00 Build 0)  -->
<svg version="1.1" id="svg2" xmlns:svg="http://www.w3.org/2000/svg"
	 xmlns="http://www.w3.org/2000/svg" xmlns:xlink="http://www.w3.org/1999/xlink" x="0px" y="0px" viewBox="0 0 400 400"
	 style="enable-background:new 0 0 400 400;" xml:space="preserve">
<style type="text/css">
	.st0{fill:none;stroke:#000000;stroke-width:15;}
	.st1{fill:none;stroke:#000000;}
	.st2{fill:none;stroke:#000000;stroke-width:0.7259;stroke-linecap:round;stroke-linejoin:round;}
	.st3{fill:none;stroke:#FFFFFF;stroke-width:0.7079;}
	.st4{fill:none;stroke:#FFFFFF;stroke-width:0.7917;}
</style>
<path id="path2194" class="st0" d="M82.1,308.2V183"/>
<path id="path5102" class="st1" d="M15.8,313.5h366.2"/>
<path id="path6271" class="st1" d="M26.1,327.6l11.1-11.1"/>
<path id="path6273" class="st1" d="M53,327.7l11.1-11.1"/>
<path id="path6275" class="st1" d="M82.1,327.3l11.1-11.1"/>
<path id="path6277" class="st1" d="M110.8,327.3l11.1-11.1"/>
<path id="path6279" class="st1" d="M140.8,327.3l11.1-11.1"/>
<path id="path6281" class="st1" d="M169.1,327.7l11.1-11.1"/>
<path id="path6283" class="st1" d="M198.7,327.3l11.1-11.1"/>
<path id="path6285" class="st1" d="M227,327.7l11.1-11.1"/>
<path id="path6287" class="st1" d="M254.9,327.7l11.1-11.1"/>
<path id="path6289" class="st1" d="M283.2,327.7l11.1-11.1"/>
<path id="path6291" class="st1" d="M310.6,326.8l11.1-11.1"/>
<path id="path6293" class="st1" d="M337.6,326.8l11.1-11.1"/>
<path id="path6295" class="st1" d="M365,327.3l11.1-11.1"/>
<path id="path4134" class="st0" d="M304,309.4V184.2"/>
<path id="path4136" class="st0" d="M19.6,182.4h363"/>
<g id="g8408" transform="matrix(7.357704,0,0,7.357704,434.9445,-2099.79)">
	<path id="path3069" class="st2" d="M-29.9,314.3c1.8,0,3.3,1.5,3.3,3.3s-1.5,3.3-3.3,3.3c-1.8,0-3.3-1.5-3.3-3.3
		S-31.7,314.3-29.9,314.3L-29.9,314.3z"/>
	<path id="path6617" class="st3" d="M-33.6,316.9c1.9,0,1,0,1,0"/>
	<path id="path5730" class="st4" d="M-31.6,321.1c0-2.1,0-1.3,0-1.3"/>
	<path id="path8406" class="st4" d="M-33,320c0-2.1,0-1.3,0-1.3"/>
	<path id="path6630" d="M-26.4,324.5c-2-0.5-6-1.6-6.1-1.7c-0.3-0.1-0.5-0.2-0.5-0.6l0-2.9h-1.2v3c-0.3-0.1-0.5,0-0.8-0.5v-2.5h-2.4
		c-0.6,0-0.6-2.4,0-2.4h4.8c0.5,0,0.8,0.5,0.8,1.1v3.8l5.3,1.7C-26,323.7-26.1,324.5-26.4,324.5z"/>
	<path id="path6632" d="M-39.9,317.1c0.7,0,1.2,0.6,1.2,1.2c0,0.7-0.6,1.2-1.2,1.2c-0.7,0-1.2-0.6-1.2-1.2
		C-41.1,317.6-40.5,317.1-39.9,317.1z"/>
</g>
</svg>
