<?xml version="1.0" encoding="utf-8"?>
<!-- Generator: Adobe Illustrator 22.0.1, SVG Export Plug-In . SVG Version: 6.00 Build 0)  -->
<svg version="1.1" id="Layer_1" xmlns="http://www.w3.org/2000/svg" xmlns:xlink="http://www.w3.org/1999/xlink" x="0px" y="0px"
	 viewBox="0 0 319.9 319.9" style="enable-background:new 0 0 319.9 319.9;" xml:space="preserve">
<style type="text/css">
	.st0{fill:#9A9B9B;stroke:#000000;stroke-width:0.4571;stroke-miterlimit:10;}
	.st1{fill:#363F3E;stroke:#FFFFFF;stroke-width:1.1241;stroke-miterlimit:10;}
	.st2{fill:#FFFFFF;}
	.st3{fill:#6BB75A;}
	.st4{fill:#231F20;}
	.st5{fill:#9ED891;}
	.st6{fill:#304048;}
	.st7{fill:#3B4E57;}
	.st8{fill:#FAF9F8;}
	.st9{fill:#E8E5D9;}
	.st10{fill:#81D86F;}
	.st11{fill:#EF7B6E;}
	.st12{fill:#F1F2F2;}
	.st13{fill:url(#SVGID_1_);}
	.st14{fill:url(#SVGID_2_);}
	.st15{fill:url(#SVGID_3_);}
	.st16{fill:#666666;}
	.st17{fill:url(#SVGID_4_);}
	.st18{fill:url(#SVGID_5_);}
	.st19{fill:url(#SVGID_6_);}
	.st20{fill:url(#SVGID_7_);}
	.st21{fill:url(#SVGID_8_);}
	.st22{fill:url(#SVGID_9_);}
	.st23{fill:url(#SVGID_10_);}
	.st24{fill:url(#SVGID_11_);}
	.st25{fill:url(#SVGID_12_);}
	.st26{fill:url(#SVGID_13_);}
	.st27{fill:url(#SVGID_14_);}
	.st28{fill:url(#SVGID_15_);}
	.st29{fill:#911913;}
	.st30{fill:#70150E;}
	.st31{fill:url(#SVGID_16_);}
	.st32{fill:url(#SVGID_17_);}
	.st33{fill:#333333;}
	.st34{fill:url(#SVGID_18_);}
	.st35{fill:url(#SVGID_19_);}
	.st36{fill:url(#SVGID_20_);}
	.st37{fill:url(#SVGID_21_);}
	.st38{fill:url(#SVGID_22_);}
	.st39{fill:url(#SVGID_23_);}
	.st40{fill:url(#SVGID_24_);}
	.st41{fill:url(#SVGID_25_);}
	.st42{fill:url(#SVGID_26_);}
	.st43{fill:url(#SVGID_27_);}
	.st44{fill:url(#SVGID_28_);}
	.st45{fill:url(#SVGID_29_);}
	.st46{fill:url(#SVGID_30_);}
	.st47{fill:url(#SVGID_31_);}
	.st48{fill:url(#SVGID_32_);}
	.st49{fill:url(#SVGID_33_);}
	.st50{fill:url(#SVGID_34_);}
	.st51{fill:url(#SVGID_35_);}
	.st52{fill:url(#SVGID_36_);}
	.st53{fill:url(#SVGID_37_);}
	.st54{fill:url(#SVGID_38_);}
	.st55{fill:url(#SVGID_39_);}
	.st56{fill:url(#SVGID_40_);}
	.st57{fill:#F59D1B;}
	.st58{fill:url(#SVGID_41_);}
	.st59{fill:url(#SVGID_42_);}
	.st60{fill:url(#SVGID_43_);}
	.st61{fill:url(#SVGID_44_);}
	.st62{fill:url(#SVGID_45_);}
	.st63{fill:url(#SVGID_46_);}
	.st64{fill:url(#SVGID_47_);}
	.st65{fill:url(#SVGID_48_);}
	.st66{fill:url(#SVGID_49_);}
	.st67{fill:url(#SVGID_50_);}
	.st68{fill:url(#SVGID_51_);}
	.st69{fill:url(#SVGID_52_);}
	.st70{fill:url(#SVGID_53_);}
	.st71{fill:url(#SVGID_54_);}
	.st72{fill:url(#SVGID_55_);}
	.st73{fill:url(#SVGID_56_);}
	.st74{fill:#960E1B;}
	.st75{font-family:'TimesNewRomanPS-BoldMT';}
	.st76{font-size:22.4825px;}
	.st77{font-size:17.986px;}
</style>
<path class="st0" d="M319.2,104.6v110.6H225c-5.4,0-9.8,4.4-9.8,9.8v94.2H104.6v-95.5c0-4.7-3.8-8.5-8.5-8.5H0.6V104.6h93.6
	c5.8,0,10.4-4.7,10.4-10.4V0.6h110.6v93.1c0,6,4.9,10.9,10.9,10.9H319.2z"/>
<path class="st1" d="M319.2,114.5H218c-7.1,0-12.8-5.7-12.8-12.8V0.6h-90.6v101.2c0,7.1-5.7,12.8-12.8,12.8H0.6v90.7h101.2
	c7.1,0,12.8,5.7,12.8,12.8v101.2h90.7V218c0-7.1,5.7-12.8,12.8-12.8h101.2v-90.6H319.2z"/>
<g>
	<rect x="0.9" y="158.8" class="st2" width="14.3" height="2.1"/>
	<rect x="24.9" y="158.8" class="st2" width="14.3" height="2.1"/>
	<rect x="48.8" y="158.8" class="st2" width="14.3" height="2.1"/>
	<rect x="72.8" y="158.8" class="st2" width="14.3" height="2.1"/>
	<rect x="0.9" y="158.8" class="st2" width="14.3" height="2.1"/>
	<rect x="24.9" y="158.8" class="st2" width="14.3" height="2.1"/>
	<rect x="48.8" y="158.8" class="st2" width="14.3" height="2.1"/>
	<rect x="72.8" y="158.8" class="st2" width="14.3" height="2.1"/>
</g>
<g>
	<rect x="240.7" y="158.8" class="st2" width="14.3" height="2.1"/>
	<rect x="264.7" y="158.8" class="st2" width="14.3" height="2.1"/>
	<rect x="288.7" y="158.8" class="st2" width="14.3" height="2.1"/>
	<rect x="312.7" y="158.8" class="st2" width="6.8" height="2.1"/>
	<rect x="240.7" y="158.8" class="st2" width="14.3" height="2.1"/>
	<rect x="264.7" y="158.8" class="st2" width="14.3" height="2.1"/>
	<rect x="288.7" y="158.8" class="st2" width="14.3" height="2.1"/>
	<rect x="312.7" y="158.8" class="st2" width="7.2" height="2.1"/>
</g>
<g>
	<rect x="162.9" y="308.6" class="st2" width="2.1" height="10.6"/>
	<rect x="162.9" y="284.6" class="st2" width="2.1" height="14.3"/>
	<rect x="162.9" y="260.7" class="st2" width="2.1" height="14.3"/>
	<rect x="162.9" y="236.7" class="st2" width="2.1" height="14.3"/>
</g>
<g>
	<rect x="162.9" y="68.8" class="st2" width="2.1" height="14.3"/>
	<rect x="162.9" y="44.8" class="st2" width="2.1" height="14.3"/>
	<rect x="162.9" y="20.8" class="st2" width="2.1" height="14.3"/>
	<rect x="162.9" y="0.6" class="st2" width="2.1" height="10.6"/>
</g>
<g>
	<g>
		<path class="st3" d="M196.9,292.7c-8.4,1.7-17.1,1.7-25.6,0c-1.3-0.3-2.3-1.4-2.3-2.8c0-16.2,0-37.6,0-53.8c0-3.5,2.6-6.5,6-7
			c6-0.8,12-0.8,18,0c3.5,0.5,6,3.5,6,7v53.8C199.2,291.3,198.2,292.4,196.9,292.7z"/>
		<path class="st4" d="M190.7,228.8c-4.3-0.5-8.7-0.5-13,0v6.8h13V228.8z"/>
		<path class="st3" d="M192.7,232.5c-2.8-0.4-5.6-0.6-8.5-0.6c-2.8,0-5.7,0.2-8.5,0.6c-1.7,0.3-3,1.7-3,3.5v56.9
			c7.6,1.4,15.4,1.4,23,0v-56.8C195.6,234.3,194.4,232.8,192.7,232.5z"/>
		<path class="st5" d="M192.9,252.4h-17.5l2.7-17.9c4-0.7,8.1-0.7,12.1,0L192.9,252.4z"/>
		<path class="st3" d="M196.4,230.4c0.8,1.2,1.2,2.8,1.2,4.5v49.4c-4,1.4-8.5,2.2-13.4,2.2c-4.9,0-9.4-0.8-13.4-2.2v-49.4
			c0-1.7,0.5-3.2,1.2-4.5c-1.7,1.3-2.8,3.4-2.8,5.7c0,14.2,0,32.4,0,47.5v6.3c0,0.1,0,0.3,0,0.4v0.1c0,0.1,0.1,0.3,0.1,0.4v0.1
			c0.1,0.1,0.1,0.3,0.1,0.3c0,0,0,0,0,0.1c0.1,0.1,0.1,0.3,0.2,0.3l0,0c0.1,0.3,0.3,0.5,0.6,0.6l0,0c0.1,0.1,0.2,0.1,0.3,0.3l0,0
			c0.1,0.1,0.3,0.1,0.4,0.2l0,0c0.1,0.1,0.3,0.1,0.4,0.1c8.4,1.7,17.1,1.7,25.6,0c0.1,0,0.3-0.1,0.4-0.1l0,0
			c0.1-0.1,0.3-0.1,0.4-0.2l0,0c0.1-0.1,0.3-0.1,0.3-0.3l0,0c0.2-0.2,0.4-0.4,0.6-0.6l0,0c0.1-0.1,0.1-0.2,0.2-0.3c0,0,0,0,0-0.1
			c0.1-0.1,0.1-0.3,0.1-0.3v-0.1c0.1-0.1,0.1-0.3,0.1-0.4v-0.1c0-0.1,0-0.3,0-0.4v-53.8C199.2,233.7,198.1,231.7,196.4,230.4z"/>
		<path class="st6" d="M173.5,277.2l-1,1.2c-0.8,0.9-2.2,0.4-2.2-0.8v-27.8l3.2,7.4V277.2z"/>
		<path class="st7" d="M171.6,278.1c-0.2,0-0.6-0.1-0.6-0.5v-24.4l1.7,4.1V277l-0.8,1C171.8,278.1,171.7,278.1,171.6,278.1z"/>
		<g>
			<path class="st3" d="M169.5,251.5l-2,1.1c-0.6,0.3-1.1,1-1.2,1.7l-0.1,0.7l3-1.1l0.6-1.7l1-0.4l-0.2-0.6L169.5,251.5z"/>
			<polygon class="st6" points="169,253.6 166.1,254.6 166,255 169.1,253.8 169.7,252.1 170.7,251.7 170.7,251.5 169.6,251.9 			"/>
		</g>
		<path class="st6" d="M194.9,277.2l1,1.2c0.8,0.9,2.2,0.4,2.2-0.8v-27.8l-3.2,7.4V277.2z"/>
		<path class="st7" d="M196.8,278.1c0.2,0,0.6-0.1,0.6-0.5v-24.4l-1.7,4.1V277l0.8,1C196.5,278.1,196.6,278.1,196.8,278.1z"/>
		<g>
			<path class="st3" d="M198.9,251.5l2,1.1c0.6,0.3,1.1,1,1.2,1.7l0.1,0.7l-3-1.1l-0.6-1.7l-1-0.4l0.2-0.6L198.9,251.5z"/>
			<polygon class="st6" points="199.4,253.6 202.2,254.6 202.3,255 199.3,253.8 198.6,252.1 197.6,251.7 197.7,251.5 198.8,251.9 
							"/>
		</g>
		<g>
			<path class="st8" d="M172,234.9c0,0,0.1-3.1,4.7-3.2v-1.7C176.7,229.9,172.1,230,172,234.9z"/>
			<path class="st9" d="M172,234.9c0,0,0-0.1,0.1-0.3c0.5-4.1,4.6-4.2,4.6-4.2v-0.5C176.7,229.9,172.1,230,172,234.9z"/>
			<path class="st7" d="M176.3,229.9v1.4c-2.1,0.1-3.3,0.8-3.9,1.6c-0.2,0.6-0.3,1.2-0.4,2.1c0,0,0.1-3.1,4.7-3.2v-1.7
				C176.7,229.9,176.6,229.9,176.3,229.9z"/>
		</g>
		<g>
			<path class="st8" d="M196.4,234.9c0,0-0.1-3.1-4.7-3.2v-1.7C191.7,229.9,196.3,230,196.4,234.9z"/>
			<path class="st9" d="M196.4,234.9c0,0,0-0.1-0.1-0.3c-0.5-4.1-4.6-4.2-4.6-4.2v-0.5C191.7,229.9,196.3,230,196.4,234.9z"/>
			<path class="st7" d="M192.1,229.9v1.4c2.1,0.1,3.3,0.8,3.9,1.6c0.2,0.6,0.3,1.2,0.4,2.1c0,0-0.1-3.1-4.7-3.2v-1.7
				C191.7,229.9,191.8,229.9,192.1,229.9z"/>
		</g>
		<path class="st10" d="M178.5,231.5c3.8-0.3,7.6-0.3,11.3,0v-1.4c-3.8-0.3-7.6-0.3-11.3,0V231.5z"/>
		<path class="st6" d="M193.9,256.8h-19.4c0,0-1.4-3-2.6-5.6c-0.6-1.3,0.1-2.8,1.5-3.2c7.1-1.8,14.5-1.8,21.6,0
			c1.4,0.3,2.1,1.9,1.5,3.2C195.3,253.9,193.9,256.8,193.9,256.8z"/>
		<path class="st7" d="M174.9,256.2c-0.4-0.9-1.4-3.1-2.4-5.1c-0.2-0.5-0.2-0.9,0-1.4c0.2-0.5,0.6-0.7,1-0.8
			c3.5-0.9,7.1-1.4,10.6-1.4s7.2,0.5,10.6,1.4c0.5,0.1,0.8,0.5,1,0.8c0.2,0.5,0.2,0.9,0,1.4c-0.9,2-1.9,4.3-2.4,5.1H174.9z"/>
		<path class="st6" d="M193.9,278.7h-19.4c0,0-0.3,0.3-0.6,0.7c-1.6,1.7-0.6,4.5,1.7,4.8c5.8,0.9,11.7,0.9,17.5,0
			c2.3-0.4,3.2-3.1,1.7-4.8C194.2,279,193.9,278.7,193.9,278.7z"/>
		<path class="st7" d="M184.2,284.2c-2.9,0-5.8-0.3-8.6-0.7c-0.8-0.1-1.4-0.6-1.7-1.4c-0.3-0.8-0.1-1.6,0.5-2.2
			c0.2-0.2,0.3-0.4,0.5-0.5h18.8c0.1,0.1,0.3,0.3,0.5,0.5c0.6,0.6,0.7,1.4,0.5,2.2c-0.3,0.8-0.9,1.3-1.7,1.4
			C190,283.9,187,284.2,184.2,284.2z"/>
		<path class="st11" d="M199.1,290.8c-0.5-0.5-1.2-0.6-2.4,0.6c-1.2,1.2-4.9,0.8-5.2,2.1c1.8-0.2,3.7-0.5,5.5-0.8
			C198,292.5,198.8,291.7,199.1,290.8L199.1,290.8z"/>
		<path class="st11" d="M169.3,290.8c0.5-0.5,1.2-0.6,2.4,0.6c1.2,1.2,4.9,0.8,5.2,2.1c-1.8-0.2-3.7-0.5-5.5-0.8
			C170.4,292.5,169.6,291.7,169.3,290.8L169.3,290.8z"/>
		<path class="st12" d="M178.3,292v1.7c3.9,0.4,7.8,0.4,11.7,0V292C186.1,292.4,182.3,292.4,178.3,292z"/>
	</g>
</g>
<g>
	<g>
		
			<linearGradient id="SVGID_1_" gradientUnits="userSpaceOnUse" x1="709.912" y1="-25441.627" x2="881.962" y2="-25441.627" gradientTransform="matrix(-5.450000e-02 0 0 7.800000e-03 182.1067 310.3602)">
			<stop  offset="0" style="stop-color:#5A5A5C"/>
			<stop  offset="0.1412" style="stop-color:#FFFFFF"/>
			<stop  offset="0.8941" style="stop-color:#A6A8AA"/>
			<stop  offset="1" style="stop-color:#FFFFFF"/>
		</linearGradient>
		<path class="st13" d="M143.6,111.6c0.1-0.1,0.3-0.3,0.5-0.4c-1.4,0.4-2.8,0.6-4.2,0.6c-0.4,0-0.7,0-1.1,0c0,0,0,0-0.1,0
			c0,0,0,0-0.1,0c-1.7,0.1-3.4-0.1-5.3-0.6c0.1,0.1,0.3,0.3,0.5,0.4c1.9,0.6,3.4,0.9,4.9,1c0,0,0,0,0.1,0c0,0,0,0,0.1,0
			C140.2,112.5,141.8,112.2,143.6,111.6z"/>
		
			<linearGradient id="SVGID_2_" gradientUnits="userSpaceOnUse" x1="657.3789" y1="-853.0331" x2="829.4281" y2="-853.0331" gradientTransform="matrix(-9.720000e-02 -8.330000e-02 -6.930000e-02 8.090000e-02 154.1799 232.6013)">
			<stop  offset="5.098000e-02" style="stop-color:#F29498"/>
			<stop  offset="0.8941" style="stop-color:#911915"/>
			<stop  offset="1" style="stop-color:#EA506A"/>
		</linearGradient>
		<path class="st14" d="M144,111.2c-0.1,0.1-0.3,0.3-0.5,0.4c-0.5,0.3-0.9,0.6-1.4,0.8c-1.2,0.4-2.3,0.5-3.4,0.5h-0.1
			c-0.1,0-0.1,0-0.1,0v0.6c0.1,0,0.1,0,0.1,0h0.1c1.3-0.1,2.6-0.2,3.8-0.5c0.7-0.5,1.4-1,2-1.6c0.2-0.1,0.3-0.3,0.5-0.5
			c0.2-0.2,0.4-0.5,0.6-0.6c0.5-0.6,0.9-1.2,1.2-1.7c2-3.4,3-7.7,2.9-12.9c0-0.2,0-0.3,0-0.5c-0.1,0.4-0.3,0.8-0.7,1.2
			c0,0.1,0,0.3,0,0.4c0,3.6-0.7,7.2-2.1,10.6C146.1,109,145.1,110.3,144,111.2z"/>
		
			<linearGradient id="SVGID_3_" gradientUnits="userSpaceOnUse" x1="2074.5264" y1="682.1277" x2="2246.5762" y2="682.1277" gradientTransform="matrix(-2.480000e-02 -6.900000e-02 -8.510000e-02 3.060000e-02 260.5797 233.2013)">
			<stop  offset="5.098000e-02" style="stop-color:#F29498"/>
			<stop  offset="0.7809" style="stop-color:#911915"/>
		</linearGradient>
		<path class="st15" d="M146.9,108.5c-0.4,0.6-0.8,1.2-1.2,1.7c0.3-0.1,0.5-0.2,0.8-0.3c1-0.5,1.9-1.1,2.8-1.9
			c0.8-4,1.2-8.5,1.2-13.3l-0.6,1C149.8,100.8,148.9,105.1,146.9,108.5z"/>
		<path class="st16" d="M146.4,110c-0.3,0.1-0.5,0.2-0.8,0.3c-0.2,0.2-0.4,0.5-0.6,0.6c0.1-0.1,0.3-0.1,0.5-0.1
			C146.1,110.6,146.4,110.3,146.4,110z"/>
		
			<linearGradient id="SVGID_4_" gradientUnits="userSpaceOnUse" x1="4220.3813" y1="-6855.2476" x2="4392.4541" y2="-6855.2476" gradientTransform="matrix(-3.010000e-02 0 0 2.540000e-02 277.6877 282.8046)">
			<stop  offset="0" style="stop-color:#5A5A5C"/>
			<stop  offset="0.1412" style="stop-color:#FFFFFF"/>
			<stop  offset="0.8941" style="stop-color:#A6A8AA"/>
			<stop  offset="1" style="stop-color:#FFFFFF"/>
		</linearGradient>
		<path class="st17" d="M146.4,110c0,0.3-0.3,0.6-0.9,0.8c1.3-0.5,2.5-1.1,3.6-2c0.6-0.5,1.2-1,1.6-1.7c0.1-0.3,0-0.5-0.1-0.6
			c-0.4,0.7-0.8,1.2-1.2,1.6C148.3,108.9,147.3,109.6,146.4,110z"/>
		<path class="st2" d="M145.5,110.8c-0.1,0.1-0.3,0.1-0.5,0.1c-0.1,0.2-0.3,0.3-0.5,0.5c1.4-0.3,2.8-1,4.1-1.9
			c0.8-0.6,1.4-1.2,1.9-1.9c0.1-0.2,0.1-0.4,0.1-0.6c-0.5,0.7-1,1.3-1.6,1.7C147.9,109.7,146.7,110.4,145.5,110.8z"/>
		
			<linearGradient id="SVGID_5_" gradientUnits="userSpaceOnUse" x1="28905.7852" y1="-474.9595" x2="29077.834" y2="-474.9595" gradientTransform="matrix(-4.600000e-03 -6.200000e-03 -2.530000e-02 1.880000e-02 268.2095 299.4705)">
			<stop  offset="5.098000e-02" style="stop-color:#F29498"/>
			<stop  offset="0.8941" style="stop-color:#911915"/>
			<stop  offset="1" style="stop-color:#EA506A"/>
		</linearGradient>
		<path class="st18" d="M144.5,111.5c-0.6,0.6-1.2,1.1-2,1.6c1.7-0.4,3.4-1,5-1.9c1.3-0.5,2.3-1.4,2.8-2.8c0.1-0.3,0.1-0.5,0.1-0.6
			c-0.5,0.7-1.1,1.4-1.9,1.9C147.3,110.5,145.9,111.2,144.5,111.5z"/>
		
			<linearGradient id="SVGID_6_" gradientUnits="userSpaceOnUse" x1="670.3527" y1="-25792.4531" x2="842.4027" y2="-25792.4531" gradientTransform="matrix(-5.670000e-02 0 0 7.800000e-03 181.6272 313.4603)">
			<stop  offset="0" style="stop-color:#5A5A5C"/>
			<stop  offset="0.1412" style="stop-color:#808183"/>
			<stop  offset="0.8941" style="stop-color:#1B2326"/>
			<stop  offset="1" style="stop-color:#FFFFFF"/>
		</linearGradient>
		<path class="st19" d="M142.2,112.5c0.5-0.3,1-0.5,1.4-0.8c-1.9,0.6-3.4,0.9-4.9,1c0,0,0,0-0.1,0c0,0,0,0-0.1,0
			c-1.4-0.1-3-0.4-4.9-1c0.5,0.3,0.9,0.6,1.4,0.8c1.1,0.4,2.2,0.5,3.3,0.5c0.1,0,0.1,0,0.1,0c0,0,0,0,0.1,0c0,0,0,0,0.1,0
			C139.9,113,141.1,112.9,142.2,112.5z"/>
		
			<linearGradient id="SVGID_7_" gradientUnits="userSpaceOnUse" x1="-69.5987" y1="214.6261" x2="-58.3941" y2="196.3122" gradientTransform="matrix(-1 0 0 1 67.498 -99.7312)">
			<stop  offset="0" style="stop-color:#A31923"/>
			<stop  offset="0.1412" style="stop-color:#F29498"/>
			<stop  offset="0.7697" style="stop-color:#911915"/>
			<stop  offset="1" style="stop-color:#EF7B87"/>
		</linearGradient>
		<path class="st20" d="M138.5,112.9c-1.1,0.1-2.2-0.1-3.3-0.5c-0.5-0.3-1-0.5-1.4-0.8c-0.1-0.1-0.3-0.3-0.5-0.4
			c-1.1-1-2.1-2.3-2.9-3.9c-1.4-3.4-2.1-7.1-2.1-10.9l0,0c0,0,0-0.1,0-0.2c-0.3-0.3-0.5-0.5-0.6-0.8l-0.1-0.1
			c-0.1,5.2,0.8,9.6,2.9,13.1c0.4,0.6,0.8,1.2,1.2,1.7c0.2,0.2,0.4,0.5,0.6,0.6s0.3,0.3,0.5,0.5c0.6,0.6,1.3,1.1,2,1.6
			c1.2,0.3,2.4,0.5,3.6,0.5L138.5,112.9z"/>
		<path class="st16" d="M132,110.8c0.1,0.1,0.3,0.1,0.5,0.1c-0.2-0.2-0.4-0.5-0.6-0.6c-0.3-0.1-0.5-0.2-0.7-0.3
			C131,110.3,131.4,110.6,132,110.8z"/>
		<path class="st2" d="M132.4,111c-0.1-0.1-0.3-0.1-0.5-0.1c-1.3-0.5-2.5-1.1-3.6-2c-0.6-0.5-1.2-1-1.6-1.7c0.1,0.2,0.1,0.4,0.1,0.6
			c0.5,0.7,1.1,1.4,1.9,1.9c1.4,0.9,2.7,1.6,4.1,1.9C132.7,111.3,132.6,111.1,132.4,111z"/>
		
			<linearGradient id="SVGID_8_" gradientUnits="userSpaceOnUse" x1="895.8972" y1="-422.8574" x2="1067.9474" y2="-422.8574" gradientTransform="matrix(-4.370000e-02 -2.450000e-02 -0.489 0.8707 -34.5886 500.845)">
			<stop  offset="0" style="stop-color:#5A5A5C"/>
			<stop  offset="0.1412" style="stop-color:#FFFFFF"/>
			<stop  offset="0.8941" style="stop-color:#A6A8AA"/>
			<stop  offset="1" style="stop-color:#FFFFFF"/>
		</linearGradient>
		<path class="st21" d="M132,110.8c-0.6-0.3-0.9-0.5-0.9-0.8c-1-0.5-1.9-1.1-2.8-1.9c-0.4-0.4-0.8-0.9-1.2-1.6
			c-0.1,0.1-0.2,0.3-0.1,0.6c0.5,0.7,1,1.3,1.6,1.7C129.5,109.7,130.7,110.4,132,110.8z"/>
		
			<linearGradient id="SVGID_9_" gradientUnits="userSpaceOnUse" x1="-62.3169" y1="208.5127" x2="-60.8782" y2="195.1343" gradientTransform="matrix(-1 0 0 1 67.498 -99.7312)">
			<stop  offset="5.098000e-02" style="stop-color:#F29498"/>
			<stop  offset="0.7303" style="stop-color:#911915"/>
			<stop  offset="1" style="stop-color:#C1434A"/>
		</linearGradient>
		<path class="st22" d="M131.1,110c0.3,0.1,0.5,0.2,0.7,0.3c-0.5-0.6-0.8-1.2-1.2-1.7c-2-3.5-3-7.8-2.9-13.1l-0.6-0.5
			c-0.1,4.8,0.3,9.1,1.2,13.1C129.2,108.9,130.1,109.6,131.1,110z"/>
		
			<linearGradient id="SVGID_10_" gradientUnits="userSpaceOnUse" x1="-1663.7202" y1="5290.0269" x2="-1491.6704" y2="5290.0269" gradientTransform="matrix(4.260000e-02 1.750000e-02 1.200000e-02 -2.910000e-02 134.3881 291.9495)">
			<stop  offset="5.098000e-02" style="stop-color:#F29498"/>
			<stop  offset="0.8941" style="stop-color:#911915"/>
			<stop  offset="1" style="stop-color:#EA506A"/>
		</linearGradient>
		<path class="st23" d="M134.9,113c-0.7-0.5-1.4-1-2-1.6c-1.4-0.3-2.7-1-4.1-1.9c-0.8-0.6-1.4-1.2-1.9-1.9c0.1,0.2,0.1,0.4,0.1,0.6
			c0.5,1.4,1.4,2.4,2.8,2.8C131.5,112,133.2,112.7,134.9,113z"/>
		
			<radialGradient id="SVGID_11_" cx="-2472.5134" cy="-889.0913" r="56.0675" gradientTransform="matrix(-1.820000e-02 0 2.000000e-04 0.1251 81.2958 212.6241)" gradientUnits="userSpaceOnUse">
			<stop  offset="5.098000e-02" style="stop-color:#F29498"/>
			<stop  offset="1" style="stop-color:#911915"/>
		</radialGradient>
		<path class="st24" d="M126.8,107c-0.1-0.3,0-0.5,0.1-0.6c0.4,0.7,0.8,1.2,1.2,1.6c-0.8-3.9-1.2-8.3-1.2-13.1c-0.6,0.5-1,1-1.3,1.7
			l0,0c0,0.1,0,0.3-0.1,0.4c-0.3,2.8-0.2,5.2,0.3,7.1c0.1,0.5,0.3,1.1,0.5,1.7C126.6,106.1,126.7,106.5,126.8,107z"/>
		
			<linearGradient id="SVGID_12_" gradientUnits="userSpaceOnUse" x1="94.6576" y1="-516.4739" x2="266.7075" y2="-516.4739" gradientTransform="matrix(-0.1281 0 0 8.320000e-02 161.8493 134.6724)">
			<stop  offset="0" style="stop-color:#5B5B5D"/>
			<stop  offset="0.2784" style="stop-color:#808183"/>
			<stop  offset="1" style="stop-color:#272626"/>
		</linearGradient>
		<path class="st25" d="M137.8,98.8c-0.1-0.2,0-0.3,0.2-0.5c0.5-0.3,0.9-0.5,1.2-0.8c-0.2,0-0.4,0-0.5,0h-0.1c0,0,0,0-0.1,0
			c-2.8,0.1-5.4-0.4-8.1-1.4c-1.4-0.5-2.2-1.2-2.3-1.9c0-0.7,0.1-1.4,0.1-2.1l0,0c0.1-1.6,0.3-3,0.6-4.1c0.4-1.6,0.7-2.3,1.1-2.1
			c2.8,0.5,5.6,0.7,8.5,0.6c0,0,0,0,0.1,0c0,0,0,0,0.1,0l0,0c2.3,0.1,4.7-0.1,7-0.4c0.1-0.2,0.1-0.4,0.3-0.5c0,0,0.1-0.1,0.1-0.2
			c0.2-0.1,0.4-0.3,0.5-0.6c0-0.1,0-0.1,0.1-0.1c-2.6,0.4-5.2,0.6-7.8,0.6c0,0,0,0-0.1,0c0,0,0,0-0.1,0c-2.7,0.1-5.4-0.2-8.1-0.6
			c0,0,0,0-0.1,0c-0.1,0-0.3,0-0.4,0c-0.6,0-1,0.4-1.1,1.2v0.1c-0.5,2.4-1,5.2-1.4,8.3c0,0.4-0.1,0.8-0.1,1.2c0,0.1,0.1,0.3,0.1,0.4
			c0.1,0.3,0.3,0.5,0.6,0.8C131.4,98,134.5,98.8,137.8,98.8z"/>
		
			<linearGradient id="SVGID_13_" gradientUnits="userSpaceOnUse" x1="94.6573" y1="-516.6984" x2="266.7076" y2="-516.6984" gradientTransform="matrix(-0.1281 0 0 8.320000e-02 161.8493 134.6724)">
			<stop  offset="0" style="stop-color:#272626"/>
			<stop  offset="0.4667" style="stop-color:#808183"/>
			<stop  offset="0.7725" style="stop-color:#5B5B5D"/>
		</linearGradient>
		<path class="st26" d="M138,98.4c-0.2,0.1-0.3,0.3-0.2,0.5h0.1c0.3,0,0.5,0,0.8,0c0,0,0,0,0.1,0c0,0,0,0,0.1,0
			c3.6,0.2,7.1-0.6,10.3-2.5c0.4-0.3,0.6-0.7,0.7-1.2c0-0.4,0-0.8-0.1-1.2c-0.4-3.1-0.8-5.9-1.4-8.3v-0.1c-0.1-0.8-0.5-1.1-1.1-1.2
			c-0.1,0-0.3,0-0.4,0c0,0,0,0-0.1,0c-0.1,0-0.2,0-0.3,0.1c0,0.1,0,0.1-0.1,0.1c-0.1,0.3-0.3,0.5-0.5,0.6c0,0.1,0,0.1-0.1,0.2
			c-0.1,0.2-0.3,0.3-0.3,0.5c0.5-0.1,1-0.1,1.5-0.3c0.4-0.1,0.7,0.6,1.1,2.1c0.3,1,0.5,2.3,0.6,3.8l0,0c0.1,0.7,0.1,1.6,0.2,2.4
			c-0.1,0.8-0.8,1.4-2.3,1.9c-2.5,0.9-4.9,1.4-7.5,1.4C138.9,97.8,138.5,98.2,138,98.4z"/>
		
			<linearGradient id="SVGID_14_" gradientUnits="userSpaceOnUse" x1="-84.1342" y1="199.1459" x2="-60.2866" y2="206.014" gradientTransform="matrix(-1 0 0 1 67.498 -99.7312)">
			<stop  offset="0" style="stop-color:#F4A097"/>
			<stop  offset="0.4213" style="stop-color:#BC3F43"/>
			<stop  offset="1" style="stop-color:#EB857E"/>
		</linearGradient>
		<path class="st27" d="M130.5,107.4c0.8,1.7,1.8,3,2.9,3.9c1.8,0.5,3.6,0.7,5.3,0.6c0,0,0,0,0.1,0c0,0,0,0,0.1,0c0.4,0,0.7,0,1.1,0
			c1.4,0,2.8-0.3,4.2-0.6c1.1-1,2.1-2.3,2.9-3.9c1.4-3.4,2.1-7,2.1-10.6c0-0.1,0-0.3,0-0.4c-3.2,1.8-6.7,2.7-10.3,2.5c0,0,0,0-0.1,0
			c0,0,0,0-0.1,0c-0.3,0-0.5,0-0.8,0h-0.1c-3.3,0-6.4-0.8-9.4-2.5c0,0.1,0,0.2,0,0.2l0,0C128.4,100.3,129.2,103.9,130.5,107.4z"/>
		
			<linearGradient id="SVGID_15_" gradientUnits="userSpaceOnUse" x1="-60.1686" y1="193.2117" x2="-58.4883" y2="193.2117" gradientTransform="matrix(-1 0 0 1 67.498 -99.7312)">
			<stop  offset="5.098000e-02" style="stop-color:#F29498"/>
			<stop  offset="1" style="stop-color:#911915"/>
		</linearGradient>
		<path class="st28" d="M125.9,94.4c0,0.5,0,1-0.1,1.6l1.2-1.1c0-0.5,0-0.9,0-1.4l-0.1-2.1l-0.4-0.1l-0.7-0.3L125.9,94.4z"/>
		<path class="st29" d="M125.9,95.9c0,0.3-0.1,0.5-0.1,0.8c0.3-0.6,0.7-1.2,1.3-1.7c0-0.1,0-0.1,0-0.1L125.9,95.9z"/>
		<path class="st30" d="M127.8,95.6c-0.1-0.1-0.1-0.3-0.1-0.4c0,0.1,0,0.2,0,0.3L127.8,95.6z"/>
		
			<linearGradient id="SVGID_16_" gradientUnits="userSpaceOnUse" x1="-1247.0419" y1="267.6859" x2="-1074.9919" y2="267.6859" gradientTransform="matrix(-2.890000e-02 0 0 0.2411 95.3308 10.2155)">
			<stop  offset="0" style="stop-color:#911915"/>
			<stop  offset="0.6039" style="stop-color:#ED686E"/>
			<stop  offset="1" style="stop-color:#A31923"/>
		</linearGradient>
		<path class="st31" d="M127.7,95.5c0-0.1,0-0.2,0-0.3c0-0.4,0-0.8,0.1-1.2c0.4-3.1,0.8-5.9,1.4-8.3v-0.1c0.1-0.8,0.5-1.1,1.1-1.2
			c0.5-6.8,0.5-14.1,0.2-21.9c-1.2-1.2-1.6-3.6-1.2-7.4c-0.3-0.1-0.5-0.6-0.5-1.2c-1.1,2.3-1.7,5.4-1.7,9.1c0.4-0.3,0.8,0,1.2,0.7
			c0.1,0.3,0.2,0.6,0.3,0.9l0.1,0.3c0.6,2.3,1,5.4,0.8,9.1v0.1c0,0.3,0,0.5,0,0.7c0,0.1,0,0.1,0,0.2c0,0.2,0,0.4,0,0.5
			c-0.1,3.2-0.3,6.2-0.6,8.9l-0.8,4.9l-0.6,3.9c0,0.5,0,0.9,0,1.4c0,0.1,0,0.1,0,0.1L127.7,95.5z"/>
		<path d="M126.6,91.2l0.4,0.1l0.1,2.1l0.6-3.9l-0.7,0.6V77.7V77v-0.3v-1.2V63.2c0.3-0.1,0.6,0.1,0.9,0.6c0.1,0.3,0.3,0.5,0.4,0.9
			c-0.1-0.3-0.2-0.6-0.3-0.9c-0.3-0.7-0.7-1-1.2-0.7v0.3v13.5V77v13.2c-0.1-0.5-0.5-0.8-1-1l-1.6-0.6c-0.2-0.1-0.3,0-0.4,0.2
			l2.1,0.8c0.5,0.3,0.8,0.6,0.9,1l0.4,0.1l-0.1,0.5l-0.5-0.1L126.6,91.2z"/>
		
			<radialGradient id="SVGID_17_" cx="-2752.2725" cy="1359.1772" r="86.0249" gradientTransform="matrix(-6.100000e-03 1.150000e-02 2.600000e-02 1.380000e-02 73.1395 102.5509)" gradientUnits="userSpaceOnUse">
			<stop  offset="0" style="stop-color:#F29498"/>
			<stop  offset="1" style="stop-color:#A01916"/>
		</radialGradient>
		<path class="st32" d="M127.3,90.7l-0.4-0.1c-0.1-0.4-0.4-0.8-0.9-1l-2.1-0.8c0,0,0,0,0,0.1c-0.1,0.7,0.2,1.3,1,1.7l1,0.4l0.7,0.3
			l0.2-0.1l0.5,0.1L127.3,90.7z"/>
		<path class="st33" d="M128.5,92L128.5,92L128.5,92L128.5,92z"/>
		
			<linearGradient id="SVGID_18_" gradientUnits="userSpaceOnUse" x1="-2738.3157" y1="-430.0995" x2="-2566.2659" y2="-430.0995" gradientTransform="matrix(-1.340000e-02 0 0 1 92.6154 513.0689)">
			<stop  offset="0" style="stop-color:#808183"/>
			<stop  offset="1" style="stop-color:#5A5A5C"/>
		</linearGradient>
		<path class="st34" d="M127,90.2l0.7-0.6l0.8-4.9c0.3-2.7,0.5-5.6,0.6-8.9c-0.1,0-0.1,0.1-0.1,0.1l0,0c-0.8,0.6-1.5,1.2-1.9,1.8
			H127V90.2z"/>
		
			<linearGradient id="SVGID_19_" gradientUnits="userSpaceOnUse" x1="-60.1686" y1="183.4121" x2="-58.4883" y2="183.4121" gradientTransform="matrix(-1 0 0 1 67.498 -99.7312)">
			<stop  offset="5.098000e-02" style="stop-color:#F29498"/>
			<stop  offset="1" style="stop-color:#911915"/>
		</linearGradient>
		<path class="st35" d="M125.8,89.2c0.6,0.3,1,0.6,1,1V77.1c-0.5,0.1-0.8,0.3-1,0.6v0.2v3.8V89.2z"/>
		
			<linearGradient id="SVGID_20_" gradientUnits="userSpaceOnUse" x1="2176.8616" y1="-5667.4629" x2="2348.9114" y2="-5667.4629" gradientTransform="matrix(1.270000e-02 0 0 -2.050000e-02 99.3823 -39.7143)">
			<stop  offset="5.098000e-02" style="stop-color:#F29498"/>
			<stop  offset="0.2392" style="stop-color:#AE1917"/>
			<stop  offset="1" style="stop-color:#ED696A"/>
		</linearGradient>
		<path class="st36" d="M127,77v0.7h0.1c0.5-0.6,1.2-1.2,1.9-1.8l0,0v-0.6C128.2,75.7,127.6,76.3,127,77z"/>
		<path class="st2" d="M125.8,81.7v-3.8c-0.3,0.3-0.4,1-0.3,2.1C125.5,81,125.7,81.5,125.8,81.7z"/>
		<path class="st30" d="M125.8,77.4v0.2c0.3-0.3,0.6-0.5,1-0.6v-0.2C126.4,77,126,77.2,125.8,77.4z"/>
		<path d="M130.6,84.5L130.6,84.5c0.1-0.1,0.1-0.1,0.1-0.2c0.4-6.9,0.5-14,0.3-21.5c-0.1,0-0.1,0-0.2,0c-0.1-0.1-0.3-0.1-0.4-0.2
			c0.3,7.8,0.3,15.1-0.2,21.9C130.3,84.5,130.4,84.5,130.6,84.5z"/>
		
			<linearGradient id="SVGID_21_" gradientUnits="userSpaceOnUse" x1="2176.8616" y1="-5616.978" x2="2348.9114" y2="-5616.978" gradientTransform="matrix(1.270000e-02 0 0 -2.050000e-02 99.3823 -39.7143)">
			<stop  offset="5.098000e-02" style="stop-color:#F29498"/>
			<stop  offset="0.2392" style="stop-color:#AE1917"/>
			<stop  offset="1" style="stop-color:#ED696A"/>
		</linearGradient>
		<path class="st37" d="M127,75.5v1.2c0.6-0.6,1.3-1.2,2.1-1.6v-0.9C128.3,74.4,127.7,74.9,127,75.5z"/>
		<path class="st30" d="M129.1,75.3v0.6c0,0,0.1-0.1,0.1-0.1c0-0.2,0-0.4,0-0.5c0-0.1,0-0.1,0-0.2c0-0.3,0-0.5,0-0.7v-0.1
			c-0.1,0-0.1,0-0.1,0.1V75.3c-0.8,0.3-1.4,0.9-2.1,1.6v0.3C127.6,76.3,128.2,75.7,129.1,75.3z"/>
		
			<linearGradient id="SVGID_22_" gradientUnits="userSpaceOnUse" x1="-2738.3157" y1="-443.7215" x2="-2566.2659" y2="-443.7215" gradientTransform="matrix(-1.340000e-02 0 0 1 92.6154 513.0689)">
			<stop  offset="0" style="stop-color:#808183"/>
			<stop  offset="1" style="stop-color:#5A5A5C"/>
		</linearGradient>
		<path class="st38" d="M129.1,74.2c0.1,0,0.1,0,0.1-0.1c0.1-3.8-0.1-6.8-0.8-9.1l-0.1-0.3c-0.1-0.4-0.3-0.6-0.4-0.9
			c-0.3-0.5-0.6-0.6-0.9-0.6v12.4C127.7,74.9,128.3,74.4,129.1,74.2z"/>
		
			<linearGradient id="SVGID_23_" gradientUnits="userSpaceOnUse" x1="-60.1686" y1="170.1196" x2="-58.4883" y2="170.1196" gradientTransform="matrix(-1 0 0 1 67.498 -99.7312)">
			<stop  offset="5.098000e-02" style="stop-color:#F29498"/>
			<stop  offset="1" style="stop-color:#911915"/>
		</linearGradient>
		<path class="st39" d="M125.8,77.4c0.2-0.2,0.6-0.4,1-0.6V63.4c-0.5,0.2-0.8,0.6-1.2,1c0,0.2,0,0.4,0,0.6c0,0.4,0.1,0.7,0.1,1
			L125.8,77.4L125.8,77.4z"/>
		
			<radialGradient id="SVGID_24_" cx="12399.6748" cy="-771.6476" r="196.456" gradientTransform="matrix(-1.370000e-02 -1.400000e-03 -1.010000e-02 0.1004 311.1607 197.4098)" gradientUnits="userSpaceOnUse">
			<stop  offset="5.098000e-02" style="stop-color:#F29498"/>
			<stop  offset="1" style="stop-color:#911915"/>
		</radialGradient>
		<path class="st40" d="M150.5,106.4c0.1,0.1,0.2,0.3,0.1,0.6c0.1-0.5,0.3-0.9,0.4-1.2c0.2-0.6,0.4-1.1,0.5-1.7
			c0.5-1.9,0.5-4.3,0.3-7.1c0-0.2-0.1-0.5-0.1-0.7l-1.2-1.6c0.1,4.9-0.3,9.3-1.2,13.3C149.7,107.7,150,107.2,150.5,106.4z"/>
		<path class="st29" d="M151.7,96.4c0-0.1,0-0.3,0-0.4l-1.2-1.5c0,0.1,0,0.1,0,0.3L151.7,96.4z"/>
		
			<linearGradient id="SVGID_25_" gradientUnits="userSpaceOnUse" x1="3988.4543" y1="261.4088" x2="4160.5024" y2="261.4088" gradientTransform="matrix(-3.090000e-02 0 0 0.239 273.5586 12.7306)">
			<stop  offset="0" style="stop-color:#911915"/>
			<stop  offset="0.6039" style="stop-color:#F29498"/>
			<stop  offset="1" style="stop-color:#A31923"/>
		</linearGradient>
		<path class="st41" d="M149.7,95.2c0,0.2,0,0.3,0,0.5l0.6-1c0-0.1,0-0.1,0-0.3c0-0.3,0-0.6,0-1l-0.6-3.9l-0.8-4.9
			c-0.3-2.7-0.5-5.6-0.6-8.9c0-0.2,0-0.4,0-0.6c0-0.1,0-0.2,0-0.3c0-0.2,0-0.4,0-0.6v-0.1c-0.1-3.8,0.1-6.8,0.8-9.1l0.1-0.3
			c0.1-0.3,0.2-0.6,0.3-0.9c0.3-0.7,0.7-1,1.2-0.7c-0.3-3.9-0.8-6.7-1.8-8.5c-0.1,0.3-0.3,0.5-0.5,0.6c0.3,3.8-0.1,6.3-1.2,7.4
			c-0.3,7.8-0.3,15.1,0.2,21.9c0.6,0,1,0.4,1.1,1.2v0.1c0.5,2.4,1,5.2,1.4,8.3C149.7,94.4,149.7,94.8,149.7,95.2z"/>
		
			<linearGradient id="SVGID_26_" gradientUnits="userSpaceOnUse" x1="-84.321" y1="193.2117" x2="-83.1659" y2="193.2117" gradientTransform="matrix(-1 0 0 1 67.498 -99.7312)">
			<stop  offset="5.098000e-02" style="stop-color:#F29498"/>
			<stop  offset="1" style="stop-color:#911915"/>
		</linearGradient>
		<path class="st42" d="M150.4,93.5c0,0.3,0,0.6,0,1l1.2,1.5c0-0.5-0.1-1-0.1-1.6l0.1-3.4l-0.8,0.3l-0.4,0.1L150.4,93.5z"/>
		
			<radialGradient id="SVGID_27_" cx="8667.2666" cy="6320.5269" r="86.0247" gradientTransform="matrix(-5.300000e-03 -9.200000e-03 -1.920000e-02 1.110000e-02 319.5112 99.5833)" gradientUnits="userSpaceOnUse">
			<stop  offset="0" style="stop-color:#F29498"/>
			<stop  offset="1" style="stop-color:#A01916"/>
		</radialGradient>
		<path class="st43" d="M152.6,90.5c0.8-0.4,1.1-1,1-1.7v-0.1l-2.1,0.8c-0.5,0.3-0.8,0.6-0.9,1l-0.4,0.1l0.1,0.5l0.5-0.1l0.2,0.1
			l0.8-0.3L152.6,90.5z"/>
		<path d="M153.5,88.8c-0.1-0.2-0.2-0.3-0.4-0.2l-1.6,0.6c-0.6,0.3-1,0.6-1,1V76.9v-0.2V63.3v-0.2c-0.4-0.3-0.8,0-1.2,0.7
			c-0.1,0.3-0.2,0.6-0.3,0.9c0.1-0.4,0.3-0.6,0.4-0.9c0.3-0.5,0.6-0.6,0.9-0.6v12.4v1v0.3v0.9v12.5l-0.7-0.6l0.6,3.9l0.1-2.1
			l0.4-0.1l-0.2-0.1l-0.5,0.1l-0.1-0.5l0.4-0.1c0.1-0.4,0.4-0.8,0.9-1L153.5,88.8z"/>
		
			<linearGradient id="SVGID_28_" gradientUnits="userSpaceOnUse" x1="-95.3744" y1="191.4285" x2="-61.5344" y2="191.4285" gradientTransform="matrix(-1 0 0 1 67.498 -99.7312)">
			<stop  offset="0.2784" style="stop-color:#A6A8AA"/>
			<stop  offset="1" style="stop-color:#555557"/>
		</linearGradient>
		<path class="st44" d="M128.4,94.2c0.1,0.8,0.8,1.4,2.3,1.9c2.6,1,5.3,1.5,8.1,1.4c0,0,0,0,0.1,0h0.1c0.2,0,0.4,0,0.5,0
			c2.6,0,5.1-0.5,7.5-1.4c1.4-0.5,2.2-1.2,2.3-1.9c-0.1-0.8-0.1-1.6-0.2-2.4l0,0c-0.1-1.5-0.3-2.7-0.6-3.8c-0.4-1.6-0.7-2.3-1.1-2.1
			c-0.5,0.1-1,0.2-1.5,0.3c-2.3,0.3-4.6,0.5-7,0.4c0,0,0,0-0.1,0c0,0,0,0-0.1,0c-2.8,0.1-5.7-0.1-8.5-0.6c-0.4-0.1-0.7,0.6-1.1,2.1
			c-0.3,1.1-0.5,2.5-0.6,4.1h0.1h-0.1C128.4,92.7,128.4,93.4,128.4,94.2z"/>
		
			<linearGradient id="SVGID_29_" gradientUnits="userSpaceOnUse" x1="11330.1553" y1="-415.6523" x2="11502.2061" y2="-415.6523" gradientTransform="matrix(-1.290000e-02 0 0 1 296.8583 498.7188)">
			<stop  offset="0" style="stop-color:#808183"/>
			<stop  offset="1" style="stop-color:#5A5A5C"/>
		</linearGradient>
		<path class="st45" d="M149.7,89.6l0.7,0.6V77.7h-0.1c-0.5-0.6-1.2-1.2-1.9-1.8l0,0c0,0-0.1-0.1-0.1-0.1c0.1,3.2,0.3,6.2,0.6,8.9
			L149.7,89.6z"/>
		
			<linearGradient id="SVGID_30_" gradientUnits="userSpaceOnUse" x1="-84.321" y1="183.3151" x2="-83.1659" y2="183.3151" gradientTransform="matrix(-1 0 0 1 67.498 -99.7312)">
			<stop  offset="5.098000e-02" style="stop-color:#F29498"/>
			<stop  offset="1" style="stop-color:#911915"/>
		</linearGradient>
		<path class="st46" d="M150.6,90.3c0.1-0.5,0.5-0.8,1-1v-7.6v-3.8v-0.5c-0.3-0.3-0.7-0.5-1-0.5V90.3z"/>
		<path d="M146.9,84.5c0.1,0,0.3,0,0.4,0c-0.5-6.8-0.5-14.1-0.2-21.9c-0.2,0.1-0.4,0.2-0.6,0.3c0,0.2,0,0.4,0,0.6
			c-0.1,7.1,0,13.8,0.3,20.4C146.8,84.1,146.8,84.3,146.9,84.5L146.9,84.5z"/>
		<path class="st2" d="M151.7,77.9v3.8c0.1-0.1,0.3-0.7,0.3-1.7C152,78.9,151.9,78.2,151.7,77.9z"/>
		
			<linearGradient id="SVGID_31_" gradientUnits="userSpaceOnUse" x1="-83.048" y1="176.1675" x2="-80.863" y2="176.1675" gradientTransform="matrix(-1 0 0 1 67.498 -99.7312)">
			<stop  offset="5.098000e-02" style="stop-color:#F29498"/>
			<stop  offset="0.2392" style="stop-color:#AE1917"/>
			<stop  offset="1" style="stop-color:#ED696A"/>
		</linearGradient>
		<path class="st47" d="M150.4,77.7L150.4,77.7l0.1-0.9c-0.6-0.6-1.3-1.2-2.1-1.6v0.6l0,0C149.2,76.4,149.9,77,150.4,77.7z"/>
		<path class="st30" d="M150.6,76.9c0.4,0,0.7,0.1,1,0.5v-0.2c-0.3-0.2-0.6-0.4-1-0.5V76.9z"/>
		<path class="st30" d="M148.2,75.1c0,0.2,0,0.4,0,0.6c0.1,0,0.1,0.1,0.1,0.1v-0.6c0.7,0.4,1.4,0.9,2.1,1.6v-0.3
			c-0.6-0.6-1.3-1.2-2.1-1.6v-0.8c-0.1,0-0.1,0-0.1-0.1v0.1c0,0.2,0,0.4,0,0.6C148.2,74.9,148.2,75.1,148.2,75.1z"/>
		
			<linearGradient id="SVGID_32_" gradientUnits="userSpaceOnUse" x1="-12051.376" y1="-5609.7666" x2="-11879.3262" y2="-5609.7666" gradientTransform="matrix(1.270000e-02 0 0 -2.050000e-02 301.2827 -39.6635)">
			<stop  offset="5.098000e-02" style="stop-color:#F29498"/>
			<stop  offset="0.2392" style="stop-color:#AE1917"/>
			<stop  offset="1" style="stop-color:#ED696A"/>
		</linearGradient>
		<path class="st48" d="M150.4,76.5v-1c-0.6-0.6-1.3-1.1-2.1-1.4v0.8C149.1,75.4,149.8,75.9,150.4,76.5z"/>
		
			<linearGradient id="SVGID_33_" gradientUnits="userSpaceOnUse" x1="11330.1553" y1="-429.3391" x2="11502.127" y2="-429.3391" gradientTransform="matrix(-1.290000e-02 0 0 1 296.8583 498.7188)">
			<stop  offset="0" style="stop-color:#808183"/>
			<stop  offset="1" style="stop-color:#5A5A5C"/>
		</linearGradient>
		<path class="st49" d="M148.2,74.1c0.1,0,0.1,0,0.1,0.1c0.8,0.3,1.4,0.7,2.1,1.4V63.2c-0.3-0.1-0.6,0.1-0.9,0.6
			c-0.1,0.3-0.3,0.5-0.4,0.9l-0.1,0.3C148.4,67.4,148.1,70.4,148.2,74.1z"/>
		
			<linearGradient id="SVGID_34_" gradientUnits="userSpaceOnUse" x1="-84.321" y1="169.9255" x2="-83.1659" y2="169.9255" gradientTransform="matrix(-1 0 0 1 67.498 -99.7312)">
			<stop  offset="5.098000e-02" style="stop-color:#F29498"/>
			<stop  offset="1" style="stop-color:#911915"/>
		</linearGradient>
		<path class="st50" d="M150.6,76.6c0.4,0.1,0.7,0.3,1,0.5V66c0.1-0.3,0.1-0.6,0.1-1c0-0.1,0-0.3,0-0.4c-0.3-0.7-0.7-1.2-1.2-1.4
			L150.6,76.6L150.6,76.6z"/>
		
			<linearGradient id="SVGID_35_" gradientUnits="userSpaceOnUse" x1="2715.0198" y1="-3784.1321" x2="2887.0696" y2="-3784.1321" gradientTransform="matrix(2.800000e-02 4.550000e-02 4.490000e-02 -2.760000e-02 232.1616 -171.0146)">
			<stop  offset="0" style="stop-color:#808183"/>
			<stop  offset="1" style="stop-color:#272626"/>
		</linearGradient>
		<path class="st51" d="M146.5,62.9c0.2,0,0.4-0.1,0.6-0.3c1.2-1.2,1.6-3.6,1.2-7.4c-0.1-0.3-0.3-0.5-0.5-0.7
			c-0.2-0.3-0.5-0.5-0.7-0.7c-1,0.1-1.6,0.3-1.7,0.3c1.2,0.4,1.8,1,1.9,1.7c0.3,1.6,0.3,3.1,0,4.5c-0.3,1.4-0.8,2-1.6,1.7
			c-2.3-0.5-4.7-0.7-7.1-0.6c0,0,0,0-0.1,0c0,0,0,0-0.1,0c-2.3-0.1-4.7,0.1-7,0.6h-0.1h-0.1l-0.8,0.8c0.1,0,0.1,0,0.2,0
			c2.5-0.5,5-0.8,7.7-0.7h0.1C141.4,62.1,144,62.3,146.5,62.9z"/>
		
			<radialGradient id="SVGID_36_" cx="-73.8564" cy="176.4114" r="15.1327" gradientTransform="matrix(-1 0 0 1 67.498 -99.7312)" gradientUnits="userSpaceOnUse">
			<stop  offset="0" style="stop-color:#F2948D"/>
			<stop  offset="0.9373" style="stop-color:#921919"/>
		</radialGradient>
		<path class="st52" d="M138.7,85.2C138.7,85.2,138.7,85.2,138.7,85.2C138.7,85.2,138.7,85.2,138.7,85.2c2.7,0,5.3-0.1,7.8-0.6
			c0.1,0,0.2-0.1,0.3-0.1l0,0c0-0.2,0-0.4,0-0.6c-0.4-6.6-0.5-13.5-0.3-20.4c0-0.2,0-0.4,0-0.6c-2.5-0.5-5-0.8-7.7-0.7h-0.1
			c-2.7-0.1-5.2,0.2-7.7,0.7c0.2,7.4,0.1,14.6-0.3,21.5c0,0.1,0,0.1,0,0.2l0,0C133.3,85,135.9,85.2,138.7,85.2z"/>
		
			<radialGradient id="SVGID_37_" cx="348.4633" cy="1818.1046" r="86.025" gradientTransform="matrix(-0.1167 0 0 0.1167 181.0612 -151.3669)" gradientUnits="userSpaceOnUse">
			<stop  offset="0" style="stop-color:#808183"/>
			<stop  offset="1" style="stop-color:#5A5A5C"/>
		</radialGradient>
		<path class="st53" d="M145.8,62.1c0.8,0.3,1.3-0.3,1.6-1.7s0.3-2.9,0-4.5c-0.1-0.7-0.8-1.3-1.9-1.7c-6.2,1.4-10.8,4-13.6,8
			c2.3-0.5,4.7-0.7,7-0.6c0,0,0,0,0.1,0c0,0,0,0,0.1,0C141.1,61.3,143.4,61.6,145.8,62.1z"/>
		<path class="st30" d="M151.7,64.7c0-0.1,0-0.1,0-0.2c-0.3-0.7-0.7-1.2-1.2-1.4v0.2C151,63.5,151.4,64,151.7,64.7z"/>
		
			<linearGradient id="SVGID_38_" gradientUnits="userSpaceOnUse" x1="-84.321" y1="159.4144" x2="-83.1659" y2="159.4144" gradientTransform="matrix(-1 0 0 1 67.498 -99.7312)">
			<stop  offset="5.098000e-02" style="stop-color:#F29498"/>
			<stop  offset="1" style="stop-color:#911915"/>
		</linearGradient>
		<path class="st54" d="M150.6,63c0.5,0.3,0.8,0.7,1.2,1.4c0.1-3.2-0.2-6.4-0.6-9.4C151.3,57.9,151.2,60.5,150.6,63z"/>
		
			<radialGradient id="SVGID_39_" cx="7095.7974" cy="1833.2313" r="86.025" gradientTransform="matrix(-2.870000e-02 7.700000e-03 3.270000e-02 0.1219 292.4854 -225.4267)" gradientUnits="userSpaceOnUse">
			<stop  offset="5.098000e-02" style="stop-color:#F29498"/>
			<stop  offset="1" style="stop-color:#911915"/>
		</radialGradient>
		<path class="st55" d="M148.9,54c0,0.2-0.1,0.4-0.1,0.6c1,1.8,1.6,4.7,1.8,8.5c0.6-2.5,0.8-5.2,0.5-8.1c0-0.2-0.1-0.4-0.1-0.6
			c-0.1-0.9-0.3-1.8-0.5-2.7l0,0v-0.1l0,0c-0.3-1.7-1-3-2.1-3.8l0,0c0.2,1,0.3,2.3,0.4,3.6C148.8,52.2,148.8,53.1,148.9,54z"/>
		<path class="st30" d="M148.8,54.6c0.1-0.2,0.1-0.4,0.1-0.6c0-0.9-0.1-1.8-0.1-2.6c-0.9-1.8-1.7-2.8-2.5-3
			c-0.6-0.2-1.1-0.3-1.7-0.5c-0.6-0.2-1.3-0.3-1.9-0.5c4.2,1,6.2,3.2,6,6.4c0,0.5-0.3,0.7-0.6,0.6c0.2,0.2,0.3,0.5,0.5,0.7
			C148.5,55.1,148.7,54.9,148.8,54.6z"/>
		
			<linearGradient id="SVGID_40_" gradientUnits="userSpaceOnUse" x1="133.6863" y1="6595.0332" x2="305.7364" y2="6595.0332" gradientTransform="matrix(-0.116 0 0 4.710000e-02 164.0612 -259.832)">
			<stop  offset="0" style="stop-color:#EA4E51"/>
			<stop  offset="0.8863" style="stop-color:#911915"/>
			<stop  offset="1" style="stop-color:#F29498"/>
		</linearGradient>
		<path class="st56" d="M147.9,54.5c0.4,0.1,0.6-0.2,0.6-0.6c0.3-3.2-1.7-5.4-6-6.4c-1.3-0.3-2.5-0.4-3.8-0.4h-0.1
			c-1.9,0-3.9,0.3-6,0.8h-0.1l0,0c-0.5,0.1-0.8,0.3-1.3,0.4c-0.8,0.2-1.6,1.2-2.5,3l0,0c0,0.1,0,0.1,0,0.1c0,0.3,0,0.6-0.1,0.8
			c0,0,0,0,0,0.1c0.1,1,0.3,1.4,0.7,1.2c1-1,2.3-1.7,3.9-2.1c3.4-0.9,6.9-1,10.3-0.2c1.4,0.3,2.5,1,3,2.1c0.2,0.1,0.5,0.3,0.6,0.4
			C147.5,54,147.7,54.2,147.9,54.5z"/>
		<path class="st57" d="M150.5,51.6L150.5,51.6c0.1-1.2-0.1-2-0.4-2.5c-0.3-0.5-0.8-0.9-1.7-1.4C149.5,48.6,150.2,49.9,150.5,51.6z"
			/>
		
			<linearGradient id="SVGID_41_" gradientUnits="userSpaceOnUse" x1="140.9046" y1="8864.7949" x2="312.9549" y2="8864.7949" gradientTransform="matrix(-0.1165 0 0 3.820000e-02 165.1684 -290.5304)">
			<stop  offset="5.098000e-02" style="stop-color:#F29498"/>
			<stop  offset="0.2392" style="stop-color:#B31917"/>
			<stop  offset="0.9438" style="stop-color:#F29498"/>
			<stop  offset="1" style="stop-color:#E6686C"/>
		</linearGradient>
		<path class="st58" d="M148.4,47.8c0-0.1,0-0.1,0-0.2c-0.3-0.7-0.7-1.2-1.4-1.4c-2.7-0.9-5.4-1.4-8.2-1.4l0,0h-0.1c0,0,0,0-0.1,0
			c-1,0-1.9,0.1-2.8,0.2c3.8-0.1,6.5,0.1,8.1,0.9c0.6,0.3,0.8,1,0.6,2c0.6,0.1,1.1,0.3,1.7,0.5c0.8,0.2,1.6,1.2,2.5,3
			C148.7,50,148.6,48.8,148.4,47.8z"/>
		
			<linearGradient id="SVGID_42_" gradientUnits="userSpaceOnUse" x1="5313.8262" y1="-2739.6919" x2="5485.8765" y2="-2739.6919" gradientTransform="matrix(1.910000e-02 3.750000e-02 5.680000e-02 -2.900000e-02 189.4147 -227.0769)">
			<stop  offset="0" style="stop-color:#272626"/>
			<stop  offset="1" style="stop-color:#5A5A5C"/>
		</linearGradient>
		<path class="st59" d="M145.4,54.1c0.3-0.1,0.8-0.1,1.7-0.3c-0.2-0.1-0.4-0.3-0.6-0.4c-1.6-0.9-4.2-1.4-7.8-1.6h-0.1c0,0,0,0-0.1,0
			c-5.4,0.1-8.5,1.2-9.6,3.4c-0.3,3.8,0.1,6.3,1.2,7.4c0.1,0.1,0.3,0.2,0.4,0.2l0.8-0.8c-0.7,0.2-1.2-0.4-1.5-1.7
			c-0.3-1.4-0.3-2.9,0-4.5c0.3-1.6,3.2-2.5,8.6-2.6c0,0,0,0,0.1,0c0,0,0,0,0.1,0l0,0C141.8,53.3,144,53.6,145.4,54.1z"/>
		
			<linearGradient id="SVGID_43_" gradientUnits="userSpaceOnUse" x1="133.5503" y1="6638.6646" x2="305.6004" y2="6638.6646" gradientTransform="matrix(-0.116 0 0 4.710000e-02 164.0612 -259.832)">
			<stop  offset="0" style="stop-color:#EA5359"/>
			<stop  offset="1" style="stop-color:#911915"/>
		</linearGradient>
		<path class="st60" d="M146.6,53.3c-0.6-1.2-1.6-1.9-3-2.1c-3.4-0.8-6.9-0.7-10.3,0.2c-1.6,0.5-2.9,1.2-3.9,2.1
			c-0.3,0.2-0.6-0.2-0.7-1.2c0,0.5,0,1-0.1,1.6c0.1,0.6,0.3,1,0.5,1.2c1-2.1,4.1-3.2,9.6-3.4c0,0,0,0,0.1,0h0.1
			C142.3,51.9,144.9,52.4,146.6,53.3z"/>
		
			<linearGradient id="SVGID_44_" gradientUnits="userSpaceOnUse" x1="140.9916" y1="8820.3525" x2="313.0414" y2="8820.3525" gradientTransform="matrix(-0.1165 0 0 3.820000e-02 165.1684 -290.5304)">
			<stop  offset="5.098000e-02" style="stop-color:#E6A890"/>
			<stop  offset="0.2" style="stop-color:#911915"/>
			<stop  offset="0.7725" style="stop-color:#911915"/>
			<stop  offset="0.949" style="stop-color:#E6A890"/>
			<stop  offset="1" style="stop-color:#C58972"/>
		</linearGradient>
		<path class="st61" d="M144.5,47.8c0.2-1,0-1.6-0.6-2c-1.6-0.8-4.3-1-8.1-0.9c-1.4,0.2-2.8,0.5-4.1,0.8c1-0.2,1.7-0.2,2.3,0
			c0.2,0.5,0.2,1,0,1.5c-0.3,0.3-0.8,0.5-1.3,0.6c2-0.6,4-0.8,6-0.8h0.1c1.2,0,2.5,0.1,3.8,0.4C143.3,47.6,143.9,47.7,144.5,47.8z"
			/>
		<path class="st30" d="M125.7,64.1c0,0.1,0,0.2,0,0.3c0.3-0.5,0.7-0.8,1.2-1V63C126.4,63.3,126,63.7,125.7,64.1z"/>
		
			<radialGradient id="SVGID_45_" cx="-4706.2632" cy="2235.1931" r="182.1916" gradientTransform="matrix(-1.860000e-02 -3.500000e-03 -1.930000e-02 0.1018 84.355 -184.6674)" gradientUnits="userSpaceOnUse">
			<stop  offset="0.118" style="stop-color:#F29498"/>
			<stop  offset="0.9551" style="stop-color:#911915"/>
		</radialGradient>
		<path class="st62" d="M126,56.8C126,56.9,126,56.9,126,56.8c-0.3,2.4-0.4,4.8-0.4,7.3c0.3-0.5,0.7-0.8,1.2-1.1
			c0.1-3.7,0.6-6.7,1.7-9.1c0-0.5,0-1,0.1-1.6c0,0,0,0,0-0.1c0-0.3,0-0.6,0.1-0.8c0-0.1,0-0.1,0-0.1l0,0c0-1-0.1-1.6-0.4-1.7
			C128,49.5,127.3,51.9,126,56.8z"/>
		
			<radialGradient id="SVGID_46_" cx="348.4633" cy="1818.1046" r="86.0249" gradientTransform="matrix(-0.1167 0 0 0.1167 181.0612 -151.3669)" gradientUnits="userSpaceOnUse">
			<stop  offset="0.2392" style="stop-color:#808183"/>
			<stop  offset="1" style="stop-color:#5A5A5C"/>
		</radialGradient>
		<path class="st63" d="M131.7,62.1L131.7,62.1c3-4,7.5-6.6,13.7-8c-1.4-0.5-3.6-0.8-6.6-0.8l0,0c0,0,0,0-0.1,0c0,0,0,0-0.1,0
			c-5.4,0.1-8.3,1-8.6,2.6c-0.3,1.6-0.3,3.1,0,4.5c0.3,1.4,0.8,1.9,1.5,1.7C131.6,62.1,131.6,62.1,131.7,62.1z"/>
		
			<linearGradient id="SVGID_47_" gradientUnits="userSpaceOnUse" x1="159.9205" y1="8876.4355" x2="331.9704" y2="8876.4355" gradientTransform="matrix(-0.1282 0 0 3.820000e-02 171.2211 -290.5304)">
			<stop  offset="5.098000e-02" style="stop-color:#F29498"/>
			<stop  offset="0.2549" style="stop-color:#911915"/>
			<stop  offset="0.7098" style="stop-color:#A31923"/>
			<stop  offset="0.949" style="stop-color:#F29498"/>
			<stop  offset="0.9944" style="stop-color:#EE757A"/>
		</linearGradient>
		<path class="st64" d="M134,45.8c-0.5-0.2-1.3-0.2-2.3,0c-0.4,0.1-0.8,0.3-1.2,0.4c-0.6,0.2-1,0.6-1.4,1.4c0,0.1,0,0.1,0,0.2
			c-0.2,1-0.3,2.3-0.4,3.6c0.9-1.8,1.7-2.8,2.5-3c0.5-0.1,0.9-0.3,1.3-0.4l0,0h0.1c0.5-0.1,1-0.4,1.3-0.6
			C134.2,46.8,134.2,46.4,134,45.8z"/>
		
			<radialGradient id="SVGID_48_" cx="-4902.3252" cy="2470.6348" r="83.8558" gradientTransform="matrix(-1.860000e-02 -3.500000e-03 -1.930000e-02 0.1018 83.355 -213.5175)" gradientUnits="userSpaceOnUse">
			<stop  offset="0.2824" style="stop-color:#EB5A5A"/>
			<stop  offset="1" style="stop-color:#911915"/>
		</radialGradient>
		<path class="st65" d="M127,51.7L127,51.7c-0.4,1.7-0.6,3.4-0.8,5.2c1.2-4.9,1.9-7.3,2.2-7.1c0.3,0.1,0.4,0.6,0.4,1.7
			c0.1-1.4,0.2-2.6,0.4-3.6C128,48.6,127.3,49.9,127,51.7L127,51.7L127,51.7z"/>
	</g>
	<g>
		
			<linearGradient id="SVGID_49_" gradientUnits="userSpaceOnUse" x1="-59.36" y1="182.7006" x2="-62.2688" y2="182.7006" gradientTransform="matrix(-1 0 0 1 67.498 -99.7312)">
			<stop  offset="0" style="stop-color:#272626"/>
			<stop  offset="1" style="stop-color:#808183"/>
		</linearGradient>
		<path class="st66" d="M127,90.2l0.7-0.6l0.8-4.9c0.3-2.7,0.5-5.6,0.6-8.9c-0.9,0.6-1.6,1.2-2.1,1.9H127V90.2z"/>
		
			<linearGradient id="SVGID_50_" gradientUnits="userSpaceOnUse" x1="-59.36" y1="169.0786" x2="-62.2688" y2="169.0786" gradientTransform="matrix(-1 0 0 1 67.498 -99.7312)">
			<stop  offset="0" style="stop-color:#272626"/>
			<stop  offset="1" style="stop-color:#808183"/>
		</linearGradient>
		<path class="st67" d="M127,75.5c0.6-0.7,1.4-1.2,2.2-1.4c0.1-3.8-0.1-6.8-0.8-9.1l-0.1-0.3c-0.1-0.4-0.3-0.6-0.4-0.9
			c-0.3-0.5-0.6-0.6-0.9-0.6L127,75.5L127,75.5z"/>
		
			<linearGradient id="SVGID_51_" gradientUnits="userSpaceOnUse" x1="-80.8207" y1="182.7976" x2="-83.4109" y2="182.7976" gradientTransform="matrix(-1 0 0 1 67.498 -99.7312)">
			<stop  offset="0" style="stop-color:#272626"/>
			<stop  offset="1" style="stop-color:#808183"/>
		</linearGradient>
		<path class="st68" d="M149.7,89.6l0.7,0.6V77.7h-0.1c-0.5-0.6-1.2-1.3-2.1-1.9c0.1,3.2,0.3,6.2,0.6,8.9L149.7,89.6z"/>
		
			<linearGradient id="SVGID_52_" gradientUnits="userSpaceOnUse" x1="-80.8207" y1="169.1109" x2="-83.4109" y2="169.1109" gradientTransform="matrix(-1 0 0 1 67.498 -99.7312)">
			<stop  offset="0" style="stop-color:#272626"/>
			<stop  offset="1" style="stop-color:#808183"/>
		</linearGradient>
		<path class="st69" d="M148.2,74.1c0.8,0.3,1.6,0.7,2.2,1.4V63.2c-0.3-0.1-0.6,0.1-0.9,0.6c-0.1,0.3-0.3,0.5-0.4,0.9l-0.1,0.3
			C148.4,67.4,148.1,70.4,148.2,74.1z"/>
		
			<linearGradient id="SVGID_53_" gradientUnits="userSpaceOnUse" x1="-79.3" y1="163.3912" x2="-59.4879" y2="149.8096" gradientTransform="matrix(-1 0 0 1 67.498 -99.7312)">
			<stop  offset="0" style="stop-color:#272626"/>
			<stop  offset="1" style="stop-color:#808183"/>
		</linearGradient>
		<path class="st70" d="M146.5,62.9c0.2,0,0.4-0.1,0.6-0.3c1.2-1.2,1.6-3.6,1.2-7.4c-0.1-0.3-0.3-0.5-0.5-0.7
			c-0.2-0.3-0.5-0.5-0.7-0.7c-1,0.1-1.6,0.3-1.7,0.3c1.2,0.4,1.8,1,1.9,1.7c0.3,1.6,0.3,3.1,0,4.5c-0.3,1.4-0.8,2-1.6,1.7
			c-2.3-0.5-4.7-0.7-7.1-0.6c0,0,0,0-0.1,0c0,0,0,0-0.1,0c-2.3-0.1-4.7,0.1-7,0.6h-0.1h-0.1l-0.8,0.8c0.1,0,0.1,0,0.2,0
			c2.5-0.5,5-0.8,7.7-0.7h0.1C141.4,62.1,144,62.3,146.5,62.9z"/>
		
			<linearGradient id="SVGID_54_" gradientUnits="userSpaceOnUse" x1="-63.5066" y1="152.7666" x2="-85.4189" y2="167.5382" gradientTransform="matrix(-1 0 0 1 67.498 -99.7312)">
			<stop  offset="0" style="stop-color:#020303"/>
			<stop  offset="1" style="stop-color:#808183"/>
		</linearGradient>
		<path class="st71" d="M147.1,53.8c-0.2-0.1-0.4-0.3-0.6-0.4c-1.6-0.9-4.2-1.4-7.8-1.6h-0.1c0,0,0,0-0.1,0
			c-5.4,0.1-8.5,1.2-9.6,3.4c-0.3,3.8,0.1,6.3,1.2,7.4c0.1,0.1,0.3,0.2,0.4,0.2l0.8-0.8c-0.7,0.2-1.2-0.4-1.5-1.7
			c-0.3-1.4-0.3-2.9,0-4.5c0.3-1.6,3.2-2.5,8.6-2.6c0,0,0,0,0.1,0c0,0,0,0,0.1,0l0,0c3,0.1,5.2,0.3,6.6,0.8
			C145.6,54.1,146.2,53.9,147.1,53.8z"/>
		
			<radialGradient id="SVGID_55_" cx="-73.8384" cy="159.9305" r="10.4637" gradientTransform="matrix(-1 0 0 1 67.498 -99.7312)" gradientUnits="userSpaceOnUse">
			<stop  offset="0" style="stop-color:#808183"/>
			<stop  offset="1" style="stop-color:#283136"/>
		</radialGradient>
		<path class="st72" d="M130.1,60.3c0.3,1.4,0.8,1.9,1.5,1.7h0.1h0.1c2.3-0.5,4.7-0.7,7-0.6c0,0,0,0,0.1,0c0,0,0,0,0.1,0
			c2.3-0.1,4.7,0.1,7.1,0.6c0.8,0.3,1.3-0.3,1.6-1.7c0.3-1.4,0.3-2.9,0-4.5c-0.1-0.7-0.8-1.3-1.9-1.7c-1.4-0.5-3.6-0.8-6.6-0.8
			c0,0,0,0-0.1,0c0,0,0,0-0.1,0c-5.4,0.1-8.3,1-8.6,2.6C129.8,57.4,129.8,58.9,130.1,60.3z"/>
		
			<linearGradient id="SVGID_56_" gradientUnits="userSpaceOnUse" x1="-81.4248" y1="197.048" x2="-62.3828" y2="185.1467" gradientTransform="matrix(-1 0 0 1 67.498 -99.7312)">
			<stop  offset="0" style="stop-color:#363639"/>
			<stop  offset="0.264" style="stop-color:#040405"/>
			<stop  offset="0.4382" style="stop-color:#545558"/>
			<stop  offset="1" style="stop-color:#020304"/>
		</linearGradient>
		<path class="st73" d="M137.8,98.8L137.8,98.8c0.3,0,0.6,0,0.8,0c0,0,0,0,0.1,0c0,0,0,0,0.1,0c3.6,0.2,7.1-0.6,10.3-2.5
			c0.4-0.3,0.6-0.7,0.7-1.2c0-0.4,0-0.8-0.1-1.2c-0.4-3.1-0.8-5.9-1.4-8.3v-0.1c-0.1-0.8-0.5-1.1-1.1-1.2c-0.1,0-0.3,0-0.4,0
			c0,0,0,0-0.1,0c-0.1,0-0.2,0-0.3,0.1c-2.6,0.4-5.2,0.6-7.8,0.6c0,0,0,0-0.1,0c0,0,0,0-0.1,0c-2.7,0.1-5.4-0.2-8.1-0.6
			c0,0,0,0-0.1,0c-0.1,0-0.3,0-0.4,0c-0.6,0-1,0.4-1.1,1.2v0.1c-0.5,2.4-1,5.2-1.4,8.3c0,0.4-0.1,0.8-0.1,1.2c0,0.1,0.1,0.3,0.1,0.4
			c0.1,0.3,0.3,0.5,0.6,0.8C131.4,98,134.5,98.8,137.8,98.8z M138.7,97.5L138.7,97.5c-2.8,0.1-5.5-0.4-8.1-1.4
			c-1.4-0.5-2.2-1.2-2.3-1.9c0-0.7,0.1-1.4,0.1-2.1l0,0c0.1-1.6,0.3-3,0.6-4.1c0.4-1.6,0.7-2.3,1.1-2.1c2.8,0.5,5.6,0.7,8.5,0.6
			c0,0,0,0,0.1,0c0,0,0,0,0.1,0l0,0c2.3,0.1,4.7-0.1,7-0.4c0.5-0.1,1-0.1,1.5-0.3c0.4-0.1,0.7,0.6,1.1,2.1c0.3,1,0.5,2.3,0.6,3.8
			l0,0c0.1,0.7,0.1,1.6,0.2,2.4c-0.1,0.8-0.8,1.4-2.3,1.9c-2.5,0.9-4.9,1.4-7.5,1.4C139.1,97.5,138.9,97.5,138.7,97.5L138.7,97.5z"
			/>
	</g>
</g>
<path class="st3" d="M105.5,129.7c-1.3,0.6-2.5,1.4-3.8,2c-1.2,0.7-2.5,1.4-3.6,2.1l-1.8,1.1c-0.6,0.4-1.2,0.8-1.7,1.1l-3.4,2.3
	l3.7,1.9c0.6,0.3,1.2,0.6,1.8,0.9l1.7,1c1.2,0.6,2.3,1.3,3.5,2c1.2,0.7,2.3,1.4,3.4,2.1l0.1-4.3c0.7,0,1.4,0,2.1,0.1l1,0.1h0.5
	l1.2,0.1c0.5,0,0.9,0.1,1.4,0.1l1.4,0.1l2.7,0.3c0.9,0.1,1.8,0.2,2.7,0.3l1.4,0.2c0.5,0.1,0.9,0.1,1.4,0.2l2.7,0.5
	c0.5,0.1,0.9,0.1,1.4,0.3l1.3,0.3l2.7,0.6l2.6,0.7l1.3,0.4l1.3,0.5c0.8,0.3,1.7,0.6,2.5,0.8l2.5,1c0.4,0.2,0.8,0.3,1.2,0.5l1.2,0.6
	l1.2,0.6c0.4,0.2,0.8,0.4,1.2,0.6l2.3,1.2c0.4,0.2,0.8,0.5,1.2,0.6l1.2,0.7l1.2,0.7c0.4,0.3,0.7,0.5,1.1,0.8c0.7,0.5,1.5,1,2.2,1.6
	c2.8,2.1,5.4,4.5,7.9,7.1c2.4,2.7,4.5,5.4,6.5,8.5c3.8,6,6.7,12.7,8.8,19.7c0.3,0.8,0.5,1.7,0.8,2.6l0.6,2.7l0.3,1.3l0.3,1.4
	l0.6,2.7c0.2,0.9,0.3,1.8,0.5,2.7c0.1,0.9,0.3,1.8,0.5,2.7l0.4,2.7l0.2,1.4l0.1,0.7l0.2,2.1l7.7-0.7l-0.2-2.3l-0.1-0.7l-0.2-1.4
	l-0.4-2.8c-0.1-1-0.3-1.9-0.5-2.8c-0.2-1-0.3-1.9-0.5-2.8l-0.6-2.8l-0.4-1.7l-0.3-1.4l-0.7-2.8c-0.3-1-0.5-1.9-0.8-2.8
	c-2.2-7.5-5.4-14.8-9.6-21.6c-2.2-3.4-4.6-6.5-7.3-9.5c-2.8-2.9-5.8-5.6-8.9-8.1c-0.8-0.6-1.6-1.2-2.5-1.7c-0.4-0.3-0.8-0.6-1.2-0.8
	l-1.3-0.8l-1.3-0.8c-0.5-0.3-0.8-0.5-1.3-0.8l-2.7-1.4c-0.5-0.3-0.9-0.5-1.4-0.6l-1.4-0.6l-1.4-0.6c-0.5-0.2-0.9-0.4-1.4-0.6
	l-2.8-1.1c-0.9-0.3-1.9-0.6-2.8-1l-1.4-0.3l-1.4-0.4l-2.8-0.8l-2.8-0.6l-1.4-0.3c-0.5-0.1-1-0.2-1.4-0.3l-2.9-0.5
	c-0.5-0.1-1-0.1-1.4-0.2l-1.4-0.2c-1-0.1-1.9-0.3-2.9-0.3l-2.9-0.3l-1.4-0.1c-0.5-0.1-1-0.1-1.4-0.1l-1.2-0.1H109l-1.1-0.1
	c-0.8-0.1-1.5-0.1-2.3-0.1L105.5,129.7z"/>
<polygon class="st74" points="130.3,222.2 138.2,236 146.2,222.2 141.9,222.2 141.9,127.7 134.5,127.7 134.5,222.3 130.3,222.3 "/>
<text transform="matrix(1 0 0 1 175.4196 274.5609)" class="st2 st75 st76">A</text>
<text transform="matrix(1 0 0 1 132.4562 81.2821)" class="st2 st75 st77">B</text>
</svg>
