<?xml version="1.0" encoding="utf-8"?>
<!-- Generator: Adobe Illustrator 22.0.1, SVG Export Plug-In . SVG Version: 6.00 Build 0)  -->
<svg version="1.1" id="svg2" xmlns:svg="http://www.w3.org/2000/svg"
	 xmlns="http://www.w3.org/2000/svg" xmlns:xlink="http://www.w3.org/1999/xlink" x="0px" y="0px" viewBox="0 0 393.7 292.8"
	 style="enable-background:new 0 0 393.7 292.8;" xml:space="preserve">
<style type="text/css">
	.st0{fill:none;stroke:#000000;}
	.st1{fill:none;stroke:#000000;stroke-width:15;}
	.st2{fill:none;stroke:#000000;stroke-width:14.9508;}
	.st3{fill:none;stroke:#000000;stroke-width:0.9055;stroke-linecap:round;stroke-linejoin:round;}
	.st4{fill:none;stroke:#FFFFFF;stroke-width:0.883;}
	.st5{fill:none;stroke:#FFFFFF;stroke-width:0.9876;}
</style>
<path id="path5102" class="st0" d="M14.3,278.3h366.2"/>
<path id="path6271" class="st0" d="M24.7,292.4l11.1-11.1"/>
<path id="path6273" class="st0" d="M51.5,292.5l11.1-11.1"/>
<path id="path6275" class="st0" d="M80.6,292.1l11.1-11.1"/>
<path id="path6277" class="st0" d="M109.4,292.1l11.1-11.1"/>
<path id="path6279" class="st0" d="M139.4,292.1l11.1-11.1"/>
<path id="path6281" class="st0" d="M167.6,292.5l11.1-11.1"/>
<path id="path6283" class="st0" d="M197.2,292.1l11.1-11.1"/>
<path id="path6285" class="st0" d="M225.5,292.5l11.1-11.1"/>
<path id="path6287" class="st0" d="M253.4,292.5l11.1-11.1"/>
<path id="path6289" class="st0" d="M281.7,292.5l11.1-11.1"/>
<path id="path6291" class="st0" d="M309.1,291.6l11.1-11.1"/>
<path id="path6293" class="st0" d="M336.1,291.6l11.1-11.1"/>
<path id="path6295" class="st0" d="M363.5,292.1l11.1-11.1"/>
<path id="path4136" class="st1" d="M27.8,270.1L25.7,0.5"/>
<path id="path5200" class="st1" d="M195.5,271.1L193.5,1.5"/>
<path id="path5202" class="st2" d="M0,7.6l50.2-0.1"/>
<path id="path6179" class="st2" d="M167.4,8.9l50.2-0.1"/>
<path id="path5200_1_" class="st1" d="M371.6,271.1L369.5,1.5"/>
<path id="path6179_1_" class="st2" d="M343.5,8.9l50.2-0.1"/>
<g id="g8408" transform="matrix(7.357704,0,0,7.357704,434.9445,-2099.79)">
	<path id="path3069" class="st3" d="M-51.4,300.6c0-2.3,1.9-4.2,4.2-4.2c2.3,0,4.2,1.9,4.2,4.2c0,2.3-1.9,4.2-4.2,4.2
		C-49.5,304.8-51.4,302.9-51.4,300.6L-51.4,300.6z"/>
	<path id="path6617" class="st4" d="M-48.1,305.3c0-2.4,0-1.2,0-1.2"/>
	<path id="path5730" class="st5" d="M-42.8,302.8c-2.7,0-1.6,0-1.6,0"/>
	<path id="path8406" class="st5" d="M-44.2,304.5c-2.7,0-1.6,0-1.6,0"/>
	<path id="path6630" d="M-38.6,296.3c-0.7,2.5-2,7.4-2.1,7.6c-0.2,0.3-0.2,0.6-0.7,0.6l-3.6,0v1.5h3.7c-0.1,0.3,0,0.7-0.6,1H-45v3
		c0,0.8-2.9,0.8-2.9,0v-6c0-0.6,0.6-1,1.4-1h4.7l2.1-6.7C-39.6,295.8-38.6,296-38.6,296.3z"/>
	<path id="path6632" d="M-47.9,313.1c0-0.8,0.7-1.5,1.5-1.5c0.8,0,1.5,0.7,1.5,1.5c0,0.8-0.7,1.5-1.5,1.5
		C-47.2,314.6-47.9,313.9-47.9,313.1z"/>
</g>
</svg>
