<?xml version="1.0" encoding="utf-8"?>
<!-- Generator: Adobe Illustrator 22.0.1, SVG Export Plug-In . SVG Version: 6.00 Build 0)  -->
<svg version="1.1" id="Layer_1" xmlns="http://www.w3.org/2000/svg" xmlns:xlink="http://www.w3.org/1999/xlink" x="0px" y="0px"
	 viewBox="0 0 850.4 850.4" style="enable-background:new 0 0 850.4 850.4;" xml:space="preserve">
<style type="text/css">
	.st0{fill:#9A9B9B;stroke:#000000;stroke-width:1.22;stroke-miterlimit:10;}
	.st1{fill:#363F3E;stroke:#000000;stroke-miterlimit:10;}
	.st2{fill:#ED6D63;}
	.st3{fill:#FBFAF9;}
	.st4{fill:#E8E5D9;}
	.st5{fill:#343844;}
	.st6{fill:#3C4F58;}
	.st7{fill:#304048;}
	.st8{fill:none;stroke:#C44241;stroke-width:18;stroke-miterlimit:10;}
	.st9{fill:#C44241;}
	.st10{fill:#FFED00;}
	.st11{fill:#DEDC00;}
	.st12{fill:#EF7B6F;}
	.st13{fill:#F1F2F2;}
	.st14{fill:none;stroke:#DEDC00;stroke-width:18;stroke-miterlimit:10;}
</style>
<path class="st0" d="M850.4,277.6v295.3H599.1c-14.5,0-26.2,11.8-26.2,26.2v251.3H277.6V595.7c0-12.6-10.2-22.9-22.9-22.9H0V277.6
	h249.8c15.3,0,27.8-12.4,27.8-27.8V0h295.3v248.6c0,16,13,29,29,29H850.4z"/>
<path class="st1" d="M850.4,304.2H580.3c-18.8,0-34.1-15.3-34.1-34.1V0h-242v270.1c0,18.8-15.3,34.1-34.1,34.1H0v242h270.1
	c18.8,0,34.1,15.3,34.1,34.1v270.1h242V580.3c0-18.8,15.3-34.1,34.1-34.1h270.1V304.2z"/>
<g>
	<g>
		<path class="st2" d="M744.6,397.5h-48.8l-21.1,2.1c-13.6,0-10.2,0-23,0c-10.2,0-19-6.2-20.4-14.5c-1.2-7.2-1.8-14.3-1.8-21.6
			c0-7.2,0.6-14.4,1.8-21.6c1.4-8.3,10.2-14.5,20.4-14.5c12.9,0,9.4,0,23,0l21.1,2.1h48.8l24.3-4.7h31.5c3.9,0,7.3,2.2,8.1,5.4
			c2.6,10.5,3.8,22,3.7,33.3c0.1,11.4-1.1,22.8-3.7,33.3c-0.8,3.2-4.2,5.4-8.1,5.4h-31.5L744.6,397.5z"/>
		<g>
			<path class="st3" d="M645.6,332.7l-5.1,2.7c-1.7,0.9-2.8,2.2-3.2,3.7L635,348c-0.2,0.9,1,1.7,2.1,1.2l2.7-1L645.6,332.7z"/>
			<path class="st4" d="M640.9,337.7c-1.7,0.9-2.8,2.2-3.2,3.7l-2,7.7c-0.5-0.2-0.8-0.7-0.7-1.2l2.3-8.9c0.4-1.5,1.5-2.8,3.2-3.7
				l5.1-2.7l-1.1,3.2L640.9,337.7z"/>
		</g>
		<g>
			<path class="st3" d="M645.6,394.4l-5.1-2.7c-1.7-0.9-2.8-2.2-3.2-3.7l-2.3-8.9c-0.2-0.9,1-1.7,2.1-1.2l2.7,1L645.6,394.4z"/>
			<path class="st4" d="M640.9,389.5c-1.7-0.9-2.8-2.2-3.2-3.7l-2-7.7c-0.5,0.2-0.8,0.7-0.7,1.2l2.3,8.9c0.4,1.5,1.5,2.8,3.2,3.7
				l5.1,2.7l-1.1-3.2L640.9,389.5z"/>
		</g>
		<path class="st5" d="M757.5,385.1v-43.2c0,0,7.3-3.2,13.3-6c2.4-1.1,5.5-0.1,6.1,2c4.7,16.7,4.7,34.5,0,51.2
			c-0.6,2.1-3.7,3.1-6.1,2C764.8,388.4,757.5,385.1,757.5,385.1z"/>
		<path class="st6" d="M778.4,363.6c0-8.6-1.2-17.1-3.5-25.3c-0.1-0.5-0.6-0.9-1.2-1.1c-0.6-0.2-1.3-0.2-1.9,0.1
			c-4.7,2.2-10.1,4.6-12.3,5.6v41.4c2.2,1,7.6,3.4,12.3,5.6c0.6,0.2,1.3,0.3,1.9,0.1c0.6-0.2,1-0.6,1.2-1.1
			C777.2,380.6,778.4,372.1,778.4,363.6z"/>
		<path class="st7" d="M704.2,385.1v-43.2c0,0-10.9-3.8-18.9-6.7c-2.3-0.8-5,0.1-5.7,2c-6.4,17.2-6.4,35.5,0,52.6
			c0.7,1.8,3.4,2.7,5.7,2C693.2,389,704.2,385.1,704.2,385.1z"/>
		<polygon class="st7" points="683.5,332.7 735.9,332.7 739.8,332.7 767.2,332.7 755.5,339.8 739.8,339.8 735.9,339.8 705,339.8 		
			"/>
		<polygon class="st6" points="693.5,334.3 705.4,338.2 754.7,338.2 761.3,334.3 		"/>
		<polygon class="st7" points="683.5,394.4 735.9,394.4 739.8,394.4 767.2,394.4 755.5,387.3 739.8,387.3 735.9,387.3 705,387.3 		
			"/>
		<polygon class="st6" points="754.7,388.9 705.4,388.9 693.5,392.8 761.3,392.8 		"/>
		<g>
			<path class="st2" d="M691.6,331.7l3.3-4.5c1-1.4,2.8-2.4,4.8-2.7l2.1-0.3l-3.3,6.7l-5.1,1.4l-1.1,2.3l-1.8-0.5L691.6,331.7z"/>
			<polygon class="st7" points="697.8,330.6 700.9,324.2 701.8,324.1 698.5,330.8 693.4,332.2 692.2,334.5 691.5,334.4 692.7,332 
							"/>
		</g>
		<g>
			<path class="st2" d="M691.6,395.4l3.3,4.5c1,1.4,2.8,2.4,4.8,2.7l2.1,0.3l-3.3-6.7l-5.1-1.4l-1.1-2.3l-1.8,0.5L691.6,395.4z"/>
			<polygon class="st7" points="697.8,396.5 700.9,402.9 701.8,403 698.5,396.3 693.4,394.9 692.2,392.5 691.5,392.8 692.7,395.1 
							"/>
		</g>
	</g>
</g>
<g>
	<g>
		<path class="st8" d="M601,371.6C508.6,386,466.2,350,454,289.8"/>
		<g>
			<polygon class="st9" points="487,295.6 450.1,244.7 424.5,302.1 			"/>
		</g>
	</g>
</g>
<g>
	<g>
		<path class="st10" d="M69.5,524c-5-20.3-5-41.2,0-61.6c0.8-3.1,4.2-5.4,8.1-5.4c47.2,0,109.8,0,157,0c10.2,0,19,6.2,20.4,14.5
			c2.4,14.4,2.4,28.9,0,43.3c-1.4,8.3-10.2,14.5-20.4,14.5h-157C73.7,529.4,70.3,527.2,69.5,524z"/>
		<path class="st11" d="M255.8,508.8c1.3-10.4,1.3-20.9,0-31.3H236v31.3H255.8z"/>
		<path class="st10" d="M244.8,513.6c1.2-6.8,1.7-13.6,1.7-20.5s-0.6-13.7-1.7-20.5c-0.7-4.1-5.1-7.3-10.2-7.3H68.8
			c-4,18.3-4,37.1,0,55.4h165.8C239.7,520.9,244.1,517.8,244.8,513.6z"/>
		<path class="st10" d="M186.9,514.3v-42.2l52.2,6.5c2,9.8,2,19.4,0,29.2L186.9,514.3z"/>
		<path class="st10" d="M251.1,522.6c-3.6,1.9-8.1,3.1-13,3.1H94c-4.1-9.7-6.5-20.7-6.5-32.3c0-11.7,2.3-22.7,6.5-32.3h144.2
			c4.8,0,9.3,1.2,13,3.1c-3.8-4.2-9.9-6.9-16.6-6.9c-41.3,0-94.4,0-138.7,0H77.6c-0.4,0-0.8,0-1.2,0.1h-0.1
			c-0.4,0.1-0.7,0.1-1.1,0.2c-0.1,0-0.1,0-0.2,0.1c-0.4,0.1-0.7,0.2-1,0.3c0,0-0.1,0-0.1,0.1c-0.3,0.2-0.7,0.3-1,0.5l0,0
			c-0.7,0.4-1.3,0.8-1.8,1.4l0,0c-0.2,0.2-0.5,0.5-0.7,0.8l0,0c-0.2,0.3-0.4,0.6-0.5,0.9l0,0c-0.1,0.3-0.3,0.7-0.4,1
			c-5,20.3-5,41.2,0,61.6c0.1,0.3,0.2,0.7,0.4,1l0,0c0.1,0.3,0.3,0.7,0.5,0.9l0,0c0.2,0.2,0.4,0.6,0.7,0.8l0,0
			c0.5,0.5,1.1,1,1.8,1.4l0,0c0.3,0.2,0.6,0.3,1,0.5c0,0,0.1,0,0.1,0.1c0.3,0.2,0.7,0.2,1,0.3c0.1,0,0.1,0,0.2,0.1
			c0.4,0.1,0.7,0.2,1.1,0.2h0.1c0.4,0.1,0.8,0.1,1.2,0.1h157C241.3,529.4,247.3,526.7,251.1,522.6z"/>
		<path class="st7" d="M114.5,467.4l-3.4-2.3c-2.6-1.8-1.1-5.3,2.3-5.3h81.1l-21.5,7.7L114.5,467.4L114.5,467.4z"/>
		<path class="st6" d="M111.8,462.8c0-0.5,0.4-1.3,1.6-1.3h71.1l-11.9,4.2h-57.3l-2.8-1.9C112,463.6,111.8,463.2,111.8,462.8z"/>
		<g>
			<path class="st7" d="M189.6,457.8l-3.3-4.9c-1-1.6-2.8-2.6-4.8-3l-2.1-0.4l3.3,7.3l5.1,1.5l1.1,2.6l1.8-0.6L189.6,457.8z"/>
			<polygon class="st7" points="183.4,456.6 180.3,449.7 179.4,449.5 182.7,456.9 187.9,458.4 189,460.9 189.7,460.7 188.6,458.1 
							"/>
		</g>
		<path class="st7" d="M114.5,519l-3.4,2.3c-2.6,1.8-1.1,5.3,2.3,5.3h81.1l-21.5-7.7L114.5,519L114.5,519z"/>
		<path class="st6" d="M111.8,523.6c0,0.5,0.4,1.3,1.6,1.3h71.1l-11.9-4.2h-57.3l-2.8,1.9C112,522.9,111.8,523.2,111.8,523.6z"/>
		<g>
			<path class="st7" d="M189.6,528.6l-3.3,4.9c-1,1.6-2.8,2.6-4.8,3l-2.1,0.4l3.3-7.3l5.1-1.5l1.1-2.6l1.8,0.6L189.6,528.6z"/>
			<polygon class="st7" points="183.4,529.8 180.3,536.8 179.4,536.9 182.7,529.6 187.9,528.1 189,525.5 189.7,525.8 188.6,528.3 
							"/>
		</g>
		<g>
			<path class="st3" d="M238,463.9c0,0,9,0.4,9.5,11.2h5.2C252.7,475.1,252.2,464.1,238,463.9z"/>
			<path class="st4" d="M238,463.9c0,0,0.4,0,1,0.2c11.9,1.3,12.3,11.1,12.3,11.1h1.4C252.7,475.1,252.2,464.1,238,463.9z"/>
			<path class="st6" d="M252.6,474.2h-4c-0.3-5.1-2.4-7.9-4.6-9.5c-1.7-0.5-3.6-0.8-6-0.9c0,0,9,0.4,9.5,11.2h5.2
				C252.7,475.1,252.7,474.8,252.6,474.2z"/>
		</g>
		<g>
			<path class="st3" d="M238,522.6c0,0,9-0.4,9.5-11.2h5.2C252.7,511.3,252.2,522.4,238,522.6z"/>
			<path class="st4" d="M238,522.6c0,0,0.4,0,1-0.2c11.9-1.3,12.3-11.1,12.3-11.1h1.4C252.7,511.3,252.2,522.4,238,522.6z"/>
			<path class="st6" d="M252.6,512.2h-4c-0.3,5.1-2.4,7.9-4.6,9.5c-1.7,0.5-3.6,0.8-6,0.9c0,0,9-0.4,9.5-11.2h5.2
				C252.7,511.3,252.7,511.7,252.6,512.2z"/>
		</g>
		<path class="st6" d="M247.8,479.6c1,9.1,1,18.3,0,27.4h4.1c1-9.1,1-18.3,0-27.4H247.8z"/>
		<path class="st7" d="M173.9,516.6v-46.9c0,0,8.6-3.3,16.2-6.2c3.8-1.5,8.3,0.2,9.3,3.6c5.3,17,5.3,35,0,52c-1,3.3-5.5,5-9.3,3.6
			C182.5,519.9,173.9,516.6,173.9,516.6z"/>
		<path class="st6" d="M175.9,470.9c2.6-1,9.1-3.5,15-5.8c1.3-0.5,2.7-0.5,4,0c1.2,0.5,2.1,1.4,2.5,2.5c2.6,8.3,3.9,16.9,3.9,25.6
			c0,8.6-1.3,17.3-3.9,25.6c-0.3,1.1-1.2,2-2.5,2.5s-2.7,0.5-4,0c-5.9-2.2-12.4-4.7-15-5.8V470.9z"/>
		<path class="st7" d="M110.3,516.6v-46.9c0,0-0.8-0.7-2.1-1.7c-4.9-3.8-12.9-1.5-14,4c-2.7,13.9-2.7,28.2,0,42.1
			c1.1,5.5,9.1,7.8,14,4C109.5,517.3,110.3,516.6,110.3,516.6z"/>
		<path class="st6" d="M94.3,493.2c0-6.9,0.7-14,2-20.7c0.4-2,2-3.5,4.2-4.1c2.2-0.7,4.6-0.2,6.4,1.1c0.6,0.4,1.1,0.8,1.4,1.1v45.4
			c-0.3,0.2-0.8,0.7-1.4,1.1c-1.7,1.3-4.1,1.7-6.4,1.1c-2.3-0.7-3.8-2.2-4.2-4.1C94.9,507.2,94.3,500.2,94.3,493.2z"/>
		<path class="st12" d="M75,529.1c1.3-1.2,1.7-2.9-1.7-5.7c-3.4-2.8-2.5-11.7-6.3-12.6c0.6,4.5,1.4,8.8,2.5,13.2
			C70.1,526.4,72.2,528.3,75,529.1L75,529.1z"/>
		<path class="st12" d="M75,457.4c1.3,1.2,1.7,2.9-1.7,5.7c-3.4,2.8-2.5,11.7-6.3,12.6c0.6-4.5,1.4-8.8,2.5-13.2
			C70.1,460,72.2,458.1,75,457.4L75,457.4z"/>
		<path class="st13" d="M71.5,479.1h-4.9c-1,9.4-1,18.8,0,28.3h4.9C70.4,497.9,70.4,488.5,71.5,479.1z"/>
	</g>
</g>
<g>
	<g>
		<path class="st14" d="M299.4,493.1c70.5-0.5,99.8,42.3,100.1,115.2"/>
		<g>
			<polygon class="st11" points="368.1,597.4 396.5,653.4 430.8,600.8 			"/>
		</g>
	</g>
</g>
</svg>
