<?xml version="1.0" encoding="utf-8"?>
<!-- Generator: Adobe Illustrator 22.0.1, SVG Export Plug-In . SVG Version: 6.00 Build 0)  -->
<svg version="1.1" id="Layer_1" xmlns="http://www.w3.org/2000/svg" xmlns:xlink="http://www.w3.org/1999/xlink" x="0px" y="0px"
	 viewBox="0 0 850.4 850.4" style="enable-background:new 0 0 850.4 850.4;" xml:space="preserve">
<style type="text/css">
	.st0{fill:#9A9B9B;stroke:#000000;stroke-width:1.22;stroke-miterlimit:10;}
	.st1{fill:#363F3E;stroke:#000000;stroke-miterlimit:10;}
	.st2{fill:#ED6D63;}
	.st3{fill:#FBFAF9;}
	.st4{fill:#E8E5D9;}
	.st5{fill:#343844;}
	.st6{fill:#3C4F58;}
	.st7{fill:#304048;}
	.st8{fill:#6CB75A;}
	.st9{fill:#231F20;}
	.st10{fill:#EF7B6F;}
	.st11{fill:#F1F2F2;}
	.st12{fill:#FFFFFF;}
	.st13{font-family:'TimesNewRomanPS-BoldMT';}
	.st14{font-size:36px;}
	.st15{fill:none;stroke:#6CB75A;stroke-width:18;stroke-miterlimit:10;}
	.st16{fill:none;stroke:#C44241;stroke-width:18;stroke-miterlimit:10;}
	.st17{fill:#C44241;}
	.st18{fill:#177494;}
	.st19{fill:#3587A3;}
	.st20{fill:#12617C;}
	.st21{fill:none;stroke:#009FE3;stroke-width:18;stroke-miterlimit:10;}
	.st22{fill:#009FE3;}
</style>
<path class="st0" d="M850.4,277.6v295.3H599.1c-14.5,0-26.2,11.8-26.2,26.2v251.3H277.6V595.7c0-12.6-10.2-22.9-22.9-22.9H0V277.6
	h249.8c15.3,0,27.8-12.4,27.8-27.8V0h295.3v248.6c0,16,13,29,29,29H850.4z"/>
<path class="st1" d="M850.4,304.2H580.3c-18.8,0-34.1-15.3-34.1-34.1V0h-242v270.1c0,18.8-15.3,34.1-34.1,34.1H0v242h270.1
	c18.8,0,34.1,15.3,34.1,34.1v270.1h242V580.3c0-18.8,15.3-34.1,34.1-34.1h270.1V304.2z"/>
<g>
	<g>
		<path class="st2" d="M744.6,397.5h-48.8l-21.1,2.1c-13.6,0-10.2,0-23,0c-10.2,0-19-6.2-20.4-14.5c-1.2-7.2-1.8-14.3-1.8-21.6
			c0-7.2,0.6-14.4,1.8-21.6c1.4-8.3,10.2-14.5,20.4-14.5c12.9,0,9.4,0,23,0l21.1,2.1h48.8l24.3-4.7h31.5c3.9,0,7.3,2.2,8.1,5.4
			c2.6,10.5,3.8,22,3.7,33.3c0.1,11.4-1.1,22.8-3.7,33.3c-0.8,3.2-4.2,5.4-8.1,5.4h-31.5L744.6,397.5z"/>
		<g>
			<path class="st3" d="M645.6,332.7l-5.1,2.7c-1.7,0.9-2.8,2.2-3.2,3.7L635,348c-0.2,0.9,1,1.7,2.1,1.2l2.7-1L645.6,332.7z"/>
			<path class="st4" d="M640.9,337.7c-1.7,0.9-2.8,2.2-3.2,3.7l-2,7.7c-0.5-0.2-0.8-0.7-0.7-1.2l2.3-8.9c0.4-1.5,1.5-2.8,3.2-3.7
				l5.1-2.7l-1.1,3.2L640.9,337.7z"/>
		</g>
		<g>
			<path class="st3" d="M645.6,394.4l-5.1-2.7c-1.7-0.9-2.8-2.2-3.2-3.7l-2.3-8.9c-0.2-0.9,1-1.7,2.1-1.2l2.7,1L645.6,394.4z"/>
			<path class="st4" d="M640.9,389.5c-1.7-0.9-2.8-2.2-3.2-3.7l-2-7.7c-0.5,0.2-0.8,0.7-0.7,1.2l2.3,8.9c0.4,1.5,1.5,2.8,3.2,3.7
				l5.1,2.7l-1.1-3.2L640.9,389.5z"/>
		</g>
		<path class="st5" d="M757.5,385.1v-43.2c0,0,7.3-3.2,13.3-6c2.4-1.1,5.5-0.1,6.1,2c4.7,16.7,4.7,34.5,0,51.2
			c-0.6,2.1-3.7,3.1-6.1,2C764.8,388.4,757.5,385.1,757.5,385.1z"/>
		<path class="st6" d="M778.4,363.6c0-8.6-1.2-17.1-3.5-25.3c-0.1-0.5-0.6-0.9-1.2-1.1c-0.6-0.2-1.3-0.2-1.9,0.1
			c-4.7,2.2-10.1,4.6-12.3,5.6v41.4c2.2,1,7.6,3.4,12.3,5.6c0.6,0.2,1.3,0.3,1.9,0.1c0.6-0.2,1-0.6,1.2-1.1
			C777.2,380.6,778.4,372.1,778.4,363.6z"/>
		<path class="st7" d="M704.2,385.1v-43.2c0,0-10.9-3.8-18.9-6.7c-2.3-0.8-5,0.1-5.7,2c-6.4,17.2-6.4,35.5,0,52.6
			c0.7,1.8,3.4,2.7,5.7,2C693.2,389,704.2,385.1,704.2,385.1z"/>
		<polygon class="st7" points="683.5,332.7 735.9,332.7 739.8,332.7 767.2,332.7 755.5,339.8 739.8,339.8 735.9,339.8 705,339.8 		
			"/>
		<polygon class="st6" points="693.5,334.3 705.4,338.2 754.7,338.2 761.3,334.3 		"/>
		<polygon class="st7" points="683.5,394.4 735.9,394.4 739.8,394.4 767.2,394.4 755.5,387.3 739.8,387.3 735.9,387.3 705,387.3 		
			"/>
		<polygon class="st6" points="754.7,388.9 705.4,388.9 693.5,392.8 761.3,392.8 		"/>
		<g>
			<path class="st2" d="M691.6,331.7l3.3-4.5c1-1.4,2.8-2.4,4.8-2.7l2.1-0.3l-3.3,6.7l-5.1,1.4l-1.1,2.3l-1.8-0.5L691.6,331.7z"/>
			<polygon class="st7" points="697.8,330.6 700.9,324.2 701.8,324.1 698.5,330.8 693.4,332.2 692.2,334.5 691.5,334.4 692.7,332 
							"/>
		</g>
		<g>
			<path class="st2" d="M691.6,395.4l3.3,4.5c1,1.4,2.8,2.4,4.8,2.7l2.1,0.3l-3.3-6.7l-5.1-1.4l-1.1-2.3l-1.8,0.5L691.6,395.4z"/>
			<polygon class="st7" points="697.8,396.5 700.9,402.9 701.8,403 698.5,396.3 693.4,394.9 692.2,392.5 691.5,392.8 692.7,395.1 
							"/>
		</g>
	</g>
</g>
<g>
	<g>
		<path class="st8" d="M517,776.5c-20.3,5-41.2,5-61.6,0c-3.1-0.8-5.4-4.2-5.4-8.1c0-47.2,0-109.8,0-157c0-10.2,6.2-19,14.5-20.4
			c14.4-2.4,28.9-2.4,43.3,0c8.3,1.4,14.5,10.2,14.5,20.4v157C522.5,772.3,520.2,775.7,517,776.5z"/>
		<path class="st9" d="M501.9,590.2c-10.4-1.3-20.9-1.3-31.3,0V610h31.3V590.2z"/>
		<path class="st8" d="M506.7,601.2c-6.8-1.2-13.6-1.7-20.5-1.7s-13.7,0.6-20.5,1.7c-4.1,0.7-7.3,5.1-7.3,10.2v165.8
			c18.3,4,37.1,4,55.4,0V611.4C514,606.3,510.8,601.9,506.7,601.2z"/>
		<path class="st9" d="M507.3,659.1h-42.2l6.5-52.2c9.8-2,19.4-2,29.2,0L507.3,659.1z"/>
		<path class="st8" d="M515.6,594.9c1.9,3.6,3.1,8.1,3.1,13V752c-9.7,4.1-20.7,6.5-32.3,6.5c-11.7,0-22.7-2.3-32.3-6.5V607.8
			c0-4.8,1.2-9.3,3.1-13c-4.2,3.8-6.9,9.9-6.9,16.6c0,41.3,0,94.4,0,138.7v18.3c0,0.4,0,0.8,0.1,1.2v0.1c0.1,0.4,0.1,0.7,0.2,1.1
			c0,0.1,0,0.1,0.1,0.2c0.1,0.4,0.2,0.7,0.3,1c0,0,0,0.1,0.1,0.1c0.2,0.3,0.3,0.7,0.5,1l0,0c0.4,0.7,0.8,1.3,1.4,1.8l0,0
			c0.2,0.2,0.5,0.5,0.8,0.7l0,0c0.3,0.2,0.6,0.4,0.9,0.5l0,0c0.3,0.1,0.7,0.3,1,0.4c20.3,5,41.2,5,61.6,0c0.3-0.1,0.7-0.2,1-0.4l0,0
			c0.3-0.1,0.7-0.3,0.9-0.5l0,0c0.2-0.2,0.6-0.4,0.8-0.7l0,0c0.5-0.5,1-1.1,1.4-1.8l0,0c0.2-0.3,0.3-0.6,0.5-1c0,0,0-0.1,0.1-0.1
			c0.2-0.3,0.2-0.7,0.3-1c0-0.1,0-0.1,0.1-0.2c0.1-0.4,0.2-0.7,0.2-1.1v-0.1c0.1-0.4,0.1-0.8,0.1-1.2v-157
			C522.5,604.7,519.7,598.7,515.6,594.9z"/>
		<path class="st7" d="M460.5,731.5l-2.3,3.4c-1.8,2.6-5.3,1.1-5.3-2.3v-81.1l7.7,21.5L460.5,731.5L460.5,731.5z"/>
		<path class="st6" d="M455.9,734.2c-0.5,0-1.3-0.4-1.3-1.6v-71.1l4.2,11.9v57.3l-1.9,2.8C456.6,734,456.3,734.2,455.9,734.2z"/>
		<g>
			<path class="st7" d="M450.8,656.4l-4.9,3.3c-1.6,1-2.6,2.8-3,4.8l-0.4,2.1l7.3-3.3l1.5-5.1l2.6-1.1l-0.6-1.8L450.8,656.4z"/>
			<polygon class="st7" points="449.7,662.6 442.7,665.7 442.6,666.6 449.9,663.3 451.4,658.1 454,657 453.7,656.3 451.1,657.4 			
				"/>
		</g>
		<path class="st7" d="M512,731.5l2.3,3.4c1.8,2.6,5.3,1.1,5.3-2.3v-81.1L512,673L512,731.5L512,731.5z"/>
		<path class="st6" d="M516.7,734.2c0.5,0,1.3-0.4,1.3-1.6v-71.1l-4.2,11.9v57.3l1.9,2.8C515.9,734,516.3,734.2,516.7,734.2z"/>
		<g>
			<path class="st7" d="M521.6,656.4l4.9,3.3c1.6,1,2.6,2.8,3,4.8l0.4,2.1l-7.3-3.3l-1.5-5.1l-2.6-1.1l0.6-1.8L521.6,656.4z"/>
			<polygon class="st7" points="522.9,662.6 529.8,665.7 529.9,666.6 522.6,663.3 521.1,658.1 518.6,657 518.8,656.3 521.3,657.4 
							"/>
		</g>
		<g>
			<path class="st3" d="M456.9,608c0,0,0.4-9,11.2-9.5v-5.2C468.2,593.3,457.1,593.8,456.9,608z"/>
			<path class="st4" d="M456.9,608c0,0,0-0.4,0.2-1c1.3-11.9,11.1-12.3,11.1-12.3v-1.4C468.2,593.3,457.1,593.8,456.9,608z"/>
			<path class="st6" d="M467.3,593.4v4c-5.1,0.3-7.9,2.4-9.5,4.6c-0.5,1.7-0.8,3.6-0.9,6c0,0,0.4-9,11.2-9.5v-5.2
				C468.2,593.3,467.8,593.3,467.3,593.4z"/>
		</g>
		<g>
			<path class="st3" d="M515.6,608c0,0-0.4-9-11.2-9.5v-5.2C504.4,593.3,515.4,593.8,515.6,608z"/>
			<path class="st4" d="M515.6,608c0,0,0-0.4-0.2-1c-1.3-11.9-11.1-12.3-11.1-12.3v-1.4C504.4,593.3,515.4,593.8,515.6,608z"/>
			<path class="st6" d="M505.3,593.4v4c5.1,0.3,7.9,2.4,9.5,4.6c0.5,1.7,0.8,3.6,0.9,6c0,0-0.4-9-11.2-9.5v-5.2
				C504.4,593.3,504.7,593.3,505.3,593.4z"/>
		</g>
		<path class="st6" d="M472.6,598.2c9.1-1,18.3-1,27.4,0v-4.1c-9.1-1-18.3-1-27.4,0V598.2z"/>
		<path class="st7" d="M509.7,672.1h-46.9c0,0-3.3-8.6-6.2-16.2c-1.5-3.8,0.2-8.3,3.6-9.3c17-5.3,35-5.3,52,0c3.3,1,5,5.5,3.6,9.3
			C513,663.5,509.7,672.1,509.7,672.1z"/>
		<path class="st6" d="M464,670.1c-1-2.6-3.5-9.1-5.8-15c-0.5-1.3-0.5-2.7,0-4c0.5-1.2,1.4-2.1,2.5-2.5c8.3-2.6,16.9-3.9,25.6-3.9
			c8.6,0,17.3,1.3,25.6,3.9c1.1,0.3,2,1.2,2.5,2.5c0.5,1.3,0.5,2.7,0,4c-2.2,5.9-4.7,12.4-5.8,15H464z"/>
		<path class="st7" d="M509.7,735.7h-46.9c0,0-0.7,0.8-1.7,2.1c-3.8,4.9-1.5,12.9,4,14c13.9,2.7,28.2,2.7,42.1,0
			c5.5-1.1,7.8-9.1,4-14C510.3,736.5,509.7,735.7,509.7,735.7z"/>
		<path class="st6" d="M486.3,751.7c-6.9,0-14-0.7-20.7-2c-2-0.4-3.5-2-4.1-4.2s-0.2-4.6,1.1-6.4c0.4-0.6,0.8-1.1,1.1-1.4h45.4
			c0.2,0.3,0.7,0.8,1.1,1.4c1.3,1.7,1.7,4.1,1.1,6.4c-0.7,2.3-2.2,3.8-4.1,4.2C500.2,751.1,493.2,751.7,486.3,751.7z"/>
		<path class="st10" d="M522.1,771c-1.2-1.3-2.9-1.7-5.7,1.7s-11.7,2.5-12.6,6.3c4.5-0.6,8.8-1.4,13.2-2.5
			C519.5,775.9,521.4,773.8,522.1,771L522.1,771z"/>
		<path class="st10" d="M450.4,771c1.2-1.3,2.9-1.7,5.7,1.7c2.8,3.4,11.7,2.5,12.6,6.3c-4.5-0.6-8.8-1.4-13.2-2.5
			C453,775.9,451.1,773.8,450.4,771L450.4,771z"/>
		<path class="st11" d="M472.1,774.5v4.9c9.4,1,18.8,1,28.3,0v-4.9C491,775.6,481.6,775.6,472.1,774.5z"/>
	</g>
</g>
<text transform="matrix(1 0 0 1 474.2178 713.9565)" class="st12 st13 st14">C</text>
<text transform="matrix(1 0 0 1 715.9022 375.6972)" class="st12 st13 st14">B</text>
<g>
	<g>
		<line class="st15" x1="486.3" y1="562.8" x2="486.3" y2="221"/>
		<g>
			<polygon class="st8" points="517.7,230.2 486.3,175.8 454.9,230.2 			"/>
		</g>
	</g>
</g>
<g>
	<g>
		<line class="st16" x1="601" y1="363.6" x2="218.7" y2="363.6"/>
		<g>
			<polygon class="st17" points="227.9,332.1 173.5,363.6 227.9,395 			"/>
		</g>
	</g>
</g>
<g>
	<g>
		<path class="st18" d="M336.8,263.6c9.9,2.1,20,8.3,30,8.3c10.1,0,20.1-6.2,30-8.3c5.9-1.2,10.1-14.6,10.1-24.3
			c0-20.7-1.3-33.2-1.3-33.2V86.6c-0.1-0.2-0.2-0.4-0.4-0.6c-4.8-9.4-13.1-15.9-22.6-17.3c-5.1-0.8-10.5-1.1-15.8-1.1
			c-5.2,0-10.7,0.3-15.8,1.1c-9.5,1.4-17.9,7.9-22.6,17.3l-0.4,0.6v119.5c0,0-1.3,12.4-1.3,33.2
			C326.7,248.9,330.8,262.3,336.8,263.6z"/>
		<path class="st19" d="M366.8,75.9c5.4,0,10.4,0.3,14.9,1c6.7,1,12.8,5.5,16.6,12v117.7l0.1,0.5c0,0.1,1.3,0.7,1.3,20.6
			c0,7.3-2.9,14.8-4.5,16.3c-4.3,0.9-8.5,2.5-12.5,4c-5.7,2.1-11,4.1-15.8,4.1s-10.2-2-15.8-4.1c-4-1.5-8.1-3-12.5-4
			c-1.6-1.5-4.5-9-4.5-16.3c0-19.9,1.2-20.5,1.3-20.6l0.1-0.5V88.9c3.8-6.6,9.9-11,16.6-12C356.3,76.2,361.4,75.9,366.8,75.9z"/>
		<path class="st7" d="M341.7,110.5h50.1c0,0,1.9-2.2,4.1-4.8c2.3-2.7,0.9-7.3-2.5-7.7c-17.5-2.4-35.8-2.4-53.3,0
			c-3.4,0.4-4.8,5-2.5,7.7C339.9,108.2,341.7,110.5,341.7,110.5z"/>
		<path class="st6" d="M366.8,98.2c8.9,0,17.8,0.6,26.4,1.8c0.9,0.1,1.6,0.7,1.9,1.7c0.3,0.9,0.1,1.9-0.4,2.6
			c-1.5,1.8-2.8,3.4-3.5,4.2h-48.6c-0.7-0.8-2-2.4-3.5-4.2c-0.6-0.7-0.8-1.7-0.4-2.6c0.3-0.9,1-1.6,1.9-1.7
			C349,98.8,357.8,98.2,366.8,98.2z"/>
		<path class="st7" d="M341.7,174h50.1c0,0,4.4,10.9,7.8,18.9c1,2.3-0.2,5-2.3,5.7c-20,6.4-41.1,6.4-61.1,0
			c-2.1-0.7-3.3-3.4-2.3-5.7C337.2,185,341.7,174,341.7,174z"/>
		<path class="st6" d="M390.6,176.1c1.2,3,4.6,11.3,7.3,17.8c0.3,0.5,0.3,1.2,0,1.7c-0.3,0.6-0.6,0.9-1.1,1.1
			c-9.8,3.1-19.9,4.7-30.1,4.7c-10.2,0-20.3-1.6-30.1-4.7c-0.5-0.2-0.9-0.6-1.1-1.1c-0.3-0.6-0.3-1.2,0-1.7c2.7-6.4,6-14.7,7.3-17.8
			H390.6z"/>
		<path class="st7" d="M394.3,112l5.1-6.2c1.2-1.5,3.4-0.5,3.4,1.5v88.2l-8.6-22.3V112z"/>
		<path class="st6" d="M401,107.1c0,0,0.2,0,0.2,0.2v78.3l-5-12.9v-59.9L401,107.1C400.9,107.1,401,107.1,401,107.1z"/>
		<path class="st7" d="M339.2,112l-5.1-6.2c-1.2-1.5-3.4-0.5-3.4,1.5v88.2l8.6-22.3V112z"/>
		<path class="st6" d="M332.5,107.1c0,0,0.1,0,0.1,0.1l4.7,5.7v59.9l-5,12.9v-78.3C332.4,107.2,332.4,107.1,332.5,107.1z"/>
		<path class="st19" d="M336.6,263.5c-3.7-4.5-6.1-14.8-6.1-22.7c0-21.2,1.2-33.9,1.2-33.9V91.4c10.5-2.6,22.4-4,35-4
			c12.6,0,24.5,1.5,35,4v115.5c0,0,1.2,12.7,1.2,33.9c0,7.9-2.4,18.2-6.1,22.7c5.9-1.4,9.9-14.7,9.9-24.3c0-20.7-1.3-33.2-1.3-33.2
			V86.5c-0.1-0.2-0.2-0.4-0.4-0.6c-0.4-0.6-0.7-1.3-1.1-1.9c-0.1-0.2-0.2-0.4-0.4-0.5c-0.3-0.4-0.5-0.9-0.8-1.3
			c-0.1-0.2-0.3-0.4-0.4-0.6c-0.3-0.4-0.5-0.8-0.9-1.2c-0.1-0.2-0.3-0.3-0.4-0.5c-0.4-0.4-0.7-0.8-1.1-1.2c-0.1-0.1-0.2-0.2-0.3-0.3
			c-0.4-0.5-0.9-1-1.3-1.4c0,0,0,0-0.1-0.1c-4.5-4.5-10.1-7.4-16.1-8.3c-5.1-0.8-10.5-1.1-15.8-1.1c-5.2,0-10.7,0.3-15.8,1.1
			c-6,0.9-11.6,3.9-16.1,8.3c0,0,0,0-0.1,0.1c-0.4,0.5-0.9,0.9-1.3,1.4c-0.1,0.1-0.2,0.2-0.3,0.3c-0.4,0.4-0.7,0.8-1.1,1.2
			c-0.1,0.2-0.3,0.3-0.4,0.5c-0.3,0.4-0.6,0.8-0.9,1.2c-0.1,0.2-0.3,0.4-0.4,0.6c-0.3,0.4-0.5,0.8-0.8,1.3c-0.1,0.2-0.3,0.4-0.4,0.5
			c-0.4,0.6-0.7,1.2-1.1,1.9l-0.4,0.6v119.6c0,0-1.3,12.4-1.3,33.2C326.7,248.9,330.8,262.1,336.6,263.5z"/>
		<g>
			<path class="st3" d="M397.1,250.5l-2.5,5.5c-0.8,1.8-2.2,3.2-3.9,3.8l-9.9,3.8c-1.1,0.4-2-0.7-1.7-1.9l0.9-2.9L397.1,250.5z"/>
			<path class="st4" d="M392,255.9c-0.8,1.8-2.2,3.2-3.9,3.8l-8.7,3.3c0.4,0.5,0.9,0.7,1.4,0.5l9.9-3.8c1.7-0.6,3.1-2,3.9-3.8
				l2.5-5.5l-3.4,1.7L392,255.9z"/>
		</g>
		<g>
			<path class="st3" d="M336.4,250.5l2.5,5.5c0.8,1.8,2.2,3.2,3.9,3.8l9.9,3.8c1.1,0.4,2-0.7,1.7-1.9l-0.9-2.9L336.4,250.5z"/>
			<path class="st4" d="M341.6,255.9c0.8,1.8,2.2,3.2,3.9,3.8l8.7,3.3c-0.4,0.5-0.9,0.7-1.4,0.5l-9.9-3.8c-1.7-0.6-3.1-2-3.9-3.8
				l-2.5-5.5l3.4,1.7L341.6,255.9z"/>
		</g>
		<path class="st20" d="M366.8,256.1c-2.8,0-5.7-0.5-8.6-1.3v15.7c2.8,0.8,5.7,1.3,8.6,1.3c2.9,0,5.7-0.5,8.6-1.3v-15.7
			C372.5,255.6,369.6,256.1,366.8,256.1z"/>
		<g>
			<path class="st20" d="M405.2,190.4l5.2-3.3c1.7-1,2.8-2.8,3.2-4.8l0.4-2.1l-7.8,3.3l-1.6,5.1l-2.7,1.1l0.6,1.8L405.2,190.4z"/>
			<polygon class="st7" points="406.5,184.3 413.9,181.1 414.1,180.3 406.3,183.6 404.6,188.7 402,189.8 402.1,190.5 404.9,189.4 
							"/>
		</g>
		<g>
			<path class="st20" d="M328.3,190.4l-5.2-3.3c-1.7-1-2.8-2.8-3.2-4.8l-0.4-2.1l7.8,3.3l1.6,5.1l2.7,1.1l-0.6,1.8L328.3,190.4z"/>
			<polygon class="st7" points="327,184.3 319.6,181.1 319.4,180.3 327.3,183.6 328.9,188.7 331.6,189.8 331.4,190.5 328.6,189.4 
							"/>
		</g>
		<path class="st10" d="M343.1,74.4c3.6-1.1,6.5-3.3,7.9-5.7c-5,0.8-9.7,3-13.8,6.3C338.9,75.2,340.9,75.1,343.1,74.4z"/>
		<path class="st10" d="M390.5,74.4c-3.6-1.1-6.5-3.3-7.9-5.7c5,0.8,9.7,3,13.8,6.3C394.6,75.2,392.6,75.1,390.5,74.4z"/>
	</g>
</g>
<g>
	<g>
		<line class="st21" x1="366.7" y1="299.7" x2="366.7" y2="641.5"/>
		<g>
			<polygon class="st22" points="335.3,632.3 366.7,686.7 398.1,632.3 			"/>
		</g>
	</g>
</g>
<text transform="matrix(1 0 0 1 354.4469 153.2754)" class="st12 st13 st14">A</text>
</svg>
