<?xml version="1.0" encoding="UTF-8" standalone="no"?>
<!-- Created with Inkscape (http://www.inkscape.org/) -->
<svg
   xmlns:dc="http://purl.org/dc/elements/1.1/"
   xmlns:cc="http://web.resource.org/cc/"
   xmlns:rdf="http://www.w3.org/1999/02/22-rdf-syntax-ns#"
   xmlns:svg="http://www.w3.org/2000/svg"
   xmlns="http://www.w3.org/2000/svg"
   xmlns:sodipodi="http://sodipodi.sourceforge.net/DTD/sodipodi-0.dtd"
   xmlns:inkscape="http://www.inkscape.org/namespaces/inkscape"
   version="1.0"
   width="1829.7501"
   height="828.56683"
   id="svg2"
   sodipodi:version="0.32"
   inkscape:version="0.45.1"
   sodipodi:docname="Zeichen_296.svg"
   inkscape:output_extension="org.inkscape.output.svg.inkscape"
   sodipodi:docbase="C:\Dokumente und Einstellungen\Sascha\Desktop">
  <metadata
     id="metadata15">
    <rdf:RDF>
      <cc:Work
         rdf:about="">
        <dc:format>image/svg+xml</dc:format>
        <dc:type
           rdf:resource="http://purl.org/dc/dcmitype/StillImage" />
      </cc:Work>
    </rdf:RDF>
  </metadata>
  <sodipodi:namedview
     inkscape:window-height="717"
     inkscape:window-width="1024"
     inkscape:pageshadow="2"
     inkscape:pageopacity="0.0"
     guidetolerance="10.0"
     gridtolerance="10.0"
     objecttolerance="10.0"
     borderopacity="1.0"
     bordercolor="#666666"
     pagecolor="#ffffff"
     id="base"
     inkscape:zoom="0.44818067"
     inkscape:cx="930.7222"
     inkscape:cy="431.17649"
     inkscape:window-x="-4"
     inkscape:window-y="-4"
     inkscape:current-layer="svg2" />
  <defs
     id="defs4" />
  <rect
     style="opacity:1;fill:#000000;fill-opacity:0.69626172;stroke:none;stroke-width:12.39999962;stroke-linecap:butt;stroke-linejoin:miter;stroke-miterlimit:4;stroke-dasharray:none;stroke-dashoffset:0;stroke-opacity:1"
     id="rect3149"
     width="1829.7501"
     height="831.35138"
     x="0"
     y="0" />
  <path
     id="path1888"
     style="fill:#838383;fill-opacity:0.80841124;fill-rule:evenodd;stroke:none;stroke-width:1px;stroke-linecap:butt;stroke-linejoin:miter;stroke-opacity:1"
     d="M 720.91007,0.78081131 L 1107.5724,1.5424433 L 1572.4397,828.56429 L 256.68876,827.79173 L 720.91007,0.78081131 z " />
  <path
     id="path1899"
     style="fill:#ffffff;fill-opacity:1;fill-rule:evenodd;stroke:#000000;stroke-width:1px;stroke-linecap:butt;stroke-linejoin:miter;stroke-opacity:1"
     d="M 907.42462,106.37121 L 902.18788,186.41844 L 924.63103,186.41844 L 926.12724,106.37121 L 907.42462,106.37121 z " />
  <path
     id="path1882"
     style="fill:#ffffff;fill-opacity:1;fill-rule:evenodd;stroke:#000000;stroke-width:3;stroke-linecap:butt;stroke-linejoin:miter;stroke-miterlimit:4;stroke-dasharray:none;stroke-opacity:1"
     d="M 205.45236,826.29161 L 256.24949,826.29161 L 718.5819,2.2914003 L 696.33774,2.2908533 L 205.45236,826.29161 z "
     sodipodi:nodetypes="ccccc" />
  <path
     id="path1884"
     style="fill:#ffffff;fill-opacity:1;fill-rule:evenodd;stroke:#000000;stroke-width:3;stroke-linecap:butt;stroke-linejoin:miter;stroke-miterlimit:4;stroke-dasharray:none;stroke-opacity:1"
     d="M 1627.1051,827.06682 L 1572.4231,827.06682 L 1110.0907,3.0666063 L 1136.1827,3.6157113 L 1627.1051,827.06682 z "
     sodipodi:nodetypes="ccccc" />
  <path
     id="path1893"
     style="fill:#ffffff;fill-opacity:1;fill-rule:evenodd;stroke:#000000;stroke-width:1px;stroke-linecap:butt;stroke-linejoin:miter;stroke-opacity:1"
     d="M 880.47953,787.89478 L 929.10635,787.89478 L 928.35824,628.54843 L 889.45679,628.54843 L 880.47953,787.89478 z " />
  <path
     id="path1895"
     style="fill:#ffffff;fill-opacity:1;fill-rule:evenodd;stroke:#000000;stroke-width:1px;stroke-linecap:butt;stroke-linejoin:miter;stroke-opacity:1"
     d="M 896.49163,425.0639 L 890.5068,526.80617 L 927.16394,526.80617 L 926.97532,425.07027 L 896.49163,425.0639 z " />
  <path
     id="path1897"
     style="fill:#ffffff;fill-opacity:1;fill-rule:evenodd;stroke:#000000;stroke-width:1px;stroke-linecap:butt;stroke-linejoin:miter;stroke-opacity:1"
     d="M 902.33218,245.51872 L 896.34734,337.53563 L 925.52343,337.53563 L 925.52343,245.52509 L 902.33218,245.51872 z " />
  <path
     id="path1901"
     style="fill:#ffffff;fill-opacity:1;fill-rule:evenodd;stroke:#000000;stroke-width:1px;stroke-linecap:butt;stroke-linejoin:miter;stroke-opacity:1"
     d="M 910.71894,11.361889 L 906.23031,54.003868 L 924.18483,54.003868 L 923.43672,11.361889 L 910.71894,11.361889 z " />
  <path
     d="M 210.37338,472.49631 L 210.21614,724.96142 L 242.36543,724.96142 L 242.36543,481.04016 C 241.51293,472.83642 211.3821,459.52644 210.37338,472.49631 z "
     style="fill:#ffffff;fill-opacity:1;fill-rule:evenodd;stroke:#000000;stroke-width:2.76977038px;stroke-linecap:butt;stroke-linejoin:miter;stroke-opacity:1"
     id="path5478" />
  <path
     d="M 211.81736,510.15266 L 241.22153,528.39268 L 241.22153,590.50309 L 211.50288,571.79135 L 211.81736,510.15266 z "
     style="fill:#000000;fill-opacity:1;fill-rule:evenodd;stroke:none;stroke-width:1px;stroke-linecap:butt;stroke-linejoin:miter;stroke-opacity:1"
     id="path5480" />
  <path
     d="M 232.66926,530.51547 C 232.66926,534.03258 229.81808,536.88375 226.30097,536.88375 C 222.78387,536.88375 219.93269,534.03258 219.93269,530.51547 C 219.93269,526.99836 222.78387,524.14719 226.30097,524.14719 C 229.81808,524.14719 232.66926,526.99836 232.66926,530.51547 L 232.66926,530.51547 z "
     style="fill:#ff9600;fill-opacity:1;fill-rule:nonzero;stroke:none;stroke-width:7;stroke-linecap:round;stroke-linejoin:miter;stroke-miterlimit:4;stroke-dasharray:none;stroke-dashoffset:0;stroke-opacity:1"
     id="path5482" />
  <path
     d="M 233.12359,571.00517 C 233.12359,574.52228 230.27241,577.37345 226.7553,577.37345 C 223.2382,577.37345 220.38702,574.52228 220.38702,571.00517 C 220.38702,567.48806 223.2382,564.63689 226.7553,564.63689 C 230.27241,564.63689 233.12359,567.48806 233.12359,571.00517 L 233.12359,571.00517 z "
     style="fill:#ff9600;fill-opacity:1;fill-rule:nonzero;stroke:none;stroke-width:7;stroke-linecap:round;stroke-linejoin:miter;stroke-miterlimit:4;stroke-dasharray:none;stroke-dashoffset:0;stroke-opacity:1"
     id="path5484" />
  <path
     d="M 543.1069,26.481785 L 543.00214,194.68505 L 564.42139,194.68505 L 564.42139,32.174075 C 563.85342,26.708385 543.77895,17.840693 543.1069,26.481785 z "
     style="fill:#ffffff;fill-opacity:1;fill-rule:evenodd;stroke:#000000;stroke-width:1.8453418px;stroke-linecap:butt;stroke-linejoin:miter;stroke-opacity:1"
     id="path5155" />
  <path
     d="M 544.06894,51.570085 L 563.65928,63.722385 L 563.65928,105.10305 L 543.85942,92.636475 L 544.06894,51.570085 z "
     style="fill:#000000;fill-opacity:1;fill-rule:evenodd;stroke:none;stroke-width:1px;stroke-linecap:butt;stroke-linejoin:miter;stroke-opacity:1"
     id="path5157" />
  <path
     d="M 557.96138,65.136685 C 557.96138,67.479935 556.0618,69.379515 553.71855,69.379515 C 551.37531,69.379515 549.47573,67.479935 549.47573,65.136685 C 549.47573,62.793435 551.37531,60.893855 553.71855,60.893855 C 556.0618,60.893855 557.96138,62.793435 557.96138,65.136685 L 557.96138,65.136685 z "
     style="fill:#ff9600;fill-opacity:1;fill-rule:nonzero;stroke:none;stroke-width:7;stroke-linecap:round;stroke-linejoin:miter;stroke-miterlimit:4;stroke-dasharray:none;stroke-dashoffset:0;stroke-opacity:1"
     id="path5159" />
  <path
     d="M 558.26408,92.112685 C 558.26408,94.455935 556.3645,96.355515 554.02125,96.355515 C 551.678,96.355515 549.77842,94.455935 549.77842,92.112685 C 549.77842,89.769435 551.678,87.869855 554.02125,87.869855 C 556.3645,87.869855 558.26408,89.769435 558.26408,92.112685 L 558.26408,92.112685 z "
     style="fill:#ff9600;fill-opacity:1;fill-rule:nonzero;stroke:none;stroke-width:7;stroke-linecap:round;stroke-linejoin:miter;stroke-miterlimit:4;stroke-dasharray:none;stroke-dashoffset:0;stroke-opacity:1"
     id="path5161" />
  <g
     id="g5199"
     transform="matrix(0.4387121,0,0,0.4387121,1607.0262,472.29168)">
    <g
       id="g5506"
       transform="matrix(-1,0,0,1,90,0)">
      <path
         id="path5202"
         style="fill:#ffffff;fill-opacity:1;fill-rule:evenodd;stroke:#000000;stroke-width:6.31341219px;stroke-linecap:butt;stroke-linejoin:miter;stroke-opacity:1"
         d="M 8.7178754,18.176536 L 8.3594592,593.64532 L 81.640541,593.64532 L 81.640541,37.651398 C 79.697336,18.951782 11.017157,-11.386972 8.7178754,18.176536 z " />
      <path
         id="path5204"
         style="fill:#000000;fill-opacity:1;fill-rule:evenodd;stroke:none;stroke-width:1px;stroke-linecap:butt;stroke-linejoin:miter;stroke-opacity:1"
         d="M 12.009286,104.01039 L 79.033127,145.58668 L 79.033127,287.1611 L 11.292453,244.50957 L 12.009286,104.01039 z " />
    </g>
    <path
       id="path5510"
       style="fill:#ffffff;fill-opacity:1;fill-rule:evenodd;stroke:none;stroke-width:1px;stroke-linecap:butt;stroke-linejoin:miter;stroke-opacity:1"
       d="M 32.358904,248.46464 L 32.358904,146.97535 L 57.634684,146.97535 L 57.634684,248.46464 L 32.358904,248.46464 z " />
  </g>
  <g
     id="g5207"
     transform="matrix(0.2922892,0,0,0.2922892,1261.1929,17.284145)">
    <g
       id="g5209"
       transform="matrix(-1,0,0,1,90,0)">
      <path
         id="path5211"
         style="fill:#ffffff;fill-opacity:1;fill-rule:evenodd;stroke:#000000;stroke-width:6.31341219px;stroke-linecap:butt;stroke-linejoin:miter;stroke-opacity:1"
         d="M 8.7178754,18.176536 L 8.3594592,593.64532 L 81.640541,593.64532 L 81.640541,37.651398 C 79.697336,18.951782 11.017157,-11.386972 8.7178754,18.176536 z " />
      <path
         id="path5213"
         style="fill:#000000;fill-opacity:1;fill-rule:evenodd;stroke:none;stroke-width:1px;stroke-linecap:butt;stroke-linejoin:miter;stroke-opacity:1"
         d="M 12.009286,104.01039 L 79.033127,145.58668 L 79.033127,287.1611 L 11.292453,244.50957 L 12.009286,104.01039 z " />
    </g>
    <path
       id="path5215"
       style="fill:#ffffff;fill-opacity:1;fill-rule:evenodd;stroke:none;stroke-width:1px;stroke-linecap:butt;stroke-linejoin:miter;stroke-opacity:1"
       d="M 32.358904,248.46464 L 32.358904,146.97535 L 57.634684,146.97535 L 57.634684,248.46464 L 32.358904,248.46464 z " />
  </g>
</svg>
