<?xml version="1.0" encoding="utf-8"?>
<!-- Generator: Adobe Illustrator 23.0.1, SVG Export Plug-In . SVG Version: 6.00 Build 0)  -->
<svg version="1.1" id="Layer_1" xmlns="http://www.w3.org/2000/svg" xmlns:xlink="http://www.w3.org/1999/xlink" x="0px" y="0px"
	 viewBox="0 0 268.3 764.3" style="enable-background:new 0 0 268.3 764.3;" xml:space="preserve">
<style type="text/css">
	.st0{fill:url(#SVGID_1_);}
	.st1{clip-path:url(#SVGID_3_);}
	.st2{fill:#FFFFFF;}
	.st3{fill:#C1121C;}
</style>
<g id="svg3666" xmlns:cc="http://creativecommons.org/ns#" xmlns:dc="http://purl.org/dc/elements/1.1/" xmlns:rdf="http://www.w3.org/1999/02/22-rdf-syntax-ns#" xmlns:svg="http://www.w3.org/2000/svg">
	
		<linearGradient id="SVGID_1_" gradientUnits="userSpaceOnUse" x1="120.6712" y1="724.8475" x2="147.6712" y2="724.8475" gradientTransform="matrix(1 0 0 1 0 -246.7275)">
		<stop  offset="0" style="stop-color:#EDEBE9"/>
		<stop  offset="0" style="stop-color:#E1DEDA"/>
		<stop  offset="0" style="stop-color:#D6D1CC"/>
		<stop  offset="6.975419e-02" style="stop-color:#C7C3BE"/>
		<stop  offset="0.1461" style="stop-color:#B2AEAA"/>
		<stop  offset="0.5225" style="stop-color:#E6E6E6"/>
		<stop  offset="0.633" style="stop-color:#D9D8D7"/>
		<stop  offset="0.8443" style="stop-color:#B8B4B0"/>
		<stop  offset="0.8764" style="stop-color:#B2AEAA"/>
		<stop  offset="1" style="stop-color:#D9D9D9"/>
		<stop  offset="1" style="stop-color:#B1B1B1"/>
	</linearGradient>
	<polygon class="st0" points="147.7,764.3 141.3,758.3 134.8,764.3 127.3,758.3 120.7,764.3 120.7,191.9 147.7,191.9 	"/>
</g>
<g id="g3617" transform="matrix(1.25,0,0,-1.25,0,330)">
	<g id="g3619">
		<g id="g3621">
			<g id="g3623">
				<g>
					<defs>
						<rect id="SVGID_2_" x="13.7" y="-343.7" width="187.2" height="103"/>
					</defs>
					<clipPath id="SVGID_3_">
						<use xlink:href="#SVGID_2_"  style="overflow:visible;"/>
					</clipPath>
					<g id="g3625" class="st1">
						<g id="g3631">
							<path id="path3633" class="st2" d="M42.4-251.1c-5.5,0-9.9-4.4-9.9-9.9v-62.4c0-5.5,4.4-9.9,9.9-9.9h129.8
								c5.5,0,9.9,4.4,9.9,9.9v62.4c0,5.5-4.4,9.9-9.9,9.9"/>
							<path id="path3635" d="M42.4-333.3c-5.4,0-9.8,4.4-9.8,9.8v62.4c0,5.4,4.4,9.8,9.8,9.8h129.8c5.4,0,9.8-4.4,9.8-9.8v-62.4
								c0-5.4-4.4-9.8-9.8-9.8H42.4L42.4-333.3z M172.2-251.1H42.4c-5.5,0-10-4.5-10-10v-62.4c0-5.5,4.5-10,10-10h129.8
								c5.5,0,10,4.5,10,10v62.4C182.2-255.5,177.8-251.1,172.2-251.1"/>
						</g>
					</g>
				</g>
			</g>
		</g>
		<path id="path3637" d="M42.4-327.2h129.8c2.1,0,3.7,1.7,3.7,3.7v62.4c0,2.1-1.7,3.7-3.7,3.7H42.4c-2.1,0-3.7-1.7-3.7-3.7v-62.4
			C38.7-325.5,40.4-327.2,42.4-327.2z M42.4-330.9c-4.1,0-7.5,3.4-7.5,7.5v62.4c0,4.1,3.4,7.5,7.5,7.5h129.8c4.1,0,7.5-3.4,7.5-7.5
			v-62.4c0-4.1-3.4-7.5-7.5-7.5"/>
		<path id="path3639" d="M71.9-297.8c0,2.2-0.7,4.1-2.1,5.3c-1.1,1-2.4,1.6-4.8,1.9l-2.9,0.4c-1.2,0.2-2.2,0.6-2.9,1.2
			c-0.7,0.6-1,1.4-1,2.4c0,2.3,1.7,4,4.7,4c2.2,0,4-0.5,5.6-2l2.5,2.5c-2.2,2.1-4.6,2.9-8,2.9c-5.4,0-8.6-3.1-8.6-7.6
			c0-2.1,0.6-3.7,1.9-4.9c1.1-1,2.8-1.8,4.9-2.1l3-0.4c1.5-0.2,2.2-0.5,2.8-1.1c0.7-0.6,1-1.6,1-2.7c0-2.5-2-3.9-5.3-3.9
			c-2.6,0-4.7,0.6-6.6,2.5l-2.6-2.6c2.5-2.5,5.2-3.4,9.1-3.4C68-305.4,71.9-302.5,71.9-297.8z"/>
		<path id="path3641" d="M90-302.7l-2.5,2.4c-1.2-1.3-2.1-1.7-3.5-1.7c-1.4,0-2.6,0.6-3.4,1.6c-0.8,1-1.1,2.4-1.1,4.5
			c0,2.1,0.3,3.4,1.1,4.5c0.8,1,2,1.6,3.4,1.6c1.4,0,2.4-0.5,3.5-1.7l2.5,2.5c-1.7,1.8-3.5,2.6-6,2.6c-4.1,0-8.2-2.5-8.2-9.4
			c0-6.9,4.1-9.4,8.2-9.4C86.5-305.4,88.3-304.6,90-302.7z"/>
		<path id="path3643" d="M109.1-305.1v11.8c0,4-2.3,6.7-6.4,6.7c-1.8,0-3.5-0.7-4.7-2.1v9.3h-3.7v-25.8H98v11.3c0,2.8,1.7,4,3.7,4
			c2.1,0,3.7-1.2,3.7-4v-11.3C105.4-305.1,109.1-305.1,109.1-305.1z"/>
		<path id="path3645" d="M129.4-305.1v18.4h-3.7V-298c0-2.8-1.7-4.1-3.8-4.1c-2.1,0-3.7,1.2-3.7,4.1v11.2h-3.7v-11.7
			c0-2.1,0.4-3.8,1.8-5.2c1.1-1,2.6-1.7,4.5-1.7c1.8,0,3.6,0.7,4.9,2.1v-1.8C125.8-305.1,129.4-305.1,129.4-305.1z"/>
		<path id="path3647" d="M142.5-305.1v3.2h-1.6c-1.5,0-2,0.7-2,2.1v20.5h-3.7v-20.7c0-2.7,1.5-5.1,5-5.1H142.5L142.5-305.1z"/>
		<path id="path3649" d="M161.2-297v1.6c0,5.2-2.9,8.8-7.8,8.8c-4.7,0-7.8-3.4-7.8-9.4c0-7,3.7-9.4,8.3-9.4c3.2,0,5,1,6.9,2.9
			l-2.4,2.2c-1.3-1.3-2.4-1.9-4.5-1.9c-3,0-4.7,2-4.7,5.1H161.2z M157.5-294.5h-8.3c0,1.1,0.1,1.7,0.5,2.5c0.6,1.4,1.9,2.3,3.7,2.3
			c1.7,0,3-0.9,3.6-2.3C157.4-292.8,157.5-293.3,157.5-294.5L157.5-294.5z"/>
	</g>
</g>
<g id="g7341" transform="matrix(1.25,0,0,-1.25,0,743.62267)">
	<g id="g7343">
		<path id="path7345" class="st2" d="M107.3,594.8c2.4,0,4.8-0.9,6.6-2.7c0.6-0.6,1.1-1.3,1.5-1.9l4.8-8.3h0l92.8-160.9
			c0,0,0-0.1,0-0.1c0.5-0.8,0.8-1.6,1.1-2.5c1.3-5-1.6-10.1-6.6-11.4c-0.8-0.2-1.6-0.3-2.5-0.3H9.4c-5.1,0-9.3,4.2-9.3,9.3
			c0,1.7,0.4,3.3,1.2,4.6c0,0,0,0,0,0l96.4,167.4c1.2,2.1,1.8,2.9,3,4.1C102.6,593.9,105,594.8,107.3,594.8L107.3,594.8z"/>
		<path id="path7347" class="st3" d="M107.3,592.4c2.3,0,4.7-1.1,5.9-3.3l98-169.7c0.6-1.2,0.8-2.2,0.8-3.3c0-2.1-0.9-4-2.5-5.3
			c-1.4-1.1-2.7-1.6-4.5-1.6H9.4c-1.2,0-2.4,0.3-3.5,1c-2,1.2-3.3,3.4-3.3,5.8c0.1,1.2,0.4,2.5,0.9,3.4l97.9,169.8c0,0,0,0,0,0
			c0,0,0,0,0,0c0.3,0.6,0.8,1,1.3,1.5c1.1,1,2.6,1.6,4.1,1.7C107,592.4,107.2,592.4,107.3,592.4z M205.1,409.1h0.5H205.1
			L205.1,409.1z M107.4,558.8L32.8,429.4h149.4L107.4,558.8L107.4,558.8z"/>
		<path id="path7349" d="M107.3,594.9c2.4,0,4.8-0.9,6.7-2.8c0.6-0.6,1.1-1.3,1.5-2l4.8-8.2h0l92.9-161c0,0,0-0.1,0.1-0.1
			c0.5-0.8,0.9-1.6,1.1-2.5c1.3-5-1.6-10.2-6.7-11.5c-0.8-0.2-1.7-0.3-2.5-0.3H9.4c-5.2,0-9.4,4.2-9.4,9.4c0,1.7,0.5,3.3,1.2,4.7
			c0,0,0,0,0,0L97.7,588c1.2,2.1,1.8,3,3,4.2C102.5,594,104.9,594.9,107.3,594.9L107.3,594.9z M107.3,594.8c-2.4,0-4.8-0.9-6.6-2.7
			c-1.2-1.2-1.8-2-3-4.1L1.4,420.5c0,0,0,0,0,0c-0.8-1.4-1.2-2.9-1.2-4.6c0-5.1,4.2-9.3,9.3-9.3h195.8c0.8,0,1.6,0.1,2.5,0.3
			c5,1.3,7.9,6.4,6.6,11.4c-0.2,0.9-0.6,1.7-1.1,2.5c0,0,0,0.1,0,0.1l-92.8,160.9h0l-4.8,8.3c-0.4,0.7-0.9,1.4-1.5,1.9
			C112.1,593.9,109.7,594.8,107.3,594.8L107.3,594.8z"/>
		<path id="path7351" d="M125.7,504.5c0-3.9-3.2-7.1-7.1-7.1c-3.9,0-7.1,3.2-7.1,7.1c0,3.9,3.2,7.1,7.1,7.1
			C122.5,511.6,125.7,508.5,125.7,504.5z M109.5,434.6l5.9,35c0.1,0.4,0.1,0.8,0,1.1l-2,16.7l-13.9-8.3c-2.9-1.7-6.6-0.8-8.4,2.1
			l22.3,13.4c4.2-2.1,9.3-1.4,12.7,1.8l11.9-3.8c0.5-0.2,0.9-0.5,1.2-1l6.7-12.5c-3-1.6-6.7-0.5-8.2,2.5l-3.1,5.7l-7.2,2.3l2-17.2
			c0-0.4,0.1-0.7,0.3-1l5-12.5l11.5-5c3.1-1.3,4.5-4.9,3.2-8l-19,7.6c-0.5,0.2-0.9,0.6-1.1,1.1l-6.8,15.5l-6.2-30.6
			C115.8,436.2,112.7,434.1,109.5,434.6L109.5,434.6z M85.3,484.9c0-3.6-2.9-6.5-6.5-6.5c-3.6,0-6.5,2.9-6.5,6.5
			c0,3.6,2.9,6.5,6.5,6.5C82.4,491.4,85.3,488.5,85.3,484.9z M75,468.1l-8.1-6.7c-1.8-1.5-4.4-1.4-6.1,0.3L75.1,476
			c3-1.3,6.4-0.9,9.1,0.8l9.6-2.1c0.4-0.1,0.7-0.3,0.9-0.7l4.9-9.8c-2.2-1.1-4.9-0.2-6.1,2l-2.3,4.4h-4.5l3.9-15.5l8.7-0.7
			c2.4-0.2,4.2-2.1,4.2-4.5H88.6c-0.4,0-0.8,0.2-1.1,0.6l-2.2,3.3l-4.5-1.3V439c0-2.4-1.9-4.4-4.3-4.5"/>
	</g>
</g>
<g id="g6353" transform="matrix(1.25,0,0,-1.25,0,600)">
	<g id="g6355">
		<circle class="st2" cx="107.3" cy="207.5" r="78.1"/>
		<path id="path6375" class="st3" d="M107.3,281.7c-41,0-74.2-33.2-74.2-74.2c0-41,33.3-74.2,74.2-74.2s74.2,33.3,74.2,74.2
			C181.6,248.5,148.3,281.7,107.3,281.7z M107.3,262.2c30.2,0,54.7-24.5,54.7-54.7s-24.5-54.7-54.7-54.7s-54.7,24.5-54.7,54.7
			S77.1,262.2,107.3,262.2z"/>
		<path id="path6377" d="M65.3,191.6h9.2c1.3-5.2,6.5-8.4,11.7-7.1c4.3,1.1,7.4,4.9,7.4,9.4v1.1c0,5.4-4.3,9.7-9.7,9.7h-4v8h4
			c5,0,9.1,4.1,9.1,9.1s-4.1,9.1-9.1,9.1c-4.4,0-8.2-3.1-8.9-7.4h-9.2c0.9,10,9.8,17.4,19.9,16.5c9.4-0.9,16.5-8.7,16.5-18.2
			c0-5.2-2.5-10.1-6.8-13c4.6-3.1,7.3-8.2,7.3-13.7v-1.1c0-10.4-8.4-18.8-18.8-18.8C74.5,175.1,66.5,182.1,65.3,191.6"/>
		<path id="path6379" d="M121,193.3c0-5,4.1-9.1,9.1-9.1s9.1,4.1,9.1,9.1v28.5c0,5-4.1,9.1-9.1,9.1s-9.1-4.1-9.1-9.1V193.3z
			 M111.9,193.3v28.5c0,10.1,8.2,18.2,18.2,18.2s18.2-8.2,18.2-18.2v-28.5c0-10.1-8.2-18.2-18.2-18.2S111.9,183.2,111.9,193.3"/>
	</g>
</g>
<g id="g6197" transform="matrix(1.25,0,0,-1.25,0,600.99499)">
	<g id="g6199">
		<path id="path6201" class="st2" d="M183.6,48.1c0-42.1-34.1-76.3-76.3-76.3C65.2-28.1,31.1,6,31.1,48.1
			c0,42.1,34.1,76.3,76.3,76.3C149.5,124.4,183.6,90.2,183.6,48.1L183.6,48.1z"/>
		<path id="path6203" d="M107.3,124.5C65.2,124.5,31,90.3,31,48.1c0-42.2,34.2-76.4,76.4-76.4c42.2,0,76.4,34.2,76.4,76.4
			C183.7,90.3,149.5,124.5,107.3,124.5z M107.3,124.4c42.1,0,76.3-34.1,76.3-76.3c0-42.1-34.1-76.3-76.3-76.3
			C65.2-28.1,31.1,6,31.1,48.1C31.1,90.2,65.2,124.4,107.3,124.4L107.3,124.4z"/>
		<path id="path6205" class="st3" d="M107.3,121.8c-40.6,0-73.7-33.1-73.7-73.7c0-40.6,33.1-73.7,73.7-73.7
			c40.6,0,73.7,33.1,73.7,73.7C181,88.7,147.9,121.8,107.3,121.8L107.3,121.8z M107.3,101.4c29.5,0,53.3-23.7,53.3-53.3
			c0-29.5-23.7-53.3-53.3-53.3c-29.5,0-53.3,23.7-53.3,53.3C54.1,77.7,77.8,101.4,107.3,101.4L107.3,101.4z"/>
		<path id="path6207" class="st3" d="M70,64.4c-1,0-1.9-0.6-2.3-1.5l-4-9.3c-0.3-0.7-0.6-1.3-1.1-1.8L62,51
			c-0.4-0.5-0.6-1.2-0.6-1.8v-6.6c0-1.4,1.1-2.5,2.5-2.5h37.7c1.4,0,2.5,1.1,2.5,2.5v6.6c0,0.7-0.2,1.3-0.6,1.8l-0.6,0.8
			c-0.4,0.6-0.8,1.2-1.1,1.8l-4,9.3c-0.4,0.9-1.3,1.5-2.3,1.5C95.5,64.4,70,64.4,70,64.4z M70.7,61.9h24.2c0.4,0,0.8-0.2,0.9-0.6
			l3.5-8H66.2l3.5,8C69.9,61.6,70.2,61.9,70.7,61.9z"/>
		<path id="path6209" class="st3" d="M95.5,39h6.1v-5.6c0-0.8-0.7-1.5-1.5-1.5H97c-0.8,0-1.5,0.7-1.5,1.5V39z M63.9,39H70v-5.6
			c0-0.8-0.7-1.5-1.5-1.5h-3.1c-0.8,0-1.5,0.7-1.5,1.5"/>
		<path id="path6211" d="M119.2,64.4c-1,0-1.9-0.6-2.3-1.5l-4-9.3c-0.3-0.7-0.6-1.3-1.1-1.8l-0.6-0.8c-0.4-0.5-0.6-1.2-0.6-1.8v-6.6
			c0-1.4,1.1-2.5,2.5-2.5h37.7c1.4,0,2.5,1.1,2.5,2.5v6.6c0,0.7-0.2,1.3-0.6,1.8l-0.6,0.8c-0.4,0.6-0.8,1.2-1.1,1.8l-4,9.3
			c-0.4,0.9-1.3,1.5-2.3,1.5H119.2L119.2,64.4z M119.8,61.9H144c0.4,0,0.8-0.2,0.9-0.6l3.5-8h-33.1l3.5,8
			C119,61.6,119.4,61.9,119.8,61.9z"/>
		<path id="path6213" d="M144.6,39h6.1v-5.6c0-0.8-0.7-1.5-1.5-1.5h-3.1c-0.8,0-1.5,0.7-1.5,1.5V39z M113.1,39h6.1v-5.6
			c0-0.8-0.7-1.5-1.5-1.5h-3.1c-0.8,0-1.5,0.7-1.5,1.5"/>
	</g>
</g>
</svg>
