<?xml version="1.0" encoding="utf-8"?>
<!-- Generator: Adobe Illustrator 22.0.1, SVG Export Plug-In . SVG Version: 6.00 Build 0)  -->
<svg version="1.1" id="Layer_1" xmlns="http://www.w3.org/2000/svg" xmlns:xlink="http://www.w3.org/1999/xlink" x="0px" y="0px"
	 viewBox="0 0 1000 600" style="enable-background:new 0 0 1000 600;" xml:space="preserve">
<style type="text/css">
	.st0{fill:none;stroke:#000000;stroke-width:40;}
</style>
<g>
	<circle class="st0" cx="215" cy="409" r="161"/>
	<circle class="st0" cx="790" cy="406" r="161"/>
	<path d="M681.4,121.7l12.4-34.1l42.6-0.8l-1.5-35.7H576c-14,19.2,5.7,19.1,76.7,34.9l-12.4,34.9l-317.1,0.8
		c21.4-74.6,9.3-69.9,105.4-69.8l0.8-36.4C296.9,16.8,319.4,1.8,248.1,231C190,414.1,196.3,394.2,196,407c-0.2,10,7.8,17.9,18,18.6
		c21.1-2.1,12.2,2.3,85.2-224.4c266.7,281.3,166.7,235.7,310.2,241.4c188.6-1.8,204,9.8,206.2-17.8
		C815.3,415.4,810.9,409.8,681.4,121.7z M534.7,400.3L314.1,159.9l310.3-0.5L534.7,400.3z M571,406l99-238.7L769,406H571z"/>
</g>
</svg>
