<?xml version="1.0" encoding="utf-8"?>
<!-- Generator: Adobe Illustrator 22.0.1, SVG Export Plug-In . SVG Version: 6.00 Build 0)  -->
<svg version="1.1" xmlns="http://www.w3.org/2000/svg" xmlns:xlink="http://www.w3.org/1999/xlink" x="0px" y="0px"
	 viewBox="0 0 729.8 155.8" style="enable-background:new 0 0 729.8 155.8;" xml:space="preserve">
<style type="text/css">
	.st0{display:none;}
	.st1{fill:#2A7331;}
	.st2{fill:#5D5D5D;}
	.st3{fill:none;stroke:#FFFFFF;stroke-width:1.7361;stroke-miterlimit:10;}
	.st4{fill:#FEFEFE;stroke:#FFFFFF;stroke-width:1.7361;stroke-miterlimit:10;}
	.st5{fill:none;stroke:#FEFEFE;stroke-width:1.7361;stroke-miterlimit:10;}
	.st6{fill:none;stroke:#FEFEFE;stroke-width:3.4722;stroke-miterlimit:10;}
	.st7{fill:#FDFDFD;}
	.st8{fill:#FCFCFC;}
</style>
<g id="copy" class="st0">
</g>
<g id="Layer_1">
</g>
<g id="Layer_4">
</g>
<g id="Layer_3">
	<g>
		<path class="st1" d="M0,93.5v56.4h447.5v-5.3c-39.3-1.2-70.1-51.2-115.8-51.2C285.5,93.5,1.1,93.5,0,93.5z"/>
		<path class="st1" d="M0,69.7v23.7c1.1,0,285.5,0,331.7,0c45.7,0,76.5,50,115.8,51.2V69.7H0z"/>
		<path class="st1" d="M0,0v93.5c0,0,285.5,0,331.7,0s77.3,51.2,117.2,51.2h139.6c3.5,0,6.9,1.1,9.7,3l10.8,7.4h120.7V0H0z"/>
		<rect y="8.7" class="st2" width="729.8" height="136"/>
		<path class="st1" d="M588.5,144.7H448.9c-39.9,0-70.9-51.2-117.2-51.2S0,93.5,0,93.5v61.6h609.1l-10.8-7.4
			C595.4,145.7,592,144.7,588.5,144.7z"/>
		<line class="st3" x1="1.9" y1="8.7" x2="728.4" y2="8.7"/>
		<line class="st4" x1="430.7" y1="50" x2="728.4" y2="50"/>
		<line class="st5" x1="0" y1="50.8" x2="27" y2="50.9"/>
		<line class="st5" x1="86.8" y1="50.8" x2="113.8" y2="50.9"/>
		<line class="st5" x1="173.6" y1="50.8" x2="200.6" y2="50.9"/>
		<line class="st5" x1="225.7" y1="50.8" x2="252.7" y2="50.9"/>
		<line class="st5" x1="277.8" y1="50.8" x2="304.8" y2="50.9"/>
		<line class="st5" x1="329.9" y1="50.8" x2="356.9" y2="50.9"/>
		<line class="st5" x1="382" y1="50.8" x2="408.9" y2="50.9"/>
		<line class="st6" x1="382" y1="94.2" x2="408.9" y2="94.3"/>
		<line class="st6" x1="434" y1="94.2" x2="461" y2="94.3"/>
		<line class="st6" x1="486.1" y1="94.2" x2="513.1" y2="94.3"/>
		<line class="st6" x1="538.2" y1="94.2" x2="565.2" y2="94.3"/>
		<line class="st6" x1="653.8" y1="94.3" x2="607.3" y2="94.3"/>
		<polygon class="st2" points="722.3,155.1 710.4,144.7 594.2,144.7 608.7,154.8 		"/>
		<polygon class="st1" points="654.3,94.2 729.8,93.3 729.8,145.2 711.7,144.7 		"/>
		<line class="st5" x1="653.7" y1="93.3" x2="729.8" y2="92.5"/>
		<line class="st5" x1="652.5" y1="94.2" x2="722.3" y2="155.1"/>
		<path class="st7" d="M172.1,68.3c4.4,0.9,8.4,1.6,12.4,2.4c0,0.2,0,0.4,0.1,0.6c-4,0.9-8,1.8-12.1,2.7c-0.3-2-1.5-2.1-3.1-1.9
			c-2,0.2-4.1,0.2-6.3,0.3c0.9,3.4,3.7,1.7,5.4,2.4c-4,3-7.9,3-12.7,0c1.7-0.1,3-0.2,4.4-0.3c-0.1-1.5-0.9-2-2.2-2
			c-1.3,0-2.6,0.1-3.9,0.1c-1.2,0-2.4,0.2-2.4-1.6c0-1.8,1.2-1.5,2.3-1.5c5.3,0.2,10.5,0.5,15.8,0.8
			C171.1,70.5,172.4,70.7,172.1,68.3z"/>
		<path class="st7" d="M311,68.3c4.4,0.9,8.4,1.6,12.4,2.4c0,0.2,0,0.4,0.1,0.6c-4,0.9-8,1.8-12.1,2.7c-0.3-2-1.5-2.1-3.1-1.9
			c-2,0.2-4.1,0.2-6.3,0.3c0.9,3.4,3.7,1.7,5.4,2.4c-4,3-7.9,3-12.7,0c1.7-0.1,3-0.2,4.4-0.3c-0.1-1.5-0.9-2-2.2-2
			c-1.3,0-2.6,0.1-3.9,0.1c-1.2,0-2.4,0.2-2.4-1.6c0-1.8,1.2-1.5,2.3-1.5c5.3,0.2,10.5,0.5,15.8,0.8C310,70.5,311.3,70.7,311,68.3z"
			/>
		<path class="st7" d="M457.7,66.9c4.2,0.8,8.2,1.6,12.2,2.4c0,0.2,0,0.4,0.1,0.5c-4,0.9-8,1.8-12.1,2.8c-0.2-2-1.5-2.1-3.1-2
			c-5.2,0.3-10.4,0.5-15.6,0.8c-1.4,0.1-2.1-0.2-2-1.8c0-1.4,0.7-1.5,1.9-1.5c5.3,0.3,10.7,0.5,16,0.9
			C456.6,69.1,457.7,69,457.7,66.9z"/>
		<path class="st7" d="M457.7,26.9c4.2,0.8,8.2,1.6,12.2,2.4c0,0.2,0,0.4,0.1,0.5c-4,0.9-8,1.8-12.1,2.8c-0.2-2-1.5-2.1-3.1-2
			c-5.2,0.3-10.4,0.5-15.6,0.8c-1.4,0.1-2.1-0.2-2-1.8c0-1.4,0.7-1.5,1.9-1.5c5.3,0.3,10.7,0.5,16,0.9
			C456.6,29.2,457.7,29.1,457.7,26.9z"/>
		<path class="st7" d="M311.9,26.9c4.2,0.8,8.2,1.6,12.2,2.4c0,0.2,0,0.4,0.1,0.5c-4,0.9-8,1.8-12.1,2.8c-0.2-2-1.5-2.1-3.1-2
			c-5.2,0.3-10.4,0.5-15.6,0.8c-1.4,0.1-2.1-0.2-2-1.8c0-1.4,0.7-1.5,1.9-1.5c5.3,0.3,10.7,0.5,16,0.9
			C310.7,29.2,311.9,29.1,311.9,26.9z"/>
		<path class="st7" d="M174.7,26.9c4.2,0.8,8.2,1.6,12.2,2.4c0,0.2,0,0.4,0.1,0.5c-4,0.9-8,1.8-12.1,2.8c-0.2-2-1.5-2.1-3.1-2
			c-5.2,0.3-10.4,0.5-15.6,0.8c-1.4,0.1-2.1-0.2-2-1.8c0-1.4,0.7-1.5,1.9-1.5c5.3,0.3,10.7,0.5,16,0.9
			C173.6,29.2,174.7,29.1,174.7,26.9z"/>
		<path class="st7" d="M596.6,26.9c4.2,0.8,8.2,1.6,12.2,2.4c0,0.2,0,0.4,0.1,0.5c-4,0.9-8,1.8-12.1,2.8c-0.2-2-1.5-2.1-3.1-2
			c-5.2,0.3-10.4,0.5-15.6,0.8c-1.4,0.1-2.1-0.2-2-1.8c0-1.4,0.7-1.5,1.9-1.5c5.3,0.3,10.7,0.5,16,0.9
			C595.5,29.2,596.6,29.1,596.6,26.9z"/>
		<path class="st7" d="M596.6,66.9c4.2,0.8,8.2,1.6,12.2,2.4c0,0.2,0,0.4,0.1,0.5c-4,0.9-8,1.8-12.1,2.8c-0.2-2-1.5-2.1-3.1-2
			c-5.2,0.3-10.4,0.5-15.6,0.8c-1.4,0.1-2.1-0.2-2-1.8c0-1.4,0.7-1.5,1.9-1.5c5.3,0.3,10.7,0.5,16,0.9
			C595.5,69.1,596.6,69,596.6,66.9z"/>
		<path class="st8" d="M440.4,118.4c5.7-0.2,11.4-0.4,17.1-0.7c1.2-0.1,2.4,0,2.4,1.9c-1.7,0.1-3.4,0.2-5.1,0.2
			c2,1.6,4.2,2.6,6.3,3.7c0.3,0.1,0.7,0.1,1,0c2.5-1,5-2,7.5-3c0-0.2-0.1-0.4-0.1-0.6c-1.3,0-2.6,0-3.9,0c-1.3,0.1-2.2-0.2-2.8-1.6
			c-0.7-1.6-2.2-2.1-4-2.2c-6.2-0.3-12.3-0.5-18.5-1c-1.9-0.1-2.3,0.7-1.9,2.1C438.6,117.8,439.7,118.4,440.4,118.4z"/>
		<path class="st8" d="M579.3,118.4c5.7-0.2,11.4-0.4,17.1-0.7c1.2-0.1,2.4,0,2.4,1.9c-1.7,0.1-3.4,0.2-5.1,0.2
			c2,1.6,4.2,2.6,6.3,3.7c0.3,0.1,0.7,0.1,1,0c2.5-1,5-2,7.5-3c0-0.2-0.1-0.4-0.1-0.6c-1.3,0-2.6,0-3.9,0c-1.3,0.1-2.2-0.2-2.8-1.6
			c-0.7-1.6-2.2-2.1-4-2.2c-6.2-0.3-12.3-0.5-18.5-1c-1.9-0.1-2.3,0.7-1.9,2.1C577.5,117.8,578.6,118.4,579.3,118.4z"/>
		<path class="st3" d="M609.1,155.1l-10.8-7.4c-2.9-2-6.3-3-9.7-3H448.9c-39.9,0-70.9-51.2-117.2-51.2S0,93.5,0,93.5"/>
	</g>
</g>
</svg>
