<?xml version="1.0" encoding="utf-8"?>
<!-- Generator: Adobe Illustrator 23.0.1, SVG Export Plug-In . SVG Version: 6.00 Build 0)  -->
<svg version="1.1" id="Layer_1" xmlns="http://www.w3.org/2000/svg" xmlns:xlink="http://www.w3.org/1999/xlink" x="0px" y="0px"
	 viewBox="0 0 745.4 380.3" style="enable-background:new 0 0 745.4 380.3;" xml:space="preserve">
<style type="text/css">
	.st0{fill:none;}
	.st1{font-family:'MyriadPro-Regular';}
	.st2{font-size:72px;}
</style>
<rect y="150.6" class="st0" width="160" height="78.3"/>
<text transform="matrix(1 0 0 1 0 210.853)" class="st1 st2">a, an</text>
<g>
	<g>
		<path d="M234.1,346.2h-1.6c-13.1,0-23-4.4-29.9-13.3c-6.4-7.9-9.7-18.5-9.7-31.8l0.3-88.5c0-12.5-6.1-18.8-18.3-18.9v-4.8l5.4-0.3
			c8.6-1.5,12.9-7.8,12.9-18.9L193,81.2c0-13.5,3.6-24.2,10.7-32.2c7-8.1,17.2-12.2,30.5-12.2v4.8l-6.7,0.4l-5.4,1.5
			c-11.2,4.3-17,15.5-17.3,33.5l-1.2,84.2c-0.3,13.9-6.7,23.9-19.2,30c12.5,6,18.9,16.1,19.2,30.3l1.2,83.9
			c0.4,23.6,10,35.5,28.7,35.7h0.7v5.1H234.1z"/>
	</g>
</g>
<rect x="261.1" y="0" class="st0" width="484.3" height="78.3"/>
<text transform="matrix(1 0 0 1 261.0713 60.2647)" class="st1 st2">ein (masculine )</text>
<rect x="261.1" y="151" class="st0" width="469.9" height="78.3"/>
<text transform="matrix(1 0 0 1 261.0713 211.2647)" class="st1 st2">eine (feminine )</text>
<rect x="261.1" y="302" class="st0" width="381.3" height="78.3"/>
<text transform="matrix(1 0 0 1 261.0713 362.2647)" class="st1 st2">ein (neuter )</text>
</svg>
