<?xml version="1.0" encoding="utf-8"?>
<!-- Generator: Adobe Illustrator 22.0.1, SVG Export Plug-In . SVG Version: 6.00 Build 0)  -->
<svg version="1.1" id="Layer_1" xmlns="http://www.w3.org/2000/svg" xmlns:xlink="http://www.w3.org/1999/xlink" x="0px" y="0px"
	 viewBox="0 0 346 213.3" style="enable-background:new 0 0 346 213.3;" xml:space="preserve">
<style type="text/css">
	.st0{fill:#9A9B9B;stroke:#000000;stroke-width:0.4551;stroke-miterlimit:10;}
	.st1{fill:#363F3E;stroke:#FFFFFF;stroke-width:1.1192;stroke-miterlimit:10;}
	.st2{fill:#FFFFFF;}
	.st3{fill:none;stroke:#FFFFFF;stroke-width:1.8653;stroke-miterlimit:10;stroke-dasharray:12.6841;}
	.st4{fill:none;stroke:#FFFFFF;stroke-width:3.7306;stroke-miterlimit:10;stroke-dasharray:12.6841;}
	.st5{fill:url(#SVGID_1_);}
	.st6{fill:#030304;}
	.st7{fill:#F7BA16;}
	.st8{fill:#231F20;}
	.st9{fill:url(#path3508_2_);}
	.st10{fill:url(#path35856_2_);}
	.st11{fill:url(#SVGID_2_);}
	.st12{fill:url(#SVGID_3_);}
	.st13{fill:#C1171E;}
	.st14{fill:#020203;}
	.st15{fill:url(#path4205_2_);}
	.st16{fill:url(#SVGID_4_);}
	.st17{fill:none;}
	.st18{fill:#FFED00;}
	.st19{font-family:'MyriadPro-Regular';}
	.st20{font-size:13.9428px;}
	.st21{fill:#009FE3;}
	.st22{font-size:13.9999px;}
	.st23{fill:#F39200;}
	.st24{fill:#95C11F;}
	.st25{fill:none;stroke:#95C11F;stroke-miterlimit:10;}
</style>
<g>
	<path class="st0" d="M257.2,13.8l88.4,51l-75.9,43.8c-4.4,2.5-4.4,6.6-0.1,9.1l75.3,43.4l-89.1,51.5l-76.3-44
		c-3.8-2.2-9.9-2.2-13.7,0L88.9,213L0.5,162l75.4-43.5c4.6-2.7,4.7-7,0.1-9.6L1.2,65.7l89.1-51.5l74.4,43c4.8,2.8,12.6,2.7,17.4,0
		L257.2,13.8z"/>
	<path class="st1" d="M265.1,18.4l-81.5,47.1c-5.7,3.3-14.9,3.3-20.5,0L82.2,18.8L9.1,61L90,107.7c5.6,3.3,5.6,8.6-0.1,11.8
		L8.4,166.6l72.5,41.8l81.5-47.1c5.7-3.3,14.9-3.3,20.5,0l80.9,46.7l73.1-42.2L256,119.1c-5.6-3.3-5.6-8.6,0.1-11.8l81.5-47.1
		L265.1,18.4z"/>
	<g>
		<polygon class="st2" points="55.6,180.3 57.3,181.2 45.8,187.9 44.1,186.9 		"/>
		<polygon class="st2" points="74.9,169.1 76.6,170.1 65.1,176.7 63.4,175.8 		"/>
		<polygon class="st2" points="94.3,157.9 95.9,158.9 84.4,165.6 82.7,164.6 		"/>
		<polygon class="st2" points="55.6,180.3 57.3,181.2 45.8,187.9 44.1,186.9 		"/>
		<polygon class="st2" points="74.9,169.1 76.6,170.1 65.1,176.7 63.4,175.8 		"/>
		<polygon class="st2" points="94.3,157.9 95.9,158.9 84.4,165.6 82.7,164.6 		"/>
	</g>
	<g>
		<polygon class="st2" points="248.8,68.7 250.5,69.7 239,76.3 237.3,75.4 		"/>
		<polygon class="st2" points="268.2,57.6 269.8,58.5 258.3,65.2 256.6,64.2 		"/>
		<polygon class="st2" points="287.5,46.4 289.1,47.4 277.6,54 276,53.1 		"/>
		<polygon class="st2" points="300.7,38.7 302.4,39.7 296.9,42.9 295.3,41.9 		"/>
		<polygon class="st2" points="248.8,68.7 250.5,69.7 239,76.3 237.3,75.4 		"/>
		<polygon class="st2" points="268.2,57.6 269.8,58.5 258.3,65.2 256.6,64.2 		"/>
		<polygon class="st2" points="287.5,46.4 289.1,47.4 277.6,54 276,53.1 		"/>
		<polygon class="st2" points="301,38.6 302.7,39.5 296.9,42.9 295.3,41.9 		"/>
	</g>
	<g>
		<polygon class="st2" points="296,179.7 304.4,184.6 302.8,185.5 294.3,180.7 		"/>
		<polygon class="st2" points="275.1,169.6 276.8,168.6 288.2,175.2 286.6,176.2 		"/>
		<polygon class="st2" points="256,158.5 257.6,157.6 269.1,164.2 267.4,165.1 		"/>
		<polygon class="st2" points="236.8,147.5 238.5,146.5 249.9,153.1 248.2,154.1 		"/>
	</g>
	<g>
		<polygon class="st2" points="83.5,59 85.2,58 96.6,64.6 94.9,65.6 		"/>
		<polygon class="st2" points="64.3,47.9 66,46.9 77.4,53.5 75.8,54.5 		"/>
		<polygon class="st2" points="49.8,37.6 58.3,42.5 56.6,43.4 48.1,38.5 		"/>
	</g>
	<path class="st3" d="M108.9,150.7c48.3-29,45.2-52-2-79.3"/>
	<path class="st4" d="M181.3,158.4c20.2-11.7,51.8-56.7,3.1-91"/>
</g>
<g>
	
		<linearGradient id="SVGID_1_" gradientUnits="userSpaceOnUse" x1="268.8081" y1="403.5717" x2="272.0181" y2="403.5717" gradientTransform="matrix(0.866 0.5 0 1.1547 -72.0076 -463.0726)">
		<stop  offset="0" style="stop-color:#EEEBEA"/>
		<stop  offset="0" style="stop-color:#E0DBD8"/>
		<stop  offset="0" style="stop-color:#D7D2CE"/>
		<stop  offset="6.786538e-02" style="stop-color:#C9C4C0"/>
		<stop  offset="0.1461" style="stop-color:#B4B0AB"/>
		<stop  offset="0.5225" style="stop-color:#E8E7E7"/>
		<stop  offset="0.6579" style="stop-color:#D8D6D5"/>
		<stop  offset="0.8764" style="stop-color:#B4B0AB"/>
		<stop  offset="1" style="stop-color:#DADADA"/>
		<stop  offset="1" style="stop-color:#B3B2B2"/>
	</linearGradient>
	<path class="st5" d="M163.6,169.2c0,0.5-0.5,1-1,1c-1.1-0.2-1.8-0.5-1.9-1.6v-63.2l2.7,1.6v62.3H163.6z"/>
	<g id="g3492" transform="matrix(1.25,0,0,-1.25,0,600)">
		<g id="g3494">
			<path id="path3496" class="st2" d="M129.1,391.7l-9.2,16.1c-0.5,0.8-0.3,1.4,0,1.6l9.2,5.3c0.5,0.3,1.1-0.3,1.4-0.8l9.2-15.9
				c0.5-0.8,0.5-1.4,0-1.8l-9.2-5.3C129.8,390.6,129.1,391.7,129.1,391.7z"/>
			<path id="path3498" class="st2" d="M139.6,397.9c0.5-0.8,0.5-1.4,0-1.8c-3-1.8-6.2-3.5-9.2-5.4c-0.6-0.5-1.4,0.8-1.4,0.8
				l-9.2,16.1c-0.5,0.8-0.3,1.4,0,1.6l9.2,5.3c0.5,0.3,1.1-0.3,1.4-0.8L139.6,397.9z"/>
			<path id="path3500" class="st2" d="M139.6,397.9c0.5-0.8,0.5-1.4,0-1.8c-3-1.8-6.2-3.5-9.2-5.4c-0.6-0.5-1.4,0.8-1.4,0.8
				l-9.2,16.1c-0.5,0.8-0.3,1.4,0,1.6l9.2,5.3c0.5,0.3,1.1-0.3,1.4-0.8L139.6,397.9z"/>
			<path id="path3502" class="st6" d="M130.2,413.7l9.2-16.1c0.5-0.8,0-1,0-1l-9.2-5.4c0,0-0.5-0.3-0.8,0.5l-9.2,16.1
				c-0.5,0.8,0,1,0,1c3,1.8,6.2,3.5,9.2,5.4C129.3,414.3,129.8,414.5,130.2,413.7z M129.9,413.5c-0.2,0.3-0.3,0.2-0.3,0.2
				c-3-1.8-6.2-3.5-9.2-5.4c0,0-0.2-0.2,0-0.5l9.2-16.1c0.2-0.3,0.3-0.2,0.3-0.2c3,1.8,6.2,3.5,9.2,5.4c0,0,0.2,0,0,0.5L129.9,413.5
				z"/>
			<path id="path3504" class="st7" d="M129.8,396.3l5.7,3.3l-5.7,9.9l-5.7-3.3L129.8,396.3z"/>
			<path id="path3506" class="st6" d="M129.8,396l-0.2,0.2l-5.7,10l5.9,3.3l5.9-10.2L129.8,396z M129.8,396.5l5.6,3.2l-5.6,9.6
				l-5.6-3.2L129.8,396.5z"/>
			<path id="path3508" class="st6" d="M139.6,397.9c0.2-0.3,0.3-0.8,0.3-1.1c0-0.3-0.2-0.5-0.3-0.6c-3-1.8-6.2-3.5-9.2-5.4
				c-0.3-0.2-0.6,0-1,0.3c-0.3,0.3-0.5,0.6-0.5,0.6l-9.2,16.1c-0.2,0.3-0.3,0.8-0.3,1c0,0.3,0.2,0.5,0.3,0.6l0,0l9.2,5.3
				c0.2,0.2,0.5,0,0.8-0.2c0.3-0.2,0.5-0.5,0.6-0.6L139.6,397.9z M139.6,397.9l-9.2,15.9c-0.3,0.5-1,1.1-1.4,0.8l-9.2-5.3
				c-0.3-0.2-0.5-0.8,0-1.6l9.2-16.1c0,0,0.6-1.3,1.4-0.8c3,1.8,6.2,3.5,9.2,5.4C140.1,396.5,140.1,397.3,139.6,397.9L139.6,397.9z"
				/>
		</g>
	</g>
	<g id="g35852" transform="matrix(1.25,0,0,-1.25,0,600.99804)">
		<g id="g35854">
			<path id="path35856" class="st2" d="M135.3,388l-11.3,6.5c-0.5,0.3-0.8,0-0.8-0.5V381c0-0.6,0.3-1.3,0.8-1.4l11.3-6.5
				c0.5-0.3,0.8,0,0.8,0.5v13.1C136.3,387.1,135.8,387.7,135.3,388"/>
			<path id="path35858" class="st6" d="M124,394.4c-0.5,0.3-0.8,0-0.8-0.5v-13.1c0-0.6,0.3-1.3,0.8-1.6l11.3-6.5
				c0.5-0.3,0.8,0,0.8,0.5v13.1c0,0.6-0.3,1.3-0.8,1.6L124,394.4z M124,394.4l11.3-6.5c0.5-0.3,0.8-1,0.8-1.4v-13.1
				c0-0.6-0.3-0.8-0.8-0.5l-11.3,6.5c-0.5,0.3-0.8,1-0.8,1.4v13.1C123.2,394.6,123.5,394.7,124,394.4z"/>
			<path id="path35860" class="st8" d="M124,394.3c-0.3,0.2-0.6,0-0.6-0.3v-13.1c0-0.5,0.3-1,0.6-1.1l11.3-6.5
				c0.3-0.2,0.6,0,0.6,0.3v13.1c0,0.5-0.3,1-0.6,1.1L124,394.3L124,394.3z M124,393.8l11.3-6.5c0.2-0.2,0.3-0.3,0.3-0.6v-13.1
				c0-0.2-0.2-0.3-0.3-0.2l-11.3,6.5c-0.2,0.2-0.3,0.3-0.3,0.6v13.1C123.7,393.9,123.9,393.9,124,393.8z"/>
			<path id="path35862" class="st8" d="M128.6,378.6v3.2c0,0.6-0.5,1.6-1.1,1.9l-2.7,1.6v2.5l2.7-1.6c1.8-1.1,3.2-3.5,3.2-5.6v-3.2"
				/>
			<path id="path35864" class="st8" d="M134.7,380.2l-3.2,1.9v1.3l3.2-1.9V380.2z"/>
			<path id="path35866" class="st8" d="M130.2,385.3l-1.1,0.6v3.8l1.1-0.6V385.3L130.2,385.3z"/>
		</g>
	</g>
</g>
<g>
	<g id="g3492_1_" transform="matrix(1.25,0,0,-1.25,0,600)">
		<g id="g3494_1_">
			<path id="path3496_1_" class="st2" d="M57,430.3l-6.6,3.7c-0.3,0.2-0.2,0.8,0,1.1l6.6,11.4c0.3,0.6,0.8,0.7,1,0.6l6.6-3.7
				c0.3-0.2,0.3-0.7,0-1.1L58,430.9C57.6,430.1,57,430.3,57,430.3z"/>
			<path id="path3498_1_" class="st2" d="M64.6,443.5c0.3-0.2,0.3-0.7,0-1.1c-2.2-3.7-4.4-7.6-6.6-11.4c-0.5-0.9-1-0.6-1-0.6
				l-6.6,3.7c-0.3,0.2-0.2,0.8,0,1.1l6.6,11.4c0.3,0.6,0.8,0.7,1,0.6L64.6,443.5z"/>
			<path id="path3500_1_" class="st2" d="M64.6,443.5c0.3-0.2,0.3-0.7,0-1.1c-2.2-3.7-4.4-7.6-6.6-11.4c-0.5-0.9-1-0.6-1-0.6
				l-6.6,3.7c-0.3,0.2-0.2,0.8,0,1.1l6.6,11.4c0.3,0.6,0.8,0.7,1,0.6L64.6,443.5z"/>
			<path id="path3502_1_" class="st6" d="M57.8,446.9l6.6-3.7c0.3-0.2,0-0.7,0-0.7L57.8,431c0,0-0.3-0.6-0.6-0.3l-6.6,3.7
				c-0.3,0.2,0,0.7,0,0.7c2.2,3.7,4.4,7.6,6.6,11.4C57.2,446.6,57.6,447.2,57.8,446.9z"/>
			
				<linearGradient id="path3508_2_" gradientUnits="userSpaceOnUse" x1="44.2657" y1="150.2438" x2="65.3655" y2="150.2438" gradientTransform="matrix(1.0825 0.625 0 1.4434 2.321 190.1195)">
				<stop  offset="0" style="stop-color:#EEEBEA"/>
				<stop  offset="0" style="stop-color:#E0DBD8"/>
				<stop  offset="0" style="stop-color:#D7D2CE"/>
				<stop  offset="6.786538e-02" style="stop-color:#C9C4C0"/>
				<stop  offset="0.1461" style="stop-color:#B4B0AB"/>
				<stop  offset="0.5225" style="stop-color:#E8E7E7"/>
				<stop  offset="0.6579" style="stop-color:#D8D6D5"/>
				<stop  offset="0.8764" style="stop-color:#B4B0AB"/>
				<stop  offset="1" style="stop-color:#DADADA"/>
				<stop  offset="1" style="stop-color:#B3B2B2"/>
			</linearGradient>
			<path id="path3508_1_" class="st9" d="M64.6,443.5c0.1-0.1,0.2-0.2,0.2-0.5c0-0.2-0.1-0.5-0.2-0.7c-2.2-3.7-4.4-7.6-6.6-11.4
				c-0.2-0.5-0.5-0.6-0.7-0.6c-0.2,0-0.3,0-0.3,0l-6.6,3.7c-0.1,0.1-0.2,0.2-0.2,0.5s0.1,0.5,0.2,0.7l0,0l6.6,11.4
				c0.1,0.3,0.3,0.5,0.6,0.6c0.2,0.1,0.3,0.1,0.5,0L64.6,443.5z"/>
		</g>
	</g>
	<g id="g35852_1_" transform="matrix(1.25,0,0,-1.25,0,600.99804)">
		<g id="g35854_1_">
			
				<linearGradient id="path35856_2_" gradientUnits="userSpaceOnUse" x1="46.7363" y1="141.8893" x2="60.1295" y2="141.8893" gradientTransform="matrix(1.0825 0.625 0 1.4434 2.321 188.8435)">
				<stop  offset="0" style="stop-color:#EEEBEA"/>
				<stop  offset="0" style="stop-color:#E0DBD8"/>
				<stop  offset="0" style="stop-color:#D7D2CE"/>
				<stop  offset="6.786538e-02" style="stop-color:#C9C4C0"/>
				<stop  offset="0.1461" style="stop-color:#B4B0AB"/>
				<stop  offset="0.5225" style="stop-color:#E8E7E7"/>
				<stop  offset="0.6579" style="stop-color:#D8D6D5"/>
				<stop  offset="0.8764" style="stop-color:#B4B0AB"/>
				<stop  offset="1" style="stop-color:#DADADA"/>
				<stop  offset="1" style="stop-color:#B3B2B2"/>
			</linearGradient>
			<path id="path35856_1_" class="st10" d="M61.6,433.2l-8.1-4.7c-0.3-0.2-0.6-0.7-0.6-1v-9.3c0-0.3,0.2-0.6,0.6-0.3l8.1,4.7
				c0.3,0.2,0.6,0.7,0.6,1v9.2C62.2,433.2,61.9,433.4,61.6,433.2"/>
			<path id="path35858_1_" class="st6" d="M53.5,428.5c-0.3-0.2-0.6-0.7-0.6-1v-9.3c0-0.3,0.2-0.6,0.6-0.3l8.1,4.7
				c0.3,0.2,0.6,0.7,0.6,1v9.2c0,0.3-0.2,0.6-0.6,0.3L53.5,428.5z M53.5,428.5l8.1,4.7c0.3,0.2,0.6,0,0.6-0.3v-9.2
				c0-0.3-0.2-0.9-0.6-1l-8.1-4.7c-0.3-0.2-0.6,0-0.6,0.3v9.2C52.9,427.8,53.2,428.3,53.5,428.5z"/>
		</g>
	</g>
	
		<linearGradient id="SVGID_2_" gradientUnits="userSpaceOnUse" x1="164.7119" y1="646.5378" x2="167.0007" y2="646.5378" gradientTransform="matrix(0.866 -0.5 0 1.1547 -71.6976 -587.1652)">
		<stop  offset="0" style="stop-color:#EEEBEA"/>
		<stop  offset="0" style="stop-color:#E0DBD8"/>
		<stop  offset="0" style="stop-color:#D7D2CE"/>
		<stop  offset="6.786538e-02" style="stop-color:#C9C4C0"/>
		<stop  offset="0.1461" style="stop-color:#B4B0AB"/>
		<stop  offset="0.5225" style="stop-color:#E8E7E7"/>
		<stop  offset="0.6579" style="stop-color:#D8D6D5"/>
		<stop  offset="0.8764" style="stop-color:#B4B0AB"/>
		<stop  offset="1" style="stop-color:#DADADA"/>
		<stop  offset="1" style="stop-color:#B3B2B2"/>
	</linearGradient>
	<path class="st11" d="M73,101.7c0,0.5-0.3,1.1-0.7,1.6c-0.8,0.9-1.2,1.2-1.4,0.3v-54l1.9-1.1v53.2H73z"/>
</g>
<g>
	
		<linearGradient id="SVGID_3_" gradientUnits="userSpaceOnUse" x1="329.8231" y1="573.5393" x2="332.8354" y2="573.5393" gradientTransform="matrix(1 0 0 1 -56.7341 -477.8043)">
		<stop  offset="0" style="stop-color:#EEEBEA"/>
		<stop  offset="0" style="stop-color:#E0DBD8"/>
		<stop  offset="0" style="stop-color:#D7D2CE"/>
		<stop  offset="6.786538e-02" style="stop-color:#C9C4C0"/>
		<stop  offset="0.1461" style="stop-color:#B4B0AB"/>
		<stop  offset="0.5225" style="stop-color:#E8E7E7"/>
		<stop  offset="0.6579" style="stop-color:#D8D6D5"/>
		<stop  offset="0.8764" style="stop-color:#B4B0AB"/>
		<stop  offset="1" style="stop-color:#DADADA"/>
		<stop  offset="1" style="stop-color:#B3B2B2"/>
	</linearGradient>
	<path class="st12" d="M276,124.1c0,0.4-0.4,1-1,1.3c-1.2,0.4-1.9,0.4-1.9-0.4V65.8h3V124.1z"/>
	<g id="g4197" transform="matrix(1.25,0,0,-1.25,0,743.62267)">
		<g id="g4199">
			<path id="path4201" class="st2" d="M220.8,527.9c0.1,0.1,0.4,0.3,0.6,0.6c0,0.1,0.1,0.1,0.1,0.3l0.4,1l0,0l7.8,20.2l0,0
				c0,0.1,0,0.1,0.1,0.3c0.1,0.6-0.1,0.9-0.6,0.7c0,0-0.1,0-0.1-0.1l-16.4-9.6c-0.4-0.3-0.7-0.9-0.7-1.3c0-0.1,0-0.3,0.1-0.4l0,0
				l8.1-11.5c0.1-0.1,0.1-0.1,0.3-0.3C220.5,527.8,220.7,527.8,220.8,527.9z"/>
			<path id="path4203" class="st13" d="M220.8,528.2c0.1,0.1,0.4,0.3,0.4,0.6l8.2,21.2c0,0.1,0,0.3,0,0.3c0,0.1-0.1,0.3-0.1,0.4
				c-0.1,0-0.3,0-0.4,0l-16.4-9.6c-0.1,0-0.1-0.1-0.3-0.3c-0.1-0.1-0.3-0.4-0.3-0.7c0-0.1,0-0.3,0.1-0.3l8.2-11.7l0,0l0,0
				c0,0,0,0,0.1-0.1C220.5,528.1,220.7,528.1,220.8,528.2L220.8,528.2L220.8,528.2z M229.2,550.7L229.2,550.7L229.2,550.7
				L229.2,550.7z M220.8,531.5l-6.3,9l12.6,7.3L220.8,531.5z"/>
			<path id="path4205" class="st14" d="M220.8,527.9c0.1,0.1,0.4,0.3,0.6,0.6c0,0.1,0.1,0.1,0.1,0.3l0.4,1l0,0l7.8,20.2l0,0
				c0,0.1,0,0.1,0.1,0.3c0.1,0.6-0.1,0.9-0.6,0.7c0,0-0.1,0-0.1-0.1l-16.4-9.6c-0.4-0.3-0.7-0.9-0.7-1.3c0-0.1,0-0.3,0.1-0.4l0,0
				l8.1-11.5c0.1-0.1,0.1-0.1,0.3-0.3C220.5,527.8,220.7,527.8,220.8,527.9z M220.8,527.9c-0.1-0.1-0.4-0.1-0.6,0
				c-0.1,0-0.1,0.1-0.3,0.3l-8.1,11.5l0,0c0,0.1-0.1,0.3-0.1,0.4c0,0.4,0.3,1,0.7,1.3l16.4,9.6c0,0,0.1,0,0.1,0.1
				c0.4,0.1,0.6-0.3,0.6-0.7c0-0.1,0-0.1-0.1-0.3l0,0l-7.8-20.2l0,0l-0.4-1c0-0.1-0.1-0.1-0.1-0.3
				C221.3,528.2,221.1,528.1,220.8,527.9L220.8,527.9z"/>
		</g>
	</g>
</g>
<g>
	<g id="g4197_1_" transform="matrix(1.25,0,0,-1.25,0,743.62267)">
		<g id="g4199_1_">
			<path id="path4201_1_" class="st2" d="M153.6,576.5c0.1-0.1,0.4-0.1,0.5,0c0,0,0.1,0,0.1,0.1l0.4,0.5l0,0l6.1,8.8l0,0
				c0,0,0,0.1,0.1,0.1c0.1,0.4-0.1,0.8-0.5,1.1l-0.1,0.1l-13,7.6c-0.4,0.2-0.6,0-0.6-0.4c0-0.1,0-0.2,0.1-0.4l0,0l6.4-16.6
				c0.1-0.2,0.1-0.2,0.2-0.5C153.4,576.7,153.5,576.6,153.6,576.5z"/>
			<path id="path4203_1_" class="st13" d="M153.6,576.6c0.1-0.1,0.4-0.1,0.4,0l6.5,9.2c0,0.1,0,0.1,0,0.2s-0.1,0.4-0.1,0.5
				c-0.1,0.1-0.2,0.2-0.4,0.4l-13,7.6c-0.1,0-0.1,0.1-0.2,0c-0.1,0-0.2-0.1-0.2-0.4c0-0.1,0-0.2,0.1-0.4l6.5-16.8l0,0l0,0
				c0,0,0-0.1,0.1-0.1C153.4,576.8,153.5,576.7,153.6,576.6C153.6,576.7,153.6,576.7,153.6,576.6L153.6,576.6z M160.1,586.9
				L160.1,586.9L160.1,586.9L160.1,586.9z"/>
			
				<linearGradient id="path4205_2_" gradientUnits="userSpaceOnUse" x1="97.377" y1="438.9213" x2="115.2753" y2="438.9213" gradientTransform="matrix(1.25 0 0 1.25 24.7489 36.9891)">
				<stop  offset="0" style="stop-color:#EEEBEA"/>
				<stop  offset="0" style="stop-color:#E0DBD8"/>
				<stop  offset="0" style="stop-color:#D7D2CE"/>
				<stop  offset="6.786538e-02" style="stop-color:#C9C4C0"/>
				<stop  offset="0.1461" style="stop-color:#B4B0AB"/>
				<stop  offset="0.5225" style="stop-color:#E8E7E7"/>
				<stop  offset="0.6579" style="stop-color:#D8D6D5"/>
				<stop  offset="0.8764" style="stop-color:#B4B0AB"/>
				<stop  offset="1" style="stop-color:#DADADA"/>
				<stop  offset="1" style="stop-color:#B3B2B2"/>
			</linearGradient>
			<path id="path4205_1_" class="st15" d="M153.6,576.5c0.1-0.1,0.4-0.1,0.5,0c0,0,0.1,0,0.1,0.1l0.4,0.5l0,0l6.1,8.8l0,0
				c0,0,0,0.1,0.1,0.1c0.1,0.4-0.1,0.8-0.5,1.2l-0.1,0.1l-13,7.6c-0.4,0.2-0.6,0-0.6-0.4c0-0.1,0-0.2,0.1-0.4l0,0l6.4-16.6
				c0.1-0.2,0.1-0.4,0.2-0.5C153.4,576.7,153.5,576.6,153.6,576.5z"/>
		</g>
	</g>
	
		<linearGradient id="SVGID_4_" gradientUnits="userSpaceOnUse" x1="247.5735" y1="510.8015" x2="249.9564" y2="510.8015" gradientTransform="matrix(1 0 0 1 -56.7341 -477.8043)">
		<stop  offset="0" style="stop-color:#EEEBEA"/>
		<stop  offset="0" style="stop-color:#E0DBD8"/>
		<stop  offset="0" style="stop-color:#D7D2CE"/>
		<stop  offset="6.786538e-02" style="stop-color:#C9C4C0"/>
		<stop  offset="0.1461" style="stop-color:#B4B0AB"/>
		<stop  offset="0.5225" style="stop-color:#E8E7E7"/>
		<stop  offset="0.6579" style="stop-color:#D8D6D5"/>
		<stop  offset="0.8764" style="stop-color:#B4B0AB"/>
		<stop  offset="1" style="stop-color:#DADADA"/>
		<stop  offset="1" style="stop-color:#B3B2B2"/>
	</linearGradient>
	<path class="st16" d="M193.2,55.4c0,0.4-0.4,0.8-0.8,1.1c-0.9,0.4-1.5,0.4-1.5-0.4V9.3h2.4V55.4z"/>
</g>
<polygon class="st17" points="129.7,163.7 117.3,170.8 107.8,165.3 120.2,158.2 "/>
<text transform="matrix(0.8696 -0.502 0.866 0.5 116.3548 170.3015)" class="st18 st19 st20">A</text>
<polygon class="st17" points="290.9,147.6 278.5,154.7 268.9,149.2 281.4,142.1 "/>
<text transform="matrix(0.866 -0.5 0.866 0.5 277.567 154.2236)" class="st21 st19 st22">B</text>
<polygon class="st17" points="238.6,60.9 226.2,68 216.7,62.6 229.1,55.4 "/>
<text transform="matrix(0.8696 -0.502 0.866 0.5 225.3054 67.5116)" class="st23 st19 st20">C</text>
<polygon class="st17" points="115,91.1 102.6,98.2 93.1,92.7 105.5,85.6 "/>
<text transform="matrix(0.8696 -0.502 0.866 0.5 101.7089 97.7011)" class="st24 st19 st20">D</text>
<ellipse class="st25" cx="116.8" cy="166.1" rx="10.6" ry="8"/>
<ellipse class="st25" cx="277.4" cy="150.3" rx="10.6" ry="8"/>
<ellipse class="st25" cx="224.2" cy="62.9" rx="10.6" ry="8"/>
<ellipse class="st25" cx="101.3" cy="94" rx="10.6" ry="8"/>
</svg>
