<?xml version="1.0" encoding="utf-8"?>
<!-- Generator: Adobe Illustrator 22.0.1, SVG Export Plug-In . SVG Version: 6.00 Build 0)  -->
<svg version="1.1" id="Layer_1" xmlns="http://www.w3.org/2000/svg" xmlns:xlink="http://www.w3.org/1999/xlink" x="0px" y="0px"
	 viewBox="0 0 300 300" style="enable-background:new 0 0 300 300;" xml:space="preserve">
<style type="text/css">
	.st0{fill:#9A9C9B;stroke:#020203;stroke-width:0.4571;stroke-miterlimit:10;}
	.st1{fill:#373F3E;stroke:#FFFFFF;stroke-width:1.1241;stroke-miterlimit:10;}
	.st2{fill:#FFFFFF;}
	.st3{fill:#6CB75A;}
	.st4{fill:#231F20;}
	.st5{fill:#A1CD91;}
	.st6{fill:#304048;}
	.st7{fill:#3C4F58;}
	.st8{fill:#FBFAF9;}
	.st9{fill:#E8E5D9;}
	.st10{fill:#8AC26E;}
	.st11{fill:#EF7B6F;}
	.st12{fill:#F1F2F2;}
	.st13{fill:url(#SVGID_1_);}
	.st14{fill:url(#SVGID_2_);}
	.st15{fill:url(#SVGID_3_);}
	.st16{fill:#676767;}
	.st17{fill:url(#SVGID_4_);}
	.st18{fill:url(#SVGID_5_);}
	.st19{fill:url(#SVGID_6_);}
	.st20{fill:url(#SVGID_7_);}
	.st21{fill:url(#SVGID_8_);}
	.st22{fill:url(#SVGID_9_);}
	.st23{fill:url(#SVGID_10_);}
	.st24{fill:url(#SVGID_11_);}
	.st25{fill:url(#SVGID_12_);}
	.st26{fill:url(#SVGID_13_);}
	.st27{fill:url(#SVGID_14_);}
	.st28{fill:url(#SVGID_15_);}
	.st29{fill:#911915;}
	.st30{fill:#70150F;}
	.st31{fill:url(#SVGID_16_);}
	.st32{fill:#020203;}
	.st33{fill:url(#SVGID_17_);}
	.st34{fill:#343434;}
	.st35{fill:url(#SVGID_18_);}
	.st36{fill:url(#SVGID_19_);}
	.st37{fill:url(#SVGID_20_);}
	.st38{fill:url(#SVGID_21_);}
	.st39{fill:url(#SVGID_22_);}
	.st40{fill:url(#SVGID_23_);}
	.st41{fill:url(#SVGID_24_);}
	.st42{fill:url(#SVGID_25_);}
	.st43{fill:url(#SVGID_26_);}
	.st44{fill:url(#SVGID_27_);}
	.st45{fill:url(#SVGID_28_);}
	.st46{fill:url(#SVGID_29_);}
	.st47{fill:url(#SVGID_30_);}
	.st48{fill:url(#SVGID_31_);}
	.st49{fill:url(#SVGID_32_);}
	.st50{fill:url(#SVGID_33_);}
	.st51{fill:url(#SVGID_34_);}
	.st52{fill:url(#SVGID_35_);}
	.st53{fill:url(#SVGID_36_);}
	.st54{fill:url(#SVGID_37_);}
	.st55{fill:url(#SVGID_38_);}
	.st56{fill:url(#SVGID_39_);}
	.st57{fill:url(#SVGID_40_);}
	.st58{fill:#F59D1E;}
	.st59{fill:url(#SVGID_41_);}
	.st60{fill:url(#SVGID_42_);}
	.st61{fill:url(#SVGID_43_);}
	.st62{fill:url(#SVGID_44_);}
	.st63{fill:url(#SVGID_45_);}
	.st64{fill:url(#SVGID_46_);}
	.st65{fill:url(#SVGID_47_);}
	.st66{fill:url(#SVGID_48_);}
	.st67{fill:url(#SVGID_49_);}
	.st68{fill:url(#SVGID_50_);}
	.st69{fill:url(#SVGID_51_);}
	.st70{fill:url(#SVGID_52_);}
	.st71{fill:url(#SVGID_53_);}
	.st72{fill:url(#SVGID_54_);}
	.st73{fill:url(#SVGID_55_);}
	.st74{fill:url(#SVGID_56_);}
	.st75{font-family:'TimesNewRomanPS-BoldMT';}
	.st76{font-size:22.4825px;}
	.st77{font-size:17.986px;}
	.st78{fill:none;stroke:#8FCC79;stroke-width:7;stroke-miterlimit:10;}
	.st79{fill:#8FCC79;}
	.st80{fill:none;stroke:#AA0E0E;stroke-width:7;stroke-miterlimit:10;}
	.st81{fill:#AA0E0E;}
</style>
<path class="st0" d="M309.6,86.4V197h-94.2c-5.4,0-9.8,4.4-9.8,9.8V301H95v-95.5c0-4.7-3.8-8.5-8.5-8.5H-9V86.4h93.6
	C90.4,86.4,95,81.7,95,76v-93.6h110.6v93.1c0,6,4.9,10.9,10.9,10.9H309.6z"/>
<path class="st1" d="M309.6,96.3H208.4c-7.1,0-12.8-5.7-12.8-12.8V-17.6H105V83.6c0,7.1-5.7,12.8-12.8,12.8H-9v90.7H92.2
	c7.1,0,12.8,5.7,12.8,12.8v101.2h90.7V199.8c0-7.1,5.7-12.8,12.8-12.8h101.2L309.6,96.3L309.6,96.3L309.6,96.3z"/>
<g>
	<rect x="-8.7" y="140.6" class="st2" width="14.3" height="2.1"/>
	<rect x="15.3" y="140.6" class="st2" width="14.3" height="2.1"/>
	<rect x="39.2" y="140.6" class="st2" width="14.3" height="2.1"/>
	<rect x="63.2" y="140.6" class="st2" width="14.3" height="2.1"/>
	<rect x="-8.7" y="140.6" class="st2" width="14.3" height="2.1"/>
	<rect x="15.3" y="140.6" class="st2" width="14.3" height="2.1"/>
	<rect x="39.2" y="140.6" class="st2" width="14.3" height="2.1"/>
	<rect x="63.2" y="140.6" class="st2" width="14.3" height="2.1"/>
</g>
<g>
	<rect x="231.1" y="140.6" class="st2" width="14.3" height="2.1"/>
	<rect x="255.1" y="140.6" class="st2" width="14.3" height="2.1"/>
	<rect x="279.1" y="140.6" class="st2" width="14.3" height="2.1"/>
	<rect x="303.1" y="140.6" class="st2" width="6.8" height="2.1"/>
	<rect x="231.1" y="140.6" class="st2" width="14.3" height="2.1"/>
	<rect x="255.1" y="140.6" class="st2" width="14.3" height="2.1"/>
	<rect x="279.1" y="140.6" class="st2" width="14.3" height="2.1"/>
	<rect x="303.1" y="140.6" class="st2" width="7.2" height="2.1"/>
</g>
<g>
	<rect x="153.3" y="290.4" class="st2" width="2.1" height="10.6"/>
	<rect x="153.3" y="266.4" class="st2" width="2.1" height="14.3"/>
	<rect x="153.3" y="242.5" class="st2" width="2.1" height="14.3"/>
	<rect x="153.3" y="218.5" class="st2" width="2.1" height="14.3"/>
</g>
<g>
	<rect x="153.3" y="50.6" class="st2" width="2.1" height="14.3"/>
	<rect x="153.3" y="26.6" class="st2" width="2.1" height="14.3"/>
	<rect x="153.3" y="2.6" class="st2" width="2.1" height="14.3"/>
	<rect x="153.3" y="-17.6" class="st2" width="2.1" height="10.6"/>
</g>
<g>
	<g>
		<path class="st3" d="M187.3,274.5c-8.4,1.7-17.1,1.7-25.6,0c-1.3-0.3-2.3-1.4-2.3-2.8c0-16.2,0-37.6,0-53.8c0-3.5,2.6-6.5,6-7
			c6-0.8,12-0.8,18,0c3.5,0.5,6,3.5,6,7v53.8C189.6,273.1,188.6,274.2,187.3,274.5z"/>
		<path class="st4" d="M181.1,210.6c-4.3-0.5-8.7-0.5-13,0v6.8h13V210.6z"/>
		<path class="st3" d="M183.1,214.3c-2.8-0.4-5.6-0.6-8.5-0.6c-2.8,0-5.7,0.2-8.5,0.6c-1.7,0.3-3,1.7-3,3.5v56.9
			c7.6,1.4,15.4,1.4,23,0v-56.8C186,216.1,184.8,214.6,183.1,214.3z"/>
		<path class="st5" d="M183.3,234.2h-17.5l2.7-17.9c4-0.7,8.1-0.7,12.1,0L183.3,234.2z"/>
		<path class="st3" d="M186.8,212.2c0.8,1.2,1.2,2.8,1.2,4.5v49.4c-4,1.4-8.5,2.2-13.4,2.2s-9.4-0.8-13.4-2.2v-49.4
			c0-1.7,0.5-3.2,1.2-4.5c-1.7,1.3-2.8,3.4-2.8,5.7c0,14.2,0,32.4,0,47.5v6.3c0,0.1,0,0.3,0,0.4v0.1c0,0.1,0.1,0.3,0.1,0.4v0.1
			c0.1,0.1,0.1,0.3,0.1,0.3s0,0,0,0.1c0.1,0.1,0.1,0.3,0.2,0.3l0,0c0.1,0.3,0.3,0.5,0.6,0.6l0,0c0.1,0.1,0.2,0.1,0.3,0.3l0,0
			c0.1,0.1,0.3,0.1,0.4,0.2l0,0c0.1,0.1,0.3,0.1,0.4,0.1c8.4,1.7,17.1,1.7,25.6,0c0.1,0,0.3-0.1,0.4-0.1l0,0
			c0.1-0.1,0.3-0.1,0.4-0.2l0,0c0.1-0.1,0.3-0.1,0.3-0.3l0,0c0.2-0.2,0.4-0.4,0.6-0.6l0,0c0.1-0.1,0.1-0.2,0.2-0.3c0,0,0,0,0-0.1
			c0.1-0.1,0.1-0.3,0.1-0.3v-0.1c0.1-0.1,0.1-0.3,0.1-0.4v-0.1c0-0.1,0-0.3,0-0.4v-53.8C189.6,215.5,188.5,213.5,186.8,212.2z"/>
		<path class="st6" d="M163.9,259l-1,1.2c-0.8,0.9-2.2,0.4-2.2-0.8v-27.8l3.2,7.4V259z"/>
		<path class="st7" d="M162,259.9c-0.2,0-0.6-0.1-0.6-0.5V235l1.7,4.1v19.7l-0.8,1C162.2,259.9,162.1,259.9,162,259.9z"/>
		<g>
			<path class="st3" d="M159.9,233.3l-2,1.1c-0.6,0.3-1.1,1-1.2,1.7l-0.1,0.7l3-1.1l0.6-1.7l1-0.4L161,233L159.9,233.3z"/>
			<polygon class="st6" points="159.4,235.4 156.5,236.4 156.4,236.8 159.5,235.6 160.1,233.9 161.1,233.5 161.1,233.3 160,233.7 
							"/>
		</g>
		<path class="st6" d="M185.3,259l1,1.2c0.8,0.9,2.2,0.4,2.2-0.8v-27.8l-3.2,7.4V259z"/>
		<path class="st7" d="M187.2,259.9c0.2,0,0.6-0.1,0.6-0.5V235l-1.7,4.1v19.7l0.8,1C186.9,259.9,187,259.9,187.2,259.9z"/>
		<g>
			<path class="st3" d="M189.3,233.3l2,1.1c0.6,0.3,1.1,1,1.2,1.7l0.1,0.7l-3-1.1L189,234l-1-0.4l0.2-0.6L189.3,233.3z"/>
			<polygon class="st6" points="189.8,235.4 192.6,236.4 192.7,236.8 189.7,235.6 189,233.9 188,233.5 188.1,233.3 189.2,233.7 			
				"/>
		</g>
		<g>
			<path class="st8" d="M162.4,216.7c0,0,0.1-3.1,4.7-3.2v-1.7C167.1,211.7,162.5,211.8,162.4,216.7z"/>
			<path class="st9" d="M162.4,216.7c0,0,0-0.1,0.1-0.3c0.5-4.1,4.6-4.2,4.6-4.2v-0.5C167.1,211.7,162.5,211.8,162.4,216.7z"/>
			<path class="st7" d="M166.7,211.7v1.4c-2.1,0.1-3.3,0.8-3.9,1.6c-0.2,0.6-0.3,1.2-0.4,2.1c0,0,0.1-3.1,4.7-3.2v-1.7
				C167.1,211.7,167,211.7,166.7,211.7z"/>
		</g>
		<g>
			<path class="st8" d="M186.8,216.7c0,0-0.1-3.1-4.7-3.2v-1.7C182.1,211.7,186.7,211.8,186.8,216.7z"/>
			<path class="st9" d="M186.8,216.7c0,0,0-0.1-0.1-0.3c-0.5-4.1-4.6-4.2-4.6-4.2v-0.5C182.1,211.7,186.7,211.8,186.8,216.7z"/>
			<path class="st7" d="M182.5,211.7v1.4c2.1,0.1,3.3,0.8,3.9,1.6c0.2,0.6,0.3,1.2,0.4,2.1c0,0-0.1-3.1-4.7-3.2v-1.7
				C182.1,211.7,182.2,211.7,182.5,211.7z"/>
		</g>
		<path class="st10" d="M168.9,213.3c3.8-0.3,7.6-0.3,11.3,0v-1.4c-3.8-0.3-7.6-0.3-11.3,0V213.3z"/>
		<path class="st6" d="M184.3,238.6h-19.4c0,0-1.4-3-2.6-5.6c-0.6-1.3,0.1-2.8,1.5-3.2c7.1-1.8,14.5-1.8,21.6,0
			c1.4,0.3,2.1,1.9,1.5,3.2C185.7,235.7,184.3,238.6,184.3,238.6z"/>
		<path class="st7" d="M165.3,238c-0.4-0.9-1.4-3.1-2.4-5.1c-0.2-0.5-0.2-0.9,0-1.4s0.6-0.7,1-0.8c3.5-0.9,7.1-1.4,10.6-1.4
			s7.2,0.5,10.6,1.4c0.5,0.1,0.8,0.5,1,0.8c0.2,0.5,0.2,0.9,0,1.4c-0.9,2-1.9,4.3-2.4,5.1H165.3z"/>
		<path class="st6" d="M184.3,260.5h-19.4c0,0-0.3,0.3-0.6,0.7c-1.6,1.7-0.6,4.5,1.7,4.8c5.8,0.9,11.7,0.9,17.5,0
			c2.3-0.4,3.2-3.1,1.7-4.8C184.6,260.8,184.3,260.5,184.3,260.5z"/>
		<path class="st7" d="M174.6,266c-2.9,0-5.8-0.3-8.6-0.7c-0.8-0.1-1.4-0.6-1.7-1.4s-0.1-1.6,0.5-2.2c0.2-0.2,0.3-0.4,0.5-0.5h18.8
			c0.1,0.1,0.3,0.3,0.5,0.5c0.6,0.6,0.7,1.4,0.5,2.2c-0.3,0.8-0.9,1.3-1.7,1.4C180.4,265.7,177.4,266,174.6,266z"/>
		<path class="st11" d="M189.5,272.6c-0.5-0.5-1.2-0.6-2.4,0.6s-4.9,0.8-5.2,2.1c1.8-0.2,3.7-0.5,5.5-0.8
			C188.4,274.3,189.2,273.5,189.5,272.6L189.5,272.6z"/>
		<path class="st11" d="M159.7,272.6c0.5-0.5,1.2-0.6,2.4,0.6s4.9,0.8,5.2,2.1c-1.8-0.2-3.7-0.5-5.5-0.8
			C160.8,274.3,160,273.5,159.7,272.6L159.7,272.6z"/>
		<path class="st12" d="M168.7,273.8v1.7c3.9,0.4,7.8,0.4,11.7,0v-1.7C176.5,274.2,172.7,274.2,168.7,273.8z"/>
	</g>
</g>
<g>
	<g>
		
			<linearGradient id="SVGID_1_" gradientUnits="userSpaceOnUse" x1="-1938.8403" y1="7108.3247" x2="-1766.7903" y2="7108.3247" gradientTransform="matrix(-5.450000e-02 0 0 7.800000e-03 28.1497 38.2551)">
			<stop  offset="0" style="stop-color:#5B5B5D"/>
			<stop  offset="0.1412" style="stop-color:#FFFFFF"/>
			<stop  offset="0.8941" style="stop-color:#A6A8AA"/>
			<stop  offset="1" style="stop-color:#FFFFFF"/>
		</linearGradient>
		<path class="st13" d="M134,93.4c0.1-0.1,0.3-0.3,0.5-0.4c-1.4,0.4-2.8,0.6-4.2,0.6c-0.4,0-0.7,0-1.1,0c0,0,0,0-0.1,0
			c0,0,0,0-0.1,0c-1.7,0.1-3.4-0.1-5.3-0.6c0.1,0.1,0.3,0.3,0.5,0.4c1.9,0.6,3.4,0.9,4.9,1c0,0,0,0,0.1,0c0,0,0,0,0.1,0
			C130.6,94.3,132.2,94,134,93.4z"/>
		
			<linearGradient id="SVGID_2_" gradientUnits="userSpaceOnUse" x1="-1577.3055" y1="378.8991" x2="-1405.2563" y2="378.8991" gradientTransform="matrix(-9.720000e-02 -8.330000e-02 -6.930000e-02 8.090000e-02 12.6921 -71.3946)">
			<stop  offset="5.098000e-02" style="stop-color:#F2959A"/>
			<stop  offset="0.8941" style="stop-color:#911917"/>
			<stop  offset="1" style="stop-color:#EA506A"/>
		</linearGradient>
		<path class="st14" d="M134.4,93c-0.1,0.1-0.3,0.3-0.5,0.4c-0.5,0.3-0.9,0.6-1.4,0.8c-1.2,0.4-2.3,0.5-3.4,0.5H129
			c-0.1,0-0.1,0-0.1,0v0.6c0.1,0,0.1,0,0.1,0h0.1c1.3-0.1,2.6-0.2,3.8-0.5c0.7-0.5,1.4-1,2-1.6c0.2-0.1,0.3-0.3,0.5-0.5
			s0.4-0.5,0.6-0.6c0.5-0.6,0.9-1.2,1.2-1.7c2-3.4,3-7.7,2.9-12.9c0-0.2,0-0.3,0-0.5c-0.1,0.4-0.3,0.8-0.7,1.2c0,0.1,0,0.3,0,0.4
			c0,3.6-0.7,7.2-2.1,10.6C136.5,90.8,135.5,92.1,134.4,93z"/>
		
			<linearGradient id="SVGID_3_" gradientUnits="userSpaceOnUse" x1="-1932.0343" y1="473.7129" x2="-1759.9845" y2="473.7129" gradientTransform="matrix(-2.480000e-02 -6.900000e-02 -8.510000e-02 3.060000e-02 133.9265 -55.1313)">
			<stop  offset="5.098000e-02" style="stop-color:#F2959A"/>
			<stop  offset="0.7809" style="stop-color:#911917"/>
		</linearGradient>
		<path class="st15" d="M137.3,90.3c-0.4,0.6-0.8,1.2-1.2,1.7c0.3-0.1,0.5-0.2,0.8-0.3c1-0.5,1.9-1.1,2.8-1.9
			c0.8-4,1.2-8.5,1.2-13.3l-0.6,1C140.2,82.6,139.3,86.9,137.3,90.3z"/>
		<path class="st16" d="M136.8,91.8c-0.3,0.1-0.5,0.2-0.8,0.3c-0.2,0.2-0.4,0.5-0.6,0.6c0.1-0.1,0.3-0.1,0.5-0.1
			C136.5,92.4,136.8,92.1,136.8,91.8z"/>
		
			<linearGradient id="SVGID_4_" gradientUnits="userSpaceOnUse" x1="-457.1801" y1="3326.7952" x2="-285.1073" y2="3326.7952" gradientTransform="matrix(-3.010000e-02 0 0 2.540000e-02 127.2931 5.9494)">
			<stop  offset="0" style="stop-color:#5B5B5D"/>
			<stop  offset="0.1412" style="stop-color:#FFFFFF"/>
			<stop  offset="0.8941" style="stop-color:#A6A8AA"/>
			<stop  offset="1" style="stop-color:#FFFFFF"/>
		</linearGradient>
		<path class="st17" d="M136.8,91.8c0,0.3-0.3,0.6-0.9,0.8c1.3-0.5,2.5-1.1,3.6-2c0.6-0.5,1.2-1,1.6-1.7c0.1-0.3,0-0.5-0.1-0.6
			c-0.4,0.7-0.8,1.2-1.2,1.6C138.7,90.7,137.7,91.4,136.8,91.8z"/>
		<path class="st2" d="M135.9,92.6c-0.1,0.1-0.3,0.1-0.5,0.1c-0.1,0.2-0.3,0.3-0.5,0.5c1.4-0.3,2.8-1,4.1-1.9
			c0.8-0.6,1.4-1.2,1.9-1.9c0.1-0.2,0.1-0.4,0.1-0.6c-0.5,0.7-1,1.3-1.6,1.7C138.3,91.5,137.1,92.2,135.9,92.6z"/>
		
			<linearGradient id="SVGID_5_" gradientUnits="userSpaceOnUse" x1="-7953.5444" y1="1083.6259" x2="-7781.4956" y2="1083.6259" gradientTransform="matrix(-4.600000e-03 -6.200000e-03 -2.530000e-02 1.880000e-02 128.3661 23.4914)">
			<stop  offset="5.098000e-02" style="stop-color:#F2959A"/>
			<stop  offset="0.8941" style="stop-color:#911917"/>
			<stop  offset="1" style="stop-color:#EA506A"/>
		</linearGradient>
		<path class="st18" d="M134.9,93.3c-0.6,0.6-1.2,1.1-2,1.6c1.7-0.4,3.4-1,5-1.9c1.3-0.5,2.3-1.4,2.8-2.8c0.1-0.3,0.1-0.5,0.1-0.6
			c-0.5,0.7-1.1,1.4-1.9,1.9C137.7,92.3,136.3,93,134.9,93.3z"/>
		
			<linearGradient id="SVGID_6_" gradientUnits="userSpaceOnUse" x1="-1881.291" y1="6768.5688" x2="-1709.241" y2="6768.5688" gradientTransform="matrix(-5.670000e-02 0 0 7.800000e-03 27.349 41.3552)">
			<stop  offset="0" style="stop-color:#5B5B5D"/>
			<stop  offset="0.1412" style="stop-color:#808183"/>
			<stop  offset="0.8941" style="stop-color:#1B2326"/>
			<stop  offset="1" style="stop-color:#FFFFFF"/>
		</linearGradient>
		<path class="st19" d="M132.6,94.3c0.5-0.3,1-0.5,1.4-0.8c-1.9,0.6-3.4,0.9-4.9,1c0,0,0,0-0.1,0c0,0,0,0-0.1,0
			c-1.4-0.1-3-0.4-4.9-1c0.5,0.3,0.9,0.6,1.4,0.8c1.1,0.4,2.2,0.5,3.3,0.5c0.1,0,0.1,0,0.1,0s0,0,0.1,0c0,0,0,0,0.1,0
			C130.3,94.8,131.5,94.7,132.6,94.3z"/>
		
			<linearGradient id="SVGID_7_" gradientUnits="userSpaceOnUse" x1="-351.987" y1="736.282" x2="-340.7823" y2="717.9681" gradientTransform="matrix(-1 0 0 1 -224.502 -639.621)">
			<stop  offset="0" style="stop-color:#A41B25"/>
			<stop  offset="0.1412" style="stop-color:#F2959A"/>
			<stop  offset="0.7697" style="stop-color:#911917"/>
			<stop  offset="1" style="stop-color:#EF7C88"/>
		</linearGradient>
		<path class="st20" d="M128.9,94.7c-1.1,0.1-2.2-0.1-3.3-0.5c-0.5-0.3-1-0.5-1.4-0.8c-0.1-0.1-0.3-0.3-0.5-0.4
			c-1.1-1-2.1-2.3-2.9-3.9c-1.4-3.4-2.1-7.1-2.1-10.9l0,0c0,0,0-0.1,0-0.2c-0.3-0.3-0.5-0.5-0.6-0.8l-0.1-0.1
			c-0.1,5.2,0.8,9.6,2.9,13.1c0.4,0.6,0.8,1.2,1.2,1.7c0.2,0.2,0.4,0.5,0.6,0.6s0.3,0.3,0.5,0.5c0.6,0.6,1.3,1.1,2,1.6
			c1.2,0.3,2.4,0.5,3.6,0.5L128.9,94.7z"/>
		<path class="st16" d="M122.4,92.6c0.1,0.1,0.3,0.1,0.5,0.1c-0.2-0.2-0.4-0.5-0.6-0.6c-0.3-0.1-0.5-0.2-0.7-0.3
			C121.4,92.1,121.8,92.4,122.4,92.6z"/>
		<path class="st2" d="M122.8,92.8c-0.1-0.1-0.3-0.1-0.5-0.1c-1.3-0.5-2.5-1.1-3.6-2c-0.6-0.5-1.2-1-1.6-1.7
			c0.1,0.2,0.1,0.4,0.1,0.6c0.5,0.7,1.1,1.4,1.9,1.9c1.4,0.9,2.7,1.6,4.1,1.9C123.1,93.1,123,92.9,122.8,92.8z"/>
		
			<linearGradient id="SVGID_8_" gradientUnits="userSpaceOnUse" x1="-4084.6658" y1="0.1819" x2="-3912.6155" y2="0.1819" gradientTransform="matrix(-4.370000e-02 -2.450000e-02 -0.489 0.8707 -54.9927 -7.725)">
			<stop  offset="0" style="stop-color:#5B5B5D"/>
			<stop  offset="0.1412" style="stop-color:#FFFFFF"/>
			<stop  offset="0.8941" style="stop-color:#A6A8AA"/>
			<stop  offset="1" style="stop-color:#FFFFFF"/>
		</linearGradient>
		<path class="st21" d="M122.4,92.6c-0.6-0.3-0.9-0.5-0.9-0.8c-1-0.5-1.9-1.1-2.8-1.9c-0.4-0.4-0.8-0.9-1.2-1.6
			c-0.1,0.1-0.2,0.3-0.1,0.6c0.5,0.7,1,1.3,1.6,1.7C119.9,91.5,121.1,92.2,122.4,92.6z"/>
		
			<linearGradient id="SVGID_9_" gradientUnits="userSpaceOnUse" x1="-344.7476" y1="730.1581" x2="-343.3089" y2="716.7797" gradientTransform="matrix(-1 0 0 1 -224.502 -639.621)">
			<stop  offset="5.098000e-02" style="stop-color:#F2959A"/>
			<stop  offset="0.7303" style="stop-color:#911917"/>
			<stop  offset="1" style="stop-color:#C1444B"/>
		</linearGradient>
		<path class="st22" d="M121.5,91.8c0.3,0.1,0.5,0.2,0.7,0.3c-0.5-0.6-0.8-1.2-1.2-1.7c-2-3.5-3-7.8-2.9-13.1l-0.6-0.5
			c-0.1,4.8,0.3,9.1,1.2,13.1C119.6,90.7,120.5,91.4,121.5,91.8z"/>
		
			<linearGradient id="SVGID_10_" gradientUnits="userSpaceOnUse" x1="3012.3398" y1="-191.6538" x2="3184.3896" y2="-191.6538" gradientTransform="matrix(4.260000e-02 1.750000e-02 1.200000e-02 -2.910000e-02 -8.631 32.3583)">
			<stop  offset="5.098000e-02" style="stop-color:#F2959A"/>
			<stop  offset="0.8941" style="stop-color:#911917"/>
			<stop  offset="1" style="stop-color:#EA506A"/>
		</linearGradient>
		<path class="st23" d="M125.3,94.8c-0.7-0.5-1.4-1-2-1.6c-1.4-0.3-2.7-1-4.1-1.9c-0.8-0.6-1.4-1.2-1.9-1.9c0.1,0.2,0.1,0.4,0.1,0.6
			c0.5,1.4,1.4,2.4,2.8,2.8C121.9,93.8,123.6,94.5,125.3,94.8z"/>
		
			<radialGradient id="SVGID_11_" cx="-10090.9033" cy="1393.2603" r="56.0675" gradientTransform="matrix(-1.820000e-02 0 2.000000e-04 0.1251 -67.4154 -91.1391)" gradientUnits="userSpaceOnUse">
			<stop  offset="5.098000e-02" style="stop-color:#F2959A"/>
			<stop  offset="1" style="stop-color:#911917"/>
		</radialGradient>
		<path class="st24" d="M117.2,88.8c-0.1-0.3,0-0.5,0.1-0.6c0.4,0.7,0.8,1.2,1.2,1.6c-0.8-3.9-1.2-8.3-1.2-13.1
			c-0.6,0.5-1,1-1.3,1.7l0,0c0,0.1,0,0.3-0.1,0.4c-0.3,2.8-0.2,5.2,0.3,7.1c0.1,0.5,0.3,1.1,0.5,1.7C117,87.9,117.1,88.3,117.2,88.8
			z"/>
		
			<linearGradient id="SVGID_12_" gradientUnits="userSpaceOnUse" x1="-1116.1355" y1="2780.4377" x2="-944.0856" y2="2780.4377" gradientTransform="matrix(-0.1281 0 0 8.320000e-02 -2.8533 -157.7824)">
			<stop  offset="0" style="stop-color:#5C5C5E"/>
			<stop  offset="0.2784" style="stop-color:#808183"/>
			<stop  offset="1" style="stop-color:#272626"/>
		</linearGradient>
		<path class="st25" d="M128.2,80.6c-0.1-0.2,0-0.3,0.2-0.5c0.5-0.3,0.9-0.5,1.2-0.8c-0.2,0-0.4,0-0.5,0H129c0,0,0,0-0.1,0
			c-2.8,0.1-5.4-0.4-8.1-1.4c-1.4-0.5-2.2-1.2-2.3-1.9c0-0.7,0.1-1.4,0.1-2.1l0,0c0.1-1.6,0.3-3,0.6-4.1c0.4-1.6,0.7-2.3,1.1-2.1
			c2.8,0.5,5.6,0.7,8.5,0.6c0,0,0,0,0.1,0c0,0,0,0,0.1,0l0,0c2.3,0.1,4.7-0.1,7-0.4c0.1-0.2,0.1-0.4,0.3-0.5c0,0,0.1-0.1,0.1-0.2
			c0.2-0.1,0.4-0.3,0.5-0.6c0-0.1,0-0.1,0.1-0.1c-2.6,0.4-5.2,0.6-7.8,0.6c0,0,0,0-0.1,0c0,0,0,0-0.1,0c-2.7,0.1-5.4-0.2-8.1-0.6
			c0,0,0,0-0.1,0s-0.3,0-0.4,0c-0.6,0-1,0.4-1.1,1.2v0.1c-0.5,2.4-1,5.2-1.4,8.3c0,0.4-0.1,0.8-0.1,1.2c0,0.1,0.1,0.3,0.1,0.4
			c0.1,0.3,0.3,0.5,0.6,0.8C121.8,79.8,124.9,80.6,128.2,80.6z"/>
		
			<linearGradient id="SVGID_13_" gradientUnits="userSpaceOnUse" x1="-1116.1359" y1="2779.4155" x2="-944.0856" y2="2779.4155" gradientTransform="matrix(-0.1281 0 0 8.320000e-02 -2.8533 -157.7824)">
			<stop  offset="0" style="stop-color:#272626"/>
			<stop  offset="0.4667" style="stop-color:#808183"/>
			<stop  offset="0.7725" style="stop-color:#5C5C5E"/>
		</linearGradient>
		<path class="st26" d="M128.4,80.2c-0.2,0.1-0.3,0.3-0.2,0.5h0.1c0.3,0,0.5,0,0.8,0c0,0,0,0,0.1,0c0,0,0,0,0.1,0
			c3.6,0.2,7.1-0.6,10.3-2.5c0.4-0.3,0.6-0.7,0.7-1.2c0-0.4,0-0.8-0.1-1.2c-0.4-3.1-0.8-5.9-1.4-8.3v-0.1c-0.1-0.8-0.5-1.1-1.1-1.2
			c-0.1,0-0.3,0-0.4,0c0,0,0,0-0.1,0s-0.2,0-0.3,0.1c0,0.1,0,0.1-0.1,0.1c-0.1,0.3-0.3,0.5-0.5,0.6c0,0.1,0,0.1-0.1,0.2
			c-0.1,0.2-0.3,0.3-0.3,0.5c0.5-0.1,1-0.1,1.5-0.3c0.4-0.1,0.7,0.6,1.1,2.1c0.3,1,0.5,2.3,0.6,3.8l0,0c0.1,0.7,0.1,1.6,0.2,2.4
			c-0.1,0.8-0.8,1.4-2.3,1.9c-2.5,0.9-4.9,1.4-7.5,1.4C129.3,79.6,128.9,80,128.4,80.2z"/>
		
			<linearGradient id="SVGID_14_" gradientUnits="userSpaceOnUse" x1="-366.5503" y1="720.8506" x2="-342.7027" y2="727.7188" gradientTransform="matrix(-1 0 0 1 -224.502 -639.621)">
			<stop  offset="0" style="stop-color:#F4A198"/>
			<stop  offset="0.4213" style="stop-color:#BD3F44"/>
			<stop  offset="1" style="stop-color:#EC867F"/>
		</linearGradient>
		<path class="st27" d="M120.9,89.2c0.8,1.7,1.8,3,2.9,3.9c1.8,0.5,3.6,0.7,5.3,0.6c0,0,0,0,0.1,0c0,0,0,0,0.1,0c0.4,0,0.7,0,1.1,0
			c1.4,0,2.8-0.3,4.2-0.6c1.1-1,2.1-2.3,2.9-3.9c1.4-3.4,2.1-7,2.1-10.6c0-0.1,0-0.3,0-0.4c-3.2,1.8-6.7,2.7-10.3,2.5c0,0,0,0-0.1,0
			c0,0,0,0-0.1,0c-0.3,0-0.5,0-0.8,0h-0.1c-3.3,0-6.4-0.8-9.4-2.5c0,0.1,0,0.2,0,0.2l0,0C118.8,82.1,119.6,85.7,120.9,89.2z"/>
		
			<linearGradient id="SVGID_15_" gradientUnits="userSpaceOnUse" x1="-342.5686" y1="714.921" x2="-340.8883" y2="714.921" gradientTransform="matrix(-1 0 0 1 -224.502 -639.621)">
			<stop  offset="5.098000e-02" style="stop-color:#F2959A"/>
			<stop  offset="1" style="stop-color:#911917"/>
		</linearGradient>
		<path class="st28" d="M116.3,76.2c0,0.5,0,1-0.1,1.6l1.2-1.1c0-0.5,0-0.9,0-1.4l-0.1-2.1l-0.4-0.1l-0.7-0.3L116.3,76.2z"/>
		<path class="st29" d="M116.3,77.7c0,0.3-0.1,0.5-0.1,0.8c0.3-0.6,0.7-1.2,1.3-1.7c0-0.1,0-0.1,0-0.1L116.3,77.7z"/>
		<path class="st30" d="M118.2,77.4c-0.1-0.1-0.1-0.3-0.1-0.4C118.1,77.1,118.1,77.2,118.2,77.4L118.2,77.4z"/>
		
			<linearGradient id="SVGID_16_" gradientUnits="userSpaceOnUse" x1="-6112.7646" y1="1581.7292" x2="-5940.7148" y2="1581.7292" gradientTransform="matrix(-2.890000e-02 0 0 0.2411 -54.8886 -324.8549)">
			<stop  offset="0" style="stop-color:#911917"/>
			<stop  offset="0.6039" style="stop-color:#ED6A6F"/>
			<stop  offset="1" style="stop-color:#A41B25"/>
		</linearGradient>
		<path class="st31" d="M118.1,77.3c0-0.1,0-0.2,0-0.3c0-0.4,0-0.8,0.1-1.2c0.4-3.1,0.8-5.9,1.4-8.3v-0.1c0.1-0.8,0.5-1.1,1.1-1.2
			c0.5-6.8,0.5-14.1,0.2-21.9c-1.2-1.2-1.6-3.6-1.2-7.4c-0.3-0.1-0.5-0.6-0.5-1.2c-1.1,2.3-1.7,5.4-1.7,9.1c0.4-0.3,0.8,0,1.2,0.7
			c0.1,0.3,0.2,0.6,0.3,0.9l0.1,0.3c0.6,2.3,1,5.4,0.8,9.1v0.1c0,0.3,0,0.5,0,0.7c0,0.1,0,0.1,0,0.2c0,0.2,0,0.4,0,0.5
			c-0.1,3.2-0.3,6.2-0.6,8.9l-0.8,4.9l-0.6,3.9c0,0.5,0,0.9,0,1.4c0,0.1,0,0.1,0,0.1L118.1,77.3z"/>
		<path class="st32" d="M117,73l0.4,0.1l0.1,2.1l0.6-3.9l-0.7,0.6V59.5v-0.7v-0.3v-1.2V45c0.3-0.1,0.6,0.1,0.9,0.6
			c0.1,0.3,0.3,0.5,0.4,0.9c-0.1-0.3-0.2-0.6-0.3-0.9c-0.3-0.7-0.7-1-1.2-0.7v0.3v13.5v0.1V72c-0.1-0.5-0.5-0.8-1-1l-1.6-0.6
			c-0.2-0.1-0.3,0-0.4,0.2l2.1,0.8c0.5,0.3,0.8,0.6,0.9,1l0.4,0.1l-0.1,0.5H117L117,73z"/>
		
			<radialGradient id="SVGID_17_" cx="9272.0215" cy="9730.5586" r="86.0249" gradientTransform="matrix(-6.100000e-03 1.150000e-02 2.600000e-02 1.380000e-02 -80.7682 -169.4946)" gradientUnits="userSpaceOnUse">
			<stop  offset="0" style="stop-color:#F2959A"/>
			<stop  offset="1" style="stop-color:#A11C19"/>
		</radialGradient>
		<path class="st33" d="M117.7,72.5l-0.4-0.1c-0.1-0.4-0.4-0.8-0.9-1l-2.1-0.8c0,0,0,0,0,0.1c-0.1,0.7,0.2,1.3,1,1.7l1,0.4l0.7,0.3
			l0.2-0.1l0.5,0.1L117.7,72.5z"/>
		<path class="st34" d="M118.9,73.8L118.9,73.8L118.9,73.8L118.9,73.8z"/>
		
			<linearGradient id="SVGID_18_" gradientUnits="userSpaceOnUse" x1="-13063.4199" y1="91.6209" x2="-12891.3701" y2="91.6209" gradientTransform="matrix(-1.340000e-02 0 0 1 -55.341 -26.8209)">
			<stop  offset="0" style="stop-color:#808183"/>
			<stop  offset="1" style="stop-color:#5B5B5D"/>
		</linearGradient>
		<path class="st35" d="M117.4,72l0.7-0.6l0.8-4.9c0.3-2.7,0.5-5.6,0.6-8.9c-0.1,0-0.1,0.1-0.1,0.1l0,0c-0.8,0.6-1.5,1.2-1.9,1.8
			h-0.1V72z"/>
		
			<linearGradient id="SVGID_19_" gradientUnits="userSpaceOnUse" x1="-342.5686" y1="705.071" x2="-340.8883" y2="705.071" gradientTransform="matrix(-1 0 0 1 -224.502 -639.621)">
			<stop  offset="5.098000e-02" style="stop-color:#F2959A"/>
			<stop  offset="1" style="stop-color:#911917"/>
		</linearGradient>
		<path class="st36" d="M116.2,71c0.6,0.3,1,0.6,1,1V58.9c-0.5,0.1-0.8,0.3-1,0.6v0.2v3.8V71z"/>
		
			<linearGradient id="SVGID_20_" gradientUnits="userSpaceOnUse" x1="12771.0186" y1="-17682.0273" x2="12943.0684" y2="-17682.0273" gradientTransform="matrix(1.270000e-02 0 0 -2.050000e-02 -44.7635 -304.1816)">
			<stop  offset="5.098000e-02" style="stop-color:#F2959A"/>
			<stop  offset="0.2392" style="stop-color:#AF191A"/>
			<stop  offset="1" style="stop-color:#ED6A6B"/>
		</linearGradient>
		<path class="st37" d="M117.4,58.8v0.7h0.1c0.5-0.6,1.2-1.2,1.9-1.8l0,0v-0.6C118.6,57.5,118,58.1,117.4,58.8z"/>
		<path class="st2" d="M116.2,63.5v-3.8c-0.3,0.3-0.4,1-0.3,2.1C115.9,62.8,116.1,63.3,116.2,63.5z"/>
		<path class="st30" d="M116.2,59.2v0.2c0.3-0.3,0.6-0.5,1-0.6v-0.2C116.8,58.8,116.4,59,116.2,59.2z"/>
		<path class="st32" d="M121,66.3L121,66.3c0.1-0.1,0.1-0.1,0.1-0.2c0.4-6.9,0.5-14,0.3-21.5c-0.1,0-0.1,0-0.2,0
			c-0.1-0.1-0.3-0.1-0.4-0.2c0.3,7.8,0.3,15.1-0.2,21.9C120.7,66.3,120.8,66.3,121,66.3z"/>
		
			<linearGradient id="SVGID_21_" gradientUnits="userSpaceOnUse" x1="12771.0186" y1="-17630.8066" x2="12943.0684" y2="-17630.8066" gradientTransform="matrix(1.270000e-02 0 0 -2.050000e-02 -44.7635 -304.1816)">
			<stop  offset="5.098000e-02" style="stop-color:#F2959A"/>
			<stop  offset="0.2392" style="stop-color:#AF191A"/>
			<stop  offset="1" style="stop-color:#ED6A6B"/>
		</linearGradient>
		<path class="st38" d="M117.4,57.3v1.2c0.6-0.6,1.3-1.2,2.1-1.6V56C118.7,56.2,118.1,56.7,117.4,57.3z"/>
		<path class="st30" d="M119.5,57.1v0.6l0.1-0.1C119.6,57.4,119.6,57.2,119.5,57.1c0.1-0.1,0.1-0.1,0.1-0.2c0-0.3,0-0.5,0-0.7v-0.1
			c-0.1,0-0.1,0-0.1,0.1V57.1c-0.8,0.3-1.4,0.9-2.1,1.6V59C118,58.1,118.6,57.5,119.5,57.1z"/>
		
			<linearGradient id="SVGID_22_" gradientUnits="userSpaceOnUse" x1="-13063.4199" y1="78.0209" x2="-12891.3701" y2="78.0209" gradientTransform="matrix(-1.340000e-02 0 0 1 -55.341 -26.8209)">
			<stop  offset="0" style="stop-color:#808183"/>
			<stop  offset="1" style="stop-color:#5B5B5D"/>
		</linearGradient>
		<path class="st39" d="M119.5,56C119.6,56,119.6,56,119.5,56c0.2-3.9,0-6.9-0.7-9.2l-0.1-0.3c-0.1-0.4-0.3-0.6-0.4-0.9
			c-0.3-0.5-0.6-0.6-0.9-0.6v12.4C118.1,56.7,118.7,56.2,119.5,56z"/>
		
			<linearGradient id="SVGID_23_" gradientUnits="userSpaceOnUse" x1="-342.5686" y1="691.821" x2="-340.8883" y2="691.821" gradientTransform="matrix(-1 0 0 1 -224.502 -639.621)">
			<stop  offset="5.098000e-02" style="stop-color:#F2959A"/>
			<stop  offset="1" style="stop-color:#911917"/>
		</linearGradient>
		<path class="st40" d="M116.2,59.2c0.2-0.2,0.6-0.4,1-0.6V45.2c-0.5,0.2-0.8,0.6-1.2,1c0,0.2,0,0.4,0,0.6c0,0.4,0.1,0.7,0.1,1
			L116.2,59.2L116.2,59.2z"/>
		
			<radialGradient id="SVGID_24_" cx="568.9518" cy="1842.8672" r="196.456" gradientTransform="matrix(-1.370000e-02 -1.400000e-03 -1.010000e-02 0.1004 165.8864 -99.8915)" gradientUnits="userSpaceOnUse">
			<stop  offset="5.098000e-02" style="stop-color:#F2959A"/>
			<stop  offset="1" style="stop-color:#911917"/>
		</radialGradient>
		<path class="st41" d="M140.9,88.2c0.1,0.1,0.2,0.3,0.1,0.6c0.1-0.5,0.3-0.9,0.4-1.2c0.2-0.6,0.4-1.1,0.5-1.7
			c0.5-1.9,0.5-4.3,0.3-7.1c0-0.2-0.1-0.5-0.1-0.7l-1.2-1.6c0.1,4.9-0.3,9.3-1.2,13.3C140.1,89.5,140.4,89,140.9,88.2z"/>
		<path class="st29" d="M142.1,78.2c0-0.1,0-0.3,0-0.4l-1.2-1.5c0,0.1,0,0.1,0,0.3L142.1,78.2z"/>
		
			<linearGradient id="SVGID_25_" gradientUnits="userSpaceOnUse" x1="-571.785" y1="1584.6154" x2="-399.7367" y2="1584.6154" gradientTransform="matrix(-3.090000e-02 0 0 0.239 123.0472 -321.773)">
			<stop  offset="0" style="stop-color:#911917"/>
			<stop  offset="0.6039" style="stop-color:#F2959A"/>
			<stop  offset="1" style="stop-color:#A41B25"/>
		</linearGradient>
		<path class="st42" d="M140.1,77c0,0.2,0,0.3,0,0.5l0.6-1c0-0.1,0-0.1,0-0.3c0-0.3,0-0.6,0-1l-0.6-3.9l-0.8-4.9
			c-0.3-2.7-0.5-5.6-0.6-8.9c0-0.2,0-0.4,0-0.6c0-0.1,0-0.2,0-0.3c0-0.2,0-0.4,0-0.6v-0.1c-0.1-3.8,0.1-6.8,0.8-9.1l0.1-0.3
			c0.1-0.3,0.2-0.6,0.3-0.9c0.3-0.7,0.7-1,1.2-0.7c-0.3-3.9-0.8-6.7-1.8-8.5c-0.1,0.3-0.3,0.5-0.5,0.6c0.3,3.8-0.1,6.3-1.2,7.4
			c-0.3,7.8-0.3,15.1,0.2,21.9c0.6,0,1,0.4,1.1,1.2v0.1c0.5,2.4,1,5.2,1.4,8.3C140.1,76.2,140.1,76.6,140.1,77z"/>
		
			<linearGradient id="SVGID_26_" gradientUnits="userSpaceOnUse" x1="-366.721" y1="714.921" x2="-365.5659" y2="714.921" gradientTransform="matrix(-1 0 0 1 -224.502 -639.621)">
			<stop  offset="5.098000e-02" style="stop-color:#F2959A"/>
			<stop  offset="1" style="stop-color:#911917"/>
		</linearGradient>
		<path class="st43" d="M140.8,75.3c0,0.3,0,0.6,0,1l1.2,1.5c0-0.5-0.1-1-0.1-1.6l0.1-3.4l-0.8,0.3l-0.4,0.1V75.3z"/>
		
			<radialGradient id="SVGID_27_" cx="-18436.7832" cy="6927.7954" r="86.0247" gradientTransform="matrix(-5.300000e-03 -9.200000e-03 -1.920000e-02 1.110000e-02 177.9193 -174.7557)" gradientUnits="userSpaceOnUse">
			<stop  offset="0" style="stop-color:#F2959A"/>
			<stop  offset="1" style="stop-color:#A11C19"/>
		</radialGradient>
		<path class="st44" d="M143,72.3c0.8-0.4,1.1-1,1-1.7v-0.1l-2.1,0.8c-0.5,0.3-0.8,0.6-0.9,1l-0.4,0.1l0.1,0.5l0.5-0.1l0.2,0.1
			l0.8-0.3L143,72.3z"/>
		<path class="st32" d="M143.9,70.6c-0.1-0.2-0.2-0.3-0.4-0.2l-1.6,0.6c-0.6,0.3-1,0.6-1,1V58.7v-0.2V45.1v-0.2
			c-0.4-0.3-0.8,0-1.2,0.7c-0.1,0.3-0.2,0.6-0.3,0.9c0.1-0.4,0.3-0.6,0.4-0.9c0.3-0.5,0.6-0.6,0.9-0.6v12.4v1v0.3v0.9v12.5l-0.7-0.6
			l0.6,3.9l0.1-2.1l0.4-0.1l-0.2-0.1l-0.5,0.1l-0.1-0.5l0.4-0.1c0.1-0.4,0.4-0.8,0.9-1L143.9,70.6z"/>
		
			<linearGradient id="SVGID_28_" gradientUnits="userSpaceOnUse" x1="-377.7744" y1="713.1106" x2="-343.9344" y2="713.1106" gradientTransform="matrix(-1 0 0 1 -224.502 -639.621)">
			<stop  offset="0.2784" style="stop-color:#A6A8AA"/>
			<stop  offset="1" style="stop-color:#565658"/>
		</linearGradient>
		<path class="st45" d="M118.8,76c0.1,0.8,0.8,1.4,2.3,1.9c2.6,1,5.3,1.5,8.1,1.4c0,0,0,0,0.1,0h0.1c0.2,0,0.4,0,0.5,0
			c2.6,0,5.1-0.5,7.5-1.4c1.4-0.5,2.2-1.2,2.3-1.9c-0.1-0.8-0.1-1.6-0.2-2.4l0,0c-0.1-1.5-0.3-2.7-0.6-3.8c-0.4-1.6-0.7-2.3-1.1-2.1
			c-0.5,0.1-1,0.2-1.5,0.3c-2.3,0.3-4.6,0.5-7,0.4c0,0,0,0-0.1,0c0,0,0,0-0.1,0c-2.8,0.1-5.7-0.1-8.5-0.6c-0.4-0.1-0.7,0.6-1.1,2.1
			c-0.3,1.1-0.5,2.5-0.6,4.1h0.1h-0.1C118.8,74.5,118.8,75.2,118.8,76z"/>
		
			<linearGradient id="SVGID_29_" gradientUnits="userSpaceOnUse" x1="610.5129" y1="105.971" x2="782.5637" y2="105.971" gradientTransform="matrix(-1.290000e-02 0 0 1 148.9749 -41.171)">
			<stop  offset="0" style="stop-color:#808183"/>
			<stop  offset="1" style="stop-color:#5B5B5D"/>
		</linearGradient>
		<path class="st46" d="M140.1,71.4l0.7,0.6V59.5h-0.1c-0.5-0.6-1.2-1.2-1.9-1.8l0,0l-0.1-0.1c0.1,3.2,0.3,6.2,0.6,8.9L140.1,71.4z"
			/>
		
			<linearGradient id="SVGID_30_" gradientUnits="userSpaceOnUse" x1="-366.721" y1="705.0209" x2="-365.5659" y2="705.0209" gradientTransform="matrix(-1 0 0 1 -224.502 -639.621)">
			<stop  offset="5.098000e-02" style="stop-color:#F2959A"/>
			<stop  offset="1" style="stop-color:#911917"/>
		</linearGradient>
		<path class="st47" d="M141,72.1c0.1-0.5,0.5-0.8,1-1v-7.6v-3.8v-0.5c-0.3-0.3-0.7-0.5-1-0.5V72.1z"/>
		<path class="st32" d="M137.3,66.3c0.1,0,0.3,0,0.4,0c-0.5-6.8-0.5-14.1-0.2-21.9c-0.2,0.1-0.4,0.2-0.6,0.3c0,0.2,0,0.4,0,0.6
			c-0.1,7.1,0,13.8,0.3,20.4C137.2,65.9,137.2,66.1,137.3,66.3L137.3,66.3z"/>
		<path class="st2" d="M142.1,59.7v3.8c0.1-0.1,0.3-0.7,0.3-1.7C142.4,60.7,142.3,60,142.1,59.7z"/>
		
			<linearGradient id="SVGID_31_" gradientUnits="userSpaceOnUse" x1="-365.448" y1="697.871" x2="-363.263" y2="697.871" gradientTransform="matrix(-1 0 0 1 -224.502 -639.621)">
			<stop  offset="5.098000e-02" style="stop-color:#F2959A"/>
			<stop  offset="0.2392" style="stop-color:#AF191A"/>
			<stop  offset="1" style="stop-color:#ED6A6B"/>
		</linearGradient>
		<path class="st48" d="M140.8,59.5L140.8,59.5l0.1-0.9c-0.6-0.6-1.3-1.2-2.1-1.6v0.6l0,0C139.6,58.2,140.3,58.8,140.8,59.5z"/>
		<path class="st30" d="M141,58.7c0.4,0,0.7,0.1,1,0.5V59c-0.3-0.2-0.6-0.4-1-0.5V58.7z"/>
		<path class="st30" d="M138.6,56.9c0,0.2,0,0.4,0,0.6c0.1,0,0.1,0.1,0.1,0.1V57c0.7,0.4,1.4,0.9,2.1,1.6v-0.3
			c-0.6-0.6-1.3-1.2-2.1-1.6v-0.8c-0.1,0-0.1,0-0.1-0.1v0.1c0,0.2,0,0.4,0,0.6C138.6,56.7,138.6,56.9,138.6,56.9z"/>
		
			<linearGradient id="SVGID_32_" gradientUnits="userSpaceOnUse" x1="-1457.2191" y1="-17621.0117" x2="-1285.1693" y2="-17621.0117" gradientTransform="matrix(1.270000e-02 0 0 -2.050000e-02 157.1369 -304.1308)">
			<stop  offset="5.098000e-02" style="stop-color:#F2959A"/>
			<stop  offset="0.2392" style="stop-color:#AF191A"/>
			<stop  offset="1" style="stop-color:#ED6A6B"/>
		</linearGradient>
		<path class="st49" d="M140.8,58.3v-1c-0.6-0.6-1.3-1.1-2.1-1.4v0.8C139.5,57.2,140.2,57.7,140.8,58.3z"/>
		
			<linearGradient id="SVGID_33_" gradientUnits="userSpaceOnUse" x1="610.5129" y1="92.3585" x2="782.5256" y2="92.3585" gradientTransform="matrix(-1.290000e-02 0 0 1 148.9749 -41.171)">
			<stop  offset="0" style="stop-color:#808183"/>
			<stop  offset="1" style="stop-color:#5B5B5D"/>
		</linearGradient>
		<path class="st50" d="M138.6,55.9c0.1,0,0.1,0,0.1,0.1c0.8,0.3,1.4,0.7,2.1,1.4V45c-0.3-0.1-0.6,0.1-0.9,0.6
			c-0.1,0.3-0.3,0.5-0.4,0.9l-0.1,0.3C138.8,49.2,138.5,52.2,138.6,55.9z"/>
		
			<linearGradient id="SVGID_34_" gradientUnits="userSpaceOnUse" x1="-366.721" y1="691.571" x2="-365.5659" y2="691.571" gradientTransform="matrix(-1 0 0 1 -224.502 -639.621)">
			<stop  offset="5.098000e-02" style="stop-color:#F2959A"/>
			<stop  offset="1" style="stop-color:#911917"/>
		</linearGradient>
		<path class="st51" d="M141,58.4c0.4,0.1,0.7,0.3,1,0.5V47.8c0.1-0.3,0.1-0.6,0.1-1c0-0.1,0-0.3,0-0.4c-0.3-0.7-0.7-1.2-1.2-1.4
			L141,58.4L141,58.4z"/>
		
			<linearGradient id="SVGID_35_" gradientUnits="userSpaceOnUse" x1="7920.5664" y1="-3816.6584" x2="8092.6162" y2="-3816.6584" gradientTransform="matrix(2.800000e-02 4.550000e-02 4.490000e-02 -2.760000e-02 78.1315 -426.9227)">
			<stop  offset="0" style="stop-color:#808183"/>
			<stop  offset="1" style="stop-color:#272626"/>
		</linearGradient>
		<path class="st52" d="M136.9,44.7c0.2,0,0.4-0.1,0.6-0.3c1.2-1.2,1.6-3.6,1.2-7.4c-0.1-0.3-0.3-0.5-0.5-0.7
			c-0.2-0.3-0.5-0.5-0.7-0.7c-1,0.1-1.6,0.3-1.7,0.3c1.2,0.4,1.8,1,1.9,1.7c0.3,1.6,0.3,3.1,0,4.5s-0.8,2-1.6,1.7
			c-2.3-0.5-4.7-0.7-7.1-0.6c0,0,0,0-0.1,0c0,0,0,0-0.1,0c-2.3-0.1-4.7,0.1-7,0.6h-0.1h-0.1l-0.8,0.8c0.1,0,0.1,0,0.2,0
			c2.5-0.5,5-0.8,7.7-0.7h0.1C131.8,43.9,134.4,44.1,136.9,44.7z"/>
		
			<radialGradient id="SVGID_36_" cx="-356.2564" cy="698.0602" r="15.1327" gradientTransform="matrix(-1 0 0 1 -224.502 -639.621)" gradientUnits="userSpaceOnUse">
			<stop  offset="0" style="stop-color:#F2958E"/>
			<stop  offset="0.9373" style="stop-color:#93191A"/>
		</radialGradient>
		<path class="st53" d="M129.1,67L129.1,67L129.1,67c2.7,0,5.3-0.1,7.8-0.6c0.1,0,0.2-0.1,0.3-0.1l0,0c0-0.2,0-0.4,0-0.6
			c-0.4-6.6-0.5-13.5-0.3-20.4c0-0.2,0-0.4,0-0.6c-2.5-0.5-5-0.8-7.7-0.7h-0.1c-2.7-0.1-5.2,0.2-7.7,0.7c0.2,7.4,0.1,14.6-0.3,21.5
			c0,0.1,0,0.1,0,0.2l0,0C123.7,66.8,126.3,67,129.1,67z"/>
		
			<radialGradient id="SVGID_37_" cx="-966.3456" cy="4245.312" r="86.025" gradientTransform="matrix(-0.1167 0 0 0.1167 18.023 -452.863)" gradientUnits="userSpaceOnUse">
			<stop  offset="0" style="stop-color:#808183"/>
			<stop  offset="1" style="stop-color:#5B5B5D"/>
		</radialGradient>
		<path class="st54" d="M136.2,43.9c0.8,0.3,1.3-0.3,1.6-1.7s0.3-2.9,0-4.5c-0.1-0.7-0.8-1.3-1.9-1.7c-6.2,1.4-10.8,4-13.6,8
			c2.3-0.5,4.7-0.7,7-0.6c0,0,0,0,0.1,0c0,0,0,0,0.1,0C131.5,43.1,133.8,43.4,136.2,43.9z"/>
		<path class="st30" d="M142.1,46.5c0-0.1,0-0.1,0-0.2c-0.3-0.7-0.7-1.2-1.2-1.4v0.2C141.4,45.3,141.8,45.8,142.1,46.5z"/>
		
			<linearGradient id="SVGID_38_" gradientUnits="userSpaceOnUse" x1="-366.7214" y1="681.121" x2="-365.5663" y2="681.121" gradientTransform="matrix(-1 0 0 1 -224.502 -639.621)">
			<stop  offset="5.098000e-02" style="stop-color:#F2959A"/>
			<stop  offset="1" style="stop-color:#911917"/>
		</linearGradient>
		<path class="st55" d="M141,44.8c0.5,0.3,0.8,0.7,1.2,1.4c0.1-3.2-0.2-6.4-0.6-9.4C141.7,39.7,141.6,42.3,141,44.8z"/>
		
			<radialGradient id="SVGID_39_" cx="4711.4175" cy="4309.8027" r="86.025" gradientTransform="matrix(-2.870000e-02 7.700000e-03 3.270000e-02 0.1219 133.4698 -527.2021)" gradientUnits="userSpaceOnUse">
			<stop  offset="5.098000e-02" style="stop-color:#F2959A"/>
			<stop  offset="1" style="stop-color:#911917"/>
		</radialGradient>
		<path class="st56" d="M139.3,35.8c0,0.2-0.1,0.4-0.1,0.6c1,1.8,1.6,4.7,1.8,8.5c0.6-2.5,0.8-5.2,0.5-8.1c0-0.2-0.1-0.4-0.1-0.6
			c-0.1-0.9-0.3-1.8-0.5-2.7l0,0v-0.1l0,0c-0.3-1.7-1-3-2.1-3.8l0,0c0.2,1,0.3,2.3,0.4,3.6C139.2,34,139.2,34.9,139.3,35.8z"/>
		<path class="st30" d="M139.2,36.4c0.1-0.2,0.1-0.4,0.1-0.6c0-0.9-0.1-1.8-0.1-2.6c-0.9-1.8-1.7-2.8-2.5-3
			c-0.6-0.2-1.1-0.3-1.7-0.5c-0.6-0.2-1.3-0.3-1.9-0.5c4.2,1,6.2,3.2,6,6.4c0,0.5-0.3,0.7-0.6,0.6c0.2,0.2,0.3,0.5,0.5,0.7
			C138.9,36.9,139.1,36.7,139.2,36.4z"/>
		
			<linearGradient id="SVGID_40_" gradientUnits="userSpaceOnUse" x1="-1188.1757" y1="12211.3271" x2="-1016.1256" y2="12211.3271" gradientTransform="matrix(-0.116 0 0 4.710000e-02 1.1252 -542.5438)">
			<stop  offset="0" style="stop-color:#EA4E52"/>
			<stop  offset="0.8863" style="stop-color:#911917"/>
			<stop  offset="1" style="stop-color:#F2959A"/>
		</linearGradient>
		<path class="st57" d="M138.3,36.3c0.4,0.1,0.6-0.2,0.6-0.6c0.3-3.2-1.7-5.4-6-6.4c-1.3-0.3-2.5-0.4-3.8-0.4H129
			c-1.9,0-3.9,0.3-6,0.8h-0.1l0,0c-0.5,0.1-0.8,0.3-1.3,0.4c-0.8,0.2-1.6,1.2-2.5,3l0,0c0,0.1,0,0.1,0,0.1c0,0.3,0,0.6-0.1,0.8
			c0,0,0,0,0,0.1c0.1,1,0.3,1.4,0.7,1.2c1-1,2.3-1.7,3.9-2.1c3.4-0.9,6.9-1,10.3-0.2c1.4,0.3,2.5,1,3,2.1c0.2,0.1,0.5,0.3,0.6,0.4
			C137.9,35.8,138.1,36,138.3,36.3z"/>
		<path class="st58" d="M140.9,33.4L140.9,33.4c0.1-1.2-0.1-2-0.4-2.5c-0.3-0.5-0.8-0.9-1.7-1.4C139.9,30.4,140.6,31.7,140.9,33.4z"
			/>
		
			<linearGradient id="SVGID_41_" gradientUnits="userSpaceOnUse" x1="-1175.9108" y1="15726.1836" x2="-1003.8605" y2="15726.1836" gradientTransform="matrix(-0.1165 0 0 3.820000e-02 2.1594 -570.8402)">
			<stop  offset="5.098000e-02" style="stop-color:#F2959A"/>
			<stop  offset="0.2392" style="stop-color:#B31D1A"/>
			<stop  offset="0.9438" style="stop-color:#F2959A"/>
			<stop  offset="1" style="stop-color:#E6696D"/>
		</linearGradient>
		<path class="st59" d="M138.8,29.6c0-0.1,0-0.1,0-0.2c-0.3-0.7-0.7-1.2-1.4-1.4c-2.7-0.9-5.4-1.4-8.2-1.4l0,0h-0.1c0,0,0,0-0.1,0
			c-1,0-1.9,0.1-2.8,0.2c3.8-0.1,6.5,0.1,8.1,0.9c0.6,0.3,0.8,1,0.6,2c0.6,0.1,1.1,0.3,1.7,0.5c0.8,0.2,1.6,1.2,2.5,3
			C139.1,31.8,139,30.6,138.8,29.6z"/>
		
			<linearGradient id="SVGID_42_" gradientUnits="userSpaceOnUse" x1="11969.6846" y1="-2357.4902" x2="12141.7354" y2="-2357.4902" gradientTransform="matrix(1.910000e-02 3.750000e-02 5.680000e-02 -2.900000e-02 30.8736 -483.7751)">
			<stop  offset="0" style="stop-color:#272626"/>
			<stop  offset="1" style="stop-color:#5B5B5D"/>
		</linearGradient>
		<path class="st60" d="M135.8,35.9c0.3-0.1,0.8-0.1,1.7-0.3c-0.2-0.1-0.4-0.3-0.6-0.4c-1.6-0.9-4.2-1.4-7.8-1.6H129c0,0,0,0-0.1,0
			c-5.4,0.1-8.5,1.2-9.6,3.4c-0.3,3.8,0.1,6.3,1.2,7.4c0.1,0.1,0.3,0.2,0.4,0.2l0.8-0.8c-0.7,0.2-1.2-0.4-1.5-1.7
			c-0.3-1.4-0.3-2.9,0-4.5s3.2-2.5,8.6-2.6c0,0,0,0,0.1,0c0,0,0,0,0.1,0l0,0C132.2,35.1,134.4,35.4,135.8,35.9z"/>
		
			<linearGradient id="SVGID_43_" gradientUnits="userSpaceOnUse" x1="-1188.3118" y1="12255.2568" x2="-1016.2616" y2="12255.2568" gradientTransform="matrix(-0.116 0 0 4.710000e-02 1.1252 -542.5438)">
			<stop  offset="0" style="stop-color:#EA555A"/>
			<stop  offset="1" style="stop-color:#911917"/>
		</linearGradient>
		<path class="st61" d="M137,35.1c-0.6-1.2-1.6-1.9-3-2.1c-3.4-0.8-6.9-0.7-10.3,0.2c-1.6,0.5-2.9,1.2-3.9,2.1
			c-0.3,0.2-0.6-0.2-0.7-1.2c0,0.5,0,1-0.1,1.6c0.1,0.6,0.3,1,0.5,1.2c1-2.1,4.1-3.2,9.6-3.4c0,0,0,0,0.1,0h0.1
			C132.7,33.7,135.3,34.2,137,35.1z"/>
		
			<linearGradient id="SVGID_44_" gradientUnits="userSpaceOnUse" x1="-1175.8239" y1="15680.0605" x2="-1003.774" y2="15680.0605" gradientTransform="matrix(-0.1165 0 0 3.820000e-02 2.1594 -570.8402)">
			<stop  offset="5.098000e-02" style="stop-color:#E6A890"/>
			<stop  offset="0.2" style="stop-color:#911917"/>
			<stop  offset="0.7725" style="stop-color:#911917"/>
			<stop  offset="0.949" style="stop-color:#E6A890"/>
			<stop  offset="1" style="stop-color:#C68B73"/>
		</linearGradient>
		<path class="st62" d="M134.9,29.6c0.2-1,0-1.6-0.6-2c-1.6-0.8-4.3-1-8.1-0.9c-1.4,0.2-2.8,0.5-4.1,0.8c1-0.2,1.7-0.2,2.3,0
			c0.2,0.5,0.2,1,0,1.5c-0.3,0.3-0.8,0.5-1.3,0.6c2-0.6,4-0.8,6-0.8h0.1c1.2,0,2.5,0.1,3.8,0.4C133.7,29.4,134.3,29.5,134.9,29.6z"
			/>
		<path class="st30" d="M116.1,45.9c0,0.1,0,0.2,0,0.3c0.3-0.5,0.7-0.8,1.2-1v-0.4C116.8,45.1,116.4,45.5,116.1,45.9z"/>
		
			<radialGradient id="SVGID_45_" cx="-14410.7441" cy="4649.5259" r="182.1916" gradientTransform="matrix(-1.860000e-02 -3.500000e-03 -1.930000e-02 0.1018 -59.1517 -482.6532)" gradientUnits="userSpaceOnUse">
			<stop  offset="0.118" style="stop-color:#F2959A"/>
			<stop  offset="0.9551" style="stop-color:#911917"/>
		</radialGradient>
		<path class="st63" d="M116.4,38.6C116.4,38.7,116.4,38.7,116.4,38.6c-0.3,2.4-0.4,4.8-0.4,7.3c0.3-0.5,0.7-0.8,1.2-1.1
			c0.1-3.7,0.6-6.7,1.7-9.1c0-0.5,0-1,0.1-1.6c0,0,0,0,0-0.1c0-0.3,0-0.6,0.1-0.8c0-0.1,0-0.1,0-0.1l0,0c0-1-0.1-1.6-0.4-1.7
			C118.4,31.3,117.7,33.7,116.4,38.6z"/>
		
			<radialGradient id="SVGID_46_" cx="-966.3456" cy="4245.312" r="86.0249" gradientTransform="matrix(-0.1167 0 0 0.1167 18.023 -452.863)" gradientUnits="userSpaceOnUse">
			<stop  offset="0.2392" style="stop-color:#808183"/>
			<stop  offset="1" style="stop-color:#5B5B5D"/>
		</radialGradient>
		<path class="st64" d="M122.1,43.9L122.1,43.9c3-4,7.5-6.6,13.7-8c-1.4-0.5-3.6-0.8-6.6-0.8l0,0c0,0,0,0-0.1,0c0,0,0,0-0.1,0
			c-5.4,0.1-8.3,1-8.6,2.6s-0.3,3.1,0,4.5s0.8,1.9,1.5,1.7C122,43.9,122,43.9,122.1,43.9z"/>
		
			<linearGradient id="SVGID_47_" gradientUnits="userSpaceOnUse" x1="-1050.042" y1="15737.3096" x2="-877.9922" y2="15737.3096" gradientTransform="matrix(-0.1282 0 0 3.820000e-02 6.5039 -570.8402)">
			<stop  offset="5.098000e-02" style="stop-color:#F2959A"/>
			<stop  offset="0.2549" style="stop-color:#911917"/>
			<stop  offset="0.7098" style="stop-color:#A41B25"/>
			<stop  offset="0.949" style="stop-color:#F2959A"/>
			<stop  offset="0.9944" style="stop-color:#EE767B"/>
		</linearGradient>
		<path class="st65" d="M124.4,27.6c-0.5-0.2-1.3-0.2-2.3,0c-0.4,0.1-0.8,0.3-1.2,0.4c-0.6,0.2-1,0.6-1.4,1.4c0,0.1,0,0.1,0,0.2
			c-0.2,1-0.3,2.3-0.4,3.6c0.9-1.8,1.7-2.8,2.5-3c0.5-0.1,0.9-0.3,1.3-0.4l0,0h0.1c0.5-0.1,1-0.4,1.3-0.6
			C124.6,28.6,124.6,28.2,124.4,27.6z"/>
		
			<radialGradient id="SVGID_48_" cx="-14606.8057" cy="4884.9673" r="83.8558" gradientTransform="matrix(-1.860000e-02 -3.500000e-03 -1.930000e-02 0.1018 -60.1517 -511.5033)" gradientUnits="userSpaceOnUse">
			<stop  offset="0.2824" style="stop-color:#EB5B5A"/>
			<stop  offset="1" style="stop-color:#911917"/>
		</radialGradient>
		<path class="st66" d="M117.4,33.5L117.4,33.5c-0.4,1.7-0.6,3.4-0.8,5.2c1.2-4.9,1.9-7.3,2.2-7.1c0.3,0.1,0.4,0.6,0.4,1.7
			c0.1-1.4,0.2-2.6,0.4-3.6C118.4,30.4,117.7,31.7,117.4,33.5L117.4,33.5L117.4,33.5z"/>
	</g>
	<g>
		
			<linearGradient id="SVGID_49_" gradientUnits="userSpaceOnUse" x1="-341.76" y1="704.421" x2="-344.6688" y2="704.421" gradientTransform="matrix(-1 0 0 1 -224.502 -639.621)">
			<stop  offset="0" style="stop-color:#272626"/>
			<stop  offset="1" style="stop-color:#808183"/>
		</linearGradient>
		<path class="st67" d="M117.4,72l0.7-0.6l0.8-4.9c0.3-2.7,0.5-5.6,0.6-8.9c-0.9,0.6-1.6,1.2-2.1,1.9l0,0V72z"/>
		
			<linearGradient id="SVGID_50_" gradientUnits="userSpaceOnUse" x1="-341.76" y1="690.7709" x2="-344.6688" y2="690.7709" gradientTransform="matrix(-1 0 0 1 -224.502 -639.621)">
			<stop  offset="0" style="stop-color:#272626"/>
			<stop  offset="1" style="stop-color:#808183"/>
		</linearGradient>
		<path class="st68" d="M117.4,57.3c0.6-0.7,1.4-1.2,2.2-1.4c0.1-3.8-0.1-6.8-0.8-9.1l-0.1-0.3c-0.1-0.4-0.3-0.6-0.4-0.9
			c-0.3-0.5-0.6-0.6-0.9-0.6L117.4,57.3L117.4,57.3z"/>
		
			<linearGradient id="SVGID_51_" gradientUnits="userSpaceOnUse" x1="-363.2207" y1="704.421" x2="-365.8109" y2="704.421" gradientTransform="matrix(-1 0 0 1 -224.502 -639.621)">
			<stop  offset="0" style="stop-color:#272626"/>
			<stop  offset="1" style="stop-color:#808183"/>
		</linearGradient>
		<path class="st69" d="M140.1,71.4l0.7,0.6V59.5h-0.1c-0.5-0.6-1.2-1.3-2.1-1.9c0.1,3.2,0.3,6.2,0.6,8.9L140.1,71.4z"/>
		
			<linearGradient id="SVGID_52_" gradientUnits="userSpaceOnUse" x1="-363.2207" y1="690.7585" x2="-365.8109" y2="690.7585" gradientTransform="matrix(-1 0 0 1 -224.502 -639.621)">
			<stop  offset="0" style="stop-color:#272626"/>
			<stop  offset="1" style="stop-color:#808183"/>
		</linearGradient>
		<path class="st70" d="M138.6,55.9c0.8,0.3,1.6,0.7,2.2,1.4V45c-0.3-0.1-0.6,0.1-0.9,0.6c-0.1,0.3-0.3,0.5-0.4,0.9l-0.1,0.3
			C138.8,49.2,138.5,52.2,138.6,55.9z"/>
		
			<linearGradient id="SVGID_53_" gradientUnits="userSpaceOnUse" x1="-361.6076" y1="685.1747" x2="-341.7955" y2="671.5931" gradientTransform="matrix(-1 0 0 1 -224.502 -639.621)">
			<stop  offset="0" style="stop-color:#272626"/>
			<stop  offset="1" style="stop-color:#808183"/>
		</linearGradient>
		<path class="st71" d="M136.9,44.7c0.2,0,0.4-0.1,0.6-0.3c1.2-1.2,1.6-3.6,1.2-7.4c-0.1-0.3-0.3-0.5-0.5-0.7
			c-0.2-0.3-0.5-0.5-0.7-0.7c-1,0.1-1.6,0.3-1.7,0.3c1.2,0.4,1.8,1,1.9,1.7c0.3,1.6,0.3,3.1,0,4.5s-0.8,2-1.6,1.7
			c-2.3-0.5-4.7-0.7-7.1-0.6c0,0,0,0-0.1,0c0,0,0,0-0.1,0c-2.3-0.1-4.7,0.1-7,0.6h-0.1h-0.1l-0.8,0.8c0.1,0,0.1,0,0.2,0
			c2.5-0.5,5-0.8,7.7-0.7h0.1C131.8,43.9,134.4,44.1,136.9,44.7z"/>
		
			<linearGradient id="SVGID_54_" gradientUnits="userSpaceOnUse" x1="-345.8656" y1="674.4762" x2="-367.7779" y2="689.2478" gradientTransform="matrix(-1 0 0 1 -224.502 -639.621)">
			<stop  offset="0" style="stop-color:#030405"/>
			<stop  offset="1" style="stop-color:#808183"/>
		</linearGradient>
		<path class="st72" d="M137.5,35.6c-0.2-0.1-0.4-0.3-0.6-0.4c-1.6-0.9-4.2-1.4-7.8-1.6H129c0,0,0,0-0.1,0c-5.4,0.1-8.5,1.2-9.6,3.4
			c-0.3,3.8,0.1,6.3,1.2,7.4c0.1,0.1,0.3,0.2,0.4,0.2l0.8-0.8c-0.7,0.2-1.2-0.4-1.5-1.7c-0.3-1.4-0.3-2.9,0-4.5s3.2-2.5,8.6-2.6
			c0,0,0,0,0.1,0c0,0,0,0,0.1,0l0,0c3,0.1,5.2,0.3,6.6,0.8C136,35.9,136.6,35.7,137.5,35.6z"/>
		
			<radialGradient id="SVGID_55_" cx="-356.2384" cy="681.5793" r="10.4637" gradientTransform="matrix(-1 0 0 1 -224.502 -639.621)" gradientUnits="userSpaceOnUse">
			<stop  offset="0" style="stop-color:#808183"/>
			<stop  offset="1" style="stop-color:#293237"/>
		</radialGradient>
		<path class="st73" d="M120.5,42.1c0.3,1.4,0.8,1.9,1.5,1.7h0.1h0.1c2.3-0.5,4.7-0.7,7-0.6c0,0,0,0,0.1,0c0,0,0,0,0.1,0
			c2.3-0.1,4.7,0.1,7.1,0.6c0.8,0.3,1.3-0.3,1.6-1.7s0.3-2.9,0-4.5c-0.1-0.7-0.8-1.3-1.9-1.7c-1.4-0.5-3.6-0.8-6.6-0.8
			c0,0,0,0-0.1,0c0,0,0,0-0.1,0c-5.4,0.1-8.3,1-8.6,2.6C120.2,39.2,120.2,40.7,120.5,42.1z"/>
		
			<linearGradient id="SVGID_56_" gradientUnits="userSpaceOnUse" x1="-363.7774" y1="718.7725" x2="-344.7354" y2="706.8712" gradientTransform="matrix(-1 0 0 1 -224.502 -639.621)">
			<stop  offset="0" style="stop-color:#363639"/>
			<stop  offset="0.264" style="stop-color:#040506"/>
			<stop  offset="0.4382" style="stop-color:#555659"/>
			<stop  offset="1" style="stop-color:#030405"/>
		</linearGradient>
		<path class="st74" d="M128.2,80.6L128.2,80.6c0.3,0,0.6,0,0.8,0c0,0,0,0,0.1,0c0,0,0,0,0.1,0c3.6,0.2,7.1-0.6,10.3-2.5
			c0.4-0.3,0.6-0.7,0.7-1.2c0-0.4,0-0.8-0.1-1.2c-0.4-3.1-0.8-5.9-1.4-8.3v-0.1c-0.1-0.8-0.5-1.1-1.1-1.2c-0.1,0-0.3,0-0.4,0
			c0,0,0,0-0.1,0s-0.2,0-0.3,0.1c-2.6,0.4-5.2,0.6-7.8,0.6c0,0,0,0-0.1,0c0,0,0,0-0.1,0c-2.7,0.1-5.4-0.2-8.1-0.6c0,0,0,0-0.1,0
			s-0.3,0-0.4,0c-0.6,0-1,0.4-1.1,1.2v0.1c-0.5,2.4-1,5.2-1.4,8.3c0,0.4-0.1,0.8-0.1,1.2c0,0.1,0.1,0.3,0.1,0.4
			c0.1,0.3,0.3,0.5,0.6,0.8C121.8,79.8,124.9,80.6,128.2,80.6z M129.1,79.3L129.1,79.3c-2.8,0.1-5.5-0.4-8.1-1.4
			c-1.4-0.5-2.2-1.2-2.3-1.9c0-0.7,0.1-1.4,0.1-2.1l0,0c0.1-1.6,0.3-3,0.6-4.1c0.4-1.6,0.7-2.3,1.1-2.1c2.8,0.5,5.6,0.7,8.5,0.6
			c0,0,0,0,0.1,0c0,0,0,0,0.1,0l0,0c2.3,0.1,4.7-0.1,7-0.4c0.5-0.1,1-0.1,1.5-0.3c0.4-0.1,0.7,0.6,1.1,2.1c0.3,1,0.5,2.3,0.6,3.8
			l0,0c0.1,0.7,0.1,1.6,0.2,2.4c-0.1,0.8-0.8,1.4-2.3,1.9c-2.5,0.9-4.9,1.4-7.5,1.4C129.5,79.3,129.3,79.3,129.1,79.3L129.1,79.3z"
			/>
	</g>
</g>
<text transform="matrix(1 0 0 1 165.8196 256.3199)" class="st2 st75 st76">A</text>
<text transform="matrix(1 0 0 1 122.8562 63.0411)" class="st2 st75 st77">B</text>
<g>
	<g>
		<path class="st78" d="M174.4,200.4c0.1-19.5,10.9-31,34.9-32.6"/>
		<g>
			<polygon class="st79" points="206.9,176.7 221.8,167.8 206.6,159.3 			"/>
		</g>
	</g>
</g>
<g>
	<g>
		<path class="st80" d="M129.8,109.5c0.3,26.1,5.5,41.9,38,49.2"/>
		<g>
			<polygon class="st81" points="163.7,166.7 180.2,160.9 167,149.6 			"/>
		</g>
	</g>
</g>
</svg>
