<?xml version="1.0" encoding="utf-8"?>
<!-- Generator: Adobe Illustrator 22.0.1, SVG Export Plug-In . SVG Version: 6.00 Build 0)  -->
<svg version="1.1" id="Layer_1" xmlns="http://www.w3.org/2000/svg" xmlns:xlink="http://www.w3.org/1999/xlink" x="0px" y="0px"
	 viewBox="0 0 850.4 850.4" style="enable-background:new 0 0 850.4 850.4;" xml:space="preserve">
<style type="text/css">
	.st0{fill:#9A9B9B;stroke:#000000;stroke-width:1.3664;stroke-miterlimit:10;}
	.st1{fill:#363F3E;stroke:#000000;stroke-miterlimit:10;}
	.st2{fill-rule:evenodd;clip-rule:evenodd;fill:#F1D2A7;}
	.st3{fill-rule:evenodd;clip-rule:evenodd;fill:#1E1E1C;}
	.st4{fill-rule:evenodd;clip-rule:evenodd;fill:#4B887A;}
	.st5{fill-rule:evenodd;clip-rule:evenodd;fill:#FFED00;}
	.st6{fill-rule:evenodd;clip-rule:evenodd;fill:#683C11;}
	.st7{fill-rule:evenodd;clip-rule:evenodd;fill:#717E86;}
	.st8{fill:#FFFFFF;}
	.st9{fill:#009640;}
	.st10{fill:#BE1622;}
	.st11{fill:#ED6E64;}
	.st12{fill:#FCFBFA;}
	.st13{fill:#E8E5D9;}
	.st14{fill:#343844;}
	.st15{fill:#3D5059;}
	.st16{fill:#304048;}
	.st17{font-family:'MyriadPro-Regular';}
	.st18{font-size:48px;}
	.st19{fill:none;stroke:#FFFFFF;stroke-width:2;stroke-miterlimit:10;}
	.st20{fill-rule:evenodd;clip-rule:evenodd;fill:#009640;}
	.st21{fill:#F9B233;}
	.st22{fill:#FFED00;}
	.st23{fill:#AED187;}
</style>
<path class="st0" d="M850.4,259.8v330.7H619.9c-16.2,0-29.4,13.2-29.4,29.4v230.5H259.8V0h330.7v227.4c0,17.9,14.5,32.4,32.5,32.4
	H850.4z"/>
<path class="st1" d="M304.2,270.1V0h242v270.1c0,18.8,15.3,34.1,34.1,34.1h270.1v242H580.3c-18.8,0-34.1,15.3-34.1,34.1v270.1h-242
	V580.3"/>
<g>
	<path class="st2" d="M556.7,255.7c-0.1,1.9,0.9,3.5,2.2,3.6c1.3,0.1,2.5-1.4,2.6-3.3c0.1-1.9-0.9-3.5-2.2-3.6
		C558,252.3,556.9,253.8,556.7,255.7z"/>
	<path class="st3" d="M562.9,227.8l-0.9,14.9l-2.6-0.2c-1.4-0.1-2.5-1.3-2.4-2.7l0.7-11.6c0-0.4,0.4-0.7,0.8-0.7L562.9,227.8z"/>
	<path class="st4" d="M580.7,231.5c1.8-1.6,0.9-5.7-2.1-9.1c-3-3.4-6.9-4.8-8.7-3.2c-1.8,1.6-0.9,5.7,2.1,9.1
		C574.9,231.7,578.9,233.1,580.7,231.5z"/>
	<path class="st4" d="M556.9,258.9c-1.8,1.6-0.9,5.7,2.1,9.1c3,3.4,6.9,4.8,8.7,3.2c1.8-1.6,0.9-5.7-2.1-9.1
		C562.7,258.7,558.7,257.3,556.9,258.9z"/>
	<path class="st5" d="M580.2,245.9c-0.9,14.7-6.3,26.3-12,26c-5.7-0.4-9.7-12.6-8.8-27.3c0.9-14.7,6.3-26.3,12-26
		C577.2,219,581.1,231.2,580.2,245.9z"/>
	<path class="st2" d="M586.2,245.5c-0.4,6.7-6.2,11.9-12.9,11.4c-6.4-0.4-11.4-5.7-11.5-12.1c0,0,0,0,0,0c-0.4,0-0.8-0.4-0.7-0.9
		c0-0.5,0.4-0.9,0.8-0.8c0,0,0,0,0,0c0.8-6.3,6.4-11,12.9-10.6C581.5,232.9,586.6,238.7,586.2,245.5z"/>
	<path class="st6" d="M574.7,232.5c6.7,0.4,11.9,6.2,11.4,12.9c-0.4,6.7-6.2,11.9-12.9,11.4c-2.4-0.1-4.6-1-6.5-2.3
		c0,0,2.7-1.5,1.1-4.3C566.2,247.5,555.8,230.1,574.7,232.5z"/>
	<path class="st7" d="M557,239.1c0,0.5,0,0,0,1.3c0,0-11-0.3-10.6-6.7c0.4-6.4,11.3-5.4,11.3-5.4L557,239.1z"/>
	<path class="st8" d="M551.7,231.4c0-0.2,0.2-0.3,0.4-0.3c0.2,0,0.3,0.2,0.3,0.4l-0.3,5.1c0,0.2-0.2,0.3-0.4,0.3
		c-0.2,0-0.3-0.2-0.3-0.4L551.7,231.4z"/>
	<path class="st8" d="M553.7,231.6c0-0.2,0.2-0.3,0.4-0.3c0.2,0,0.3,0.2,0.3,0.4l-0.3,5.1c0,0.2-0.2,0.3-0.4,0.3
		c-0.2,0-0.3-0.2-0.3-0.4L553.7,231.6z"/>
	<path class="st3" d="M559.3,247.8c0,1.6,0,3.1,0.1,4.5l0,0c-0.4,0-0.7,0.1-1.1,0.3C558.1,247.9,559.3,247.8,559.3,247.8z"/>
	<path class="st7" d="M557.5,258.5c-0.2,0.1-0.4,0.2-0.6,0.4c0,0-1.5-1.4-1.3-4.1c0.1-2.7,2.7-3.8,2.7-3.8c0,0.5,0,1,0,1.6
		c-0.8,0.5-1.5,1.7-1.5,3C556.7,256.8,557,257.8,557.5,258.5z"/>
</g>
<g>
	<g>
		<polygon class="st9" points="594.4,302.8 569.6,642.7 560.6,641.9 		"/>
		<g>
			<polygon class="st9" points="540.9,632.9 562,678 590.6,637.2 			"/>
		</g>
	</g>
</g>
<g>
	<g>
		<path class="st10" d="M655.1,367.7c-13.2,2.3-26.5,4.2-39.9,5.5c-13.4,1.3-26.8,1.8-40.3,1.7c-26.9-0.3-53.9-3.3-80-10.7
			c-13-3.7-25.8-8.5-37.9-14.6c-12.2-6.1-23.7-13.5-34.2-22.3c-21.2-17.4-37.1-41.4-45.2-67.9l8.6-2.5c6.9,25,21.2,48,41,65.3
			c9.8,8.7,20.8,16.2,32.4,22.4c11.6,6.2,24,11.3,36.7,15.2c25.4,8,52,11.8,78.7,12.8c13.4,0.5,26.8,0.3,40.1-0.6
			C628.5,371.2,641.8,369.7,655.1,367.7z"/>
		<g>
			<polygon class="st10" points="408.4,260.8 376.1,222.8 359.4,269.8 			"/>
		</g>
	</g>
</g>
<g>
	<g>
		<path class="st11" d="M745.6,399.5h-48.8l-21.1,2.1c-13.6,0-10.2,0-23,0c-10.2,0-19-6.2-20.4-14.5c-1.2-7.2-1.8-14.3-1.8-21.6
			c0-7.2,0.6-14.4,1.8-21.6c1.4-8.3,10.2-14.5,20.4-14.5c12.9,0,9.4,0,23,0l21.1,2.1h48.8l24.3-4.7h31.5c3.9,0,7.3,2.2,8.1,5.4
			c2.6,10.5,3.8,22,3.7,33.3c0.1,11.4-1.1,22.8-3.7,33.3c-0.8,3.2-4.2,5.4-8.1,5.4h-31.5L745.6,399.5z"/>
		<g>
			<path class="st12" d="M646.6,334.7l-5.1,2.7c-1.7,0.9-2.8,2.2-3.2,3.7L636,350c-0.2,0.9,1,1.7,2.1,1.2l2.7-1L646.6,334.7z"/>
			<path class="st13" d="M641.9,339.7c-1.7,0.9-2.8,2.2-3.2,3.7l-2,7.7c-0.5-0.2-0.8-0.7-0.7-1.2l2.3-8.9c0.4-1.5,1.5-2.8,3.2-3.7
				l5.1-2.7l-1.1,3.2L641.9,339.7z"/>
		</g>
		<g>
			<path class="st12" d="M646.6,396.4l-5.1-2.7c-1.7-0.9-2.8-2.2-3.2-3.7l-2.3-8.9c-0.2-0.9,1-1.7,2.1-1.2l2.7,1L646.6,396.4z"/>
			<path class="st13" d="M641.9,391.5c-1.7-0.9-2.8-2.2-3.2-3.7l-2-7.7c-0.5,0.2-0.8,0.7-0.7,1.2l2.3,8.9c0.4,1.5,1.5,2.8,3.2,3.7
				l5.1,2.7l-1.1-3.2L641.9,391.5z"/>
		</g>
		<path class="st14" d="M758.5,387.1v-43.2c0,0,7.3-3.2,13.3-6c2.4-1.1,5.5-0.1,6.1,2c4.7,16.7,4.7,34.5,0,51.2
			c-0.6,2.1-3.7,3.1-6.1,2C765.8,390.4,758.5,387.1,758.5,387.1z"/>
		<path class="st15" d="M779.4,365.6c0-8.6-1.2-17.1-3.5-25.3c-0.1-0.5-0.6-0.9-1.2-1.1c-0.6-0.2-1.3-0.2-1.9,0.1
			c-4.7,2.2-10.1,4.6-12.3,5.6v41.4c2.2,1,7.6,3.4,12.3,5.6c0.6,0.2,1.3,0.3,1.9,0.1c0.6-0.2,1-0.6,1.2-1.1
			C778.2,382.6,779.4,374.1,779.4,365.6z"/>
		<path class="st16" d="M705.2,387.1v-43.2c0,0-10.9-3.8-18.9-6.7c-2.3-0.8-5,0.1-5.7,2c-6.4,17.2-6.4,35.5,0,52.6
			c0.7,1.8,3.4,2.7,5.7,2C694.2,391,705.2,387.1,705.2,387.1z"/>
		<polygon class="st16" points="684.5,334.7 736.9,334.7 740.8,334.7 768.2,334.7 756.5,341.8 740.8,341.8 736.9,341.8 706,341.8 		
			"/>
		<polygon class="st15" points="694.5,336.3 706.4,340.2 755.7,340.2 762.3,336.3 		"/>
		<polygon class="st16" points="684.5,396.4 736.9,396.4 740.8,396.4 768.2,396.4 756.5,389.3 740.8,389.3 736.9,389.3 706,389.3 		
			"/>
		<polygon class="st15" points="755.7,390.9 706.4,390.9 694.5,394.8 762.3,394.8 		"/>
		<g>
			<path class="st11" d="M692.6,333.7l3.3-4.5c1-1.4,2.8-2.4,4.8-2.7l2.1-0.3l-3.3,6.7l-5.1,1.4l-1.1,2.3l-1.8-0.5L692.6,333.7z"/>
			<polygon class="st16" points="698.8,332.6 701.9,326.2 702.8,326.1 699.5,332.8 694.4,334.2 693.2,336.5 692.5,336.4 693.7,334 
							"/>
		</g>
		<g>
			<path class="st11" d="M692.6,397.4l3.3,4.5c1,1.4,2.8,2.4,4.8,2.7l2.1,0.3l-3.3-6.7l-5.1-1.4l-1.1-2.3l-1.8,0.5L692.6,397.4z"/>
			<polygon class="st16" points="698.8,398.5 701.9,404.9 702.8,405 699.5,398.3 694.4,396.9 693.2,394.5 692.5,394.8 693.7,397.1 
							"/>
		</g>
	</g>
</g>
<text transform="matrix(1 0 0 1 718.8528 380.7458)" class="st17 st18">B</text>
<text transform="matrix(1 0 0 1 412.859 795.7433)" class="st8 st17 st18">1</text>
<text transform="matrix(1 0 0 1 799.3396 470.8001)" class="st8 st17 st18">2</text>
<text transform="matrix(1 0 0 1 410.8595 76.7805)" class="st8 st17 st18">1</text>
<ellipse class="st19" cx="424.3" cy="62.1" rx="38.2" ry="28.5"/>
<ellipse class="st19" cx="810.2" cy="455.5" rx="38.2" ry="28.5"/>
<ellipse class="st19" cx="425.2" cy="781.5" rx="38.2" ry="28.5"/>
<g>
	<path class="st2" d="M611.2,285.8c1.9,0,3.4-1.1,3.4-2.4c0-1.3-1.6-2.4-3.5-2.4c-1.9,0-3.4,1.1-3.4,2.4
		C607.7,284.7,609.3,285.8,611.2,285.8z"/>
	<path class="st3" d="M583,281.7l15-0.2l0,2.6c0,1.4-1.1,2.6-2.5,2.6l-11.6,0.1c-0.4,0-0.8-0.3-0.8-0.8L583,281.7z"/>
	<path class="st4" d="M585.4,263.6c-1.8-1.7-5.7-0.5-8.9,2.7c-3.2,3.2-4.3,7.2-2.5,9c1.8,1.7,5.7,0.5,8.9-2.7
		C586,269.4,587.1,265.4,585.4,263.6z"/>
	<path class="st4" d="M614.4,285.4c1.8,1.7,5.7,0.5,8.9-2.7c3.2-3.2,4.3-7.2,2.5-9c-1.8-1.7-5.7-0.5-8.9,2.7
		C613.8,279.7,612.7,283.7,614.4,285.4z"/>
	<path class="st20" d="M599.8,263c14.7-0.2,26.7,4.4,26.8,10.1c0.1,5.8-11.8,10.6-26.5,10.7c-14.7,0.2-26.7-4.4-26.8-10.1
		C573.1,268,585,263.2,599.8,263z"/>
	<path class="st2" d="M598.9,257.2c6.7-0.1,12.3,5.3,12.4,12.1c0.1,6.4-4.9,11.8-11.2,12.3c0,0,0,0,0,0c0,0.4-0.4,0.8-0.9,0.8
		c-0.5,0-0.9-0.3-0.9-0.8c0,0,0,0,0,0c-6.3-0.4-11.4-5.6-11.5-12.1C586.7,262.8,592.1,257.2,598.9,257.2z"/>
	<path class="st6" d="M586.8,269.5c-0.1-6.7,5.3-12.3,12.1-12.4c6.7-0.1,12.3,5.3,12.4,12.1c0,2.4-0.7,4.7-1.9,6.6
		c0,0-1.6-2.6-4.3-0.8C602.4,276.9,585.8,288.5,586.8,269.5z"/>
	<path class="st7" d="M594.6,286.7c0.5,0,0,0,1.3-0.1c0,0,0.5,11-5.9,11.1c-6.4,0.1-6.2-10.9-6.2-10.9L594.6,286.7z"/>
	<path class="st8" d="M587.4,292.6c-0.2,0-0.4-0.2-0.4-0.4c0-0.2,0.2-0.4,0.4-0.4l5.1-0.1c0.2,0,0.4,0.2,0.4,0.4
		c0,0.2-0.2,0.4-0.4,0.4L587.4,292.6z"/>
	<path class="st8" d="M587.4,290.5c-0.2,0-0.4-0.2-0.4-0.4c0-0.2,0.2-0.4,0.4-0.4l5.1-0.1c0.2,0,0.4,0.2,0.4,0.4
		c0,0.2-0.2,0.4-0.4,0.4L587.4,290.5z"/>
	<path class="st3" d="M603.2,283.8c1.6-0.1,3.1-0.2,4.5-0.4l0,0c0,0.4,0.1,0.7,0.4,1C603.4,285,603.2,283.8,603.2,283.8z"/>
	<path class="st7" d="M614,284.8c0.1,0.2,0.3,0.4,0.5,0.6c0,0-1.3,1.6-4,1.6c-2.7,0.1-4-2.4-4-2.4c0.5,0,1-0.1,1.6-0.1
		c0.6,0.8,1.8,1.3,3.1,1.3C612.3,285.8,613.3,285.4,614,284.8z"/>
</g>
<g>
	<g>
		<polygon class="st21" points="552.9,249.1 308.7,255.5 308.6,246.8 		"/>
		<g>
			<polygon class="st21" points="315.7,226.1 272.8,251.4 316.2,276 			"/>
		</g>
	</g>
</g>
<text transform="matrix(1 0 0 1 510.9378 262.8627)" class="st22 st17 st18">C</text>
<text transform="matrix(1 0 0 1 586.9994 326.0998)" class="st23 st17 st18">A</text>
</svg>
