<?xml version="1.0" encoding="utf-8"?>
<!-- Generator: Adobe Illustrator 22.0.1, SVG Export Plug-In . SVG Version: 6.00 Build 0)  -->
<svg version="1.1" id="Layer_1" xmlns="http://www.w3.org/2000/svg" xmlns:xlink="http://www.w3.org/1999/xlink" x="0px" y="0px"
	 viewBox="0 0 300 300" style="enable-background:new 0 0 300 300;" xml:space="preserve">
<style type="text/css">
	.st0{fill:#006633;}
	.st1{fill:#B17F4A;}
	.st2{fill:#FFFFFF;}
	.st3{fill:#878787;}
	.st4{fill:none;stroke:#B17F4A;stroke-miterlimit:10;}
	.st5{fill:#ED6F65;}
	.st6{fill:#FDFCFB;}
	.st7{fill:#E8E5D9;}
	.st8{fill:#343844;}
	.st9{fill:#3E515A;}
	.st10{fill:#304048;}
	.st11{fill:#F1D3A8;}
	.st12{fill:#1F1F1D;}
	.st13{fill:#4C897B;}
	.st14{fill:#009FE3;}
	.st15{fill:#683D14;}
	.st16{fill:#717E86;}
	.st17{fill:#FEEB27;}
	.st18{fill:#DEDC12;}
	.st19{fill:#EF7C71;}
	.st20{fill:#F1F2F2;}
	.st21{fill:none;stroke:#CF424A;stroke-width:5;stroke-miterlimit:10;}
	.st22{fill:#CF424A;}
	.st23{fill:none;stroke:#009FE3;stroke-width:5;stroke-miterlimit:10;}
	.st24{fill:none;stroke:#FFED00;stroke-width:5;stroke-miterlimit:10;}
	.st25{fill:#FFED00;}
</style>
<rect class="st0" width="300" height="300"/>
<rect y="117.3" class="st1" width="300" height="31.3"/>
<path class="st2" d="M194,156.4V-5h-92.9v162.6c-45.8,12.9-84.2,46.6-107.2,87.2V305h71.5c8.9-41.3,37.1-67.1,84.2-67.1
	c47.1,0,75.3,25.8,84.2,67.1h72.2v-59C282.5,203.5,242.2,168.7,194,156.4z"/>
<path class="st3" d="M192.3,157.2V2H103v156.2c-44,12.4-80.9,41.9-103,80.9V300h64.9c8.6-39.7,39.5-63.5,84.8-63.5
	c45.3,0,76.2,23.8,84.8,63.5H300v-59.6C277.4,199.6,238.6,169,192.3,157.2z"/>
<rect class="st4" width="300" height="300"/>
<g>
	<g>
		<path class="st5" d="M229.6,215.7l-18.5-9.1l-8.4-3.1c-5.1-2.5-3.9-1.9-8.7-4.3c-3.9-1.9-6-5.9-5-9.3c0.9-2.9,2-5.7,3.4-8.5
			c1.3-2.7,2.9-5.3,4.7-7.8c2.1-2.9,6.6-3.6,10.4-1.7c4.9,2.4,3.6,1.8,8.7,4.3l7.6,4.7l18.5,9.1l10.1,2.8l11.9,5.9
			c1.5,0.7,2.3,2.2,2.1,3.6c-1,4.5-2.7,9-4.8,13.3c-2.1,4.3-4.7,8.4-7.6,11.9c-0.9,1.1-2.6,1.3-4.1,0.5l-11.9-5.9L229.6,215.7z"/>
		<g>
			<path class="st6" d="M204.3,172.8l-2.4,0.1c-0.8,0-1.5,0.3-1.9,0.8l-2.5,2.9c-0.2,0.3,0.1,0.8,0.6,0.8l1.2,0.1L204.3,172.8z"/>
			<path class="st7" d="M201.6,173.8c-0.8,0-1.5,0.3-1.9,0.8l-2.2,2.5c-0.2-0.2-0.2-0.4,0-0.6l2.5-2.9c0.4-0.5,1.1-0.8,1.9-0.8
				l2.4-0.1l-1,1L201.6,173.8z"/>
		</g>
		<g>
			<path class="st6" d="M192.8,196.1l-1.4-2c-0.5-0.7-0.6-1.4-0.5-2l0.8-3.8c0.1-0.4,0.7-0.5,1-0.1l0.8,0.9L192.8,196.1z"/>
			<path class="st7" d="M191.9,193.4c-0.5-0.7-0.6-1.4-0.5-2l0.7-3.3c-0.2,0-0.4,0.1-0.5,0.3l-0.8,3.8c-0.1,0.6,0,1.3,0.5,2l1.4,2
				l0.2-1.4L191.9,193.4z"/>
		</g>
		<path class="st8" d="M236.8,213.5l8.1-16.3c0,0,3.4,0.2,6.2,0.2c1.1,0,2.1,1,1.9,1.9c-1.3,7.2-4.7,13.9-9.6,19.4
			c-0.6,0.7-2,0.5-2.7-0.4C239,216.1,236.8,213.5,236.8,213.5z"/>
		<path class="st9" d="M248.7,209.2c1.6-3.3,2.7-6.7,3.4-10.2c0.1-0.2-0.1-0.5-0.2-0.6c-0.2-0.2-0.5-0.3-0.7-0.3
			c-2.2,0-4.7-0.1-5.7-0.2l-7.7,15.7c0.6,0.8,2.2,2.7,3.6,4.4c0.2,0.2,0.4,0.4,0.7,0.4c0.3,0,0.5,0,0.7-0.2
			C245.1,215.4,247.1,212.5,248.7,209.2z"/>
		<path class="st10" d="M216.7,203.5l8.1-16.3c0,0-3.4-3.5-5.9-6.1c-0.7-0.7-1.9-0.9-2.5-0.3c-5.6,5.3-9,12.2-9.8,19.9
			c-0.1,0.8,0.8,1.7,1.8,1.8C211.8,202.9,216.7,203.5,216.7,203.5z"/>
		<polygon class="st10" points="218.6,179.8 238.4,189.6 239.9,190.3 250.3,195.5 244.5,196 238.6,193 237.1,192.3 225.4,186.5 		
			"/>
		<polygon class="st9" points="222.1,182.3 225.9,186 244.5,195.2 247.7,195 		"/>
		<polygon class="st10" points="207.1,203.2 226.9,212.9 228.4,213.7 238.7,218.8 235.6,213.9 229.7,211 228.2,210.3 216.6,204.5 		
			"/>
		<polygon class="st9" points="235,214.4 216.4,205.2 211.2,204.4 236.8,217.1 		"/>
		<g>
			<path class="st5" d="M221.9,181l2.1-1.1c0.6-0.3,1.5-0.4,2.3-0.1l0.9,0.3l-2.5,1.9l-2.2-0.4l-0.8,0.7l-0.6-0.5L221.9,181z"/>
			<polygon class="st10" points="224.4,181.7 226.8,179.9 227.1,180 224.6,181.9 222.5,181.5 221.6,182.1 221.3,182 222.2,181.3 			
				"/>
		</g>
		<g>
			<path class="st5" d="M210,205.1l0.4,2.3c0.1,0.7,0.6,1.4,1.3,1.9l0.7,0.5l0-3.2l-1.7-1.5l0-1.1l-0.8-0.1L210,205.1z"/>
			<polygon class="st10" points="212.1,206.6 212.1,209.6 212.4,209.8 212.4,206.7 210.7,205.2 210.7,204.1 210.4,204.1 
				210.4,205.1 			"/>
		</g>
	</g>
</g>
<g>
	<path class="st11" d="M219.7,135.8c0,0.8,0.4,1.5,0.9,1.5c0.6,0,1.1-0.6,1.1-1.4c0-0.8-0.4-1.5-0.9-1.5
		C220.2,134.3,219.8,135,219.7,135.8z"/>
	<path class="st12" d="M222.3,123.9l-0.4,6.4l-1.1-0.1c-0.6,0-1.1-0.6-1-1.2l0.3-4.9c0-0.2,0.2-0.3,0.3-0.3L222.3,123.9z"/>
	<path class="st13" d="M229.9,125.5c0.8-0.7,0.4-2.4-0.9-3.9c-1.3-1.5-2.9-2-3.7-1.4c-0.8,0.7-0.4,2.4,0.9,3.9
		C227.5,125.5,229.2,126.1,229.9,125.5z"/>
	<path class="st13" d="M219.8,137.1c-0.8,0.7-0.4,2.4,0.9,3.9s2.9,2,3.7,1.4c0.8-0.7,0.4-2.4-0.9-3.9
		C222.3,137.1,220.5,136.5,219.8,137.1z"/>
	<path class="st14" d="M229.7,131.6c-0.4,6.3-2.7,11.2-5.1,11.1c-2.4-0.2-4.1-5.4-3.8-11.6c0.4-6.3,2.7-11.2,5.1-11.1
		C228.4,120.1,230.1,125.3,229.7,131.6z"/>
	<path class="st11" d="M232.3,131.4c-0.2,2.9-2.6,5.1-5.5,4.9c-2.7-0.2-4.9-2.4-4.9-5.2l0,0c-0.2,0-0.3-0.2-0.3-0.4
		c0-0.2,0.2-0.4,0.3-0.3l0,0c0.3-2.7,2.7-4.7,5.5-4.5C230.3,126.1,232.4,128.5,232.3,131.4z"/>
	<path class="st15" d="M227.4,125.9c2.9,0.2,5.1,2.6,4.9,5.5c-0.2,2.9-2.6,5.1-5.5,4.9c-1,0-2-0.4-2.8-1c0,0,1.2-0.6,0.5-1.8
		C223.7,132.3,219.3,124.9,227.4,125.9z"/>
	<path class="st16" d="M219.8,128.7c0,0.2,0,0,0,0.6c0,0-4.7-0.1-4.5-2.9s4.8-2.3,4.8-2.3L219.8,128.7z"/>
	<path class="st2" d="M217.6,125.4c0-0.1,0.1-0.1,0.2-0.1s0.1,0.1,0.1,0.2l-0.1,2.2c0,0.1-0.1,0.1-0.2,0.1c-0.1,0-0.1-0.1-0.1-0.2
		L217.6,125.4z"/>
	<path class="st2" d="M218.4,125.5c0-0.1,0.1-0.1,0.2-0.1s0.1,0.1,0.1,0.2l-0.1,2.2c0,0.1-0.1,0.1-0.2,0.1s-0.1-0.1-0.1-0.2
		L218.4,125.5z"/>
	<path class="st12" d="M220.8,132.4c0,0.7,0,1.3,0,1.9l0,0c-0.2,0-0.3,0-0.5,0.1C220.3,132.5,220.8,132.4,220.8,132.4z"/>
	<path class="st16" d="M220,137c-0.1,0-0.2,0.1-0.3,0.2c0,0-0.6-0.6-0.6-1.7c0-1.2,1.2-1.6,1.2-1.6c0,0.2,0,0.4,0,0.7
		c-0.3,0.2-0.6,0.7-0.6,1.3C219.7,136.3,219.8,136.7,220,137z"/>
</g>
<g>
	<g>
		<path class="st17" d="M112.1,35c7.1-1.7,14.4-1.7,21.5,0c1.1,0.3,1.9,1.5,1.9,2.8c0,16.5,0,38.3,0,54.8c0,3.6-2.2,6.6-5.1,7.1
			c-5,0.8-10.1,0.8-15.1,0c-2.9-0.5-5.1-3.6-5.1-7.1V37.8C110.2,36.4,111,35.3,112.1,35z"/>
		<path class="st18" d="M117.4,100c3.6,0.5,7.3,0.5,10.9,0v-6.9h-10.9V100z"/>
		<path class="st17" d="M115.7,96.1c2.4,0.4,4.7,0.6,7.2,0.6c2.4,0,4.8-0.2,7.2-0.6c1.4-0.2,2.5-1.8,2.5-3.6V34.7
			c-6.4-1.4-12.9-1.4-19.3,0v57.8C113.2,94.4,114.2,95.9,115.7,96.1z"/>
		<path class="st17" d="M115.5,75.9h14.7l-2.3,18.2c-3.4,0.7-6.8,0.7-10.2,0L115.5,75.9z"/>
		<path class="st17" d="M112.6,98.3c-0.7-1.3-1.1-2.8-1.1-4.5V43.5c3.4-1.4,7.2-2.3,11.3-2.3c4.1,0,7.9,0.8,11.3,2.3v50.3
			c0,1.7-0.4,3.2-1.1,4.5c1.5-1.3,2.4-3.5,2.4-5.8c0-14.4,0-32.9,0-48.4v-6.4c0-0.1,0-0.3,0-0.4v0c0-0.1,0-0.2-0.1-0.4
			c0,0,0,0,0-0.1c0-0.1-0.1-0.2-0.1-0.3c0,0,0,0,0,0c-0.1-0.1-0.1-0.2-0.2-0.3l0,0c-0.1-0.2-0.3-0.5-0.5-0.6l0,0
			c-0.1-0.1-0.2-0.2-0.3-0.2l0,0c-0.1-0.1-0.2-0.1-0.3-0.2l0,0c-0.1,0-0.2-0.1-0.3-0.1c-7.1-1.7-14.4-1.7-21.5,0
			c-0.1,0-0.2,0.1-0.3,0.1l0,0c-0.1,0-0.2,0.1-0.3,0.2l0,0c-0.1,0.1-0.2,0.1-0.3,0.2l0,0c-0.2,0.2-0.3,0.4-0.5,0.6l0,0
			c-0.1,0.1-0.1,0.2-0.2,0.3c0,0,0,0,0,0c-0.1,0.1-0.1,0.2-0.1,0.3c0,0,0,0,0,0.1c0,0.1-0.1,0.2-0.1,0.4v0c0,0.1,0,0.3,0,0.4v54.8
			C110.2,94.9,111.1,97,112.6,98.3z"/>
		<path class="st10" d="M131.8,50.7l0.8-1.2c0.6-0.9,1.8-0.4,1.8,0.8v28.3l-2.7-7.5L131.8,50.7L131.8,50.7z"/>
		<path class="st9" d="M133.4,49.7c0.2,0,0.5,0.1,0.5,0.6v24.8l-1.5-4.2V51l0.7-1C133.1,49.8,133.3,49.7,133.4,49.7z"/>
		<g>
			<path class="st10" d="M135.2,76.9l1.7-1.2c0.6-0.3,0.9-1,1-1.7l0.1-0.7l-2.5,1.2l-0.5,1.8l-0.9,0.4l0.2,0.6L135.2,76.9z"/>
			<polygon class="st10" points="135.6,74.7 138,73.6 138.1,73.3 135.5,74.5 135,76.3 134.1,76.7 134.2,76.9 135.1,76.5 			"/>
		</g>
		<path class="st10" d="M113.8,50.7l-0.8-1.2c-0.6-0.9-1.8-0.4-1.8,0.8v28.3l2.7-7.5L113.8,50.7L113.8,50.7z"/>
		<path class="st9" d="M112.2,49.7c-0.2,0-0.5,0.1-0.5,0.6v24.8l1.5-4.2V51l-0.7-1C112.5,49.8,112.4,49.7,112.2,49.7z"/>
		<g>
			<path class="st10" d="M110.5,76.9l-1.7-1.2c-0.6-0.3-0.9-1-1-1.7l-0.1-0.7l2.5,1.2l0.5,1.8l0.9,0.4l-0.2,0.6L110.5,76.9z"/>
			<polygon class="st10" points="110.1,74.7 107.6,73.6 107.6,73.3 110.1,74.5 110.6,76.3 111.6,76.7 111.4,76.9 110.6,76.5 			"/>
		</g>
		<g>
			<path class="st6" d="M133,93.8c0,0-0.1,3.1-3.9,3.3v1.8C129.1,98.9,133,98.7,133,93.8z"/>
			<path class="st7" d="M133,93.8c0,0,0,0.1-0.1,0.3c-0.5,4.2-3.9,4.3-3.9,4.3v0.5C129.1,98.9,133,98.7,133,93.8z"/>
			<path class="st9" d="M129.5,98.9v-1.4c1.8-0.1,2.8-0.8,3.3-1.6c0.2-0.6,0.3-1.3,0.3-2.1c0,0-0.1,3.1-3.9,3.3v1.8
				C129.1,98.9,129.2,98.9,129.5,98.9z"/>
		</g>
		<g>
			<path class="st6" d="M112.6,93.8c0,0,0.1,3.1,3.9,3.3v1.8C116.5,98.9,112.6,98.7,112.6,93.8z"/>
			<path class="st7" d="M112.6,93.8c0,0,0,0.1,0.1,0.3c0.5,4.2,3.9,4.3,3.9,4.3v0.5C116.5,98.9,112.6,98.7,112.6,93.8z"/>
			<path class="st9" d="M116.2,98.9v-1.4c-1.8-0.1-2.8-0.8-3.3-1.6c-0.2-0.6-0.3-1.3-0.3-2.1c0,0,0.1,3.1,3.9,3.3v1.8
				C116.5,98.9,116.4,98.9,116.2,98.9z"/>
		</g>
		<path class="st9" d="M127.6,97.2c-3.2,0.3-6.4,0.3-9.6,0v1.4c3.2,0.3,6.4,0.3,9.6,0V97.2z"/>
		<path class="st10" d="M114.7,71.4H131c0,0,1.2,3,2.2,5.7c0.5,1.3-0.1,2.9-1.3,3.2c-5.9,1.8-12.2,1.8-18.1,0
			c-1.2-0.3-1.7-1.9-1.3-3.2C113.5,74.4,114.7,71.4,114.7,71.4z"/>
		<path class="st9" d="M130.6,72.1c0.3,0.9,1.2,3.2,2,5.2c0.2,0.5,0.2,0.9,0,1.4c-0.2,0.4-0.5,0.7-0.9,0.9c-2.9,0.9-5.9,1.4-8.9,1.4
			c-3,0-6-0.5-8.9-1.4c-0.4-0.1-0.7-0.4-0.9-0.9c-0.2-0.5-0.2-0.9,0-1.4c0.8-2.1,1.6-4.3,2-5.2H130.6z"/>
		<path class="st10" d="M114.7,49.2H131c0,0,0.2-0.3,0.6-0.7c1.3-1.7,0.5-4.5-1.4-4.9c-4.8-0.9-9.8-0.9-14.7,0
			c-1.9,0.4-2.7,3.2-1.4,4.9C114.4,48.9,114.7,49.2,114.7,49.2z"/>
		<path class="st9" d="M122.8,43.6c2.4,0,4.9,0.2,7.2,0.7c0.7,0.1,1.2,0.7,1.4,1.5c0.2,0.8,0.1,1.6-0.4,2.2
			c-0.1,0.2-0.3,0.4-0.4,0.5h-15.8c-0.1-0.1-0.2-0.3-0.4-0.5c-0.5-0.6-0.6-1.4-0.4-2.2c0.2-0.8,0.8-1.3,1.4-1.5
			C117.9,43.8,120.4,43.6,122.8,43.6z"/>
		<path class="st19" d="M110.3,36.9c0.4,0.5,1,0.6,2-0.6c1-1.2,4.1-0.9,4.4-2.2c-1.6,0.2-3.1,0.5-4.6,0.9
			C111.2,35.2,110.6,35.9,110.3,36.9L110.3,36.9z"/>
		<path class="st19" d="M135.3,36.9c-0.4,0.5-1,0.6-2-0.6c-1-1.2-4.1-0.9-4.4-2.2c1.6,0.2,3.1,0.5,4.6,0.9
			C134.4,35.2,135.1,35.9,135.3,36.9L135.3,36.9z"/>
		<path class="st20" d="M127.7,35.7V34c-3.3-0.3-6.6-0.3-9.9,0v1.7C121.2,35.3,124.5,35.3,127.7,35.7z"/>
	</g>
</g>
<g>
	<g>
		<path class="st21" d="M188.8,178.6c-10.1-10.1-12.9-32.8-14-58.2"/>
		<g>
			<polygon class="st22" points="185,122.8 174.3,106 165.1,123.7 			"/>
		</g>
	</g>
</g>
<g>
	<g>
		<line class="st23" x1="204.3" y1="133" x2="91.4" y2="133"/>
		<g>
			<polygon class="st14" points="94.3,123 77,133 94.3,143 			"/>
		</g>
	</g>
</g>
<g>
	<g>
		<path class="st24" d="M122.9,117.3c0.6,19.2-1.8,61.8-35.1,72.3"/>
		<g>
			<polygon class="st25" points="88.8,179 73.7,192 92.5,198.6 			"/>
		</g>
	</g>
</g>
</svg>
