<?xml version="1.0" encoding="utf-8"?>
<!-- Generator: Adobe Illustrator 22.0.1, SVG Export Plug-In . SVG Version: 6.00 Build 0)  -->
<svg version="1.1" id="Layer_1" xmlns="http://www.w3.org/2000/svg" xmlns:xlink="http://www.w3.org/1999/xlink" x="0px" y="0px"
	 viewBox="0 0 850.4 850.4" style="enable-background:new 0 0 850.4 850.4;" xml:space="preserve">
<style type="text/css">
	.st0{fill:#9A9B9B;stroke:#000000;stroke-width:1.3664;stroke-miterlimit:10;}
	.st1{fill:#363F3E;stroke:#000000;stroke-miterlimit:10;}
	.st2{fill:#ED6E64;}
	.st3{fill:#FCFBFA;}
	.st4{fill:#E8E5D9;}
	.st5{fill:#343844;}
	.st6{fill:#3D5059;}
	.st7{fill:#304048;}
	.st8{fill:#FEEB1A;}
	.st9{fill:#DEDC0A;}
	.st10{fill:#EF7C70;}
	.st11{fill:#F1F2F2;}
	.st12{fill-rule:evenodd;clip-rule:evenodd;fill:#54678D;}
	.st13{fill-rule:evenodd;clip-rule:evenodd;fill:#1E1E1C;}
	.st14{fill:#FFFFFF;}
	.st15{fill:#1E1E1C;}
	.st16{fill:#60A172;}
	.st17{fill-rule:evenodd;clip-rule:evenodd;fill:#FFCC07;}
	.st18{fill-rule:evenodd;clip-rule:evenodd;fill:#585857;}
	.st19{fill:#E0C056;}
	.st20{fill-rule:evenodd;clip-rule:evenodd;fill:#CBBBA0;}
	.st21{fill-rule:evenodd;clip-rule:evenodd;fill:#F1D2A7;}
	.st22{fill:#585857;}
	.st23{fill-rule:evenodd;clip-rule:evenodd;fill:#4B887A;}
	.st24{fill-rule:evenodd;clip-rule:evenodd;fill:#F39200;}
	.st25{fill-rule:evenodd;clip-rule:evenodd;fill:#683C11;}
	.st26{fill-rule:evenodd;clip-rule:evenodd;fill:#717E86;}
	.st27{fill:#FCEA10;}
	.st28{fill:#BE1622;}
	.st29{fill:#F9B233;}
	.st30{fill:#009640;}
	.st31{font-family:'MyriadPro-Regular';}
	.st32{font-size:48px;}
	.st33{fill:none;stroke:#FFFFFF;stroke-width:2;stroke-miterlimit:10;}
</style>
<path class="st0" d="M850.4,259.8v330.7H619.9c-16.2,0-29.4,13.2-29.4,29.4v230.5H259.8V616.1c0-14.1-11.5-25.6-25.6-25.6H0V259.8
	h228.7c17.2,0,31.1-13.9,31.1-31.1V0h330.7v227.4c0,17.9,14.5,32.4,32.5,32.4H850.4z"/>
<path class="st1" d="M850.4,304.2H580.3c-18.8,0-34.1-15.3-34.1-34.1V0h-242v270.1c0,18.8-15.3,34.1-34.1,34.1H0v242h270.1
	c18.8,0,34.1,15.3,34.1,34.1v270.1h242V580.3c0-18.8,15.3-34.1,34.1-34.1h270.1V304.2z"/>
<g>
	<g>
		<path class="st2" d="M745.6,399.5h-48.8l-21.1,2.1c-13.6,0-10.2,0-23,0c-10.2,0-19-6.2-20.4-14.5c-1.2-7.2-1.8-14.3-1.8-21.6
			c0-7.2,0.6-14.4,1.8-21.6c1.4-8.3,10.2-14.5,20.4-14.5c12.9,0,9.4,0,23,0l21.1,2.1h48.8l24.3-4.7h31.5c3.9,0,7.3,2.2,8.1,5.4
			c2.6,10.5,3.8,22,3.7,33.3c0.1,11.4-1.1,22.8-3.7,33.3c-0.8,3.2-4.2,5.4-8.1,5.4h-31.5L745.6,399.5z"/>
		<g>
			<path class="st3" d="M646.6,334.7l-5.1,2.7c-1.7,0.9-2.8,2.2-3.2,3.7L636,350c-0.2,0.9,1,1.7,2.1,1.2l2.7-1L646.6,334.7z"/>
			<path class="st4" d="M641.9,339.7c-1.7,0.9-2.8,2.2-3.2,3.7l-2,7.7c-0.5-0.2-0.8-0.7-0.7-1.2l2.3-8.9c0.4-1.5,1.5-2.8,3.2-3.7
				l5.1-2.7l-1.1,3.2L641.9,339.7z"/>
		</g>
		<g>
			<path class="st3" d="M646.6,396.4l-5.1-2.7c-1.7-0.9-2.8-2.2-3.2-3.7l-2.3-8.9c-0.2-0.9,1-1.7,2.1-1.2l2.7,1L646.6,396.4z"/>
			<path class="st4" d="M641.9,391.5c-1.7-0.9-2.8-2.2-3.2-3.7l-2-7.7c-0.5,0.2-0.8,0.7-0.7,1.2l2.3,8.9c0.4,1.5,1.5,2.8,3.2,3.7
				l5.1,2.7l-1.1-3.2L641.9,391.5z"/>
		</g>
		<path class="st5" d="M758.5,387.1v-43.2c0,0,7.3-3.2,13.3-6c2.4-1.1,5.5-0.1,6.1,2c4.7,16.7,4.7,34.5,0,51.2
			c-0.6,2.1-3.7,3.1-6.1,2C765.8,390.4,758.5,387.1,758.5,387.1z"/>
		<path class="st6" d="M779.4,365.6c0-8.6-1.2-17.1-3.5-25.3c-0.1-0.5-0.6-0.9-1.2-1.1c-0.6-0.2-1.3-0.2-1.9,0.1
			c-4.7,2.2-10.1,4.6-12.3,5.6v41.4c2.2,1,7.6,3.4,12.3,5.6c0.6,0.2,1.3,0.3,1.9,0.1c0.6-0.2,1-0.6,1.2-1.1
			C778.2,382.6,779.4,374.1,779.4,365.6z"/>
		<path class="st7" d="M705.2,387.1v-43.2c0,0-10.9-3.8-18.9-6.7c-2.3-0.8-5,0.1-5.7,2c-6.4,17.2-6.4,35.5,0,52.6
			c0.7,1.8,3.4,2.7,5.7,2C694.2,391,705.2,387.1,705.2,387.1z"/>
		<polygon class="st7" points="684.5,334.7 736.9,334.7 740.8,334.7 768.2,334.7 756.5,341.8 740.8,341.8 736.9,341.8 706,341.8 		
			"/>
		<polygon class="st6" points="694.5,336.3 706.4,340.2 755.7,340.2 762.3,336.3 		"/>
		<polygon class="st7" points="684.5,396.4 736.9,396.4 740.8,396.4 768.2,396.4 756.5,389.3 740.8,389.3 736.9,389.3 706,389.3 		
			"/>
		<polygon class="st6" points="755.7,390.9 706.4,390.9 694.5,394.8 762.3,394.8 		"/>
		<g>
			<path class="st2" d="M692.6,333.7l3.3-4.5c1-1.4,2.8-2.4,4.8-2.7l2.1-0.3l-3.3,6.7l-5.1,1.4l-1.1,2.3l-1.8-0.5L692.6,333.7z"/>
			<polygon class="st7" points="698.8,332.6 701.9,326.2 702.8,326.1 699.5,332.8 694.4,334.2 693.2,336.5 692.5,336.4 693.7,334 
							"/>
		</g>
		<g>
			<path class="st2" d="M692.6,397.4l3.3,4.5c1,1.4,2.8,2.4,4.8,2.7l2.1,0.3l-3.3-6.7l-5.1-1.4l-1.1-2.3l-1.8,0.5L692.6,397.4z"/>
			<polygon class="st7" points="698.8,398.5 701.9,404.9 702.8,405 699.5,398.3 694.4,396.9 693.2,394.5 692.5,394.8 693.7,397.1 
							"/>
		</g>
	</g>
</g>
<g>
	<g>
		<path class="st8" d="M76.5,486c-5-20.3-5-41.2,0-61.6c0.8-3.1,4.2-5.4,8.1-5.4c47.2,0,109.8,0,157,0c10.2,0,19,6.2,20.4,14.5
			c2.4,14.4,2.4,28.9,0,43.3c-1.4,8.3-10.2,14.5-20.4,14.5h-157C80.7,491.4,77.3,489.2,76.5,486z"/>
		<path class="st9" d="M262.8,470.8c1.3-10.4,1.3-20.9,0-31.3H243v31.3H262.8z"/>
		<path class="st8" d="M251.8,475.6c1.2-6.8,1.7-13.6,1.7-20.5s-0.6-13.7-1.7-20.5c-0.7-4.1-5.1-7.3-10.2-7.3H75.8
			c-4,18.3-4,37.1,0,55.4h165.8C246.7,482.9,251.1,479.8,251.8,475.6z"/>
		<path class="st8" d="M193.9,476.3v-42.2l52.2,6.5c2,9.8,2,19.4,0,29.2L193.9,476.3z"/>
		<path class="st8" d="M258.1,484.6c-3.6,1.9-8.1,3.1-13,3.1H101c-4.1-9.7-6.5-20.7-6.5-32.3c0-11.7,2.3-22.7,6.5-32.3h144.2
			c4.8,0,9.3,1.2,13,3.1c-3.8-4.2-9.9-6.9-16.6-6.9c-41.3,0-94.4,0-138.7,0H84.6c-0.4,0-0.8,0-1.2,0.1h-0.1
			c-0.4,0.1-0.7,0.1-1.1,0.2c-0.1,0-0.1,0-0.2,0.1c-0.4,0.1-0.7,0.2-1,0.3c0,0-0.1,0-0.1,0.1c-0.3,0.2-0.7,0.3-1,0.5l0,0
			c-0.7,0.4-1.3,0.8-1.8,1.4l0,0c-0.2,0.2-0.5,0.5-0.7,0.8l0,0c-0.2,0.3-0.4,0.6-0.5,0.9l0,0c-0.1,0.3-0.3,0.7-0.4,1
			c-5,20.3-5,41.2,0,61.6c0.1,0.3,0.2,0.7,0.4,1l0,0c0.1,0.3,0.3,0.7,0.5,0.9l0,0c0.2,0.2,0.4,0.6,0.7,0.8l0,0
			c0.5,0.5,1.1,1,1.8,1.4l0,0c0.3,0.2,0.6,0.3,1,0.5c0,0,0.1,0,0.1,0.1c0.3,0.2,0.7,0.2,1,0.3c0.1,0,0.1,0,0.2,0.1
			c0.4,0.1,0.7,0.2,1.1,0.2h0.1c0.4,0.1,0.8,0.1,1.2,0.1h157C248.3,491.4,254.3,488.7,258.1,484.6z"/>
		<path class="st7" d="M121.5,429.4l-3.4-2.3c-2.6-1.8-1.1-5.3,2.3-5.3h81.1l-21.5,7.7L121.5,429.4L121.5,429.4z"/>
		<path class="st6" d="M118.8,424.8c0-0.5,0.4-1.3,1.6-1.3h71.1l-11.9,4.2h-57.3l-2.8-1.9C119,425.6,118.8,425.2,118.8,424.8z"/>
		<g>
			<path class="st7" d="M196.6,419.8l-3.3-4.9c-1-1.6-2.8-2.6-4.8-3l-2.1-0.4l3.3,7.3l5.1,1.5l1.1,2.6l1.8-0.6L196.6,419.8z"/>
			<polygon class="st7" points="190.4,418.6 187.3,411.7 186.4,411.5 189.7,418.9 194.9,420.4 196,422.9 196.7,422.7 195.6,420.1 
							"/>
		</g>
		<path class="st7" d="M121.5,481l-3.4,2.3c-2.6,1.8-1.1,5.3,2.3,5.3h81.1l-21.5-7.7L121.5,481L121.5,481z"/>
		<path class="st6" d="M118.8,485.6c0,0.5,0.4,1.3,1.6,1.3h71.1l-11.9-4.2h-57.3l-2.8,1.9C119,484.9,118.8,485.2,118.8,485.6z"/>
		<g>
			<path class="st7" d="M196.6,490.6l-3.3,4.9c-1,1.6-2.8,2.6-4.8,3l-2.1,0.4l3.3-7.3l5.1-1.5l1.1-2.6l1.8,0.6L196.6,490.6z"/>
			<polygon class="st7" points="190.4,491.8 187.3,498.8 186.4,498.9 189.7,491.6 194.9,490.1 196,487.5 196.7,487.8 195.6,490.3 
							"/>
		</g>
		<g>
			<path class="st3" d="M245,425.9c0,0,9,0.4,9.5,11.2h5.2C259.7,437.1,259.2,426.1,245,425.9z"/>
			<path class="st4" d="M245,425.9c0,0,0.4,0,1,0.2c11.9,1.3,12.3,11.1,12.3,11.1h1.4C259.7,437.1,259.2,426.1,245,425.9z"/>
			<path class="st6" d="M259.6,436.2h-4c-0.3-5.1-2.4-7.9-4.6-9.5c-1.7-0.5-3.6-0.8-6-0.9c0,0,9,0.4,9.5,11.2h5.2
				C259.7,437.1,259.7,436.8,259.6,436.2z"/>
		</g>
		<g>
			<path class="st3" d="M245,484.6c0,0,9-0.4,9.5-11.2h5.2C259.7,473.3,259.2,484.4,245,484.6z"/>
			<path class="st4" d="M245,484.6c0,0,0.4,0,1-0.2c11.9-1.3,12.3-11.1,12.3-11.1h1.4C259.7,473.3,259.2,484.4,245,484.6z"/>
			<path class="st6" d="M259.6,474.2h-4c-0.3,5.1-2.4,7.9-4.6,9.5c-1.7,0.5-3.6,0.8-6,0.9c0,0,9-0.4,9.5-11.2h5.2
				C259.7,473.3,259.7,473.7,259.6,474.2z"/>
		</g>
		<path class="st6" d="M254.8,441.6c1,9.1,1,18.3,0,27.4h4.1c1-9.1,1-18.3,0-27.4H254.8z"/>
		<path class="st7" d="M180.9,478.6v-46.9c0,0,8.6-3.3,16.2-6.2c3.8-1.5,8.3,0.2,9.3,3.6c5.3,17,5.3,35,0,52c-1,3.3-5.5,5-9.3,3.6
			C189.5,481.9,180.9,478.6,180.9,478.6z"/>
		<path class="st6" d="M182.9,432.9c2.6-1,9.1-3.5,15-5.8c1.3-0.5,2.7-0.5,4,0c1.2,0.5,2.1,1.4,2.5,2.5c2.6,8.3,3.9,16.9,3.9,25.6
			c0,8.6-1.3,17.3-3.9,25.6c-0.3,1.1-1.2,2-2.5,2.5s-2.7,0.5-4,0c-5.9-2.2-12.4-4.7-15-5.8V432.9z"/>
		<path class="st7" d="M117.3,478.6v-46.9c0,0-0.8-0.7-2.1-1.7c-4.9-3.8-12.9-1.5-14,4c-2.7,13.9-2.7,28.2,0,42.1
			c1.1,5.5,9.1,7.8,14,4C116.5,479.3,117.3,478.6,117.3,478.6z"/>
		<path class="st6" d="M101.3,455.2c0-6.9,0.7-14,2-20.7c0.4-2,2-3.5,4.2-4.1c2.2-0.7,4.6-0.2,6.4,1.1c0.6,0.4,1.1,0.8,1.4,1.1V478
			c-0.3,0.2-0.8,0.7-1.4,1.1c-1.7,1.3-4.1,1.7-6.4,1.1c-2.3-0.7-3.8-2.2-4.2-4.1C101.9,469.2,101.3,462.2,101.3,455.2z"/>
		<path class="st10" d="M82,491.1c1.3-1.2,1.7-2.9-1.7-5.7c-3.4-2.8-2.5-11.7-6.3-12.6c0.6,4.5,1.4,8.8,2.5,13.2
			C77.1,488.4,79.2,490.3,82,491.1L82,491.1z"/>
		<path class="st10" d="M82,419.4c1.3,1.2,1.7,2.9-1.7,5.7c-3.4,2.8-2.5,11.7-6.3,12.6c0.6-4.5,1.4-8.8,2.5-13.2
			C77.1,422,79.2,420.1,82,419.4L82,419.4z"/>
		<path class="st11" d="M78.5,441.1h-4.9c-1,9.4-1,18.8,0,28.3h4.9C77.4,459.9,77.4,450.5,78.5,441.1z"/>
	</g>
</g>
<g>
	<rect x="153.4" y="514.2" class="st12" width="9.5" height="6"/>
	<path class="st13" d="M162.9,514.5v5.7c0,0,3.4-0.3,3.5-2.7C166.4,515,162.9,514.5,162.9,514.5z"/>
	<path class="st14" d="M163.2,516.2c0-0.1,0.1-0.2,0.2-0.2c0.1,0,0.2,0.1,0.2,0.2v2.4c0,0.1-0.1,0.2-0.2,0.2c-0.1,0-0.2-0.1-0.2-0.2
		V516.2z"/>
	<path class="st14" d="M164.3,516.2c0-0.1,0.1-0.2,0.2-0.2c0.1,0,0.2,0.1,0.2,0.2v2.4c0,0.1-0.1,0.2-0.2,0.2c-0.1,0-0.2-0.1-0.2-0.2
		V516.2z"/>
	<rect x="158.4" y="523.5" class="st12" width="9.5" height="6"/>
	<path class="st13" d="M167.8,529.2v-5.7c0,0,3.4,0.3,3.5,2.7C171.3,528.8,167.8,529.2,167.8,529.2z"/>
	<path class="st14" d="M168.5,527.5c0,0.1-0.1,0.2-0.2,0.2c-0.1,0-0.2-0.1-0.2-0.2v-2.4c0-0.1,0.1-0.2,0.2-0.2
		c0.1,0,0.2,0.1,0.2,0.2V527.5z"/>
	<path class="st14" d="M169.6,527.5c0,0.1-0.1,0.2-0.2,0.2c-0.1,0-0.2-0.1-0.2-0.2v-2.4c0-0.1,0.1-0.2,0.2-0.2
		c0.1,0,0.2,0.1,0.2,0.2V527.5z"/>
	<path class="st15" d="M120.5,523.2c-0.7,0-1.4-0.6-1.4-1.4c0-0.7,0.6-1.4,1.4-1.4h69.4c0.7,0,1.4,0.6,1.4,1.4
		c0,0.7-0.6,1.4-1.4,1.4H120.5z"/>
	<path class="st16" d="M156,523.9c-1.2,0-2.1-0.9-2.1-2.1c0-1.1,0.9-2.1,2.1-2.1h18v4.2H156z"/>
	<path class="st13" d="M133.1,521.8c0,3.1,1.6,5.7,3.6,5.7s3.6-2.5,3.6-5.7c0-3.1-1.6-5.7-3.6-5.7S133.1,518.7,133.1,521.8z"/>
	<path class="st17" d="M136.7,525.6V518c0-3.1,2.3-5.6,5.1-5.6h2.6c3.4,0,4.9-0.7,8.1-2.5c10.3-2.5,10.3,26.2,0,23.7
		c-3.2-1.8-4.7-2.5-8.1-2.5h-2.6C139,531.2,136.7,528.7,136.7,525.6z"/>
	<path class="st18" d="M136.7,525.6V518c0-3.1,2.3-5.6,5.1-5.6h2.6c-2.8,0-5.1,2.5-5.1,5.6v7.6c0,3.1,2.3,5.6,5.1,5.6h-2.6
		C139,531.2,136.7,528.7,136.7,525.6z"/>
	<path class="st19" d="M140.2,525.9c-0.2,0-0.3-0.2-0.3-0.4c0-0.2,0.2-0.3,0.4-0.3c0,0,2.3,0.3,5.6,0c0.2,0,0.4,0.1,0.4,0.3
		c0,0.2-0.1,0.4-0.3,0.4C142.6,526.2,140.2,525.9,140.2,525.9z"/>
	<path class="st19" d="M140.3,518.5c-0.2,0-0.4-0.1-0.4-0.3c0-0.2,0.1-0.4,0.3-0.4c0,0,2.4-0.4,5.8,0c0.2,0,0.3,0.2,0.3,0.4
		c0,0.2-0.2,0.3-0.4,0.3C142.6,518.2,140.3,518.5,140.3,518.5z"/>
	<path class="st20" d="M151.7,521.8c0,3.2,2.5,5.7,5.6,5.7c3.1,0,5.6-2.6,5.6-5.7s-2.5-5.7-5.6-5.7
		C154.2,516.1,151.7,518.7,151.7,521.8z"/>
	<path class="st21" d="M159.6,516.7c1.9,0.9,3.2,2.9,3.2,5.2c0,2.3-1.3,4.3-3.2,5.2c0,0-0.5-0.3-0.3-1.4c0.2-1.2,2.2-0.8,2.3-3.8
		c-0.1-2.9-2-2.6-2.3-3.8C159.1,516.9,159.6,516.7,159.6,516.7z"/>
	<path class="st13" d="M161.2,525.8c0,0,0.2-1.2,1-1.5C162,524.9,161.6,525.4,161.2,525.8L161.2,525.8z M162.2,519.4
		c-0.8-0.3-1-1.5-1-1.5C161.6,518.2,162,518.8,162.2,519.4z"/>
	<path class="st21" d="M162.3,521.8c0,0.2,0.2,0.4,0.4,0.4s0.4-0.2,0.4-0.4c0-0.2-0.2-0.4-0.4-0.4S162.3,521.6,162.3,521.8z"/>
	<path class="st15" d="M172,533.3c-0.2,0.5-0.8,0.8-1.3,0.6c-0.5-0.2-0.8-0.8-0.6-1.3l3-7.6c0.2-0.5,0.8-0.8,1.3-0.6
		c0.5,0.2,0.8,0.8,0.6,1.3L172,533.3z"/>
	<path class="st15" d="M170,511.1c-0.2-0.5,0.1-1.1,0.6-1.3c0.5-0.2,1.1,0.1,1.3,0.6l3,7.6c0.2,0.5-0.1,1.1-0.6,1.3
		c-0.5,0.2-1.1-0.1-1.3-0.6L170,511.1z"/>
	<path class="st22" d="M175,525.3c0,0.6-0.5,1-1,1s-1-0.5-1-1v-7c0-0.6,0.5-1,1-1s1,0.5,1,1V525.3z"/>
	<path class="st21" d="M152.5,533.7c3.1,0.8,5.3-1.3,6.5-4.5c1.4,0.2,10.9-0.5,11.9-1.2c1-0.7,2.8-1.1,3,0.3
		c0.2,1.5-0.7,1.9-1.7,1.8c-1-0.1-1.5,0.1-1.5,0.1s-8.6,3.2-11.8,3.8C155.9,534.5,152.5,533.7,152.5,533.7z"/>
	<path class="st21" d="M152.5,510c3.1-0.8,5.3,1.3,6.5,4.5c1.4-0.2,10.9,0.5,11.9,1.2c1,0.7,2.8,1.1,3-0.3c0.2-1.5-0.7-1.9-1.7-1.8
		c-1,0.1-1.5-0.1-1.5-0.1s-8.6-3.2-11.8-3.8C155.9,509.1,152.5,510,152.5,510z"/>
</g>
<g>
	<path class="st21" d="M278.3,562.6c0.1-1.9-0.9-3.5-2.2-3.6c-1.3-0.1-2.5,1.4-2.6,3.3c-0.1,1.9,0.9,3.5,2.2,3.6
		C277,565.9,278.2,564.5,278.3,562.6z"/>
	<path class="st13" d="M272.2,590.4l0.9-14.9l2.6,0.2c1.4,0.1,2.5,1.3,2.4,2.7l-0.7,11.6c0,0.4-0.4,0.7-0.8,0.7L272.2,590.4z"/>
	<path class="st23" d="M254.4,586.7c-1.8,1.6-0.9,5.7,2.1,9.1c3,3.4,6.9,4.8,8.7,3.2c1.8-1.6,0.9-5.7-2.1-9.1
		C260.1,586.5,256.2,585.1,254.4,586.7z"/>
	<path class="st23" d="M278.2,559.3c1.8-1.6,0.9-5.7-2.1-9.1c-3-3.4-6.9-4.8-8.7-3.2c-1.8,1.6-0.9,5.7,2.1,9.1
		C272.4,559.5,276.3,561,278.2,559.3z"/>
	<path class="st24" d="M254.8,572.3c0.9-14.7,6.3-26.3,12-26c5.7,0.4,9.7,12.6,8.8,27.3c-0.9,14.7-6.3,26.3-12,26
		C257.8,599.2,253.9,587,254.8,572.3z"/>
	<path class="st21" d="M248.9,572.8c0.4-6.7,6.2-11.9,12.9-11.4c6.4,0.4,11.4,5.7,11.5,12.1c0,0,0,0,0,0c0.4,0,0.8,0.4,0.7,0.9
		c0,0.5-0.4,0.9-0.8,0.8c0,0,0,0,0,0c-0.8,6.3-6.4,11-12.9,10.6C253.6,585.3,248.5,579.5,248.9,572.8z"/>
	<path class="st25" d="M260.3,585.7c-6.7-0.4-11.9-6.2-11.4-12.9c0.4-6.7,6.2-11.9,12.9-11.4c2.4,0.1,4.6,1,6.5,2.3
		c0,0-2.7,1.5-1.1,4.3C268.8,570.7,279.2,588.1,260.3,585.7z"/>
	<path class="st26" d="M278,579.2c0-0.5,0,0,0-1.3c0,0,11,0.3,10.6,6.7c-0.4,6.4-11.3,5.4-11.3,5.4L278,579.2z"/>
	<path class="st14" d="M283.4,586.8c0,0.2-0.2,0.3-0.4,0.3c-0.2,0-0.3-0.2-0.3-0.4l0.3-5.1c0-0.2,0.2-0.3,0.4-0.3
		c0.2,0,0.3,0.2,0.3,0.4L283.4,586.8z"/>
	<path class="st14" d="M281.3,586.7c0,0.2-0.2,0.3-0.4,0.3c-0.2,0-0.3-0.2-0.3-0.4l0.3-5.1c0-0.2,0.2-0.3,0.4-0.3
		c0.2,0,0.3,0.2,0.3,0.4L281.3,586.7z"/>
	<path class="st13" d="M275.7,570.4c0-1.6,0-3.1-0.1-4.5l0,0c0.4,0,0.7-0.1,1.1-0.3C276.9,570.3,275.7,570.4,275.7,570.4z"/>
	<path class="st26" d="M277.5,559.7c0.2-0.1,0.4-0.2,0.6-0.4c0,0,1.5,1.4,1.3,4.1c-0.1,2.7-2.7,3.8-2.7,3.8c0-0.5,0-1,0-1.6
		c0.8-0.5,1.5-1.7,1.5-3C278.4,561.4,278.1,560.4,277.5,559.7z"/>
</g>
<g>
	<g>
		<path class="st27" d="M281.1,455c5,2.6,9.9,5.5,14.3,9c1.1,0.8,2.2,1.8,3.3,2.7c1.1,0.9,2.2,1.8,3.2,2.8l3.1,3l2.9,3.1l1.4,1.6
			l1.3,1.6l2.7,3.3l2.5,3.4l1.3,1.7c0.4,0.6,0.8,1.2,1.2,1.8l2.3,3.6c0.8,1.2,1.5,2.4,2.2,3.7c1.5,2.4,2.8,4.9,4.1,7.5
			c5.3,10.1,9.5,20.6,13.2,31.4c3.7,10.8,6.7,21.7,9.3,32.7c5.3,22.1,8.9,44.5,11.9,67c1.5,11.2,2.7,22.5,3.9,33.8
			c1.1,11.3,2.1,22.6,3,33.8l-8.8,0.5c-0.5-11.3-1.1-22.5-1.9-33.7c-0.8-11.2-1.7-22.5-2.7-33.7c-2.2-22.4-5.1-44.7-9.6-66.8
			c-2.3-11-4.9-21.9-8.2-32.7c-3.3-10.7-7.1-21.3-12-31.4c-1.2-2.5-2.4-5.1-3.8-7.5c-0.7-1.2-1.3-2.5-2-3.7l-2.2-3.6
			c-0.4-0.6-0.7-1.2-1.1-1.8l-1.2-1.7l-2.4-3.5l-2.6-3.3l-1.3-1.7l-1.4-1.6l-2.8-3.2l-2.9-3c-1-1-2-2-3.1-2.9
			c-1.1-0.9-2.1-1.9-3.2-2.8C290.8,460.8,286,457.7,281.1,455z"/>
		<g>
			<polygon class="st27" points="338.4,696.9 365.8,738.6 388.2,694 			"/>
		</g>
	</g>
</g>
<g>
	<g>
		<path class="st28" d="M614.1,379c-11.6-1.7-23.3-3.2-35-4c-11.7-0.9-23.5-1.3-35.2-1.1c-11.7,0.3-23.4,1.3-34.9,3.1
			c-11.5,1.9-22.9,4.7-33.7,8.8c-10.8,4.1-21.2,9.3-30.5,16.1c-9.3,6.8-17.5,14.9-24.4,24c-6.8,9.2-12.3,19.4-16.4,30
			c-4.2,10.7-7.2,21.8-9.2,33.2l-8.7-1.7c2.5-11.7,5.9-23.3,10.7-34.4c4.8-11.1,10.9-21.6,18.4-31.1c7.6-9.4,16.6-17.7,26.5-24.5
			c9.9-6.8,20.9-11.9,32.2-15.8c11.3-3.8,23-6.3,34.7-7.9c11.8-1.5,23.6-2.1,35.4-2.1c11.8,0.1,23.6,0.9,35.3,2.2
			C590.9,375.1,602.5,377,614.1,379z"/>
		<g>
			<polygon class="st28" points="366.9,477.9 386.1,523.9 416.4,484.3 			"/>
		</g>
	</g>
</g>
<g>
	<g>
		<polygon class="st29" points="296.1,577.9 540.3,571.4 540.4,580.1 		"/>
		<g>
			<polygon class="st29" points="533.3,600.8 576.3,575.5 532.9,550.9 			"/>
		</g>
	</g>
</g>
<g>
	<g>
		<polygon class="st30" points="224.3,523.9 615,519.3 615,528.5 		"/>
		<g>
			<polygon class="st30" points="607.7,548.8 650.9,523.9 607.7,499 			"/>
		</g>
	</g>
</g>
<text transform="matrix(1 0 0 1 137.6045 472.0889)" class="st31 st32">A</text>
<text transform="matrix(1 0 0 1 718.8528 380.7458)" class="st31 st32">B</text>
<text transform="matrix(1 0 0 1 31.8755 380.1001)" class="st14 st31 st32">2</text>
<text transform="matrix(1 0 0 1 412.859 795.7433)" class="st14 st31 st32">1</text>
<text transform="matrix(1 0 0 1 799.3396 470.8001)" class="st14 st31 st32">2</text>
<text transform="matrix(1 0 0 1 412.8595 51.7805)" class="st14 st31 st32">1</text>
<ellipse class="st33" cx="424.3" cy="35.1" rx="38.2" ry="28.5"/>
<ellipse class="st33" cx="810.2" cy="455.5" rx="38.2" ry="28.5"/>
<ellipse class="st33" cx="425.2" cy="781.5" rx="38.2" ry="28.5"/>
<ellipse class="st33" cx="46.2" cy="365.5" rx="38.2" ry="28.5"/>
</svg>
