<?xml version="1.0" encoding="utf-8"?>
<!-- Generator: Adobe Illustrator 22.0.1, SVG Export Plug-In . SVG Version: 6.00 Build 0)  -->
<svg version="1.1" id="Layer_1" xmlns="http://www.w3.org/2000/svg" xmlns:xlink="http://www.w3.org/1999/xlink" x="0px" y="0px"
	 viewBox="0 0 850.4 850.4" style="enable-background:new 0 0 850.4 850.4;" xml:space="preserve">
<style type="text/css">
	.st0{fill:#9A9B9B;stroke:#000000;stroke-width:1.3664;stroke-miterlimit:10;}
	.st1{fill:#363F3E;stroke:#000000;stroke-miterlimit:10;}
	.st2{fill:#ED6E64;}
	.st3{fill:#FCFBFA;}
	.st4{fill:#E8E5D9;}
	.st5{fill:#343844;}
	.st6{fill:#3D5059;}
	.st7{fill:#304048;}
	.st8{fill-rule:evenodd;clip-rule:evenodd;fill:#F1D2A7;}
	.st9{fill-rule:evenodd;clip-rule:evenodd;fill:#1E1E1C;}
	.st10{fill-rule:evenodd;clip-rule:evenodd;fill:#4B887A;}
	.st11{fill-rule:evenodd;clip-rule:evenodd;fill:#FFED00;}
	.st12{fill-rule:evenodd;clip-rule:evenodd;fill:#683C11;}
	.st13{fill-rule:evenodd;clip-rule:evenodd;fill:#717E86;}
	.st14{fill:#FFFFFF;}
	.st15{fill:#009640;}
	.st16{fill:#BE1622;}
	.st17{fill:#AED187;}
	.st18{font-family:'MyriadPro-Regular';}
	.st19{font-size:48px;}
	.st20{fill:#FFED00;}
	.st21{fill:none;stroke:#FFFFFF;stroke-width:2;stroke-miterlimit:10;}
	.st22{fill-rule:evenodd;clip-rule:evenodd;fill:#009640;}
	.st23{fill:#F9B233;}
</style>
<path class="st0" d="M850.4,259.8v330.7H619.9c-16.2,0-29.4,13.2-29.4,29.4v230.5H259.8V0h330.7v227.4c0,17.9,14.5,32.4,32.5,32.4
	H850.4z"/>
<path class="st1" d="M304.2,270.1V0h242v270.1c0,18.8,15.3,34.1,34.1,34.1h270.1v242H580.3c-18.8,0-34.1,15.3-34.1,34.1v270.1h-242
	V580.3"/>
<g>
	<g>
		<path class="st2" d="M745.6,399.5h-48.8l-21.1,2.1c-13.6,0-10.2,0-23,0c-10.2,0-19-6.2-20.4-14.5c-1.2-7.2-1.8-14.3-1.8-21.6
			c0-7.2,0.6-14.4,1.8-21.6c1.4-8.3,10.2-14.5,20.4-14.5c12.9,0,9.4,0,23,0l21.1,2.1h48.8l24.3-4.7h31.5c3.9,0,7.3,2.2,8.1,5.4
			c2.6,10.5,3.8,22,3.7,33.3c0.1,11.4-1.1,22.8-3.7,33.3c-0.8,3.2-4.2,5.4-8.1,5.4h-31.5L745.6,399.5z"/>
		<g>
			<path class="st3" d="M646.6,334.7l-5.1,2.7c-1.7,0.9-2.8,2.2-3.2,3.7L636,350c-0.2,0.9,1,1.7,2.1,1.2l2.7-1L646.6,334.7z"/>
			<path class="st4" d="M641.9,339.7c-1.7,0.9-2.8,2.2-3.2,3.7l-2,7.7c-0.5-0.2-0.8-0.7-0.7-1.2l2.3-8.9c0.4-1.5,1.5-2.8,3.2-3.7
				l5.1-2.7l-1.1,3.2L641.9,339.7z"/>
		</g>
		<g>
			<path class="st3" d="M646.6,396.4l-5.1-2.7c-1.7-0.9-2.8-2.2-3.2-3.7l-2.3-8.9c-0.2-0.9,1-1.7,2.1-1.2l2.7,1L646.6,396.4z"/>
			<path class="st4" d="M641.9,391.5c-1.7-0.9-2.8-2.2-3.2-3.7l-2-7.7c-0.5,0.2-0.8,0.7-0.7,1.2l2.3,8.9c0.4,1.5,1.5,2.8,3.2,3.7
				l5.1,2.7l-1.1-3.2L641.9,391.5z"/>
		</g>
		<path class="st5" d="M758.5,387.1v-43.2c0,0,7.3-3.2,13.3-6c2.4-1.1,5.5-0.1,6.1,2c4.7,16.7,4.7,34.5,0,51.2
			c-0.6,2.1-3.7,3.1-6.1,2C765.8,390.4,758.5,387.1,758.5,387.1z"/>
		<path class="st6" d="M779.4,365.6c0-8.6-1.2-17.1-3.5-25.3c-0.1-0.5-0.6-0.9-1.2-1.1c-0.6-0.2-1.3-0.2-1.9,0.1
			c-4.7,2.2-10.1,4.6-12.3,5.6v41.4c2.2,1,7.6,3.4,12.3,5.6c0.6,0.2,1.3,0.3,1.9,0.1c0.6-0.2,1-0.6,1.2-1.1
			C778.2,382.6,779.4,374.1,779.4,365.6z"/>
		<path class="st7" d="M705.2,387.1v-43.2c0,0-10.9-3.8-18.9-6.7c-2.3-0.8-5,0.1-5.7,2c-6.4,17.2-6.4,35.5,0,52.6
			c0.7,1.8,3.4,2.7,5.7,2C694.2,391,705.2,387.1,705.2,387.1z"/>
		<polygon class="st7" points="684.5,334.7 736.9,334.7 740.8,334.7 768.2,334.7 756.5,341.8 740.8,341.8 736.9,341.8 706,341.8 		
			"/>
		<polygon class="st6" points="694.5,336.3 706.4,340.2 755.7,340.2 762.3,336.3 		"/>
		<polygon class="st7" points="684.5,396.4 736.9,396.4 740.8,396.4 768.2,396.4 756.5,389.3 740.8,389.3 736.9,389.3 706,389.3 		
			"/>
		<polygon class="st6" points="755.7,390.9 706.4,390.9 694.5,394.8 762.3,394.8 		"/>
		<g>
			<path class="st2" d="M692.6,333.7l3.3-4.5c1-1.4,2.8-2.4,4.8-2.7l2.1-0.3l-3.3,6.7l-5.1,1.4l-1.1,2.3l-1.8-0.5L692.6,333.7z"/>
			<polygon class="st7" points="698.8,332.6 701.9,326.2 702.8,326.1 699.5,332.8 694.4,334.2 693.2,336.5 692.5,336.4 693.7,334 
							"/>
		</g>
		<g>
			<path class="st2" d="M692.6,397.4l3.3,4.5c1,1.4,2.8,2.4,4.8,2.7l2.1,0.3l-3.3-6.7l-5.1-1.4l-1.1-2.3l-1.8,0.5L692.6,397.4z"/>
			<polygon class="st7" points="698.8,398.5 701.9,404.9 702.8,405 699.5,398.3 694.4,396.9 693.2,394.5 692.5,394.8 693.7,397.1 
							"/>
		</g>
	</g>
</g>
<g>
	<path class="st8" d="M298.2,562c0.1-1.9-0.9-3.5-2.2-3.6c-1.3-0.1-2.5,1.4-2.6,3.3c-0.1,1.9,0.9,3.5,2.2,3.6S298.1,563.9,298.2,562
		z"/>
	<path class="st9" d="M292.1,589.9l0.9-14.9l2.6,0.2c1.4,0.1,2.5,1.3,2.4,2.7l-0.7,11.6c0,0.4-0.4,0.7-0.8,0.7L292.1,589.9z"/>
	<path class="st10" d="M274.2,586.2c-1.8,1.6-0.9,5.7,2.1,9.1c3,3.4,6.9,4.8,8.7,3.2c1.8-1.6,0.9-5.7-2.1-9.1
		C280,586,276.1,584.5,274.2,586.2z"/>
	<path class="st10" d="M298,558.8c1.8-1.6,0.9-5.7-2.1-9.1c-3-3.4-6.9-4.8-8.7-3.2c-1.8,1.6-0.9,5.7,2.1,9.1
		C292.3,559,296.2,560.4,298,558.8z"/>
	<path class="st11" d="M274.7,571.8c0.9-14.7,6.3-26.3,12-26c5.7,0.4,9.7,12.6,8.8,27.3c-0.9,14.7-6.3,26.3-12,26
		C277.7,598.7,273.8,586.5,274.7,571.8z"/>
	<path class="st8" d="M268.8,572.2c0.4-6.7,6.2-11.9,12.9-11.4c6.4,0.4,11.4,5.7,11.5,12.1c0,0,0,0,0,0c0.4,0,0.8,0.4,0.7,0.9
		c0,0.5-0.4,0.9-0.8,0.8c0,0,0,0,0,0c-0.8,6.3-6.4,11-12.9,10.6C273.5,584.8,268.3,579,268.8,572.2z"/>
	<path class="st12" d="M280.2,585.2c-6.7-0.4-11.9-6.2-11.4-12.9c0.4-6.7,6.2-11.9,12.9-11.4c2.4,0.1,4.6,1,6.5,2.3
		c0,0-2.7,1.5-1.1,4.3C288.7,570.2,299.1,587.6,280.2,585.2z"/>
	<path class="st13" d="M297.9,578.6c0-0.5,0,0,0-1.3c0,0,11,0.3,10.6,6.7c-0.4,6.4-11.3,5.4-11.3,5.4L297.9,578.6z"/>
	<path class="st14" d="M303.2,586.3c0,0.2-0.2,0.3-0.4,0.3c-0.2,0-0.3-0.2-0.3-0.4l0.3-5.1c0-0.2,0.2-0.3,0.4-0.3
		c0.2,0,0.3,0.2,0.3,0.4L303.2,586.3z"/>
	<path class="st14" d="M301.2,586.1c0,0.2-0.2,0.3-0.4,0.3c-0.2,0-0.3-0.2-0.3-0.4l0.3-5.1c0-0.2,0.2-0.3,0.4-0.3
		c0.2,0,0.3,0.2,0.3,0.4L301.2,586.1z"/>
	<path class="st9" d="M295.6,569.8c0-1.6,0-3.1-0.1-4.5l0,0c0.4,0,0.7-0.1,1.1-0.3C296.8,569.8,295.6,569.8,295.6,569.8z"/>
	<path class="st13" d="M297.4,559.2c0.2-0.1,0.4-0.2,0.6-0.4c0,0,1.5,1.4,1.3,4.1c-0.1,2.7-2.7,3.8-2.7,3.8c0-0.5,0-1,0-1.6
		c0.8-0.5,1.5-1.7,1.5-3C298.2,560.9,297.9,559.8,297.4,559.2z"/>
</g>
<g>
	<g>
		<polygon class="st15" points="566.5,279.9 571,620.6 562,620.6 		"/>
		<g>
			<polygon class="st15" points="541.6,613.3 566.5,656.5 591.4,613.3 			"/>
		</g>
	</g>
</g>
<g>
	<g>
		<path class="st16" d="M614.1,379c-11.6-1.7-23.3-3.2-35-4c-11.7-0.9-23.5-1.3-35.2-1.1c-11.7,0.3-23.4,1.3-34.9,3.1
			c-11.5,1.9-22.9,4.7-33.7,8.8c-10.8,4.1-21.2,9.3-30.5,16.1c-9.3,6.8-17.5,14.9-24.4,24c-6.8,9.2-12.3,19.4-16.4,30
			c-4.2,10.7-7.2,21.8-9.2,33.2l-8.7-1.7c2.5-11.7,5.9-23.3,10.7-34.4c4.8-11.1,10.9-21.6,18.4-31.1c7.6-9.4,16.6-17.7,26.5-24.5
			c9.9-6.8,20.9-11.9,32.2-15.8c11.3-3.8,23-6.3,34.7-7.9c11.8-1.5,23.6-2.1,35.4-2.1c11.8,0.1,23.6,0.9,35.3,2.2
			C590.9,375.1,602.5,377,614.1,379z"/>
		<g>
			<polygon class="st16" points="366.9,477.9 386.1,523.9 416.4,484.3 			"/>
		</g>
	</g>
</g>
<text transform="matrix(1 0 0 1 555.6045 292.0889)" class="st17 st18 st19">A</text>
<text transform="matrix(1 0 0 1 307.6045 589.6863)" class="st20 st18 st19">C</text>
<text transform="matrix(1 0 0 1 718.8528 380.7458)" class="st18 st19">B</text>
<text transform="matrix(1 0 0 1 412.859 795.7433)" class="st14 st18 st19">1</text>
<text transform="matrix(1 0 0 1 799.3396 470.8001)" class="st14 st18 st19">2</text>
<text transform="matrix(1 0 0 1 410.8595 76.7805)" class="st14 st18 st19">1</text>
<ellipse class="st21" cx="424.3" cy="62.1" rx="38.2" ry="28.5"/>
<ellipse class="st21" cx="810.2" cy="455.5" rx="38.2" ry="28.5"/>
<ellipse class="st21" cx="425.2" cy="781.5" rx="38.2" ry="28.5"/>
<g>
	<path class="st8" d="M577.8,235.7c1.9,0,3.4-1.1,3.4-2.4c0-1.3-1.6-2.4-3.5-2.4c-1.9,0-3.4,1.1-3.4,2.4
		C574.4,234.7,575.9,235.7,577.8,235.7z"/>
	<path class="st9" d="M549.6,231.6l15-0.2l0,2.6c0,1.4-1.1,2.6-2.5,2.6l-11.6,0.1c-0.4,0-0.8-0.3-0.8-0.8L549.6,231.6z"/>
	<path class="st10" d="M552,213.6c-1.8-1.7-5.7-0.5-8.9,2.7c-3.2,3.2-4.3,7.2-2.5,9c1.8,1.7,5.7,0.5,8.9-2.7
		C552.6,219.3,553.8,215.3,552,213.6z"/>
	<path class="st10" d="M581.1,235.3c1.8,1.7,5.7,0.5,8.9-2.7c3.2-3.2,4.3-7.2,2.5-9c-1.8-1.7-5.7-0.5-8.9,2.7
		C580.4,229.6,579.3,233.6,581.1,235.3z"/>
	<path class="st22" d="M566.4,213c14.7-0.2,26.7,4.4,26.8,10.1c0.1,5.8-11.8,10.6-26.5,10.7c-14.7,0.2-26.7-4.4-26.8-10.1
		C539.8,217.9,551.7,213.1,566.4,213z"/>
	<path class="st8" d="M565.5,207.1c6.7-0.1,12.3,5.3,12.4,12.1c0.1,6.4-4.9,11.8-11.2,12.3c0,0,0,0,0,0c0,0.4-0.4,0.8-0.9,0.8
		c-0.5,0-0.9-0.3-0.9-0.8c0,0,0,0,0,0c-6.3-0.4-11.4-5.6-11.5-12.1C553.4,212.7,558.8,207.2,565.5,207.1z"/>
	<path class="st12" d="M553.4,219.4c-0.1-6.7,5.3-12.3,12.1-12.4c6.7-0.1,12.3,5.3,12.4,12.1c0,2.4-0.7,4.7-1.9,6.6
		c0,0-1.6-2.6-4.3-0.8C569,226.8,552.4,238.5,553.4,219.4z"/>
	<path class="st13" d="M561.3,236.6c0.5,0,0,0,1.3-0.1c0,0,0.5,11-5.9,11.1c-6.4,0.1-6.2-10.9-6.2-10.9L561.3,236.6z"/>
	<path class="st14" d="M554,242.5c-0.2,0-0.4-0.2-0.4-0.4c0-0.2,0.2-0.4,0.4-0.4l5.1-0.1c0.2,0,0.4,0.2,0.4,0.4
		c0,0.2-0.2,0.4-0.4,0.4L554,242.5z"/>
	<path class="st14" d="M554,240.4c-0.2,0-0.4-0.2-0.4-0.4c0-0.2,0.2-0.4,0.4-0.4l5.1-0.1c0.2,0,0.4,0.2,0.4,0.4
		c0,0.2-0.2,0.4-0.4,0.4L554,240.4z"/>
	<path class="st9" d="M569.8,233.7c1.6-0.1,3.1-0.2,4.5-0.4l0,0c0,0.4,0.1,0.7,0.4,1C570,234.9,569.8,233.7,569.8,233.7z"/>
	<path class="st13" d="M580.6,234.7c0.1,0.2,0.3,0.4,0.5,0.6c0,0-1.3,1.6-4,1.6c-2.7,0.1-4-2.4-4-2.4c0.5,0,1-0.1,1.6-0.1
		c0.6,0.8,1.8,1.3,3.1,1.3C579,235.7,580,235.3,580.6,234.7z"/>
</g>
<g>
	<g>
		<polygon class="st23" points="364,571 608.3,564.6 608.4,573.3 		"/>
		<g>
			<polygon class="st23" points="601.2,594 644.2,568.7 600.8,544.1 			"/>
		</g>
	</g>
</g>
</svg>
