<?xml version="1.0" encoding="utf-8"?>
<!-- Generator: Adobe Illustrator 22.0.1, SVG Export Plug-In . SVG Version: 6.00 Build 0)  -->
<svg version="1.1" id="Layer_1" xmlns="http://www.w3.org/2000/svg" xmlns:xlink="http://www.w3.org/1999/xlink" x="0px" y="0px"
	 viewBox="0 0 315.8 191" style="enable-background:new 0 0 315.8 191;" xml:space="preserve">
<style type="text/css">
	.st0{fill:#9A9B9B;stroke:#000000;stroke-width:0.3606;stroke-miterlimit:10;}
	.st1{fill:#363F3E;stroke:#000000;stroke-width:0.2955;stroke-miterlimit:10;}
	.st2{fill:url(#SVGID_1_);}
	.st3{fill:#FFFFFF;}
	.st4{fill:#C1171E;}
	.st5{fill:#020203;}
	.st6{fill:url(#SVGID_2_);}
	.st7{fill:url(#path4205_2_);}
	.st8{fill:url(#SVGID_3_);}
	.st9{fill:url(#path8210_2_);}
	.st10{fill:url(#SVGID_4_);}
</style>
<path class="st0" d="M315.5,144l-81.2,46.9l-69.1-39.9c-4-2.3-10.4-2.3-14.4,0l-69.1,39.9L0.4,143.9l70.1-40.4c3.5-2,3.5-5.3,0-7.3
	L0.4,55.8L81.6,8.9l68.7,39.7c4.2,2.4,11.1,2.4,15.3,0l68.7-39.7l81.2,46.9l-68.4,39.5c-4.4,2.5-4.4,6.7,0,9.2L315.5,144z"/>
<path class="st1" d="M308.1,148.2l-74.3-42.9c-5.2-3-5.2-7.8,0-10.8l74.3-42.9l-66.6-38.4L167.3,56c-5.2,3-13.6,3-18.8,0L74.2,13.1
	L7.7,51.6L82,94.5c5.2,3,5.2,7.8,0,10.8L7.7,148.2l66.6,38.4l74.3-42.9c5.2-3,13.6-3,18.8,0l74.3,42.9L308.1,148.2z"/>
<g>
	
		<linearGradient id="SVGID_1_" gradientUnits="userSpaceOnUse" x1="313.9149" y1="255.987" x2="315.9297" y2="255.987" gradientTransform="matrix(1 0 0 -1 -56.7341 353.5279)">
		<stop  offset="0" style="stop-color:#EEEBEA"/>
		<stop  offset="0" style="stop-color:#E0DBD8"/>
		<stop  offset="0" style="stop-color:#D7D2CE"/>
		<stop  offset="6.786538e-02" style="stop-color:#C9C4C0"/>
		<stop  offset="0.1461" style="stop-color:#B4B0AB"/>
		<stop  offset="0.5225" style="stop-color:#E8E7E7"/>
		<stop  offset="0.6579" style="stop-color:#D8D6D5"/>
		<stop  offset="0.8764" style="stop-color:#B4B0AB"/>
		<stop  offset="1" style="stop-color:#DADADA"/>
		<stop  offset="1" style="stop-color:#B3B2B2"/>
	</linearGradient>
	<path class="st2" d="M259.2,116.5c0,0.3-0.3,0.7-0.7,0.9c-0.8,0.3-1.3,0.3-1.3-0.3V77.5h2V116.5z"/>
	<g id="g8206" transform="matrix(1.25,0,0,-1.25,0,743.62267)">
		<g id="g8208">
			<path id="path8210" class="st3" d="M206.6,542.1c-0.2-0.1-0.4-0.3-0.5-0.6c0-0.1-0.1-0.2-0.1-0.2l-0.4-1l0,0l-7.4-19c0,0,0,0,0,0
				c0-0.1-0.1-0.2-0.1-0.3c-0.1-0.5,0.1-0.8,0.5-0.7c0.1,0,0.1,0,0.2,0.1l15.5,9c0.4,0.2,0.7,0.8,0.7,1.3c0,0.2,0,0.3-0.1,0.4
				c0,0,0,0,0,0l-7.7,10.9c-0.1,0.1-0.1,0.2-0.2,0.2C206.9,542.2,206.7,542.2,206.6,542.1L206.6,542.1z"/>
			<path id="path8212" class="st4" d="M206.6,541.9c-0.2-0.1-0.4-0.3-0.5-0.6l-7.8-20c0-0.1-0.1-0.2-0.1-0.3c0-0.2,0.1-0.3,0.2-0.4
				c0.1,0,0.2,0,0.4,0.1l15.5,9c0.1,0.1,0.2,0.1,0.3,0.3c0.2,0.2,0.3,0.5,0.3,0.7c0,0.1,0,0.2-0.1,0.3l-7.8,11.1c0,0,0,0,0,0
				c0,0,0,0,0,0c0,0-0.1,0.1-0.1,0.1C206.8,542,206.7,542,206.6,541.9C206.6,541.9,206.6,541.9,206.6,541.9z M198.8,520.6
				L198.8,520.6L198.8,520.6L198.8,520.6z M206.6,538.8l5.9-8.4l-11.9-6.8L206.6,538.8z"/>
			<path id="path8214" class="st5" d="M206.6,542.1c-0.2-0.1-0.4-0.3-0.5-0.6c0-0.1-0.1-0.2-0.1-0.3l-0.4-1l0,0l-7.4-19c0,0,0,0,0,0
				c0-0.1-0.1-0.2-0.1-0.3c-0.1-0.5,0.1-0.9,0.5-0.8c0.1,0,0.1,0,0.2,0.1l15.5,9c0.4,0.2,0.7,0.8,0.7,1.3c0,0.2,0,0.3-0.1,0.4
				c0,0,0,0,0,0l-7.7,10.9c-0.1,0.1-0.1,0.2-0.2,0.2C206.9,542.3,206.8,542.2,206.6,542.1L206.6,542.1L206.6,542.1z M206.6,542.1
				c0.2,0.1,0.4,0.1,0.5,0.1c0.1-0.1,0.1-0.1,0.2-0.2L215,531c0,0,0,0,0,0c0.1-0.1,0.1-0.2,0.1-0.4c0-0.5-0.3-1-0.7-1.3l-15.5-9
				c-0.1,0-0.1-0.1-0.2-0.1c-0.4-0.1-0.6,0.2-0.5,0.7c0,0.1,0,0.2,0.1,0.3c0,0,0,0,0,0l7.4,19l0,0l0.4,1c0,0.1,0.1,0.2,0.1,0.2
				C206.2,541.8,206.4,542,206.6,542.1z"/>
			<path id="path8216" class="st5" d="M206.6,529.4l-1.4-2.4v3.2l-1.4-0.8v0.9l1.4,0.8v1.8l1.4,2.4l1.4-0.8v-1.8l1.4,0.8v-0.9
				l-1.4-0.8v-3.2"/>
		</g>
	</g>
</g>
<g>
	
		<linearGradient id="SVGID_2_" gradientUnits="userSpaceOnUse" x1="201.1503" y1="222.9175" x2="203.1653" y2="222.9175" gradientTransform="matrix(1 0 0 -1 -56.7341 353.5279)">
		<stop  offset="0" style="stop-color:#EEEBEA"/>
		<stop  offset="0" style="stop-color:#E0DBD8"/>
		<stop  offset="0" style="stop-color:#D7D2CE"/>
		<stop  offset="6.786538e-02" style="stop-color:#C9C4C0"/>
		<stop  offset="0.1461" style="stop-color:#B4B0AB"/>
		<stop  offset="0.5225" style="stop-color:#E8E7E7"/>
		<stop  offset="0.6579" style="stop-color:#D8D6D5"/>
		<stop  offset="0.8764" style="stop-color:#B4B0AB"/>
		<stop  offset="1" style="stop-color:#DADADA"/>
		<stop  offset="1" style="stop-color:#B3B2B2"/>
	</linearGradient>
	<path class="st6" d="M146.4,149.5c0,0.3-0.3,0.7-0.7,0.9c-0.8,0.3-1.3,0.3-1.3-0.3v-39.5h2V149.5z"/>
	<g id="g6608" transform="matrix(1.25,0,0,-1.25,0,900.99999)">
		<g id="g6610">
			<path id="path6612" class="st3" d="M113.7,623.9c-0.2,0.1-0.4,0.3-0.5,0.5l-3.7,6.4c-0.1,0.2-0.2,0.5-0.2,0.7v6
				c0,0.2,0.1,0.4,0.2,0.5l3.7,2.1c0.1,0.1,0.3,0,0.5-0.1l5.2-3c0.2-0.1,0.4-0.3,0.5-0.5l3.7-6.4c0.1-0.2,0.2-0.5,0.2-0.7v-6
				c0-0.2-0.1-0.4-0.2-0.5l-3.7-2.1c-0.1-0.1-0.3-0.1-0.5,0L113.7,623.9L113.7,623.9z"/>
			<path id="path6614" class="st4" d="M122.7,629.8l-3.7,6.5l-5.3,3l-3.7-2.2V631l3.7-6.5l5.3-3l3.7,2.2V629.8L122.7,629.8z"/>
			<path id="path6616" class="st3" d="M119.9,630.2v-1.7l0.4-0.2c0,0,0.4-0.2,0.4,0.2v0.8c0,0,0,0.5-0.4,0.7L119.9,630.2z
				 M119.2,626.1v5.3l1.1-0.6c1.1-0.6,1.1-1.9,1.1-1.9v-0.8c0,0,0-1.2-1.1-0.6l-0.4,0.2v-2.1L119.2,626.1L119.2,626.1z M117,628.6
				c0-0.3,0.2-0.6,0.5-0.8c0.2-0.1,0.5,0,0.5,0.3v2.8c0,0.3-0.2,0.6-0.5,0.8c-0.2,0.1-0.5,0-0.5-0.3V628.6L117,628.6z M116.4,629
				v2.8c0,0.7,0.5,1,1.1,0.6c0.6-0.4,1.1-1.2,1.1-1.9v-2.8c0-0.7-0.5-1-1.1-0.6C116.9,627.4,116.4,628.3,116.4,629L116.4,629z
				 M114.6,628.7v4.6l-0.8,0.5v0.8l2.2-1.3v-0.8l-0.8,0.5v-4.6L114.6,628.7L114.6,628.7z M111.3,632.2l0.7-0.4v-0.3
				c0-0.3,0.2-0.6,0.5-0.8l0,0c0.2-0.1,0.5,0,0.5,0.3v0.6c0,0.2-0.1,0.5-0.3,0.6l-0.6,0.6c-0.4,0.4-0.7,1.1-0.7,1.6v0.3
				c0,0.7,0.5,1,1.1,0.6c0.6-0.4,1.1-1.2,1.1-1.9v-0.3l-0.7,0.4v0.3c0,0.3-0.2,0.6-0.5,0.8c-0.2,0.1-0.5,0-0.5-0.3V634
				c0-0.2,0.1-0.5,0.3-0.6l0.6-0.6c0.4-0.4,0.7-1.1,0.7-1.6v-0.6c0-0.7-0.5-1-1.1-0.6l0,0c-0.6,0.4-1.1,1.2-1.1,1.9"/>
			<path id="path6618" class="st5" d="M113.7,639.9c-0.2,0.1-0.4,0.1-0.5,0.1l-3.7-2.1c-0.1-0.1-0.2-0.2-0.2-0.5v-6
				c0-0.2,0.1-0.5,0.2-0.7l3.7-6.4c0.1-0.2,0.3-0.4,0.5-0.5l5.2-3c0.2-0.1,0.4-0.1,0.5,0l3.7,2.1c0.1,0.1,0.2,0.2,0.2,0.5v6
				c0,0.2-0.1,0.5-0.2,0.7l-3.7,6.4c-0.1,0.2-0.3,0.4-0.5,0.5L113.7,639.9L113.7,639.9z M113.7,639.9l5.2-3c0.2-0.1,0.4-0.3,0.5-0.5
				l3.7-6.4c0.1-0.2,0.2-0.5,0.2-0.7v-6c0-0.2-0.1-0.4-0.2-0.5l-3.7-2.1c-0.1-0.1-0.3-0.1-0.5,0l-5.2,3c-0.2,0.1-0.4,0.3-0.5,0.5
				l-3.7,6.4c-0.1,0.2-0.2,0.5-0.2,0.7v6c0,0.2,0.1,0.4,0.2,0.5l3.7,2.1C113.4,640.1,113.6,640,113.7,639.9L113.7,639.9z"/>
		</g>
	</g>
</g>
<g>
	<g id="g4197_1_" transform="matrix(1.25,0,0,-1.25,0,743.62267)">
		<g id="g4199_1_">
			<path id="path4201_1_" class="st3" d="M142.4,579.5c0.1-0.1,0.3-0.1,0.4,0c0,0,0.1,0,0.1,0.1l0.3,0.4l0,0l5.2,7.4c0,0,0,0,0,0
				c0,0,0,0.1,0.1,0.1c0.1,0.3-0.1,0.7-0.4,0.9c0,0-0.1,0.1-0.1,0.1l-11,6.4c-0.3,0.2-0.5,0-0.5-0.3c0-0.1,0-0.2,0.1-0.3
				c0,0,0,0,0,0l5.4-14c0.1-0.2,0.1-0.2,0.2-0.4C142.1,579.7,142.3,579.6,142.4,579.5z"/>
			<path id="path4203_1_" class="st4" d="M142.4,579.6c0.1-0.1,0.3-0.1,0.3,0l5.5,7.8c0,0.1,0,0.1,0,0.2c0,0.1-0.1,0.3-0.1,0.4
				c-0.1,0.1-0.2,0.2-0.3,0.3l-11,6.4c-0.1,0-0.1,0.1-0.2,0c-0.1,0-0.2-0.1-0.2-0.3c0-0.1,0-0.2,0.1-0.3l5.5-14.2c0,0,0,0,0,0
				c0,0,0,0,0,0c0,0,0-0.1,0.1-0.1C142.2,579.8,142.3,579.7,142.4,579.6C142.4,579.6,142.4,579.6,142.4,579.6L142.4,579.6z
				 M147.9,588.3L147.9,588.3L147.9,588.3L147.9,588.3z"/>
			<linearGradient id="path4205_2_" gradientUnits="userSpaceOnUse" x1="136.3471" y1="587.145" x2="151.4815" y2="587.145">
				<stop  offset="0" style="stop-color:#EEEBEA"/>
				<stop  offset="0" style="stop-color:#E0DBD8"/>
				<stop  offset="0" style="stop-color:#D7D2CE"/>
				<stop  offset="6.786538e-02" style="stop-color:#C9C4C0"/>
				<stop  offset="0.1461" style="stop-color:#B4B0AB"/>
				<stop  offset="0.5225" style="stop-color:#E8E7E7"/>
				<stop  offset="0.6579" style="stop-color:#D8D6D5"/>
				<stop  offset="0.8764" style="stop-color:#B4B0AB"/>
				<stop  offset="1" style="stop-color:#DADADA"/>
				<stop  offset="1" style="stop-color:#B3B2B2"/>
			</linearGradient>
			<path id="path4205_1_" class="st7" d="M142.4,579.5c0.1-0.1,0.3-0.1,0.4,0c0,0,0.1,0,0.1,0.1l0.3,0.4l0,0l5.2,7.4c0,0,0,0,0,0
				c0,0,0,0.1,0.1,0.1c0.1,0.3-0.1,0.7-0.4,1c0,0-0.1,0.1-0.1,0.1l-11,6.4c-0.3,0.2-0.5,0-0.5-0.3c0-0.1,0-0.2,0.1-0.3c0,0,0,0,0,0
				l5.4-14c0.1-0.2,0.1-0.3,0.2-0.4C142.1,579.7,142.3,579.5,142.4,579.5z"/>
		</g>
	</g>
	
		<linearGradient id="SVGID_3_" gradientUnits="userSpaceOnUse" x1="233.7226" y1="325.7897" x2="235.7375" y2="325.7897" gradientTransform="matrix(1 0 0 -1 -56.7341 353.5279)">
		<stop  offset="0" style="stop-color:#EEEBEA"/>
		<stop  offset="0" style="stop-color:#E0DBD8"/>
		<stop  offset="0" style="stop-color:#D7D2CE"/>
		<stop  offset="6.786538e-02" style="stop-color:#C9C4C0"/>
		<stop  offset="0.1461" style="stop-color:#B4B0AB"/>
		<stop  offset="0.5225" style="stop-color:#E8E7E7"/>
		<stop  offset="0.6579" style="stop-color:#D8D6D5"/>
		<stop  offset="0.8764" style="stop-color:#B4B0AB"/>
		<stop  offset="1" style="stop-color:#DADADA"/>
		<stop  offset="1" style="stop-color:#B3B2B2"/>
	</linearGradient>
	<path class="st8" d="M179,46.7c0,0.3-0.3,0.7-0.7,0.9c-0.8,0.3-1.3,0.3-1.3-0.3V7.7h2V46.7z"/>
</g>
<g>
	
		<linearGradient id="path8210_2_" gradientUnits="userSpaceOnUse" x1="30.3672" y1="-1.5148" x2="54.9288" y2="-1.5148" gradientTransform="matrix(0.866 -0.5 0 1.1547 17.4944 70.0739)">
		<stop  offset="0" style="stop-color:#EEEBEA"/>
		<stop  offset="0" style="stop-color:#E0DBD8"/>
		<stop  offset="0" style="stop-color:#D7D2CE"/>
		<stop  offset="6.786538e-02" style="stop-color:#C9C4C0"/>
		<stop  offset="0.1461" style="stop-color:#B4B0AB"/>
		<stop  offset="0.5225" style="stop-color:#E8E7E7"/>
		<stop  offset="0.6579" style="stop-color:#D8D6D5"/>
		<stop  offset="0.8764" style="stop-color:#B4B0AB"/>
		<stop  offset="1" style="stop-color:#DADADA"/>
		<stop  offset="1" style="stop-color:#B3B2B2"/>
	</linearGradient>
	<path id="path8210_1_" class="st9" d="M54.4,36.2c-0.2,0.1-0.5,0.4-0.7,0.7c-0.1,0.1-0.1,0.2-0.1,0.3l-0.5,1.2l0,0l-9.2,23.8
		c0,0,0,0,0,0c0,0.1-0.1,0.2-0.1,0.3c-0.1,0.6,0.2,1.1,0.7,0.9c0.1,0,0.2-0.1,0.2-0.1l19.4-11.2c0.5-0.3,0.9-1,0.9-1.6
		c0-0.2,0-0.3-0.1-0.5c0,0,0,0,0,0l-9.6-13.7c-0.1-0.2-0.2-0.2-0.3-0.3C54.9,36.1,54.7,36.1,54.4,36.2L54.4,36.2z"/>
	
		<linearGradient id="SVGID_4_" gradientUnits="userSpaceOnUse" x1="111.1652" y1="288.685" x2="113.1801" y2="288.685" gradientTransform="matrix(1 0 0 -1 -56.7341 353.5279)">
		<stop  offset="0" style="stop-color:#EEEBEA"/>
		<stop  offset="0" style="stop-color:#E0DBD8"/>
		<stop  offset="0" style="stop-color:#D7D2CE"/>
		<stop  offset="6.786538e-02" style="stop-color:#C9C4C0"/>
		<stop  offset="0.1461" style="stop-color:#B4B0AB"/>
		<stop  offset="0.5225" style="stop-color:#E8E7E7"/>
		<stop  offset="0.6579" style="stop-color:#D8D6D5"/>
		<stop  offset="0.8764" style="stop-color:#B4B0AB"/>
		<stop  offset="1" style="stop-color:#DADADA"/>
		<stop  offset="1" style="stop-color:#B3B2B2"/>
	</linearGradient>
	<path class="st10" d="M56.4,83.8c0,0.3-0.3,0.7-0.7,0.9C55,85,54.4,85,54.4,84.3V44.8h2V83.8z"/>
</g>
</svg>
