<?xml version="1.0" encoding="utf-8"?>
<!-- Generator: Adobe Illustrator 22.0.1, SVG Export Plug-In . SVG Version: 6.00 Build 0)  -->
<svg version="1.1" id="Layer_1" xmlns="http://www.w3.org/2000/svg" xmlns:xlink="http://www.w3.org/1999/xlink" x="0px" y="0px"
	 viewBox="0 0 300 300" style="enable-background:new 0 0 300 300;" xml:space="preserve">
<style type="text/css">
	.st0{fill:url(#SVGID_1_);}
	.st1{fill:url(#SVGID_2_);}
	.st2{fill:#616160;}
	.st3{fill:#E30613;stroke:#ED6B6E;stroke-width:0.1815;stroke-miterlimit:10;}
	.st4{fill:#9A9C9B;stroke:#020203;stroke-width:0.4571;stroke-miterlimit:10;}
	.st5{fill:#373F3E;stroke:#FFFFFF;stroke-width:1.1241;stroke-miterlimit:10;}
	.st6{fill:#FFFFFF;}
	.st7{fill:#6CB75A;}
	.st8{fill:#231F20;}
	.st9{fill:#A1CD91;}
	.st10{fill:#304048;}
	.st11{fill:#3C4F58;}
	.st12{fill:#FBFAF9;}
	.st13{fill:#E8E5D9;}
	.st14{fill:#8AC26E;}
	.st15{fill:#EF7B6F;}
	.st16{fill:#F1F2F2;}
	.st17{fill:url(#SVGID_3_);}
	.st18{fill:url(#SVGID_4_);}
	.st19{fill:url(#SVGID_5_);}
	.st20{fill:#676767;}
	.st21{fill:url(#SVGID_6_);}
	.st22{fill:url(#SVGID_7_);}
	.st23{fill:url(#SVGID_8_);}
	.st24{fill:url(#SVGID_9_);}
	.st25{fill:url(#SVGID_10_);}
	.st26{fill:url(#SVGID_11_);}
	.st27{fill:url(#SVGID_12_);}
	.st28{fill:url(#SVGID_13_);}
	.st29{fill:url(#SVGID_14_);}
	.st30{fill:url(#SVGID_15_);}
	.st31{fill:url(#SVGID_16_);}
	.st32{fill:url(#SVGID_17_);}
	.st33{fill:#911915;}
	.st34{fill:#70150F;}
	.st35{fill:url(#SVGID_18_);}
	.st36{fill:#020203;}
	.st37{fill:url(#SVGID_19_);}
	.st38{fill:#343434;}
	.st39{fill:url(#SVGID_20_);}
	.st40{fill:url(#SVGID_21_);}
	.st41{fill:url(#SVGID_22_);}
	.st42{fill:url(#SVGID_23_);}
	.st43{fill:url(#SVGID_24_);}
	.st44{fill:url(#SVGID_25_);}
	.st45{fill:url(#SVGID_26_);}
	.st46{fill:url(#SVGID_27_);}
	.st47{fill:url(#SVGID_28_);}
	.st48{fill:url(#SVGID_29_);}
	.st49{fill:url(#SVGID_30_);}
	.st50{fill:url(#SVGID_31_);}
	.st51{fill:url(#SVGID_32_);}
	.st52{fill:url(#SVGID_33_);}
	.st53{fill:url(#SVGID_34_);}
	.st54{fill:url(#SVGID_35_);}
	.st55{fill:url(#SVGID_36_);}
	.st56{fill:url(#SVGID_37_);}
	.st57{fill:url(#SVGID_38_);}
	.st58{fill:url(#SVGID_39_);}
	.st59{fill:url(#SVGID_40_);}
	.st60{fill:url(#SVGID_41_);}
	.st61{fill:url(#SVGID_42_);}
	.st62{fill:#F59D1E;}
	.st63{fill:url(#SVGID_43_);}
	.st64{fill:url(#SVGID_44_);}
	.st65{fill:url(#SVGID_45_);}
	.st66{fill:url(#SVGID_46_);}
	.st67{fill:url(#SVGID_47_);}
	.st68{fill:url(#SVGID_48_);}
	.st69{fill:url(#SVGID_49_);}
	.st70{fill:url(#SVGID_50_);}
	.st71{fill:url(#SVGID_51_);}
	.st72{fill:url(#SVGID_52_);}
	.st73{fill:url(#SVGID_53_);}
	.st74{fill:url(#SVGID_54_);}
	.st75{fill:url(#SVGID_55_);}
	.st76{fill:url(#SVGID_56_);}
	.st77{fill:url(#SVGID_57_);}
	.st78{fill:url(#SVGID_58_);}
	.st79{fill:#96191E;}
	.st80{font-family:'TimesNewRomanPS-BoldMT';}
	.st81{font-size:22.4825px;}
	.st82{font-size:17.986px;}
	.st83{fill:url(#SVGID_59_);}
	.st84{fill:url(#SVGID_60_);}
	.st85{fill:#66B32E;}
	.st86{fill:url(#SVGID_61_);}
	.st87{fill:url(#SVGID_62_);}
	.st88{fill:url(#SVGID_63_);}
	.st89{fill:url(#SVGID_64_);}
</style>
<g>
	
		<linearGradient id="SVGID_1_" gradientUnits="userSpaceOnUse" x1="30.5357" y1="817.231" x2="36.1633" y2="817.231" gradientTransform="matrix(6.123234e-17 -1 1 6.123234e-17 -543.2965 103.727)">
		<stop  offset="0" style="stop-color:#E4E0DF"/>
		<stop  offset="0" style="stop-color:#DEDBD7"/>
		<stop  offset="4.220345e-02" style="stop-color:#CAC8C6"/>
		<stop  offset="0.1232" style="stop-color:#9A9B9B"/>
		<stop  offset="0.2338" style="stop-color:#585F62"/>
		<stop  offset="0.264" style="stop-color:#475155"/>
		<stop  offset="0.3518" style="stop-color:#75797D"/>
		<stop  offset="0.4523" style="stop-color:#ABACAF"/>
		<stop  offset="0.5294" style="stop-color:#D0D0D2"/>
		<stop  offset="0.573" style="stop-color:#DFDFE0"/>
		<stop  offset="0.6333" style="stop-color:#D4D5D7"/>
		<stop  offset="0.7347" style="stop-color:#BABCBF"/>
		<stop  offset="0.8642" style="stop-color:#8F969B"/>
		<stop  offset="0.8764" style="stop-color:#8B9298"/>
		<stop  offset="1" style="stop-color:#D1D2D4"/>
		<stop  offset="1" style="stop-color:#A7A9AB"/>
	</linearGradient>
	<rect x="252.4" y="68.8" class="st0" width="43" height="3.4"/>
	<g>
		
			<linearGradient id="SVGID_2_" gradientUnits="userSpaceOnUse" x1="25.5436" y1="777.3381" x2="40.7926" y2="777.3381" gradientTransform="matrix(6.123234e-17 -1 1 6.123234e-17 -543.2965 103.727)">
			<stop  offset="5.494510e-03" style="stop-color:#020203"/>
			<stop  offset="0.5" style="stop-color:#1A1A1A"/>
			<stop  offset="1" style="stop-color:#020203"/>
		</linearGradient>
		<path class="st1" d="M253.3,64.6v12c0,0.9-0.7,1.6-1.6,1.6h-35.3c-0.9,0-1.6-0.7-1.6-1.6v-12c0-0.9,0.7-1.6,1.6-1.6h35.3
			C252.6,62.9,253.3,63.7,253.3,64.6L253.3,64.6z"/>
		<circle class="st2" cx="246.1" cy="70.6" r="4.9"/>
		<circle class="st2" cx="234.2" cy="70.6" r="4.9"/>
		<circle class="st3" cx="222.4" cy="70.6" r="4.9"/>
	</g>
</g>
<path class="st4" d="M309.6,86.4V197h-94.2c-5.4,0-9.8,4.4-9.8,9.8V301H95v-95.5c0-4.7-3.8-8.5-8.5-8.5H-9V86.4h93.6
	C90.4,86.4,95,81.7,95,76v-93.6h110.6v93.1c0,6,4.9,10.9,10.9,10.9H309.6z"/>
<path class="st5" d="M309.6,96.3H208.4c-7.1,0-12.8-5.7-12.8-12.8V-17.6H105V83.6c0,7.1-5.7,12.8-12.8,12.8H-9v90.7H92.2
	c7.1,0,12.8,5.7,12.8,12.8v101.2h90.7V199.8c0-7.1,5.7-12.8,12.8-12.8h101.2L309.6,96.3L309.6,96.3L309.6,96.3z"/>
<g>
	<rect x="-8.7" y="140.6" class="st6" width="14.3" height="2.1"/>
	<rect x="15.3" y="140.6" class="st6" width="14.3" height="2.1"/>
	<rect x="39.2" y="140.6" class="st6" width="14.3" height="2.1"/>
	<rect x="63.2" y="140.6" class="st6" width="14.3" height="2.1"/>
	<rect x="-8.7" y="140.6" class="st6" width="14.3" height="2.1"/>
	<rect x="15.3" y="140.6" class="st6" width="14.3" height="2.1"/>
	<rect x="39.2" y="140.6" class="st6" width="14.3" height="2.1"/>
	<rect x="63.2" y="140.6" class="st6" width="14.3" height="2.1"/>
</g>
<g>
	<rect x="231.1" y="140.6" class="st6" width="14.3" height="2.1"/>
	<rect x="255.1" y="140.6" class="st6" width="14.3" height="2.1"/>
	<rect x="279.1" y="140.6" class="st6" width="14.3" height="2.1"/>
	<rect x="303.1" y="140.6" class="st6" width="6.8" height="2.1"/>
	<rect x="231.1" y="140.6" class="st6" width="14.3" height="2.1"/>
	<rect x="255.1" y="140.6" class="st6" width="14.3" height="2.1"/>
	<rect x="279.1" y="140.6" class="st6" width="14.3" height="2.1"/>
	<rect x="303.1" y="140.6" class="st6" width="7.2" height="2.1"/>
</g>
<g>
	<rect x="153.3" y="290.4" class="st6" width="2.1" height="10.6"/>
	<rect x="153.3" y="266.4" class="st6" width="2.1" height="14.3"/>
	<rect x="153.3" y="242.5" class="st6" width="2.1" height="14.3"/>
	<rect x="153.3" y="218.5" class="st6" width="2.1" height="14.3"/>
</g>
<g>
	<rect x="153.3" y="50.6" class="st6" width="2.1" height="14.3"/>
	<rect x="153.3" y="26.6" class="st6" width="2.1" height="14.3"/>
	<rect x="153.3" y="2.6" class="st6" width="2.1" height="14.3"/>
	<rect x="153.3" y="-17.6" class="st6" width="2.1" height="10.6"/>
</g>
<g>
	<g>
		<path class="st7" d="M187.3,274.5c-8.4,1.7-17.1,1.7-25.6,0c-1.3-0.3-2.3-1.4-2.3-2.8c0-16.2,0-37.6,0-53.8c0-3.5,2.6-6.5,6-7
			c6-0.8,12-0.8,18,0c3.5,0.5,6,3.5,6,7v53.8C189.6,273.1,188.6,274.2,187.3,274.5z"/>
		<path class="st8" d="M181.1,210.6c-4.3-0.5-8.7-0.5-13,0v6.8h13V210.6z"/>
		<path class="st7" d="M183.1,214.3c-2.8-0.4-5.6-0.6-8.5-0.6c-2.8,0-5.7,0.2-8.5,0.6c-1.7,0.3-3,1.7-3,3.5v56.9
			c7.6,1.4,15.4,1.4,23,0v-56.8C186,216.1,184.8,214.6,183.1,214.3z"/>
		<path class="st9" d="M183.3,234.2h-17.5l2.7-17.9c4-0.7,8.1-0.7,12.1,0L183.3,234.2z"/>
		<path class="st7" d="M186.8,212.2c0.8,1.2,1.2,2.8,1.2,4.5v49.4c-4,1.4-8.5,2.2-13.4,2.2s-9.4-0.8-13.4-2.2v-49.4
			c0-1.7,0.5-3.2,1.2-4.5c-1.7,1.3-2.8,3.4-2.8,5.7c0,14.2,0,32.4,0,47.5v6.3c0,0.1,0,0.3,0,0.4v0.1c0,0.1,0.1,0.3,0.1,0.4v0.1
			c0.1,0.1,0.1,0.3,0.1,0.3s0,0,0,0.1c0.1,0.1,0.1,0.3,0.2,0.3l0,0c0.1,0.3,0.3,0.5,0.6,0.6l0,0c0.1,0.1,0.2,0.1,0.3,0.3l0,0
			c0.1,0.1,0.3,0.1,0.4,0.2l0,0c0.1,0.1,0.3,0.1,0.4,0.1c8.4,1.7,17.1,1.7,25.6,0c0.1,0,0.3-0.1,0.4-0.1l0,0
			c0.1-0.1,0.3-0.1,0.4-0.2l0,0c0.1-0.1,0.3-0.1,0.3-0.3l0,0c0.2-0.2,0.4-0.4,0.6-0.6l0,0c0.1-0.1,0.1-0.2,0.2-0.3c0,0,0,0,0-0.1
			c0.1-0.1,0.1-0.3,0.1-0.3v-0.1c0.1-0.1,0.1-0.3,0.1-0.4v-0.1c0-0.1,0-0.3,0-0.4v-53.8C189.6,215.5,188.5,213.5,186.8,212.2z"/>
		<path class="st10" d="M163.9,259l-1,1.2c-0.8,0.9-2.2,0.4-2.2-0.8v-27.8l3.2,7.4V259z"/>
		<path class="st11" d="M162,259.9c-0.2,0-0.6-0.1-0.6-0.5V235l1.7,4.1v19.7l-0.8,1C162.2,259.9,162.1,259.9,162,259.9z"/>
		<g>
			<path class="st7" d="M159.9,233.3l-2,1.1c-0.6,0.3-1.1,1-1.2,1.7l-0.1,0.7l3-1.1l0.6-1.7l1-0.4L161,233L159.9,233.3z"/>
			<polygon class="st10" points="159.4,235.4 156.5,236.4 156.4,236.8 159.5,235.6 160.1,233.9 161.1,233.5 161.1,233.3 160,233.7 
							"/>
		</g>
		<path class="st10" d="M185.3,259l1,1.2c0.8,0.9,2.2,0.4,2.2-0.8v-27.8l-3.2,7.4V259z"/>
		<path class="st11" d="M187.2,259.9c0.2,0,0.6-0.1,0.6-0.5V235l-1.7,4.1v19.7l0.8,1C186.9,259.9,187,259.9,187.2,259.9z"/>
		<g>
			<path class="st7" d="M189.3,233.3l2,1.1c0.6,0.3,1.1,1,1.2,1.7l0.1,0.7l-3-1.1L189,234l-1-0.4l0.2-0.6L189.3,233.3z"/>
			<polygon class="st10" points="189.8,235.4 192.6,236.4 192.7,236.8 189.7,235.6 189,233.9 188,233.5 188.1,233.3 189.2,233.7 			
				"/>
		</g>
		<g>
			<path class="st12" d="M162.4,216.7c0,0,0.1-3.1,4.7-3.2v-1.7C167.1,211.7,162.5,211.8,162.4,216.7z"/>
			<path class="st13" d="M162.4,216.7c0,0,0-0.1,0.1-0.3c0.5-4.1,4.6-4.2,4.6-4.2v-0.5C167.1,211.7,162.5,211.8,162.4,216.7z"/>
			<path class="st11" d="M166.7,211.7v1.4c-2.1,0.1-3.3,0.8-3.9,1.6c-0.2,0.6-0.3,1.2-0.4,2.1c0,0,0.1-3.1,4.7-3.2v-1.7
				C167.1,211.7,167,211.7,166.7,211.7z"/>
		</g>
		<g>
			<path class="st12" d="M186.8,216.7c0,0-0.1-3.1-4.7-3.2v-1.7C182.1,211.7,186.7,211.8,186.8,216.7z"/>
			<path class="st13" d="M186.8,216.7c0,0,0-0.1-0.1-0.3c-0.5-4.1-4.6-4.2-4.6-4.2v-0.5C182.1,211.7,186.7,211.8,186.8,216.7z"/>
			<path class="st11" d="M182.5,211.7v1.4c2.1,0.1,3.3,0.8,3.9,1.6c0.2,0.6,0.3,1.2,0.4,2.1c0,0-0.1-3.1-4.7-3.2v-1.7
				C182.1,211.7,182.2,211.7,182.5,211.7z"/>
		</g>
		<path class="st14" d="M168.9,213.3c3.8-0.3,7.6-0.3,11.3,0v-1.4c-3.8-0.3-7.6-0.3-11.3,0V213.3z"/>
		<path class="st10" d="M184.3,238.6h-19.4c0,0-1.4-3-2.6-5.6c-0.6-1.3,0.1-2.8,1.5-3.2c7.1-1.8,14.5-1.8,21.6,0
			c1.4,0.3,2.1,1.9,1.5,3.2C185.7,235.7,184.3,238.6,184.3,238.6z"/>
		<path class="st11" d="M165.3,238c-0.4-0.9-1.4-3.1-2.4-5.1c-0.2-0.5-0.2-0.9,0-1.4s0.6-0.7,1-0.8c3.5-0.9,7.1-1.4,10.6-1.4
			s7.2,0.5,10.6,1.4c0.5,0.1,0.8,0.5,1,0.8c0.2,0.5,0.2,0.9,0,1.4c-0.9,2-1.9,4.3-2.4,5.1H165.3z"/>
		<path class="st10" d="M184.3,260.5h-19.4c0,0-0.3,0.3-0.6,0.7c-1.6,1.7-0.6,4.5,1.7,4.8c5.8,0.9,11.7,0.9,17.5,0
			c2.3-0.4,3.2-3.1,1.7-4.8C184.6,260.8,184.3,260.5,184.3,260.5z"/>
		<path class="st11" d="M174.6,266c-2.9,0-5.8-0.3-8.6-0.7c-0.8-0.1-1.4-0.6-1.7-1.4s-0.1-1.6,0.5-2.2c0.2-0.2,0.3-0.4,0.5-0.5h18.8
			c0.1,0.1,0.3,0.3,0.5,0.5c0.6,0.6,0.7,1.4,0.5,2.2c-0.3,0.8-0.9,1.3-1.7,1.4C180.4,265.7,177.4,266,174.6,266z"/>
		<path class="st15" d="M189.5,272.6c-0.5-0.5-1.2-0.6-2.4,0.6s-4.9,0.8-5.2,2.1c1.8-0.2,3.7-0.5,5.5-0.8
			C188.4,274.3,189.2,273.5,189.5,272.6L189.5,272.6z"/>
		<path class="st15" d="M159.7,272.6c0.5-0.5,1.2-0.6,2.4,0.6s4.9,0.8,5.2,2.1c-1.8-0.2-3.7-0.5-5.5-0.8
			C160.8,274.3,160,273.5,159.7,272.6L159.7,272.6z"/>
		<path class="st16" d="M168.7,273.8v1.7c3.9,0.4,7.8,0.4,11.7,0v-1.7C176.5,274.2,172.7,274.2,168.7,273.8z"/>
	</g>
</g>
<g>
	<g>
		
			<linearGradient id="SVGID_3_" gradientUnits="userSpaceOnUse" x1="905.4075" y1="28211.416" x2="1077.4575" y2="28211.416" gradientTransform="matrix(-5.450000e-02 0 0 -7.800000e-03 183.1612 313.708)">
			<stop  offset="0" style="stop-color:#5B5B5D"/>
			<stop  offset="0.1412" style="stop-color:#FFFFFF"/>
			<stop  offset="0.8941" style="stop-color:#A6A8AA"/>
			<stop  offset="1" style="stop-color:#FFFFFF"/>
		</linearGradient>
		<path class="st17" d="M134,93.4c0.1-0.1,0.3-0.3,0.5-0.4c-1.4,0.4-2.8,0.6-4.2,0.6c-0.4,0-0.7,0-1.1,0c0,0,0,0-0.1,0
			c0,0,0,0-0.1,0c-1.7,0.1-3.4-0.1-5.3-0.6c0.1,0.1,0.3,0.3,0.5,0.4c1.9,0.6,3.4,0.9,4.9,1c0,0,0,0,0.1,0c0,0,0,0,0.1,0
			C130.6,94.3,132.2,94,134,93.4z"/>
		
			<linearGradient id="SVGID_4_" gradientUnits="userSpaceOnUse" x1="819.0504" y1="1226.0118" x2="991.0996" y2="1226.0118" gradientTransform="matrix(-9.720000e-02 -8.330000e-02 6.930000e-02 -8.090000e-02 134.4178 258.0355)">
			<stop  offset="5.098000e-02" style="stop-color:#F2959A"/>
			<stop  offset="0.8941" style="stop-color:#911917"/>
			<stop  offset="1" style="stop-color:#EA506A"/>
		</linearGradient>
		<path class="st18" d="M134.4,93c-0.1,0.1-0.3,0.3-0.5,0.4c-0.5,0.3-0.9,0.6-1.4,0.8c-1.2,0.4-2.3,0.5-3.4,0.5H129
			c-0.1,0-0.1,0-0.1,0v0.6c0.1,0,0.1,0,0.1,0h0.1c1.3-0.1,2.6-0.2,3.8-0.5c0.7-0.5,1.4-1,2-1.6c0.2-0.1,0.3-0.3,0.5-0.5
			s0.4-0.5,0.6-0.6c0.5-0.6,0.9-1.2,1.2-1.7c2-3.4,3-7.7,2.9-12.9c0-0.2,0-0.3,0-0.5c-0.1,0.4-0.3,0.8-0.7,1.2c0,0.1,0,0.3,0,0.4
			c0,3.6-0.7,7.2-2.1,10.6C136.5,90.8,135.5,92.1,134.4,93z"/>
		
			<linearGradient id="SVGID_5_" gradientUnits="userSpaceOnUse" x1="2371.3848" y1="-418.7781" x2="2543.4346" y2="-418.7781" gradientTransform="matrix(-2.480000e-02 -6.900000e-02 8.510000e-02 -3.060000e-02 235.9894 243.4809)">
			<stop  offset="5.098000e-02" style="stop-color:#F2959A"/>
			<stop  offset="0.7809" style="stop-color:#911917"/>
		</linearGradient>
		<path class="st19" d="M137.3,90.3c-0.4,0.6-0.8,1.2-1.2,1.7c0.3-0.1,0.5-0.2,0.8-0.3c1-0.5,1.9-1.1,2.8-1.9
			c0.8-4,1.2-8.5,1.2-13.3l-0.6,1C140.2,82.6,139.3,86.9,137.3,90.3z"/>
		<path class="st20" d="M136.8,91.8c-0.3,0.1-0.5,0.2-0.8,0.3c-0.2,0.2-0.4,0.5-0.6,0.6c0.1-0.1,0.3-0.1,0.5-0.1
			C136.5,92.4,136.8,92.1,136.8,91.8z"/>
		
			<linearGradient id="SVGID_6_" gradientUnits="userSpaceOnUse" x1="4573.541" y1="7915.001" x2="4745.6138" y2="7915.001" gradientTransform="matrix(-3.010000e-02 0 0 -2.540000e-02 278.7178 291.45)">
			<stop  offset="0" style="stop-color:#5B5B5D"/>
			<stop  offset="0.1412" style="stop-color:#FFFFFF"/>
			<stop  offset="0.8941" style="stop-color:#A6A8AA"/>
			<stop  offset="1" style="stop-color:#FFFFFF"/>
		</linearGradient>
		<path class="st21" d="M136.8,91.8c0,0.3-0.3,0.6-0.9,0.8c1.3-0.5,2.5-1.1,3.6-2c0.6-0.5,1.2-1,1.6-1.7c0.1-0.3,0-0.5-0.1-0.6
			c-0.4,0.7-0.8,1.2-1.2,1.6C138.7,90.7,137.7,91.4,136.8,91.8z"/>
		<path class="st6" d="M135.9,92.6c-0.1,0.1-0.3,0.1-0.5,0.1c-0.1,0.2-0.3,0.3-0.5,0.5c1.4-0.3,2.8-1,4.1-1.9
			c0.8-0.6,1.4-1.2,1.9-1.9c0.1-0.2,0.1-0.4,0.1-0.6c-0.5,0.7-1,1.3-1.6,1.7C138.3,91.5,137.1,92.2,135.9,92.6z"/>
		
			<linearGradient id="SVGID_7_" gradientUnits="userSpaceOnUse" x1="31726.207" y1="865.5355" x2="31898.2559" y2="865.5355" gradientTransform="matrix(-4.600000e-03 -6.200000e-03 2.530000e-02 -1.880000e-02 261.5988 306.1355)">
			<stop  offset="5.098000e-02" style="stop-color:#F2959A"/>
			<stop  offset="0.8941" style="stop-color:#911917"/>
			<stop  offset="1" style="stop-color:#EA506A"/>
		</linearGradient>
		<path class="st22" d="M134.9,93.3c-0.6,0.6-1.2,1.1-2,1.6c1.7-0.4,3.4-1,5-1.9c1.3-0.5,2.3-1.4,2.8-2.8c0.1-0.3,0.1-0.5,0.1-0.6
			c-0.5,0.7-1.1,1.4-1.9,1.9C137.7,92.3,136.3,93,134.9,93.3z"/>
		
			<linearGradient id="SVGID_8_" gradientUnits="userSpaceOnUse" x1="858.3017" y1="28551.1719" x2="1030.3517" y2="28551.1719" gradientTransform="matrix(-5.670000e-02 0 0 -7.800000e-03 182.6839 316.8081)">
			<stop  offset="0" style="stop-color:#5B5B5D"/>
			<stop  offset="0.1412" style="stop-color:#808183"/>
			<stop  offset="0.8941" style="stop-color:#1B2326"/>
			<stop  offset="1" style="stop-color:#FFFFFF"/>
		</linearGradient>
		<path class="st23" d="M132.6,94.3c0.5-0.3,1-0.5,1.4-0.8c-1.9,0.6-3.4,0.9-4.9,1c0,0,0,0-0.1,0c0,0,0,0-0.1,0
			c-1.4-0.1-3-0.4-4.9-1c0.5,0.3,0.9,0.6,1.4,0.8c1.1,0.4,2.2,0.5,3.3,0.5c0.1,0,0.1,0,0.1,0s0,0,0.1,0c0,0,0,0,0.1,0
			C130.3,94.8,131.5,94.7,132.6,94.3z"/>
		
			<linearGradient id="SVGID_9_" gradientUnits="userSpaceOnUse" x1="-58.0052" y1="105.6189" x2="-46.8006" y2="123.9328" gradientTransform="matrix(-1 0 0 -1 69.498 202.2688)">
			<stop  offset="0" style="stop-color:#A41B25"/>
			<stop  offset="0.1412" style="stop-color:#F2959A"/>
			<stop  offset="0.7697" style="stop-color:#911917"/>
			<stop  offset="1" style="stop-color:#EF7C88"/>
		</linearGradient>
		<path class="st24" d="M128.9,94.7c-1.1,0.1-2.2-0.1-3.3-0.5c-0.5-0.3-1-0.5-1.4-0.8c-0.1-0.1-0.3-0.3-0.5-0.4
			c-1.1-1-2.1-2.3-2.9-3.9c-1.4-3.4-2.1-7.1-2.1-10.9l0,0c0,0,0-0.1,0-0.2c-0.3-0.3-0.5-0.5-0.6-0.8l-0.1-0.1
			c-0.1,5.2,0.8,9.6,2.9,13.1c0.4,0.6,0.8,1.2,1.2,1.7c0.2,0.2,0.4,0.5,0.6,0.6s0.3,0.3,0.5,0.5c0.6,0.6,1.3,1.1,2,1.6
			c1.2,0.3,2.4,0.5,3.6,0.5L128.9,94.7z"/>
		<path class="st20" d="M122.4,92.6c0.1,0.1,0.3,0.1,0.5,0.1c-0.2-0.2-0.4-0.5-0.6-0.6c-0.3-0.1-0.5-0.2-0.7-0.3
			C121.4,92.1,121.8,92.4,122.4,92.6z"/>
		<path class="st6" d="M122.8,92.8c-0.1-0.1-0.3-0.1-0.5-0.1c-1.3-0.5-2.5-1.1-3.6-2c-0.6-0.5-1.2-1-1.6-1.7
			c0.1,0.2,0.1,0.4,0.1,0.6c0.5,0.7,1.1,1.4,1.9,1.9c1.4,0.9,2.7,1.6,4.1,1.9C123.1,93.1,123,92.9,122.8,92.8z"/>
		
			<linearGradient id="SVGID_10_" gradientUnits="userSpaceOnUse" x1="1269.4388" y1="735.4685" x2="1441.489" y2="735.4685" gradientTransform="matrix(-4.370000e-02 -2.450000e-02 0.489 -0.8707 -180.7339 763.9502)">
			<stop  offset="0" style="stop-color:#5B5B5D"/>
			<stop  offset="0.1412" style="stop-color:#FFFFFF"/>
			<stop  offset="0.8941" style="stop-color:#A6A8AA"/>
			<stop  offset="1" style="stop-color:#FFFFFF"/>
		</linearGradient>
		<path class="st25" d="M122.4,92.6c-0.6-0.3-0.9-0.5-0.9-0.8c-1-0.5-1.9-1.1-2.8-1.9c-0.4-0.4-0.8-0.9-1.2-1.6
			c-0.1,0.1-0.2,0.3-0.1,0.6c0.5,0.7,1,1.3,1.6,1.7C119.9,91.5,121.1,92.2,122.4,92.6z"/>
		
			<linearGradient id="SVGID_11_" gradientUnits="userSpaceOnUse" x1="-50.752" y1="111.7321" x2="-49.3133" y2="125.1105" gradientTransform="matrix(-1 0 0 -1 69.498 202.2688)">
			<stop  offset="5.098000e-02" style="stop-color:#F2959A"/>
			<stop  offset="0.7303" style="stop-color:#911917"/>
			<stop  offset="1" style="stop-color:#C1444B"/>
		</linearGradient>
		<path class="st26" d="M121.5,91.8c0.3,0.1,0.5,0.2,0.7,0.3c-0.5-0.6-0.8-1.2-1.2-1.7c-2-3.5-3-7.8-2.9-13.1l-0.6-0.5
			c-0.1,4.8,0.3,9.1,1.2,13.1C119.6,90.7,120.5,91.4,121.5,91.8z"/>
		
			<linearGradient id="SVGID_12_" gradientUnits="userSpaceOnUse" x1="-2034.7748" y1="-5427.7676" x2="-1862.725" y2="-5427.7676" gradientTransform="matrix(4.260000e-02 1.750000e-02 -1.200000e-02 2.910000e-02 138.9575 284.1729)">
			<stop  offset="5.098000e-02" style="stop-color:#F2959A"/>
			<stop  offset="0.8941" style="stop-color:#911917"/>
			<stop  offset="1" style="stop-color:#EA506A"/>
		</linearGradient>
		<path class="st27" d="M125.3,94.8c-0.7-0.5-1.4-1-2-1.6c-1.4-0.3-2.7-1-4.1-1.9c-0.8-0.6-1.4-1.2-1.9-1.9c0.1,0.2,0.1,0.4,0.1,0.6
			c0.5,1.4,1.4,2.4,2.8,2.8C121.9,93.8,123.6,94.5,125.3,94.8z"/>
		
			<radialGradient id="SVGID_13_" cx="-1890.7856" cy="1343.8965" r="56.0675" gradientTransform="matrix(-1.820000e-02 0 -2.000000e-04 -0.1251 82.3742 251.2792)" gradientUnits="userSpaceOnUse">
			<stop  offset="5.098000e-02" style="stop-color:#F2959A"/>
			<stop  offset="1" style="stop-color:#911917"/>
		</radialGradient>
		<path class="st28" d="M117.2,88.8c-0.1-0.3,0-0.5,0.1-0.6c0.4,0.7,0.8,1.2,1.2,1.6c-0.8-3.9-1.2-8.3-1.2-13.1
			c-0.6,0.5-1,1-1.3,1.7l0,0c0,0.1,0,0.3-0.1,0.4c-0.3,2.8-0.2,5.2,0.3,7.1c0.1,0.5,0.3,1.1,0.5,1.7C117,87.9,117.1,88.3,117.2,88.8
			z"/>
		
			<linearGradient id="SVGID_14_" gradientUnits="userSpaceOnUse" x1="178.4055" y1="1048.1565" x2="350.4554" y2="1048.1565" gradientTransform="matrix(-0.1281 0 0 -8.320000e-02 162.9774 160.7156)">
			<stop  offset="0" style="stop-color:#5C5C5E"/>
			<stop  offset="0.2784" style="stop-color:#808183"/>
			<stop  offset="1" style="stop-color:#272626"/>
		</linearGradient>
		<path class="st29" d="M128.2,80.6c-0.1-0.2,0-0.3,0.2-0.5c0.5-0.3,0.9-0.5,1.2-0.8c-0.2,0-0.4,0-0.5,0H129c0,0,0,0-0.1,0
			c-2.8,0.1-5.4-0.4-8.1-1.4c-1.4-0.5-2.2-1.2-2.3-1.9c0-0.7,0.1-1.4,0.1-2.1l0,0c0.1-1.6,0.3-3,0.6-4.1c0.4-1.6,0.7-2.3,1.1-2.1
			c2.8,0.5,5.6,0.7,8.5,0.6c0,0,0,0,0.1,0c0,0,0,0,0.1,0l0,0c2.3,0.1,4.7-0.1,7-0.4c0.1-0.2,0.1-0.4,0.3-0.5c0,0,0.1-0.1,0.1-0.2
			c0.2-0.1,0.4-0.3,0.5-0.6c0-0.1,0-0.1,0.1-0.1c-2.6,0.4-5.2,0.6-7.8,0.6c0,0,0,0-0.1,0c0,0,0,0-0.1,0c-2.7,0.1-5.4-0.2-8.1-0.6
			c0,0,0,0-0.1,0s-0.3,0-0.4,0c-0.6,0-1,0.4-1.1,1.2v0.1c-0.5,2.4-1,5.2-1.4,8.3c0,0.4-0.1,0.8-0.1,1.2c0,0.1,0.1,0.3,0.1,0.4
			c0.1,0.3,0.3,0.5,0.6,0.8C121.8,79.8,124.9,80.6,128.2,80.6z"/>
		
			<linearGradient id="SVGID_15_" gradientUnits="userSpaceOnUse" x1="178.4052" y1="1049.1787" x2="350.4555" y2="1049.1787" gradientTransform="matrix(-0.1281 0 0 -8.320000e-02 162.9774 160.7156)">
			<stop  offset="0" style="stop-color:#272626"/>
			<stop  offset="0.4667" style="stop-color:#808183"/>
			<stop  offset="0.7725" style="stop-color:#5C5C5E"/>
		</linearGradient>
		<path class="st30" d="M128.4,80.2c-0.2,0.1-0.3,0.3-0.2,0.5h0.1c0.3,0,0.5,0,0.8,0c0,0,0,0,0.1,0c0,0,0,0,0.1,0
			c3.6,0.2,7.1-0.6,10.3-2.5c0.4-0.3,0.6-0.7,0.7-1.2c0-0.4,0-0.8-0.1-1.2c-0.4-3.1-0.8-5.9-1.4-8.3v-0.1c-0.1-0.8-0.5-1.1-1.1-1.2
			c-0.1,0-0.3,0-0.4,0c0,0,0,0-0.1,0s-0.2,0-0.3,0.1c0,0.1,0,0.1-0.1,0.1c-0.1,0.3-0.3,0.5-0.5,0.6c0,0.1,0,0.1-0.1,0.2
			c-0.1,0.2-0.3,0.3-0.3,0.5c0.5-0.1,1-0.1,1.5-0.3c0.4-0.1,0.7,0.6,1.1,2.1c0.3,1,0.5,2.3,0.6,3.8l0,0c0.1,0.7,0.1,1.6,0.2,2.4
			c-0.1,0.8-0.8,1.4-2.3,1.9c-2.5,0.9-4.9,1.4-7.5,1.4C129.3,79.6,128.9,80,128.4,80.2z"/>
		
			<linearGradient id="SVGID_16_" gradientUnits="userSpaceOnUse" x1="-72.5394" y1="121.077" x2="-48.6918" y2="114.2089" gradientTransform="matrix(-1 0 0 -1 69.498 202.2688)">
			<stop  offset="0" style="stop-color:#F4A198"/>
			<stop  offset="0.4213" style="stop-color:#BD3F44"/>
			<stop  offset="1" style="stop-color:#EC867F"/>
		</linearGradient>
		<path class="st31" d="M120.9,89.2c0.8,1.7,1.8,3,2.9,3.9c1.8,0.5,3.6,0.7,5.3,0.6c0,0,0,0,0.1,0c0,0,0,0,0.1,0c0.4,0,0.7,0,1.1,0
			c1.4,0,2.8-0.3,4.2-0.6c1.1-1,2.1-2.3,2.9-3.9c1.4-3.4,2.1-7,2.1-10.6c0-0.1,0-0.3,0-0.4c-3.2,1.8-6.7,2.7-10.3,2.5c0,0,0,0-0.1,0
			c0,0,0,0-0.1,0c-0.3,0-0.5,0-0.8,0h-0.1c-3.3,0-6.4-0.8-9.4-2.5c0,0.1,0,0.2,0,0.2l0,0C118.8,82.1,119.6,85.7,120.9,89.2z"/>
		
			<linearGradient id="SVGID_17_" gradientUnits="userSpaceOnUse" x1="-48.5686" y1="127.0098" x2="-46.8883" y2="127.0098" gradientTransform="matrix(-1 0 0 -1 69.498 202.2688)">
			<stop  offset="5.098000e-02" style="stop-color:#F2959A"/>
			<stop  offset="1" style="stop-color:#911917"/>
		</linearGradient>
		<path class="st32" d="M116.3,76.2c0,0.5,0,1-0.1,1.6l1.2-1.1c0-0.5,0-0.9,0-1.4l-0.1-2.1l-0.4-0.1l-0.7-0.3L116.3,76.2z"/>
		<path class="st33" d="M116.3,77.7c0,0.3-0.1,0.5-0.1,0.8c0.3-0.6,0.7-1.2,1.3-1.7c0-0.1,0-0.1,0-0.1L116.3,77.7z"/>
		<path class="st34" d="M118.2,77.4c-0.1-0.1-0.1-0.3-0.1-0.4C118.1,77.1,118.1,77.2,118.2,77.4L118.2,77.4z"/>
		
			<linearGradient id="SVGID_18_" gradientUnits="userSpaceOnUse" x1="-879.2596" y1="113.3456" x2="-707.2097" y2="113.3456" gradientTransform="matrix(-2.890000e-02 0 0 -0.2411 96.3597 83.7866)">
			<stop  offset="0" style="stop-color:#911917"/>
			<stop  offset="0.6039" style="stop-color:#ED6A6F"/>
			<stop  offset="1" style="stop-color:#A41B25"/>
		</linearGradient>
		<path class="st35" d="M118.1,77.3c0-0.1,0-0.2,0-0.3c0-0.4,0-0.8,0.1-1.2c0.4-3.1,0.8-5.9,1.4-8.3v-0.1c0.1-0.8,0.5-1.1,1.1-1.2
			c0.5-6.8,0.5-14.1,0.2-21.9c-1.2-1.2-1.6-3.6-1.2-7.4c-0.3-0.1-0.5-0.6-0.5-1.2c-1.1,2.3-1.7,5.4-1.7,9.1c0.4-0.3,0.8,0,1.2,0.7
			c0.1,0.3,0.2,0.6,0.3,0.9l0.1,0.3c0.6,2.3,1,5.4,0.8,9.1v0.1c0,0.3,0,0.5,0,0.7c0,0.1,0,0.1,0,0.2c0,0.2,0,0.4,0,0.5
			c-0.1,3.2-0.3,6.2-0.6,8.9l-0.8,4.9l-0.6,3.9c0,0.5,0,0.9,0,1.4c0,0.1,0,0.1,0,0.1L118.1,77.3z"/>
		<path class="st36" d="M117,73l0.4,0.1l0.1,2.1l0.6-3.9l-0.7,0.6V59.5v-0.7v-0.3v-1.2V45c0.3-0.1,0.6,0.1,0.9,0.6
			c0.1,0.3,0.3,0.5,0.4,0.9c-0.1-0.3-0.2-0.6-0.3-0.9c-0.3-0.7-0.7-1-1.2-0.7v0.3v13.5v0.1V72c-0.1-0.5-0.5-0.8-1-1l-1.6-0.6
			c-0.2-0.1-0.3,0-0.4,0.2l2.1,0.8c0.5,0.3,0.8,0.6,0.9,1l0.4,0.1l-0.1,0.5H117L117,73z"/>
		
			<radialGradient id="SVGID_19_" cx="-3675.0857" cy="-433.7439" r="86.0249" gradientTransform="matrix(-6.100000e-03 1.150000e-02 -2.600000e-02 -1.380000e-02 81.9716 107.6932)" gradientUnits="userSpaceOnUse">
			<stop  offset="0" style="stop-color:#F2959A"/>
			<stop  offset="1" style="stop-color:#A11C19"/>
		</radialGradient>
		<path class="st37" d="M117.7,72.5l-0.4-0.1c-0.1-0.4-0.4-0.8-0.9-1l-2.1-0.8c0,0,0,0,0,0.1c-0.1,0.7,0.2,1.3,1,1.7l1,0.4l0.7,0.3
			l0.2-0.1l0.5,0.1L117.7,72.5z"/>
		<path class="st38" d="M118.9,73.8L118.9,73.8L118.9,73.8L118.9,73.8z"/>
		
			<linearGradient id="SVGID_20_" gradientUnits="userSpaceOnUse" x1="-1946.2704" y1="750.3099" x2="-1774.2206" y2="750.3099" gradientTransform="matrix(-1.340000e-02 0 0 -1 93.6288 815.0689)">
			<stop  offset="0" style="stop-color:#808183"/>
			<stop  offset="1" style="stop-color:#5B5B5D"/>
		</linearGradient>
		<path class="st39" d="M117.4,72l0.7-0.6l0.8-4.9c0.3-2.7,0.5-5.6,0.6-8.9c-0.1,0-0.1,0.1-0.1,0.1l0,0c-0.8,0.6-1.5,1.2-1.9,1.8
			h-0.1V72z"/>
		
			<linearGradient id="SVGID_21_" gradientUnits="userSpaceOnUse" x1="-48.5686" y1="136.8598" x2="-46.8883" y2="136.8598" gradientTransform="matrix(-1 0 0 -1 69.498 202.2688)">
			<stop  offset="5.098000e-02" style="stop-color:#F2959A"/>
			<stop  offset="1" style="stop-color:#911917"/>
		</linearGradient>
		<path class="st40" d="M116.2,71c0.6,0.3,1,0.6,1,1V58.9c-0.5,0.1-0.8,0.3-1,0.6v0.2v3.8V71z"/>
		
			<linearGradient id="SVGID_22_" gradientUnits="userSpaceOnUse" x1="1343.2155" y1="5031.4028" x2="1515.2653" y2="5031.4028" gradientTransform="matrix(1.270000e-02 0 0 2.050000e-02 100.3696 -44.8848)">
			<stop  offset="5.098000e-02" style="stop-color:#F2959A"/>
			<stop  offset="0.2392" style="stop-color:#AF191A"/>
			<stop  offset="1" style="stop-color:#ED6A6B"/>
		</linearGradient>
		<path class="st41" d="M117.4,58.8v0.7h0.1c0.5-0.6,1.2-1.2,1.9-1.8l0,0v-0.6C118.6,57.5,118,58.1,117.4,58.8z"/>
		<path class="st6" d="M116.2,63.5v-3.8c-0.3,0.3-0.4,1-0.3,2.1C115.9,62.8,116.1,63.3,116.2,63.5z"/>
		<path class="st34" d="M116.2,59.2v0.2c0.3-0.3,0.6-0.5,1-0.6v-0.2C116.8,58.8,116.4,59,116.2,59.2z"/>
		<path class="st36" d="M121,66.3L121,66.3c0.1-0.1,0.1-0.1,0.1-0.2c0.4-6.9,0.5-14,0.3-21.5c-0.1,0-0.1,0-0.2,0
			c-0.1-0.1-0.3-0.1-0.4-0.2c0.3,7.8,0.3,15.1-0.2,21.9C120.7,66.3,120.8,66.3,121,66.3z"/>
		
			<linearGradient id="SVGID_23_" gradientUnits="userSpaceOnUse" x1="1343.2155" y1="4980.1836" x2="1515.2653" y2="4980.1836" gradientTransform="matrix(1.270000e-02 0 0 2.050000e-02 100.3696 -44.8848)">
			<stop  offset="5.098000e-02" style="stop-color:#F2959A"/>
			<stop  offset="0.2392" style="stop-color:#AF191A"/>
			<stop  offset="1" style="stop-color:#ED6A6B"/>
		</linearGradient>
		<path class="st42" d="M117.4,57.3v1.2c0.6-0.6,1.3-1.2,2.1-1.6V56C118.7,56.2,118.1,56.7,117.4,57.3z"/>
		<path class="st34" d="M119.5,57.1v0.6l0.1-0.1c0-0.2,0-0.4,0-0.5s0-0.1,0-0.2c0-0.3,0-0.5,0-0.7v-0.1c-0.1,0-0.1,0-0.1,0.1V57.1
			c-0.8,0.3-1.4,0.9-2.1,1.6V59C118,58.1,118.6,57.5,119.5,57.1z"/>
		
			<linearGradient id="SVGID_24_" gradientUnits="userSpaceOnUse" x1="-1946.2704" y1="763.91" x2="-1774.2206" y2="763.91" gradientTransform="matrix(-1.340000e-02 0 0 -1 93.6288 815.0689)">
			<stop  offset="0" style="stop-color:#808183"/>
			<stop  offset="1" style="stop-color:#5B5B5D"/>
		</linearGradient>
		<path class="st43" d="M119.5,56c0.1,0,0.1,0,0.1-0.1c0.1-3.8-0.1-6.8-0.8-9.1l-0.1-0.3c-0.1-0.4-0.3-0.6-0.4-0.9
			c-0.3-0.5-0.6-0.6-0.9-0.6v12.4C118.1,56.7,118.7,56.2,119.5,56z"/>
		
			<linearGradient id="SVGID_25_" gradientUnits="userSpaceOnUse" x1="-48.5686" y1="150.1098" x2="-46.8883" y2="150.1098" gradientTransform="matrix(-1 0 0 -1 69.498 202.2688)">
			<stop  offset="5.098000e-02" style="stop-color:#F2959A"/>
			<stop  offset="1" style="stop-color:#911917"/>
		</linearGradient>
		<path class="st44" d="M116.2,59.2c0.2-0.2,0.6-0.4,1-0.6V45.2c-0.5,0.2-0.8,0.6-1.2,1c0,0.2,0,0.4,0,0.6c0,0.4,0.1,0.7,0.1,1
			L116.2,59.2L116.2,59.2z"/>
		
			<radialGradient id="SVGID_26_" cx="13306.3721" cy="1251.6621" r="196.456" gradientTransform="matrix(-1.370000e-02 -1.400000e-03 1.010000e-02 -0.1004 309.1343 228.6316)" gradientUnits="userSpaceOnUse">
			<stop  offset="5.098000e-02" style="stop-color:#F2959A"/>
			<stop  offset="1" style="stop-color:#911917"/>
		</radialGradient>
		<path class="st45" d="M140.9,88.2c0.1,0.1,0.2,0.3,0.1,0.6c0.1-0.5,0.3-0.9,0.4-1.2c0.2-0.6,0.4-1.1,0.5-1.7
			c0.5-1.9,0.5-4.3,0.3-7.1c0-0.2-0.1-0.5-0.1-0.7l-1.2-1.6c0.1,4.9-0.3,9.3-1.2,13.3C140.1,89.5,140.4,89,140.9,88.2z"/>
		<path class="st33" d="M142.1,78.2c0-0.1,0-0.3,0-0.4l-1.2-1.5c0,0.1,0,0.1,0,0.3L142.1,78.2z"/>
		
			<linearGradient id="SVGID_27_" gradientUnits="userSpaceOnUse" x1="4332.4966" y1="120.3374" x2="4504.5449" y2="120.3374" gradientTransform="matrix(-3.090000e-02 0 0 -0.239 274.5895 85.6696)">
			<stop  offset="0" style="stop-color:#911917"/>
			<stop  offset="0.6039" style="stop-color:#F2959A"/>
			<stop  offset="1" style="stop-color:#A41B25"/>
		</linearGradient>
		<path class="st46" d="M140.1,77c0,0.2,0,0.3,0,0.5l0.6-1c0-0.1,0-0.1,0-0.3c0-0.3,0-0.6,0-1l-0.6-3.9l-0.8-4.9
			c-0.3-2.7-0.5-5.6-0.6-8.9c0-0.2,0-0.4,0-0.6c0-0.1,0-0.2,0-0.3c0-0.2,0-0.4,0-0.6v-0.1c-0.1-3.8,0.1-6.8,0.8-9.1l0.1-0.3
			c0.1-0.3,0.2-0.6,0.3-0.9c0.3-0.7,0.7-1,1.2-0.7c-0.3-3.9-0.8-6.7-1.8-8.5c-0.1,0.3-0.3,0.5-0.5,0.6c0.3,3.8-0.1,6.3-1.2,7.4
			c-0.3,7.8-0.3,15.1,0.2,21.9c0.6,0,1,0.4,1.1,1.2v0.1c0.5,2.4,1,5.2,1.4,8.3C140.1,76.2,140.1,76.6,140.1,77z"/>
		
			<linearGradient id="SVGID_28_" gradientUnits="userSpaceOnUse" x1="-72.721" y1="127.0098" x2="-71.5659" y2="127.0098" gradientTransform="matrix(-1 0 0 -1 69.498 202.2688)">
			<stop  offset="5.098000e-02" style="stop-color:#F2959A"/>
			<stop  offset="1" style="stop-color:#911917"/>
		</linearGradient>
		<path class="st47" d="M140.8,75.3c0,0.3,0,0.6,0,1l1.2,1.5c0-0.5-0.1-1-0.1-1.6l0.1-3.4l-0.8,0.3l-0.4,0.1V75.3z"/>
		
			<radialGradient id="SVGID_29_" cx="10736.8438" cy="-6000.5972" r="86.0247" gradientTransform="matrix(-5.300000e-03 -9.200000e-03 1.920000e-02 -1.110000e-02 314.7373 103.9336)" gradientUnits="userSpaceOnUse">
			<stop  offset="0" style="stop-color:#F2959A"/>
			<stop  offset="1" style="stop-color:#A11C19"/>
		</radialGradient>
		<path class="st48" d="M143,72.3c0.8-0.4,1.1-1,1-1.7v-0.1l-2.1,0.8c-0.5,0.3-0.8,0.6-0.9,1l-0.4,0.1l0.1,0.5l0.5-0.1l0.2,0.1
			l0.8-0.3L143,72.3z"/>
		<path class="st36" d="M143.9,70.6c-0.1-0.2-0.2-0.3-0.4-0.2l-1.6,0.6c-0.6,0.3-1,0.6-1,1V58.7v-0.2V45.1v-0.2
			c-0.4-0.3-0.8,0-1.2,0.7c-0.1,0.3-0.2,0.6-0.3,0.9c0.1-0.4,0.3-0.6,0.4-0.9c0.3-0.5,0.6-0.6,0.9-0.6v12.4v1v0.3v0.9v12.5l-0.7-0.6
			l0.6,3.9l0.1-2.1l0.4-0.1l-0.2-0.1l-0.5,0.1l-0.1-0.5l0.4-0.1c0.1-0.4,0.4-0.8,0.9-1L143.9,70.6z"/>
		
			<linearGradient id="SVGID_30_" gradientUnits="userSpaceOnUse" x1="-83.7744" y1="128.8202" x2="-49.9344" y2="128.8202" gradientTransform="matrix(-1 0 0 -1 69.498 202.2688)">
			<stop  offset="0.2784" style="stop-color:#A6A8AA"/>
			<stop  offset="1" style="stop-color:#565658"/>
		</linearGradient>
		<path class="st49" d="M118.8,76c0.1,0.8,0.8,1.4,2.3,1.9c2.6,1,5.3,1.5,8.1,1.4c0,0,0,0,0.1,0h0.1c0.2,0,0.4,0,0.5,0
			c2.6,0,5.1-0.5,7.5-1.4c1.4-0.5,2.2-1.2,2.3-1.9c-0.1-0.8-0.1-1.6-0.2-2.4l0,0c-0.1-1.5-0.3-2.7-0.6-3.8c-0.4-1.6-0.7-2.3-1.1-2.1
			c-0.5,0.1-1,0.2-1.5,0.3c-2.3,0.3-4.6,0.5-7,0.4c0,0,0,0-0.1,0c0,0,0,0-0.1,0c-2.8,0.1-5.7-0.1-8.5-0.6c-0.4-0.1-0.7,0.6-1.1,2.1
			c-0.3,1.1-0.5,2.5-0.6,4.1h0.1h-0.1C118.8,74.5,118.8,75.2,118.8,76z"/>
		
			<linearGradient id="SVGID_31_" gradientUnits="userSpaceOnUse" x1="12152.8613" y1="735.9598" x2="12324.9121" y2="735.9598" gradientTransform="matrix(-1.290000e-02 0 0 -1 297.8712 800.7188)">
			<stop  offset="0" style="stop-color:#808183"/>
			<stop  offset="1" style="stop-color:#5B5B5D"/>
		</linearGradient>
		<path class="st50" d="M140.1,71.4l0.7,0.6V59.5h-0.1c-0.5-0.6-1.2-1.2-1.9-1.8l0,0l-0.1-0.1c0.1,3.2,0.3,6.2,0.6,8.9L140.1,71.4z"
			/>
		
			<linearGradient id="SVGID_32_" gradientUnits="userSpaceOnUse" x1="-72.721" y1="136.9098" x2="-71.5659" y2="136.9098" gradientTransform="matrix(-1 0 0 -1 69.498 202.2688)">
			<stop  offset="5.098000e-02" style="stop-color:#F2959A"/>
			<stop  offset="1" style="stop-color:#911917"/>
		</linearGradient>
		<path class="st51" d="M141,72.1c0.1-0.5,0.5-0.8,1-1v-7.6v-3.8v-0.5c-0.3-0.3-0.7-0.5-1-0.5V72.1z"/>
		<path class="st36" d="M137.3,66.3c0.1,0,0.3,0,0.4,0c-0.5-6.8-0.5-14.1-0.2-21.9c-0.2,0.1-0.4,0.2-0.6,0.3c0,0.2,0,0.4,0,0.6
			c-0.1,7.1,0,13.8,0.3,20.4C137.2,65.9,137.2,66.1,137.3,66.3L137.3,66.3z"/>
		<path class="st6" d="M142.1,59.7v3.8c0.1-0.1,0.3-0.7,0.3-1.7C142.4,60.7,142.3,60,142.1,59.7z"/>
		
			<linearGradient id="SVGID_33_" gradientUnits="userSpaceOnUse" x1="-71.448" y1="144.0598" x2="-69.263" y2="144.0598" gradientTransform="matrix(-1 0 0 -1 69.498 202.2688)">
			<stop  offset="5.098000e-02" style="stop-color:#F2959A"/>
			<stop  offset="0.2392" style="stop-color:#AF191A"/>
			<stop  offset="1" style="stop-color:#ED6A6B"/>
		</linearGradient>
		<path class="st52" d="M140.8,59.5L140.8,59.5l0.1-0.9c-0.6-0.6-1.3-1.2-2.1-1.6v0.6l0,0C139.6,58.2,140.3,58.8,140.8,59.5z"/>
		<path class="st34" d="M141,58.7c0.4,0,0.7,0.1,1,0.5V59c-0.3-0.2-0.6-0.4-1-0.5V58.7z"/>
		<path class="st34" d="M138.6,56.9c0,0.2,0,0.4,0,0.6c0.1,0,0.1,0.1,0.1,0.1V57c0.7,0.4,1.4,0.9,2.1,1.6v-0.3
			c-0.6-0.6-1.3-1.2-2.1-1.6v-0.8c-0.1,0-0.1,0-0.1-0.1v0.1c0,0.2,0,0.4,0,0.6C138.6,56.7,138.6,56.9,138.6,56.9z"/>
		
			<linearGradient id="SVGID_34_" gradientUnits="userSpaceOnUse" x1="-12885.0225" y1="4970.3887" x2="-12712.9727" y2="4970.3887" gradientTransform="matrix(1.270000e-02 0 0 2.050000e-02 302.27 -44.834)">
			<stop  offset="5.098000e-02" style="stop-color:#F2959A"/>
			<stop  offset="0.2392" style="stop-color:#AF191A"/>
			<stop  offset="1" style="stop-color:#ED6A6B"/>
		</linearGradient>
		<path class="st53" d="M140.8,58.3v-1c-0.6-0.6-1.3-1.1-2.1-1.4v0.8C139.5,57.2,140.2,57.7,140.8,58.3z"/>
		
			<linearGradient id="SVGID_35_" gradientUnits="userSpaceOnUse" x1="12152.8613" y1="749.5723" x2="12324.873" y2="749.5723" gradientTransform="matrix(-1.290000e-02 0 0 -1 297.8712 800.7188)">
			<stop  offset="0" style="stop-color:#808183"/>
			<stop  offset="1" style="stop-color:#5B5B5D"/>
		</linearGradient>
		<path class="st54" d="M138.6,55.9c0.1,0,0.1,0,0.1,0.1c0.8,0.3,1.4,0.7,2.1,1.4V45c-0.3-0.1-0.6,0.1-0.9,0.6
			c-0.1,0.3-0.3,0.5-0.4,0.9l-0.1,0.3C138.8,49.2,138.5,52.2,138.6,55.9z"/>
		
			<linearGradient id="SVGID_36_" gradientUnits="userSpaceOnUse" x1="-72.721" y1="150.3598" x2="-71.5659" y2="150.3598" gradientTransform="matrix(-1 0 0 -1 69.498 202.2688)">
			<stop  offset="5.098000e-02" style="stop-color:#F2959A"/>
			<stop  offset="1" style="stop-color:#911917"/>
		</linearGradient>
		<path class="st55" d="M141,58.4c0.4,0.1,0.7,0.3,1,0.5V47.8c0.1-0.3,0.1-0.6,0.1-1c0-0.1,0-0.3,0-0.4c-0.3-0.7-0.7-1.2-1.2-1.4
			L141,58.4L141,58.4z"/>
		
			<linearGradient id="SVGID_37_" gradientUnits="userSpaceOnUse" x1="2305.3005" y1="4067.687" x2="2477.3503" y2="4067.687" gradientTransform="matrix(2.800000e-02 4.550000e-02 -4.490000e-02 2.760000e-02 246.6485 -178.3677)">
			<stop  offset="0" style="stop-color:#808183"/>
			<stop  offset="1" style="stop-color:#272626"/>
		</linearGradient>
		<path class="st56" d="M136.9,44.7c0.2,0,0.4-0.1,0.6-0.3c1.2-1.2,1.6-3.6,1.2-7.4c-0.1-0.3-0.3-0.5-0.5-0.7
			c-0.2-0.3-0.5-0.5-0.7-0.7c-1,0.1-1.6,0.3-1.7,0.3c1.2,0.4,1.8,1,1.9,1.7c0.3,1.6,0.3,3.1,0,4.5s-0.8,2-1.6,1.7
			c-2.3-0.5-4.7-0.7-7.1-0.6c0,0,0,0-0.1,0c0,0,0,0-0.1,0c-2.3-0.1-4.7,0.1-7,0.6h-0.1h-0.1l-0.8,0.8c0.1,0,0.1,0,0.2,0
			c2.5-0.5,5-0.8,7.7-0.7h0.1C131.8,43.9,134.4,44.1,136.9,44.7z"/>
		
			<radialGradient id="SVGID_38_" cx="-62.2564" cy="143.8296" r="15.1327" gradientTransform="matrix(-1 0 0 -1 69.498 202.2688)" gradientUnits="userSpaceOnUse">
			<stop  offset="0" style="stop-color:#F2958E"/>
			<stop  offset="0.9373" style="stop-color:#93191A"/>
		</radialGradient>
		<path class="st57" d="M129.1,67L129.1,67L129.1,67c2.7,0,5.3-0.1,7.8-0.6c0.1,0,0.2-0.1,0.3-0.1l0,0c0-0.2,0-0.4,0-0.6
			c-0.4-6.6-0.5-13.5-0.3-20.4c0-0.2,0-0.4,0-0.6c-2.5-0.5-5-0.8-7.7-0.7h-0.1c-2.7-0.1-5.2,0.2-7.7,0.7c0.2,7.4,0.1,14.6-0.3,21.5
			c0,0.1,0,0.1,0,0.2l0,0C123.7,66.8,126.3,67,129.1,67z"/>
		
			<radialGradient id="SVGID_39_" cx="440.2945" cy="-1352.2286" r="86.025" gradientTransform="matrix(-0.1167 0 0 -0.1167 182.1779 -115.2402)" gradientUnits="userSpaceOnUse">
			<stop  offset="0" style="stop-color:#808183"/>
			<stop  offset="1" style="stop-color:#5B5B5D"/>
		</radialGradient>
		<path class="st58" d="M136.2,43.9c0.8,0.3,1.3-0.3,1.6-1.7s0.3-2.9,0-4.5c-0.1-0.7-0.8-1.3-1.9-1.7c-6.2,1.4-10.8,4-13.6,8
			c2.3-0.5,4.7-0.7,7-0.6c0,0,0,0,0.1,0c0,0,0,0,0.1,0C131.5,43.1,133.8,43.4,136.2,43.9z"/>
		<path class="st34" d="M142.1,46.5c0-0.1,0-0.1,0-0.2c-0.3-0.7-0.7-1.2-1.2-1.4v0.2C141.4,45.3,141.8,45.8,142.1,46.5z"/>
		
			<linearGradient id="SVGID_40_" gradientUnits="userSpaceOnUse" x1="-72.7214" y1="160.8098" x2="-71.5663" y2="160.8098" gradientTransform="matrix(-1 0 0 -1 69.498 202.2688)">
			<stop  offset="5.098000e-02" style="stop-color:#F2959A"/>
			<stop  offset="1" style="stop-color:#911917"/>
		</linearGradient>
		<path class="st59" d="M141,44.8c0.5,0.3,0.8,0.7,1.2,1.4c0.1-3.2-0.2-6.4-0.6-9.4C141.7,39.7,141.6,42.3,141,44.8z"/>
		
			<radialGradient id="SVGID_41_" cx="7273.5713" cy="-1363.2224" r="86.025" gradientTransform="matrix(-2.870000e-02 7.700000e-03 -3.270000e-02 -0.1219 303.3568 -187.7425)" gradientUnits="userSpaceOnUse">
			<stop  offset="5.098000e-02" style="stop-color:#F2959A"/>
			<stop  offset="1" style="stop-color:#911917"/>
		</radialGradient>
		<path class="st60" d="M139.3,35.8c0,0.2-0.1,0.4-0.1,0.6c1,1.8,1.6,4.7,1.8,8.5c0.6-2.5,0.8-5.2,0.5-8.1c0-0.2-0.1-0.4-0.1-0.6
			c-0.1-0.9-0.3-1.8-0.5-2.7l0,0v-0.1l0,0c-0.3-1.7-1-3-2.1-3.8l0,0c0.2,1,0.3,2.3,0.4,3.6C139.2,34,139.2,34.9,139.3,35.8z"/>
		<path class="st34" d="M139.2,36.4c0.1-0.2,0.1-0.4,0.1-0.6c0-0.9-0.1-1.8-0.1-2.6c-0.9-1.8-1.7-2.8-2.5-3
			c-0.6-0.2-1.1-0.3-1.7-0.5c-0.6-0.2-1.3-0.3-1.9-0.5c4.2,1,6.2,3.2,6,6.4c0,0.5-0.3,0.7-0.6,0.6c0.2,0.2,0.3,0.5,0.5,0.7
			C138.9,36.9,139.1,36.7,139.2,36.4z"/>
		
			<linearGradient id="SVGID_42_" gradientUnits="userSpaceOnUse" x1="226.0657" y1="-5885.8506" x2="398.1158" y2="-5885.8506" gradientTransform="matrix(-0.116 0 0 -4.710000e-02 165.1772 -244.6549)">
			<stop  offset="0" style="stop-color:#EA4E52"/>
			<stop  offset="0.8863" style="stop-color:#911917"/>
			<stop  offset="1" style="stop-color:#F2959A"/>
		</linearGradient>
		<path class="st61" d="M138.3,36.3c0.4,0.1,0.6-0.2,0.6-0.6c0.3-3.2-1.7-5.4-6-6.4c-1.3-0.3-2.5-0.4-3.8-0.4H129
			c-1.9,0-3.9,0.3-6,0.8h-0.1l0,0c-0.5,0.1-0.8,0.3-1.3,0.4c-0.8,0.2-1.6,1.2-2.5,3l0,0c0,0.1,0,0.1,0,0.1c0,0.3,0,0.6-0.1,0.8
			c0,0,0,0,0,0.1c0.1,1,0.3,1.4,0.7,1.2c1-1,2.3-1.7,3.9-2.1c3.4-0.9,6.9-1,10.3-0.2c1.4,0.3,2.5,1,3,2.1c0.2,0.1,0.5,0.3,0.6,0.4
			C137.9,35.8,138.1,36,138.3,36.3z"/>
		<path class="st62" d="M140.9,33.4L140.9,33.4c0.1-1.2-0.1-2-0.4-2.5c-0.3-0.5-0.8-0.9-1.7-1.4C139.9,30.4,140.6,31.7,140.9,33.4z"
			/>
		
			<linearGradient id="SVGID_43_" gradientUnits="userSpaceOnUse" x1="232.8918" y1="-8059.9785" x2="404.9421" y2="-8059.9785" gradientTransform="matrix(-0.1165 0 0 -3.820000e-02 166.2849 -278.0322)">
			<stop  offset="5.098000e-02" style="stop-color:#F2959A"/>
			<stop  offset="0.2392" style="stop-color:#B31D1A"/>
			<stop  offset="0.9438" style="stop-color:#F2959A"/>
			<stop  offset="1" style="stop-color:#E6696D"/>
		</linearGradient>
		<path class="st63" d="M138.8,29.6c0-0.1,0-0.1,0-0.2c-0.3-0.7-0.7-1.2-1.4-1.4c-2.7-0.9-5.4-1.4-8.2-1.4l0,0h-0.1c0,0,0,0-0.1,0
			c-1,0-1.9,0.1-2.8,0.2c3.8-0.1,6.5,0.1,8.1,0.9c0.6,0.3,0.8,1,0.6,2c0.6,0.1,1.1,0.3,1.7,0.5c0.8,0.2,1.6,1.2,2.5,3
			C139.1,31.8,139,30.6,138.8,29.6z"/>
		
			<linearGradient id="SVGID_44_" gradientUnits="userSpaceOnUse" x1="4793.0889" y1="3053.4287" x2="4965.1392" y2="3053.4287" gradientTransform="matrix(1.910000e-02 3.750000e-02 -5.680000e-02 2.900000e-02 207.4924 -234.8434)">
			<stop  offset="0" style="stop-color:#272626"/>
			<stop  offset="1" style="stop-color:#5B5B5D"/>
		</linearGradient>
		<path class="st64" d="M135.8,35.9c0.3-0.1,0.8-0.1,1.7-0.3c-0.2-0.1-0.4-0.3-0.6-0.4c-1.6-0.9-4.2-1.4-7.8-1.6H129c0,0,0,0-0.1,0
			c-5.4,0.1-8.5,1.2-9.6,3.4c-0.3,3.8,0.1,6.3,1.2,7.4c0.1,0.1,0.3,0.2,0.4,0.2l0.8-0.8c-0.7,0.2-1.2-0.4-1.5-1.7
			c-0.3-1.4-0.3-2.9,0-4.5s3.2-2.5,8.6-2.6c0,0,0,0,0.1,0c0,0,0,0,0.1,0l0,0C132.2,35.1,134.4,35.4,135.8,35.9z"/>
		
			<linearGradient id="SVGID_45_" gradientUnits="userSpaceOnUse" x1="225.9297" y1="-5929.7803" x2="397.9798" y2="-5929.7803" gradientTransform="matrix(-0.116 0 0 -4.710000e-02 165.1772 -244.6549)">
			<stop  offset="0" style="stop-color:#EA555A"/>
			<stop  offset="1" style="stop-color:#911917"/>
		</linearGradient>
		<path class="st65" d="M137,35.1c-0.6-1.2-1.6-1.9-3-2.1c-3.4-0.8-6.9-0.7-10.3,0.2c-1.6,0.5-2.9,1.2-3.9,2.1
			c-0.3,0.2-0.6-0.2-0.7-1.2c0,0.5,0,1-0.1,1.6c0.1,0.6,0.3,1,0.5,1.2c1-2.1,4.1-3.2,9.6-3.4c0,0,0,0,0.1,0h0.1
			C132.7,33.7,135.3,34.2,137,35.1z"/>
		
			<linearGradient id="SVGID_46_" gradientUnits="userSpaceOnUse" x1="232.9788" y1="-8013.856" x2="405.0286" y2="-8013.856" gradientTransform="matrix(-0.1165 0 0 -3.820000e-02 166.2849 -278.0322)">
			<stop  offset="5.098000e-02" style="stop-color:#E6A890"/>
			<stop  offset="0.2" style="stop-color:#911917"/>
			<stop  offset="0.7725" style="stop-color:#911917"/>
			<stop  offset="0.949" style="stop-color:#E6A890"/>
			<stop  offset="1" style="stop-color:#C68B73"/>
		</linearGradient>
		<path class="st66" d="M134.9,29.6c0.2-1,0-1.6-0.6-2c-1.6-0.8-4.3-1-8.1-0.9c-1.4,0.2-2.8,0.5-4.1,0.8c1-0.2,1.7-0.2,2.3,0
			c0.2,0.5,0.2,1,0,1.5c-0.3,0.3-0.8,0.5-1.3,0.6c2-0.6,4-0.8,6-0.8h0.1c1.2,0,2.5,0.1,3.8,0.4C133.7,29.4,134.3,29.5,134.9,29.6z"
			/>
		<path class="st34" d="M116.1,45.9c0,0.1,0,0.2,0,0.3c0.3-0.5,0.7-0.8,1.2-1v-0.4C116.8,45.1,116.4,45.5,116.1,45.9z"/>
		
			<radialGradient id="SVGID_47_" cx="-3965.6353" cy="-1770.6143" r="182.1916" gradientTransform="matrix(-1.860000e-02 -3.500000e-03 1.930000e-02 -0.1018 79.5643 -153.0221)" gradientUnits="userSpaceOnUse">
			<stop  offset="0.118" style="stop-color:#F2959A"/>
			<stop  offset="0.9551" style="stop-color:#911917"/>
		</radialGradient>
		<path class="st67" d="M116.4,38.6C116.4,38.7,116.4,38.7,116.4,38.6c-0.3,2.4-0.4,4.8-0.4,7.3c0.3-0.5,0.7-0.8,1.2-1.1
			c0.1-3.7,0.6-6.7,1.7-9.1c0-0.5,0-1,0.1-1.6c0,0,0,0,0-0.1c0-0.3,0-0.6,0.1-0.8c0-0.1,0-0.1,0-0.1l0,0c0-1-0.1-1.6-0.4-1.7
			C118.4,31.3,117.7,33.7,116.4,38.6z"/>
		
			<radialGradient id="SVGID_48_" cx="440.2945" cy="-1352.2286" r="86.0249" gradientTransform="matrix(-0.1167 0 0 -0.1167 182.1779 -115.2402)" gradientUnits="userSpaceOnUse">
			<stop  offset="0.2392" style="stop-color:#808183"/>
			<stop  offset="1" style="stop-color:#5B5B5D"/>
		</radialGradient>
		<path class="st68" d="M122.1,43.9L122.1,43.9c3-4,7.5-6.6,13.7-8c-1.4-0.5-3.6-0.8-6.6-0.8l0,0c0,0,0,0-0.1,0c0,0,0,0-0.1,0
			c-5.4,0.1-8.3,1-8.6,2.6s-0.3,3.1,0,4.5s0.8,1.9,1.5,1.7C122,43.9,122,43.9,122.1,43.9z"/>
		
			<linearGradient id="SVGID_49_" gradientUnits="userSpaceOnUse" x1="243.6039" y1="-8071.104" x2="415.6537" y2="-8071.104" gradientTransform="matrix(-0.1282 0 0 -3.820000e-02 172.3493 -278.0322)">
			<stop  offset="5.098000e-02" style="stop-color:#F2959A"/>
			<stop  offset="0.2549" style="stop-color:#911917"/>
			<stop  offset="0.7098" style="stop-color:#A41B25"/>
			<stop  offset="0.949" style="stop-color:#F2959A"/>
			<stop  offset="0.9944" style="stop-color:#EE767B"/>
		</linearGradient>
		<path class="st69" d="M124.4,27.6c-0.5-0.2-1.3-0.2-2.3,0c-0.4,0.1-0.8,0.3-1.2,0.4c-0.6,0.2-1,0.6-1.4,1.4c0,0.1,0,0.1,0,0.2
			c-0.2,1-0.3,2.3-0.4,3.6c0.9-1.8,1.7-2.8,2.5-3c0.5-0.1,0.9-0.3,1.3-0.4l0,0h0.1c0.5-0.1,1-0.4,1.3-0.6
			C124.6,28.6,124.6,28.2,124.4,27.6z"/>
		
			<radialGradient id="SVGID_50_" cx="-4161.6973" cy="-2006.0559" r="83.8558" gradientTransform="matrix(-1.860000e-02 -3.500000e-03 1.930000e-02 -0.1018 78.5643 -181.8722)" gradientUnits="userSpaceOnUse">
			<stop  offset="0.2824" style="stop-color:#EB5B5A"/>
			<stop  offset="1" style="stop-color:#911917"/>
		</radialGradient>
		<path class="st70" d="M117.4,33.5L117.4,33.5c-0.4,1.7-0.6,3.4-0.8,5.2c1.2-4.9,1.9-7.3,2.2-7.1c0.3,0.1,0.4,0.6,0.4,1.7
			c0.1-1.4,0.2-2.6,0.4-3.6C118.4,30.4,117.7,31.7,117.4,33.5L117.4,33.5L117.4,33.5z"/>
	</g>
	<g>
		
			<linearGradient id="SVGID_51_" gradientUnits="userSpaceOnUse" x1="-47.76" y1="137.5098" x2="-50.6688" y2="137.5098" gradientTransform="matrix(-1 0 0 -1 69.498 202.2688)">
			<stop  offset="0" style="stop-color:#272626"/>
			<stop  offset="1" style="stop-color:#808183"/>
		</linearGradient>
		<path class="st71" d="M117.4,72l0.7-0.6l0.8-4.9c0.3-2.7,0.5-5.6,0.6-8.9c-0.9,0.6-1.6,1.2-2.1,1.9h0V72z"/>
		
			<linearGradient id="SVGID_52_" gradientUnits="userSpaceOnUse" x1="-47.76" y1="151.1598" x2="-50.6688" y2="151.1598" gradientTransform="matrix(-1 0 0 -1 69.498 202.2688)">
			<stop  offset="0" style="stop-color:#272626"/>
			<stop  offset="1" style="stop-color:#808183"/>
		</linearGradient>
		<path class="st72" d="M117.4,57.3c0.6-0.7,1.4-1.2,2.2-1.4c0.1-3.8-0.1-6.8-0.8-9.1l-0.1-0.3c-0.1-0.4-0.3-0.6-0.4-0.9
			c-0.3-0.5-0.6-0.6-0.9-0.6L117.4,57.3L117.4,57.3z"/>
		
			<linearGradient id="SVGID_53_" gradientUnits="userSpaceOnUse" x1="-69.2207" y1="137.5098" x2="-71.8109" y2="137.5098" gradientTransform="matrix(-1 0 0 -1 69.498 202.2688)">
			<stop  offset="0" style="stop-color:#272626"/>
			<stop  offset="1" style="stop-color:#808183"/>
		</linearGradient>
		<path class="st73" d="M140.1,71.4l0.7,0.6V59.5h-0.1c-0.5-0.6-1.2-1.3-2.1-1.9c0.1,3.2,0.3,6.2,0.6,8.9L140.1,71.4z"/>
		
			<linearGradient id="SVGID_54_" gradientUnits="userSpaceOnUse" x1="-69.2207" y1="151.1723" x2="-71.8109" y2="151.1723" gradientTransform="matrix(-1 0 0 -1 69.498 202.2688)">
			<stop  offset="0" style="stop-color:#272626"/>
			<stop  offset="1" style="stop-color:#808183"/>
		</linearGradient>
		<path class="st74" d="M138.6,55.9c0.8,0.3,1.6,0.7,2.2,1.4V45c-0.3-0.1-0.6,0.1-0.9,0.6c-0.1,0.3-0.3,0.5-0.4,0.9l-0.1,0.3
			C138.8,49.2,138.5,52.2,138.6,55.9z"/>
		
			<linearGradient id="SVGID_55_" gradientUnits="userSpaceOnUse" x1="-67.6267" y1="156.743" x2="-47.8146" y2="170.3246" gradientTransform="matrix(-1 0 0 -1 69.498 202.2688)">
			<stop  offset="0" style="stop-color:#272626"/>
			<stop  offset="1" style="stop-color:#808183"/>
		</linearGradient>
		<path class="st75" d="M136.9,44.7c0.2,0,0.4-0.1,0.6-0.3c1.2-1.2,1.6-3.6,1.2-7.4c-0.1-0.3-0.3-0.5-0.5-0.7
			c-0.2-0.3-0.5-0.5-0.7-0.7c-1,0.1-1.6,0.3-1.7,0.3c1.2,0.4,1.8,1,1.9,1.7c0.3,1.6,0.3,3.1,0,4.5s-0.8,2-1.6,1.7
			c-2.3-0.5-4.7-0.7-7.1-0.6c0,0,0,0-0.1,0c0,0,0,0-0.1,0c-2.3-0.1-4.7,0.1-7,0.6h-0.1h-0.1l-0.8,0.8c0.1,0,0.1,0,0.2,0
			c2.5-0.5,5-0.8,7.7-0.7h0.1C131.8,43.9,134.4,44.1,136.9,44.7z"/>
		
			<linearGradient id="SVGID_56_" gradientUnits="userSpaceOnUse" x1="-51.8846" y1="167.4418" x2="-73.7969" y2="152.6702" gradientTransform="matrix(-1 0 0 -1 69.498 202.2688)">
			<stop  offset="0" style="stop-color:#030405"/>
			<stop  offset="1" style="stop-color:#808183"/>
		</linearGradient>
		<path class="st76" d="M137.5,35.6c-0.2-0.1-0.4-0.3-0.6-0.4c-1.6-0.9-4.2-1.4-7.8-1.6H129c0,0,0,0-0.1,0c-5.4,0.1-8.5,1.2-9.6,3.4
			c-0.3,3.8,0.1,6.3,1.2,7.4c0.1,0.1,0.3,0.2,0.4,0.2l0.8-0.8c-0.7,0.2-1.2-0.4-1.5-1.7c-0.3-1.4-0.3-2.9,0-4.5s3.2-2.5,8.6-2.6
			c0,0,0,0,0.1,0c0,0,0,0,0.1,0l0,0c3,0.1,5.2,0.3,6.6,0.8C136,35.9,136.6,35.7,137.5,35.6z"/>
		
			<radialGradient id="SVGID_57_" cx="-62.2384" cy="160.3105" r="10.4637" gradientTransform="matrix(-1 0 0 -1 69.498 202.2688)" gradientUnits="userSpaceOnUse">
			<stop  offset="0" style="stop-color:#808183"/>
			<stop  offset="1" style="stop-color:#293237"/>
		</radialGradient>
		<path class="st77" d="M120.5,42.1c0.3,1.4,0.8,1.9,1.5,1.7h0.1h0.1c2.3-0.5,4.7-0.7,7-0.6c0,0,0,0,0.1,0c0,0,0,0,0.1,0
			c2.3-0.1,4.7,0.1,7.1,0.6c0.8,0.3,1.3-0.3,1.6-1.7s0.3-2.9,0-4.5c-0.1-0.7-0.8-1.3-1.9-1.7c-1.4-0.5-3.6-0.8-6.6-0.8
			c0,0,0,0-0.1,0c0,0,0,0-0.1,0c-5.4,0.1-8.3,1-8.6,2.6C120.2,39.2,120.2,40.7,120.5,42.1z"/>
		
			<linearGradient id="SVGID_58_" gradientUnits="userSpaceOnUse" x1="-69.7959" y1="123.1468" x2="-50.7539" y2="135.0481" gradientTransform="matrix(-1 0 0 -1 69.498 202.2688)">
			<stop  offset="0" style="stop-color:#363639"/>
			<stop  offset="0.264" style="stop-color:#040506"/>
			<stop  offset="0.4382" style="stop-color:#555659"/>
			<stop  offset="1" style="stop-color:#030405"/>
		</linearGradient>
		<path class="st78" d="M128.2,80.6L128.2,80.6c0.3,0,0.6,0,0.8,0c0,0,0,0,0.1,0c0,0,0,0,0.1,0c3.6,0.2,7.1-0.6,10.3-2.5
			c0.4-0.3,0.6-0.7,0.7-1.2c0-0.4,0-0.8-0.1-1.2c-0.4-3.1-0.8-5.9-1.4-8.3v-0.1c-0.1-0.8-0.5-1.1-1.1-1.2c-0.1,0-0.3,0-0.4,0
			c0,0,0,0-0.1,0s-0.2,0-0.3,0.1c-2.6,0.4-5.2,0.6-7.8,0.6c0,0,0,0-0.1,0c0,0,0,0-0.1,0c-2.7,0.1-5.4-0.2-8.1-0.6c0,0,0,0-0.1,0
			s-0.3,0-0.4,0c-0.6,0-1,0.4-1.1,1.2v0.1c-0.5,2.4-1,5.2-1.4,8.3c0,0.4-0.1,0.8-0.1,1.2c0,0.1,0.1,0.3,0.1,0.4
			c0.1,0.3,0.3,0.5,0.6,0.8C121.8,79.8,124.9,80.6,128.2,80.6z M129.1,79.3L129.1,79.3c-2.8,0.1-5.5-0.4-8.1-1.4
			c-1.4-0.5-2.2-1.2-2.3-1.9c0-0.7,0.1-1.4,0.1-2.1l0,0c0.1-1.6,0.3-3,0.6-4.1c0.4-1.6,0.7-2.3,1.1-2.1c2.8,0.5,5.6,0.7,8.5,0.6
			c0,0,0,0,0.1,0c0,0,0,0,0.1,0l0,0c2.3,0.1,4.7-0.1,7-0.4c0.5-0.1,1-0.1,1.5-0.3c0.4-0.1,0.7,0.6,1.1,2.1c0.3,1,0.5,2.3,0.6,3.8
			l0,0c0.1,0.7,0.1,1.6,0.2,2.4c-0.1,0.8-0.8,1.4-2.3,1.9c-2.5,0.9-4.9,1.4-7.5,1.4C129.5,79.3,129.3,79.3,129.1,79.3L129.1,79.3z"
			/>
	</g>
</g>
<path class="st7" d="M95.9,111.5c-1.3,0.6-2.5,1.4-3.8,2c-1.2,0.7-2.5,1.4-3.6,2.1l-1.8,1.1c-0.6,0.4-1.2,0.8-1.7,1.1l-3.4,2.3
	l3.7,1.9c0.6,0.3,1.2,0.6,1.8,0.9l1.7,1c1.2,0.6,2.3,1.3,3.5,2s2.3,1.4,3.4,2.1l0.1-4.3c0.7,0,1.4,0,2.1,0.1l1,0.1h0.5l1.2,0.1
	c0.5,0,0.9,0.1,1.4,0.1l1.4,0.1l2.7,0.3c0.9,0.1,1.8,0.2,2.7,0.3l1.4,0.2c0.5,0.1,0.9,0.1,1.4,0.2l2.7,0.5c0.5,0.1,0.9,0.1,1.4,0.3
	l1.3,0.3l2.7,0.6l2.6,0.7l1.3,0.4l1.3,0.5c0.8,0.3,1.7,0.6,2.5,0.8l2.5,1c0.4,0.2,0.8,0.3,1.2,0.5l1.2,0.6l1.2,0.6
	c0.4,0.2,0.8,0.4,1.2,0.6l2.3,1.2c0.4,0.2,0.8,0.5,1.2,0.6l1.2,0.7l1.2,0.7c0.4,0.3,0.7,0.5,1.1,0.8c0.7,0.5,1.5,1,2.2,1.6
	c2.8,2.1,5.4,4.5,7.9,7.1c2.4,2.7,4.5,5.4,6.5,8.5c3.8,6,6.7,12.7,8.8,19.7c0.3,0.8,0.5,1.7,0.8,2.6l0.6,2.7l0.3,1.3l0.3,1.4
	l0.6,2.7c0.2,0.9,0.3,1.8,0.5,2.7c0.1,0.9,0.3,1.8,0.5,2.7l0.4,2.7l0.2,1.4l0.1,0.7l0.2,2.1l7.7-0.7l-0.2-2.3l-0.1-0.7l-0.2-1.4
	l-0.4-2.8c-0.1-1-0.3-1.9-0.5-2.8c-0.2-1-0.3-1.9-0.5-2.8l-0.6-2.8l-0.4-1.7l-0.3-1.4l-0.7-2.8c-0.3-1-0.5-1.9-0.8-2.8
	c-2.2-7.5-5.4-14.8-9.6-21.6c-2.2-3.4-4.6-6.5-7.3-9.5c-2.8-2.9-5.8-5.6-8.9-8.1c-0.8-0.6-1.6-1.2-2.5-1.7c-0.4-0.3-0.8-0.6-1.2-0.8
	l-1.3-0.8l-1.3-0.8c-0.5-0.3-0.8-0.5-1.3-0.8l-2.7-1.4c-0.5-0.3-0.9-0.5-1.4-0.6l-1.4-0.6l-1.4-0.6c-0.5-0.2-0.9-0.4-1.4-0.6
	l-2.8-1.1c-0.9-0.3-1.9-0.6-2.8-1l-1.4-0.3l-1.4-0.4l-2.8-0.8l-2.8-0.6l-1.4-0.3c-0.5-0.1-1-0.2-1.4-0.3l-2.9-0.5
	c-0.5-0.1-1-0.1-1.4-0.2l-1.4-0.2c-1-0.1-1.9-0.3-2.9-0.3l-2.9-0.3l-1.4-0.1c-0.5-0.1-1-0.1-1.4-0.1l-1.2-0.1h-1.2l-1.1-0.1
	c-0.8-0.1-1.5-0.1-2.3-0.1L95.9,111.5z"/>
<polygon class="st79" points="120.7,204 128.6,217.8 136.6,204 132.3,204 132.3,109.5 124.9,109.5 124.9,204.1 120.7,204.1 "/>
<text transform="matrix(1 0 0 1 165.8196 256.3199)" class="st6 st80 st81">A</text>
<text transform="matrix(1 0 0 1 122.8562 63.0411)" class="st6 st80 st82">B</text>
<g>
	<linearGradient id="SVGID_59_" gradientUnits="userSpaceOnUse" x1="218.2799" y1="261.2935" x2="223.9075" y2="261.2935">
		<stop  offset="0" style="stop-color:#E4E0DF"/>
		<stop  offset="0" style="stop-color:#DEDBD7"/>
		<stop  offset="4.220345e-02" style="stop-color:#CAC8C6"/>
		<stop  offset="0.1232" style="stop-color:#9A9B9B"/>
		<stop  offset="0.2338" style="stop-color:#585F62"/>
		<stop  offset="0.264" style="stop-color:#475155"/>
		<stop  offset="0.3518" style="stop-color:#75797D"/>
		<stop  offset="0.4523" style="stop-color:#ABACAF"/>
		<stop  offset="0.5294" style="stop-color:#D0D0D2"/>
		<stop  offset="0.573" style="stop-color:#DFDFE0"/>
		<stop  offset="0.6333" style="stop-color:#D4D5D7"/>
		<stop  offset="0.7347" style="stop-color:#BABCBF"/>
		<stop  offset="0.8642" style="stop-color:#8F969B"/>
		<stop  offset="0.8764" style="stop-color:#8B9298"/>
		<stop  offset="1" style="stop-color:#D1D2D4"/>
		<stop  offset="1" style="stop-color:#A7A9AB"/>
	</linearGradient>
	<rect x="219.2" y="239.8" class="st83" width="3.4" height="43"/>
	<g>
		<linearGradient id="SVGID_60_" gradientUnits="userSpaceOnUse" x1="213.2878" y1="221.4006" x2="228.5367" y2="221.4006">
			<stop  offset="5.494510e-03" style="stop-color:#020203"/>
			<stop  offset="0.5" style="stop-color:#1A1A1A"/>
			<stop  offset="1" style="stop-color:#020203"/>
		</linearGradient>
		<path class="st84" d="M226.9,240.7h-12c-0.9,0-1.6-0.7-1.6-1.6v-35.3c0-0.9,0.7-1.6,1.6-1.6h12c0.9,0,1.6,0.7,1.6,1.6v35.3
			C228.5,240,227.8,240.7,226.9,240.7L226.9,240.7z"/>
		<circle class="st85" cx="220.9" cy="233.4" r="4.9"/>
		<circle class="st2" cx="220.9" cy="221.6" r="4.9"/>
		<circle class="st2" cx="220.9" cy="209.8" r="4.9"/>
	</g>
</g>
<g>
	
		<linearGradient id="SVGID_61_" gradientUnits="userSpaceOnUse" x1="-151.1643" y1="575.7275" x2="-145.5367" y2="575.7275" gradientTransform="matrix(-6.123234e-17 1 -1 -6.123234e-17 602.4965 361.7909)">
		<stop  offset="0" style="stop-color:#E4E0DF"/>
		<stop  offset="0" style="stop-color:#DEDBD7"/>
		<stop  offset="4.220345e-02" style="stop-color:#CAC8C6"/>
		<stop  offset="0.1232" style="stop-color:#9A9B9B"/>
		<stop  offset="0.2338" style="stop-color:#585F62"/>
		<stop  offset="0.264" style="stop-color:#475155"/>
		<stop  offset="0.3518" style="stop-color:#75797D"/>
		<stop  offset="0.4523" style="stop-color:#ABACAF"/>
		<stop  offset="0.5294" style="stop-color:#D0D0D2"/>
		<stop  offset="0.573" style="stop-color:#DFDFE0"/>
		<stop  offset="0.6333" style="stop-color:#D4D5D7"/>
		<stop  offset="0.7347" style="stop-color:#BABCBF"/>
		<stop  offset="0.8642" style="stop-color:#8F969B"/>
		<stop  offset="0.8764" style="stop-color:#8B9298"/>
		<stop  offset="1" style="stop-color:#D1D2D4"/>
		<stop  offset="1" style="stop-color:#A7A9AB"/>
	</linearGradient>
	<rect x="5.3" y="211.5" class="st86" width="43" height="3.4"/>
	<g>
		
			<linearGradient id="SVGID_62_" gradientUnits="userSpaceOnUse" x1="-156.1564" y1="535.8347" x2="-140.9075" y2="535.8347" gradientTransform="matrix(-6.123234e-17 1 -1 -6.123234e-17 602.4965 361.7909)">
			<stop  offset="5.494510e-03" style="stop-color:#020203"/>
			<stop  offset="0.5" style="stop-color:#1A1A1A"/>
			<stop  offset="1" style="stop-color:#020203"/>
		</linearGradient>
		<path class="st87" d="M47.4,219.2v-12c0-0.9,0.7-1.6,1.6-1.6h35.3c0.9,0,1.6,0.7,1.6,1.6v12c0,0.9-0.7,1.6-1.6,1.6H49
			C48.1,220.9,47.4,220.2,47.4,219.2L47.4,219.2z"/>
		<circle class="st2" cx="54.6" cy="213.3" r="4.9"/>
		<circle class="st2" cx="66.5" cy="213.3" r="4.9"/>
		<circle class="st3" cx="78.3" cy="213.3" r="4.9"/>
	</g>
</g>
<g>
	
		<linearGradient id="SVGID_63_" gradientUnits="userSpaceOnUse" x1="-3.7446" y1="24.6806" x2="1.883" y2="24.6806" gradientTransform="matrix(-1 0 0 -1 78.4 45.4113)">
		<stop  offset="0" style="stop-color:#E4E0DF"/>
		<stop  offset="0" style="stop-color:#DEDBD7"/>
		<stop  offset="4.220345e-02" style="stop-color:#CAC8C6"/>
		<stop  offset="0.1232" style="stop-color:#9A9B9B"/>
		<stop  offset="0.2338" style="stop-color:#585F62"/>
		<stop  offset="0.264" style="stop-color:#475155"/>
		<stop  offset="0.3518" style="stop-color:#75797D"/>
		<stop  offset="0.4523" style="stop-color:#ABACAF"/>
		<stop  offset="0.5294" style="stop-color:#D0D0D2"/>
		<stop  offset="0.573" style="stop-color:#DFDFE0"/>
		<stop  offset="0.6333" style="stop-color:#D4D5D7"/>
		<stop  offset="0.7347" style="stop-color:#BABCBF"/>
		<stop  offset="0.8642" style="stop-color:#8F969B"/>
		<stop  offset="0.8764" style="stop-color:#8B9298"/>
		<stop  offset="1" style="stop-color:#D1D2D4"/>
		<stop  offset="1" style="stop-color:#A7A9AB"/>
	</linearGradient>
	<rect x="77.8" y="-0.8" class="st88" width="3.4" height="43"/>
	<g>
		
			<linearGradient id="SVGID_64_" gradientUnits="userSpaceOnUse" x1="-8.7368" y1="-15.2123" x2="6.5122" y2="-15.2123" gradientTransform="matrix(-1 0 0 -1 78.4 45.4113)">
			<stop  offset="5.494510e-03" style="stop-color:#020203"/>
			<stop  offset="0.5" style="stop-color:#1A1A1A"/>
			<stop  offset="1" style="stop-color:#020203"/>
		</linearGradient>
		<path class="st89" d="M73.5,41.3h12c0.9,0,1.6,0.7,1.6,1.6v35.3c0,0.9-0.7,1.6-1.6,1.6h-12c-0.9,0-1.6-0.7-1.6-1.6V43
			C71.9,42.1,72.6,41.3,73.5,41.3L73.5,41.3z"/>
		<circle class="st85" cx="79.5" cy="48.6" r="4.9"/>
		<circle class="st2" cx="79.5" cy="60.4" r="4.9"/>
		<circle class="st2" cx="79.5" cy="72.3" r="4.9"/>
	</g>
</g>
</svg>
