<?xml version="1.0" encoding="utf-8"?>
<!-- Generator: Adobe Illustrator 22.0.1, SVG Export Plug-In . SVG Version: 6.00 Build 0)  -->
<svg version="1.1" id="Layer_1" xmlns="http://www.w3.org/2000/svg" xmlns:xlink="http://www.w3.org/1999/xlink" x="0px" y="0px"
	 viewBox="0 0 345.5 214.9" style="enable-background:new 0 0 345.5 214.9;" xml:space="preserve">
<style type="text/css">
	.st0{fill:#9A9B9B;stroke:#000000;stroke-width:0.4551;stroke-miterlimit:10;}
	.st1{fill:#363F3E;stroke:#FFFFFF;stroke-width:1.1192;stroke-miterlimit:10;}
	.st2{fill:#FFFFFF;}
	.st3{fill:none;stroke:#FFFFFF;stroke-width:1.8653;stroke-miterlimit:10;stroke-dasharray:12.6841;}
	.st4{fill:none;stroke:#FFFFFF;stroke-width:3.7306;stroke-miterlimit:10;stroke-dasharray:12.6841;}
	.st5{fill:#009FE3;}
	.st6{fill:#EFE914;}
	.st7{fill:url(#SVGID_1_);}
	.st8{fill:#030304;}
	.st9{fill:#F7BA16;}
	.st10{fill:#231F20;}
	.st11{fill:url(#path3508_2_);}
	.st12{fill:url(#path35856_2_);}
	.st13{fill:url(#SVGID_2_);}
	.st14{fill:url(#SVGID_3_);}
	.st15{fill:#C1171E;}
	.st16{fill:#020203;}
	.st17{fill:url(#path4205_2_);}
	.st18{fill:url(#SVGID_4_);}
	.st19{fill:none;}
	.st20{fill:#95C11F;}
	.st21{font-family:'MyriadPro-Regular';}
	.st22{font-size:13.9428px;}
	.st23{fill:#FFED00;}
	.st24{fill:none;stroke:#95C11F;stroke-miterlimit:10;}
	.st25{font-size:13.9999px;}
	.st26{fill:#F39200;}
</style>
<g>
	<path class="st0" d="M256.2,7.2l88.4,51L268.7,102c-4.4,2.5-4.4,6.6-0.1,9.1l75.3,43.4L254.8,206l-76.3-44c-3.8-2.2-9.9-2.2-13.7,0
		l-76.9,44.4l-88.4-51l75.4-43.5c4.6-2.7,4.7-7,0.1-9.6L0.2,59.1L89.3,7.6l74.4,43c4.8,2.8,12.6,2.7,17.4,0L256.2,7.2z"/>
	<path class="st1" d="M264.1,11.8l-81.5,47.1c-5.7,3.3-14.9,3.3-20.5,0L81.2,12.2L8.1,54.4L89,101.1c5.6,3.3,5.6,8.6-0.1,11.8
		L7.4,160l72.5,41.8l81.5-47.1c5.7-3.3,14.9-3.3,20.5,0l80.9,46.7l73.1-42.2L255,112.5c-5.6-3.3-5.6-8.6,0.1-11.8l81.5-47.1
		L264.1,11.8z"/>
	<g>
		<polygon class="st2" points="54.6,173.7 56.3,174.6 44.8,181.3 43.1,180.3 		"/>
		<polygon class="st2" points="73.9,162.5 75.6,163.5 64.1,170.1 62.4,169.2 		"/>
		<polygon class="st2" points="93.3,151.3 94.9,152.3 83.4,159 81.7,158 		"/>
		<polygon class="st2" points="54.6,173.7 56.3,174.6 44.8,181.3 43.1,180.3 		"/>
		<polygon class="st2" points="73.9,162.5 75.6,163.5 64.1,170.1 62.4,169.2 		"/>
		<polygon class="st2" points="93.3,151.3 94.9,152.3 83.4,159 81.7,158 		"/>
	</g>
	<g>
		<polygon class="st2" points="247.8,62.1 249.5,63.1 238,69.7 236.3,68.8 		"/>
		<polygon class="st2" points="267.2,51 268.8,51.9 257.3,58.6 255.6,57.6 		"/>
		<polygon class="st2" points="286.5,39.8 288.1,40.8 276.6,47.4 275,46.5 		"/>
		<polygon class="st2" points="299.7,32.1 301.4,33.1 295.9,36.3 294.3,35.3 		"/>
		<polygon class="st2" points="247.8,62.1 249.5,63.1 238,69.7 236.3,68.8 		"/>
		<polygon class="st2" points="267.2,51 268.8,51.9 257.3,58.6 255.6,57.6 		"/>
		<polygon class="st2" points="286.5,39.8 288.1,40.8 276.6,47.4 275,46.5 		"/>
		<polygon class="st2" points="300,32 301.7,32.9 295.9,36.3 294.3,35.3 		"/>
	</g>
	<g>
		<polygon class="st2" points="295,173.1 303.4,178 301.8,178.9 293.3,174.1 		"/>
		<polygon class="st2" points="274.1,163 275.8,162 287.2,168.6 285.6,169.6 		"/>
		<polygon class="st2" points="255,151.9 256.6,151 268.1,157.6 266.4,158.5 		"/>
		<polygon class="st2" points="235.8,140.9 237.5,139.9 248.9,146.5 247.2,147.5 		"/>
	</g>
	<g>
		<polygon class="st2" points="82.5,52.4 84.2,51.4 95.6,58 93.9,59 		"/>
		<polygon class="st2" points="63.3,41.3 65,40.3 76.4,46.9 74.8,47.9 		"/>
		<polygon class="st2" points="48.8,31 57.3,35.9 55.6,36.8 47.1,31.9 		"/>
	</g>
	<path class="st3" d="M107.9,144.1c48.3-29,45.2-52-2-79.3"/>
	<path class="st4" d="M180.3,151.8c20.2-11.7,51.8-56.7,3.1-91"/>
</g>
<g>
	<g>
		<g>
			<polygon class="st5" points="262.7,133.2 256.3,136.9 114.9,56.1 121.3,52.4 			"/>
		</g>
		<polygon class="st5" points="128.9,50.8 105.9,47.3 112.3,60.6 		"/>
	</g>
</g>
<g>
	<g>
		<polygon class="st6" points="204.2,65.6 210.7,69.5 70.5,146.8 64,142.9 		"/>
	</g>
	<polygon class="st6" points="61.3,138.4 55.1,151.6 78.1,148.6 	"/>
</g>
<g>
	
		<linearGradient id="SVGID_1_" gradientUnits="userSpaceOnUse" x1="240.1066" y1="-22.4061" x2="242.1215" y2="-22.4061" gradientTransform="matrix(0.866 0.5 0 1.1547 -52.4437 48.7468)">
		<stop  offset="0" style="stop-color:#EEEBEA"/>
		<stop  offset="0" style="stop-color:#E0DBD8"/>
		<stop  offset="0" style="stop-color:#D7D2CE"/>
		<stop  offset="6.786538e-02" style="stop-color:#C9C4C0"/>
		<stop  offset="0.1461" style="stop-color:#B4B0AB"/>
		<stop  offset="0.5225" style="stop-color:#E8E7E7"/>
		<stop  offset="0.6579" style="stop-color:#D8D6D5"/>
		<stop  offset="0.8764" style="stop-color:#B4B0AB"/>
		<stop  offset="1" style="stop-color:#DADADA"/>
		<stop  offset="1" style="stop-color:#B3B2B2"/>
	</linearGradient>
	<path class="st7" d="M157.3,162.9c0,0.3-0.3,0.6-0.6,0.6c-0.7-0.1-1.1-0.3-1.2-1v-39.7l1.7,1v39.1H157.3z"/>
	<g id="g3492" transform="matrix(1.25,0,0,-1.25,0,600)">
		<g id="g3494">
			<path id="path3496" class="st2" d="M124.7,379.2l-5.8,10.1c-0.3,0.5-0.2,0.9,0,1l5.8,3.3c0.3,0.2,0.7-0.2,0.9-0.5l5.8-10
				c0.3-0.5,0.3-0.9,0-1.1l-5.8-3.3C125.1,378.5,124.7,379.2,124.7,379.2z"/>
			<path id="path3498" class="st2" d="M131.3,383.1c0.3-0.5,0.3-0.9,0-1.1c-1.9-1.1-3.9-2.2-5.8-3.4c-0.4-0.3-0.9,0.5-0.9,0.5
				l-5.8,10.1c-0.3,0.5-0.2,0.9,0,1l5.8,3.3c0.3,0.2,0.7-0.2,0.9-0.5L131.3,383.1z"/>
			<path id="path3500" class="st2" d="M131.3,383.1c0.3-0.5,0.3-0.9,0-1.1c-1.9-1.1-3.9-2.2-5.8-3.4c-0.4-0.3-0.9,0.5-0.9,0.5
				l-5.8,10.1c-0.3,0.5-0.2,0.9,0,1l5.8,3.3c0.3,0.2,0.7-0.2,0.9-0.5L131.3,383.1z"/>
			<path id="path3502" class="st8" d="M125.4,393l5.8-10.1c0.3-0.5,0-0.6,0-0.6l-5.8-3.4c0,0-0.3-0.2-0.5,0.3l-5.8,10.1
				c-0.3,0.5,0,0.6,0,0.6c1.9,1.1,3.9,2.2,5.8,3.4C124.8,393.4,125.1,393.5,125.4,393z M125.2,392.9c-0.1,0.2-0.2,0.1-0.2,0.1
				c-1.9-1.1-3.9-2.2-5.8-3.4c0,0-0.1-0.1,0-0.3l5.8-10.1c0.1-0.2,0.2-0.1,0.2-0.1c1.9,1.1,3.9,2.2,5.8,3.4c0,0,0.1,0,0,0.3
				L125.2,392.9z"/>
			<path id="path3504" class="st9" d="M125.1,382.1l3.6,2.1l-3.6,6.2l-3.6-2.1L125.1,382.1z"/>
			<path id="path3506" class="st8" d="M125.1,381.9L125,382l-3.6,6.3l3.7,2.1l3.7-6.4L125.1,381.9z M125.1,382.2l3.5,2l-3.5,6
				l-3.5-2L125.1,382.2z"/>
			<path id="path3508" class="st8" d="M131.3,383.1c0.1-0.2,0.2-0.5,0.2-0.7s-0.1-0.3-0.2-0.4c-1.9-1.1-3.9-2.2-5.8-3.4
				c-0.2-0.1-0.4,0-0.6,0.2s-0.3,0.4-0.3,0.4l-5.8,10.1c-0.1,0.2-0.2,0.5-0.2,0.6c0,0.2,0.1,0.3,0.2,0.4l0,0l5.8,3.3
				c0.1,0.1,0.3,0,0.5-0.1s0.3-0.3,0.4-0.4L131.3,383.1z M131.3,383.1l-5.8,10c-0.2,0.3-0.6,0.7-0.9,0.5l-5.8-3.3
				c-0.2-0.1-0.3-0.5,0-1l5.8-10.1c0,0,0.4-0.8,0.9-0.5c1.9,1.1,3.9,2.2,5.8,3.4C131.6,382.2,131.6,382.7,131.3,383.1L131.3,383.1z"
				/>
		</g>
	</g>
	<g id="g35852" transform="matrix(1.25,0,0,-1.25,0,600.99804)">
		<g id="g35854">
			<path id="path35856" class="st2" d="M128.6,377.2l-7.1,4.1c-0.3,0.2-0.5,0-0.5-0.3v-8.2c0-0.4,0.2-0.8,0.5-0.9l7.1-4.1
				c0.3-0.2,0.5,0,0.5,0.3v8.2C129.2,376.6,128.9,377,128.6,377.2"/>
			<path id="path35858" class="st8" d="M121.5,381.2c-0.3,0.2-0.5,0-0.5-0.3v-8.2c0-0.4,0.2-0.8,0.5-1l7.1-4.1
				c0.3-0.2,0.5,0,0.5,0.3v8.2c0,0.4-0.2,0.8-0.5,1L121.5,381.2z M121.5,381.2l7.1-4.1c0.3-0.2,0.5-0.6,0.5-0.9V368
				c0-0.4-0.2-0.5-0.5-0.3l-7.1,4.1c-0.3,0.2-0.5,0.6-0.5,0.9v8.2C121,381.3,121.2,381.4,121.5,381.2z"/>
			<path id="path35860" class="st10" d="M121.5,381.1c-0.2,0.1-0.4,0-0.4-0.2v-8.2c0-0.3,0.2-0.6,0.4-0.7l7.1-4.1
				c0.2-0.1,0.4,0,0.4,0.2v8.2c0,0.3-0.2,0.6-0.4,0.7L121.5,381.1L121.5,381.1z M121.5,380.8l7.1-4.1c0.1-0.1,0.2-0.2,0.2-0.4v-8.2
				c0-0.1-0.1-0.2-0.2-0.1l-7.1,4.1c-0.1,0.1-0.2,0.2-0.2,0.4v8.2C121.3,380.9,121.4,380.9,121.5,380.8z"/>
			<path id="path35862" class="st10" d="M124.4,371.3v2c0,0.4-0.3,1-0.7,1.2l-1.7,1v1.6l1.7-1c1.1-0.7,2-2.2,2-3.5v-2"/>
			<path id="path35864" class="st10" d="M128.2,372.3l-2,1.2v0.8l2-1.2V372.3z"/>
			<path id="path35866" class="st10" d="M125.4,375.5l-0.7,0.4v2.4l0.7-0.4V375.5L125.4,375.5z"/>
		</g>
	</g>
</g>
<g>
	<g id="g3492_1_" transform="matrix(1.25,0,0,-1.25,0,600)">
		<g id="g3494_1_">
			<path id="path3496_1_" class="st2" d="M55.4,431.6l-5.8,3.3c-0.3,0.2-0.2,0.7,0,1l5.8,10c0.3,0.5,0.7,0.6,0.9,0.5l5.8-3.3
				c0.3-0.2,0.3-0.6,0-1l-5.8-10C55.9,431.4,55.4,431.6,55.4,431.6z"/>
			<path id="path3498_1_" class="st2" d="M62.1,443.2c0.3-0.2,0.3-0.6,0-1c-1.9-3.3-3.9-6.7-5.8-10c-0.4-0.8-0.9-0.5-0.9-0.5
				l-5.8,3.3c-0.3,0.2-0.2,0.7,0,1l5.8,10c0.3,0.5,0.7,0.6,0.9,0.5L62.1,443.2z"/>
			<path id="path3500_1_" class="st2" d="M62.1,443.2c0.3-0.2,0.3-0.6,0-1c-1.9-3.3-3.9-6.7-5.8-10c-0.4-0.8-0.9-0.5-0.9-0.5
				l-5.8,3.3c-0.3,0.2-0.2,0.7,0,1l5.8,10c0.3,0.5,0.7,0.6,0.9,0.5L62.1,443.2z"/>
			<path id="path3502_1_" class="st8" d="M56.1,446.2l5.8-3.3c0.3-0.2,0-0.6,0-0.6l-5.8-10.1c0,0-0.3-0.5-0.5-0.3l-5.8,3.3
				c-0.3,0.2,0,0.6,0,0.6c1.9,3.3,3.9,6.7,5.8,10C55.6,445.9,55.9,446.4,56.1,446.2z"/>
			
				<linearGradient id="path3508_2_" gradientUnits="userSpaceOnUse" x1="52.4238" y1="566.3417" x2="70.9994" y2="566.3417" gradientTransform="matrix(1.0825 0.625 0 1.4434 -7.3149 -414.8212)">
				<stop  offset="0" style="stop-color:#EEEBEA"/>
				<stop  offset="0" style="stop-color:#E0DBD8"/>
				<stop  offset="0" style="stop-color:#D7D2CE"/>
				<stop  offset="6.786538e-02" style="stop-color:#C9C4C0"/>
				<stop  offset="0.1461" style="stop-color:#B4B0AB"/>
				<stop  offset="0.5225" style="stop-color:#E8E7E7"/>
				<stop  offset="0.6579" style="stop-color:#D8D6D5"/>
				<stop  offset="0.8764" style="stop-color:#B4B0AB"/>
				<stop  offset="1" style="stop-color:#DADADA"/>
				<stop  offset="1" style="stop-color:#B3B2B2"/>
			</linearGradient>
			<path id="path3508_1_" class="st11" d="M62.1,443.2c0.1-0.1,0.2-0.2,0.2-0.4c0-0.2-0.1-0.4-0.2-0.6c-1.9-3.3-3.9-6.7-5.8-10
				c-0.2-0.4-0.4-0.5-0.6-0.5c-0.2,0-0.3,0-0.3,0l-5.8,3.3c-0.1,0.1-0.2,0.2-0.2,0.4c0,0.2,0.1,0.4,0.2,0.6l0,0l5.8,10
				c0.1,0.3,0.3,0.4,0.5,0.5s0.3,0.1,0.4,0L62.1,443.2z"/>
		</g>
	</g>
	<g id="g35852_1_" transform="matrix(1.25,0,0,-1.25,0,600.99804)">
		<g id="g35854_1_">
			
				<linearGradient id="path35856_2_" gradientUnits="userSpaceOnUse" x1="54.5989" y1="559.1586" x2="66.3898" y2="559.1586" gradientTransform="matrix(1.0825 0.625 0 1.4434 -7.3149 -416.0971)">
				<stop  offset="0" style="stop-color:#EEEBEA"/>
				<stop  offset="0" style="stop-color:#E0DBD8"/>
				<stop  offset="0" style="stop-color:#D7D2CE"/>
				<stop  offset="6.786538e-02" style="stop-color:#C9C4C0"/>
				<stop  offset="0.1461" style="stop-color:#B4B0AB"/>
				<stop  offset="0.5225" style="stop-color:#E8E7E7"/>
				<stop  offset="0.6579" style="stop-color:#D8D6D5"/>
				<stop  offset="0.8764" style="stop-color:#B4B0AB"/>
				<stop  offset="1" style="stop-color:#DADADA"/>
				<stop  offset="1" style="stop-color:#B3B2B2"/>
			</linearGradient>
			<path id="path35856_1_" class="st12" d="M59.4,434.2l-7.1-4.1c-0.3-0.2-0.5-0.6-0.5-0.9V421c0-0.3,0.2-0.5,0.5-0.3l7.1,4.1
				c0.3,0.2,0.5,0.6,0.5,0.9v8.1C60,434.2,59.7,434.4,59.4,434.2"/>
			<path id="path35858_1_" class="st8" d="M52.3,430.1c-0.3-0.2-0.5-0.6-0.5-0.9V421c0-0.3,0.2-0.5,0.5-0.3l7.1,4.1
				c0.3,0.2,0.5,0.6,0.5,0.9v8.1c0,0.3-0.2,0.5-0.5,0.3L52.3,430.1z M52.3,430.1l7.1,4.1c0.3,0.2,0.5,0,0.5-0.3v-8.1
				c0-0.3-0.2-0.8-0.5-0.9l-7.1-4.1c-0.3-0.2-0.5,0-0.5,0.3v8.1C51.8,429.5,52,429.9,52.3,430.1z"/>
		</g>
	</g>
	
		<linearGradient id="SVGID_2_" gradientUnits="userSpaceOnUse" x1="139.8341" y1="63.1653" x2="141.8491" y2="63.1653" gradientTransform="matrix(0.866 -0.5 0 1.1547 -52.1337 70.6535)">
		<stop  offset="0" style="stop-color:#EEEBEA"/>
		<stop  offset="0" style="stop-color:#E0DBD8"/>
		<stop  offset="0" style="stop-color:#D7D2CE"/>
		<stop  offset="6.786538e-02" style="stop-color:#C9C4C0"/>
		<stop  offset="0.1461" style="stop-color:#B4B0AB"/>
		<stop  offset="0.5225" style="stop-color:#E8E7E7"/>
		<stop  offset="0.6579" style="stop-color:#D8D6D5"/>
		<stop  offset="0.8764" style="stop-color:#B4B0AB"/>
		<stop  offset="1" style="stop-color:#DADADA"/>
		<stop  offset="1" style="stop-color:#B3B2B2"/>
	</linearGradient>
	<path class="st13" d="M70.8,95.4c0,0.4-0.3,1-0.6,1.4c-0.7,0.8-1.1,1.1-1.2,0.3V49.6l1.7-1L70.8,95.4L70.8,95.4z"/>
</g>
<g>
	
		<linearGradient id="SVGID_3_" gradientUnits="userSpaceOnUse" x1="326.0217" y1="34.963" x2="328.0366" y2="34.963" gradientTransform="matrix(1 0 0 1 -56.7341 64.0855)">
		<stop  offset="0" style="stop-color:#EEEBEA"/>
		<stop  offset="0" style="stop-color:#E0DBD8"/>
		<stop  offset="0" style="stop-color:#D7D2CE"/>
		<stop  offset="6.786538e-02" style="stop-color:#C9C4C0"/>
		<stop  offset="0.1461" style="stop-color:#B4B0AB"/>
		<stop  offset="0.5225" style="stop-color:#E8E7E7"/>
		<stop  offset="0.6579" style="stop-color:#D8D6D5"/>
		<stop  offset="0.8764" style="stop-color:#B4B0AB"/>
		<stop  offset="1" style="stop-color:#DADADA"/>
		<stop  offset="1" style="stop-color:#B3B2B2"/>
	</linearGradient>
	<path class="st14" d="M271.3,118c0,0.3-0.3,0.7-0.7,0.9c-0.8,0.3-1.3,0.3-1.3-0.3V79h2V118z"/>
	<g id="g4197" transform="matrix(1.25,0,0,-1.25,0,743.62267)">
		<g id="g4199">
			<path id="path4201" class="st2" d="M217,522.1c0.1,0.1,0.3,0.2,0.4,0.4c0,0.1,0.1,0.1,0.1,0.2l0.3,0.7l0,0l5.2,13.5l0,0
				c0,0.1,0,0.1,0.1,0.2c0.1,0.4-0.1,0.6-0.4,0.5c0,0-0.1,0-0.1-0.1l-11-6.4c-0.3-0.2-0.5-0.6-0.5-0.9c0-0.1,0-0.2,0.1-0.3l0,0
				l5.4-7.7c0.1-0.1,0.1-0.1,0.2-0.2C216.8,522,216.9,522,217,522.1z"/>
			<path id="path4203" class="st15" d="M217,522.3c0.1,0.1,0.3,0.2,0.3,0.4l5.5,14.2c0,0.1,0,0.2,0,0.2c0,0.1-0.1,0.2-0.1,0.3
				c-0.1,0-0.2,0-0.3,0l-11-6.4c-0.1,0-0.1-0.1-0.2-0.2c-0.1-0.1-0.2-0.3-0.2-0.5c0-0.1,0-0.2,0.1-0.2l5.5-7.8l0,0l0,0
				c0,0,0,0,0.1-0.1C216.8,522.2,216.9,522.2,217,522.3L217,522.3L217,522.3z M222.6,537.3L222.6,537.3L222.6,537.3L222.6,537.3z
				 M217,524.5l-4.2,6l8.4,4.9L217,524.5z"/>
			<path id="path4205" class="st16" d="M217,522.1c0.1,0.1,0.3,0.2,0.4,0.4c0,0.1,0.1,0.1,0.1,0.2l0.3,0.7l0,0l5.2,13.5l0,0
				c0,0.1,0,0.1,0.1,0.2c0.1,0.4-0.1,0.6-0.4,0.5c0,0-0.1,0-0.1-0.1l-11-6.4c-0.3-0.2-0.5-0.6-0.5-0.9c0-0.1,0-0.2,0.1-0.3l0,0
				l5.4-7.7c0.1-0.1,0.1-0.1,0.2-0.2C216.8,522,216.9,522,217,522.1z M217,522.1c-0.1-0.1-0.3-0.1-0.4,0c-0.1,0-0.1,0.1-0.2,0.2
				L211,530l0,0c0,0.1-0.1,0.2-0.1,0.3c0,0.3,0.2,0.7,0.5,0.9l11,6.4c0,0,0.1,0,0.1,0.1c0.3,0.1,0.4-0.2,0.4-0.5
				c0-0.1,0-0.1-0.1-0.2l0,0l-5.2-13.5l0,0l-0.3-0.7c0-0.1-0.1-0.1-0.1-0.2C217.3,522.3,217.2,522.2,217,522.1L217,522.1z"/>
		</g>
	</g>
</g>
<g>
	<g id="g4197_1_" transform="matrix(1.25,0,0,-1.25,0,743.62267)">
		<g id="g4199_1_">
			<path id="path4201_1_" class="st2" d="M151.7,577.6c0.1-0.1,0.3-0.1,0.4,0c0,0,0.1,0,0.1,0.1l0.3,0.4l0,0l5.2,7.4l0,0
				c0,0,0,0.1,0.1,0.1c0.1,0.3-0.1,0.7-0.4,0.9l-0.1,0.1l-11,6.4c-0.3,0.2-0.5,0-0.5-0.3c0-0.1,0-0.2,0.1-0.3l0,0l5.4-14
				c0.1-0.2,0.1-0.2,0.2-0.4C151.5,577.8,151.6,577.7,151.7,577.6z"/>
			<path id="path4203_1_" class="st15" d="M151.7,577.7c0.1-0.1,0.3-0.1,0.3,0l5.5,7.8c0,0.1,0,0.1,0,0.2c0,0.1-0.1,0.3-0.1,0.4
				c-0.1,0.1-0.2,0.2-0.3,0.3l-11,6.4c-0.1,0-0.1,0.1-0.2,0c-0.1,0-0.2-0.1-0.2-0.3c0-0.1,0-0.2,0.1-0.3l5.5-14.2l0,0l0,0
				c0,0,0-0.1,0.1-0.1C151.5,577.9,151.6,577.8,151.7,577.7C151.7,577.8,151.7,577.8,151.7,577.7L151.7,577.7z M157.2,586.4
				L157.2,586.4L157.2,586.4L157.2,586.4z"/>
			
				<linearGradient id="path4205_2_" gradientUnits="userSpaceOnUse" x1="120.1005" y1="829.9003" x2="135.2348" y2="829.9003" gradientTransform="matrix(1.25 0 0 1.25 -4.4509 -452.0227)">
				<stop  offset="0" style="stop-color:#EEEBEA"/>
				<stop  offset="0" style="stop-color:#E0DBD8"/>
				<stop  offset="0" style="stop-color:#D7D2CE"/>
				<stop  offset="6.786538e-02" style="stop-color:#C9C4C0"/>
				<stop  offset="0.1461" style="stop-color:#B4B0AB"/>
				<stop  offset="0.5225" style="stop-color:#E8E7E7"/>
				<stop  offset="0.6579" style="stop-color:#D8D6D5"/>
				<stop  offset="0.8764" style="stop-color:#B4B0AB"/>
				<stop  offset="1" style="stop-color:#DADADA"/>
				<stop  offset="1" style="stop-color:#B3B2B2"/>
			</linearGradient>
			<path id="path4205_1_" class="st17" d="M151.7,577.6c0.1-0.1,0.3-0.1,0.4,0c0,0,0.1,0,0.1,0.1l0.3,0.4l0,0l5.2,7.4l0,0
				c0,0,0,0.1,0.1,0.1c0.1,0.3-0.1,0.7-0.4,1l-0.1,0.1l-11,6.4c-0.3,0.2-0.5,0-0.5-0.3c0-0.1,0-0.2,0.1-0.3l0,0l5.4-14
				c0.1-0.2,0.1-0.3,0.2-0.4C151.5,577.8,151.6,577.7,151.7,577.6z"/>
		</g>
	</g>
	
		<linearGradient id="SVGID_4_" gradientUnits="userSpaceOnUse" x1="245.3822" y1="-34.037" x2="247.3971" y2="-34.037" gradientTransform="matrix(1 0 0 1 -56.7341 64.0855)">
		<stop  offset="0" style="stop-color:#EEEBEA"/>
		<stop  offset="0" style="stop-color:#E0DBD8"/>
		<stop  offset="0" style="stop-color:#D7D2CE"/>
		<stop  offset="6.786538e-02" style="stop-color:#C9C4C0"/>
		<stop  offset="0.1461" style="stop-color:#B4B0AB"/>
		<stop  offset="0.5225" style="stop-color:#E8E7E7"/>
		<stop  offset="0.6579" style="stop-color:#D8D6D5"/>
		<stop  offset="0.8764" style="stop-color:#B4B0AB"/>
		<stop  offset="1" style="stop-color:#DADADA"/>
		<stop  offset="1" style="stop-color:#B3B2B2"/>
	</linearGradient>
	<path class="st18" d="M190.7,49c0,0.3-0.3,0.7-0.7,0.9c-0.8,0.3-1.3,0.3-1.3-0.3V10h2V49z"/>
</g>
<polygon class="st19" points="289.9,141 277.5,148.1 267.9,142.6 280.4,135.5 "/>
<polygon class="st19" points="237.6,54.3 225.2,61.4 215.7,56 228.1,48.8 "/>
<polygon class="st19" points="114,84.5 101.6,91.6 92.1,86.1 104.5,79 "/>
<text transform="matrix(0.8696 -0.502 0.866 0.5 100.7081 92.0906)" class="st20 st21 st22">D</text>
<g>
	<text transform="matrix(0.8696 -0.502 0.866 0.5 129.692 156.1901)" class="st23 st21 st22">A</text>
	<ellipse class="st24" cx="130.1" cy="152" rx="10.6" ry="8"/>
</g>
<g>
	<text transform="matrix(0.866 -0.5 0.866 0.5 276.5661 147.6138)" class="st5 st21 st25">B</text>
	<ellipse class="st24" cx="276.4" cy="143.7" rx="10.6" ry="8"/>
</g>
<g>
	<text transform="matrix(0.8696 -0.502 0.866 0.5 223.3054 60.9016)" class="st26 st21 st22">C</text>
	<ellipse class="st24" cx="223.2" cy="56.3" rx="10.6" ry="8"/>
</g>
<g>
	<ellipse class="st24" cx="100.3" cy="87.4" rx="10.6" ry="8"/>
</g>
</svg>
