<?xml version="1.0" encoding="utf-8"?>
<!-- Generator: Adobe Illustrator 22.0.1, SVG Export Plug-In . SVG Version: 6.00 Build 0)  -->
<svg version="1.1" id="Layer_1" xmlns="http://www.w3.org/2000/svg" xmlns:xlink="http://www.w3.org/1999/xlink" x="0px" y="0px"
	 viewBox="0 0 171 214.5" style="enable-background:new 0 0 171 214.5;" xml:space="preserve">
<style type="text/css">
	.st0{fill:#020203;}
	.st1{fill:url(#SVGID_1_);}
	.st2{fill:#616160;}
	.st3{fill:#E30613;stroke:#ED6B6E;stroke-miterlimit:10;}
	.st4{fill:url(#SVGID_2_);}
	.st5{fill:#282828;}
	.st6{fill:#95C11F;stroke:#BEDFC9;stroke-miterlimit:10;}
</style>
<g>
	<path class="st0" d="M76,0c5.5,0,10,4.5,10,10v194.5c0,5.5-4.5,10-10,10H10c-5.5,0-10-4.5-10-10V10C0,4.5,4.5,0,10,0H76 M76,2H10
		c-4.4,0-8,3.6-8,8v194.5c0,4.4,3.6,8,8,8h66c4.4,0,8-3.6,8-8V10C84,5.6,80.4,2,76,2L76,2z"/>
	<g>
		<linearGradient id="SVGID_1_" gradientUnits="userSpaceOnUse" x1="1.001" y1="107.2505" x2="85" y2="107.2505">
			<stop  offset="5.494510e-03" style="stop-color:#020203"/>
			<stop  offset="0.5" style="stop-color:#1A1A1A"/>
			<stop  offset="1" style="stop-color:#020203"/>
		</linearGradient>
		<path class="st1" d="M76,213.5H10c-5,0-9-4-9-9V10c0-5,4-9,9-9h66c5,0,9,4,9,9v194.5C85,209.5,81,213.5,76,213.5L76,213.5z"/>
		<circle class="st2" cx="43" cy="173.5" r="26.8"/>
		<circle class="st2" cx="43" cy="108.3" r="26.8"/>
		<circle class="st3" cx="43" cy="43.2" r="26.8"/>
	</g>
</g>
<g>
	<linearGradient id="SVGID_2_" gradientUnits="userSpaceOnUse" x1="87.001" y1="77.4371" x2="171" y2="77.4371">
		<stop  offset="5.494510e-03" style="stop-color:#020203"/>
		<stop  offset="0.5" style="stop-color:#1A1A1A"/>
		<stop  offset="1" style="stop-color:#020203"/>
	</linearGradient>
	<path class="st4" d="M162,152.9H96c-5,0-9-2.9-9-6.4V8.4C87,4.9,91,2,96,2h66c5,0,9,2.9,9,6.4v138.1C171,150,167,152.9,162,152.9
		L162,152.9z"/>
	<circle class="st5" cx="128" cy="108.3" r="26.8"/>
	<circle class="st2" cx="128" cy="42.3" r="26.8"/>
	<g>
		<g>
			<polygon class="st6" points="125.4,121.6 141.1,108.3 125.4,95.1 132.8,95.1 148.5,108.3 132.8,121.6 			"/>
		</g>
		<rect x="107.3" y="105.8" class="st6" width="26" height="5"/>
	</g>
</g>
</svg>
