<?xml version="1.0" encoding="utf-8"?>
<!-- Generator: Adobe Illustrator 23.0.1, SVG Export Plug-In . SVG Version: 6.00 Build 0)  -->
<svg version="1.1" id="Layer_1" xmlns="http://www.w3.org/2000/svg" xmlns:xlink="http://www.w3.org/1999/xlink" x="0px" y="0px"
	 viewBox="0 0 498.97 268.82" style="enable-background:new 0 0 498.97 268.82;" xml:space="preserve">
<style type="text/css">
	.st0{clip-path:url(#SVGID_2_);}
	.st1{clip-path:url(#SVGID_3_);}
	.st2{fill-rule:evenodd;clip-rule:evenodd;fill:#2E3192;}
	.st3{fill-rule:evenodd;clip-rule:evenodd;fill:#1B1464;}
	.st4{fill-rule:evenodd;clip-rule:evenodd;fill:#CCCCCC;}
	.st5{fill-rule:evenodd;clip-rule:evenodd;fill:#808080;}
	.st6{fill-rule:evenodd;clip-rule:evenodd;}
	.st7{clip-path:url(#SVGID_4_);}
</style>
<g>
	<g>
		<g>
			<defs>
				<ellipse id="SVGID_1_" cx="206.65" cy="46.89" rx="113.12" ry="36.21"/>
			</defs>
			<clipPath id="SVGID_2_">
				<use xlink:href="#SVGID_1_"  style="overflow:visible;"/>
			</clipPath>
			<g class="st0">
			</g>
		</g>
	</g>
	<g>
		<g>
			<defs>
				<path id="SVGID_5_" d="M487,76.86L487,76.86c-5.25-7.66-18.7-10.34-28.94-13.53c-71.53-16.47-95.31-11.11-107.25-12.71
					c-2.41-0.61-4.56-2.62-6.53-3.79c-4.32-2.56-8.8-4.82-13.05-7.3c-7.03-4.1-39.47-21.02-48.24-24.07
					c-19.27-6.71-49.73-12.1-123.14-6.49c-2.98-0.78-4.78-3.07-7.94-3.79c-3.13-0.7-6.01,0.87-8.23,1.36
					c0.04,2.29-0.17,4.16-0.56,5.95c-14.35,5.77-28.87,10.2-43.13,15.96c-5.95,2.4-12.1,4.76-18.16,7.3
					c-3.77,1.58-7.38,3.83-11.63,5.14c-4.62,1.43-9.67,0.78-14.76,1.89c-9.25,2.03-19.28,2.3-29.51,2.44
					c-1.17,1.91-3.2,3.83-3.69,6.22c1.77,0.52,2.36,1.68,2.27,4.05c-3.13,4.42-2.29,10.72-2.27,17.86
					c-6.67,3.25-7.68,15.18-5.96,24.62l-0.57,2.44c0.36,2.67,1.27,5.49,1.42,8.38c2.51,1.6,5.34,4.17,7.1,6.49
					c0.85,1.13,1.27,3.08,2.84,3.52c8.38,5.83,50.79,7.03,50.79,7.03l2.23,0.12c-0.34-2.01-0.52-4.07-0.52-6.17
					c0-21.19,18.01-38.37,40.24-38.37c22.23,0,40.24,17.18,40.24,38.37c0,3.55-0.51,9.34-1.46,12.6L381.53,132
					c-1.35-3.84-2.09-7.95-2.09-12.23c0-21.19,18.02-38.37,40.24-38.37s40.24,17.18,40.24,38.37c0,3.71-0.55,7.3-1.59,10.7
					l2.28-0.05c0,0,17.57-0.81,21.85-2.71c4.29-1.89,5.96-7.3,5.96-7.3l-1.13-11.36C487.29,109.06,492.57,84.98,487,76.86z
					 M130.92,49.01c-13.33-8.45-6.27-18.31-6.62-18.28c-0.15,0.12-0.27,0.23-0.37,0.32c0.22-0.22,0.32-0.32,0.37-0.32
					c3.43-2.92,23.04-15.98,92.6-16.08c2.18,11.63,4.35,26.91,6.53,38.54C195.43,52.38,140.34,52.83,130.92,49.01z M310.24,53.33
					c-6.11,0-66.96-0.02-66.96-0.02s-9.83-24.69-13.34-38.39c0.41,0.03,12.49,0.54,12.49,0.54s23.9,2.59,38.87,7.3
					c11.77,3.71,35.02,18.6,35.47,19.48C309.77,42.58,308.12,47.83,310.24,53.33z"/>
			</defs>
			<clipPath id="SVGID_3_">
				<use xlink:href="#SVGID_5_"  style="overflow:visible;"/>
			</clipPath>
			<g class="st1">
			</g>
		</g>
	</g>
	<g>
		<g>
			<path id="XMLID_23_" class="st2" d="M419.23,88.22c17.55,0,31.78,13.56,31.78,30.29c0,16.73-14.23,30.3-31.78,30.3
				c-17.55,0-31.77-13.56-31.77-30.3C387.46,101.79,401.69,88.22,419.23,88.22L419.23,88.22z M419.23,93.58
				c14.45,0,26.16,11.17,26.16,24.94c0,13.78-11.71,24.95-26.16,24.95c-14.45,0-26.16-11.17-26.16-24.95
				C393.07,104.74,404.79,93.58,419.23,93.58L419.23,93.58z"/>
			<path id="XMLID_16_" class="st3" d="M419.23,87.96c0.28,0,0.55,0,0.83,0.01c0.28,0,0.55,0.02,0.82,0.03
				c0.27,0.02,0.55,0.03,0.82,0.05c0.27,0.02,0.54,0.05,0.81,0.07c0.27,0.03,0.54,0.06,0.81,0.09c0.27,0.03,0.53,0.07,0.8,0.11
				c0.27,0.04,0.53,0.08,0.79,0.13c0.27,0.04,0.53,0.09,0.79,0.14c0.26,0.05,0.52,0.11,0.78,0.16c0.26,0.05,0.52,0.11,0.77,0.18
				c0.26,0.07,0.51,0.13,0.77,0.2c0.25,0.07,0.51,0.14,0.75,0.21c0.25,0.07,0.5,0.15,0.75,0.23c0.24,0.08,0.49,0.16,0.74,0.25
				c0.24,0.08,0.49,0.17,0.73,0.26c0.24,0.09,0.49,0.18,0.73,0.28c0.24,0.1,0.48,0.2,0.71,0.3c0.23,0.1,0.47,0.21,0.7,0.31
				c0.23,0.11,0.47,0.22,0.69,0.33c0.23,0.11,0.46,0.23,0.69,0.35c0.23,0.11,0.45,0.24,0.68,0.36l0,0c0.22,0.12,0.45,0.25,0.67,0.38
				c0.22,0.13,0.44,0.26,0.65,0.39c0.22,0.13,0.43,0.27,0.65,0.4c0.21,0.14,0.42,0.28,0.63,0.42c0.21,0.14,0.42,0.29,0.63,0.43
				c0.2,0.15,0.41,0.29,0.61,0.45c0.2,0.15,0.4,0.3,0.6,0.46l0,0c0.2,0.16,0.39,0.31,0.59,0.47c0.19,0.16,0.39,0.32,0.57,0.49
				c0.19,0.16,0.38,0.33,0.56,0.5c0.18,0.17,0.37,0.34,0.55,0.51c0.18,0.17,0.36,0.35,0.54,0.52c0.18,0.18,0.35,0.36,0.52,0.54
				c0.17,0.18,0.35,0.36,0.51,0.55l0,0c0.16,0.18,0.33,0.37,0.49,0.56c0.16,0.19,0.33,0.38,0.49,0.57c0.16,0.19,0.31,0.39,0.47,0.58
				c0.16,0.2,0.31,0.39,0.45,0.59c0.15,0.2,0.3,0.4,0.44,0.6c0.14,0.2,0.29,0.41,0.43,0.61c0.14,0.21,0.27,0.42,0.41,0.63
				c0.13,0.21,0.27,0.42,0.39,0.64c0.13,0.21,0.25,0.42,0.38,0.64l0,0c0.12,0.22,0.24,0.43,0.36,0.65l0,0
				c0.12,0.22,0.23,0.44,0.35,0.66c0.11,0.22,0.22,0.45,0.33,0.67l0,0c0.11,0.23,0.21,0.45,0.31,0.68c0.1,0.23,0.2,0.46,0.3,0.69
				c0.09,0.23,0.18,0.46,0.28,0.7l0,0c0.09,0.23,0.18,0.47,0.26,0.71s0.16,0.47,0.24,0.71c0.08,0.24,0.15,0.48,0.22,0.72
				c0.07,0.24,0.14,0.48,0.21,0.73c0.06,0.25,0.13,0.49,0.19,0.74c0.06,0.25,0.12,0.49,0.17,0.74l0,0c0.05,0.25,0.1,0.5,0.15,0.75
				l0,0c0.04,0.25,0.09,0.5,0.13,0.75c0.04,0.26,0.08,0.51,0.11,0.76l0,0c0.04,0.26,0.06,0.51,0.09,0.77l0,0
				c0.03,0.26,0.05,0.51,0.07,0.77l0,0c0.02,0.26,0.04,0.52,0.05,0.78l0,0c0.01,0.26,0.02,0.52,0.03,0.78l0,0
				c0,0.26,0.01,0.52,0.01,0.79l0,0c0,0.26,0,0.53-0.01,0.79l0,0c-0.01,0.26-0.02,0.52-0.03,0.78l0,0
				c-0.02,0.26-0.03,0.52-0.05,0.78l0,0c-0.02,0.26-0.04,0.52-0.07,0.77l0,0c-0.03,0.26-0.06,0.51-0.09,0.77l0,0
				c-0.03,0.26-0.07,0.51-0.11,0.76c-0.04,0.25-0.08,0.51-0.13,0.75l0,0c-0.05,0.25-0.1,0.5-0.15,0.75l0,0
				c-0.05,0.25-0.11,0.5-0.17,0.74c-0.06,0.25-0.12,0.49-0.19,0.74c-0.06,0.25-0.14,0.49-0.21,0.73c-0.07,0.24-0.14,0.48-0.22,0.72
				c-0.08,0.24-0.16,0.48-0.24,0.72c-0.08,0.23-0.17,0.47-0.26,0.7l0,0c-0.09,0.23-0.18,0.47-0.28,0.7c-0.1,0.23-0.2,0.46-0.3,0.69
				c-0.1,0.23-0.2,0.46-0.31,0.68l0,0c-0.11,0.22-0.22,0.45-0.33,0.67c-0.11,0.22-0.23,0.44-0.35,0.66l0,0
				c-0.12,0.22-0.24,0.44-0.36,0.65l0,0c-0.12,0.22-0.25,0.43-0.38,0.65c-0.13,0.21-0.26,0.42-0.39,0.64
				c-0.14,0.21-0.27,0.42-0.41,0.62c-0.14,0.21-0.28,0.41-0.43,0.62c-0.14,0.2-0.29,0.4-0.44,0.6c-0.15,0.2-0.3,0.4-0.45,0.6
				c-0.15,0.2-0.31,0.39-0.47,0.58c-0.16,0.19-0.32,0.38-0.49,0.57c-0.16,0.19-0.33,0.38-0.49,0.56l0,0
				c-0.17,0.18-0.34,0.37-0.51,0.55c-0.17,0.18-0.35,0.36-0.52,0.54c-0.18,0.18-0.36,0.35-0.54,0.52c-0.18,0.17-0.37,0.34-0.55,0.51
				c-0.18,0.17-0.37,0.33-0.56,0.5c-0.19,0.16-0.38,0.33-0.57,0.49c-0.2,0.16-0.39,0.32-0.59,0.47l0,0c-0.2,0.16-0.4,0.31-0.6,0.46
				c-0.2,0.15-0.41,0.3-0.61,0.44c-0.21,0.15-0.41,0.29-0.63,0.43c-0.21,0.15-0.42,0.28-0.63,0.42c-0.21,0.14-0.43,0.27-0.65,0.41
				c-0.22,0.13-0.43,0.26-0.65,0.39c-0.22,0.13-0.44,0.25-0.67,0.38l0,0c-0.22,0.12-0.45,0.24-0.68,0.36
				c-0.22,0.11-0.45,0.23-0.69,0.34c-0.23,0.11-0.46,0.22-0.69,0.33c-0.23,0.11-0.47,0.21-0.7,0.31c-0.24,0.1-0.48,0.2-0.71,0.3
				c-0.24,0.1-0.48,0.19-0.73,0.28c-0.24,0.09-0.49,0.18-0.73,0.26c-0.24,0.08-0.49,0.17-0.74,0.25c-0.25,0.08-0.5,0.16-0.75,0.23
				c-0.25,0.08-0.5,0.15-0.75,0.21c-0.25,0.07-0.51,0.14-0.77,0.2c-0.25,0.06-0.51,0.12-0.77,0.18s-0.52,0.11-0.78,0.16
				c-0.26,0.05-0.52,0.1-0.79,0.15c-0.26,0.04-0.53,0.08-0.79,0.12c-0.27,0.04-0.53,0.08-0.8,0.11c-0.27,0.03-0.54,0.06-0.81,0.09
				c-0.27,0.03-0.54,0.05-0.81,0.07c-0.27,0.02-0.54,0.03-0.82,0.05c-0.27,0.01-0.55,0.02-0.82,0.03c-0.27,0-0.55,0.01-0.83,0.01
				s-0.55,0-0.83-0.01c-0.27-0.01-0.55-0.02-0.82-0.03c-0.27-0.02-0.54-0.03-0.82-0.05c-0.27-0.02-0.54-0.04-0.81-0.07
				c-0.27-0.03-0.54-0.05-0.81-0.09c-0.27-0.03-0.53-0.07-0.8-0.11c-0.27-0.04-0.53-0.08-0.79-0.12c-0.26-0.05-0.53-0.1-0.79-0.15
				c-0.26-0.05-0.52-0.1-0.78-0.16c-0.26-0.06-0.51-0.12-0.77-0.18c-0.26-0.06-0.51-0.13-0.76-0.2c-0.25-0.07-0.51-0.14-0.76-0.21
				c-0.25-0.07-0.5-0.15-0.75-0.23c-0.25-0.08-0.5-0.16-0.74-0.25c-0.24-0.09-0.49-0.18-0.73-0.26c-0.24-0.09-0.49-0.19-0.72-0.28
				c-0.24-0.1-0.48-0.2-0.71-0.3c-0.24-0.1-0.47-0.21-0.71-0.31c-0.23-0.11-0.47-0.22-0.69-0.33c-0.23-0.11-0.46-0.23-0.69-0.34
				c-0.23-0.12-0.45-0.24-0.67-0.36l0,0c-0.22-0.12-0.45-0.25-0.67-0.38c-0.22-0.13-0.44-0.26-0.66-0.39
				c-0.22-0.13-0.43-0.27-0.64-0.41c-0.21-0.14-0.43-0.28-0.63-0.42c-0.21-0.14-0.42-0.28-0.62-0.43c-0.2-0.15-0.41-0.29-0.61-0.44
				c-0.2-0.15-0.41-0.31-0.6-0.46l0,0c-0.2-0.15-0.39-0.31-0.59-0.47c-0.19-0.16-0.39-0.33-0.57-0.49c-0.19-0.16-0.38-0.33-0.57-0.5
				c-0.18-0.17-0.37-0.34-0.55-0.51c-0.18-0.17-0.36-0.35-0.54-0.52c-0.18-0.18-0.35-0.36-0.52-0.54c-0.17-0.18-0.34-0.36-0.51-0.55
				l0,0c-0.17-0.19-0.33-0.38-0.5-0.56c-0.16-0.19-0.33-0.38-0.48-0.57c-0.16-0.19-0.32-0.39-0.47-0.58
				c-0.15-0.2-0.31-0.39-0.45-0.6c-0.15-0.2-0.3-0.4-0.44-0.6c-0.14-0.2-0.29-0.41-0.42-0.62c-0.14-0.21-0.28-0.41-0.41-0.62
				s-0.27-0.42-0.39-0.64s-0.26-0.43-0.38-0.65l0,0c-0.12-0.21-0.24-0.43-0.37-0.65l0,0c-0.12-0.22-0.23-0.44-0.35-0.66
				c-0.11-0.22-0.22-0.45-0.33-0.67l0,0c-0.1-0.23-0.21-0.46-0.31-0.68c-0.1-0.23-0.2-0.46-0.29-0.69c-0.1-0.23-0.19-0.46-0.28-0.7
				l0,0c-0.09-0.23-0.18-0.47-0.26-0.7c-0.08-0.24-0.17-0.47-0.24-0.72c-0.08-0.24-0.15-0.48-0.22-0.72
				c-0.07-0.24-0.14-0.49-0.21-0.73c-0.06-0.24-0.13-0.49-0.18-0.74c-0.06-0.25-0.12-0.49-0.17-0.74l0,0
				c-0.05-0.25-0.1-0.5-0.15-0.75l0,0c-0.05-0.25-0.09-0.5-0.13-0.75c-0.04-0.25-0.08-0.51-0.11-0.76l0,0
				c-0.03-0.26-0.06-0.51-0.09-0.77l0,0c-0.02-0.26-0.05-0.51-0.07-0.77l0,0c-0.02-0.26-0.04-0.52-0.05-0.78l0,0
				c-0.01-0.26-0.02-0.52-0.03-0.78l0,0c-0.01-0.26-0.01-0.52-0.01-0.79l0,0c0-0.26,0-0.52,0.01-0.79l0,0
				c0-0.26,0.02-0.52,0.03-0.78l0,0c0.02-0.26,0.03-0.52,0.05-0.78l0,0c0.02-0.26,0.05-0.52,0.07-0.77l0,0
				c0.03-0.26,0.06-0.51,0.09-0.77l0,0c0.04-0.25,0.07-0.51,0.11-0.76s0.08-0.5,0.13-0.75l0,0c0.04-0.25,0.1-0.5,0.15-0.75l0,0
				c0.06-0.25,0.11-0.49,0.17-0.74c0.06-0.25,0.12-0.49,0.18-0.74c0.07-0.25,0.14-0.49,0.21-0.73c0.07-0.24,0.15-0.48,0.22-0.72
				c0.08-0.24,0.16-0.47,0.24-0.71c0.08-0.24,0.17-0.47,0.26-0.71l0,0c0.09-0.23,0.18-0.47,0.28-0.7c0.1-0.23,0.19-0.46,0.29-0.69
				c0.1-0.23,0.21-0.46,0.31-0.68l0,0c0.11-0.23,0.22-0.45,0.33-0.67s0.23-0.44,0.35-0.66l0,0c0.12-0.22,0.24-0.44,0.37-0.65l0,0
				c0.12-0.22,0.25-0.43,0.38-0.64c0.13-0.21,0.26-0.42,0.39-0.64c0.13-0.21,0.27-0.42,0.41-0.63c0.14-0.21,0.28-0.41,0.42-0.61
				c0.14-0.2,0.29-0.41,0.44-0.6c0.15-0.2,0.3-0.4,0.45-0.59c0.15-0.2,0.31-0.39,0.47-0.58c0.16-0.2,0.32-0.39,0.48-0.57
				c0.16-0.19,0.33-0.38,0.5-0.56l0,0c0.17-0.18,0.34-0.37,0.51-0.55c0.17-0.18,0.35-0.36,0.52-0.54c0.18-0.18,0.36-0.35,0.54-0.52
				c0.18-0.17,0.37-0.34,0.55-0.51c0.19-0.17,0.37-0.33,0.57-0.5c0.19-0.16,0.38-0.33,0.57-0.49c0.19-0.16,0.39-0.32,0.59-0.47l0,0
				c0.2-0.16,0.4-0.31,0.6-0.46c0.2-0.15,0.41-0.3,0.61-0.45c0.2-0.15,0.41-0.29,0.62-0.43c0.21-0.14,0.42-0.28,0.63-0.42
				c0.21-0.13,0.43-0.27,0.64-0.4c0.22-0.13,0.44-0.26,0.66-0.39c0.22-0.13,0.44-0.25,0.67-0.38l0,0c0.22-0.12,0.45-0.25,0.67-0.36
				c0.23-0.12,0.45-0.23,0.69-0.35c0.23-0.11,0.46-0.22,0.69-0.33c0.23-0.11,0.47-0.21,0.71-0.31c0.24-0.1,0.47-0.2,0.71-0.3
				c0.24-0.1,0.48-0.19,0.72-0.28c0.24-0.09,0.49-0.18,0.73-0.26c0.24-0.09,0.49-0.17,0.74-0.25c0.25-0.08,0.5-0.16,0.75-0.23
				c0.25-0.07,0.51-0.15,0.76-0.21c0.25-0.07,0.51-0.13,0.76-0.2c0.26-0.06,0.51-0.12,0.77-0.18c0.26-0.06,0.52-0.11,0.78-0.16
				c0.26-0.05,0.53-0.1,0.79-0.14c0.27-0.05,0.53-0.09,0.79-0.13c0.27-0.04,0.53-0.07,0.8-0.11c0.27-0.03,0.54-0.06,0.81-0.09
				c0.27-0.02,0.54-0.05,0.81-0.07c0.27-0.02,0.54-0.03,0.82-0.05c0.27-0.01,0.55-0.02,0.82-0.03
				C418.68,87.96,418.96,87.96,419.23,87.96L419.23,87.96z M424.1,91.68c8.77,1.44,16.17,6.68,20.27,13.89
				c-0.02,0.01-14.2,5.03-16.01,5.69c-1.82,0.67-5.03,0.93-4.89-1.99C423.61,106.34,424.1,91.75,424.1,91.68L424.1,91.68z
				 M447.5,114.56c0.2,1.29,0.3,2.61,0.3,3.95c0,7.26-2.98,13.85-7.83,18.73c-0.17-0.2-9.44-11.3-10.66-12.73
				c-1.23-1.44-2.49-4.26,0.47-5.05C432.73,118.69,447.39,114.6,447.5,114.56L447.5,114.56z M431.71,143.02
				c-3.77,1.75-8,2.73-12.48,2.73c-4.47,0-8.71-0.98-12.48-2.73c0,0,8.45-11.98,9.52-13.53c1.07-1.55,3.51-3.56,5.19-1.1
				C423.14,130.84,431.72,143.02,431.71,143.02L431.71,143.02z M398.33,137.08c-4.75-4.86-7.66-11.39-7.66-18.56
				c0-1.42,0.11-2.82,0.33-4.18c0.08,0.02,14.5,4.19,16.36,4.7c1.87,0.52,4.6,2.16,2.63,4.41
				C408.04,125.68,398.51,136.87,398.33,137.08L398.33,137.08z M394.11,105.55c4.1-7.2,11.5-12.45,20.28-13.88
				c0,0.11,0.46,14.44,0.55,16.28c0.08,1.85-0.68,4.84-3.55,3.78C408.52,110.68,394.11,105.55,394.11,105.55L394.11,105.55z"/>
			<path id="XMLID_15_" class="st4" d="M419.23,122.55c2.33,0,4.23-1.81,4.23-4.04c0-2.22-1.9-4.04-4.23-4.04
				c-2.33,0-4.23,1.81-4.23,4.04C415,120.74,416.9,122.55,419.23,122.55L419.23,122.55z"/>
			<path id="XMLID_14_" class="st5" d="M419.23,111.21c1.14,0,2.07-0.88,2.07-1.97c0-1.09-0.93-1.97-2.07-1.97
				c-1.14,0-2.07,0.88-2.07,1.97C417.17,110.32,418.1,111.21,419.23,111.21L419.23,111.21z"/>
			<path id="XMLID_13_" class="st5" d="M408.06,114.89c0.37-1.03,1.54-1.58,2.62-1.23c1.08,0.35,1.66,1.47,1.29,2.5
				c-0.37,1.03-1.54,1.58-2.62,1.23C408.27,117.04,407.69,115.92,408.06,114.89L408.06,114.89z"/>
			<path id="XMLID_12_" class="st5" d="M412.17,127.53c-0.92-0.65-1.1-1.89-0.42-2.76c0.68-0.87,1.98-1.05,2.89-0.4
				c0.92,0.65,1.1,1.89,0.42,2.76C414.38,128,413.09,128.18,412.17,127.53L412.17,127.53z"/>
			<path id="XMLID_11_" class="st5" d="M425.98,127.75c-0.94,0.62-2.23,0.4-2.88-0.49c-0.65-0.9-0.42-2.12,0.52-2.74
				c0.94-0.62,2.22-0.4,2.88,0.49C427.14,125.91,426.91,127.13,425.98,127.75L425.98,127.75z"/>
			<path id="XMLID_10_" class="st5" d="M430.46,115.04c0.35,1.04-0.24,2.15-1.33,2.48c-1.08,0.33-2.25-0.23-2.6-1.27
				c-0.35-1.04,0.24-2.15,1.33-2.48C428.94,113.44,430.11,114.01,430.46,115.04L430.46,115.04z"/>
			<path id="XMLID_9_" class="st6" d="M419.23,110.54c0.75,0,1.37-0.59,1.37-1.3c0-0.72-0.61-1.3-1.37-1.3
				c-0.75,0-1.37,0.58-1.37,1.3C417.87,109.95,418.48,110.54,419.23,110.54L419.23,110.54z"/>
			<path id="XMLID_8_" class="st6" d="M408.72,115.11c0.24-0.68,1.02-1.05,1.73-0.81c0.71,0.23,1.1,0.97,0.85,1.65
				c-0.24,0.68-1.02,1.05-1.73,0.81C408.87,116.53,408.48,115.79,408.72,115.11L408.72,115.11z"/>
			<path id="XMLID_7_" class="st6" d="M412.59,127c-0.6-0.43-0.73-1.25-0.27-1.82c0.45-0.58,1.31-0.7,1.91-0.26
				c0.6,0.43,0.73,1.24,0.27,1.82C414.05,127.31,413.19,127.43,412.59,127L412.59,127z"/>
			<path id="XMLID_6_" class="st6" d="M425.57,127.21c-0.62,0.41-1.47,0.26-1.9-0.33c-0.43-0.59-0.28-1.4,0.34-1.81
				c0.62-0.41,1.47-0.26,1.9,0.33C426.34,125.99,426.19,126.8,425.57,127.21L425.57,127.21z"/>
			<path id="XMLID_5_" class="st6" d="M429.79,115.25c0.23,0.69-0.16,1.42-0.88,1.64c-0.71,0.22-1.49-0.15-1.72-0.84
				c-0.23-0.69,0.16-1.42,0.88-1.64C428.79,114.2,429.56,114.57,429.79,115.25L429.79,115.25z"/>
			<path id="XMLID_4_" class="st6" d="M419.23,121.91c1.96,0,3.56-1.52,3.56-3.4c0-1.87-1.6-3.4-3.56-3.4
				c-1.96,0-3.56,1.53-3.56,3.4C415.67,120.39,417.27,121.91,419.23,121.91L419.23,121.91z"/>
		</g>
		<path class="st6" d="M419.23,83.46c-20.31,0-36.77,15.69-36.77,35.06c0,19.36,16.46,35.06,36.77,35.06S456,137.88,456,118.52
			C456,99.16,439.54,83.46,419.23,83.46z M419.23,145.71c-15.75,0-28.52-12.17-28.52-27.19c0-15.02,12.77-27.19,28.52-27.19
			c15.75,0,28.52,12.17,28.52,27.19C447.75,133.53,434.99,145.71,419.23,145.71z"/>
	</g>
	<g>
		<g>
			<path id="XMLID_42_" class="st2" d="M119.89,88.32c17.55,0,31.78,13.56,31.78,30.29c0,16.73-14.23,30.3-31.78,30.3
				c-17.55,0-31.77-13.56-31.77-30.3C88.11,101.89,102.34,88.32,119.89,88.32L119.89,88.32z M119.89,93.67
				c14.45,0,26.16,11.17,26.16,24.94c0,13.78-11.71,24.95-26.16,24.95c-14.45,0-26.16-11.17-26.16-24.95
				C93.73,104.84,105.44,93.67,119.89,93.67L119.89,93.67z"/>
			<path id="XMLID_35_" class="st3" d="M119.89,88.05c0.28,0,0.55,0,0.83,0.01c0.28,0,0.55,0.02,0.82,0.03
				c0.27,0.02,0.55,0.03,0.82,0.05c0.27,0.02,0.54,0.05,0.81,0.07c0.27,0.03,0.54,0.06,0.81,0.09c0.27,0.03,0.53,0.07,0.8,0.11
				c0.27,0.04,0.53,0.08,0.79,0.13c0.27,0.04,0.53,0.09,0.79,0.14c0.26,0.05,0.52,0.11,0.78,0.16c0.26,0.05,0.52,0.11,0.77,0.18
				c0.26,0.07,0.51,0.13,0.77,0.2c0.25,0.07,0.51,0.14,0.75,0.21c0.25,0.07,0.5,0.15,0.75,0.23c0.24,0.08,0.49,0.16,0.74,0.25
				c0.24,0.08,0.49,0.17,0.73,0.26c0.24,0.09,0.49,0.18,0.73,0.28c0.24,0.1,0.48,0.2,0.71,0.3c0.23,0.1,0.47,0.21,0.7,0.31
				c0.23,0.11,0.47,0.22,0.69,0.33c0.23,0.11,0.46,0.23,0.69,0.35c0.23,0.11,0.45,0.24,0.68,0.36l0,0c0.22,0.12,0.45,0.25,0.67,0.38
				c0.22,0.13,0.44,0.26,0.65,0.39c0.22,0.13,0.43,0.27,0.65,0.4c0.21,0.14,0.42,0.28,0.63,0.42c0.21,0.14,0.42,0.29,0.63,0.43
				c0.2,0.15,0.41,0.29,0.61,0.45c0.2,0.15,0.4,0.3,0.6,0.46l0,0c0.2,0.16,0.39,0.31,0.59,0.47c0.19,0.16,0.39,0.32,0.57,0.49
				c0.19,0.16,0.38,0.33,0.56,0.5c0.18,0.17,0.37,0.34,0.55,0.51c0.18,0.17,0.36,0.35,0.54,0.52c0.18,0.18,0.35,0.36,0.52,0.54
				c0.17,0.18,0.35,0.36,0.51,0.55l0,0c0.16,0.18,0.33,0.37,0.49,0.56c0.16,0.19,0.33,0.38,0.49,0.57c0.16,0.19,0.31,0.39,0.47,0.58
				c0.16,0.2,0.31,0.39,0.45,0.59c0.15,0.2,0.3,0.4,0.44,0.6c0.14,0.2,0.29,0.41,0.43,0.61c0.14,0.21,0.27,0.42,0.41,0.63
				c0.13,0.21,0.27,0.42,0.39,0.64c0.13,0.21,0.25,0.42,0.38,0.64l0,0c0.12,0.22,0.24,0.43,0.36,0.65l0,0
				c0.12,0.22,0.23,0.44,0.35,0.66c0.11,0.22,0.22,0.45,0.33,0.67l0,0c0.11,0.23,0.21,0.45,0.31,0.68c0.1,0.23,0.2,0.46,0.3,0.69
				c0.09,0.23,0.18,0.46,0.28,0.7l0,0c0.09,0.23,0.18,0.47,0.26,0.71c0.08,0.24,0.16,0.47,0.24,0.71c0.08,0.24,0.15,0.48,0.22,0.72
				c0.07,0.24,0.14,0.48,0.21,0.73c0.06,0.25,0.13,0.49,0.19,0.74c0.06,0.25,0.12,0.49,0.17,0.74l0,0c0.05,0.25,0.1,0.5,0.15,0.75
				l0,0c0.04,0.25,0.09,0.5,0.13,0.75c0.04,0.26,0.08,0.51,0.11,0.76l0,0c0.04,0.26,0.06,0.51,0.09,0.77l0,0
				c0.03,0.26,0.05,0.51,0.07,0.77l0,0c0.02,0.26,0.04,0.52,0.05,0.78l0,0c0.01,0.26,0.02,0.52,0.03,0.78l0,0
				c0,0.26,0.01,0.52,0.01,0.79l0,0c0,0.26,0,0.53-0.01,0.79l0,0c-0.01,0.26-0.02,0.52-0.03,0.78l0,0
				c-0.02,0.26-0.03,0.52-0.05,0.78l0,0c-0.02,0.26-0.04,0.52-0.07,0.77l0,0c-0.03,0.26-0.06,0.51-0.09,0.77l0,0
				c-0.03,0.26-0.07,0.51-0.11,0.76c-0.04,0.25-0.08,0.51-0.13,0.75l0,0c-0.05,0.25-0.1,0.5-0.15,0.75l0,0
				c-0.05,0.25-0.11,0.5-0.17,0.74c-0.06,0.25-0.12,0.49-0.19,0.74c-0.06,0.25-0.14,0.49-0.21,0.73c-0.07,0.24-0.14,0.48-0.22,0.72
				c-0.08,0.24-0.16,0.48-0.24,0.72c-0.08,0.23-0.17,0.47-0.26,0.7l0,0c-0.09,0.23-0.18,0.47-0.28,0.7c-0.1,0.23-0.2,0.46-0.3,0.69
				c-0.1,0.23-0.2,0.46-0.31,0.68l0,0c-0.11,0.22-0.22,0.45-0.33,0.67c-0.11,0.22-0.23,0.44-0.35,0.66l0,0
				c-0.12,0.22-0.24,0.44-0.36,0.65l0,0c-0.12,0.22-0.25,0.43-0.38,0.65c-0.13,0.21-0.26,0.42-0.39,0.64
				c-0.14,0.21-0.27,0.42-0.41,0.62c-0.14,0.21-0.28,0.41-0.43,0.62c-0.14,0.2-0.29,0.4-0.44,0.6c-0.15,0.2-0.3,0.4-0.45,0.6
				c-0.15,0.2-0.31,0.39-0.47,0.58c-0.16,0.19-0.32,0.38-0.49,0.57c-0.16,0.19-0.33,0.38-0.49,0.56l0,0
				c-0.17,0.18-0.34,0.37-0.51,0.55c-0.17,0.18-0.35,0.36-0.52,0.54c-0.18,0.18-0.36,0.35-0.54,0.52c-0.18,0.17-0.37,0.34-0.55,0.51
				c-0.18,0.17-0.37,0.33-0.56,0.5c-0.19,0.16-0.38,0.33-0.57,0.49c-0.2,0.16-0.39,0.32-0.59,0.47l0,0c-0.2,0.16-0.4,0.31-0.6,0.46
				c-0.2,0.15-0.41,0.3-0.61,0.44c-0.21,0.15-0.41,0.29-0.63,0.43c-0.21,0.15-0.42,0.28-0.63,0.42c-0.21,0.14-0.43,0.27-0.65,0.41
				c-0.22,0.13-0.43,0.26-0.65,0.39c-0.22,0.13-0.44,0.25-0.67,0.38l0,0c-0.22,0.12-0.45,0.24-0.68,0.36
				c-0.22,0.11-0.45,0.23-0.69,0.34c-0.23,0.11-0.46,0.22-0.69,0.33c-0.23,0.11-0.47,0.21-0.7,0.31c-0.24,0.1-0.48,0.2-0.71,0.3
				c-0.24,0.1-0.48,0.19-0.73,0.28c-0.24,0.09-0.49,0.18-0.73,0.26c-0.24,0.08-0.49,0.17-0.74,0.25c-0.25,0.08-0.5,0.16-0.75,0.23
				c-0.25,0.08-0.5,0.15-0.75,0.21c-0.25,0.07-0.51,0.14-0.77,0.2c-0.25,0.06-0.51,0.12-0.77,0.18c-0.26,0.06-0.52,0.11-0.78,0.16
				c-0.26,0.05-0.52,0.1-0.79,0.15c-0.26,0.04-0.53,0.08-0.79,0.12c-0.27,0.04-0.53,0.08-0.8,0.11c-0.27,0.03-0.54,0.06-0.81,0.09
				s-0.54,0.05-0.81,0.07c-0.27,0.02-0.54,0.03-0.82,0.05c-0.27,0.01-0.55,0.02-0.82,0.03c-0.27,0-0.55,0.01-0.83,0.01
				s-0.55,0-0.83-0.01c-0.27-0.01-0.55-0.02-0.82-0.03c-0.27-0.02-0.54-0.03-0.82-0.05c-0.27-0.02-0.54-0.04-0.81-0.07
				c-0.27-0.03-0.54-0.05-0.81-0.09c-0.27-0.03-0.53-0.07-0.8-0.11c-0.27-0.04-0.53-0.08-0.79-0.12c-0.26-0.05-0.53-0.1-0.79-0.15
				c-0.26-0.05-0.52-0.1-0.78-0.16c-0.26-0.06-0.51-0.12-0.77-0.18c-0.26-0.06-0.51-0.13-0.76-0.2c-0.25-0.07-0.51-0.14-0.76-0.21
				c-0.25-0.07-0.5-0.15-0.75-0.23s-0.5-0.16-0.74-0.25c-0.24-0.09-0.49-0.18-0.73-0.26c-0.24-0.09-0.49-0.19-0.72-0.28
				c-0.24-0.1-0.48-0.2-0.71-0.3c-0.24-0.1-0.47-0.21-0.71-0.31c-0.23-0.11-0.47-0.22-0.69-0.33c-0.23-0.11-0.46-0.23-0.69-0.34
				c-0.23-0.12-0.45-0.24-0.67-0.36l0,0c-0.22-0.12-0.45-0.25-0.67-0.38c-0.22-0.13-0.44-0.26-0.66-0.39
				c-0.22-0.13-0.43-0.27-0.64-0.41c-0.21-0.14-0.43-0.28-0.63-0.42c-0.21-0.14-0.42-0.28-0.62-0.43c-0.2-0.15-0.41-0.29-0.61-0.44
				c-0.2-0.15-0.41-0.31-0.6-0.46l0,0c-0.2-0.15-0.39-0.31-0.59-0.47c-0.19-0.16-0.39-0.33-0.57-0.49c-0.19-0.16-0.38-0.33-0.57-0.5
				c-0.18-0.17-0.37-0.34-0.55-0.51c-0.18-0.17-0.36-0.35-0.54-0.52c-0.18-0.18-0.35-0.36-0.52-0.54c-0.17-0.18-0.34-0.36-0.51-0.55
				l0,0c-0.17-0.19-0.33-0.38-0.5-0.56c-0.16-0.19-0.33-0.38-0.48-0.57c-0.16-0.19-0.32-0.39-0.47-0.58
				c-0.15-0.2-0.31-0.39-0.45-0.6c-0.15-0.2-0.3-0.4-0.44-0.6c-0.14-0.2-0.29-0.41-0.42-0.62c-0.14-0.21-0.28-0.41-0.41-0.62
				s-0.27-0.42-0.39-0.64c-0.13-0.21-0.26-0.43-0.38-0.65l0,0c-0.12-0.21-0.24-0.43-0.37-0.65l0,0c-0.12-0.22-0.23-0.44-0.35-0.66
				c-0.11-0.22-0.22-0.45-0.33-0.67l0,0c-0.1-0.23-0.21-0.46-0.31-0.68c-0.1-0.23-0.2-0.46-0.29-0.69c-0.1-0.23-0.19-0.46-0.28-0.7
				l0,0c-0.09-0.23-0.18-0.47-0.26-0.7c-0.08-0.24-0.17-0.47-0.24-0.72c-0.08-0.24-0.15-0.48-0.22-0.72
				c-0.07-0.24-0.14-0.49-0.21-0.73c-0.06-0.24-0.13-0.49-0.18-0.74c-0.06-0.25-0.12-0.49-0.17-0.74l0,0
				c-0.05-0.25-0.1-0.5-0.15-0.75l0,0c-0.05-0.25-0.09-0.5-0.13-0.75c-0.04-0.25-0.08-0.51-0.11-0.76l0,0
				c-0.03-0.26-0.06-0.51-0.09-0.77l0,0c-0.02-0.26-0.05-0.51-0.07-0.77l0,0c-0.02-0.26-0.04-0.52-0.05-0.78l0,0
				c-0.01-0.26-0.02-0.52-0.03-0.78l0,0c-0.01-0.26-0.01-0.52-0.01-0.79l0,0c0-0.26,0-0.52,0.01-0.79l0,0
				c0-0.26,0.02-0.52,0.03-0.78l0,0c0.02-0.26,0.03-0.52,0.05-0.78l0,0c0.02-0.26,0.05-0.52,0.07-0.77l0,0
				c0.03-0.26,0.06-0.51,0.09-0.77l0,0c0.04-0.25,0.07-0.51,0.11-0.76c0.04-0.25,0.08-0.5,0.13-0.75l0,0
				c0.04-0.25,0.1-0.5,0.15-0.75l0,0c0.06-0.25,0.11-0.49,0.17-0.74c0.06-0.25,0.12-0.49,0.18-0.74c0.07-0.25,0.14-0.49,0.21-0.73
				c0.07-0.24,0.15-0.48,0.22-0.72c0.08-0.24,0.16-0.47,0.24-0.71c0.08-0.24,0.17-0.47,0.26-0.71l0,0c0.09-0.23,0.18-0.47,0.28-0.7
				c0.1-0.23,0.19-0.46,0.29-0.69c0.1-0.23,0.21-0.46,0.31-0.68l0,0c0.11-0.23,0.22-0.45,0.33-0.67c0.11-0.22,0.23-0.44,0.35-0.66
				l0,0c0.12-0.22,0.24-0.44,0.37-0.65l0,0c0.12-0.22,0.25-0.43,0.38-0.64c0.13-0.21,0.26-0.42,0.39-0.64
				c0.13-0.21,0.27-0.42,0.41-0.63c0.14-0.21,0.28-0.41,0.42-0.61c0.14-0.2,0.29-0.41,0.44-0.6c0.15-0.2,0.3-0.4,0.45-0.59
				c0.15-0.2,0.31-0.39,0.47-0.58c0.16-0.2,0.32-0.39,0.48-0.57c0.16-0.19,0.33-0.38,0.5-0.56l0,0c0.17-0.18,0.34-0.37,0.51-0.55
				c0.17-0.18,0.35-0.36,0.52-0.54c0.18-0.18,0.36-0.35,0.54-0.52c0.18-0.17,0.37-0.34,0.55-0.51c0.19-0.17,0.37-0.33,0.57-0.5
				c0.19-0.16,0.38-0.33,0.57-0.49c0.19-0.16,0.39-0.32,0.59-0.47l0,0c0.2-0.16,0.4-0.31,0.6-0.46c0.2-0.15,0.41-0.3,0.61-0.45
				c0.2-0.15,0.41-0.29,0.62-0.43c0.21-0.14,0.42-0.28,0.63-0.42c0.21-0.13,0.43-0.27,0.64-0.4c0.22-0.13,0.44-0.26,0.66-0.39
				c0.22-0.13,0.44-0.25,0.67-0.38l0,0c0.22-0.12,0.45-0.25,0.67-0.36c0.23-0.12,0.45-0.23,0.69-0.35c0.23-0.11,0.46-0.22,0.69-0.33
				c0.23-0.11,0.47-0.21,0.71-0.31c0.24-0.1,0.47-0.2,0.71-0.3c0.24-0.1,0.48-0.19,0.72-0.28c0.24-0.09,0.49-0.18,0.73-0.26
				c0.24-0.09,0.49-0.17,0.74-0.25c0.25-0.08,0.5-0.16,0.75-0.23c0.25-0.07,0.51-0.15,0.76-0.21c0.25-0.07,0.51-0.13,0.76-0.2
				c0.26-0.06,0.51-0.12,0.77-0.18c0.26-0.06,0.52-0.11,0.78-0.16c0.26-0.05,0.53-0.1,0.79-0.14c0.27-0.05,0.53-0.09,0.79-0.13
				c0.27-0.04,0.53-0.07,0.8-0.11c0.27-0.03,0.54-0.06,0.81-0.09c0.27-0.02,0.54-0.05,0.81-0.07c0.27-0.02,0.54-0.03,0.82-0.05
				c0.27-0.01,0.55-0.02,0.82-0.03C119.34,88.06,119.61,88.05,119.89,88.05L119.89,88.05z M124.75,91.78
				c8.77,1.44,16.17,6.68,20.27,13.89c-0.02,0.01-14.2,5.03-16.01,5.69c-1.81,0.67-5.03,0.93-4.89-1.99
				C124.26,106.44,124.75,91.85,124.75,91.78L124.75,91.78z M148.15,114.66c0.2,1.29,0.3,2.61,0.3,3.95
				c0,7.26-2.98,13.85-7.83,18.73c-0.17-0.2-9.44-11.3-10.66-12.73c-1.23-1.44-2.49-4.26,0.47-5.05
				C133.38,118.78,148.04,114.7,148.15,114.66L148.15,114.66z M132.37,143.12c-3.77,1.75-8,2.73-12.48,2.73
				c-4.47,0-8.71-0.98-12.48-2.73c0,0,8.45-11.98,9.52-13.53c1.07-1.55,3.51-3.56,5.19-1.1
				C123.8,130.94,132.37,143.12,132.37,143.12L132.37,143.12z M98.99,137.18c-4.75-4.86-7.66-11.39-7.66-18.56
				c0-1.42,0.11-2.82,0.33-4.18c0.08,0.02,14.5,4.19,16.36,4.7c1.87,0.52,4.6,2.16,2.63,4.41
				C108.69,125.78,99.17,136.97,98.99,137.18L98.99,137.18z M94.76,105.65c4.1-7.2,11.5-12.45,20.28-13.88
				c0,0.11,0.46,14.44,0.55,16.28c0.08,1.85-0.68,4.84-3.55,3.78C109.17,110.78,94.76,105.65,94.76,105.65L94.76,105.65z"/>
			<path id="XMLID_34_" class="st4" d="M119.89,122.65c2.33,0,4.23-1.81,4.23-4.04c0-2.22-1.9-4.04-4.23-4.04
				c-2.33,0-4.23,1.81-4.23,4.04C115.65,120.84,117.56,122.65,119.89,122.65L119.89,122.65z"/>
			<path id="XMLID_33_" class="st5" d="M119.89,111.3c1.14,0,2.07-0.88,2.07-1.97c0-1.09-0.93-1.97-2.07-1.97
				c-1.14,0-2.07,0.88-2.07,1.97C117.82,110.42,118.75,111.3,119.89,111.3L119.89,111.3z"/>
			<path id="XMLID_32_" class="st5" d="M108.72,114.99c0.37-1.03,1.54-1.58,2.62-1.23c1.08,0.35,1.66,1.47,1.29,2.5
				c-0.37,1.03-1.54,1.58-2.62,1.23C108.92,117.14,108.35,116.02,108.72,114.99L108.72,114.99z"/>
			<path id="XMLID_31_" class="st5" d="M112.82,127.63c-0.92-0.65-1.1-1.89-0.42-2.76c0.68-0.87,1.98-1.05,2.89-0.4
				c0.92,0.65,1.1,1.89,0.42,2.76C115.03,128.1,113.74,128.28,112.82,127.63L112.82,127.63z"/>
			<path id="XMLID_30_" class="st5" d="M126.63,127.85c-0.94,0.62-2.23,0.4-2.88-0.49c-0.65-0.9-0.42-2.12,0.52-2.74
				c0.94-0.62,2.22-0.4,2.88,0.49C127.8,126,127.56,127.23,126.63,127.85L126.63,127.85z"/>
			<path id="XMLID_29_" class="st5" d="M131.11,115.14c0.35,1.04-0.24,2.15-1.33,2.48c-1.08,0.33-2.25-0.23-2.6-1.27
				c-0.35-1.04,0.24-2.15,1.33-2.48C129.6,113.54,130.76,114.11,131.11,115.14L131.11,115.14z"/>
			<path id="XMLID_28_" class="st6" d="M119.89,110.64c0.75,0,1.37-0.59,1.37-1.3c0-0.72-0.61-1.3-1.37-1.3
				c-0.75,0-1.37,0.58-1.37,1.3C118.52,110.05,119.14,110.64,119.89,110.64L119.89,110.64z"/>
			<path id="XMLID_27_" class="st6" d="M109.38,115.21c0.24-0.68,1.02-1.05,1.73-0.81c0.71,0.23,1.1,0.97,0.85,1.65
				c-0.24,0.68-1.02,1.05-1.73,0.81C109.52,116.63,109.14,115.89,109.38,115.21L109.38,115.21z"/>
			<path id="XMLID_26_" class="st6" d="M113.24,127.1c-0.6-0.43-0.73-1.25-0.27-1.82c0.45-0.58,1.31-0.7,1.91-0.26
				c0.6,0.43,0.73,1.24,0.27,1.82C114.7,127.41,113.85,127.52,113.24,127.1L113.24,127.1z"/>
			<path id="XMLID_25_" class="st6" d="M126.23,127.31c-0.62,0.41-1.47,0.26-1.9-0.33c-0.43-0.59-0.28-1.4,0.34-1.81
				c0.62-0.41,1.47-0.26,1.9,0.33C127,126.09,126.85,126.9,126.23,127.31L126.23,127.31z"/>
			<path id="XMLID_3_" class="st6" d="M130.45,115.35c0.23,0.69-0.16,1.42-0.88,1.64c-0.71,0.22-1.49-0.15-1.72-0.84
				c-0.23-0.69,0.16-1.42,0.88-1.64C129.44,114.29,130.21,114.67,130.45,115.35L130.45,115.35z"/>
			<path id="XMLID_1_" class="st6" d="M119.89,122.01c1.96,0,3.56-1.52,3.56-3.4c0-1.87-1.6-3.4-3.56-3.4
				c-1.96,0-3.56,1.53-3.56,3.4C116.32,120.49,117.93,122.01,119.89,122.01L119.89,122.01z"/>
		</g>
		<path class="st6" d="M119.89,83.56c-20.31,0-36.77,15.69-36.77,35.06c0,19.36,16.46,35.06,36.77,35.06s36.77-15.69,36.77-35.06
			C156.66,99.25,140.19,83.56,119.89,83.56z M119.89,145.81c-15.75,0-28.52-12.17-28.52-27.19c0-15.02,12.77-27.19,28.52-27.19
			s28.52,12.17,28.52,27.19C148.41,133.63,135.64,145.81,119.89,145.81z"/>
	</g>
</g>
<g id="XMLID_2_">
	<g>
		<defs>
			<path id="SVGID_9_" d="M5,200.47c0,0,76.09-104.9,166.53-87.9s76.09,48.9,158.34,36.32c-30.37,32.9-83.8,36.89-142.98,6.81
				c0.92,15.75,6.47,30.67,49.46,48.04c99.88,23.6,168.16-31.9,225.8-72.29c26.49-18.56,31.82-6.97,31.82-6.97
				S386.59,290.81,222.36,260.02c-51.14-14.2-114.61-34.91-148.97-55.43S5,200.47,5,200.47z"/>
		</defs>
		<clipPath id="SVGID_4_">
			<use xlink:href="#SVGID_9_"  style="overflow:visible;"/>
		</clipPath>
		<g class="st7">
		</g>
	</g>
</g>
</svg>
